G04 #@! TF.GenerationSoftware,KiCad,Pcbnew,8.0.2*
G04 #@! TF.CreationDate,2024-08-20T08:25:12+02:00*
G04 #@! TF.ProjectId,STS1_SIDEPANEL,53545331-5f53-4494-9445-50414e454c2e,rev?*
G04 #@! TF.SameCoordinates,Original*
G04 #@! TF.FileFunction,Legend,Top*
G04 #@! TF.FilePolarity,Positive*
%FSLAX46Y46*%
G04 Gerber Fmt 4.6, Leading zero omitted, Abs format (unit mm)*
G04 Created by KiCad (PCBNEW 8.0.2) date 2024-08-20 08:25:12*
%MOMM*%
%LPD*%
G01*
G04 APERTURE LIST*
G04 Aperture macros list*
%AMRoundRect*
0 Rectangle with rounded corners*
0 $1 Rounding radius*
0 $2 $3 $4 $5 $6 $7 $8 $9 X,Y pos of 4 corners*
0 Add a 4 corners polygon primitive as box body*
4,1,4,$2,$3,$4,$5,$6,$7,$8,$9,$2,$3,0*
0 Add four circle primitives for the rounded corners*
1,1,$1+$1,$2,$3*
1,1,$1+$1,$4,$5*
1,1,$1+$1,$6,$7*
1,1,$1+$1,$8,$9*
0 Add four rect primitives between the rounded corners*
20,1,$1+$1,$2,$3,$4,$5,0*
20,1,$1+$1,$4,$5,$6,$7,0*
20,1,$1+$1,$6,$7,$8,$9,0*
20,1,$1+$1,$8,$9,$2,$3,0*%
%AMFreePoly0*
4,1,17,27.998779,14.255902,28.009846,14.246565,39.669846,2.866565,39.698571,2.811843,39.696113,2.795000,39.700000,2.795000,39.700000,-2.795000,-39.700000,-2.795000,-39.700000,2.795000,-39.695106,2.795000,-39.695106,2.825902,-39.669846,2.866565,-28.009846,14.246565,-27.954442,14.273952,-27.940000,14.275000,27.940000,14.275000,27.998779,14.255902,27.998779,14.255902,$1*%
G04 Aperture macros list end*
%ADD10C,0.150000*%
%ADD11C,0.120000*%
%ADD12C,6.000000*%
%ADD13FreePoly0,0.000000*%
%ADD14R,79.400000X20.475000*%
%ADD15C,5.700000*%
%ADD16RoundRect,0.350000X-4.400000X-3.150000X4.400000X-3.150000X4.400000X3.150000X-4.400000X3.150000X0*%
%ADD17RoundRect,0.100000X-0.300000X-0.300000X0.300000X-0.300000X0.300000X0.300000X-0.300000X0.300000X0*%
G04 APERTURE END LIST*
D10*
X100901028Y-37986419D02*
X100329600Y-37986419D01*
X100615314Y-37986419D02*
X100615314Y-36986419D01*
X100615314Y-36986419D02*
X100520076Y-37129276D01*
X100520076Y-37129276D02*
X100424838Y-37224514D01*
X100424838Y-37224514D02*
X100329600Y-37272133D01*
X101520076Y-36986419D02*
X101615314Y-36986419D01*
X101615314Y-36986419D02*
X101710552Y-37034038D01*
X101710552Y-37034038D02*
X101758171Y-37081657D01*
X101758171Y-37081657D02*
X101805790Y-37176895D01*
X101805790Y-37176895D02*
X101853409Y-37367371D01*
X101853409Y-37367371D02*
X101853409Y-37605466D01*
X101853409Y-37605466D02*
X101805790Y-37795942D01*
X101805790Y-37795942D02*
X101758171Y-37891180D01*
X101758171Y-37891180D02*
X101710552Y-37938800D01*
X101710552Y-37938800D02*
X101615314Y-37986419D01*
X101615314Y-37986419D02*
X101520076Y-37986419D01*
X101520076Y-37986419D02*
X101424838Y-37938800D01*
X101424838Y-37938800D02*
X101377219Y-37891180D01*
X101377219Y-37891180D02*
X101329600Y-37795942D01*
X101329600Y-37795942D02*
X101281981Y-37605466D01*
X101281981Y-37605466D02*
X101281981Y-37367371D01*
X101281981Y-37367371D02*
X101329600Y-37176895D01*
X101329600Y-37176895D02*
X101377219Y-37081657D01*
X101377219Y-37081657D02*
X101424838Y-37034038D01*
X101424838Y-37034038D02*
X101520076Y-36986419D01*
X102472457Y-36986419D02*
X102567695Y-36986419D01*
X102567695Y-36986419D02*
X102662933Y-37034038D01*
X102662933Y-37034038D02*
X102710552Y-37081657D01*
X102710552Y-37081657D02*
X102758171Y-37176895D01*
X102758171Y-37176895D02*
X102805790Y-37367371D01*
X102805790Y-37367371D02*
X102805790Y-37605466D01*
X102805790Y-37605466D02*
X102758171Y-37795942D01*
X102758171Y-37795942D02*
X102710552Y-37891180D01*
X102710552Y-37891180D02*
X102662933Y-37938800D01*
X102662933Y-37938800D02*
X102567695Y-37986419D01*
X102567695Y-37986419D02*
X102472457Y-37986419D01*
X102472457Y-37986419D02*
X102377219Y-37938800D01*
X102377219Y-37938800D02*
X102329600Y-37891180D01*
X102329600Y-37891180D02*
X102281981Y-37795942D01*
X102281981Y-37795942D02*
X102234362Y-37605466D01*
X102234362Y-37605466D02*
X102234362Y-37367371D01*
X102234362Y-37367371D02*
X102281981Y-37176895D01*
X102281981Y-37176895D02*
X102329600Y-37081657D01*
X102329600Y-37081657D02*
X102377219Y-37034038D01*
X102377219Y-37034038D02*
X102472457Y-36986419D01*
X103996267Y-37986419D02*
X103996267Y-37319752D01*
X103996267Y-37414990D02*
X104043886Y-37367371D01*
X104043886Y-37367371D02*
X104139124Y-37319752D01*
X104139124Y-37319752D02*
X104281981Y-37319752D01*
X104281981Y-37319752D02*
X104377219Y-37367371D01*
X104377219Y-37367371D02*
X104424838Y-37462609D01*
X104424838Y-37462609D02*
X104424838Y-37986419D01*
X104424838Y-37462609D02*
X104472457Y-37367371D01*
X104472457Y-37367371D02*
X104567695Y-37319752D01*
X104567695Y-37319752D02*
X104710552Y-37319752D01*
X104710552Y-37319752D02*
X104805791Y-37367371D01*
X104805791Y-37367371D02*
X104853410Y-37462609D01*
X104853410Y-37462609D02*
X104853410Y-37986419D01*
X105329600Y-37986419D02*
X105329600Y-37319752D01*
X105329600Y-37414990D02*
X105377219Y-37367371D01*
X105377219Y-37367371D02*
X105472457Y-37319752D01*
X105472457Y-37319752D02*
X105615314Y-37319752D01*
X105615314Y-37319752D02*
X105710552Y-37367371D01*
X105710552Y-37367371D02*
X105758171Y-37462609D01*
X105758171Y-37462609D02*
X105758171Y-37986419D01*
X105758171Y-37462609D02*
X105805790Y-37367371D01*
X105805790Y-37367371D02*
X105901028Y-37319752D01*
X105901028Y-37319752D02*
X106043885Y-37319752D01*
X106043885Y-37319752D02*
X106139124Y-37367371D01*
X106139124Y-37367371D02*
X106186743Y-37462609D01*
X106186743Y-37462609D02*
X106186743Y-37986419D01*
X107329600Y-37986419D02*
X107853409Y-37319752D01*
X107329600Y-37319752D02*
X107853409Y-37986419D01*
X109139124Y-37414990D02*
X109043886Y-37367371D01*
X109043886Y-37367371D02*
X108996267Y-37319752D01*
X108996267Y-37319752D02*
X108948648Y-37224514D01*
X108948648Y-37224514D02*
X108948648Y-37176895D01*
X108948648Y-37176895D02*
X108996267Y-37081657D01*
X108996267Y-37081657D02*
X109043886Y-37034038D01*
X109043886Y-37034038D02*
X109139124Y-36986419D01*
X109139124Y-36986419D02*
X109329600Y-36986419D01*
X109329600Y-36986419D02*
X109424838Y-37034038D01*
X109424838Y-37034038D02*
X109472457Y-37081657D01*
X109472457Y-37081657D02*
X109520076Y-37176895D01*
X109520076Y-37176895D02*
X109520076Y-37224514D01*
X109520076Y-37224514D02*
X109472457Y-37319752D01*
X109472457Y-37319752D02*
X109424838Y-37367371D01*
X109424838Y-37367371D02*
X109329600Y-37414990D01*
X109329600Y-37414990D02*
X109139124Y-37414990D01*
X109139124Y-37414990D02*
X109043886Y-37462609D01*
X109043886Y-37462609D02*
X108996267Y-37510228D01*
X108996267Y-37510228D02*
X108948648Y-37605466D01*
X108948648Y-37605466D02*
X108948648Y-37795942D01*
X108948648Y-37795942D02*
X108996267Y-37891180D01*
X108996267Y-37891180D02*
X109043886Y-37938800D01*
X109043886Y-37938800D02*
X109139124Y-37986419D01*
X109139124Y-37986419D02*
X109329600Y-37986419D01*
X109329600Y-37986419D02*
X109424838Y-37938800D01*
X109424838Y-37938800D02*
X109472457Y-37891180D01*
X109472457Y-37891180D02*
X109520076Y-37795942D01*
X109520076Y-37795942D02*
X109520076Y-37605466D01*
X109520076Y-37605466D02*
X109472457Y-37510228D01*
X109472457Y-37510228D02*
X109424838Y-37462609D01*
X109424838Y-37462609D02*
X109329600Y-37414990D01*
X109901029Y-37081657D02*
X109948648Y-37034038D01*
X109948648Y-37034038D02*
X110043886Y-36986419D01*
X110043886Y-36986419D02*
X110281981Y-36986419D01*
X110281981Y-36986419D02*
X110377219Y-37034038D01*
X110377219Y-37034038D02*
X110424838Y-37081657D01*
X110424838Y-37081657D02*
X110472457Y-37176895D01*
X110472457Y-37176895D02*
X110472457Y-37272133D01*
X110472457Y-37272133D02*
X110424838Y-37414990D01*
X110424838Y-37414990D02*
X109853410Y-37986419D01*
X109853410Y-37986419D02*
X110472457Y-37986419D01*
X110901029Y-37891180D02*
X110948648Y-37938800D01*
X110948648Y-37938800D02*
X110901029Y-37986419D01*
X110901029Y-37986419D02*
X110853410Y-37938800D01*
X110853410Y-37938800D02*
X110901029Y-37891180D01*
X110901029Y-37891180D02*
X110901029Y-37986419D01*
X111520076Y-37414990D02*
X111424838Y-37367371D01*
X111424838Y-37367371D02*
X111377219Y-37319752D01*
X111377219Y-37319752D02*
X111329600Y-37224514D01*
X111329600Y-37224514D02*
X111329600Y-37176895D01*
X111329600Y-37176895D02*
X111377219Y-37081657D01*
X111377219Y-37081657D02*
X111424838Y-37034038D01*
X111424838Y-37034038D02*
X111520076Y-36986419D01*
X111520076Y-36986419D02*
X111710552Y-36986419D01*
X111710552Y-36986419D02*
X111805790Y-37034038D01*
X111805790Y-37034038D02*
X111853409Y-37081657D01*
X111853409Y-37081657D02*
X111901028Y-37176895D01*
X111901028Y-37176895D02*
X111901028Y-37224514D01*
X111901028Y-37224514D02*
X111853409Y-37319752D01*
X111853409Y-37319752D02*
X111805790Y-37367371D01*
X111805790Y-37367371D02*
X111710552Y-37414990D01*
X111710552Y-37414990D02*
X111520076Y-37414990D01*
X111520076Y-37414990D02*
X111424838Y-37462609D01*
X111424838Y-37462609D02*
X111377219Y-37510228D01*
X111377219Y-37510228D02*
X111329600Y-37605466D01*
X111329600Y-37605466D02*
X111329600Y-37795942D01*
X111329600Y-37795942D02*
X111377219Y-37891180D01*
X111377219Y-37891180D02*
X111424838Y-37938800D01*
X111424838Y-37938800D02*
X111520076Y-37986419D01*
X111520076Y-37986419D02*
X111710552Y-37986419D01*
X111710552Y-37986419D02*
X111805790Y-37938800D01*
X111805790Y-37938800D02*
X111853409Y-37891180D01*
X111853409Y-37891180D02*
X111901028Y-37795942D01*
X111901028Y-37795942D02*
X111901028Y-37605466D01*
X111901028Y-37605466D02*
X111853409Y-37510228D01*
X111853409Y-37510228D02*
X111805790Y-37462609D01*
X111805790Y-37462609D02*
X111710552Y-37414990D01*
X113091505Y-37986419D02*
X113091505Y-37319752D01*
X113091505Y-37414990D02*
X113139124Y-37367371D01*
X113139124Y-37367371D02*
X113234362Y-37319752D01*
X113234362Y-37319752D02*
X113377219Y-37319752D01*
X113377219Y-37319752D02*
X113472457Y-37367371D01*
X113472457Y-37367371D02*
X113520076Y-37462609D01*
X113520076Y-37462609D02*
X113520076Y-37986419D01*
X113520076Y-37462609D02*
X113567695Y-37367371D01*
X113567695Y-37367371D02*
X113662933Y-37319752D01*
X113662933Y-37319752D02*
X113805790Y-37319752D01*
X113805790Y-37319752D02*
X113901029Y-37367371D01*
X113901029Y-37367371D02*
X113948648Y-37462609D01*
X113948648Y-37462609D02*
X113948648Y-37986419D01*
X114424838Y-37986419D02*
X114424838Y-37319752D01*
X114424838Y-37414990D02*
X114472457Y-37367371D01*
X114472457Y-37367371D02*
X114567695Y-37319752D01*
X114567695Y-37319752D02*
X114710552Y-37319752D01*
X114710552Y-37319752D02*
X114805790Y-37367371D01*
X114805790Y-37367371D02*
X114853409Y-37462609D01*
X114853409Y-37462609D02*
X114853409Y-37986419D01*
X114853409Y-37462609D02*
X114901028Y-37367371D01*
X114901028Y-37367371D02*
X114996266Y-37319752D01*
X114996266Y-37319752D02*
X115139123Y-37319752D01*
X115139123Y-37319752D02*
X115234362Y-37367371D01*
X115234362Y-37367371D02*
X115281981Y-37462609D01*
X115281981Y-37462609D02*
X115281981Y-37986419D01*
X163258095Y-130142400D02*
X163400952Y-130190019D01*
X163400952Y-130190019D02*
X163639047Y-130190019D01*
X163639047Y-130190019D02*
X163734285Y-130142400D01*
X163734285Y-130142400D02*
X163781904Y-130094780D01*
X163781904Y-130094780D02*
X163829523Y-129999542D01*
X163829523Y-129999542D02*
X163829523Y-129904304D01*
X163829523Y-129904304D02*
X163781904Y-129809066D01*
X163781904Y-129809066D02*
X163734285Y-129761447D01*
X163734285Y-129761447D02*
X163639047Y-129713828D01*
X163639047Y-129713828D02*
X163448571Y-129666209D01*
X163448571Y-129666209D02*
X163353333Y-129618590D01*
X163353333Y-129618590D02*
X163305714Y-129570971D01*
X163305714Y-129570971D02*
X163258095Y-129475733D01*
X163258095Y-129475733D02*
X163258095Y-129380495D01*
X163258095Y-129380495D02*
X163305714Y-129285257D01*
X163305714Y-129285257D02*
X163353333Y-129237638D01*
X163353333Y-129237638D02*
X163448571Y-129190019D01*
X163448571Y-129190019D02*
X163686666Y-129190019D01*
X163686666Y-129190019D02*
X163829523Y-129237638D01*
X164829523Y-130094780D02*
X164781904Y-130142400D01*
X164781904Y-130142400D02*
X164639047Y-130190019D01*
X164639047Y-130190019D02*
X164543809Y-130190019D01*
X164543809Y-130190019D02*
X164400952Y-130142400D01*
X164400952Y-130142400D02*
X164305714Y-130047161D01*
X164305714Y-130047161D02*
X164258095Y-129951923D01*
X164258095Y-129951923D02*
X164210476Y-129761447D01*
X164210476Y-129761447D02*
X164210476Y-129618590D01*
X164210476Y-129618590D02*
X164258095Y-129428114D01*
X164258095Y-129428114D02*
X164305714Y-129332876D01*
X164305714Y-129332876D02*
X164400952Y-129237638D01*
X164400952Y-129237638D02*
X164543809Y-129190019D01*
X164543809Y-129190019D02*
X164639047Y-129190019D01*
X164639047Y-129190019D02*
X164781904Y-129237638D01*
X164781904Y-129237638D02*
X164829523Y-129285257D01*
X165781904Y-130190019D02*
X165210476Y-130190019D01*
X165496190Y-130190019D02*
X165496190Y-129190019D01*
X165496190Y-129190019D02*
X165400952Y-129332876D01*
X165400952Y-129332876D02*
X165305714Y-129428114D01*
X165305714Y-129428114D02*
X165210476Y-129475733D01*
D11*
X85050000Y-102280200D02*
X98650000Y-88780200D01*
X85050000Y-128780200D02*
X85050000Y-102280200D01*
X98650000Y-88780200D02*
X151650000Y-88780200D01*
X151650000Y-88780200D02*
X165250000Y-102280200D01*
X154650000Y-88780200D02*
X165250000Y-99280200D01*
X165250000Y-88780200D02*
X154650000Y-88780200D01*
X165250000Y-99280200D02*
X165250000Y-88780200D01*
X165250000Y-102280200D02*
X165250000Y-128780200D01*
X165250000Y-128780200D02*
X85050000Y-128780200D01*
X106600000Y-65175000D02*
X106600000Y-65775000D01*
X108250000Y-64275000D02*
X107650000Y-64275000D01*
X108250000Y-66675000D02*
X107650000Y-66675000D01*
X109300000Y-65175000D02*
X109300000Y-65775000D01*
X109550000Y-66575000D02*
G75*
G02*
X109350000Y-66575000I-100000J0D01*
G01*
X109350000Y-66575000D02*
G75*
G02*
X109550000Y-66575000I100000J0D01*
G01*
%LPC*%
D12*
X101150000Y-110780200D03*
D13*
X125150000Y-105175200D03*
D12*
X125150000Y-110780200D03*
D14*
X125150000Y-118207700D03*
D15*
X152050000Y-110780200D03*
D16*
X109820000Y-85280200D03*
X141280000Y-85280200D03*
X160075000Y-85285200D03*
D17*
X108900000Y-66275000D03*
X108900000Y-64675000D03*
X107000000Y-64675000D03*
X107000000Y-66275000D03*
%LPD*%
M02*
