G04 #@! TF.GenerationSoftware,KiCad,Pcbnew,8.0.2*
G04 #@! TF.CreationDate,2024-08-20T08:25:12+02:00*
G04 #@! TF.ProjectId,STS1_SIDEPANEL,53545331-5f53-4494-9445-50414e454c2e,rev?*
G04 #@! TF.SameCoordinates,Original*
G04 #@! TF.FileFunction,Legend,Bot*
G04 #@! TF.FilePolarity,Positive*
%FSLAX46Y46*%
G04 Gerber Fmt 4.6, Leading zero omitted, Abs format (unit mm)*
G04 Created by KiCad (PCBNEW 8.0.2) date 2024-08-20 08:25:12*
%MOMM*%
%LPD*%
G01*
G04 APERTURE LIST*
G04 Aperture macros list*
%AMRoundRect*
0 Rectangle with rounded corners*
0 $1 Rounding radius*
0 $2 $3 $4 $5 $6 $7 $8 $9 X,Y pos of 4 corners*
0 Add a 4 corners polygon primitive as box body*
4,1,4,$2,$3,$4,$5,$6,$7,$8,$9,$2,$3,0*
0 Add four circle primitives for the rounded corners*
1,1,$1+$1,$2,$3*
1,1,$1+$1,$4,$5*
1,1,$1+$1,$6,$7*
1,1,$1+$1,$8,$9*
0 Add four rect primitives between the rounded corners*
20,1,$1+$1,$2,$3,$4,$5,0*
20,1,$1+$1,$4,$5,$6,$7,0*
20,1,$1+$1,$6,$7,$8,$9,0*
20,1,$1+$1,$8,$9,$2,$3,0*%
G04 Aperture macros list end*
%ADD10C,0.150000*%
%ADD11C,0.254000*%
%ADD12C,0.120000*%
%ADD13C,0.127000*%
%ADD14C,0.200000*%
%ADD15C,0.100000*%
%ADD16C,6.000000*%
%ADD17C,5.700000*%
%ADD18RoundRect,0.225000X-0.250000X0.225000X-0.250000X-0.225000X0.250000X-0.225000X0.250000X0.225000X0*%
%ADD19RoundRect,0.085000X-0.085000X0.265000X-0.085000X-0.265000X0.085000X-0.265000X0.085000X0.265000X0*%
%ADD20RoundRect,0.225000X-0.225000X-0.250000X0.225000X-0.250000X0.225000X0.250000X-0.225000X0.250000X0*%
%ADD21RoundRect,0.100000X0.637500X0.100000X-0.637500X0.100000X-0.637500X-0.100000X0.637500X-0.100000X0*%
%ADD22RoundRect,0.200000X0.275000X-0.200000X0.275000X0.200000X-0.275000X0.200000X-0.275000X-0.200000X0*%
%ADD23RoundRect,0.102000X0.325000X-0.475000X0.325000X0.475000X-0.325000X0.475000X-0.325000X-0.475000X0*%
%ADD24RoundRect,0.102000X-1.000000X-0.975000X1.000000X-0.975000X1.000000X0.975000X-1.000000X0.975000X0*%
%ADD25RoundRect,0.102000X0.425000X0.325000X-0.425000X0.325000X-0.425000X-0.325000X0.425000X-0.325000X0*%
%ADD26RoundRect,0.225000X0.250000X-0.225000X0.250000X0.225000X-0.250000X0.225000X-0.250000X-0.225000X0*%
%ADD27RoundRect,0.250000X-0.262500X-0.450000X0.262500X-0.450000X0.262500X0.450000X-0.262500X0.450000X0*%
%ADD28RoundRect,0.200000X-0.275000X0.200000X-0.275000X-0.200000X0.275000X-0.200000X0.275000X0.200000X0*%
%ADD29RoundRect,0.200000X-0.200000X-0.275000X0.200000X-0.275000X0.200000X0.275000X-0.200000X0.275000X0*%
%ADD30RoundRect,0.102000X0.715000X2.750000X-0.715000X2.750000X-0.715000X-2.750000X0.715000X-2.750000X0*%
%ADD31RoundRect,0.250000X0.262500X0.450000X-0.262500X0.450000X-0.262500X-0.450000X0.262500X-0.450000X0*%
%ADD32RoundRect,0.102000X-0.150000X-0.800000X0.150000X-0.800000X0.150000X0.800000X-0.150000X0.800000X0*%
%ADD33RoundRect,0.102000X-1.120000X-1.560000X1.120000X-1.560000X1.120000X1.560000X-1.120000X1.560000X0*%
%ADD34R,0.300000X1.000000*%
%ADD35R,1.650000X1.300000*%
%ADD36R,0.400000X1.000000*%
%ADD37R,2.000000X1.300000*%
%ADD38RoundRect,0.250000X0.475000X-0.250000X0.475000X0.250000X-0.475000X0.250000X-0.475000X-0.250000X0*%
%ADD39RoundRect,0.250000X0.350000X0.450000X-0.350000X0.450000X-0.350000X-0.450000X0.350000X-0.450000X0*%
%ADD40RoundRect,0.150000X0.512500X0.150000X-0.512500X0.150000X-0.512500X-0.150000X0.512500X-0.150000X0*%
%ADD41RoundRect,0.250000X-0.250000X-0.475000X0.250000X-0.475000X0.250000X0.475000X-0.250000X0.475000X0*%
%ADD42RoundRect,0.250000X-0.300000X-0.300000X0.300000X-0.300000X0.300000X0.300000X-0.300000X0.300000X0*%
%ADD43RoundRect,0.200000X0.200000X0.275000X-0.200000X0.275000X-0.200000X-0.275000X0.200000X-0.275000X0*%
G04 APERTURE END LIST*
D10*
X92932380Y-41159847D02*
X92265714Y-41159847D01*
X92265714Y-41159847D02*
X92932380Y-42159847D01*
X92932380Y-42159847D02*
X92265714Y-42159847D01*
X91884761Y-41778894D02*
X91122857Y-41778894D01*
X91503809Y-42159847D02*
X91503809Y-41397942D01*
X93503808Y-42769791D02*
X93170475Y-43769791D01*
X93170475Y-43769791D02*
X92837142Y-42769791D01*
X92551427Y-42865029D02*
X92503808Y-42817410D01*
X92503808Y-42817410D02*
X92408570Y-42769791D01*
X92408570Y-42769791D02*
X92170475Y-42769791D01*
X92170475Y-42769791D02*
X92075237Y-42817410D01*
X92075237Y-42817410D02*
X92027618Y-42865029D01*
X92027618Y-42865029D02*
X91979999Y-42960267D01*
X91979999Y-42960267D02*
X91979999Y-43055505D01*
X91979999Y-43055505D02*
X92027618Y-43198362D01*
X92027618Y-43198362D02*
X92599046Y-43769791D01*
X92599046Y-43769791D02*
X91979999Y-43769791D01*
X91551427Y-43674552D02*
X91503808Y-43722172D01*
X91503808Y-43722172D02*
X91551427Y-43769791D01*
X91551427Y-43769791D02*
X91599046Y-43722172D01*
X91599046Y-43722172D02*
X91551427Y-43674552D01*
X91551427Y-43674552D02*
X91551427Y-43769791D01*
X90599047Y-42769791D02*
X91075237Y-42769791D01*
X91075237Y-42769791D02*
X91122856Y-43245981D01*
X91122856Y-43245981D02*
X91075237Y-43198362D01*
X91075237Y-43198362D02*
X90979999Y-43150743D01*
X90979999Y-43150743D02*
X90741904Y-43150743D01*
X90741904Y-43150743D02*
X90646666Y-43198362D01*
X90646666Y-43198362D02*
X90599047Y-43245981D01*
X90599047Y-43245981D02*
X90551428Y-43341219D01*
X90551428Y-43341219D02*
X90551428Y-43579314D01*
X90551428Y-43579314D02*
X90599047Y-43674552D01*
X90599047Y-43674552D02*
X90646666Y-43722172D01*
X90646666Y-43722172D02*
X90741904Y-43769791D01*
X90741904Y-43769791D02*
X90979999Y-43769791D01*
X90979999Y-43769791D02*
X91075237Y-43722172D01*
X91075237Y-43722172D02*
X91122856Y-43674552D01*
X107159580Y-70733333D02*
X107207200Y-70685714D01*
X107207200Y-70685714D02*
X107254819Y-70542857D01*
X107254819Y-70542857D02*
X107254819Y-70447619D01*
X107254819Y-70447619D02*
X107207200Y-70304762D01*
X107207200Y-70304762D02*
X107111961Y-70209524D01*
X107111961Y-70209524D02*
X107016723Y-70161905D01*
X107016723Y-70161905D02*
X106826247Y-70114286D01*
X106826247Y-70114286D02*
X106683390Y-70114286D01*
X106683390Y-70114286D02*
X106492914Y-70161905D01*
X106492914Y-70161905D02*
X106397676Y-70209524D01*
X106397676Y-70209524D02*
X106302438Y-70304762D01*
X106302438Y-70304762D02*
X106254819Y-70447619D01*
X106254819Y-70447619D02*
X106254819Y-70542857D01*
X106254819Y-70542857D02*
X106302438Y-70685714D01*
X106302438Y-70685714D02*
X106350057Y-70733333D01*
X107254819Y-71685714D02*
X107254819Y-71114286D01*
X107254819Y-71400000D02*
X106254819Y-71400000D01*
X106254819Y-71400000D02*
X106397676Y-71304762D01*
X106397676Y-71304762D02*
X106492914Y-71209524D01*
X106492914Y-71209524D02*
X106540533Y-71114286D01*
X99004819Y-68723810D02*
X98004819Y-68723810D01*
X98909580Y-69771428D02*
X98957200Y-69723809D01*
X98957200Y-69723809D02*
X99004819Y-69580952D01*
X99004819Y-69580952D02*
X99004819Y-69485714D01*
X99004819Y-69485714D02*
X98957200Y-69342857D01*
X98957200Y-69342857D02*
X98861961Y-69247619D01*
X98861961Y-69247619D02*
X98766723Y-69200000D01*
X98766723Y-69200000D02*
X98576247Y-69152381D01*
X98576247Y-69152381D02*
X98433390Y-69152381D01*
X98433390Y-69152381D02*
X98242914Y-69200000D01*
X98242914Y-69200000D02*
X98147676Y-69247619D01*
X98147676Y-69247619D02*
X98052438Y-69342857D01*
X98052438Y-69342857D02*
X98004819Y-69485714D01*
X98004819Y-69485714D02*
X98004819Y-69580952D01*
X98004819Y-69580952D02*
X98052438Y-69723809D01*
X98052438Y-69723809D02*
X98100057Y-69771428D01*
X99004819Y-70723809D02*
X99004819Y-70152381D01*
X99004819Y-70438095D02*
X98004819Y-70438095D01*
X98004819Y-70438095D02*
X98147676Y-70342857D01*
X98147676Y-70342857D02*
X98242914Y-70247619D01*
X98242914Y-70247619D02*
X98290533Y-70152381D01*
X118784857Y-90875580D02*
X118832476Y-90923200D01*
X118832476Y-90923200D02*
X118975333Y-90970819D01*
X118975333Y-90970819D02*
X119070571Y-90970819D01*
X119070571Y-90970819D02*
X119213428Y-90923200D01*
X119213428Y-90923200D02*
X119308666Y-90827961D01*
X119308666Y-90827961D02*
X119356285Y-90732723D01*
X119356285Y-90732723D02*
X119403904Y-90542247D01*
X119403904Y-90542247D02*
X119403904Y-90399390D01*
X119403904Y-90399390D02*
X119356285Y-90208914D01*
X119356285Y-90208914D02*
X119308666Y-90113676D01*
X119308666Y-90113676D02*
X119213428Y-90018438D01*
X119213428Y-90018438D02*
X119070571Y-89970819D01*
X119070571Y-89970819D02*
X118975333Y-89970819D01*
X118975333Y-89970819D02*
X118832476Y-90018438D01*
X118832476Y-90018438D02*
X118784857Y-90066057D01*
X118403904Y-90066057D02*
X118356285Y-90018438D01*
X118356285Y-90018438D02*
X118261047Y-89970819D01*
X118261047Y-89970819D02*
X118022952Y-89970819D01*
X118022952Y-89970819D02*
X117927714Y-90018438D01*
X117927714Y-90018438D02*
X117880095Y-90066057D01*
X117880095Y-90066057D02*
X117832476Y-90161295D01*
X117832476Y-90161295D02*
X117832476Y-90256533D01*
X117832476Y-90256533D02*
X117880095Y-90399390D01*
X117880095Y-90399390D02*
X118451523Y-90970819D01*
X118451523Y-90970819D02*
X117832476Y-90970819D01*
X116880095Y-90970819D02*
X117451523Y-90970819D01*
X117165809Y-90970819D02*
X117165809Y-89970819D01*
X117165809Y-89970819D02*
X117261047Y-90113676D01*
X117261047Y-90113676D02*
X117356285Y-90208914D01*
X117356285Y-90208914D02*
X117451523Y-90256533D01*
X116155475Y-94159819D02*
X116155475Y-93159819D01*
X116155475Y-93159819D02*
X115822142Y-93874104D01*
X115822142Y-93874104D02*
X115488809Y-93159819D01*
X115488809Y-93159819D02*
X115488809Y-94159819D01*
X115012618Y-94159819D02*
X115012618Y-93159819D01*
X115012618Y-93159819D02*
X114631666Y-93159819D01*
X114631666Y-93159819D02*
X114536428Y-93207438D01*
X114536428Y-93207438D02*
X114488809Y-93255057D01*
X114488809Y-93255057D02*
X114441190Y-93350295D01*
X114441190Y-93350295D02*
X114441190Y-93493152D01*
X114441190Y-93493152D02*
X114488809Y-93588390D01*
X114488809Y-93588390D02*
X114536428Y-93636009D01*
X114536428Y-93636009D02*
X114631666Y-93683628D01*
X114631666Y-93683628D02*
X115012618Y-93683628D01*
X114012618Y-94159819D02*
X114012618Y-93159819D01*
X114012618Y-93159819D02*
X113631666Y-93159819D01*
X113631666Y-93159819D02*
X113536428Y-93207438D01*
X113536428Y-93207438D02*
X113488809Y-93255057D01*
X113488809Y-93255057D02*
X113441190Y-93350295D01*
X113441190Y-93350295D02*
X113441190Y-93493152D01*
X113441190Y-93493152D02*
X113488809Y-93588390D01*
X113488809Y-93588390D02*
X113536428Y-93636009D01*
X113536428Y-93636009D02*
X113631666Y-93683628D01*
X113631666Y-93683628D02*
X114012618Y-93683628D01*
X113155475Y-93159819D02*
X112584047Y-93159819D01*
X112869761Y-94159819D02*
X112869761Y-93159819D01*
X111726904Y-94159819D02*
X112298332Y-94159819D01*
X112012618Y-94159819D02*
X112012618Y-93159819D01*
X112012618Y-93159819D02*
X112107856Y-93302676D01*
X112107856Y-93302676D02*
X112203094Y-93397914D01*
X112203094Y-93397914D02*
X112298332Y-93445533D01*
X111683819Y-101857142D02*
X111207628Y-101523809D01*
X111683819Y-101285714D02*
X110683819Y-101285714D01*
X110683819Y-101285714D02*
X110683819Y-101666666D01*
X110683819Y-101666666D02*
X110731438Y-101761904D01*
X110731438Y-101761904D02*
X110779057Y-101809523D01*
X110779057Y-101809523D02*
X110874295Y-101857142D01*
X110874295Y-101857142D02*
X111017152Y-101857142D01*
X111017152Y-101857142D02*
X111112390Y-101809523D01*
X111112390Y-101809523D02*
X111160009Y-101761904D01*
X111160009Y-101761904D02*
X111207628Y-101666666D01*
X111207628Y-101666666D02*
X111207628Y-101285714D01*
X110683819Y-102190476D02*
X110683819Y-102857142D01*
X110683819Y-102857142D02*
X111683819Y-102428571D01*
X111683819Y-103761904D02*
X111683819Y-103190476D01*
X111683819Y-103476190D02*
X110683819Y-103476190D01*
X110683819Y-103476190D02*
X110826676Y-103380952D01*
X110826676Y-103380952D02*
X110921914Y-103285714D01*
X110921914Y-103285714D02*
X110969533Y-103190476D01*
X121574285Y-106244819D02*
X121574285Y-105244819D01*
X121574285Y-105244819D02*
X121336190Y-105244819D01*
X121336190Y-105244819D02*
X121193333Y-105292438D01*
X121193333Y-105292438D02*
X121098095Y-105387676D01*
X121098095Y-105387676D02*
X121050476Y-105482914D01*
X121050476Y-105482914D02*
X121002857Y-105673390D01*
X121002857Y-105673390D02*
X121002857Y-105816247D01*
X121002857Y-105816247D02*
X121050476Y-106006723D01*
X121050476Y-106006723D02*
X121098095Y-106101961D01*
X121098095Y-106101961D02*
X121193333Y-106197200D01*
X121193333Y-106197200D02*
X121336190Y-106244819D01*
X121336190Y-106244819D02*
X121574285Y-106244819D01*
X120621904Y-105340057D02*
X120574285Y-105292438D01*
X120574285Y-105292438D02*
X120479047Y-105244819D01*
X120479047Y-105244819D02*
X120240952Y-105244819D01*
X120240952Y-105244819D02*
X120145714Y-105292438D01*
X120145714Y-105292438D02*
X120098095Y-105340057D01*
X120098095Y-105340057D02*
X120050476Y-105435295D01*
X120050476Y-105435295D02*
X120050476Y-105530533D01*
X120050476Y-105530533D02*
X120098095Y-105673390D01*
X120098095Y-105673390D02*
X120669523Y-106244819D01*
X120669523Y-106244819D02*
X120050476Y-106244819D01*
X119098095Y-106244819D02*
X119669523Y-106244819D01*
X119383809Y-106244819D02*
X119383809Y-105244819D01*
X119383809Y-105244819D02*
X119479047Y-105387676D01*
X119479047Y-105387676D02*
X119574285Y-105482914D01*
X119574285Y-105482914D02*
X119669523Y-105530533D01*
X111274580Y-92692142D02*
X111322200Y-92644523D01*
X111322200Y-92644523D02*
X111369819Y-92501666D01*
X111369819Y-92501666D02*
X111369819Y-92406428D01*
X111369819Y-92406428D02*
X111322200Y-92263571D01*
X111322200Y-92263571D02*
X111226961Y-92168333D01*
X111226961Y-92168333D02*
X111131723Y-92120714D01*
X111131723Y-92120714D02*
X110941247Y-92073095D01*
X110941247Y-92073095D02*
X110798390Y-92073095D01*
X110798390Y-92073095D02*
X110607914Y-92120714D01*
X110607914Y-92120714D02*
X110512676Y-92168333D01*
X110512676Y-92168333D02*
X110417438Y-92263571D01*
X110417438Y-92263571D02*
X110369819Y-92406428D01*
X110369819Y-92406428D02*
X110369819Y-92501666D01*
X110369819Y-92501666D02*
X110417438Y-92644523D01*
X110417438Y-92644523D02*
X110465057Y-92692142D01*
X110369819Y-93596904D02*
X110369819Y-93120714D01*
X110369819Y-93120714D02*
X110846009Y-93073095D01*
X110846009Y-93073095D02*
X110798390Y-93120714D01*
X110798390Y-93120714D02*
X110750771Y-93215952D01*
X110750771Y-93215952D02*
X110750771Y-93454047D01*
X110750771Y-93454047D02*
X110798390Y-93549285D01*
X110798390Y-93549285D02*
X110846009Y-93596904D01*
X110846009Y-93596904D02*
X110941247Y-93644523D01*
X110941247Y-93644523D02*
X111179342Y-93644523D01*
X111179342Y-93644523D02*
X111274580Y-93596904D01*
X111274580Y-93596904D02*
X111322200Y-93549285D01*
X111322200Y-93549285D02*
X111369819Y-93454047D01*
X111369819Y-93454047D02*
X111369819Y-93215952D01*
X111369819Y-93215952D02*
X111322200Y-93120714D01*
X111322200Y-93120714D02*
X111274580Y-93073095D01*
X111369819Y-94596904D02*
X111369819Y-94025476D01*
X111369819Y-94311190D02*
X110369819Y-94311190D01*
X110369819Y-94311190D02*
X110512676Y-94215952D01*
X110512676Y-94215952D02*
X110607914Y-94120714D01*
X110607914Y-94120714D02*
X110655533Y-94025476D01*
X117530357Y-103384819D02*
X117863690Y-102908628D01*
X118101785Y-103384819D02*
X118101785Y-102384819D01*
X118101785Y-102384819D02*
X117720833Y-102384819D01*
X117720833Y-102384819D02*
X117625595Y-102432438D01*
X117625595Y-102432438D02*
X117577976Y-102480057D01*
X117577976Y-102480057D02*
X117530357Y-102575295D01*
X117530357Y-102575295D02*
X117530357Y-102718152D01*
X117530357Y-102718152D02*
X117577976Y-102813390D01*
X117577976Y-102813390D02*
X117625595Y-102861009D01*
X117625595Y-102861009D02*
X117720833Y-102908628D01*
X117720833Y-102908628D02*
X118101785Y-102908628D01*
X116625595Y-102384819D02*
X117101785Y-102384819D01*
X117101785Y-102384819D02*
X117149404Y-102861009D01*
X117149404Y-102861009D02*
X117101785Y-102813390D01*
X117101785Y-102813390D02*
X117006547Y-102765771D01*
X117006547Y-102765771D02*
X116768452Y-102765771D01*
X116768452Y-102765771D02*
X116673214Y-102813390D01*
X116673214Y-102813390D02*
X116625595Y-102861009D01*
X116625595Y-102861009D02*
X116577976Y-102956247D01*
X116577976Y-102956247D02*
X116577976Y-103194342D01*
X116577976Y-103194342D02*
X116625595Y-103289580D01*
X116625595Y-103289580D02*
X116673214Y-103337200D01*
X116673214Y-103337200D02*
X116768452Y-103384819D01*
X116768452Y-103384819D02*
X117006547Y-103384819D01*
X117006547Y-103384819D02*
X117101785Y-103337200D01*
X117101785Y-103337200D02*
X117149404Y-103289580D01*
X115625595Y-103384819D02*
X116197023Y-103384819D01*
X115911309Y-103384819D02*
X115911309Y-102384819D01*
X115911309Y-102384819D02*
X116006547Y-102527676D01*
X116006547Y-102527676D02*
X116101785Y-102622914D01*
X116101785Y-102622914D02*
X116197023Y-102670533D01*
X110189819Y-101717142D02*
X109713628Y-101383809D01*
X110189819Y-101145714D02*
X109189819Y-101145714D01*
X109189819Y-101145714D02*
X109189819Y-101526666D01*
X109189819Y-101526666D02*
X109237438Y-101621904D01*
X109237438Y-101621904D02*
X109285057Y-101669523D01*
X109285057Y-101669523D02*
X109380295Y-101717142D01*
X109380295Y-101717142D02*
X109523152Y-101717142D01*
X109523152Y-101717142D02*
X109618390Y-101669523D01*
X109618390Y-101669523D02*
X109666009Y-101621904D01*
X109666009Y-101621904D02*
X109713628Y-101526666D01*
X109713628Y-101526666D02*
X109713628Y-101145714D01*
X109189819Y-102574285D02*
X109189819Y-102383809D01*
X109189819Y-102383809D02*
X109237438Y-102288571D01*
X109237438Y-102288571D02*
X109285057Y-102240952D01*
X109285057Y-102240952D02*
X109427914Y-102145714D01*
X109427914Y-102145714D02*
X109618390Y-102098095D01*
X109618390Y-102098095D02*
X109999342Y-102098095D01*
X109999342Y-102098095D02*
X110094580Y-102145714D01*
X110094580Y-102145714D02*
X110142200Y-102193333D01*
X110142200Y-102193333D02*
X110189819Y-102288571D01*
X110189819Y-102288571D02*
X110189819Y-102479047D01*
X110189819Y-102479047D02*
X110142200Y-102574285D01*
X110142200Y-102574285D02*
X110094580Y-102621904D01*
X110094580Y-102621904D02*
X109999342Y-102669523D01*
X109999342Y-102669523D02*
X109761247Y-102669523D01*
X109761247Y-102669523D02*
X109666009Y-102621904D01*
X109666009Y-102621904D02*
X109618390Y-102574285D01*
X109618390Y-102574285D02*
X109570771Y-102479047D01*
X109570771Y-102479047D02*
X109570771Y-102288571D01*
X109570771Y-102288571D02*
X109618390Y-102193333D01*
X109618390Y-102193333D02*
X109666009Y-102145714D01*
X109666009Y-102145714D02*
X109761247Y-102098095D01*
X110189819Y-103621904D02*
X110189819Y-103050476D01*
X110189819Y-103336190D02*
X109189819Y-103336190D01*
X109189819Y-103336190D02*
X109332676Y-103240952D01*
X109332676Y-103240952D02*
X109427914Y-103145714D01*
X109427914Y-103145714D02*
X109475533Y-103050476D01*
X106107857Y-97479819D02*
X106441190Y-97003628D01*
X106679285Y-97479819D02*
X106679285Y-96479819D01*
X106679285Y-96479819D02*
X106298333Y-96479819D01*
X106298333Y-96479819D02*
X106203095Y-96527438D01*
X106203095Y-96527438D02*
X106155476Y-96575057D01*
X106155476Y-96575057D02*
X106107857Y-96670295D01*
X106107857Y-96670295D02*
X106107857Y-96813152D01*
X106107857Y-96813152D02*
X106155476Y-96908390D01*
X106155476Y-96908390D02*
X106203095Y-96956009D01*
X106203095Y-96956009D02*
X106298333Y-97003628D01*
X106298333Y-97003628D02*
X106679285Y-97003628D01*
X105250714Y-96813152D02*
X105250714Y-97479819D01*
X105488809Y-96432200D02*
X105726904Y-97146485D01*
X105726904Y-97146485D02*
X105107857Y-97146485D01*
X104203095Y-97479819D02*
X104774523Y-97479819D01*
X104488809Y-97479819D02*
X104488809Y-96479819D01*
X104488809Y-96479819D02*
X104584047Y-96622676D01*
X104584047Y-96622676D02*
X104679285Y-96717914D01*
X104679285Y-96717914D02*
X104774523Y-96765533D01*
X124691666Y-90504819D02*
X125167856Y-90504819D01*
X125167856Y-90504819D02*
X125167856Y-89504819D01*
X123834523Y-90504819D02*
X124405951Y-90504819D01*
X124120237Y-90504819D02*
X124120237Y-89504819D01*
X124120237Y-89504819D02*
X124215475Y-89647676D01*
X124215475Y-89647676D02*
X124310713Y-89742914D01*
X124310713Y-89742914D02*
X124405951Y-89790533D01*
X103954819Y-71684523D02*
X103478628Y-71351190D01*
X103954819Y-71113095D02*
X102954819Y-71113095D01*
X102954819Y-71113095D02*
X102954819Y-71494047D01*
X102954819Y-71494047D02*
X103002438Y-71589285D01*
X103002438Y-71589285D02*
X103050057Y-71636904D01*
X103050057Y-71636904D02*
X103145295Y-71684523D01*
X103145295Y-71684523D02*
X103288152Y-71684523D01*
X103288152Y-71684523D02*
X103383390Y-71636904D01*
X103383390Y-71636904D02*
X103431009Y-71589285D01*
X103431009Y-71589285D02*
X103478628Y-71494047D01*
X103478628Y-71494047D02*
X103478628Y-71113095D01*
X102954819Y-72113095D02*
X103764342Y-72113095D01*
X103764342Y-72113095D02*
X103859580Y-72160714D01*
X103859580Y-72160714D02*
X103907200Y-72208333D01*
X103907200Y-72208333D02*
X103954819Y-72303571D01*
X103954819Y-72303571D02*
X103954819Y-72494047D01*
X103954819Y-72494047D02*
X103907200Y-72589285D01*
X103907200Y-72589285D02*
X103859580Y-72636904D01*
X103859580Y-72636904D02*
X103764342Y-72684523D01*
X103764342Y-72684523D02*
X102954819Y-72684523D01*
X103050057Y-73113095D02*
X103002438Y-73160714D01*
X103002438Y-73160714D02*
X102954819Y-73255952D01*
X102954819Y-73255952D02*
X102954819Y-73494047D01*
X102954819Y-73494047D02*
X103002438Y-73589285D01*
X103002438Y-73589285D02*
X103050057Y-73636904D01*
X103050057Y-73636904D02*
X103145295Y-73684523D01*
X103145295Y-73684523D02*
X103240533Y-73684523D01*
X103240533Y-73684523D02*
X103383390Y-73636904D01*
X103383390Y-73636904D02*
X103954819Y-73065476D01*
X103954819Y-73065476D02*
X103954819Y-73684523D01*
X133492857Y-96054819D02*
X133826190Y-95578628D01*
X134064285Y-96054819D02*
X134064285Y-95054819D01*
X134064285Y-95054819D02*
X133683333Y-95054819D01*
X133683333Y-95054819D02*
X133588095Y-95102438D01*
X133588095Y-95102438D02*
X133540476Y-95150057D01*
X133540476Y-95150057D02*
X133492857Y-95245295D01*
X133492857Y-95245295D02*
X133492857Y-95388152D01*
X133492857Y-95388152D02*
X133540476Y-95483390D01*
X133540476Y-95483390D02*
X133588095Y-95531009D01*
X133588095Y-95531009D02*
X133683333Y-95578628D01*
X133683333Y-95578628D02*
X134064285Y-95578628D01*
X132540476Y-96054819D02*
X133111904Y-96054819D01*
X132826190Y-96054819D02*
X132826190Y-95054819D01*
X132826190Y-95054819D02*
X132921428Y-95197676D01*
X132921428Y-95197676D02*
X133016666Y-95292914D01*
X133016666Y-95292914D02*
X133111904Y-95340533D01*
X131588095Y-96054819D02*
X132159523Y-96054819D01*
X131873809Y-96054819D02*
X131873809Y-95054819D01*
X131873809Y-95054819D02*
X131969047Y-95197676D01*
X131969047Y-95197676D02*
X132064285Y-95292914D01*
X132064285Y-95292914D02*
X132159523Y-95340533D01*
X108353333Y-131914819D02*
X108353333Y-132629104D01*
X108353333Y-132629104D02*
X108400952Y-132771961D01*
X108400952Y-132771961D02*
X108496190Y-132867200D01*
X108496190Y-132867200D02*
X108639047Y-132914819D01*
X108639047Y-132914819D02*
X108734285Y-132914819D01*
X107353333Y-132914819D02*
X107924761Y-132914819D01*
X107639047Y-132914819D02*
X107639047Y-131914819D01*
X107639047Y-131914819D02*
X107734285Y-132057676D01*
X107734285Y-132057676D02*
X107829523Y-132152914D01*
X107829523Y-132152914D02*
X107924761Y-132200533D01*
X113106580Y-101850142D02*
X113154200Y-101802523D01*
X113154200Y-101802523D02*
X113201819Y-101659666D01*
X113201819Y-101659666D02*
X113201819Y-101564428D01*
X113201819Y-101564428D02*
X113154200Y-101421571D01*
X113154200Y-101421571D02*
X113058961Y-101326333D01*
X113058961Y-101326333D02*
X112963723Y-101278714D01*
X112963723Y-101278714D02*
X112773247Y-101231095D01*
X112773247Y-101231095D02*
X112630390Y-101231095D01*
X112630390Y-101231095D02*
X112439914Y-101278714D01*
X112439914Y-101278714D02*
X112344676Y-101326333D01*
X112344676Y-101326333D02*
X112249438Y-101421571D01*
X112249438Y-101421571D02*
X112201819Y-101564428D01*
X112201819Y-101564428D02*
X112201819Y-101659666D01*
X112201819Y-101659666D02*
X112249438Y-101802523D01*
X112249438Y-101802523D02*
X112297057Y-101850142D01*
X112201819Y-102183476D02*
X112201819Y-102802523D01*
X112201819Y-102802523D02*
X112582771Y-102469190D01*
X112582771Y-102469190D02*
X112582771Y-102612047D01*
X112582771Y-102612047D02*
X112630390Y-102707285D01*
X112630390Y-102707285D02*
X112678009Y-102754904D01*
X112678009Y-102754904D02*
X112773247Y-102802523D01*
X112773247Y-102802523D02*
X113011342Y-102802523D01*
X113011342Y-102802523D02*
X113106580Y-102754904D01*
X113106580Y-102754904D02*
X113154200Y-102707285D01*
X113154200Y-102707285D02*
X113201819Y-102612047D01*
X113201819Y-102612047D02*
X113201819Y-102326333D01*
X113201819Y-102326333D02*
X113154200Y-102231095D01*
X113154200Y-102231095D02*
X113106580Y-102183476D01*
X113201819Y-103754904D02*
X113201819Y-103183476D01*
X113201819Y-103469190D02*
X112201819Y-103469190D01*
X112201819Y-103469190D02*
X112344676Y-103373952D01*
X112344676Y-103373952D02*
X112439914Y-103278714D01*
X112439914Y-103278714D02*
X112487533Y-103183476D01*
X96477976Y-67624819D02*
X96811309Y-67148628D01*
X97049404Y-67624819D02*
X97049404Y-66624819D01*
X97049404Y-66624819D02*
X96668452Y-66624819D01*
X96668452Y-66624819D02*
X96573214Y-66672438D01*
X96573214Y-66672438D02*
X96525595Y-66720057D01*
X96525595Y-66720057D02*
X96477976Y-66815295D01*
X96477976Y-66815295D02*
X96477976Y-66958152D01*
X96477976Y-66958152D02*
X96525595Y-67053390D01*
X96525595Y-67053390D02*
X96573214Y-67101009D01*
X96573214Y-67101009D02*
X96668452Y-67148628D01*
X96668452Y-67148628D02*
X97049404Y-67148628D01*
X96049404Y-66624819D02*
X96049404Y-67434342D01*
X96049404Y-67434342D02*
X96001785Y-67529580D01*
X96001785Y-67529580D02*
X95954166Y-67577200D01*
X95954166Y-67577200D02*
X95858928Y-67624819D01*
X95858928Y-67624819D02*
X95668452Y-67624819D01*
X95668452Y-67624819D02*
X95573214Y-67577200D01*
X95573214Y-67577200D02*
X95525595Y-67529580D01*
X95525595Y-67529580D02*
X95477976Y-67434342D01*
X95477976Y-67434342D02*
X95477976Y-66624819D01*
X94477976Y-67624819D02*
X95049404Y-67624819D01*
X94763690Y-67624819D02*
X94763690Y-66624819D01*
X94763690Y-66624819D02*
X94858928Y-66767676D01*
X94858928Y-66767676D02*
X94954166Y-66862914D01*
X94954166Y-66862914D02*
X95049404Y-66910533D01*
D11*
X98258444Y-122561828D02*
X98258444Y-123589923D01*
X98258444Y-123589923D02*
X98197967Y-123710875D01*
X98197967Y-123710875D02*
X98137491Y-123771352D01*
X98137491Y-123771352D02*
X98016539Y-123831828D01*
X98016539Y-123831828D02*
X97774634Y-123831828D01*
X97774634Y-123831828D02*
X97653682Y-123771352D01*
X97653682Y-123771352D02*
X97593205Y-123710875D01*
X97593205Y-123710875D02*
X97532729Y-123589923D01*
X97532729Y-123589923D02*
X97532729Y-122561828D01*
X97109396Y-122561828D02*
X96686063Y-123831828D01*
X96686063Y-123831828D02*
X96262729Y-122561828D01*
X95174158Y-123831828D02*
X95899873Y-123831828D01*
X95537016Y-123831828D02*
X95537016Y-122561828D01*
X95537016Y-122561828D02*
X95657968Y-122743256D01*
X95657968Y-122743256D02*
X95778920Y-122864209D01*
X95778920Y-122864209D02*
X95899873Y-122924685D01*
D10*
X129339580Y-96027142D02*
X129387200Y-95979523D01*
X129387200Y-95979523D02*
X129434819Y-95836666D01*
X129434819Y-95836666D02*
X129434819Y-95741428D01*
X129434819Y-95741428D02*
X129387200Y-95598571D01*
X129387200Y-95598571D02*
X129291961Y-95503333D01*
X129291961Y-95503333D02*
X129196723Y-95455714D01*
X129196723Y-95455714D02*
X129006247Y-95408095D01*
X129006247Y-95408095D02*
X128863390Y-95408095D01*
X128863390Y-95408095D02*
X128672914Y-95455714D01*
X128672914Y-95455714D02*
X128577676Y-95503333D01*
X128577676Y-95503333D02*
X128482438Y-95598571D01*
X128482438Y-95598571D02*
X128434819Y-95741428D01*
X128434819Y-95741428D02*
X128434819Y-95836666D01*
X128434819Y-95836666D02*
X128482438Y-95979523D01*
X128482438Y-95979523D02*
X128530057Y-96027142D01*
X129434819Y-96979523D02*
X129434819Y-96408095D01*
X129434819Y-96693809D02*
X128434819Y-96693809D01*
X128434819Y-96693809D02*
X128577676Y-96598571D01*
X128577676Y-96598571D02*
X128672914Y-96503333D01*
X128672914Y-96503333D02*
X128720533Y-96408095D01*
X129434819Y-97931904D02*
X129434819Y-97360476D01*
X129434819Y-97646190D02*
X128434819Y-97646190D01*
X128434819Y-97646190D02*
X128577676Y-97550952D01*
X128577676Y-97550952D02*
X128672914Y-97455714D01*
X128672914Y-97455714D02*
X128720533Y-97360476D01*
X108110713Y-120254819D02*
X107539285Y-120254819D01*
X107824999Y-121254819D02*
X107824999Y-120254819D01*
X107205951Y-121254819D02*
X107205951Y-120254819D01*
X107205951Y-120731009D02*
X106634523Y-120731009D01*
X106634523Y-121254819D02*
X106634523Y-120254819D01*
X105634523Y-121254819D02*
X106205951Y-121254819D01*
X105920237Y-121254819D02*
X105920237Y-120254819D01*
X105920237Y-120254819D02*
X106015475Y-120397676D01*
X106015475Y-120397676D02*
X106110713Y-120492914D01*
X106110713Y-120492914D02*
X106205951Y-120540533D01*
X133388094Y-85804819D02*
X133388094Y-86614342D01*
X133388094Y-86614342D02*
X133340475Y-86709580D01*
X133340475Y-86709580D02*
X133292856Y-86757200D01*
X133292856Y-86757200D02*
X133197618Y-86804819D01*
X133197618Y-86804819D02*
X133007142Y-86804819D01*
X133007142Y-86804819D02*
X132911904Y-86757200D01*
X132911904Y-86757200D02*
X132864285Y-86709580D01*
X132864285Y-86709580D02*
X132816666Y-86614342D01*
X132816666Y-86614342D02*
X132816666Y-85804819D01*
X131816666Y-86804819D02*
X132388094Y-86804819D01*
X132102380Y-86804819D02*
X132102380Y-85804819D01*
X132102380Y-85804819D02*
X132197618Y-85947676D01*
X132197618Y-85947676D02*
X132292856Y-86042914D01*
X132292856Y-86042914D02*
X132388094Y-86090533D01*
X130864285Y-86804819D02*
X131435713Y-86804819D01*
X131149999Y-86804819D02*
X131149999Y-85804819D01*
X131149999Y-85804819D02*
X131245237Y-85947676D01*
X131245237Y-85947676D02*
X131340475Y-86042914D01*
X131340475Y-86042914D02*
X131435713Y-86090533D01*
D11*
X141363571Y-112863842D02*
X141484523Y-112924318D01*
X141484523Y-112924318D02*
X141726428Y-112924318D01*
X141726428Y-112924318D02*
X141847380Y-112863842D01*
X141847380Y-112863842D02*
X141907857Y-112803365D01*
X141907857Y-112803365D02*
X141968333Y-112682413D01*
X141968333Y-112682413D02*
X141968333Y-112319556D01*
X141968333Y-112319556D02*
X141907857Y-112198603D01*
X141907857Y-112198603D02*
X141847380Y-112138127D01*
X141847380Y-112138127D02*
X141726428Y-112077651D01*
X141726428Y-112077651D02*
X141484523Y-112077651D01*
X141484523Y-112077651D02*
X141363571Y-112138127D01*
X140275000Y-112924318D02*
X140275000Y-112259080D01*
X140275000Y-112259080D02*
X140335476Y-112138127D01*
X140335476Y-112138127D02*
X140456428Y-112077651D01*
X140456428Y-112077651D02*
X140698333Y-112077651D01*
X140698333Y-112077651D02*
X140819286Y-112138127D01*
X140275000Y-112863842D02*
X140395952Y-112924318D01*
X140395952Y-112924318D02*
X140698333Y-112924318D01*
X140698333Y-112924318D02*
X140819286Y-112863842D01*
X140819286Y-112863842D02*
X140879762Y-112742889D01*
X140879762Y-112742889D02*
X140879762Y-112621937D01*
X140879762Y-112621937D02*
X140819286Y-112500984D01*
X140819286Y-112500984D02*
X140698333Y-112440508D01*
X140698333Y-112440508D02*
X140395952Y-112440508D01*
X140395952Y-112440508D02*
X140275000Y-112380032D01*
X139670238Y-112924318D02*
X139670238Y-112077651D01*
X139670238Y-112198603D02*
X139609761Y-112138127D01*
X139609761Y-112138127D02*
X139488809Y-112077651D01*
X139488809Y-112077651D02*
X139307380Y-112077651D01*
X139307380Y-112077651D02*
X139186428Y-112138127D01*
X139186428Y-112138127D02*
X139125952Y-112259080D01*
X139125952Y-112259080D02*
X139125952Y-112924318D01*
X139125952Y-112259080D02*
X139065476Y-112138127D01*
X139065476Y-112138127D02*
X138944523Y-112077651D01*
X138944523Y-112077651D02*
X138763095Y-112077651D01*
X138763095Y-112077651D02*
X138642142Y-112138127D01*
X138642142Y-112138127D02*
X138581666Y-112259080D01*
X138581666Y-112259080D02*
X138581666Y-112924318D01*
X138037381Y-111775270D02*
X137976905Y-111714794D01*
X137976905Y-111714794D02*
X137855952Y-111654318D01*
X137855952Y-111654318D02*
X137553571Y-111654318D01*
X137553571Y-111654318D02*
X137432619Y-111714794D01*
X137432619Y-111714794D02*
X137372143Y-111775270D01*
X137372143Y-111775270D02*
X137311666Y-111896222D01*
X137311666Y-111896222D02*
X137311666Y-112017175D01*
X137311666Y-112017175D02*
X137372143Y-112198603D01*
X137372143Y-112198603D02*
X138097857Y-112924318D01*
X138097857Y-112924318D02*
X137311666Y-112924318D01*
D10*
X121642857Y-103359580D02*
X121690476Y-103407200D01*
X121690476Y-103407200D02*
X121833333Y-103454819D01*
X121833333Y-103454819D02*
X121928571Y-103454819D01*
X121928571Y-103454819D02*
X122071428Y-103407200D01*
X122071428Y-103407200D02*
X122166666Y-103311961D01*
X122166666Y-103311961D02*
X122214285Y-103216723D01*
X122214285Y-103216723D02*
X122261904Y-103026247D01*
X122261904Y-103026247D02*
X122261904Y-102883390D01*
X122261904Y-102883390D02*
X122214285Y-102692914D01*
X122214285Y-102692914D02*
X122166666Y-102597676D01*
X122166666Y-102597676D02*
X122071428Y-102502438D01*
X122071428Y-102502438D02*
X121928571Y-102454819D01*
X121928571Y-102454819D02*
X121833333Y-102454819D01*
X121833333Y-102454819D02*
X121690476Y-102502438D01*
X121690476Y-102502438D02*
X121642857Y-102550057D01*
X120785714Y-102788152D02*
X120785714Y-103454819D01*
X121023809Y-102407200D02*
X121261904Y-103121485D01*
X121261904Y-103121485D02*
X120642857Y-103121485D01*
X119738095Y-103454819D02*
X120309523Y-103454819D01*
X120023809Y-103454819D02*
X120023809Y-102454819D01*
X120023809Y-102454819D02*
X120119047Y-102597676D01*
X120119047Y-102597676D02*
X120214285Y-102692914D01*
X120214285Y-102692914D02*
X120309523Y-102740533D01*
X131429580Y-95917142D02*
X131477200Y-95869523D01*
X131477200Y-95869523D02*
X131524819Y-95726666D01*
X131524819Y-95726666D02*
X131524819Y-95631428D01*
X131524819Y-95631428D02*
X131477200Y-95488571D01*
X131477200Y-95488571D02*
X131381961Y-95393333D01*
X131381961Y-95393333D02*
X131286723Y-95345714D01*
X131286723Y-95345714D02*
X131096247Y-95298095D01*
X131096247Y-95298095D02*
X130953390Y-95298095D01*
X130953390Y-95298095D02*
X130762914Y-95345714D01*
X130762914Y-95345714D02*
X130667676Y-95393333D01*
X130667676Y-95393333D02*
X130572438Y-95488571D01*
X130572438Y-95488571D02*
X130524819Y-95631428D01*
X130524819Y-95631428D02*
X130524819Y-95726666D01*
X130524819Y-95726666D02*
X130572438Y-95869523D01*
X130572438Y-95869523D02*
X130620057Y-95917142D01*
X130524819Y-96774285D02*
X130524819Y-96583809D01*
X130524819Y-96583809D02*
X130572438Y-96488571D01*
X130572438Y-96488571D02*
X130620057Y-96440952D01*
X130620057Y-96440952D02*
X130762914Y-96345714D01*
X130762914Y-96345714D02*
X130953390Y-96298095D01*
X130953390Y-96298095D02*
X131334342Y-96298095D01*
X131334342Y-96298095D02*
X131429580Y-96345714D01*
X131429580Y-96345714D02*
X131477200Y-96393333D01*
X131477200Y-96393333D02*
X131524819Y-96488571D01*
X131524819Y-96488571D02*
X131524819Y-96679047D01*
X131524819Y-96679047D02*
X131477200Y-96774285D01*
X131477200Y-96774285D02*
X131429580Y-96821904D01*
X131429580Y-96821904D02*
X131334342Y-96869523D01*
X131334342Y-96869523D02*
X131096247Y-96869523D01*
X131096247Y-96869523D02*
X131001009Y-96821904D01*
X131001009Y-96821904D02*
X130953390Y-96774285D01*
X130953390Y-96774285D02*
X130905771Y-96679047D01*
X130905771Y-96679047D02*
X130905771Y-96488571D01*
X130905771Y-96488571D02*
X130953390Y-96393333D01*
X130953390Y-96393333D02*
X131001009Y-96345714D01*
X131001009Y-96345714D02*
X131096247Y-96298095D01*
X131524819Y-97821904D02*
X131524819Y-97250476D01*
X131524819Y-97536190D02*
X130524819Y-97536190D01*
X130524819Y-97536190D02*
X130667676Y-97440952D01*
X130667676Y-97440952D02*
X130762914Y-97345714D01*
X130762914Y-97345714D02*
X130810533Y-97250476D01*
X105942857Y-95929819D02*
X106276190Y-95453628D01*
X106514285Y-95929819D02*
X106514285Y-94929819D01*
X106514285Y-94929819D02*
X106133333Y-94929819D01*
X106133333Y-94929819D02*
X106038095Y-94977438D01*
X106038095Y-94977438D02*
X105990476Y-95025057D01*
X105990476Y-95025057D02*
X105942857Y-95120295D01*
X105942857Y-95120295D02*
X105942857Y-95263152D01*
X105942857Y-95263152D02*
X105990476Y-95358390D01*
X105990476Y-95358390D02*
X106038095Y-95406009D01*
X106038095Y-95406009D02*
X106133333Y-95453628D01*
X106133333Y-95453628D02*
X106514285Y-95453628D01*
X105609523Y-94929819D02*
X104990476Y-94929819D01*
X104990476Y-94929819D02*
X105323809Y-95310771D01*
X105323809Y-95310771D02*
X105180952Y-95310771D01*
X105180952Y-95310771D02*
X105085714Y-95358390D01*
X105085714Y-95358390D02*
X105038095Y-95406009D01*
X105038095Y-95406009D02*
X104990476Y-95501247D01*
X104990476Y-95501247D02*
X104990476Y-95739342D01*
X104990476Y-95739342D02*
X105038095Y-95834580D01*
X105038095Y-95834580D02*
X105085714Y-95882200D01*
X105085714Y-95882200D02*
X105180952Y-95929819D01*
X105180952Y-95929819D02*
X105466666Y-95929819D01*
X105466666Y-95929819D02*
X105561904Y-95882200D01*
X105561904Y-95882200D02*
X105609523Y-95834580D01*
X104038095Y-95929819D02*
X104609523Y-95929819D01*
X104323809Y-95929819D02*
X104323809Y-94929819D01*
X104323809Y-94929819D02*
X104419047Y-95072676D01*
X104419047Y-95072676D02*
X104514285Y-95167914D01*
X104514285Y-95167914D02*
X104609523Y-95215533D01*
X125089285Y-99429819D02*
X125089285Y-98429819D01*
X125089285Y-98429819D02*
X124851190Y-98429819D01*
X124851190Y-98429819D02*
X124708333Y-98477438D01*
X124708333Y-98477438D02*
X124613095Y-98572676D01*
X124613095Y-98572676D02*
X124565476Y-98667914D01*
X124565476Y-98667914D02*
X124517857Y-98858390D01*
X124517857Y-98858390D02*
X124517857Y-99001247D01*
X124517857Y-99001247D02*
X124565476Y-99191723D01*
X124565476Y-99191723D02*
X124613095Y-99286961D01*
X124613095Y-99286961D02*
X124708333Y-99382200D01*
X124708333Y-99382200D02*
X124851190Y-99429819D01*
X124851190Y-99429819D02*
X125089285Y-99429819D01*
X123565476Y-99429819D02*
X124136904Y-99429819D01*
X123851190Y-99429819D02*
X123851190Y-98429819D01*
X123851190Y-98429819D02*
X123946428Y-98572676D01*
X123946428Y-98572676D02*
X124041666Y-98667914D01*
X124041666Y-98667914D02*
X124136904Y-98715533D01*
X122613095Y-99429819D02*
X123184523Y-99429819D01*
X122898809Y-99429819D02*
X122898809Y-98429819D01*
X122898809Y-98429819D02*
X122994047Y-98572676D01*
X122994047Y-98572676D02*
X123089285Y-98667914D01*
X123089285Y-98667914D02*
X123184523Y-98715533D01*
X118784857Y-89446819D02*
X119118190Y-88970628D01*
X119356285Y-89446819D02*
X119356285Y-88446819D01*
X119356285Y-88446819D02*
X118975333Y-88446819D01*
X118975333Y-88446819D02*
X118880095Y-88494438D01*
X118880095Y-88494438D02*
X118832476Y-88542057D01*
X118832476Y-88542057D02*
X118784857Y-88637295D01*
X118784857Y-88637295D02*
X118784857Y-88780152D01*
X118784857Y-88780152D02*
X118832476Y-88875390D01*
X118832476Y-88875390D02*
X118880095Y-88923009D01*
X118880095Y-88923009D02*
X118975333Y-88970628D01*
X118975333Y-88970628D02*
X119356285Y-88970628D01*
X118403904Y-88542057D02*
X118356285Y-88494438D01*
X118356285Y-88494438D02*
X118261047Y-88446819D01*
X118261047Y-88446819D02*
X118022952Y-88446819D01*
X118022952Y-88446819D02*
X117927714Y-88494438D01*
X117927714Y-88494438D02*
X117880095Y-88542057D01*
X117880095Y-88542057D02*
X117832476Y-88637295D01*
X117832476Y-88637295D02*
X117832476Y-88732533D01*
X117832476Y-88732533D02*
X117880095Y-88875390D01*
X117880095Y-88875390D02*
X118451523Y-89446819D01*
X118451523Y-89446819D02*
X117832476Y-89446819D01*
X116880095Y-89446819D02*
X117451523Y-89446819D01*
X117165809Y-89446819D02*
X117165809Y-88446819D01*
X117165809Y-88446819D02*
X117261047Y-88589676D01*
X117261047Y-88589676D02*
X117356285Y-88684914D01*
X117356285Y-88684914D02*
X117451523Y-88732533D01*
D12*
X107800000Y-98590000D02*
X107800000Y-98590000D01*
X108600000Y-54700000D02*
X108600000Y-64700000D01*
X135260000Y-113512500D02*
X135260000Y-64617500D01*
X144150000Y-64617500D02*
X144150000Y-113512500D01*
X144150000Y-113512500D02*
X135260000Y-113512500D01*
X104515000Y-70484420D02*
X104515000Y-70765580D01*
X105535000Y-70484420D02*
X105535000Y-70765580D01*
X99375000Y-70325000D02*
X99375000Y-69225000D01*
X101175000Y-70325000D02*
X101175000Y-69025000D01*
X99375000Y-68975000D02*
X99095000Y-68975000D01*
X99375000Y-68695000D01*
X99375000Y-68975000D01*
G36*
X99375000Y-68975000D02*
G01*
X99095000Y-68975000D01*
X99375000Y-68695000D01*
X99375000Y-68975000D01*
G37*
X118159620Y-93000800D02*
X118440780Y-93000800D01*
X118159620Y-94020800D02*
X118440780Y-94020800D01*
X116293600Y-94517000D02*
X114093600Y-94517000D01*
X116293600Y-94517000D02*
X118493600Y-94517000D01*
X116293600Y-97737000D02*
X114093600Y-97737000D01*
X116293600Y-97737000D02*
X118493600Y-97737000D01*
X119193600Y-94692000D02*
X118953600Y-94362000D01*
X119433600Y-94362000D01*
X119193600Y-94692000D01*
G36*
X119193600Y-94692000D02*
G01*
X118953600Y-94362000D01*
X119433600Y-94362000D01*
X119193600Y-94692000D01*
G37*
X110761500Y-99897258D02*
X110761500Y-99422742D01*
X111806500Y-99897258D02*
X111806500Y-99422742D01*
D13*
X121070000Y-102715000D02*
X120430000Y-102715000D01*
X121070000Y-103100000D02*
X121070000Y-102715000D01*
X121070000Y-104765000D02*
X120430000Y-104765000D01*
X121070000Y-104765000D02*
X121070000Y-104380000D01*
D14*
X116820000Y-103740000D02*
G75*
G02*
X116620000Y-103740000I-100000J0D01*
G01*
X116620000Y-103740000D02*
G75*
G02*
X116820000Y-103740000I100000J0D01*
G01*
D12*
X110375000Y-96345580D02*
X110375000Y-96064420D01*
X111395000Y-96345580D02*
X111395000Y-96064420D01*
X116660436Y-100545000D02*
X117114564Y-100545000D01*
X116660436Y-102015000D02*
X117114564Y-102015000D01*
X109237500Y-99422742D02*
X109237500Y-99897258D01*
X110282500Y-99422742D02*
X110282500Y-99897258D01*
X108367742Y-96432500D02*
X108842258Y-96432500D01*
X108367742Y-97477500D02*
X108842258Y-97477500D01*
D13*
X121347500Y-91070000D02*
X127707500Y-91070000D01*
X121347500Y-97630000D02*
X121347500Y-91070000D01*
X127707500Y-91070000D02*
X127707500Y-97630000D01*
X127707500Y-97630000D02*
X121347500Y-97630000D01*
D14*
X128477500Y-94350000D02*
G75*
G02*
X128277500Y-94350000I-100000J0D01*
G01*
X128277500Y-94350000D02*
G75*
G02*
X128477500Y-94350000I100000J0D01*
G01*
D12*
X102927500Y-69387258D02*
X102927500Y-68912742D01*
X103972500Y-69387258D02*
X103972500Y-68912742D01*
X133077064Y-96515000D02*
X132622936Y-96515000D01*
X133077064Y-97985000D02*
X132622936Y-97985000D01*
D14*
X105803000Y-124780000D02*
X115537000Y-124780000D01*
X105803000Y-130440000D02*
X105803000Y-124780000D01*
X105803000Y-130440000D02*
X108423000Y-130440000D01*
X115537000Y-130440000D02*
X112917000Y-130440000D01*
X115537000Y-130440000D02*
X115537000Y-124780000D01*
X109020000Y-131570000D02*
G75*
G02*
X108820000Y-131570000I-100000J0D01*
G01*
X108820000Y-131570000D02*
G75*
G02*
X109020000Y-131570000I100000J0D01*
G01*
D12*
X112298000Y-99278420D02*
X112298000Y-99559580D01*
X113318000Y-99278420D02*
X113318000Y-99559580D01*
X98862742Y-66452500D02*
X99337258Y-66452500D01*
X98862742Y-67497500D02*
X99337258Y-67497500D01*
D15*
X135240000Y-122450000D02*
X151440000Y-122450000D01*
X135240000Y-124460000D02*
X135240000Y-122450000D01*
X137340000Y-127000000D02*
X135240000Y-127000000D01*
X138040000Y-128000000D02*
X138040000Y-128000000D01*
X138140000Y-128000000D02*
X138140000Y-128000000D01*
X149340000Y-127000000D02*
X151440000Y-127000000D01*
X151440000Y-122450000D02*
X151440000Y-124460000D01*
X138040000Y-128000000D02*
G75*
G02*
X138140000Y-128000000I50000J0D01*
G01*
X138140000Y-128000000D02*
G75*
G02*
X138040000Y-128000000I-50000J0D01*
G01*
D11*
X92410000Y-120730000D02*
X92410000Y-122330000D01*
X92410000Y-120730000D02*
X101610000Y-120730000D01*
X92410000Y-126030000D02*
X92410000Y-124330000D01*
X92410000Y-126030000D02*
X94910000Y-126030000D01*
X101610000Y-120730000D02*
X101610000Y-122330000D01*
X101610000Y-126030000D02*
X99110000Y-126030000D01*
X101610000Y-126030000D02*
X101610000Y-124330000D01*
D12*
X128255000Y-93631252D02*
X128255000Y-93108748D01*
X129725000Y-93631252D02*
X129725000Y-93108748D01*
X107052064Y-121715000D02*
X106597936Y-121715000D01*
X107052064Y-123185000D02*
X106597936Y-123185000D01*
X132150000Y-87190000D02*
X131350000Y-87190000D01*
X132150000Y-87190000D02*
X132950000Y-87190000D01*
X132150000Y-90310000D02*
X131350000Y-90310000D01*
X132150000Y-90310000D02*
X132950000Y-90310000D01*
X133450000Y-87240000D02*
X133210000Y-86910000D01*
X133690000Y-86910000D01*
X133450000Y-87240000D01*
G36*
X133450000Y-87240000D02*
G01*
X133210000Y-86910000D01*
X133690000Y-86910000D01*
X133450000Y-87240000D01*
G37*
D15*
X131540000Y-109550000D02*
X147740000Y-109550000D01*
X131540000Y-111560000D02*
X131540000Y-109550000D01*
X133640000Y-114100000D02*
X131540000Y-114100000D01*
X134340000Y-115100000D02*
X134340000Y-115100000D01*
X134440000Y-115100000D02*
X134440000Y-115100000D01*
X145640000Y-114100000D02*
X147740000Y-114100000D01*
X147740000Y-109550000D02*
X147740000Y-111560000D01*
X134340000Y-115100000D02*
G75*
G02*
X134440000Y-115100000I50000J0D01*
G01*
X134440000Y-115100000D02*
G75*
G02*
X134340000Y-115100000I-50000J0D01*
G01*
D12*
X120738748Y-100585000D02*
X121261252Y-100585000D01*
X120738748Y-102055000D02*
X121261252Y-102055000D01*
X130315000Y-93621252D02*
X130315000Y-93098748D01*
X131785000Y-93621252D02*
X131785000Y-93098748D01*
X108362742Y-94892500D02*
X108837258Y-94892500D01*
X108362742Y-95937500D02*
X108837258Y-95937500D01*
X118465000Y-98100000D02*
X122325000Y-98100000D01*
X118465000Y-100100000D02*
X118465000Y-98100000D01*
X118465000Y-100100000D02*
X122325000Y-100100000D01*
X118379258Y-91517500D02*
X117904742Y-91517500D01*
X118379258Y-92562500D02*
X117904742Y-92562500D01*
%LPC*%
D16*
X101150000Y-110780200D03*
X125150000Y-110780200D03*
D17*
X152050000Y-110780200D03*
D18*
X105025000Y-69850000D03*
X105025000Y-71400000D03*
D19*
X99775000Y-68925000D03*
X100275000Y-68925000D03*
X100775000Y-68925000D03*
X100775000Y-70425000D03*
X100275000Y-70425000D03*
X99775000Y-70425000D03*
D20*
X117525200Y-93510800D03*
X119075200Y-93510800D03*
D21*
X119156100Y-95152000D03*
X119156100Y-95802000D03*
X119156100Y-96452000D03*
X119156100Y-97102000D03*
X113431100Y-97102000D03*
X113431100Y-96452000D03*
X113431100Y-95802000D03*
X113431100Y-95152000D03*
D22*
X111284000Y-100485000D03*
X111284000Y-98835000D03*
D23*
X117780000Y-103740000D03*
D24*
X119105000Y-103740000D03*
D25*
X121160000Y-103740000D03*
D26*
X110885000Y-96980000D03*
X110885000Y-95430000D03*
D27*
X115975000Y-101280000D03*
X117800000Y-101280000D03*
D28*
X109760000Y-98835000D03*
X109760000Y-100485000D03*
D29*
X107780000Y-96955000D03*
X109430000Y-96955000D03*
D30*
X126547500Y-94350000D03*
X122507500Y-94350000D03*
D22*
X103450000Y-69975000D03*
X103450000Y-68325000D03*
D31*
X133762500Y-97250000D03*
X131937500Y-97250000D03*
D32*
X108920000Y-130010000D03*
X109420000Y-130010000D03*
X109920000Y-130010000D03*
X110420000Y-130010000D03*
X110920000Y-130010000D03*
X111420000Y-130010000D03*
X111920000Y-130010000D03*
X112420000Y-130010000D03*
D33*
X107273000Y-128030000D03*
X114067000Y-128030000D03*
D18*
X112808000Y-98644000D03*
X112808000Y-100194000D03*
D29*
X98275000Y-66975000D03*
X99925000Y-66975000D03*
D34*
X138090000Y-127300000D03*
X138590000Y-127300000D03*
X139090000Y-127300000D03*
X139590000Y-127300000D03*
X140090000Y-127300000D03*
X140590000Y-127300000D03*
X141090000Y-127300000D03*
X141590000Y-127300000D03*
X142090000Y-127300000D03*
X142590000Y-127300000D03*
X143090000Y-127300000D03*
X143590000Y-127300000D03*
X144090000Y-127300000D03*
X144590000Y-127300000D03*
X145090000Y-127300000D03*
X145590000Y-127300000D03*
X146090000Y-127300000D03*
X146590000Y-127300000D03*
X147090000Y-127300000D03*
X147590000Y-127300000D03*
X148090000Y-127300000D03*
X148590000Y-127300000D03*
D35*
X135815000Y-125400000D03*
X150865000Y-125400000D03*
D36*
X95510000Y-126030000D03*
X96510000Y-126030000D03*
X97510000Y-126030000D03*
X98510000Y-126030000D03*
D37*
X92710000Y-123330000D03*
X101310000Y-123330000D03*
D38*
X128990000Y-94320000D03*
X128990000Y-92420000D03*
D39*
X107825000Y-122450000D03*
X105825000Y-122450000D03*
D40*
X133287500Y-87800000D03*
X133287500Y-88750000D03*
X133287500Y-89700000D03*
X131012500Y-89700000D03*
X131012500Y-87800000D03*
D34*
X134390000Y-114400000D03*
X134890000Y-114400000D03*
X135390000Y-114400000D03*
X135890000Y-114400000D03*
X136390000Y-114400000D03*
X136890000Y-114400000D03*
X137390000Y-114400000D03*
X137890000Y-114400000D03*
X138390000Y-114400000D03*
X138890000Y-114400000D03*
X139390000Y-114400000D03*
X139890000Y-114400000D03*
X140390000Y-114400000D03*
X140890000Y-114400000D03*
X141390000Y-114400000D03*
X141890000Y-114400000D03*
X142390000Y-114400000D03*
X142890000Y-114400000D03*
X143390000Y-114400000D03*
X143890000Y-114400000D03*
X144390000Y-114400000D03*
X144890000Y-114400000D03*
D35*
X132115000Y-112500000D03*
X147165000Y-112500000D03*
D41*
X120050000Y-101320000D03*
X121950000Y-101320000D03*
D38*
X131050000Y-94310000D03*
X131050000Y-92410000D03*
D29*
X107775000Y-95415000D03*
X109425000Y-95415000D03*
D42*
X119275000Y-99100000D03*
X122075000Y-99100000D03*
D43*
X118967000Y-92040000D03*
X117317000Y-92040000D03*
%LPD*%
M02*
