G04 #@! TF.GenerationSoftware,KiCad,Pcbnew,8.0.2*
G04 #@! TF.CreationDate,2024-08-20T08:17:01+02:00*
G04 #@! TF.ProjectId,STS1_SIDEPANEL,53545331-5f53-4494-9445-50414e454c2e,rev?*
G04 #@! TF.SameCoordinates,Original*
G04 #@! TF.FileFunction,Profile,NP*
%FSLAX46Y46*%
G04 Gerber Fmt 4.6, Leading zero omitted, Abs format (unit mm)*
G04 Created by KiCad (PCBNEW 8.0.2) date 2024-08-20 08:17:01*
%MOMM*%
%LPD*%
G01*
G04 APERTURE LIST*
G04 #@! TA.AperFunction,Profile*
%ADD10C,0.100000*%
G04 #@! TD*
G04 #@! TA.AperFunction,Profile*
%ADD11C,0.250000*%
G04 #@! TD*
G04 APERTURE END LIST*
D10*
X130500000Y-89000000D02*
X119500000Y-89000000D01*
X119500000Y-90000000D02*
X130500000Y-90000000D01*
X130500000Y-89000000D02*
G75*
G02*
X130500000Y-90000000I500000J-500000D01*
G01*
X119500000Y-90000000D02*
G75*
G02*
X119500000Y-89000000I-500000J500000D01*
G01*
X76000000Y-49200000D02*
X76000000Y-129800000D01*
X77000000Y-48200000D02*
X82200000Y-48200000D01*
X82200000Y-130800000D02*
X77000000Y-130800000D01*
X83700000Y-46700000D02*
X83700000Y-41500000D01*
X83700000Y-137500000D02*
X83700000Y-132300000D01*
X84700000Y-40500000D02*
X165300000Y-40500000D01*
X84700000Y-138500000D02*
X165300000Y-138500000D01*
X166300000Y-41500000D02*
X166300000Y-46700000D01*
X166300000Y-132300000D02*
X166300000Y-137500000D01*
X167800000Y-48200000D02*
X173000000Y-48200000D01*
X173000000Y-130800000D02*
X167800000Y-130800000D01*
X174000000Y-49200000D02*
X174000000Y-129800000D01*
X76000000Y-49200000D02*
G75*
G02*
X77000000Y-48200000I1003614J-3614D01*
G01*
X77000000Y-130800000D02*
G75*
G02*
X76000000Y-129800000I3593J1003593D01*
G01*
X82200000Y-130800000D02*
G75*
G02*
X83700000Y-132300000I660001J-839999D01*
G01*
X83700000Y-41500000D02*
G75*
G02*
X84700000Y-40500000I996409J3591D01*
G01*
X83700000Y-46700000D02*
G75*
G02*
X82200000Y-48200000I-840000J-660000D01*
G01*
X84700000Y-138500000D02*
G75*
G02*
X83700000Y-137500000I3593J1003593D01*
G01*
X165300000Y-40500000D02*
G75*
G02*
X166300000Y-41500000I-3600J-1003600D01*
G01*
X166300000Y-132300000D02*
G75*
G02*
X167800000Y-130800000I840000J660000D01*
G01*
X166300000Y-137500000D02*
G75*
G02*
X165300000Y-138500000I-1003600J3600D01*
G01*
X167800000Y-48200000D02*
G75*
G02*
X166300000Y-46700000I-660000J840000D01*
G01*
X173000000Y-48200000D02*
G75*
G02*
X174000000Y-49200000I-3600J-1003600D01*
G01*
X174000000Y-129800000D02*
G75*
G02*
X173000000Y-130800000I-1003600J3600D01*
G01*
D11*
X80100000Y-83900000D02*
G75*
G02*
X77700000Y-83900000I-1200000J0D01*
G01*
X77700000Y-83900000D02*
G75*
G02*
X80100000Y-83900000I1200000J0D01*
G01*
X120600000Y-135600000D02*
G75*
G02*
X118200000Y-135600000I-1200000J0D01*
G01*
X118200000Y-135600000D02*
G75*
G02*
X120600000Y-135600000I1200000J0D01*
G01*
X131800000Y-43400000D02*
G75*
G02*
X129400000Y-43400000I-1200000J0D01*
G01*
X129400000Y-43400000D02*
G75*
G02*
X131800000Y-43400000I1200000J0D01*
G01*
X172300000Y-95100000D02*
G75*
G02*
X169900000Y-95100000I-1200000J0D01*
G01*
X169900000Y-95100000D02*
G75*
G02*
X172300000Y-95100000I1200000J0D01*
G01*
M02*
