G04 #@! TF.GenerationSoftware,KiCad,Pcbnew,8.0.2*
G04 #@! TF.CreationDate,2024-08-20T08:19:13+02:00*
G04 #@! TF.ProjectId,STS1_SIDEPANEL,53545331-5f53-4494-9445-50414e454c2e,rev?*
G04 #@! TF.SameCoordinates,Original*
G04 #@! TF.FileFunction,Legend,Top*
G04 #@! TF.FilePolarity,Positive*
%FSLAX46Y46*%
G04 Gerber Fmt 4.6, Leading zero omitted, Abs format (unit mm)*
G04 Created by KiCad (PCBNEW 8.0.2) date 2024-08-20 08:19:13*
%MOMM*%
%LPD*%
G01*
G04 APERTURE LIST*
G04 Aperture macros list*
%AMRoundRect*
0 Rectangle with rounded corners*
0 $1 Rounding radius*
0 $2 $3 $4 $5 $6 $7 $8 $9 X,Y pos of 4 corners*
0 Add a 4 corners polygon primitive as box body*
4,1,4,$2,$3,$4,$5,$6,$7,$8,$9,$2,$3,0*
0 Add four circle primitives for the rounded corners*
1,1,$1+$1,$2,$3*
1,1,$1+$1,$4,$5*
1,1,$1+$1,$6,$7*
1,1,$1+$1,$8,$9*
0 Add four rect primitives between the rounded corners*
20,1,$1+$1,$2,$3,$4,$5,0*
20,1,$1+$1,$4,$5,$6,$7,0*
20,1,$1+$1,$6,$7,$8,$9,0*
20,1,$1+$1,$8,$9,$2,$3,0*%
%AMFreePoly0*
4,1,17,27.998779,14.255902,28.009846,14.246565,39.669846,2.866565,39.698571,2.811843,39.696113,2.795000,39.700000,2.795000,39.700000,-2.795000,-39.700000,-2.795000,-39.700000,2.795000,-39.695106,2.795000,-39.695106,2.825902,-39.669846,2.866565,-28.009846,14.246565,-27.954442,14.273952,-27.940000,14.275000,27.940000,14.275000,27.998779,14.255902,27.998779,14.255902,$1*%
G04 Aperture macros list end*
%ADD10C,0.150000*%
%ADD11C,0.120000*%
%ADD12C,6.000000*%
%ADD13FreePoly0,180.000000*%
%ADD14R,79.400000X20.475000*%
%ADD15RoundRect,0.350000X4.400000X3.150000X-4.400000X3.150000X-4.400000X-3.150000X4.400000X-3.150000X0*%
%ADD16RoundRect,0.185000X1.665000X3.315000X-1.665000X3.315000X-1.665000X-3.315000X1.665000X-3.315000X0*%
%ADD17FreePoly0,0.000000*%
%ADD18RoundRect,0.350000X-4.400000X-3.150000X4.400000X-3.150000X4.400000X3.150000X-4.400000X3.150000X0*%
%ADD19RoundRect,0.100000X0.300000X0.300000X-0.300000X0.300000X-0.300000X-0.300000X0.300000X-0.300000X0*%
G04 APERTURE END LIST*
D10*
X130075200Y-88672104D02*
X130122819Y-88529247D01*
X130122819Y-88529247D02*
X130122819Y-88291152D01*
X130122819Y-88291152D02*
X130075200Y-88195914D01*
X130075200Y-88195914D02*
X130027580Y-88148295D01*
X130027580Y-88148295D02*
X129932342Y-88100676D01*
X129932342Y-88100676D02*
X129837104Y-88100676D01*
X129837104Y-88100676D02*
X129741866Y-88148295D01*
X129741866Y-88148295D02*
X129694247Y-88195914D01*
X129694247Y-88195914D02*
X129646628Y-88291152D01*
X129646628Y-88291152D02*
X129599009Y-88481628D01*
X129599009Y-88481628D02*
X129551390Y-88576866D01*
X129551390Y-88576866D02*
X129503771Y-88624485D01*
X129503771Y-88624485D02*
X129408533Y-88672104D01*
X129408533Y-88672104D02*
X129313295Y-88672104D01*
X129313295Y-88672104D02*
X129218057Y-88624485D01*
X129218057Y-88624485D02*
X129170438Y-88576866D01*
X129170438Y-88576866D02*
X129122819Y-88481628D01*
X129122819Y-88481628D02*
X129122819Y-88243533D01*
X129122819Y-88243533D02*
X129170438Y-88100676D01*
X130027580Y-87100676D02*
X130075200Y-87148295D01*
X130075200Y-87148295D02*
X130122819Y-87291152D01*
X130122819Y-87291152D02*
X130122819Y-87386390D01*
X130122819Y-87386390D02*
X130075200Y-87529247D01*
X130075200Y-87529247D02*
X129979961Y-87624485D01*
X129979961Y-87624485D02*
X129884723Y-87672104D01*
X129884723Y-87672104D02*
X129694247Y-87719723D01*
X129694247Y-87719723D02*
X129551390Y-87719723D01*
X129551390Y-87719723D02*
X129360914Y-87672104D01*
X129360914Y-87672104D02*
X129265676Y-87624485D01*
X129265676Y-87624485D02*
X129170438Y-87529247D01*
X129170438Y-87529247D02*
X129122819Y-87386390D01*
X129122819Y-87386390D02*
X129122819Y-87291152D01*
X129122819Y-87291152D02*
X129170438Y-87148295D01*
X129170438Y-87148295D02*
X129218057Y-87100676D01*
X130122819Y-86148295D02*
X130122819Y-86719723D01*
X130122819Y-86434009D02*
X129122819Y-86434009D01*
X129122819Y-86434009D02*
X129265676Y-86529247D01*
X129265676Y-86529247D02*
X129360914Y-86624485D01*
X129360914Y-86624485D02*
X129408533Y-86719723D01*
X102272628Y-37326019D02*
X101701200Y-37326019D01*
X101986914Y-37326019D02*
X101986914Y-36326019D01*
X101986914Y-36326019D02*
X101891676Y-36468876D01*
X101891676Y-36468876D02*
X101796438Y-36564114D01*
X101796438Y-36564114D02*
X101701200Y-36611733D01*
X102891676Y-36326019D02*
X102986914Y-36326019D01*
X102986914Y-36326019D02*
X103082152Y-36373638D01*
X103082152Y-36373638D02*
X103129771Y-36421257D01*
X103129771Y-36421257D02*
X103177390Y-36516495D01*
X103177390Y-36516495D02*
X103225009Y-36706971D01*
X103225009Y-36706971D02*
X103225009Y-36945066D01*
X103225009Y-36945066D02*
X103177390Y-37135542D01*
X103177390Y-37135542D02*
X103129771Y-37230780D01*
X103129771Y-37230780D02*
X103082152Y-37278400D01*
X103082152Y-37278400D02*
X102986914Y-37326019D01*
X102986914Y-37326019D02*
X102891676Y-37326019D01*
X102891676Y-37326019D02*
X102796438Y-37278400D01*
X102796438Y-37278400D02*
X102748819Y-37230780D01*
X102748819Y-37230780D02*
X102701200Y-37135542D01*
X102701200Y-37135542D02*
X102653581Y-36945066D01*
X102653581Y-36945066D02*
X102653581Y-36706971D01*
X102653581Y-36706971D02*
X102701200Y-36516495D01*
X102701200Y-36516495D02*
X102748819Y-36421257D01*
X102748819Y-36421257D02*
X102796438Y-36373638D01*
X102796438Y-36373638D02*
X102891676Y-36326019D01*
X103844057Y-36326019D02*
X103939295Y-36326019D01*
X103939295Y-36326019D02*
X104034533Y-36373638D01*
X104034533Y-36373638D02*
X104082152Y-36421257D01*
X104082152Y-36421257D02*
X104129771Y-36516495D01*
X104129771Y-36516495D02*
X104177390Y-36706971D01*
X104177390Y-36706971D02*
X104177390Y-36945066D01*
X104177390Y-36945066D02*
X104129771Y-37135542D01*
X104129771Y-37135542D02*
X104082152Y-37230780D01*
X104082152Y-37230780D02*
X104034533Y-37278400D01*
X104034533Y-37278400D02*
X103939295Y-37326019D01*
X103939295Y-37326019D02*
X103844057Y-37326019D01*
X103844057Y-37326019D02*
X103748819Y-37278400D01*
X103748819Y-37278400D02*
X103701200Y-37230780D01*
X103701200Y-37230780D02*
X103653581Y-37135542D01*
X103653581Y-37135542D02*
X103605962Y-36945066D01*
X103605962Y-36945066D02*
X103605962Y-36706971D01*
X103605962Y-36706971D02*
X103653581Y-36516495D01*
X103653581Y-36516495D02*
X103701200Y-36421257D01*
X103701200Y-36421257D02*
X103748819Y-36373638D01*
X103748819Y-36373638D02*
X103844057Y-36326019D01*
X105367867Y-37326019D02*
X105367867Y-36659352D01*
X105367867Y-36754590D02*
X105415486Y-36706971D01*
X105415486Y-36706971D02*
X105510724Y-36659352D01*
X105510724Y-36659352D02*
X105653581Y-36659352D01*
X105653581Y-36659352D02*
X105748819Y-36706971D01*
X105748819Y-36706971D02*
X105796438Y-36802209D01*
X105796438Y-36802209D02*
X105796438Y-37326019D01*
X105796438Y-36802209D02*
X105844057Y-36706971D01*
X105844057Y-36706971D02*
X105939295Y-36659352D01*
X105939295Y-36659352D02*
X106082152Y-36659352D01*
X106082152Y-36659352D02*
X106177391Y-36706971D01*
X106177391Y-36706971D02*
X106225010Y-36802209D01*
X106225010Y-36802209D02*
X106225010Y-37326019D01*
X106701200Y-37326019D02*
X106701200Y-36659352D01*
X106701200Y-36754590D02*
X106748819Y-36706971D01*
X106748819Y-36706971D02*
X106844057Y-36659352D01*
X106844057Y-36659352D02*
X106986914Y-36659352D01*
X106986914Y-36659352D02*
X107082152Y-36706971D01*
X107082152Y-36706971D02*
X107129771Y-36802209D01*
X107129771Y-36802209D02*
X107129771Y-37326019D01*
X107129771Y-36802209D02*
X107177390Y-36706971D01*
X107177390Y-36706971D02*
X107272628Y-36659352D01*
X107272628Y-36659352D02*
X107415485Y-36659352D01*
X107415485Y-36659352D02*
X107510724Y-36706971D01*
X107510724Y-36706971D02*
X107558343Y-36802209D01*
X107558343Y-36802209D02*
X107558343Y-37326019D01*
X108701200Y-37326019D02*
X109225009Y-36659352D01*
X108701200Y-36659352D02*
X109225009Y-37326019D01*
X110510724Y-36754590D02*
X110415486Y-36706971D01*
X110415486Y-36706971D02*
X110367867Y-36659352D01*
X110367867Y-36659352D02*
X110320248Y-36564114D01*
X110320248Y-36564114D02*
X110320248Y-36516495D01*
X110320248Y-36516495D02*
X110367867Y-36421257D01*
X110367867Y-36421257D02*
X110415486Y-36373638D01*
X110415486Y-36373638D02*
X110510724Y-36326019D01*
X110510724Y-36326019D02*
X110701200Y-36326019D01*
X110701200Y-36326019D02*
X110796438Y-36373638D01*
X110796438Y-36373638D02*
X110844057Y-36421257D01*
X110844057Y-36421257D02*
X110891676Y-36516495D01*
X110891676Y-36516495D02*
X110891676Y-36564114D01*
X110891676Y-36564114D02*
X110844057Y-36659352D01*
X110844057Y-36659352D02*
X110796438Y-36706971D01*
X110796438Y-36706971D02*
X110701200Y-36754590D01*
X110701200Y-36754590D02*
X110510724Y-36754590D01*
X110510724Y-36754590D02*
X110415486Y-36802209D01*
X110415486Y-36802209D02*
X110367867Y-36849828D01*
X110367867Y-36849828D02*
X110320248Y-36945066D01*
X110320248Y-36945066D02*
X110320248Y-37135542D01*
X110320248Y-37135542D02*
X110367867Y-37230780D01*
X110367867Y-37230780D02*
X110415486Y-37278400D01*
X110415486Y-37278400D02*
X110510724Y-37326019D01*
X110510724Y-37326019D02*
X110701200Y-37326019D01*
X110701200Y-37326019D02*
X110796438Y-37278400D01*
X110796438Y-37278400D02*
X110844057Y-37230780D01*
X110844057Y-37230780D02*
X110891676Y-37135542D01*
X110891676Y-37135542D02*
X110891676Y-36945066D01*
X110891676Y-36945066D02*
X110844057Y-36849828D01*
X110844057Y-36849828D02*
X110796438Y-36802209D01*
X110796438Y-36802209D02*
X110701200Y-36754590D01*
X111272629Y-36421257D02*
X111320248Y-36373638D01*
X111320248Y-36373638D02*
X111415486Y-36326019D01*
X111415486Y-36326019D02*
X111653581Y-36326019D01*
X111653581Y-36326019D02*
X111748819Y-36373638D01*
X111748819Y-36373638D02*
X111796438Y-36421257D01*
X111796438Y-36421257D02*
X111844057Y-36516495D01*
X111844057Y-36516495D02*
X111844057Y-36611733D01*
X111844057Y-36611733D02*
X111796438Y-36754590D01*
X111796438Y-36754590D02*
X111225010Y-37326019D01*
X111225010Y-37326019D02*
X111844057Y-37326019D01*
X112272629Y-37230780D02*
X112320248Y-37278400D01*
X112320248Y-37278400D02*
X112272629Y-37326019D01*
X112272629Y-37326019D02*
X112225010Y-37278400D01*
X112225010Y-37278400D02*
X112272629Y-37230780D01*
X112272629Y-37230780D02*
X112272629Y-37326019D01*
X112891676Y-36754590D02*
X112796438Y-36706971D01*
X112796438Y-36706971D02*
X112748819Y-36659352D01*
X112748819Y-36659352D02*
X112701200Y-36564114D01*
X112701200Y-36564114D02*
X112701200Y-36516495D01*
X112701200Y-36516495D02*
X112748819Y-36421257D01*
X112748819Y-36421257D02*
X112796438Y-36373638D01*
X112796438Y-36373638D02*
X112891676Y-36326019D01*
X112891676Y-36326019D02*
X113082152Y-36326019D01*
X113082152Y-36326019D02*
X113177390Y-36373638D01*
X113177390Y-36373638D02*
X113225009Y-36421257D01*
X113225009Y-36421257D02*
X113272628Y-36516495D01*
X113272628Y-36516495D02*
X113272628Y-36564114D01*
X113272628Y-36564114D02*
X113225009Y-36659352D01*
X113225009Y-36659352D02*
X113177390Y-36706971D01*
X113177390Y-36706971D02*
X113082152Y-36754590D01*
X113082152Y-36754590D02*
X112891676Y-36754590D01*
X112891676Y-36754590D02*
X112796438Y-36802209D01*
X112796438Y-36802209D02*
X112748819Y-36849828D01*
X112748819Y-36849828D02*
X112701200Y-36945066D01*
X112701200Y-36945066D02*
X112701200Y-37135542D01*
X112701200Y-37135542D02*
X112748819Y-37230780D01*
X112748819Y-37230780D02*
X112796438Y-37278400D01*
X112796438Y-37278400D02*
X112891676Y-37326019D01*
X112891676Y-37326019D02*
X113082152Y-37326019D01*
X113082152Y-37326019D02*
X113177390Y-37278400D01*
X113177390Y-37278400D02*
X113225009Y-37230780D01*
X113225009Y-37230780D02*
X113272628Y-37135542D01*
X113272628Y-37135542D02*
X113272628Y-36945066D01*
X113272628Y-36945066D02*
X113225009Y-36849828D01*
X113225009Y-36849828D02*
X113177390Y-36802209D01*
X113177390Y-36802209D02*
X113082152Y-36754590D01*
X114463105Y-37326019D02*
X114463105Y-36659352D01*
X114463105Y-36754590D02*
X114510724Y-36706971D01*
X114510724Y-36706971D02*
X114605962Y-36659352D01*
X114605962Y-36659352D02*
X114748819Y-36659352D01*
X114748819Y-36659352D02*
X114844057Y-36706971D01*
X114844057Y-36706971D02*
X114891676Y-36802209D01*
X114891676Y-36802209D02*
X114891676Y-37326019D01*
X114891676Y-36802209D02*
X114939295Y-36706971D01*
X114939295Y-36706971D02*
X115034533Y-36659352D01*
X115034533Y-36659352D02*
X115177390Y-36659352D01*
X115177390Y-36659352D02*
X115272629Y-36706971D01*
X115272629Y-36706971D02*
X115320248Y-36802209D01*
X115320248Y-36802209D02*
X115320248Y-37326019D01*
X115796438Y-37326019D02*
X115796438Y-36659352D01*
X115796438Y-36754590D02*
X115844057Y-36706971D01*
X115844057Y-36706971D02*
X115939295Y-36659352D01*
X115939295Y-36659352D02*
X116082152Y-36659352D01*
X116082152Y-36659352D02*
X116177390Y-36706971D01*
X116177390Y-36706971D02*
X116225009Y-36802209D01*
X116225009Y-36802209D02*
X116225009Y-37326019D01*
X116225009Y-36802209D02*
X116272628Y-36706971D01*
X116272628Y-36706971D02*
X116367866Y-36659352D01*
X116367866Y-36659352D02*
X116510723Y-36659352D01*
X116510723Y-36659352D02*
X116605962Y-36706971D01*
X116605962Y-36706971D02*
X116653581Y-36802209D01*
X116653581Y-36802209D02*
X116653581Y-37326019D01*
X86383904Y-88735600D02*
X86241047Y-88687980D01*
X86241047Y-88687980D02*
X86002952Y-88687980D01*
X86002952Y-88687980D02*
X85907714Y-88735600D01*
X85907714Y-88735600D02*
X85860095Y-88783219D01*
X85860095Y-88783219D02*
X85812476Y-88878457D01*
X85812476Y-88878457D02*
X85812476Y-88973695D01*
X85812476Y-88973695D02*
X85860095Y-89068933D01*
X85860095Y-89068933D02*
X85907714Y-89116552D01*
X85907714Y-89116552D02*
X86002952Y-89164171D01*
X86002952Y-89164171D02*
X86193428Y-89211790D01*
X86193428Y-89211790D02*
X86288666Y-89259409D01*
X86288666Y-89259409D02*
X86336285Y-89307028D01*
X86336285Y-89307028D02*
X86383904Y-89402266D01*
X86383904Y-89402266D02*
X86383904Y-89497504D01*
X86383904Y-89497504D02*
X86336285Y-89592742D01*
X86336285Y-89592742D02*
X86288666Y-89640361D01*
X86288666Y-89640361D02*
X86193428Y-89687980D01*
X86193428Y-89687980D02*
X85955333Y-89687980D01*
X85955333Y-89687980D02*
X85812476Y-89640361D01*
X84812476Y-88783219D02*
X84860095Y-88735600D01*
X84860095Y-88735600D02*
X85002952Y-88687980D01*
X85002952Y-88687980D02*
X85098190Y-88687980D01*
X85098190Y-88687980D02*
X85241047Y-88735600D01*
X85241047Y-88735600D02*
X85336285Y-88830838D01*
X85336285Y-88830838D02*
X85383904Y-88926076D01*
X85383904Y-88926076D02*
X85431523Y-89116552D01*
X85431523Y-89116552D02*
X85431523Y-89259409D01*
X85431523Y-89259409D02*
X85383904Y-89449885D01*
X85383904Y-89449885D02*
X85336285Y-89545123D01*
X85336285Y-89545123D02*
X85241047Y-89640361D01*
X85241047Y-89640361D02*
X85098190Y-89687980D01*
X85098190Y-89687980D02*
X85002952Y-89687980D01*
X85002952Y-89687980D02*
X84860095Y-89640361D01*
X84860095Y-89640361D02*
X84812476Y-89592742D01*
X84431523Y-89592742D02*
X84383904Y-89640361D01*
X84383904Y-89640361D02*
X84288666Y-89687980D01*
X84288666Y-89687980D02*
X84050571Y-89687980D01*
X84050571Y-89687980D02*
X83955333Y-89640361D01*
X83955333Y-89640361D02*
X83907714Y-89592742D01*
X83907714Y-89592742D02*
X83860095Y-89497504D01*
X83860095Y-89497504D02*
X83860095Y-89402266D01*
X83860095Y-89402266D02*
X83907714Y-89259409D01*
X83907714Y-89259409D02*
X84479142Y-88687980D01*
X84479142Y-88687980D02*
X83860095Y-88687980D01*
X163260495Y-89067200D02*
X163403352Y-89114819D01*
X163403352Y-89114819D02*
X163641447Y-89114819D01*
X163641447Y-89114819D02*
X163736685Y-89067200D01*
X163736685Y-89067200D02*
X163784304Y-89019580D01*
X163784304Y-89019580D02*
X163831923Y-88924342D01*
X163831923Y-88924342D02*
X163831923Y-88829104D01*
X163831923Y-88829104D02*
X163784304Y-88733866D01*
X163784304Y-88733866D02*
X163736685Y-88686247D01*
X163736685Y-88686247D02*
X163641447Y-88638628D01*
X163641447Y-88638628D02*
X163450971Y-88591009D01*
X163450971Y-88591009D02*
X163355733Y-88543390D01*
X163355733Y-88543390D02*
X163308114Y-88495771D01*
X163308114Y-88495771D02*
X163260495Y-88400533D01*
X163260495Y-88400533D02*
X163260495Y-88305295D01*
X163260495Y-88305295D02*
X163308114Y-88210057D01*
X163308114Y-88210057D02*
X163355733Y-88162438D01*
X163355733Y-88162438D02*
X163450971Y-88114819D01*
X163450971Y-88114819D02*
X163689066Y-88114819D01*
X163689066Y-88114819D02*
X163831923Y-88162438D01*
X164831923Y-89019580D02*
X164784304Y-89067200D01*
X164784304Y-89067200D02*
X164641447Y-89114819D01*
X164641447Y-89114819D02*
X164546209Y-89114819D01*
X164546209Y-89114819D02*
X164403352Y-89067200D01*
X164403352Y-89067200D02*
X164308114Y-88971961D01*
X164308114Y-88971961D02*
X164260495Y-88876723D01*
X164260495Y-88876723D02*
X164212876Y-88686247D01*
X164212876Y-88686247D02*
X164212876Y-88543390D01*
X164212876Y-88543390D02*
X164260495Y-88352914D01*
X164260495Y-88352914D02*
X164308114Y-88257676D01*
X164308114Y-88257676D02*
X164403352Y-88162438D01*
X164403352Y-88162438D02*
X164546209Y-88114819D01*
X164546209Y-88114819D02*
X164641447Y-88114819D01*
X164641447Y-88114819D02*
X164784304Y-88162438D01*
X164784304Y-88162438D02*
X164831923Y-88210057D01*
X165784304Y-89114819D02*
X165212876Y-89114819D01*
X165498590Y-89114819D02*
X165498590Y-88114819D01*
X165498590Y-88114819D02*
X165403352Y-88257676D01*
X165403352Y-88257676D02*
X165308114Y-88352914D01*
X165308114Y-88352914D02*
X165212876Y-88400533D01*
D11*
X84392000Y-90097800D02*
X164592000Y-90097800D01*
X84392000Y-116597800D02*
X84392000Y-90097800D01*
X84392000Y-119597800D02*
X84392000Y-130097800D01*
X84392000Y-130097800D02*
X94992000Y-130097800D01*
X94992000Y-130097800D02*
X84392000Y-119597800D01*
X97992000Y-130097800D02*
X84392000Y-116597800D01*
X150992000Y-130097800D02*
X97992000Y-130097800D01*
X164592000Y-90097800D02*
X164592000Y-116597800D01*
X164592000Y-116597800D02*
X150992000Y-130097800D01*
X85052400Y-61205000D02*
X98652400Y-47705000D01*
X85052400Y-87705000D02*
X85052400Y-61205000D01*
X98652400Y-47705000D02*
X151652400Y-47705000D01*
X151652400Y-47705000D02*
X165252400Y-61205000D01*
X154652400Y-47705000D02*
X165252400Y-58205000D01*
X165252400Y-47705000D02*
X154652400Y-47705000D01*
X165252400Y-58205000D02*
X165252400Y-47705000D01*
X165252400Y-61205000D02*
X165252400Y-87705000D01*
X165252400Y-87705000D02*
X85052400Y-87705000D01*
X129400000Y-134400000D02*
X129400000Y-133800000D01*
X130450000Y-132900000D02*
X131050000Y-132900000D01*
X130450000Y-135300000D02*
X131050000Y-135300000D01*
X132100000Y-134400000D02*
X132100000Y-133800000D01*
X129350000Y-133000000D02*
G75*
G02*
X129150000Y-133000000I-100000J0D01*
G01*
X129150000Y-133000000D02*
G75*
G02*
X129350000Y-133000000I100000J0D01*
G01*
%LPC*%
D12*
X148492000Y-108097800D03*
D13*
X124492000Y-113702800D03*
D12*
X124492000Y-108097800D03*
D14*
X124492000Y-100670300D03*
D12*
X98492000Y-108097800D03*
D15*
X139822000Y-133597800D03*
X108362000Y-133597800D03*
D16*
X92107000Y-133592800D03*
D12*
X101152400Y-69705000D03*
D17*
X125152400Y-64100000D03*
D12*
X125152400Y-69705000D03*
D14*
X125152400Y-77132500D03*
D12*
X151152400Y-69705000D03*
D18*
X109822400Y-44205000D03*
X141282400Y-44205000D03*
X160077400Y-44210000D03*
D19*
X129800000Y-133300000D03*
X129800000Y-134900000D03*
X131700000Y-134900000D03*
X131700000Y-133300000D03*
%LPD*%
M02*
