M48
; DRILL file {KiCad 8.0.2} date 2024-08-20T08:19:24+0200
; FORMAT={-:-/ absolute / metric / decimal}
; #@! TF.CreationDate,2024-08-20T08:19:24+02:00
; #@! TF.GenerationSoftware,Kicad,Pcbnew,8.0.2
; #@! TF.FileFunction,Plated,2,4,Blind
FMAT,2
METRIC
; #@! TA.AperFunction,Plated,Buried,ViaDrill
T1C0.300
%
G90
G05
T1
X86.0Y-95.05
X86.0Y-96.55
X86.0Y-98.05
X86.0Y-99.55
X88.0Y-95.05
X88.0Y-96.55
X88.0Y-98.05
X88.0Y-99.55
X89.5Y-95.05
X89.5Y-96.55
X89.5Y-98.05
X89.5Y-99.55
X91.0Y-95.05
X91.0Y-96.55
X91.0Y-98.05
X91.0Y-99.55
X92.5Y-95.05
X92.5Y-96.55
X92.5Y-98.05
X98.55Y-124.2
X103.0Y-95.05
X103.0Y-96.55
X103.0Y-98.05
X104.5Y-95.05
X104.5Y-96.55
X104.5Y-98.05
X105.94Y-74.54
X105.94Y-76.04
X105.94Y-77.54
X106.0Y-95.06
X106.0Y-96.56
X107.44Y-74.54
X107.44Y-76.04
X107.44Y-77.54
X107.5Y-95.05
X107.5Y-96.55
X108.94Y-74.54
X108.94Y-76.04
X108.94Y-77.54
X109.0Y-95.05
X109.0Y-96.55
X109.0Y-98.05
X109.0Y-99.55
X110.44Y-74.54
X110.44Y-76.04
X110.44Y-77.54
X110.5Y-95.05
X110.5Y-96.55
X110.5Y-98.05
X110.5Y-99.55
X112.0Y-95.05
X112.0Y-96.55
X112.0Y-98.05
X112.0Y-99.55
X113.5Y-95.05
X113.5Y-96.55
X113.5Y-98.05
X113.5Y-99.55
X113.634Y-87.231
X115.0Y-95.05
X115.0Y-96.55
X115.0Y-98.05
X115.0Y-99.55
X116.5Y-95.05
X116.5Y-96.55
X116.5Y-98.05
X116.5Y-99.55
X116.52Y-83.8
X116.99Y-86.09
X117.13Y-82.425
X117.39Y-80.88
X118.0Y-95.05
X118.0Y-96.55
X118.0Y-98.05
X118.0Y-99.55
X118.16Y-82.445
X118.16Y-83.795
X118.9Y-79.27
X118.904Y-80.864
X119.5Y-95.05
X119.5Y-96.55
X119.5Y-98.05
X119.5Y-99.55
X121.0Y-95.05
X121.0Y-96.55
X121.0Y-98.05
X121.0Y-99.55
X122.5Y-95.05
X122.5Y-96.55
X122.5Y-98.05
X122.5Y-99.55
X125.44Y-79.19
X125.44Y-80.83
X126.94Y-79.2
X126.94Y-80.84
X129.225Y-95.3
X129.225Y-96.325
X130.51Y-76.115
X130.51Y-77.615
X130.51Y-79.115
X131.5Y-87.725
X131.5Y-88.75
X131.5Y-89.875
X132.01Y-76.115
X132.01Y-77.615
X132.01Y-79.115
X133.0Y-85.375
X133.0Y-86.51
X133.0Y-87.725
X133.0Y-88.75
X133.0Y-89.875
X133.51Y-76.115
X133.51Y-77.615
X133.51Y-79.115
X134.5Y-85.365
X134.5Y-86.5
X134.5Y-87.725
X134.5Y-88.75
X134.5Y-89.875
X135.01Y-76.115
X135.01Y-77.615
X135.01Y-79.115
X135.7Y-85.365
X135.7Y-86.5
X135.7Y-87.725
X135.7Y-88.75
X135.7Y-89.875
X136.172Y-92.46
X136.172Y-93.984
X136.51Y-76.115
X136.51Y-77.615
X136.51Y-79.115
X137.025Y-92.451
X137.025Y-93.975
X137.25Y-103.75
X137.9Y-92.46
X137.9Y-93.984
X138.01Y-76.115
X138.01Y-77.615
X138.01Y-79.115
X138.6Y-87.7
X138.75Y-103.75
X140.05Y-87.7
X140.05Y-89.025
X140.25Y-103.75
X141.252Y-87.7
X141.252Y-89.025
X141.252Y-90.682
X142.07Y-103.75
X143.57Y-103.75
X143.92Y-98.3
X145.05Y-85.3
X145.07Y-103.75
X145.4Y-98.3
X145.4Y-99.83
X145.4Y-101.475
X146.55Y-85.3
X146.9Y-99.83
X146.9Y-101.475
X147.75Y-85.3
X148.4Y-99.83
X149.125Y-85.3
X149.15Y-97.56
X150.55Y-96.825
X150.55Y-98.305
X150.625Y-85.3
X151.825Y-85.3
M30
