G04 #@! TF.GenerationSoftware,KiCad,Pcbnew,8.0.2*
G04 #@! TF.CreationDate,2024-08-20T08:19:13+02:00*
G04 #@! TF.ProjectId,STS1_SIDEPANEL,53545331-5f53-4494-9445-50414e454c2e,rev?*
G04 #@! TF.SameCoordinates,Original*
G04 #@! TF.FileFunction,Paste,Bot*
G04 #@! TF.FilePolarity,Positive*
%FSLAX46Y46*%
G04 Gerber Fmt 4.6, Leading zero omitted, Abs format (unit mm)*
G04 Created by KiCad (PCBNEW 8.0.2) date 2024-08-20 08:19:13*
%MOMM*%
%LPD*%
G01*
G04 APERTURE LIST*
G04 Aperture macros list*
%AMRoundRect*
0 Rectangle with rounded corners*
0 $1 Rounding radius*
0 $2 $3 $4 $5 $6 $7 $8 $9 X,Y pos of 4 corners*
0 Add a 4 corners polygon primitive as box body*
4,1,4,$2,$3,$4,$5,$6,$7,$8,$9,$2,$3,0*
0 Add four circle primitives for the rounded corners*
1,1,$1+$1,$2,$3*
1,1,$1+$1,$4,$5*
1,1,$1+$1,$6,$7*
1,1,$1+$1,$8,$9*
0 Add four rect primitives between the rounded corners*
20,1,$1+$1,$2,$3,$4,$5,0*
20,1,$1+$1,$4,$5,$6,$7,0*
20,1,$1+$1,$6,$7,$8,$9,0*
20,1,$1+$1,$8,$9,$2,$3,0*%
G04 Aperture macros list end*
%ADD10R,0.300000X1.600000*%
%ADD11R,2.240000X3.120000*%
%ADD12RoundRect,0.225000X0.225000X0.250000X-0.225000X0.250000X-0.225000X-0.250000X0.225000X-0.250000X0*%
%ADD13R,1.430000X5.500000*%
%ADD14RoundRect,0.250000X-0.475000X0.250000X-0.475000X-0.250000X0.475000X-0.250000X0.475000X0.250000X0*%
%ADD15RoundRect,0.200000X-0.200000X-0.275000X0.200000X-0.275000X0.200000X0.275000X-0.200000X0.275000X0*%
%ADD16RoundRect,0.250000X0.300000X0.300000X-0.300000X0.300000X-0.300000X-0.300000X0.300000X-0.300000X0*%
%ADD17RoundRect,0.100000X-0.637500X-0.100000X0.637500X-0.100000X0.637500X0.100000X-0.637500X0.100000X0*%
%ADD18R,0.400000X1.000000*%
%ADD19R,2.000000X1.300000*%
%ADD20RoundRect,0.200000X-0.275000X0.200000X-0.275000X-0.200000X0.275000X-0.200000X0.275000X0.200000X0*%
%ADD21RoundRect,0.200000X0.275000X-0.200000X0.275000X0.200000X-0.275000X0.200000X-0.275000X-0.200000X0*%
%ADD22R,0.650000X0.950000*%
%ADD23R,2.000000X1.950000*%
%ADD24R,0.850000X0.650000*%
%ADD25RoundRect,0.150000X0.512500X0.150000X-0.512500X0.150000X-0.512500X-0.150000X0.512500X-0.150000X0*%
%ADD26RoundRect,0.200000X0.200000X0.275000X-0.200000X0.275000X-0.200000X-0.275000X0.200000X-0.275000X0*%
%ADD27RoundRect,0.225000X0.250000X-0.225000X0.250000X0.225000X-0.250000X0.225000X-0.250000X-0.225000X0*%
%ADD28RoundRect,0.100000X0.637500X0.100000X-0.637500X0.100000X-0.637500X-0.100000X0.637500X-0.100000X0*%
%ADD29RoundRect,0.250000X-0.262500X-0.450000X0.262500X-0.450000X0.262500X0.450000X-0.262500X0.450000X0*%
%ADD30RoundRect,0.250000X0.262500X0.450000X-0.262500X0.450000X-0.262500X-0.450000X0.262500X-0.450000X0*%
%ADD31RoundRect,0.250000X0.250000X0.475000X-0.250000X0.475000X-0.250000X-0.475000X0.250000X-0.475000X0*%
%ADD32RoundRect,0.250000X0.475000X-0.250000X0.475000X0.250000X-0.475000X0.250000X-0.475000X-0.250000X0*%
%ADD33RoundRect,0.250000X-0.350000X-0.450000X0.350000X-0.450000X0.350000X0.450000X-0.350000X0.450000X0*%
%ADD34RoundRect,0.225000X-0.225000X-0.250000X0.225000X-0.250000X0.225000X0.250000X-0.225000X0.250000X0*%
%ADD35RoundRect,0.225000X-0.250000X0.225000X-0.250000X-0.225000X0.250000X-0.225000X0.250000X0.225000X0*%
%ADD36RoundRect,0.150000X-0.512500X-0.150000X0.512500X-0.150000X0.512500X0.150000X-0.512500X0.150000X0*%
%ADD37RoundRect,0.250000X-0.250000X-0.475000X0.250000X-0.475000X0.250000X0.475000X-0.250000X0.475000X0*%
%ADD38RoundRect,0.085000X-0.085000X0.265000X-0.085000X-0.265000X0.085000X-0.265000X0.085000X0.265000X0*%
%ADD39RoundRect,0.250000X-0.300000X-0.300000X0.300000X-0.300000X0.300000X0.300000X-0.300000X0.300000X0*%
G04 APERTURE END LIST*
D10*
X96870000Y-127373000D03*
X97370000Y-127373000D03*
X97870000Y-127373000D03*
X98370000Y-127373000D03*
X98870000Y-127373000D03*
X99370000Y-127373000D03*
X99870000Y-127373000D03*
X100370000Y-127373000D03*
D11*
X95223000Y-125393000D03*
X102017000Y-125393000D03*
D12*
X115989800Y-86079200D03*
X114439800Y-86079200D03*
D13*
X106967500Y-85240000D03*
X111007500Y-85240000D03*
D14*
X104010000Y-85610000D03*
X104010000Y-87510000D03*
D15*
X125350000Y-126550000D03*
X127000000Y-126550000D03*
D16*
X114240000Y-80490000D03*
X111440000Y-80490000D03*
D17*
X114358900Y-84438000D03*
X114358900Y-83788000D03*
X114358900Y-83138000D03*
X114358900Y-82488000D03*
X120083900Y-82488000D03*
X120083900Y-83138000D03*
X120083900Y-83788000D03*
X120083900Y-84438000D03*
D18*
X100640000Y-101500000D03*
X101640000Y-101500000D03*
X102640000Y-101500000D03*
X103640000Y-101500000D03*
D19*
X97840000Y-98800000D03*
X106440000Y-98800000D03*
D20*
X130842000Y-95787000D03*
X130842000Y-97437000D03*
D21*
X137066500Y-90679000D03*
X137066500Y-89029000D03*
D22*
X115860000Y-76030000D03*
D23*
X114535000Y-76030000D03*
D24*
X112480000Y-76030000D03*
D25*
X158141500Y-86330000D03*
X158141500Y-87280000D03*
X158141500Y-88230000D03*
X155866500Y-88230000D03*
X155866500Y-86330000D03*
D22*
X139180000Y-100770000D03*
D23*
X140505000Y-100770000D03*
D24*
X142560000Y-100770000D03*
D14*
X101880000Y-85580000D03*
X101880000Y-87480000D03*
D26*
X125740000Y-84175000D03*
X124090000Y-84175000D03*
D27*
X132240500Y-93931000D03*
X132240500Y-92381000D03*
D21*
X123550000Y-80845000D03*
X123550000Y-79195000D03*
D28*
X140104000Y-92242000D03*
X140104000Y-92892000D03*
X140104000Y-93542000D03*
X140104000Y-94192000D03*
X134379000Y-94192000D03*
X134379000Y-93542000D03*
X134379000Y-92892000D03*
X134379000Y-92242000D03*
D27*
X120330000Y-80820000D03*
X120330000Y-79270000D03*
D15*
X116140000Y-87740000D03*
X117790000Y-87740000D03*
D29*
X97907500Y-85725000D03*
X99732500Y-85725000D03*
D30*
X117440000Y-78310000D03*
X115615000Y-78310000D03*
D31*
X113460000Y-78300000D03*
X111560000Y-78300000D03*
D26*
X125735000Y-82635000D03*
X124085000Y-82635000D03*
D32*
X150654000Y-91024000D03*
X150654000Y-89124000D03*
D33*
X109500000Y-118325000D03*
X111500000Y-118325000D03*
D34*
X133475000Y-129450000D03*
X135025000Y-129450000D03*
D32*
X152686000Y-91058000D03*
X152686000Y-89158000D03*
D21*
X132366000Y-97437000D03*
X132366000Y-95787000D03*
D35*
X138590500Y-89079000D03*
X138590500Y-90629000D03*
D30*
X156138500Y-92802000D03*
X154313500Y-92802000D03*
D35*
X122630000Y-82610000D03*
X122630000Y-84160000D03*
D29*
X136916000Y-97969000D03*
X138741000Y-97969000D03*
D36*
X95642500Y-90920000D03*
X95642500Y-89970000D03*
X95642500Y-89020000D03*
X97917500Y-89020000D03*
X97917500Y-90920000D03*
D15*
X125350000Y-128100000D03*
X127000000Y-128100000D03*
D20*
X121950000Y-79195000D03*
X121950000Y-80845000D03*
D37*
X140480000Y-98430000D03*
X142380000Y-98430000D03*
D35*
X133890000Y-95837000D03*
X133890000Y-97387000D03*
D15*
X129129500Y-92394000D03*
X130779500Y-92394000D03*
D13*
X148218500Y-91378000D03*
X144178500Y-91378000D03*
D38*
X131282500Y-126575000D03*
X131782500Y-126575000D03*
X132282500Y-126575000D03*
X132282500Y-128075000D03*
X131782500Y-128075000D03*
X131282500Y-128075000D03*
D39*
X140746500Y-96204000D03*
X143546500Y-96204000D03*
D15*
X129129500Y-93918000D03*
X130779500Y-93918000D03*
M02*
