M48
; DRILL file {KiCad 8.0.2} date 2024-08-20T08:19:24+0200
; FORMAT={-:-/ absolute / metric / decimal}
; #@! TF.CreationDate,2024-08-20T08:19:24+02:00
; #@! TF.GenerationSoftware,Kicad,Pcbnew,8.0.2
; #@! TF.FileFunction,Plated,3,4,Blind
FMAT,2
METRIC
; #@! TA.AperFunction,Plated,Buried,ViaDrill
T1C0.300
; #@! TA.AperFunction,Plated,Buried,ViaDrill
T2C0.400
; #@! TA.AperFunction,Plated,Buried,ViaDrill
T3C0.500
; #@! TA.AperFunction,Plated,Buried,ViaDrill
T4C0.600
%
G90
G05
T1
X97.37Y-125.973
X97.417Y-125.074
X99.85Y-128.75
X107.9Y-118.28
X115.79Y-79.49
X115.98Y-84.915
X117.465Y-79.715
X119.715Y-85.19
X126.79Y-84.18
X126.89Y-82.64
T2
X87.85Y-91.65
X95.63Y-128.17
X99.77Y-102.42
X101.19Y-127.553
X101.7Y-99.8
X102.725Y-99.8
X104.25Y-102.76
X121.725Y-125.225
X123.149Y-126.976
X125.5Y-123.95
X126.637Y-129.387
X127.0Y-122.85
X128.01Y-92.394
X128.011Y-94.025
X129.6Y-126.55
X130.825Y-130.375
X130.842Y-98.5
X134.273Y-91.378
X138.78Y-96.58
X139.423Y-91.561
X155.88Y-85.03
X159.798Y-86.198
T3
X91.275Y-84.525
T4
X96.5Y-131.0
X96.5Y-132.5
X98.2Y-130.95
X98.25Y-132.5
X100.31Y-91.07
X101.5Y-91.07
X102.75Y-91.07
X104.0Y-91.07
X123.47Y-75.97
X124.75Y-76.0
X126.0Y-76.0
X127.25Y-76.0
X131.6Y-101.775
X133.0Y-101.75
X134.5Y-101.75
X136.0Y-101.75
M30
