M48
; DRILL file {KiCad 8.0.2} date 2024-08-20T08:17:15+0200
; FORMAT={-:-/ absolute / metric / decimal}
; #@! TF.CreationDate,2024-08-20T08:17:15+02:00
; #@! TF.GenerationSoftware,Kicad,Pcbnew,8.0.2
; #@! TF.FileFunction,Plated,1,4,PTH
FMAT,2
METRIC
; #@! TA.AperFunction,Plated,PTH,ViaDrill
T1C0.300
; #@! TA.AperFunction,Plated,PTH,ViaDrill
T2C0.400
; #@! TA.AperFunction,Plated,PTH,ComponentDrill
T3C5.000
%
G90
G05
T1
X78.78Y-108.66
X78.78Y-110.06
X78.78Y-111.56
X78.78Y-113.06
X78.78Y-114.56
X78.78Y-116.06
X78.78Y-117.56
X78.8Y-72.12
X78.8Y-73.52
X78.8Y-75.02
X78.8Y-76.52
X78.8Y-78.02
X78.8Y-79.52
X78.8Y-81.02
X78.81Y-119.14
X78.81Y-120.54
X78.81Y-122.04
X78.81Y-123.54
X78.81Y-125.04
X78.81Y-126.54
X78.81Y-128.04
X78.82Y-87.12
X78.82Y-88.52
X78.82Y-90.02
X78.82Y-91.52
X78.82Y-93.02
X78.82Y-94.52
X78.82Y-96.02
X78.82Y-98.01
X78.82Y-99.41
X78.82Y-100.91
X78.82Y-102.41
X78.82Y-103.91
X78.82Y-105.41
X78.82Y-106.91
X78.83Y-61.22
X78.83Y-62.62
X78.83Y-64.12
X78.83Y-65.62
X78.83Y-67.12
X78.83Y-68.62
X78.83Y-70.12
X78.85Y-50.26
X78.85Y-51.66
X78.85Y-53.16
X78.85Y-54.66
X78.85Y-56.16
X78.85Y-57.66
X78.85Y-59.16
X80.28Y-108.66
X80.28Y-110.06
X80.28Y-111.56
X80.28Y-113.06
X80.28Y-114.56
X80.28Y-116.06
X80.28Y-117.56
X80.3Y-72.12
X80.3Y-73.52
X80.3Y-75.02
X80.3Y-76.52
X80.3Y-78.02
X80.3Y-79.52
X80.3Y-81.02
X80.31Y-119.14
X80.31Y-120.54
X80.31Y-122.04
X80.31Y-123.54
X80.31Y-125.04
X80.31Y-126.54
X80.31Y-128.04
X80.32Y-87.12
X80.32Y-88.52
X80.32Y-90.02
X80.32Y-91.52
X80.32Y-93.02
X80.32Y-94.52
X80.32Y-96.02
X80.32Y-98.01
X80.32Y-99.41
X80.32Y-100.91
X80.32Y-102.41
X80.32Y-103.91
X80.32Y-105.41
X80.32Y-106.91
X80.33Y-61.22
X80.33Y-62.62
X80.33Y-64.12
X80.33Y-65.62
X80.33Y-67.12
X80.33Y-68.62
X80.33Y-70.12
X80.35Y-50.26
X80.35Y-51.66
X80.35Y-53.16
X80.35Y-54.66
X80.35Y-56.16
X80.35Y-57.66
X80.35Y-59.16
X81.78Y-108.66
X81.78Y-110.06
X81.78Y-111.56
X81.78Y-113.06
X81.78Y-114.56
X81.78Y-116.06
X81.78Y-117.56
X81.8Y-72.12
X81.8Y-73.52
X81.8Y-75.02
X81.8Y-76.52
X81.8Y-78.02
X81.8Y-79.52
X81.8Y-81.02
X81.81Y-119.14
X81.81Y-120.54
X81.81Y-122.04
X81.81Y-123.54
X81.81Y-125.04
X81.81Y-126.54
X81.81Y-128.04
X81.82Y-87.12
X81.82Y-88.52
X81.82Y-90.02
X81.82Y-91.52
X81.82Y-93.02
X81.82Y-94.52
X81.82Y-96.02
X81.82Y-98.01
X81.82Y-99.41
X81.82Y-100.91
X81.82Y-102.41
X81.82Y-103.91
X81.82Y-105.41
X81.82Y-106.91
X81.83Y-61.22
X81.83Y-62.62
X81.83Y-64.12
X81.83Y-65.62
X81.83Y-67.12
X81.83Y-68.62
X81.83Y-70.12
X81.85Y-50.26
X81.85Y-51.66
X81.85Y-53.16
X81.85Y-54.66
X81.85Y-56.16
X81.85Y-57.66
X81.85Y-59.16
X86.44Y-41.47
X86.44Y-42.97
X87.84Y-41.47
X87.84Y-42.97
X89.4Y-41.47
X89.4Y-42.97
X90.9Y-41.47
X90.9Y-42.97
X92.4Y-41.47
X92.4Y-42.97
X93.9Y-41.47
X93.9Y-42.97
X95.4Y-41.47
X95.4Y-42.97
X96.5Y-133.4
X96.5Y-134.9
X96.5Y-136.4
X96.5Y-137.9
X96.9Y-41.47
X96.9Y-42.97
X98.0Y-133.4
X98.0Y-134.9
X98.0Y-136.4
X98.0Y-137.9
X98.3Y-41.47
X98.3Y-42.97
X99.5Y-133.4
X99.5Y-134.9
X99.5Y-136.4
X99.5Y-137.9
X99.8Y-41.47
X99.8Y-42.97
X101.0Y-133.4
X101.0Y-134.9
X101.0Y-136.4
X101.0Y-137.9
X101.3Y-41.47
X101.3Y-42.97
X102.5Y-133.4
X102.5Y-134.9
X102.5Y-136.4
X102.5Y-137.9
X102.8Y-41.47
X102.8Y-42.97
X114.0Y-133.4
X115.08Y-41.46
X115.08Y-42.96
X115.23Y-137.9
X115.5Y-133.4
X115.5Y-134.9
X115.5Y-136.4
X116.58Y-41.46
X116.58Y-42.96
X117.0Y-133.4
X117.0Y-134.9
X117.0Y-136.4
X117.0Y-137.9
X118.08Y-41.46
X118.08Y-42.96
X118.5Y-133.4
X118.5Y-137.9
X119.58Y-41.46
X119.58Y-42.96
X120.0Y-133.4
X120.0Y-137.9
X121.08Y-41.46
X121.08Y-42.96
X121.5Y-133.4
X121.5Y-134.9
X121.5Y-136.4
X121.5Y-137.9
X122.58Y-41.46
X122.58Y-42.96
X123.0Y-133.4
X123.0Y-134.9
X123.0Y-136.4
X123.0Y-137.9
X124.14Y-41.46
X124.14Y-42.96
X124.5Y-133.4
X124.5Y-134.9
X124.5Y-136.4
X124.5Y-137.9
X125.54Y-41.46
X125.54Y-42.96
X125.9Y-133.4
X125.9Y-134.9
X125.9Y-136.4
X125.9Y-137.9
X127.04Y-41.46
X127.04Y-42.96
X127.46Y-133.4
X127.46Y-134.9
X127.46Y-136.4
X127.46Y-137.9
X128.54Y-41.46
X128.54Y-42.96
X128.96Y-133.4
X128.96Y-134.9
X128.96Y-136.4
X128.96Y-137.9
X130.46Y-133.4
X130.46Y-134.9
X130.46Y-136.4
X130.46Y-137.9
X131.96Y-133.4
X131.96Y-134.9
X131.96Y-136.4
X131.96Y-137.9
X133.04Y-41.46
X133.04Y-42.96
X133.46Y-133.4
X133.46Y-134.9
X133.46Y-136.4
X133.46Y-137.9
X134.54Y-41.46
X134.54Y-42.96
X134.96Y-133.4
X134.96Y-134.9
X134.96Y-136.4
X134.96Y-137.9
X147.24Y-133.4
X147.24Y-134.9
X147.24Y-136.4
X147.24Y-137.9
X147.28Y-41.84
X147.28Y-43.34
X148.78Y-41.84
X148.78Y-43.34
X148.8Y-133.4
X148.8Y-134.9
X148.8Y-136.4
X148.8Y-137.9
X150.28Y-41.84
X150.28Y-43.34
X150.3Y-133.4
X150.3Y-134.9
X150.3Y-136.4
X150.3Y-137.9
X151.78Y-41.84
X151.78Y-43.34
X151.8Y-133.4
X151.8Y-134.9
X151.8Y-136.4
X151.8Y-137.9
X153.28Y-41.84
X153.28Y-43.34
X153.3Y-133.4
X153.3Y-134.9
X153.3Y-136.4
X153.3Y-137.9
X154.8Y-133.4
X154.8Y-134.9
X154.8Y-136.4
X154.8Y-137.9
X156.3Y-133.4
X156.3Y-134.9
X156.3Y-136.4
X156.3Y-137.9
X157.7Y-133.4
X157.7Y-134.9
X157.7Y-136.4
X157.7Y-137.9
X159.2Y-133.4
X159.2Y-134.9
X159.2Y-136.4
X159.2Y-137.9
X160.7Y-133.4
X160.7Y-134.9
X160.7Y-136.4
X160.7Y-137.9
X162.2Y-133.4
X162.2Y-134.9
X162.2Y-136.4
X162.2Y-137.9
X163.6Y-133.4
X163.6Y-134.9
X163.6Y-136.4
X163.6Y-137.9
X168.2Y-52.6
X168.2Y-54.0
X168.2Y-55.5
X168.2Y-57.0
X168.2Y-58.5
X168.2Y-60.0
X168.2Y-61.5
X168.2Y-71.0
X168.2Y-72.5
X168.2Y-74.0
X168.2Y-75.5
X168.2Y-77.0
X168.2Y-78.5
X168.2Y-80.0
X168.2Y-81.5
X168.2Y-97.0
X168.2Y-98.5
X168.2Y-100.0
X168.2Y-101.5
X168.2Y-103.0
X168.2Y-104.5
X168.2Y-106.0
X168.2Y-107.5
X168.2Y-109.0
X168.2Y-110.5
X168.2Y-112.0
X168.2Y-113.5
X168.2Y-115.0
X168.2Y-116.5
X168.2Y-118.0
X168.2Y-119.5
X168.2Y-121.0
X168.2Y-122.5
X168.2Y-124.0
X168.2Y-125.5
X168.2Y-127.0
X168.24Y-83.0
X168.24Y-84.5
X168.24Y-86.0
X168.24Y-87.5
X168.24Y-89.0
X168.24Y-90.5
X168.24Y-92.0
X169.7Y-52.6
X169.7Y-54.0
X169.7Y-55.5
X169.7Y-57.0
X169.7Y-58.5
X169.7Y-60.0
X169.7Y-61.5
X169.7Y-71.0
X169.7Y-72.5
X169.7Y-74.0
X169.7Y-75.5
X169.7Y-77.0
X169.7Y-78.5
X169.7Y-80.0
X169.7Y-81.5
X169.7Y-97.0
X169.7Y-98.5
X169.7Y-100.0
X169.7Y-101.5
X169.7Y-103.0
X169.7Y-104.5
X169.7Y-106.0
X169.7Y-107.5
X169.7Y-109.0
X169.7Y-110.5
X169.7Y-112.0
X169.7Y-113.5
X169.7Y-115.0
X169.7Y-116.5
X169.7Y-118.0
X169.7Y-119.5
X169.7Y-121.0
X169.7Y-122.5
X169.7Y-124.0
X169.7Y-125.5
X169.7Y-127.0
X169.74Y-83.0
X169.74Y-84.5
X169.74Y-86.0
X169.74Y-87.5
X169.74Y-89.0
X169.74Y-90.5
X169.74Y-92.0
X171.2Y-52.6
X171.2Y-54.0
X171.2Y-55.5
X171.2Y-57.0
X171.2Y-58.5
X171.2Y-60.0
X171.2Y-61.5
X171.2Y-71.0
X171.2Y-72.5
X171.2Y-74.0
X171.2Y-75.5
X171.2Y-77.0
X171.2Y-78.5
X171.2Y-80.0
X171.2Y-81.5
X171.2Y-97.0
X171.2Y-98.5
X171.2Y-100.0
X171.2Y-101.5
X171.2Y-103.0
X171.2Y-104.5
X171.2Y-106.0
X171.2Y-107.5
X171.2Y-109.0
X171.2Y-110.5
X171.2Y-112.0
X171.2Y-113.5
X171.2Y-115.0
X171.2Y-116.5
X171.2Y-118.0
X171.2Y-119.5
X171.2Y-121.0
X171.2Y-122.5
X171.2Y-124.0
X171.2Y-125.5
X171.2Y-127.0
X171.24Y-83.0
X171.24Y-84.5
X171.24Y-86.0
X171.24Y-87.5
X171.24Y-89.0
X171.24Y-90.5
X171.24Y-92.0
T2
X129.0Y-85.941
X132.3Y-91.1
T3
X99.102Y-109.977
X100.97Y-67.343
X124.97Y-67.343
X125.102Y-109.977
X149.102Y-109.977
X150.97Y-67.343
M30
