G04 #@! TF.GenerationSoftware,KiCad,Pcbnew,8.0.2*
G04 #@! TF.CreationDate,2024-08-20T08:17:01+02:00*
G04 #@! TF.ProjectId,STS1_SIDEPANEL,53545331-5f53-4494-9445-50414e454c2e,rev?*
G04 #@! TF.SameCoordinates,Original*
G04 #@! TF.FileFunction,Copper,L2,Inr*
G04 #@! TF.FilePolarity,Positive*
%FSLAX46Y46*%
G04 Gerber Fmt 4.6, Leading zero omitted, Abs format (unit mm)*
G04 Created by KiCad (PCBNEW 8.0.2) date 2024-08-20 08:17:01*
%MOMM*%
%LPD*%
G01*
G04 APERTURE LIST*
G04 #@! TA.AperFunction,FiducialPad,Local*
%ADD10C,6.000000*%
G04 #@! TD*
G04 #@! TA.AperFunction,FiducialPad,Global*
%ADD11C,6.000000*%
G04 #@! TD*
G04 #@! TA.AperFunction,ViaPad*
%ADD12C,0.600000*%
G04 #@! TD*
G04 #@! TA.AperFunction,ViaPad*
%ADD13C,0.800000*%
G04 #@! TD*
G04 APERTURE END LIST*
D10*
X149101600Y-109977400D03*
D11*
X125101600Y-109977400D03*
X99101600Y-109977400D03*
D10*
X100969800Y-67343000D03*
D11*
X124969800Y-67343000D03*
X150969800Y-67343000D03*
D12*
X128960000Y-136400000D03*
X168200000Y-75500000D03*
X99800000Y-41470000D03*
X118500000Y-133400000D03*
X78820000Y-106910000D03*
X101300000Y-42970000D03*
X78780000Y-113060000D03*
X127460000Y-134900000D03*
X78800000Y-73520000D03*
X78820000Y-103910000D03*
X81780000Y-117560000D03*
X148800000Y-137900000D03*
X168200000Y-57000000D03*
X101000000Y-137900000D03*
X171240000Y-92000000D03*
X168200000Y-77000000D03*
X80320000Y-106910000D03*
X134960000Y-134900000D03*
X171200000Y-55500000D03*
X134540000Y-41460000D03*
X78810000Y-119140000D03*
X130460000Y-136400000D03*
X171200000Y-71000000D03*
X87840000Y-42970000D03*
X125900000Y-136400000D03*
X133040000Y-41460000D03*
X102500000Y-133400000D03*
X151800000Y-137900000D03*
X93900000Y-41470000D03*
X151780000Y-41840000D03*
X121080000Y-41460000D03*
X133460000Y-133400000D03*
X169700000Y-75500000D03*
X78820000Y-99410000D03*
X81830000Y-62620000D03*
X168200000Y-121000000D03*
X147280000Y-41840000D03*
X171200000Y-98500000D03*
X168200000Y-104500000D03*
X80350000Y-56160000D03*
X81820000Y-105410000D03*
X124500000Y-134900000D03*
X169700000Y-58500000D03*
X78830000Y-68620000D03*
X168200000Y-61500000D03*
X151780000Y-43340000D03*
X89400000Y-41470000D03*
X78850000Y-54660000D03*
X130460000Y-137900000D03*
X81820000Y-100910000D03*
X168200000Y-124000000D03*
X81830000Y-67120000D03*
X90900000Y-41470000D03*
X127040000Y-41460000D03*
X90900000Y-42970000D03*
X80350000Y-59160000D03*
X134960000Y-137900000D03*
X130460000Y-133400000D03*
X80280000Y-111560000D03*
X81830000Y-65620000D03*
X169700000Y-113500000D03*
X168200000Y-125500000D03*
X168240000Y-90500000D03*
X171200000Y-113500000D03*
X81820000Y-93020000D03*
X81780000Y-116060000D03*
X78820000Y-87120000D03*
X123000000Y-133400000D03*
X86440000Y-41470000D03*
X147240000Y-136400000D03*
X80330000Y-61220000D03*
X98000000Y-136400000D03*
X169700000Y-125500000D03*
X117000000Y-136400000D03*
X81830000Y-70120000D03*
X150300000Y-133400000D03*
X169700000Y-119500000D03*
X78800000Y-79520000D03*
X171200000Y-101500000D03*
X120000000Y-137900000D03*
X119580000Y-41460000D03*
X78850000Y-53160000D03*
X124500000Y-137900000D03*
X133460000Y-136400000D03*
X81780000Y-110060000D03*
X93900000Y-42970000D03*
X169700000Y-100000000D03*
X80280000Y-117560000D03*
X81780000Y-108660000D03*
X115080000Y-42960000D03*
X78810000Y-125040000D03*
X171200000Y-81500000D03*
X150300000Y-136400000D03*
X128540000Y-42960000D03*
X131960000Y-137900000D03*
X168200000Y-80000000D03*
X171240000Y-86000000D03*
X151800000Y-134900000D03*
X169700000Y-81500000D03*
X159200000Y-137900000D03*
X81810000Y-128040000D03*
X118080000Y-41460000D03*
X159200000Y-134900000D03*
X168200000Y-118000000D03*
X169740000Y-92000000D03*
X171200000Y-124000000D03*
X98000000Y-133400000D03*
X92400000Y-41470000D03*
X148800000Y-134900000D03*
X169700000Y-124000000D03*
X168200000Y-103000000D03*
X171200000Y-72500000D03*
X157700000Y-137900000D03*
X130460000Y-134900000D03*
X81820000Y-88520000D03*
X78850000Y-56160000D03*
X80320000Y-103910000D03*
X80330000Y-65620000D03*
X81780000Y-114560000D03*
X133460000Y-134900000D03*
X169700000Y-60000000D03*
X98000000Y-137900000D03*
X150280000Y-43340000D03*
X78780000Y-116060000D03*
X102800000Y-42970000D03*
X80330000Y-68620000D03*
X122580000Y-42960000D03*
X127040000Y-42960000D03*
X118500000Y-137900000D03*
X101000000Y-136400000D03*
X80320000Y-87120000D03*
X102800000Y-41470000D03*
X81800000Y-72120000D03*
X169700000Y-118000000D03*
X78820000Y-88520000D03*
X78820000Y-98010000D03*
X171200000Y-57000000D03*
X169740000Y-90500000D03*
X115080000Y-41460000D03*
X78820000Y-100910000D03*
X169700000Y-115000000D03*
X128960000Y-137900000D03*
X80300000Y-75020000D03*
X81820000Y-90020000D03*
X168200000Y-115000000D03*
X80310000Y-122040000D03*
X171200000Y-122500000D03*
X78820000Y-105410000D03*
X81820000Y-87120000D03*
X160700000Y-133400000D03*
X123000000Y-134900000D03*
X80350000Y-53160000D03*
X127460000Y-136400000D03*
X171200000Y-127000000D03*
X131960000Y-133400000D03*
X96500000Y-133400000D03*
X81820000Y-91520000D03*
X116580000Y-41460000D03*
X81800000Y-78020000D03*
X81830000Y-64120000D03*
X117000000Y-134900000D03*
X78780000Y-110060000D03*
X125900000Y-133400000D03*
X125540000Y-41460000D03*
X81810000Y-125040000D03*
X81780000Y-113060000D03*
X98300000Y-41470000D03*
X81820000Y-94520000D03*
X78850000Y-50260000D03*
X147240000Y-137900000D03*
X78820000Y-93020000D03*
X99500000Y-136400000D03*
X80320000Y-99410000D03*
X98300000Y-42970000D03*
X118080000Y-42960000D03*
X80320000Y-105410000D03*
X171200000Y-125500000D03*
X171240000Y-90500000D03*
X160700000Y-137900000D03*
X150300000Y-134900000D03*
X169740000Y-89000000D03*
X80300000Y-72120000D03*
X160700000Y-134900000D03*
X171240000Y-87500000D03*
X159200000Y-136400000D03*
X154800000Y-136400000D03*
X148800000Y-136400000D03*
X81850000Y-54660000D03*
X80310000Y-119140000D03*
X124140000Y-42960000D03*
X169700000Y-71000000D03*
X154800000Y-137900000D03*
X80330000Y-62620000D03*
X99500000Y-133400000D03*
X80300000Y-79520000D03*
X171200000Y-61500000D03*
X134540000Y-42960000D03*
X102500000Y-136400000D03*
X162200000Y-133400000D03*
X169700000Y-77000000D03*
X81820000Y-96020000D03*
X80310000Y-128040000D03*
X124500000Y-136400000D03*
X156300000Y-133400000D03*
X99800000Y-42970000D03*
X121500000Y-134900000D03*
X125900000Y-134900000D03*
X169700000Y-116500000D03*
X78810000Y-120540000D03*
X163600000Y-136400000D03*
X99500000Y-134900000D03*
X81850000Y-50260000D03*
X128540000Y-41460000D03*
X171200000Y-52600000D03*
X169740000Y-86000000D03*
X80300000Y-76520000D03*
X81850000Y-59160000D03*
X168200000Y-100000000D03*
X80280000Y-114560000D03*
X171200000Y-115000000D03*
X78820000Y-102410000D03*
X125900000Y-137900000D03*
X171200000Y-121000000D03*
X117000000Y-137900000D03*
X81800000Y-75020000D03*
X147240000Y-134900000D03*
X153300000Y-134900000D03*
X157700000Y-133400000D03*
X80280000Y-113060000D03*
X150300000Y-137900000D03*
X87840000Y-41470000D03*
X171200000Y-77000000D03*
X78810000Y-126540000D03*
X169740000Y-84500000D03*
X147240000Y-133400000D03*
X80320000Y-94520000D03*
X98000000Y-134900000D03*
X169700000Y-97000000D03*
X80300000Y-78020000D03*
X171240000Y-84500000D03*
X115230000Y-137900000D03*
X168240000Y-84500000D03*
X101300000Y-41470000D03*
X80300000Y-73520000D03*
X96500000Y-137900000D03*
X151800000Y-133400000D03*
X168200000Y-71000000D03*
X168200000Y-81500000D03*
X78780000Y-108660000D03*
X95400000Y-42970000D03*
X168200000Y-97000000D03*
X81810000Y-126540000D03*
X168200000Y-54000000D03*
X78830000Y-70120000D03*
X168200000Y-74000000D03*
X117000000Y-133400000D03*
X168200000Y-107500000D03*
X171200000Y-109000000D03*
X169700000Y-98500000D03*
X157700000Y-134900000D03*
X156300000Y-136400000D03*
X169700000Y-61500000D03*
X154800000Y-134900000D03*
X171200000Y-119500000D03*
X81850000Y-56160000D03*
X171200000Y-75500000D03*
X121500000Y-133400000D03*
X81850000Y-51660000D03*
X171200000Y-112000000D03*
X81850000Y-57660000D03*
X81810000Y-119140000D03*
X171240000Y-83000000D03*
X80280000Y-108660000D03*
X80350000Y-50260000D03*
X171200000Y-106000000D03*
X96900000Y-41470000D03*
X127460000Y-133400000D03*
X148780000Y-43340000D03*
X78830000Y-61220000D03*
X89400000Y-42970000D03*
X169700000Y-57000000D03*
X171200000Y-118000000D03*
X81820000Y-102410000D03*
X80320000Y-96020000D03*
X80310000Y-123540000D03*
X81800000Y-81020000D03*
X121080000Y-42960000D03*
X119580000Y-42960000D03*
X153300000Y-133400000D03*
X81800000Y-79520000D03*
X78820000Y-94520000D03*
X81830000Y-61220000D03*
X168200000Y-110500000D03*
X168240000Y-86000000D03*
X171200000Y-58500000D03*
X99500000Y-137900000D03*
X80280000Y-110060000D03*
X78810000Y-123540000D03*
X168200000Y-106000000D03*
X121500000Y-136400000D03*
X114000000Y-133400000D03*
X171200000Y-104500000D03*
X81810000Y-123540000D03*
X80310000Y-125040000D03*
X169700000Y-80000000D03*
X171200000Y-54000000D03*
X80350000Y-54660000D03*
X153280000Y-41840000D03*
X121500000Y-137900000D03*
X169700000Y-110500000D03*
X169700000Y-103000000D03*
X81810000Y-120540000D03*
X150280000Y-41840000D03*
X168200000Y-119500000D03*
X160700000Y-136400000D03*
X156300000Y-134900000D03*
X171200000Y-100000000D03*
X81810000Y-122040000D03*
X80330000Y-70120000D03*
X169700000Y-121000000D03*
X80300000Y-81020000D03*
X120000000Y-133400000D03*
X122580000Y-41460000D03*
X78800000Y-76520000D03*
X131960000Y-134900000D03*
X124140000Y-41460000D03*
X154800000Y-133400000D03*
X127460000Y-137900000D03*
X169700000Y-112000000D03*
X163600000Y-137900000D03*
X169700000Y-101500000D03*
X115500000Y-133400000D03*
X128960000Y-134900000D03*
X133040000Y-42960000D03*
X171200000Y-107500000D03*
X168240000Y-92000000D03*
X81850000Y-53160000D03*
X162200000Y-134900000D03*
X168240000Y-89000000D03*
X169700000Y-104500000D03*
X116580000Y-42960000D03*
X169700000Y-109000000D03*
X81780000Y-111560000D03*
X78810000Y-128040000D03*
X169700000Y-122500000D03*
X168200000Y-98500000D03*
X78820000Y-91520000D03*
X102500000Y-134900000D03*
X78800000Y-72120000D03*
X123000000Y-136400000D03*
X128960000Y-133400000D03*
X115500000Y-136400000D03*
X168200000Y-127000000D03*
X169740000Y-87500000D03*
X96500000Y-136400000D03*
X168200000Y-101500000D03*
X81820000Y-98010000D03*
X168200000Y-112000000D03*
X78810000Y-122040000D03*
X115500000Y-134900000D03*
X168200000Y-122500000D03*
X169700000Y-107500000D03*
X80320000Y-98010000D03*
X156300000Y-137900000D03*
X125540000Y-42960000D03*
X153280000Y-43340000D03*
X81820000Y-106910000D03*
X168200000Y-109000000D03*
X78780000Y-111560000D03*
X171240000Y-89000000D03*
X169700000Y-78500000D03*
X163600000Y-133400000D03*
X168200000Y-116500000D03*
X78830000Y-67120000D03*
X92400000Y-42970000D03*
X147280000Y-43340000D03*
X153300000Y-137900000D03*
X96500000Y-134900000D03*
X81800000Y-73520000D03*
X80320000Y-88520000D03*
X78850000Y-59160000D03*
X80320000Y-100910000D03*
X80320000Y-91520000D03*
X80310000Y-120540000D03*
X162200000Y-136400000D03*
X148780000Y-41840000D03*
X171200000Y-110500000D03*
X171200000Y-97000000D03*
X171200000Y-74000000D03*
X171200000Y-60000000D03*
X157700000Y-136400000D03*
X168200000Y-52600000D03*
X168200000Y-60000000D03*
X169700000Y-127000000D03*
X171200000Y-103000000D03*
X168200000Y-113500000D03*
X134960000Y-133400000D03*
X80350000Y-57660000D03*
X81830000Y-68620000D03*
X124500000Y-133400000D03*
X171200000Y-78500000D03*
X80330000Y-64120000D03*
X81820000Y-103910000D03*
X81820000Y-99410000D03*
X169700000Y-52600000D03*
X162200000Y-137900000D03*
X80330000Y-67120000D03*
X169700000Y-54000000D03*
X168200000Y-78500000D03*
X101000000Y-134900000D03*
X159200000Y-133400000D03*
X168240000Y-87500000D03*
X78800000Y-75020000D03*
X80320000Y-102410000D03*
X80280000Y-116060000D03*
X78820000Y-96020000D03*
X86440000Y-42970000D03*
X169700000Y-72500000D03*
X168240000Y-83000000D03*
X78780000Y-117560000D03*
X78830000Y-64120000D03*
X78850000Y-57660000D03*
X151800000Y-136400000D03*
X133460000Y-137900000D03*
X78830000Y-65620000D03*
X78800000Y-78020000D03*
X168200000Y-55500000D03*
X153300000Y-136400000D03*
X123000000Y-137900000D03*
X95400000Y-41470000D03*
X96900000Y-42970000D03*
X134960000Y-136400000D03*
X171200000Y-80000000D03*
X168200000Y-58500000D03*
X169700000Y-55500000D03*
X80350000Y-51660000D03*
X78780000Y-114560000D03*
X101000000Y-133400000D03*
X80320000Y-90020000D03*
X80320000Y-93020000D03*
X102500000Y-137900000D03*
X78820000Y-90020000D03*
X169700000Y-74000000D03*
X78850000Y-51660000D03*
X171200000Y-116500000D03*
X163600000Y-134900000D03*
X168200000Y-72500000D03*
X169700000Y-106000000D03*
X78830000Y-62620000D03*
X169740000Y-83000000D03*
X81800000Y-76520000D03*
X78800000Y-81020000D03*
X80310000Y-126540000D03*
X148800000Y-133400000D03*
X131960000Y-136400000D03*
X109000000Y-99700000D03*
X92000000Y-101200000D03*
X110500000Y-99700000D03*
X128500000Y-101200000D03*
X104500000Y-96700000D03*
X103000000Y-101200000D03*
X113500000Y-101210000D03*
X124000000Y-98200000D03*
X104500000Y-99700000D03*
X155775000Y-84725000D03*
X110330000Y-86240000D03*
X115000000Y-99700000D03*
X92000000Y-99700000D03*
X119020000Y-73470000D03*
X157766000Y-92802000D03*
X94700000Y-71475000D03*
X122500000Y-96700000D03*
X93500000Y-96700000D03*
X120520000Y-74970000D03*
X105280000Y-80735000D03*
X109000000Y-101200000D03*
X112000000Y-99700000D03*
X99200000Y-72975000D03*
X151920000Y-102050000D03*
X104500000Y-101200000D03*
X97000000Y-99700000D03*
X119500000Y-98200000D03*
X148000000Y-98700000D03*
X136000000Y-103200000D03*
X115000000Y-98200000D03*
X162600000Y-96750000D03*
X122020000Y-74970000D03*
X99200000Y-74475000D03*
X97000000Y-101200000D03*
X107500000Y-99700000D03*
X139000000Y-98700000D03*
X100000000Y-98200000D03*
X119500000Y-99700000D03*
X87500000Y-96700000D03*
X131225000Y-72950000D03*
X143500000Y-103200000D03*
X121000000Y-98200000D03*
X139000000Y-101700000D03*
X106000000Y-96700000D03*
X109000000Y-96700000D03*
X111830000Y-87740000D03*
X154025000Y-107050000D03*
X112000000Y-96700000D03*
X145000000Y-103200000D03*
X89000000Y-99700000D03*
X148000000Y-100200000D03*
X110500000Y-96700000D03*
X142000000Y-103200000D03*
X164250000Y-96750000D03*
X153420000Y-100550000D03*
X96200000Y-72975000D03*
X109000000Y-98200000D03*
X95500000Y-101200000D03*
X125500000Y-101200000D03*
X132650000Y-83300000D03*
X95500000Y-98200000D03*
X125500000Y-96700000D03*
X103000000Y-98200000D03*
X127000000Y-98200000D03*
X101500000Y-99700000D03*
X116500000Y-98200000D03*
X137500000Y-101700000D03*
X153420000Y-102050000D03*
X111830000Y-84740000D03*
X153425000Y-103700000D03*
X143500000Y-100200000D03*
X119020000Y-71970000D03*
X159290000Y-94326000D03*
X118000000Y-101200000D03*
X114200000Y-77765000D03*
X124000000Y-99700000D03*
X115000000Y-96700000D03*
X128500000Y-96700000D03*
X97000000Y-96700000D03*
X110500000Y-98200000D03*
X106000000Y-101200000D03*
X113500000Y-98210000D03*
X95500000Y-99700000D03*
X86000000Y-96700000D03*
X96200000Y-71475000D03*
X111830000Y-86240000D03*
X100000000Y-101200000D03*
X114830000Y-86240000D03*
X131858000Y-72925000D03*
X122500000Y-101200000D03*
X106000000Y-99700000D03*
X121000000Y-96700000D03*
X127000000Y-99700000D03*
X115700000Y-76135000D03*
X164250000Y-95226000D03*
X123520000Y-71970000D03*
X106920000Y-80730000D03*
X113330000Y-87740000D03*
X134500000Y-98700000D03*
X114200000Y-76125000D03*
X93500000Y-101200000D03*
X118000000Y-96700000D03*
X119500000Y-101200000D03*
X130000000Y-98200000D03*
X146500000Y-100200000D03*
X119500000Y-96700000D03*
X107660000Y-76205000D03*
X148000000Y-101700000D03*
X115700000Y-77775000D03*
X125500000Y-98200000D03*
X130000000Y-96700000D03*
X140500000Y-103200000D03*
X121000000Y-99700000D03*
X90500000Y-98200000D03*
X90500000Y-96700000D03*
X101500000Y-101200000D03*
X87500000Y-99700000D03*
X142000000Y-100200000D03*
X137500000Y-100200000D03*
X110330000Y-87740000D03*
X94700000Y-72975000D03*
X122500000Y-99700000D03*
X99200000Y-71475000D03*
X107500000Y-101200000D03*
X107500000Y-98200000D03*
X100000000Y-96700000D03*
X142000000Y-101700000D03*
X120520000Y-73470000D03*
X146500000Y-103200000D03*
X122020000Y-73470000D03*
X97700000Y-72975000D03*
X122500000Y-98200000D03*
X130575000Y-72950000D03*
X94700000Y-74475000D03*
X136000000Y-101700000D03*
X140500000Y-98700000D03*
X136000000Y-100200000D03*
X130000000Y-101200000D03*
X116500000Y-101200000D03*
X145000000Y-98700000D03*
X110330000Y-84740000D03*
X102394000Y-84166000D03*
X161076000Y-96750000D03*
X131150000Y-83300000D03*
X112000000Y-98200000D03*
X142000000Y-98700000D03*
X101500000Y-96700000D03*
X107500000Y-96700000D03*
X113500000Y-99710000D03*
X98500000Y-98200000D03*
X134500000Y-101700000D03*
X90500000Y-101200000D03*
X116500000Y-96700000D03*
X157766000Y-94326000D03*
X115000000Y-101200000D03*
X103000000Y-96700000D03*
X95500000Y-96700000D03*
X137500000Y-103200000D03*
X86000000Y-98200000D03*
X112000000Y-101200000D03*
X106150000Y-77815000D03*
X139000000Y-100200000D03*
X86000000Y-101200000D03*
X113330000Y-84740000D03*
X128500000Y-98200000D03*
X100000000Y-99700000D03*
X146500000Y-98700000D03*
X124000000Y-101200000D03*
X125500000Y-99700000D03*
X140500000Y-100200000D03*
X124000000Y-96700000D03*
X104500000Y-98200000D03*
X90500000Y-99700000D03*
X97700000Y-71475000D03*
X103000000Y-99700000D03*
X105750000Y-83025000D03*
X105890000Y-79360000D03*
X140500000Y-101700000D03*
X127000000Y-96700000D03*
X114830000Y-87740000D03*
X86000000Y-99700000D03*
X113500000Y-96710000D03*
X106000000Y-98200000D03*
X136000000Y-98700000D03*
X120520000Y-71970000D03*
X93500000Y-98200000D03*
X118000000Y-98200000D03*
X118000000Y-99700000D03*
X110500000Y-101200000D03*
X130000000Y-99700000D03*
X92000000Y-98200000D03*
X127000000Y-101200000D03*
X97700000Y-74475000D03*
X93500000Y-99700000D03*
X137500000Y-98700000D03*
X89000000Y-101200000D03*
X134500000Y-100200000D03*
X98500000Y-101200000D03*
X119020000Y-74970000D03*
X122020000Y-71970000D03*
X98500000Y-96700000D03*
X154025000Y-109075000D03*
X121000000Y-101200000D03*
X139000000Y-103200000D03*
X143500000Y-101700000D03*
X145000000Y-101700000D03*
X116500000Y-99700000D03*
X128500000Y-99700000D03*
X97000000Y-98200000D03*
X89000000Y-98200000D03*
X87500000Y-98200000D03*
X123520000Y-74970000D03*
X113330000Y-86240000D03*
X101500000Y-98200000D03*
X123520000Y-73470000D03*
X87500000Y-101200000D03*
X106920000Y-79380000D03*
X114830000Y-84740000D03*
X153425000Y-105200000D03*
X96200000Y-74475000D03*
X155734000Y-85710000D03*
X161068000Y-97882000D03*
X159290000Y-92802000D03*
X98500000Y-99700000D03*
X156550000Y-84720000D03*
X89000000Y-96700000D03*
X92000000Y-96700000D03*
X129650000Y-83300000D03*
X134500000Y-103200000D03*
D13*
X129000000Y-85940958D03*
X132300000Y-91100000D03*
G04 #@! TA.AperFunction,Conductor*
G36*
X165304427Y-40510905D02*
G01*
X165462991Y-40525287D01*
X165479900Y-40528317D01*
X165629599Y-40568812D01*
X165645725Y-40574718D01*
X165764818Y-40630483D01*
X165786171Y-40640482D01*
X165801038Y-40649089D01*
X165927999Y-40738139D01*
X165941154Y-40749186D01*
X166050813Y-40858845D01*
X166061860Y-40872000D01*
X166150910Y-40998961D01*
X166159517Y-41013828D01*
X166225280Y-41154272D01*
X166231187Y-41170402D01*
X166271682Y-41320099D01*
X166274712Y-41337008D01*
X166289095Y-41495572D01*
X166289500Y-41504515D01*
X166289500Y-46662186D01*
X166270593Y-46720377D01*
X166268404Y-46723275D01*
X166231205Y-46770713D01*
X166231197Y-46770724D01*
X166139792Y-46944363D01*
X166139789Y-46944371D01*
X166081216Y-47131643D01*
X166081215Y-47131650D01*
X166081215Y-47131651D01*
X166057391Y-47326433D01*
X166069102Y-47522316D01*
X166069103Y-47522320D01*
X166115963Y-47712867D01*
X166115963Y-47712868D01*
X166196437Y-47891844D01*
X166196440Y-47891849D01*
X166307878Y-48053355D01*
X166307879Y-48053356D01*
X166307882Y-48053360D01*
X166446640Y-48192118D01*
X166446643Y-48192120D01*
X166446644Y-48192121D01*
X166576447Y-48281684D01*
X166608156Y-48303563D01*
X166787129Y-48384036D01*
X166977684Y-48430898D01*
X167173567Y-48442609D01*
X167368349Y-48418785D01*
X167368355Y-48418783D01*
X167368356Y-48418783D01*
X167523736Y-48370185D01*
X167555635Y-48360208D01*
X167729278Y-48268801D01*
X167776723Y-48231596D01*
X167834181Y-48210567D01*
X167837813Y-48210500D01*
X172995484Y-48210500D01*
X173004427Y-48210905D01*
X173162991Y-48225287D01*
X173179900Y-48228317D01*
X173188458Y-48230632D01*
X173329599Y-48268812D01*
X173345725Y-48274718D01*
X173391183Y-48296004D01*
X173486171Y-48340482D01*
X173501038Y-48349089D01*
X173627999Y-48438139D01*
X173641154Y-48449186D01*
X173750813Y-48558845D01*
X173761860Y-48572000D01*
X173850910Y-48698961D01*
X173859517Y-48713828D01*
X173925280Y-48854272D01*
X173931187Y-48870402D01*
X173971682Y-49020099D01*
X173974712Y-49037008D01*
X173989095Y-49195572D01*
X173989500Y-49204515D01*
X173989500Y-129795484D01*
X173989095Y-129804427D01*
X173974712Y-129962991D01*
X173971682Y-129979900D01*
X173931187Y-130129597D01*
X173925280Y-130145727D01*
X173859517Y-130286171D01*
X173850910Y-130301038D01*
X173761860Y-130427999D01*
X173750813Y-130441154D01*
X173641154Y-130550813D01*
X173627999Y-130561860D01*
X173501038Y-130650910D01*
X173486171Y-130659517D01*
X173345727Y-130725280D01*
X173329597Y-130731187D01*
X173179900Y-130771682D01*
X173162991Y-130774712D01*
X173004427Y-130789095D01*
X172995484Y-130789500D01*
X167837813Y-130789500D01*
X167779622Y-130770593D01*
X167776723Y-130768404D01*
X167764768Y-130759029D01*
X167729278Y-130731199D01*
X167729276Y-130731198D01*
X167729275Y-130731197D01*
X167555636Y-130639792D01*
X167555628Y-130639789D01*
X167368356Y-130581216D01*
X167368349Y-130581215D01*
X167173567Y-130557391D01*
X167173565Y-130557391D01*
X167145023Y-130559097D01*
X166977684Y-130569102D01*
X166977680Y-130569102D01*
X166977679Y-130569103D01*
X166787132Y-130615963D01*
X166787131Y-130615963D01*
X166608155Y-130696437D01*
X166608150Y-130696440D01*
X166446644Y-130807878D01*
X166307878Y-130946644D01*
X166196440Y-131108150D01*
X166196437Y-131108155D01*
X166115963Y-131287131D01*
X166115963Y-131287132D01*
X166069102Y-131477684D01*
X166063172Y-131576873D01*
X166057391Y-131673565D01*
X166081216Y-131868356D01*
X166139789Y-132055628D01*
X166139792Y-132055636D01*
X166231197Y-132229275D01*
X166231201Y-132229282D01*
X166268403Y-132276721D01*
X166289433Y-132334179D01*
X166289500Y-132337812D01*
X166289500Y-137495484D01*
X166289095Y-137504427D01*
X166274712Y-137662991D01*
X166271682Y-137679900D01*
X166231187Y-137829597D01*
X166225280Y-137845727D01*
X166159517Y-137986171D01*
X166150910Y-138001038D01*
X166061860Y-138127999D01*
X166050813Y-138141154D01*
X165941154Y-138250813D01*
X165927999Y-138261860D01*
X165801038Y-138350910D01*
X165786171Y-138359517D01*
X165645727Y-138425280D01*
X165629597Y-138431187D01*
X165479900Y-138471682D01*
X165462991Y-138474712D01*
X165304427Y-138489095D01*
X165295484Y-138489500D01*
X84704516Y-138489500D01*
X84695573Y-138489095D01*
X84537008Y-138474712D01*
X84520099Y-138471682D01*
X84370402Y-138431187D01*
X84354272Y-138425280D01*
X84213828Y-138359517D01*
X84198961Y-138350910D01*
X84072000Y-138261860D01*
X84058845Y-138250813D01*
X83949186Y-138141154D01*
X83938139Y-138127999D01*
X83849089Y-138001038D01*
X83840482Y-137986171D01*
X83774719Y-137845727D01*
X83768812Y-137829597D01*
X83750586Y-137762223D01*
X83728317Y-137679900D01*
X83725287Y-137662991D01*
X83718517Y-137588356D01*
X83710905Y-137504427D01*
X83710500Y-137495484D01*
X83710500Y-135599996D01*
X118184876Y-135599996D01*
X118184876Y-135600003D01*
X118203334Y-135810996D01*
X118203335Y-135811003D01*
X118203336Y-135811004D01*
X118258157Y-136015597D01*
X118347672Y-136207562D01*
X118469161Y-136381067D01*
X118618933Y-136530839D01*
X118792438Y-136652328D01*
X118984403Y-136741843D01*
X119188996Y-136796664D01*
X119189000Y-136796664D01*
X119189003Y-136796665D01*
X119399997Y-136815124D01*
X119400000Y-136815124D01*
X119400003Y-136815124D01*
X119610996Y-136796665D01*
X119610997Y-136796664D01*
X119611004Y-136796664D01*
X119815597Y-136741843D01*
X120007562Y-136652328D01*
X120181067Y-136530839D01*
X120330839Y-136381067D01*
X120452328Y-136207562D01*
X120541843Y-136015597D01*
X120596664Y-135811004D01*
X120615124Y-135600000D01*
X120596664Y-135388996D01*
X120541843Y-135184403D01*
X120452328Y-134992438D01*
X120330839Y-134818933D01*
X120181067Y-134669161D01*
X120181063Y-134669158D01*
X120181062Y-134669157D01*
X120084803Y-134601756D01*
X120007562Y-134547672D01*
X119815597Y-134458157D01*
X119611004Y-134403336D01*
X119611003Y-134403335D01*
X119610996Y-134403334D01*
X119400003Y-134384876D01*
X119399997Y-134384876D01*
X119189003Y-134403334D01*
X119124153Y-134420710D01*
X118984403Y-134458157D01*
X118894889Y-134499898D01*
X118792439Y-134547671D01*
X118618937Y-134669157D01*
X118469157Y-134818937D01*
X118347671Y-134992439D01*
X118258157Y-135184404D01*
X118203334Y-135389003D01*
X118184876Y-135599996D01*
X83710500Y-135599996D01*
X83710500Y-132337812D01*
X83729407Y-132279621D01*
X83731597Y-132276721D01*
X83768798Y-132229282D01*
X83768798Y-132229281D01*
X83768801Y-132229278D01*
X83860208Y-132055635D01*
X83918785Y-131868349D01*
X83942609Y-131673567D01*
X83930898Y-131477684D01*
X83884036Y-131287129D01*
X83803563Y-131108156D01*
X83692118Y-130946640D01*
X83553360Y-130807882D01*
X83553356Y-130807879D01*
X83553355Y-130807878D01*
X83391849Y-130696440D01*
X83391844Y-130696437D01*
X83290591Y-130650910D01*
X83212871Y-130615964D01*
X83212869Y-130615963D01*
X83212868Y-130615963D01*
X83022320Y-130569103D01*
X83022316Y-130569102D01*
X82840704Y-130558244D01*
X82826434Y-130557391D01*
X82826433Y-130557391D01*
X82631651Y-130581215D01*
X82631643Y-130581216D01*
X82444371Y-130639789D01*
X82444363Y-130639792D01*
X82270724Y-130731197D01*
X82270719Y-130731201D01*
X82223277Y-130768404D01*
X82165819Y-130789433D01*
X82162187Y-130789500D01*
X77004516Y-130789500D01*
X76995573Y-130789095D01*
X76837008Y-130774712D01*
X76820099Y-130771682D01*
X76670402Y-130731187D01*
X76654272Y-130725280D01*
X76513828Y-130659517D01*
X76498961Y-130650910D01*
X76372000Y-130561860D01*
X76358845Y-130550813D01*
X76249186Y-130441154D01*
X76238139Y-130427999D01*
X76149089Y-130301038D01*
X76140482Y-130286171D01*
X76074719Y-130145727D01*
X76068812Y-130129597D01*
X76050586Y-130062223D01*
X76028317Y-129979900D01*
X76025287Y-129962991D01*
X76018517Y-129888356D01*
X76010905Y-129804427D01*
X76010500Y-129795484D01*
X76010500Y-109977395D01*
X95896057Y-109977395D01*
X95896057Y-109977404D01*
X95916211Y-110336297D01*
X95916214Y-110336317D01*
X95976424Y-110690687D01*
X95976428Y-110690707D01*
X96075940Y-111036123D01*
X96213507Y-111368237D01*
X96387387Y-111682849D01*
X96387389Y-111682852D01*
X96595406Y-111976023D01*
X96834939Y-112244061D01*
X97102977Y-112483594D01*
X97396148Y-112691611D01*
X97396150Y-112691612D01*
X97710763Y-112865492D01*
X97710762Y-112865492D01*
X98042876Y-113003059D01*
X98388292Y-113102571D01*
X98388295Y-113102571D01*
X98388300Y-113102573D01*
X98742693Y-113162787D01*
X98742696Y-113162787D01*
X98742702Y-113162788D01*
X99101595Y-113182943D01*
X99101600Y-113182943D01*
X99101605Y-113182943D01*
X99460497Y-113162788D01*
X99460501Y-113162787D01*
X99460507Y-113162787D01*
X99814900Y-113102573D01*
X100160324Y-113003059D01*
X100492433Y-112865494D01*
X100807052Y-112691611D01*
X101100223Y-112483594D01*
X101368261Y-112244061D01*
X101607794Y-111976023D01*
X101815811Y-111682852D01*
X101989694Y-111368233D01*
X102127259Y-111036124D01*
X102226773Y-110690700D01*
X102286987Y-110336307D01*
X102307143Y-109977400D01*
X102307143Y-109977395D01*
X121896057Y-109977395D01*
X121896057Y-109977404D01*
X121916211Y-110336297D01*
X121916214Y-110336317D01*
X121976424Y-110690687D01*
X121976428Y-110690707D01*
X122075940Y-111036123D01*
X122213507Y-111368237D01*
X122387387Y-111682849D01*
X122387389Y-111682852D01*
X122595406Y-111976023D01*
X122834939Y-112244061D01*
X123102977Y-112483594D01*
X123396148Y-112691611D01*
X123396150Y-112691612D01*
X123710763Y-112865492D01*
X123710762Y-112865492D01*
X124042876Y-113003059D01*
X124388292Y-113102571D01*
X124388295Y-113102571D01*
X124388300Y-113102573D01*
X124742693Y-113162787D01*
X124742696Y-113162787D01*
X124742702Y-113162788D01*
X125101595Y-113182943D01*
X125101600Y-113182943D01*
X125101605Y-113182943D01*
X125460497Y-113162788D01*
X125460501Y-113162787D01*
X125460507Y-113162787D01*
X125814900Y-113102573D01*
X126160324Y-113003059D01*
X126492433Y-112865494D01*
X126807052Y-112691611D01*
X127100223Y-112483594D01*
X127368261Y-112244061D01*
X127607794Y-111976023D01*
X127815811Y-111682852D01*
X127989694Y-111368233D01*
X128127259Y-111036124D01*
X128226773Y-110690700D01*
X128286987Y-110336307D01*
X128307143Y-109977400D01*
X128307143Y-109977395D01*
X145896057Y-109977395D01*
X145896057Y-109977404D01*
X145916211Y-110336297D01*
X145916214Y-110336317D01*
X145976424Y-110690687D01*
X145976428Y-110690707D01*
X146075940Y-111036123D01*
X146213507Y-111368237D01*
X146387387Y-111682849D01*
X146387389Y-111682852D01*
X146595406Y-111976023D01*
X146834939Y-112244061D01*
X147102977Y-112483594D01*
X147396148Y-112691611D01*
X147396150Y-112691612D01*
X147710763Y-112865492D01*
X147710762Y-112865492D01*
X148042876Y-113003059D01*
X148388292Y-113102571D01*
X148388295Y-113102571D01*
X148388300Y-113102573D01*
X148742693Y-113162787D01*
X148742696Y-113162787D01*
X148742702Y-113162788D01*
X149101595Y-113182943D01*
X149101600Y-113182943D01*
X149101605Y-113182943D01*
X149460497Y-113162788D01*
X149460501Y-113162787D01*
X149460507Y-113162787D01*
X149814900Y-113102573D01*
X150160324Y-113003059D01*
X150492433Y-112865494D01*
X150807052Y-112691611D01*
X151100223Y-112483594D01*
X151368261Y-112244061D01*
X151607794Y-111976023D01*
X151815811Y-111682852D01*
X151989694Y-111368233D01*
X152127259Y-111036124D01*
X152226773Y-110690700D01*
X152286987Y-110336307D01*
X152307143Y-109977400D01*
X152286987Y-109618493D01*
X152226773Y-109264100D01*
X152127259Y-108918676D01*
X151989694Y-108586567D01*
X151989692Y-108586562D01*
X151815812Y-108271950D01*
X151607797Y-107978781D01*
X151607796Y-107978780D01*
X151607794Y-107978777D01*
X151368261Y-107710739D01*
X151100223Y-107471206D01*
X151100220Y-107471204D01*
X151100218Y-107471202D01*
X150807049Y-107263187D01*
X150492436Y-107089307D01*
X150492437Y-107089307D01*
X150160323Y-106951740D01*
X149814907Y-106852228D01*
X149814887Y-106852224D01*
X149460517Y-106792014D01*
X149460497Y-106792011D01*
X149101605Y-106771857D01*
X149101595Y-106771857D01*
X148742702Y-106792011D01*
X148742682Y-106792014D01*
X148388312Y-106852224D01*
X148388292Y-106852228D01*
X148042876Y-106951740D01*
X147710762Y-107089307D01*
X147396150Y-107263187D01*
X147102981Y-107471202D01*
X146834946Y-107710732D01*
X146834932Y-107710746D01*
X146595402Y-107978781D01*
X146387387Y-108271950D01*
X146213507Y-108586562D01*
X146075940Y-108918676D01*
X145976428Y-109264092D01*
X145976424Y-109264112D01*
X145916214Y-109618482D01*
X145916211Y-109618502D01*
X145896057Y-109977395D01*
X128307143Y-109977395D01*
X128286987Y-109618493D01*
X128226773Y-109264100D01*
X128127259Y-108918676D01*
X127989694Y-108586567D01*
X127989692Y-108586562D01*
X127815812Y-108271950D01*
X127607797Y-107978781D01*
X127607796Y-107978780D01*
X127607794Y-107978777D01*
X127368261Y-107710739D01*
X127100223Y-107471206D01*
X127100220Y-107471204D01*
X127100218Y-107471202D01*
X126807049Y-107263187D01*
X126492436Y-107089307D01*
X126492437Y-107089307D01*
X126160323Y-106951740D01*
X125814907Y-106852228D01*
X125814887Y-106852224D01*
X125460517Y-106792014D01*
X125460497Y-106792011D01*
X125101605Y-106771857D01*
X125101595Y-106771857D01*
X124742702Y-106792011D01*
X124742682Y-106792014D01*
X124388312Y-106852224D01*
X124388292Y-106852228D01*
X124042876Y-106951740D01*
X123710762Y-107089307D01*
X123396150Y-107263187D01*
X123102981Y-107471202D01*
X122834946Y-107710732D01*
X122834932Y-107710746D01*
X122595402Y-107978781D01*
X122387387Y-108271950D01*
X122213507Y-108586562D01*
X122075940Y-108918676D01*
X121976428Y-109264092D01*
X121976424Y-109264112D01*
X121916214Y-109618482D01*
X121916211Y-109618502D01*
X121896057Y-109977395D01*
X102307143Y-109977395D01*
X102286987Y-109618493D01*
X102226773Y-109264100D01*
X102127259Y-108918676D01*
X101989694Y-108586567D01*
X101989692Y-108586562D01*
X101815812Y-108271950D01*
X101607797Y-107978781D01*
X101607796Y-107978780D01*
X101607794Y-107978777D01*
X101368261Y-107710739D01*
X101100223Y-107471206D01*
X101100220Y-107471204D01*
X101100218Y-107471202D01*
X100807049Y-107263187D01*
X100492436Y-107089307D01*
X100492437Y-107089307D01*
X100160323Y-106951740D01*
X99814907Y-106852228D01*
X99814887Y-106852224D01*
X99460517Y-106792014D01*
X99460497Y-106792011D01*
X99101605Y-106771857D01*
X99101595Y-106771857D01*
X98742702Y-106792011D01*
X98742682Y-106792014D01*
X98388312Y-106852224D01*
X98388292Y-106852228D01*
X98042876Y-106951740D01*
X97710762Y-107089307D01*
X97396150Y-107263187D01*
X97102981Y-107471202D01*
X96834946Y-107710732D01*
X96834932Y-107710746D01*
X96595402Y-107978781D01*
X96387387Y-108271950D01*
X96213507Y-108586562D01*
X96075940Y-108918676D01*
X95976428Y-109264092D01*
X95976424Y-109264112D01*
X95916214Y-109618482D01*
X95916211Y-109618502D01*
X95896057Y-109977395D01*
X76010500Y-109977395D01*
X76010500Y-95099996D01*
X169884876Y-95099996D01*
X169884876Y-95100003D01*
X169903334Y-95310996D01*
X169903335Y-95311003D01*
X169903336Y-95311004D01*
X169958157Y-95515597D01*
X170047672Y-95707562D01*
X170169161Y-95881067D01*
X170318933Y-96030839D01*
X170492438Y-96152328D01*
X170684403Y-96241843D01*
X170888996Y-96296664D01*
X170889000Y-96296664D01*
X170889003Y-96296665D01*
X171099997Y-96315124D01*
X171100000Y-96315124D01*
X171100003Y-96315124D01*
X171310996Y-96296665D01*
X171310997Y-96296664D01*
X171311004Y-96296664D01*
X171515597Y-96241843D01*
X171707562Y-96152328D01*
X171881067Y-96030839D01*
X172030839Y-95881067D01*
X172152328Y-95707562D01*
X172241843Y-95515597D01*
X172296664Y-95311004D01*
X172315124Y-95100000D01*
X172296664Y-94888996D01*
X172241843Y-94684403D01*
X172152328Y-94492438D01*
X172030839Y-94318933D01*
X171881067Y-94169161D01*
X171881063Y-94169158D01*
X171881062Y-94169157D01*
X171784803Y-94101756D01*
X171707562Y-94047672D01*
X171515597Y-93958157D01*
X171311004Y-93903336D01*
X171311003Y-93903335D01*
X171310996Y-93903334D01*
X171100003Y-93884876D01*
X171099997Y-93884876D01*
X170889003Y-93903334D01*
X170824153Y-93920710D01*
X170684403Y-93958157D01*
X170594889Y-93999898D01*
X170492439Y-94047671D01*
X170318937Y-94169157D01*
X170169157Y-94318937D01*
X170047671Y-94492439D01*
X169958157Y-94684404D01*
X169903334Y-94889003D01*
X169884876Y-95099996D01*
X76010500Y-95099996D01*
X76010500Y-91099999D01*
X131694318Y-91099999D01*
X131694318Y-91100000D01*
X131714955Y-91256758D01*
X131714957Y-91256766D01*
X131775462Y-91402838D01*
X131775462Y-91402839D01*
X131775464Y-91402841D01*
X131871718Y-91528282D01*
X131997159Y-91624536D01*
X132143238Y-91685044D01*
X132260809Y-91700522D01*
X132299999Y-91705682D01*
X132300000Y-91705682D01*
X132300001Y-91705682D01*
X132331352Y-91701554D01*
X132456762Y-91685044D01*
X132602841Y-91624536D01*
X132728282Y-91528282D01*
X132824536Y-91402841D01*
X132885044Y-91256762D01*
X132905682Y-91100000D01*
X132885044Y-90943238D01*
X132824537Y-90797161D01*
X132824537Y-90797160D01*
X132728286Y-90671723D01*
X132728285Y-90671722D01*
X132728282Y-90671718D01*
X132728277Y-90671714D01*
X132728276Y-90671713D01*
X132602838Y-90575462D01*
X132456766Y-90514957D01*
X132456758Y-90514955D01*
X132300001Y-90494318D01*
X132299999Y-90494318D01*
X132143241Y-90514955D01*
X132143233Y-90514957D01*
X131997161Y-90575462D01*
X131997160Y-90575462D01*
X131871723Y-90671713D01*
X131871713Y-90671723D01*
X131775462Y-90797160D01*
X131775462Y-90797161D01*
X131714957Y-90943233D01*
X131714955Y-90943241D01*
X131694318Y-91099999D01*
X76010500Y-91099999D01*
X76010500Y-89499995D01*
X118277853Y-89499995D01*
X118277853Y-89500004D01*
X118295957Y-89660687D01*
X118295960Y-89660699D01*
X118349368Y-89813328D01*
X118349368Y-89813329D01*
X118385365Y-89870617D01*
X118435403Y-89950251D01*
X118549749Y-90064597D01*
X118549751Y-90064598D01*
X118549752Y-90064599D01*
X118589911Y-90089833D01*
X118686672Y-90150632D01*
X118706343Y-90157515D01*
X118839300Y-90204039D01*
X118839304Y-90204040D01*
X118839307Y-90204041D01*
X118839308Y-90204041D01*
X118839312Y-90204042D01*
X118999996Y-90222147D01*
X119000000Y-90222147D01*
X119000004Y-90222147D01*
X119160687Y-90204042D01*
X119160689Y-90204041D01*
X119160693Y-90204041D01*
X119313328Y-90150632D01*
X119450251Y-90064597D01*
X119450253Y-90064595D01*
X119475354Y-90039495D01*
X119529871Y-90011719D01*
X119545356Y-90010500D01*
X130454644Y-90010500D01*
X130512835Y-90029407D01*
X130524646Y-90039495D01*
X130549746Y-90064595D01*
X130549752Y-90064599D01*
X130589911Y-90089833D01*
X130686672Y-90150632D01*
X130706343Y-90157515D01*
X130839300Y-90204039D01*
X130839304Y-90204040D01*
X130839307Y-90204041D01*
X130839308Y-90204041D01*
X130839312Y-90204042D01*
X130999996Y-90222147D01*
X131000000Y-90222147D01*
X131000004Y-90222147D01*
X131160687Y-90204042D01*
X131160689Y-90204041D01*
X131160693Y-90204041D01*
X131313328Y-90150632D01*
X131450251Y-90064597D01*
X131564597Y-89950251D01*
X131650632Y-89813328D01*
X131704041Y-89660693D01*
X131722147Y-89500000D01*
X131722147Y-89499995D01*
X131704042Y-89339312D01*
X131704039Y-89339300D01*
X131679764Y-89269926D01*
X131650632Y-89186672D01*
X131564597Y-89049749D01*
X131450251Y-88935403D01*
X131450248Y-88935401D01*
X131450247Y-88935400D01*
X131313329Y-88849368D01*
X131160699Y-88795960D01*
X131160687Y-88795957D01*
X131000004Y-88777853D01*
X130999996Y-88777853D01*
X130839312Y-88795957D01*
X130839300Y-88795960D01*
X130686671Y-88849368D01*
X130686670Y-88849368D01*
X130549752Y-88935400D01*
X130549746Y-88935404D01*
X130524646Y-88960505D01*
X130470129Y-88988281D01*
X130454644Y-88989500D01*
X119545356Y-88989500D01*
X119487165Y-88970593D01*
X119475354Y-88960505D01*
X119450253Y-88935404D01*
X119450247Y-88935400D01*
X119313329Y-88849368D01*
X119160699Y-88795960D01*
X119160687Y-88795957D01*
X119000004Y-88777853D01*
X118999996Y-88777853D01*
X118839312Y-88795957D01*
X118839300Y-88795960D01*
X118686671Y-88849368D01*
X118686670Y-88849368D01*
X118549752Y-88935400D01*
X118435400Y-89049752D01*
X118349368Y-89186670D01*
X118349368Y-89186671D01*
X118295960Y-89339300D01*
X118295957Y-89339312D01*
X118277853Y-89499995D01*
X76010500Y-89499995D01*
X76010500Y-85940957D01*
X128394318Y-85940957D01*
X128394318Y-85940958D01*
X128414955Y-86097716D01*
X128414957Y-86097724D01*
X128475462Y-86243796D01*
X128475462Y-86243797D01*
X128475464Y-86243799D01*
X128571718Y-86369240D01*
X128697159Y-86465494D01*
X128843238Y-86526002D01*
X128960809Y-86541480D01*
X128999999Y-86546640D01*
X129000000Y-86546640D01*
X129000001Y-86546640D01*
X129031352Y-86542512D01*
X129156762Y-86526002D01*
X129302841Y-86465494D01*
X129428282Y-86369240D01*
X129524536Y-86243799D01*
X129585044Y-86097720D01*
X129605682Y-85940958D01*
X129585044Y-85784196D01*
X129524537Y-85638119D01*
X129524537Y-85638118D01*
X129428286Y-85512681D01*
X129428285Y-85512680D01*
X129428282Y-85512676D01*
X129428277Y-85512672D01*
X129428276Y-85512671D01*
X129302838Y-85416420D01*
X129156766Y-85355915D01*
X129156758Y-85355913D01*
X129000001Y-85335276D01*
X128999999Y-85335276D01*
X128843241Y-85355913D01*
X128843233Y-85355915D01*
X128697161Y-85416420D01*
X128697160Y-85416420D01*
X128571723Y-85512671D01*
X128571713Y-85512681D01*
X128475462Y-85638118D01*
X128475462Y-85638119D01*
X128414957Y-85784191D01*
X128414955Y-85784199D01*
X128394318Y-85940957D01*
X76010500Y-85940957D01*
X76010500Y-83899996D01*
X77684876Y-83899996D01*
X77684876Y-83900003D01*
X77703334Y-84110996D01*
X77703335Y-84111003D01*
X77703336Y-84111004D01*
X77758157Y-84315597D01*
X77847672Y-84507562D01*
X77969161Y-84681067D01*
X78118933Y-84830839D01*
X78292438Y-84952328D01*
X78484403Y-85041843D01*
X78688996Y-85096664D01*
X78689000Y-85096664D01*
X78689003Y-85096665D01*
X78899997Y-85115124D01*
X78900000Y-85115124D01*
X78900003Y-85115124D01*
X79110996Y-85096665D01*
X79110997Y-85096664D01*
X79111004Y-85096664D01*
X79315597Y-85041843D01*
X79507562Y-84952328D01*
X79681067Y-84830839D01*
X79830839Y-84681067D01*
X79952328Y-84507562D01*
X80041843Y-84315597D01*
X80096664Y-84111004D01*
X80115124Y-83900000D01*
X80096664Y-83688996D01*
X80041843Y-83484403D01*
X79952328Y-83292438D01*
X79830839Y-83118933D01*
X79681067Y-82969161D01*
X79681063Y-82969158D01*
X79681062Y-82969157D01*
X79584803Y-82901756D01*
X79507562Y-82847672D01*
X79315597Y-82758157D01*
X79111004Y-82703336D01*
X79111003Y-82703335D01*
X79110996Y-82703334D01*
X78900003Y-82684876D01*
X78899997Y-82684876D01*
X78689003Y-82703334D01*
X78624153Y-82720710D01*
X78484403Y-82758157D01*
X78394889Y-82799898D01*
X78292439Y-82847671D01*
X78118937Y-82969157D01*
X77969157Y-83118937D01*
X77847671Y-83292439D01*
X77758157Y-83484404D01*
X77703334Y-83689003D01*
X77684876Y-83899996D01*
X76010500Y-83899996D01*
X76010500Y-67342995D01*
X97764257Y-67342995D01*
X97764257Y-67343004D01*
X97784411Y-67701897D01*
X97784414Y-67701917D01*
X97844624Y-68056287D01*
X97844628Y-68056307D01*
X97944140Y-68401723D01*
X98081707Y-68733837D01*
X98255587Y-69048449D01*
X98255589Y-69048452D01*
X98463606Y-69341623D01*
X98703139Y-69609661D01*
X98971177Y-69849194D01*
X99264348Y-70057211D01*
X99264350Y-70057212D01*
X99578963Y-70231092D01*
X99578962Y-70231092D01*
X99911076Y-70368659D01*
X100256492Y-70468171D01*
X100256495Y-70468171D01*
X100256500Y-70468173D01*
X100610893Y-70528387D01*
X100610896Y-70528387D01*
X100610902Y-70528388D01*
X100969795Y-70548543D01*
X100969800Y-70548543D01*
X100969805Y-70548543D01*
X101328697Y-70528388D01*
X101328701Y-70528387D01*
X101328707Y-70528387D01*
X101683100Y-70468173D01*
X102028524Y-70368659D01*
X102360633Y-70231094D01*
X102675252Y-70057211D01*
X102968423Y-69849194D01*
X103236461Y-69609661D01*
X103475994Y-69341623D01*
X103684011Y-69048452D01*
X103857894Y-68733833D01*
X103995459Y-68401724D01*
X104094973Y-68056300D01*
X104155187Y-67701907D01*
X104175343Y-67343000D01*
X104175343Y-67342995D01*
X121764257Y-67342995D01*
X121764257Y-67343004D01*
X121784411Y-67701897D01*
X121784414Y-67701917D01*
X121844624Y-68056287D01*
X121844628Y-68056307D01*
X121944140Y-68401723D01*
X122081707Y-68733837D01*
X122255587Y-69048449D01*
X122255589Y-69048452D01*
X122463606Y-69341623D01*
X122703139Y-69609661D01*
X122971177Y-69849194D01*
X123264348Y-70057211D01*
X123264350Y-70057212D01*
X123578963Y-70231092D01*
X123578962Y-70231092D01*
X123911076Y-70368659D01*
X124256492Y-70468171D01*
X124256495Y-70468171D01*
X124256500Y-70468173D01*
X124610893Y-70528387D01*
X124610896Y-70528387D01*
X124610902Y-70528388D01*
X124969795Y-70548543D01*
X124969800Y-70548543D01*
X124969805Y-70548543D01*
X125328697Y-70528388D01*
X125328701Y-70528387D01*
X125328707Y-70528387D01*
X125683100Y-70468173D01*
X126028524Y-70368659D01*
X126360633Y-70231094D01*
X126675252Y-70057211D01*
X126968423Y-69849194D01*
X127236461Y-69609661D01*
X127475994Y-69341623D01*
X127684011Y-69048452D01*
X127857894Y-68733833D01*
X127995459Y-68401724D01*
X128094973Y-68056300D01*
X128155187Y-67701907D01*
X128175343Y-67343000D01*
X128175343Y-67342995D01*
X147764257Y-67342995D01*
X147764257Y-67343004D01*
X147784411Y-67701897D01*
X147784414Y-67701917D01*
X147844624Y-68056287D01*
X147844628Y-68056307D01*
X147944140Y-68401723D01*
X148081707Y-68733837D01*
X148255587Y-69048449D01*
X148255589Y-69048452D01*
X148463606Y-69341623D01*
X148703139Y-69609661D01*
X148971177Y-69849194D01*
X149264348Y-70057211D01*
X149264350Y-70057212D01*
X149578963Y-70231092D01*
X149578962Y-70231092D01*
X149911076Y-70368659D01*
X150256492Y-70468171D01*
X150256495Y-70468171D01*
X150256500Y-70468173D01*
X150610893Y-70528387D01*
X150610896Y-70528387D01*
X150610902Y-70528388D01*
X150969795Y-70548543D01*
X150969800Y-70548543D01*
X150969805Y-70548543D01*
X151328697Y-70528388D01*
X151328701Y-70528387D01*
X151328707Y-70528387D01*
X151683100Y-70468173D01*
X152028524Y-70368659D01*
X152360633Y-70231094D01*
X152675252Y-70057211D01*
X152968423Y-69849194D01*
X153236461Y-69609661D01*
X153475994Y-69341623D01*
X153684011Y-69048452D01*
X153857894Y-68733833D01*
X153995459Y-68401724D01*
X154094973Y-68056300D01*
X154155187Y-67701907D01*
X154175343Y-67343000D01*
X154155187Y-66984093D01*
X154094973Y-66629700D01*
X153995459Y-66284276D01*
X153857894Y-65952167D01*
X153857892Y-65952162D01*
X153684012Y-65637550D01*
X153475997Y-65344381D01*
X153475996Y-65344380D01*
X153475994Y-65344377D01*
X153236461Y-65076339D01*
X152968423Y-64836806D01*
X152968420Y-64836804D01*
X152968418Y-64836802D01*
X152675249Y-64628787D01*
X152360636Y-64454907D01*
X152360637Y-64454907D01*
X152028523Y-64317340D01*
X151683107Y-64217828D01*
X151683087Y-64217824D01*
X151328717Y-64157614D01*
X151328697Y-64157611D01*
X150969805Y-64137457D01*
X150969795Y-64137457D01*
X150610902Y-64157611D01*
X150610882Y-64157614D01*
X150256512Y-64217824D01*
X150256492Y-64217828D01*
X149911076Y-64317340D01*
X149578962Y-64454907D01*
X149264350Y-64628787D01*
X148971181Y-64836802D01*
X148703146Y-65076332D01*
X148703132Y-65076346D01*
X148463602Y-65344381D01*
X148255587Y-65637550D01*
X148081707Y-65952162D01*
X147944140Y-66284276D01*
X147844628Y-66629692D01*
X147844624Y-66629712D01*
X147784414Y-66984082D01*
X147784411Y-66984102D01*
X147764257Y-67342995D01*
X128175343Y-67342995D01*
X128155187Y-66984093D01*
X128094973Y-66629700D01*
X127995459Y-66284276D01*
X127857894Y-65952167D01*
X127857892Y-65952162D01*
X127684012Y-65637550D01*
X127475997Y-65344381D01*
X127475996Y-65344380D01*
X127475994Y-65344377D01*
X127236461Y-65076339D01*
X126968423Y-64836806D01*
X126968420Y-64836804D01*
X126968418Y-64836802D01*
X126675249Y-64628787D01*
X126360636Y-64454907D01*
X126360637Y-64454907D01*
X126028523Y-64317340D01*
X125683107Y-64217828D01*
X125683087Y-64217824D01*
X125328717Y-64157614D01*
X125328697Y-64157611D01*
X124969805Y-64137457D01*
X124969795Y-64137457D01*
X124610902Y-64157611D01*
X124610882Y-64157614D01*
X124256512Y-64217824D01*
X124256492Y-64217828D01*
X123911076Y-64317340D01*
X123578962Y-64454907D01*
X123264350Y-64628787D01*
X122971181Y-64836802D01*
X122703146Y-65076332D01*
X122703132Y-65076346D01*
X122463602Y-65344381D01*
X122255587Y-65637550D01*
X122081707Y-65952162D01*
X121944140Y-66284276D01*
X121844628Y-66629692D01*
X121844624Y-66629712D01*
X121784414Y-66984082D01*
X121784411Y-66984102D01*
X121764257Y-67342995D01*
X104175343Y-67342995D01*
X104155187Y-66984093D01*
X104094973Y-66629700D01*
X103995459Y-66284276D01*
X103857894Y-65952167D01*
X103857892Y-65952162D01*
X103684012Y-65637550D01*
X103475997Y-65344381D01*
X103475996Y-65344380D01*
X103475994Y-65344377D01*
X103236461Y-65076339D01*
X102968423Y-64836806D01*
X102968420Y-64836804D01*
X102968418Y-64836802D01*
X102675249Y-64628787D01*
X102360636Y-64454907D01*
X102360637Y-64454907D01*
X102028523Y-64317340D01*
X101683107Y-64217828D01*
X101683087Y-64217824D01*
X101328717Y-64157614D01*
X101328697Y-64157611D01*
X100969805Y-64137457D01*
X100969795Y-64137457D01*
X100610902Y-64157611D01*
X100610882Y-64157614D01*
X100256512Y-64217824D01*
X100256492Y-64217828D01*
X99911076Y-64317340D01*
X99578962Y-64454907D01*
X99264350Y-64628787D01*
X98971181Y-64836802D01*
X98703146Y-65076332D01*
X98703132Y-65076346D01*
X98463602Y-65344381D01*
X98255587Y-65637550D01*
X98081707Y-65952162D01*
X97944140Y-66284276D01*
X97844628Y-66629692D01*
X97844624Y-66629712D01*
X97784414Y-66984082D01*
X97784411Y-66984102D01*
X97764257Y-67342995D01*
X76010500Y-67342995D01*
X76010500Y-49204515D01*
X76010905Y-49195572D01*
X76025287Y-49037006D01*
X76028317Y-49020099D01*
X76068813Y-48870396D01*
X76074716Y-48854278D01*
X76140484Y-48713824D01*
X76149089Y-48698961D01*
X76238143Y-48571994D01*
X76249180Y-48558851D01*
X76358851Y-48449180D01*
X76371994Y-48438143D01*
X76498964Y-48349086D01*
X76513824Y-48340484D01*
X76654278Y-48274716D01*
X76670396Y-48268813D01*
X76820101Y-48228316D01*
X76837006Y-48225287D01*
X76995573Y-48210905D01*
X77004516Y-48210500D01*
X82162187Y-48210500D01*
X82220378Y-48229407D01*
X82223277Y-48231596D01*
X82270722Y-48268801D01*
X82444365Y-48360208D01*
X82444369Y-48360209D01*
X82444371Y-48360210D01*
X82631643Y-48418783D01*
X82631645Y-48418783D01*
X82631651Y-48418785D01*
X82826433Y-48442609D01*
X83022316Y-48430898D01*
X83212871Y-48384036D01*
X83391844Y-48303563D01*
X83553360Y-48192118D01*
X83692118Y-48053360D01*
X83803563Y-47891844D01*
X83884036Y-47712871D01*
X83930898Y-47522316D01*
X83942609Y-47326433D01*
X83918785Y-47131651D01*
X83918783Y-47131645D01*
X83918783Y-47131643D01*
X83860210Y-46944371D01*
X83860207Y-46944363D01*
X83768802Y-46770724D01*
X83768794Y-46770713D01*
X83731596Y-46723275D01*
X83710567Y-46665817D01*
X83710500Y-46662186D01*
X83710500Y-43399996D01*
X129384876Y-43399996D01*
X129384876Y-43400003D01*
X129403334Y-43610996D01*
X129403335Y-43611003D01*
X129403336Y-43611004D01*
X129458157Y-43815597D01*
X129547672Y-44007562D01*
X129669161Y-44181067D01*
X129818933Y-44330839D01*
X129992438Y-44452328D01*
X130184403Y-44541843D01*
X130388996Y-44596664D01*
X130389000Y-44596664D01*
X130389003Y-44596665D01*
X130599997Y-44615124D01*
X130600000Y-44615124D01*
X130600003Y-44615124D01*
X130810996Y-44596665D01*
X130810997Y-44596664D01*
X130811004Y-44596664D01*
X131015597Y-44541843D01*
X131207562Y-44452328D01*
X131381067Y-44330839D01*
X131530839Y-44181067D01*
X131652328Y-44007562D01*
X131741843Y-43815597D01*
X131796664Y-43611004D01*
X131815124Y-43400000D01*
X131796664Y-43188996D01*
X131741843Y-42984403D01*
X131652328Y-42792438D01*
X131530839Y-42618933D01*
X131381067Y-42469161D01*
X131381063Y-42469158D01*
X131381062Y-42469157D01*
X131284803Y-42401756D01*
X131207562Y-42347672D01*
X131015597Y-42258157D01*
X130811004Y-42203336D01*
X130811003Y-42203335D01*
X130810996Y-42203334D01*
X130600003Y-42184876D01*
X130599997Y-42184876D01*
X130389003Y-42203334D01*
X130324153Y-42220710D01*
X130184403Y-42258157D01*
X130094889Y-42299898D01*
X129992439Y-42347671D01*
X129818937Y-42469157D01*
X129669157Y-42618937D01*
X129547671Y-42792439D01*
X129458157Y-42984404D01*
X129403334Y-43189003D01*
X129384876Y-43399996D01*
X83710500Y-43399996D01*
X83710500Y-41519386D01*
X83710567Y-41518971D01*
X83710515Y-41504301D01*
X83710864Y-41495638D01*
X83724264Y-41336599D01*
X83727224Y-41319526D01*
X83767044Y-41169469D01*
X83772939Y-41153172D01*
X83838322Y-41012368D01*
X83846972Y-40997344D01*
X83935916Y-40870101D01*
X83947043Y-40856829D01*
X84056829Y-40747043D01*
X84070101Y-40735916D01*
X84197346Y-40646970D01*
X84212365Y-40638323D01*
X84353174Y-40572937D01*
X84369469Y-40567044D01*
X84519526Y-40527224D01*
X84536594Y-40524264D01*
X84695647Y-40510863D01*
X84704303Y-40510515D01*
X84718236Y-40510564D01*
X84718658Y-40510500D01*
X165295484Y-40510500D01*
X165304427Y-40510905D01*
G37*
G04 #@! TD.AperFunction*
M02*
