G04 #@! TF.GenerationSoftware,KiCad,Pcbnew,8.0.2*
G04 #@! TF.CreationDate,2024-08-20T08:17:01+02:00*
G04 #@! TF.ProjectId,STS1_SIDEPANEL,53545331-5f53-4494-9445-50414e454c2e,rev?*
G04 #@! TF.SameCoordinates,Original*
G04 #@! TF.FileFunction,Legend,Top*
G04 #@! TF.FilePolarity,Positive*
%FSLAX46Y46*%
G04 Gerber Fmt 4.6, Leading zero omitted, Abs format (unit mm)*
G04 Created by KiCad (PCBNEW 8.0.2) date 2024-08-20 08:17:01*
%MOMM*%
%LPD*%
G01*
G04 APERTURE LIST*
G04 Aperture macros list*
%AMRoundRect*
0 Rectangle with rounded corners*
0 $1 Rounding radius*
0 $2 $3 $4 $5 $6 $7 $8 $9 X,Y pos of 4 corners*
0 Add a 4 corners polygon primitive as box body*
4,1,4,$2,$3,$4,$5,$6,$7,$8,$9,$2,$3,0*
0 Add four circle primitives for the rounded corners*
1,1,$1+$1,$2,$3*
1,1,$1+$1,$4,$5*
1,1,$1+$1,$6,$7*
1,1,$1+$1,$8,$9*
0 Add four rect primitives between the rounded corners*
20,1,$1+$1,$2,$3,$4,$5,0*
20,1,$1+$1,$4,$5,$6,$7,0*
20,1,$1+$1,$6,$7,$8,$9,0*
20,1,$1+$1,$8,$9,$2,$3,0*%
%AMFreePoly0*
4,1,17,27.998779,14.255902,28.009846,14.246565,39.669846,2.866565,39.698571,2.811843,39.696113,2.795000,39.700000,2.795000,39.700000,-2.795000,-39.700000,-2.795000,-39.700000,2.795000,-39.695106,2.795000,-39.695106,2.825902,-39.669846,2.866565,-28.009846,14.246565,-27.954442,14.273952,-27.940000,14.275000,27.940000,14.275000,27.998779,14.255902,27.998779,14.255902,$1*%
G04 Aperture macros list end*
%ADD10C,0.150000*%
%ADD11C,0.120000*%
%ADD12C,6.000000*%
%ADD13FreePoly0,180.000000*%
%ADD14R,79.400000X20.475000*%
%ADD15RoundRect,0.300000X4.450000X2.700000X-4.450000X2.700000X-4.450000X-2.700000X4.450000X-2.700000X0*%
%ADD16FreePoly0,0.000000*%
%ADD17RoundRect,0.200000X-4.550000X-1.800000X4.550000X-1.800000X4.550000X1.800000X-4.550000X1.800000X0*%
%ADD18R,1.800000X1.500000*%
G04 APERTURE END LIST*
D10*
X87185944Y-44674900D02*
X91185944Y-44674900D01*
X91181944Y-49594300D02*
X91681844Y-48696700D01*
X86288344Y-44675000D02*
X87185944Y-44174900D01*
X87185944Y-44174900D02*
X87185944Y-44674900D01*
X91181944Y-49594300D02*
X90681844Y-48696700D01*
X87185944Y-44674900D02*
X87185944Y-45174900D01*
X86288344Y-44675000D02*
X87185944Y-45174900D01*
X90681844Y-48696700D02*
X91181844Y-48696700D01*
X91181844Y-48696700D02*
X91681844Y-48696700D01*
X91185944Y-48674900D02*
X91185944Y-44674900D01*
X85727088Y-44754528D02*
X85727088Y-45230719D01*
X85393755Y-44230719D02*
X85727088Y-44754528D01*
X85727088Y-44754528D02*
X86060421Y-44230719D01*
X102275714Y-38646819D02*
X102466190Y-38646819D01*
X102466190Y-38646819D02*
X102561428Y-38599200D01*
X102561428Y-38599200D02*
X102609047Y-38551580D01*
X102609047Y-38551580D02*
X102704285Y-38408723D01*
X102704285Y-38408723D02*
X102751904Y-38218247D01*
X102751904Y-38218247D02*
X102751904Y-37837295D01*
X102751904Y-37837295D02*
X102704285Y-37742057D01*
X102704285Y-37742057D02*
X102656666Y-37694438D01*
X102656666Y-37694438D02*
X102561428Y-37646819D01*
X102561428Y-37646819D02*
X102370952Y-37646819D01*
X102370952Y-37646819D02*
X102275714Y-37694438D01*
X102275714Y-37694438D02*
X102228095Y-37742057D01*
X102228095Y-37742057D02*
X102180476Y-37837295D01*
X102180476Y-37837295D02*
X102180476Y-38075390D01*
X102180476Y-38075390D02*
X102228095Y-38170628D01*
X102228095Y-38170628D02*
X102275714Y-38218247D01*
X102275714Y-38218247D02*
X102370952Y-38265866D01*
X102370952Y-38265866D02*
X102561428Y-38265866D01*
X102561428Y-38265866D02*
X102656666Y-38218247D01*
X102656666Y-38218247D02*
X102704285Y-38170628D01*
X102704285Y-38170628D02*
X102751904Y-38075390D01*
X103323333Y-38075390D02*
X103228095Y-38027771D01*
X103228095Y-38027771D02*
X103180476Y-37980152D01*
X103180476Y-37980152D02*
X103132857Y-37884914D01*
X103132857Y-37884914D02*
X103132857Y-37837295D01*
X103132857Y-37837295D02*
X103180476Y-37742057D01*
X103180476Y-37742057D02*
X103228095Y-37694438D01*
X103228095Y-37694438D02*
X103323333Y-37646819D01*
X103323333Y-37646819D02*
X103513809Y-37646819D01*
X103513809Y-37646819D02*
X103609047Y-37694438D01*
X103609047Y-37694438D02*
X103656666Y-37742057D01*
X103656666Y-37742057D02*
X103704285Y-37837295D01*
X103704285Y-37837295D02*
X103704285Y-37884914D01*
X103704285Y-37884914D02*
X103656666Y-37980152D01*
X103656666Y-37980152D02*
X103609047Y-38027771D01*
X103609047Y-38027771D02*
X103513809Y-38075390D01*
X103513809Y-38075390D02*
X103323333Y-38075390D01*
X103323333Y-38075390D02*
X103228095Y-38123009D01*
X103228095Y-38123009D02*
X103180476Y-38170628D01*
X103180476Y-38170628D02*
X103132857Y-38265866D01*
X103132857Y-38265866D02*
X103132857Y-38456342D01*
X103132857Y-38456342D02*
X103180476Y-38551580D01*
X103180476Y-38551580D02*
X103228095Y-38599200D01*
X103228095Y-38599200D02*
X103323333Y-38646819D01*
X103323333Y-38646819D02*
X103513809Y-38646819D01*
X103513809Y-38646819D02*
X103609047Y-38599200D01*
X103609047Y-38599200D02*
X103656666Y-38551580D01*
X103656666Y-38551580D02*
X103704285Y-38456342D01*
X103704285Y-38456342D02*
X103704285Y-38265866D01*
X103704285Y-38265866D02*
X103656666Y-38170628D01*
X103656666Y-38170628D02*
X103609047Y-38123009D01*
X103609047Y-38123009D02*
X103513809Y-38075390D01*
X104894762Y-38646819D02*
X104894762Y-37980152D01*
X104894762Y-38075390D02*
X104942381Y-38027771D01*
X104942381Y-38027771D02*
X105037619Y-37980152D01*
X105037619Y-37980152D02*
X105180476Y-37980152D01*
X105180476Y-37980152D02*
X105275714Y-38027771D01*
X105275714Y-38027771D02*
X105323333Y-38123009D01*
X105323333Y-38123009D02*
X105323333Y-38646819D01*
X105323333Y-38123009D02*
X105370952Y-38027771D01*
X105370952Y-38027771D02*
X105466190Y-37980152D01*
X105466190Y-37980152D02*
X105609047Y-37980152D01*
X105609047Y-37980152D02*
X105704286Y-38027771D01*
X105704286Y-38027771D02*
X105751905Y-38123009D01*
X105751905Y-38123009D02*
X105751905Y-38646819D01*
X106228095Y-38646819D02*
X106228095Y-37980152D01*
X106228095Y-38075390D02*
X106275714Y-38027771D01*
X106275714Y-38027771D02*
X106370952Y-37980152D01*
X106370952Y-37980152D02*
X106513809Y-37980152D01*
X106513809Y-37980152D02*
X106609047Y-38027771D01*
X106609047Y-38027771D02*
X106656666Y-38123009D01*
X106656666Y-38123009D02*
X106656666Y-38646819D01*
X106656666Y-38123009D02*
X106704285Y-38027771D01*
X106704285Y-38027771D02*
X106799523Y-37980152D01*
X106799523Y-37980152D02*
X106942380Y-37980152D01*
X106942380Y-37980152D02*
X107037619Y-38027771D01*
X107037619Y-38027771D02*
X107085238Y-38123009D01*
X107085238Y-38123009D02*
X107085238Y-38646819D01*
X108228095Y-38646819D02*
X108751904Y-37980152D01*
X108228095Y-37980152D02*
X108751904Y-38646819D01*
X109942381Y-38646819D02*
X110132857Y-38646819D01*
X110132857Y-38646819D02*
X110228095Y-38599200D01*
X110228095Y-38599200D02*
X110275714Y-38551580D01*
X110275714Y-38551580D02*
X110370952Y-38408723D01*
X110370952Y-38408723D02*
X110418571Y-38218247D01*
X110418571Y-38218247D02*
X110418571Y-37837295D01*
X110418571Y-37837295D02*
X110370952Y-37742057D01*
X110370952Y-37742057D02*
X110323333Y-37694438D01*
X110323333Y-37694438D02*
X110228095Y-37646819D01*
X110228095Y-37646819D02*
X110037619Y-37646819D01*
X110037619Y-37646819D02*
X109942381Y-37694438D01*
X109942381Y-37694438D02*
X109894762Y-37742057D01*
X109894762Y-37742057D02*
X109847143Y-37837295D01*
X109847143Y-37837295D02*
X109847143Y-38075390D01*
X109847143Y-38075390D02*
X109894762Y-38170628D01*
X109894762Y-38170628D02*
X109942381Y-38218247D01*
X109942381Y-38218247D02*
X110037619Y-38265866D01*
X110037619Y-38265866D02*
X110228095Y-38265866D01*
X110228095Y-38265866D02*
X110323333Y-38218247D01*
X110323333Y-38218247D02*
X110370952Y-38170628D01*
X110370952Y-38170628D02*
X110418571Y-38075390D01*
X110990000Y-38075390D02*
X110894762Y-38027771D01*
X110894762Y-38027771D02*
X110847143Y-37980152D01*
X110847143Y-37980152D02*
X110799524Y-37884914D01*
X110799524Y-37884914D02*
X110799524Y-37837295D01*
X110799524Y-37837295D02*
X110847143Y-37742057D01*
X110847143Y-37742057D02*
X110894762Y-37694438D01*
X110894762Y-37694438D02*
X110990000Y-37646819D01*
X110990000Y-37646819D02*
X111180476Y-37646819D01*
X111180476Y-37646819D02*
X111275714Y-37694438D01*
X111275714Y-37694438D02*
X111323333Y-37742057D01*
X111323333Y-37742057D02*
X111370952Y-37837295D01*
X111370952Y-37837295D02*
X111370952Y-37884914D01*
X111370952Y-37884914D02*
X111323333Y-37980152D01*
X111323333Y-37980152D02*
X111275714Y-38027771D01*
X111275714Y-38027771D02*
X111180476Y-38075390D01*
X111180476Y-38075390D02*
X110990000Y-38075390D01*
X110990000Y-38075390D02*
X110894762Y-38123009D01*
X110894762Y-38123009D02*
X110847143Y-38170628D01*
X110847143Y-38170628D02*
X110799524Y-38265866D01*
X110799524Y-38265866D02*
X110799524Y-38456342D01*
X110799524Y-38456342D02*
X110847143Y-38551580D01*
X110847143Y-38551580D02*
X110894762Y-38599200D01*
X110894762Y-38599200D02*
X110990000Y-38646819D01*
X110990000Y-38646819D02*
X111180476Y-38646819D01*
X111180476Y-38646819D02*
X111275714Y-38599200D01*
X111275714Y-38599200D02*
X111323333Y-38551580D01*
X111323333Y-38551580D02*
X111370952Y-38456342D01*
X111370952Y-38456342D02*
X111370952Y-38265866D01*
X111370952Y-38265866D02*
X111323333Y-38170628D01*
X111323333Y-38170628D02*
X111275714Y-38123009D01*
X111275714Y-38123009D02*
X111180476Y-38075390D01*
X112561429Y-38646819D02*
X112561429Y-37980152D01*
X112561429Y-38075390D02*
X112609048Y-38027771D01*
X112609048Y-38027771D02*
X112704286Y-37980152D01*
X112704286Y-37980152D02*
X112847143Y-37980152D01*
X112847143Y-37980152D02*
X112942381Y-38027771D01*
X112942381Y-38027771D02*
X112990000Y-38123009D01*
X112990000Y-38123009D02*
X112990000Y-38646819D01*
X112990000Y-38123009D02*
X113037619Y-38027771D01*
X113037619Y-38027771D02*
X113132857Y-37980152D01*
X113132857Y-37980152D02*
X113275714Y-37980152D01*
X113275714Y-37980152D02*
X113370953Y-38027771D01*
X113370953Y-38027771D02*
X113418572Y-38123009D01*
X113418572Y-38123009D02*
X113418572Y-38646819D01*
X113894762Y-38646819D02*
X113894762Y-37980152D01*
X113894762Y-38075390D02*
X113942381Y-38027771D01*
X113942381Y-38027771D02*
X114037619Y-37980152D01*
X114037619Y-37980152D02*
X114180476Y-37980152D01*
X114180476Y-37980152D02*
X114275714Y-38027771D01*
X114275714Y-38027771D02*
X114323333Y-38123009D01*
X114323333Y-38123009D02*
X114323333Y-38646819D01*
X114323333Y-38123009D02*
X114370952Y-38027771D01*
X114370952Y-38027771D02*
X114466190Y-37980152D01*
X114466190Y-37980152D02*
X114609047Y-37980152D01*
X114609047Y-37980152D02*
X114704286Y-38027771D01*
X114704286Y-38027771D02*
X114751905Y-38123009D01*
X114751905Y-38123009D02*
X114751905Y-38646819D01*
X90857936Y-49996519D02*
X91524602Y-49996519D01*
X91524602Y-49996519D02*
X90857936Y-50996519D01*
X90857936Y-50996519D02*
X91524602Y-50996519D01*
X86993504Y-90615200D02*
X86850647Y-90567580D01*
X86850647Y-90567580D02*
X86612552Y-90567580D01*
X86612552Y-90567580D02*
X86517314Y-90615200D01*
X86517314Y-90615200D02*
X86469695Y-90662819D01*
X86469695Y-90662819D02*
X86422076Y-90758057D01*
X86422076Y-90758057D02*
X86422076Y-90853295D01*
X86422076Y-90853295D02*
X86469695Y-90948533D01*
X86469695Y-90948533D02*
X86517314Y-90996152D01*
X86517314Y-90996152D02*
X86612552Y-91043771D01*
X86612552Y-91043771D02*
X86803028Y-91091390D01*
X86803028Y-91091390D02*
X86898266Y-91139009D01*
X86898266Y-91139009D02*
X86945885Y-91186628D01*
X86945885Y-91186628D02*
X86993504Y-91281866D01*
X86993504Y-91281866D02*
X86993504Y-91377104D01*
X86993504Y-91377104D02*
X86945885Y-91472342D01*
X86945885Y-91472342D02*
X86898266Y-91519961D01*
X86898266Y-91519961D02*
X86803028Y-91567580D01*
X86803028Y-91567580D02*
X86564933Y-91567580D01*
X86564933Y-91567580D02*
X86422076Y-91519961D01*
X85422076Y-90662819D02*
X85469695Y-90615200D01*
X85469695Y-90615200D02*
X85612552Y-90567580D01*
X85612552Y-90567580D02*
X85707790Y-90567580D01*
X85707790Y-90567580D02*
X85850647Y-90615200D01*
X85850647Y-90615200D02*
X85945885Y-90710438D01*
X85945885Y-90710438D02*
X85993504Y-90805676D01*
X85993504Y-90805676D02*
X86041123Y-90996152D01*
X86041123Y-90996152D02*
X86041123Y-91139009D01*
X86041123Y-91139009D02*
X85993504Y-91329485D01*
X85993504Y-91329485D02*
X85945885Y-91424723D01*
X85945885Y-91424723D02*
X85850647Y-91519961D01*
X85850647Y-91519961D02*
X85707790Y-91567580D01*
X85707790Y-91567580D02*
X85612552Y-91567580D01*
X85612552Y-91567580D02*
X85469695Y-91519961D01*
X85469695Y-91519961D02*
X85422076Y-91472342D01*
X85041123Y-91472342D02*
X84993504Y-91519961D01*
X84993504Y-91519961D02*
X84898266Y-91567580D01*
X84898266Y-91567580D02*
X84660171Y-91567580D01*
X84660171Y-91567580D02*
X84564933Y-91519961D01*
X84564933Y-91519961D02*
X84517314Y-91472342D01*
X84517314Y-91472342D02*
X84469695Y-91377104D01*
X84469695Y-91377104D02*
X84469695Y-91281866D01*
X84469695Y-91281866D02*
X84517314Y-91139009D01*
X84517314Y-91139009D02*
X85088742Y-90567580D01*
X85088742Y-90567580D02*
X84469695Y-90567580D01*
X163077895Y-86705200D02*
X163220752Y-86752819D01*
X163220752Y-86752819D02*
X163458847Y-86752819D01*
X163458847Y-86752819D02*
X163554085Y-86705200D01*
X163554085Y-86705200D02*
X163601704Y-86657580D01*
X163601704Y-86657580D02*
X163649323Y-86562342D01*
X163649323Y-86562342D02*
X163649323Y-86467104D01*
X163649323Y-86467104D02*
X163601704Y-86371866D01*
X163601704Y-86371866D02*
X163554085Y-86324247D01*
X163554085Y-86324247D02*
X163458847Y-86276628D01*
X163458847Y-86276628D02*
X163268371Y-86229009D01*
X163268371Y-86229009D02*
X163173133Y-86181390D01*
X163173133Y-86181390D02*
X163125514Y-86133771D01*
X163125514Y-86133771D02*
X163077895Y-86038533D01*
X163077895Y-86038533D02*
X163077895Y-85943295D01*
X163077895Y-85943295D02*
X163125514Y-85848057D01*
X163125514Y-85848057D02*
X163173133Y-85800438D01*
X163173133Y-85800438D02*
X163268371Y-85752819D01*
X163268371Y-85752819D02*
X163506466Y-85752819D01*
X163506466Y-85752819D02*
X163649323Y-85800438D01*
X164649323Y-86657580D02*
X164601704Y-86705200D01*
X164601704Y-86705200D02*
X164458847Y-86752819D01*
X164458847Y-86752819D02*
X164363609Y-86752819D01*
X164363609Y-86752819D02*
X164220752Y-86705200D01*
X164220752Y-86705200D02*
X164125514Y-86609961D01*
X164125514Y-86609961D02*
X164077895Y-86514723D01*
X164077895Y-86514723D02*
X164030276Y-86324247D01*
X164030276Y-86324247D02*
X164030276Y-86181390D01*
X164030276Y-86181390D02*
X164077895Y-85990914D01*
X164077895Y-85990914D02*
X164125514Y-85895676D01*
X164125514Y-85895676D02*
X164220752Y-85800438D01*
X164220752Y-85800438D02*
X164363609Y-85752819D01*
X164363609Y-85752819D02*
X164458847Y-85752819D01*
X164458847Y-85752819D02*
X164601704Y-85800438D01*
X164601704Y-85800438D02*
X164649323Y-85848057D01*
X165601704Y-86752819D02*
X165030276Y-86752819D01*
X165315990Y-86752819D02*
X165315990Y-85752819D01*
X165315990Y-85752819D02*
X165220752Y-85895676D01*
X165220752Y-85895676D02*
X165125514Y-85990914D01*
X165125514Y-85990914D02*
X165030276Y-86038533D01*
X124333333Y-86204819D02*
X124000000Y-85728628D01*
X123761905Y-86204819D02*
X123761905Y-85204819D01*
X123761905Y-85204819D02*
X124142857Y-85204819D01*
X124142857Y-85204819D02*
X124238095Y-85252438D01*
X124238095Y-85252438D02*
X124285714Y-85300057D01*
X124285714Y-85300057D02*
X124333333Y-85395295D01*
X124333333Y-85395295D02*
X124333333Y-85538152D01*
X124333333Y-85538152D02*
X124285714Y-85633390D01*
X124285714Y-85633390D02*
X124238095Y-85681009D01*
X124238095Y-85681009D02*
X124142857Y-85728628D01*
X124142857Y-85728628D02*
X123761905Y-85728628D01*
X124761905Y-86204819D02*
X124761905Y-85204819D01*
X124761905Y-85204819D02*
X125000000Y-85204819D01*
X125000000Y-85204819D02*
X125142857Y-85252438D01*
X125142857Y-85252438D02*
X125238095Y-85347676D01*
X125238095Y-85347676D02*
X125285714Y-85442914D01*
X125285714Y-85442914D02*
X125333333Y-85633390D01*
X125333333Y-85633390D02*
X125333333Y-85776247D01*
X125333333Y-85776247D02*
X125285714Y-85966723D01*
X125285714Y-85966723D02*
X125238095Y-86061961D01*
X125238095Y-86061961D02*
X125142857Y-86157200D01*
X125142857Y-86157200D02*
X125000000Y-86204819D01*
X125000000Y-86204819D02*
X124761905Y-86204819D01*
X125714286Y-85300057D02*
X125761905Y-85252438D01*
X125761905Y-85252438D02*
X125857143Y-85204819D01*
X125857143Y-85204819D02*
X126095238Y-85204819D01*
X126095238Y-85204819D02*
X126190476Y-85252438D01*
X126190476Y-85252438D02*
X126238095Y-85300057D01*
X126238095Y-85300057D02*
X126285714Y-85395295D01*
X126285714Y-85395295D02*
X126285714Y-85490533D01*
X126285714Y-85490533D02*
X126238095Y-85633390D01*
X126238095Y-85633390D02*
X125666667Y-86204819D01*
X125666667Y-86204819D02*
X126285714Y-86204819D01*
D11*
X165201600Y-118477400D02*
X151601600Y-131977400D01*
X165201600Y-91977400D02*
X165201600Y-118477400D01*
X151601600Y-131977400D02*
X98601600Y-131977400D01*
X98601600Y-131977400D02*
X85001600Y-118477400D01*
X95601600Y-131977400D02*
X85001600Y-121477400D01*
X85001600Y-131977400D02*
X95601600Y-131977400D01*
X85001600Y-121477400D02*
X85001600Y-131977400D01*
X85001600Y-118477400D02*
X85001600Y-91977400D01*
X85001600Y-91977400D02*
X165201600Y-91977400D01*
X84869800Y-58843000D02*
X98469800Y-45343000D01*
X84869800Y-85343000D02*
X84869800Y-58843000D01*
X98469800Y-45343000D02*
X151469800Y-45343000D01*
X151469800Y-45343000D02*
X165069800Y-58843000D01*
X154469800Y-45343000D02*
X165069800Y-55843000D01*
X165069800Y-45343000D02*
X154469800Y-45343000D01*
X165069800Y-55843000D02*
X165069800Y-45343000D01*
X165069800Y-58843000D02*
X165069800Y-85343000D01*
X165069800Y-85343000D02*
X84869800Y-85343000D01*
X125850000Y-88900000D02*
X125850000Y-90100000D01*
X124150000Y-90100000D02*
X124150000Y-88900000D01*
%LPC*%
D12*
X149101600Y-109977400D03*
D13*
X125101600Y-115582400D03*
D12*
X125101600Y-109977400D03*
D14*
X125101600Y-102549900D03*
D12*
X99101600Y-109977400D03*
D15*
X141101600Y-134977400D03*
X109101600Y-134977400D03*
X90176600Y-135177400D03*
D12*
X100969800Y-67343000D03*
D16*
X124969800Y-61738000D03*
D12*
X124969800Y-67343000D03*
D14*
X124969800Y-74770500D03*
D12*
X150969800Y-67343000D03*
D17*
X108969800Y-43343000D03*
X140969800Y-43343000D03*
X159894800Y-43343000D03*
D18*
X125000000Y-88000000D03*
X125000000Y-91000000D03*
%LPD*%
M02*
