G04 #@! TF.GenerationSoftware,KiCad,Pcbnew,8.0.2*
G04 #@! TF.CreationDate,2024-08-20T08:17:01+02:00*
G04 #@! TF.ProjectId,STS1_SIDEPANEL,53545331-5f53-4494-9445-50414e454c2e,rev?*
G04 #@! TF.SameCoordinates,Original*
G04 #@! TF.FileFunction,Copper,L3,Inr*
G04 #@! TF.FilePolarity,Positive*
%FSLAX46Y46*%
G04 Gerber Fmt 4.6, Leading zero omitted, Abs format (unit mm)*
G04 Created by KiCad (PCBNEW 8.0.2) date 2024-08-20 08:17:01*
%MOMM*%
%LPD*%
G01*
G04 APERTURE LIST*
G04 #@! TA.AperFunction,FiducialPad,Local*
%ADD10C,6.000000*%
G04 #@! TD*
G04 #@! TA.AperFunction,FiducialPad,Global*
%ADD11C,6.000000*%
G04 #@! TD*
G04 #@! TA.AperFunction,ViaPad*
%ADD12C,0.600000*%
G04 #@! TD*
G04 #@! TA.AperFunction,ViaPad*
%ADD13C,0.800000*%
G04 #@! TD*
G04 #@! TA.AperFunction,ViaPad*
%ADD14C,0.900000*%
G04 #@! TD*
G04 #@! TA.AperFunction,Conductor*
%ADD15C,0.500000*%
G04 #@! TD*
G04 #@! TA.AperFunction,Conductor*
%ADD16C,1.000000*%
G04 #@! TD*
G04 #@! TA.AperFunction,Conductor*
%ADD17C,0.300000*%
G04 #@! TD*
G04 APERTURE END LIST*
D10*
X149101600Y-109977400D03*
D11*
X125101600Y-109977400D03*
X99101600Y-109977400D03*
D10*
X100969800Y-67343000D03*
D11*
X124969800Y-67343000D03*
X150969800Y-67343000D03*
D12*
X128960000Y-136400000D03*
X168200000Y-75500000D03*
X99800000Y-41470000D03*
X118500000Y-133400000D03*
X78820000Y-106910000D03*
X101300000Y-42970000D03*
X78780000Y-113060000D03*
X127460000Y-134900000D03*
X78800000Y-73520000D03*
X78820000Y-103910000D03*
X81780000Y-117560000D03*
X148800000Y-137900000D03*
X168200000Y-57000000D03*
X101000000Y-137900000D03*
X171240000Y-92000000D03*
X168200000Y-77000000D03*
X80320000Y-106910000D03*
X134960000Y-134900000D03*
X171200000Y-55500000D03*
X134540000Y-41460000D03*
X78810000Y-119140000D03*
X130460000Y-136400000D03*
X171200000Y-71000000D03*
X87840000Y-42970000D03*
X125900000Y-136400000D03*
X133040000Y-41460000D03*
X102500000Y-133400000D03*
X151800000Y-137900000D03*
X93900000Y-41470000D03*
X151780000Y-41840000D03*
X121080000Y-41460000D03*
X133460000Y-133400000D03*
X169700000Y-75500000D03*
X78820000Y-99410000D03*
X81830000Y-62620000D03*
X168200000Y-121000000D03*
X147280000Y-41840000D03*
X171200000Y-98500000D03*
X168200000Y-104500000D03*
X80350000Y-56160000D03*
X81820000Y-105410000D03*
X124500000Y-134900000D03*
X169700000Y-58500000D03*
X78830000Y-68620000D03*
X168200000Y-61500000D03*
X151780000Y-43340000D03*
X89400000Y-41470000D03*
X78850000Y-54660000D03*
X130460000Y-137900000D03*
X81820000Y-100910000D03*
X168200000Y-124000000D03*
X81830000Y-67120000D03*
X90900000Y-41470000D03*
X127040000Y-41460000D03*
X90900000Y-42970000D03*
X80350000Y-59160000D03*
X134960000Y-137900000D03*
X130460000Y-133400000D03*
X80280000Y-111560000D03*
X81830000Y-65620000D03*
X169700000Y-113500000D03*
X168200000Y-125500000D03*
X168240000Y-90500000D03*
X171200000Y-113500000D03*
X81820000Y-93020000D03*
X81780000Y-116060000D03*
X78820000Y-87120000D03*
X123000000Y-133400000D03*
X86440000Y-41470000D03*
X147240000Y-136400000D03*
X80330000Y-61220000D03*
X98000000Y-136400000D03*
X169700000Y-125500000D03*
X117000000Y-136400000D03*
X81830000Y-70120000D03*
X150300000Y-133400000D03*
X169700000Y-119500000D03*
X78800000Y-79520000D03*
X171200000Y-101500000D03*
X120000000Y-137900000D03*
X119580000Y-41460000D03*
X78850000Y-53160000D03*
X124500000Y-137900000D03*
X133460000Y-136400000D03*
X81780000Y-110060000D03*
X93900000Y-42970000D03*
X169700000Y-100000000D03*
X80280000Y-117560000D03*
X81780000Y-108660000D03*
X115080000Y-42960000D03*
X78810000Y-125040000D03*
X171200000Y-81500000D03*
X150300000Y-136400000D03*
X128540000Y-42960000D03*
X131960000Y-137900000D03*
X168200000Y-80000000D03*
X171240000Y-86000000D03*
X151800000Y-134900000D03*
X169700000Y-81500000D03*
X159200000Y-137900000D03*
X81810000Y-128040000D03*
X118080000Y-41460000D03*
X159200000Y-134900000D03*
X168200000Y-118000000D03*
X169740000Y-92000000D03*
X171200000Y-124000000D03*
X98000000Y-133400000D03*
X92400000Y-41470000D03*
X148800000Y-134900000D03*
X169700000Y-124000000D03*
X168200000Y-103000000D03*
X171200000Y-72500000D03*
X157700000Y-137900000D03*
X130460000Y-134900000D03*
X81820000Y-88520000D03*
X78850000Y-56160000D03*
X80320000Y-103910000D03*
X80330000Y-65620000D03*
X81780000Y-114560000D03*
X133460000Y-134900000D03*
X169700000Y-60000000D03*
X98000000Y-137900000D03*
X150280000Y-43340000D03*
X78780000Y-116060000D03*
X102800000Y-42970000D03*
X80330000Y-68620000D03*
X122580000Y-42960000D03*
X127040000Y-42960000D03*
X118500000Y-137900000D03*
X101000000Y-136400000D03*
X80320000Y-87120000D03*
X102800000Y-41470000D03*
X81800000Y-72120000D03*
X169700000Y-118000000D03*
X78820000Y-88520000D03*
X78820000Y-98010000D03*
X171200000Y-57000000D03*
X169740000Y-90500000D03*
X115080000Y-41460000D03*
X78820000Y-100910000D03*
X169700000Y-115000000D03*
X128960000Y-137900000D03*
X80300000Y-75020000D03*
X81820000Y-90020000D03*
X168200000Y-115000000D03*
X80310000Y-122040000D03*
X171200000Y-122500000D03*
X78820000Y-105410000D03*
X81820000Y-87120000D03*
X160700000Y-133400000D03*
X123000000Y-134900000D03*
X80350000Y-53160000D03*
X127460000Y-136400000D03*
X171200000Y-127000000D03*
X131960000Y-133400000D03*
X96500000Y-133400000D03*
X81820000Y-91520000D03*
X116580000Y-41460000D03*
X81800000Y-78020000D03*
X81830000Y-64120000D03*
X117000000Y-134900000D03*
X78780000Y-110060000D03*
X125900000Y-133400000D03*
X125540000Y-41460000D03*
X81810000Y-125040000D03*
X81780000Y-113060000D03*
X98300000Y-41470000D03*
X81820000Y-94520000D03*
X78850000Y-50260000D03*
X147240000Y-137900000D03*
X78820000Y-93020000D03*
X99500000Y-136400000D03*
X80320000Y-99410000D03*
X98300000Y-42970000D03*
X118080000Y-42960000D03*
X80320000Y-105410000D03*
X171200000Y-125500000D03*
X171240000Y-90500000D03*
X160700000Y-137900000D03*
X150300000Y-134900000D03*
X169740000Y-89000000D03*
X80300000Y-72120000D03*
X160700000Y-134900000D03*
X171240000Y-87500000D03*
X159200000Y-136400000D03*
X154800000Y-136400000D03*
X148800000Y-136400000D03*
X81850000Y-54660000D03*
X80310000Y-119140000D03*
X124140000Y-42960000D03*
X169700000Y-71000000D03*
X154800000Y-137900000D03*
X80330000Y-62620000D03*
X99500000Y-133400000D03*
X80300000Y-79520000D03*
X171200000Y-61500000D03*
X134540000Y-42960000D03*
X102500000Y-136400000D03*
X162200000Y-133400000D03*
X169700000Y-77000000D03*
X81820000Y-96020000D03*
X80310000Y-128040000D03*
X124500000Y-136400000D03*
X156300000Y-133400000D03*
X99800000Y-42970000D03*
X121500000Y-134900000D03*
X125900000Y-134900000D03*
X169700000Y-116500000D03*
X78810000Y-120540000D03*
X163600000Y-136400000D03*
X99500000Y-134900000D03*
X81850000Y-50260000D03*
X128540000Y-41460000D03*
X171200000Y-52600000D03*
X169740000Y-86000000D03*
X80300000Y-76520000D03*
X81850000Y-59160000D03*
X168200000Y-100000000D03*
X80280000Y-114560000D03*
X171200000Y-115000000D03*
X78820000Y-102410000D03*
X125900000Y-137900000D03*
X171200000Y-121000000D03*
X117000000Y-137900000D03*
X81800000Y-75020000D03*
X147240000Y-134900000D03*
X153300000Y-134900000D03*
X157700000Y-133400000D03*
X80280000Y-113060000D03*
X150300000Y-137900000D03*
X87840000Y-41470000D03*
X171200000Y-77000000D03*
X78810000Y-126540000D03*
X169740000Y-84500000D03*
X147240000Y-133400000D03*
X80320000Y-94520000D03*
X98000000Y-134900000D03*
X169700000Y-97000000D03*
X80300000Y-78020000D03*
X171240000Y-84500000D03*
X115230000Y-137900000D03*
X168240000Y-84500000D03*
X101300000Y-41470000D03*
X80300000Y-73520000D03*
X96500000Y-137900000D03*
X151800000Y-133400000D03*
X168200000Y-71000000D03*
X168200000Y-81500000D03*
X78780000Y-108660000D03*
X95400000Y-42970000D03*
X168200000Y-97000000D03*
X81810000Y-126540000D03*
X168200000Y-54000000D03*
X78830000Y-70120000D03*
X168200000Y-74000000D03*
X117000000Y-133400000D03*
X168200000Y-107500000D03*
X171200000Y-109000000D03*
X169700000Y-98500000D03*
X157700000Y-134900000D03*
X156300000Y-136400000D03*
X169700000Y-61500000D03*
X154800000Y-134900000D03*
X171200000Y-119500000D03*
X81850000Y-56160000D03*
X171200000Y-75500000D03*
X121500000Y-133400000D03*
X81850000Y-51660000D03*
X171200000Y-112000000D03*
X81850000Y-57660000D03*
X81810000Y-119140000D03*
X171240000Y-83000000D03*
X80280000Y-108660000D03*
X80350000Y-50260000D03*
X171200000Y-106000000D03*
X96900000Y-41470000D03*
X127460000Y-133400000D03*
X148780000Y-43340000D03*
X78830000Y-61220000D03*
X89400000Y-42970000D03*
X169700000Y-57000000D03*
X171200000Y-118000000D03*
X81820000Y-102410000D03*
X80320000Y-96020000D03*
X80310000Y-123540000D03*
X81800000Y-81020000D03*
X121080000Y-42960000D03*
X119580000Y-42960000D03*
X153300000Y-133400000D03*
X81800000Y-79520000D03*
X78820000Y-94520000D03*
X81830000Y-61220000D03*
X168200000Y-110500000D03*
X168240000Y-86000000D03*
X171200000Y-58500000D03*
X99500000Y-137900000D03*
X80280000Y-110060000D03*
X78810000Y-123540000D03*
X168200000Y-106000000D03*
X121500000Y-136400000D03*
X114000000Y-133400000D03*
X171200000Y-104500000D03*
X81810000Y-123540000D03*
X80310000Y-125040000D03*
X169700000Y-80000000D03*
X171200000Y-54000000D03*
X80350000Y-54660000D03*
X153280000Y-41840000D03*
X121500000Y-137900000D03*
X169700000Y-110500000D03*
X169700000Y-103000000D03*
X81810000Y-120540000D03*
X150280000Y-41840000D03*
X168200000Y-119500000D03*
X160700000Y-136400000D03*
X156300000Y-134900000D03*
X171200000Y-100000000D03*
X81810000Y-122040000D03*
X80330000Y-70120000D03*
X169700000Y-121000000D03*
X80300000Y-81020000D03*
X120000000Y-133400000D03*
X122580000Y-41460000D03*
X78800000Y-76520000D03*
X131960000Y-134900000D03*
X124140000Y-41460000D03*
X154800000Y-133400000D03*
X127460000Y-137900000D03*
X169700000Y-112000000D03*
X163600000Y-137900000D03*
X169700000Y-101500000D03*
X115500000Y-133400000D03*
X128960000Y-134900000D03*
X133040000Y-42960000D03*
X171200000Y-107500000D03*
X168240000Y-92000000D03*
X81850000Y-53160000D03*
X162200000Y-134900000D03*
X168240000Y-89000000D03*
X169700000Y-104500000D03*
X116580000Y-42960000D03*
X169700000Y-109000000D03*
X81780000Y-111560000D03*
X78810000Y-128040000D03*
X169700000Y-122500000D03*
X168200000Y-98500000D03*
X78820000Y-91520000D03*
X102500000Y-134900000D03*
X78800000Y-72120000D03*
X123000000Y-136400000D03*
X128960000Y-133400000D03*
X115500000Y-136400000D03*
X168200000Y-127000000D03*
X169740000Y-87500000D03*
X96500000Y-136400000D03*
X168200000Y-101500000D03*
X81820000Y-98010000D03*
X168200000Y-112000000D03*
X78810000Y-122040000D03*
X115500000Y-134900000D03*
X168200000Y-122500000D03*
X169700000Y-107500000D03*
X80320000Y-98010000D03*
X156300000Y-137900000D03*
X125540000Y-42960000D03*
X153280000Y-43340000D03*
X81820000Y-106910000D03*
X168200000Y-109000000D03*
X78780000Y-111560000D03*
X171240000Y-89000000D03*
X169700000Y-78500000D03*
X163600000Y-133400000D03*
X168200000Y-116500000D03*
X78830000Y-67120000D03*
X92400000Y-42970000D03*
X147280000Y-43340000D03*
X153300000Y-137900000D03*
X96500000Y-134900000D03*
X81800000Y-73520000D03*
X80320000Y-88520000D03*
X78850000Y-59160000D03*
X80320000Y-100910000D03*
X80320000Y-91520000D03*
X80310000Y-120540000D03*
X162200000Y-136400000D03*
X148780000Y-41840000D03*
X171200000Y-110500000D03*
X171200000Y-97000000D03*
X171200000Y-74000000D03*
X171200000Y-60000000D03*
X157700000Y-136400000D03*
X168200000Y-52600000D03*
X168200000Y-60000000D03*
X169700000Y-127000000D03*
X171200000Y-103000000D03*
X168200000Y-113500000D03*
X134960000Y-133400000D03*
X80350000Y-57660000D03*
X81830000Y-68620000D03*
X124500000Y-133400000D03*
X171200000Y-78500000D03*
X80330000Y-64120000D03*
X81820000Y-103910000D03*
X81820000Y-99410000D03*
X169700000Y-52600000D03*
X162200000Y-137900000D03*
X80330000Y-67120000D03*
X169700000Y-54000000D03*
X168200000Y-78500000D03*
X101000000Y-134900000D03*
X159200000Y-133400000D03*
X168240000Y-87500000D03*
X78800000Y-75020000D03*
X80320000Y-102410000D03*
X80280000Y-116060000D03*
X78820000Y-96020000D03*
X86440000Y-42970000D03*
X169700000Y-72500000D03*
X168240000Y-83000000D03*
X78780000Y-117560000D03*
X78830000Y-64120000D03*
X78850000Y-57660000D03*
X151800000Y-136400000D03*
X133460000Y-137900000D03*
X78830000Y-65620000D03*
X78800000Y-78020000D03*
X168200000Y-55500000D03*
X153300000Y-136400000D03*
X123000000Y-137900000D03*
X95400000Y-41470000D03*
X96900000Y-42970000D03*
X134960000Y-136400000D03*
X171200000Y-80000000D03*
X168200000Y-58500000D03*
X169700000Y-55500000D03*
X80350000Y-51660000D03*
X78780000Y-114560000D03*
X101000000Y-133400000D03*
X80320000Y-90020000D03*
X80320000Y-93020000D03*
X102500000Y-137900000D03*
X78820000Y-90020000D03*
X169700000Y-74000000D03*
X78850000Y-51660000D03*
X171200000Y-116500000D03*
X163600000Y-134900000D03*
X168200000Y-72500000D03*
X169700000Y-106000000D03*
X78830000Y-62620000D03*
X169740000Y-83000000D03*
X81800000Y-76520000D03*
X78800000Y-81020000D03*
X80310000Y-126540000D03*
X148800000Y-133400000D03*
X131960000Y-136400000D03*
X109000000Y-99700000D03*
X92000000Y-101200000D03*
X110500000Y-99700000D03*
X128500000Y-101200000D03*
X104500000Y-96700000D03*
X103000000Y-101200000D03*
X113500000Y-101210000D03*
X124000000Y-98200000D03*
X104500000Y-99700000D03*
X155775000Y-84725000D03*
X110330000Y-86240000D03*
X115000000Y-99700000D03*
X92000000Y-99700000D03*
X119020000Y-73470000D03*
X157766000Y-92802000D03*
X94700000Y-71475000D03*
X122500000Y-96700000D03*
X93500000Y-96700000D03*
X120520000Y-74970000D03*
X105280000Y-80735000D03*
X109000000Y-101200000D03*
X112000000Y-99700000D03*
X99200000Y-72975000D03*
X151920000Y-102050000D03*
X104500000Y-101200000D03*
X97000000Y-99700000D03*
X119500000Y-98200000D03*
X148000000Y-98700000D03*
X136000000Y-103200000D03*
X115000000Y-98200000D03*
X162600000Y-96750000D03*
X122020000Y-74970000D03*
X99200000Y-74475000D03*
X97000000Y-101200000D03*
X107500000Y-99700000D03*
X139000000Y-98700000D03*
X100000000Y-98200000D03*
X119500000Y-99700000D03*
X87500000Y-96700000D03*
X131225000Y-72950000D03*
X143500000Y-103200000D03*
X121000000Y-98200000D03*
X139000000Y-101700000D03*
X106000000Y-96700000D03*
X109000000Y-96700000D03*
X111830000Y-87740000D03*
X154025000Y-107050000D03*
X112000000Y-96700000D03*
X145000000Y-103200000D03*
X89000000Y-99700000D03*
X148000000Y-100200000D03*
X110500000Y-96700000D03*
X142000000Y-103200000D03*
X164250000Y-96750000D03*
X153420000Y-100550000D03*
X96200000Y-72975000D03*
X109000000Y-98200000D03*
X95500000Y-101200000D03*
X125500000Y-101200000D03*
X132650000Y-83300000D03*
X95500000Y-98200000D03*
X125500000Y-96700000D03*
X103000000Y-98200000D03*
X127000000Y-98200000D03*
X101500000Y-99700000D03*
X116500000Y-98200000D03*
X137500000Y-101700000D03*
X153420000Y-102050000D03*
X111830000Y-84740000D03*
X153425000Y-103700000D03*
X143500000Y-100200000D03*
X119020000Y-71970000D03*
X159290000Y-94326000D03*
X118000000Y-101200000D03*
X114200000Y-77765000D03*
X124000000Y-99700000D03*
X115000000Y-96700000D03*
X128500000Y-96700000D03*
X97000000Y-96700000D03*
X110500000Y-98200000D03*
X106000000Y-101200000D03*
X113500000Y-98210000D03*
X95500000Y-99700000D03*
X86000000Y-96700000D03*
X96200000Y-71475000D03*
X111830000Y-86240000D03*
X100000000Y-101200000D03*
X114830000Y-86240000D03*
X131858000Y-72925000D03*
X122500000Y-101200000D03*
X106000000Y-99700000D03*
X121000000Y-96700000D03*
X127000000Y-99700000D03*
X115700000Y-76135000D03*
X164250000Y-95226000D03*
X123520000Y-71970000D03*
X106920000Y-80730000D03*
X113330000Y-87740000D03*
X134500000Y-98700000D03*
X114200000Y-76125000D03*
X93500000Y-101200000D03*
X118000000Y-96700000D03*
X119500000Y-101200000D03*
X130000000Y-98200000D03*
X146500000Y-100200000D03*
X119500000Y-96700000D03*
X107660000Y-76205000D03*
X148000000Y-101700000D03*
X115700000Y-77775000D03*
X125500000Y-98200000D03*
X130000000Y-96700000D03*
X140500000Y-103200000D03*
X121000000Y-99700000D03*
X90500000Y-98200000D03*
X90500000Y-96700000D03*
X101500000Y-101200000D03*
X87500000Y-99700000D03*
X142000000Y-100200000D03*
X137500000Y-100200000D03*
X110330000Y-87740000D03*
X94700000Y-72975000D03*
X122500000Y-99700000D03*
X99200000Y-71475000D03*
X107500000Y-101200000D03*
X107500000Y-98200000D03*
X100000000Y-96700000D03*
X142000000Y-101700000D03*
X120520000Y-73470000D03*
X146500000Y-103200000D03*
X122020000Y-73470000D03*
X97700000Y-72975000D03*
X122500000Y-98200000D03*
X130575000Y-72950000D03*
X94700000Y-74475000D03*
X136000000Y-101700000D03*
X140500000Y-98700000D03*
X136000000Y-100200000D03*
X130000000Y-101200000D03*
X116500000Y-101200000D03*
X145000000Y-98700000D03*
X110330000Y-84740000D03*
X102394000Y-84166000D03*
X161076000Y-96750000D03*
X131150000Y-83300000D03*
X112000000Y-98200000D03*
X142000000Y-98700000D03*
X101500000Y-96700000D03*
X107500000Y-96700000D03*
X113500000Y-99710000D03*
X98500000Y-98200000D03*
X134500000Y-101700000D03*
X90500000Y-101200000D03*
X116500000Y-96700000D03*
X157766000Y-94326000D03*
X115000000Y-101200000D03*
X103000000Y-96700000D03*
X95500000Y-96700000D03*
X137500000Y-103200000D03*
X86000000Y-98200000D03*
X112000000Y-101200000D03*
X106150000Y-77815000D03*
X139000000Y-100200000D03*
X86000000Y-101200000D03*
X113330000Y-84740000D03*
X128500000Y-98200000D03*
X100000000Y-99700000D03*
X146500000Y-98700000D03*
X124000000Y-101200000D03*
X125500000Y-99700000D03*
X140500000Y-100200000D03*
X124000000Y-96700000D03*
X104500000Y-98200000D03*
X90500000Y-99700000D03*
X97700000Y-71475000D03*
X103000000Y-99700000D03*
X105750000Y-83025000D03*
X105890000Y-79360000D03*
X140500000Y-101700000D03*
X127000000Y-96700000D03*
X114830000Y-87740000D03*
X86000000Y-99700000D03*
X113500000Y-96710000D03*
X106000000Y-98200000D03*
X136000000Y-98700000D03*
X120520000Y-71970000D03*
X93500000Y-98200000D03*
X118000000Y-98200000D03*
X118000000Y-99700000D03*
X110500000Y-101200000D03*
X130000000Y-99700000D03*
X92000000Y-98200000D03*
X127000000Y-101200000D03*
X97700000Y-74475000D03*
X93500000Y-99700000D03*
X137500000Y-98700000D03*
X89000000Y-101200000D03*
X134500000Y-100200000D03*
X98500000Y-101200000D03*
X119020000Y-74970000D03*
X122020000Y-71970000D03*
X98500000Y-96700000D03*
X154025000Y-109075000D03*
X121000000Y-101200000D03*
X139000000Y-103200000D03*
X143500000Y-101700000D03*
X145000000Y-101700000D03*
X116500000Y-99700000D03*
X128500000Y-99700000D03*
X97000000Y-98200000D03*
X89000000Y-98200000D03*
X87500000Y-98200000D03*
X123520000Y-74970000D03*
X113330000Y-86240000D03*
X101500000Y-98200000D03*
X123520000Y-73470000D03*
X87500000Y-101200000D03*
X106920000Y-79380000D03*
X114830000Y-84740000D03*
X153425000Y-105200000D03*
X96200000Y-74475000D03*
X155734000Y-85710000D03*
X161068000Y-97882000D03*
X159290000Y-92802000D03*
X98500000Y-99700000D03*
X156550000Y-84720000D03*
X89000000Y-96700000D03*
X92000000Y-96700000D03*
X129650000Y-83300000D03*
X134500000Y-103200000D03*
D13*
X129000000Y-85940958D03*
D12*
X126150000Y-77075000D03*
X88250000Y-89625000D03*
D13*
X130900000Y-74525000D03*
D14*
X89975000Y-88650000D03*
D12*
X115650000Y-79575000D03*
D14*
X106225000Y-76650000D03*
X157850000Y-83775000D03*
D12*
X164150000Y-111725000D03*
D14*
X153050000Y-93696500D03*
D12*
X163975000Y-113750000D03*
X135922000Y-78324000D03*
X133636000Y-74768000D03*
D13*
X160188750Y-96053250D03*
X160372000Y-90902500D03*
X152150000Y-95350000D03*
X159356000Y-83790500D03*
X132300000Y-91100000D03*
D12*
X115550000Y-81115000D03*
X104550000Y-76425000D03*
X108475000Y-82125000D03*
X104740000Y-81850000D03*
D15*
X124969800Y-67343000D02*
X124969800Y-75894800D01*
X124969800Y-75894800D02*
X126150000Y-77075000D01*
X93250000Y-90375000D02*
X115050000Y-90375000D01*
X115050000Y-90375000D02*
X130900000Y-74525000D01*
X89000000Y-90375000D02*
X88250000Y-89625000D01*
X93250000Y-90375000D02*
X89000000Y-90375000D01*
X116850000Y-75025000D02*
X116830000Y-75005000D01*
X116830000Y-75005000D02*
X106770000Y-75005000D01*
X106200000Y-76625000D02*
X106225000Y-76650000D01*
X115650000Y-79575000D02*
X116800000Y-79575000D01*
D16*
X93900786Y-88650000D02*
X105900786Y-76650000D01*
D15*
X106200000Y-75575000D02*
X106200000Y-76625000D01*
D16*
X89975000Y-88650000D02*
X93900786Y-88650000D01*
X105900786Y-76650000D02*
X106225000Y-76650000D01*
D15*
X116850000Y-79525000D02*
X116850000Y-75025000D01*
X106770000Y-75005000D02*
X106200000Y-75575000D01*
X116800000Y-79575000D02*
X116850000Y-79525000D01*
X164150000Y-110108000D02*
X153050000Y-99008000D01*
X164150000Y-111725000D02*
X164150000Y-110108000D01*
X153050000Y-85475000D02*
X153050000Y-93696500D01*
X157850000Y-83775000D02*
X154750000Y-83775000D01*
X154750000Y-83775000D02*
X153050000Y-85475000D01*
X153050000Y-99008000D02*
X153050000Y-93696500D01*
X153039339Y-107800000D02*
X135922000Y-90682661D01*
X154050000Y-107800000D02*
X153039339Y-107800000D01*
X163975000Y-113750000D02*
X160807000Y-110582000D01*
X156832000Y-110582000D02*
X154050000Y-107800000D01*
X160807000Y-110582000D02*
X156832000Y-110582000D01*
X135922000Y-90682661D02*
X135922000Y-78324000D01*
X133636000Y-101443000D02*
X133636000Y-74768000D01*
X125101600Y-109977400D02*
X133636000Y-101443000D01*
X160188750Y-96053250D02*
X160372000Y-95870000D01*
X160372000Y-95870000D02*
X160372000Y-90902500D01*
X152150000Y-95350000D02*
X152150000Y-85350000D01*
X154725000Y-82775000D02*
X158340500Y-82775000D01*
X158340500Y-82775000D02*
X159356000Y-83790500D01*
X152150000Y-85350000D02*
X154725000Y-82775000D01*
X104550000Y-75470000D02*
X104550000Y-76425000D01*
X105715000Y-74305000D02*
X104550000Y-75470000D01*
X117550000Y-74425000D02*
X117430000Y-74305000D01*
X117550000Y-80705000D02*
X117550000Y-74425000D01*
X117140000Y-81115000D02*
X117550000Y-80705000D01*
X115550000Y-81115000D02*
X117140000Y-81115000D01*
X117430000Y-74305000D02*
X105715000Y-74305000D01*
D17*
X104740000Y-81850000D02*
X104775000Y-81850000D01*
X104775000Y-81850000D02*
X105050000Y-82125000D01*
X105050000Y-82125000D02*
X108475000Y-82125000D01*
G04 #@! TA.AperFunction,Conductor*
G36*
X165304427Y-40510905D02*
G01*
X165462991Y-40525287D01*
X165479900Y-40528317D01*
X165629599Y-40568812D01*
X165645725Y-40574718D01*
X165764818Y-40630483D01*
X165786171Y-40640482D01*
X165801038Y-40649089D01*
X165927999Y-40738139D01*
X165941154Y-40749186D01*
X166050813Y-40858845D01*
X166061860Y-40872000D01*
X166150910Y-40998961D01*
X166159517Y-41013828D01*
X166225280Y-41154272D01*
X166231187Y-41170402D01*
X166271682Y-41320099D01*
X166274712Y-41337008D01*
X166289095Y-41495572D01*
X166289500Y-41504515D01*
X166289500Y-46662186D01*
X166270593Y-46720377D01*
X166268404Y-46723275D01*
X166231205Y-46770713D01*
X166231197Y-46770724D01*
X166139792Y-46944363D01*
X166139789Y-46944371D01*
X166081216Y-47131643D01*
X166081215Y-47131650D01*
X166081215Y-47131651D01*
X166057391Y-47326433D01*
X166069102Y-47522316D01*
X166069103Y-47522320D01*
X166115963Y-47712867D01*
X166115963Y-47712868D01*
X166196437Y-47891844D01*
X166196440Y-47891849D01*
X166307878Y-48053355D01*
X166307879Y-48053356D01*
X166307882Y-48053360D01*
X166446640Y-48192118D01*
X166446643Y-48192120D01*
X166446644Y-48192121D01*
X166576447Y-48281684D01*
X166608156Y-48303563D01*
X166787129Y-48384036D01*
X166977684Y-48430898D01*
X167173567Y-48442609D01*
X167368349Y-48418785D01*
X167368355Y-48418783D01*
X167368356Y-48418783D01*
X167523736Y-48370185D01*
X167555635Y-48360208D01*
X167729278Y-48268801D01*
X167776723Y-48231596D01*
X167834181Y-48210567D01*
X167837813Y-48210500D01*
X172995484Y-48210500D01*
X173004427Y-48210905D01*
X173162991Y-48225287D01*
X173179900Y-48228317D01*
X173188458Y-48230632D01*
X173329599Y-48268812D01*
X173345725Y-48274718D01*
X173391183Y-48296004D01*
X173486171Y-48340482D01*
X173501038Y-48349089D01*
X173627999Y-48438139D01*
X173641154Y-48449186D01*
X173750813Y-48558845D01*
X173761860Y-48572000D01*
X173850910Y-48698961D01*
X173859517Y-48713828D01*
X173925280Y-48854272D01*
X173931187Y-48870402D01*
X173971682Y-49020099D01*
X173974712Y-49037008D01*
X173989095Y-49195572D01*
X173989500Y-49204515D01*
X173989500Y-129795484D01*
X173989095Y-129804427D01*
X173974712Y-129962991D01*
X173971682Y-129979900D01*
X173931187Y-130129597D01*
X173925280Y-130145727D01*
X173859517Y-130286171D01*
X173850910Y-130301038D01*
X173761860Y-130427999D01*
X173750813Y-130441154D01*
X173641154Y-130550813D01*
X173627999Y-130561860D01*
X173501038Y-130650910D01*
X173486171Y-130659517D01*
X173345727Y-130725280D01*
X173329597Y-130731187D01*
X173179900Y-130771682D01*
X173162991Y-130774712D01*
X173004427Y-130789095D01*
X172995484Y-130789500D01*
X167837813Y-130789500D01*
X167779622Y-130770593D01*
X167776723Y-130768404D01*
X167764768Y-130759029D01*
X167729278Y-130731199D01*
X167729276Y-130731198D01*
X167729275Y-130731197D01*
X167555636Y-130639792D01*
X167555628Y-130639789D01*
X167368356Y-130581216D01*
X167368349Y-130581215D01*
X167173567Y-130557391D01*
X167173565Y-130557391D01*
X167145023Y-130559097D01*
X166977684Y-130569102D01*
X166977680Y-130569102D01*
X166977679Y-130569103D01*
X166787132Y-130615963D01*
X166787131Y-130615963D01*
X166608155Y-130696437D01*
X166608150Y-130696440D01*
X166446644Y-130807878D01*
X166307878Y-130946644D01*
X166196440Y-131108150D01*
X166196437Y-131108155D01*
X166115963Y-131287131D01*
X166115963Y-131287132D01*
X166069102Y-131477684D01*
X166063172Y-131576873D01*
X166057391Y-131673565D01*
X166081216Y-131868356D01*
X166139789Y-132055628D01*
X166139792Y-132055636D01*
X166231197Y-132229275D01*
X166231201Y-132229282D01*
X166268403Y-132276721D01*
X166289433Y-132334179D01*
X166289500Y-132337812D01*
X166289500Y-137495484D01*
X166289095Y-137504427D01*
X166274712Y-137662991D01*
X166271682Y-137679900D01*
X166231187Y-137829597D01*
X166225280Y-137845727D01*
X166159517Y-137986171D01*
X166150910Y-138001038D01*
X166061860Y-138127999D01*
X166050813Y-138141154D01*
X165941154Y-138250813D01*
X165927999Y-138261860D01*
X165801038Y-138350910D01*
X165786171Y-138359517D01*
X165645727Y-138425280D01*
X165629597Y-138431187D01*
X165479900Y-138471682D01*
X165462991Y-138474712D01*
X165304427Y-138489095D01*
X165295484Y-138489500D01*
X84704516Y-138489500D01*
X84695573Y-138489095D01*
X84537008Y-138474712D01*
X84520099Y-138471682D01*
X84370402Y-138431187D01*
X84354272Y-138425280D01*
X84213828Y-138359517D01*
X84198961Y-138350910D01*
X84072000Y-138261860D01*
X84058845Y-138250813D01*
X83949186Y-138141154D01*
X83938139Y-138127999D01*
X83849089Y-138001038D01*
X83840482Y-137986171D01*
X83774719Y-137845727D01*
X83768812Y-137829597D01*
X83750586Y-137762223D01*
X83728317Y-137679900D01*
X83725287Y-137662991D01*
X83718517Y-137588356D01*
X83710905Y-137504427D01*
X83710500Y-137495484D01*
X83710500Y-135599996D01*
X118184876Y-135599996D01*
X118184876Y-135600003D01*
X118203334Y-135810996D01*
X118203335Y-135811003D01*
X118203336Y-135811004D01*
X118258157Y-136015597D01*
X118347672Y-136207562D01*
X118469161Y-136381067D01*
X118618933Y-136530839D01*
X118792438Y-136652328D01*
X118984403Y-136741843D01*
X119188996Y-136796664D01*
X119189000Y-136796664D01*
X119189003Y-136796665D01*
X119399997Y-136815124D01*
X119400000Y-136815124D01*
X119400003Y-136815124D01*
X119610996Y-136796665D01*
X119610997Y-136796664D01*
X119611004Y-136796664D01*
X119815597Y-136741843D01*
X120007562Y-136652328D01*
X120181067Y-136530839D01*
X120330839Y-136381067D01*
X120452328Y-136207562D01*
X120541843Y-136015597D01*
X120596664Y-135811004D01*
X120615124Y-135600000D01*
X120596664Y-135388996D01*
X120541843Y-135184403D01*
X120452328Y-134992438D01*
X120330839Y-134818933D01*
X120181067Y-134669161D01*
X120181063Y-134669158D01*
X120181062Y-134669157D01*
X120084803Y-134601756D01*
X120007562Y-134547672D01*
X119815597Y-134458157D01*
X119611004Y-134403336D01*
X119611003Y-134403335D01*
X119610996Y-134403334D01*
X119400003Y-134384876D01*
X119399997Y-134384876D01*
X119189003Y-134403334D01*
X119124153Y-134420710D01*
X118984403Y-134458157D01*
X118894889Y-134499898D01*
X118792439Y-134547671D01*
X118618937Y-134669157D01*
X118469157Y-134818937D01*
X118347671Y-134992439D01*
X118258157Y-135184404D01*
X118203334Y-135389003D01*
X118184876Y-135599996D01*
X83710500Y-135599996D01*
X83710500Y-132337812D01*
X83729407Y-132279621D01*
X83731597Y-132276721D01*
X83768798Y-132229282D01*
X83768798Y-132229281D01*
X83768801Y-132229278D01*
X83860208Y-132055635D01*
X83918785Y-131868349D01*
X83942609Y-131673567D01*
X83930898Y-131477684D01*
X83884036Y-131287129D01*
X83803563Y-131108156D01*
X83692118Y-130946640D01*
X83553360Y-130807882D01*
X83553356Y-130807879D01*
X83553355Y-130807878D01*
X83391849Y-130696440D01*
X83391844Y-130696437D01*
X83290591Y-130650910D01*
X83212871Y-130615964D01*
X83212869Y-130615963D01*
X83212868Y-130615963D01*
X83022320Y-130569103D01*
X83022316Y-130569102D01*
X82840704Y-130558244D01*
X82826434Y-130557391D01*
X82826433Y-130557391D01*
X82631651Y-130581215D01*
X82631643Y-130581216D01*
X82444371Y-130639789D01*
X82444363Y-130639792D01*
X82270724Y-130731197D01*
X82270719Y-130731201D01*
X82223277Y-130768404D01*
X82165819Y-130789433D01*
X82162187Y-130789500D01*
X77004516Y-130789500D01*
X76995573Y-130789095D01*
X76837008Y-130774712D01*
X76820099Y-130771682D01*
X76670402Y-130731187D01*
X76654272Y-130725280D01*
X76513828Y-130659517D01*
X76498961Y-130650910D01*
X76372000Y-130561860D01*
X76358845Y-130550813D01*
X76249186Y-130441154D01*
X76238139Y-130427999D01*
X76149089Y-130301038D01*
X76140482Y-130286171D01*
X76074719Y-130145727D01*
X76068812Y-130129597D01*
X76050586Y-130062223D01*
X76028317Y-129979900D01*
X76025287Y-129962991D01*
X76018517Y-129888356D01*
X76010905Y-129804427D01*
X76010500Y-129795484D01*
X76010500Y-109977395D01*
X95896057Y-109977395D01*
X95896057Y-109977404D01*
X95916211Y-110336297D01*
X95916214Y-110336317D01*
X95976424Y-110690687D01*
X95976428Y-110690707D01*
X96075940Y-111036123D01*
X96213507Y-111368237D01*
X96331950Y-111582543D01*
X96387389Y-111682852D01*
X96595406Y-111976023D01*
X96834939Y-112244061D01*
X97102977Y-112483594D01*
X97396148Y-112691611D01*
X97396150Y-112691612D01*
X97710763Y-112865492D01*
X97710762Y-112865492D01*
X98042876Y-113003059D01*
X98388292Y-113102571D01*
X98388295Y-113102571D01*
X98388300Y-113102573D01*
X98742693Y-113162787D01*
X98742696Y-113162787D01*
X98742702Y-113162788D01*
X99101595Y-113182943D01*
X99101600Y-113182943D01*
X99101605Y-113182943D01*
X99460497Y-113162788D01*
X99460501Y-113162787D01*
X99460507Y-113162787D01*
X99814900Y-113102573D01*
X100160324Y-113003059D01*
X100492433Y-112865494D01*
X100807052Y-112691611D01*
X101100223Y-112483594D01*
X101368261Y-112244061D01*
X101607794Y-111976023D01*
X101815811Y-111682852D01*
X101989694Y-111368233D01*
X102127259Y-111036124D01*
X102226773Y-110690700D01*
X102286987Y-110336307D01*
X102287027Y-110335610D01*
X102307143Y-109977404D01*
X102307143Y-109977395D01*
X121896057Y-109977395D01*
X121896057Y-109977404D01*
X121916211Y-110336297D01*
X121916214Y-110336317D01*
X121976424Y-110690687D01*
X121976428Y-110690707D01*
X122075940Y-111036123D01*
X122213507Y-111368237D01*
X122331950Y-111582543D01*
X122387389Y-111682852D01*
X122595406Y-111976023D01*
X122834939Y-112244061D01*
X123102977Y-112483594D01*
X123396148Y-112691611D01*
X123396150Y-112691612D01*
X123710763Y-112865492D01*
X123710762Y-112865492D01*
X124042876Y-113003059D01*
X124388292Y-113102571D01*
X124388295Y-113102571D01*
X124388300Y-113102573D01*
X124742693Y-113162787D01*
X124742696Y-113162787D01*
X124742702Y-113162788D01*
X125101595Y-113182943D01*
X125101600Y-113182943D01*
X125101605Y-113182943D01*
X125460497Y-113162788D01*
X125460501Y-113162787D01*
X125460507Y-113162787D01*
X125814900Y-113102573D01*
X126160324Y-113003059D01*
X126492433Y-112865494D01*
X126807052Y-112691611D01*
X127100223Y-112483594D01*
X127368261Y-112244061D01*
X127607794Y-111976023D01*
X127815811Y-111682852D01*
X127989694Y-111368233D01*
X128127259Y-111036124D01*
X128226773Y-110690700D01*
X128286987Y-110336307D01*
X128287027Y-110335610D01*
X128307143Y-109977404D01*
X128307143Y-109977395D01*
X145896057Y-109977395D01*
X145896057Y-109977404D01*
X145916211Y-110336297D01*
X145916214Y-110336317D01*
X145976424Y-110690687D01*
X145976428Y-110690707D01*
X146075940Y-111036123D01*
X146213507Y-111368237D01*
X146331950Y-111582543D01*
X146387389Y-111682852D01*
X146595406Y-111976023D01*
X146834939Y-112244061D01*
X147102977Y-112483594D01*
X147396148Y-112691611D01*
X147396150Y-112691612D01*
X147710763Y-112865492D01*
X147710762Y-112865492D01*
X148042876Y-113003059D01*
X148388292Y-113102571D01*
X148388295Y-113102571D01*
X148388300Y-113102573D01*
X148742693Y-113162787D01*
X148742696Y-113162787D01*
X148742702Y-113162788D01*
X149101595Y-113182943D01*
X149101600Y-113182943D01*
X149101605Y-113182943D01*
X149460497Y-113162788D01*
X149460501Y-113162787D01*
X149460507Y-113162787D01*
X149814900Y-113102573D01*
X150160324Y-113003059D01*
X150492433Y-112865494D01*
X150807052Y-112691611D01*
X151100223Y-112483594D01*
X151368261Y-112244061D01*
X151607794Y-111976023D01*
X151815811Y-111682852D01*
X151989694Y-111368233D01*
X152127259Y-111036124D01*
X152226773Y-110690700D01*
X152286987Y-110336307D01*
X152287027Y-110335610D01*
X152307143Y-109977404D01*
X152307143Y-109977395D01*
X152286988Y-109618502D01*
X152286985Y-109618482D01*
X152226775Y-109264112D01*
X152226771Y-109264092D01*
X152127259Y-108918676D01*
X151989692Y-108586562D01*
X151815812Y-108271950D01*
X151800592Y-108250500D01*
X151607794Y-107978777D01*
X151368261Y-107710739D01*
X151100223Y-107471206D01*
X151100220Y-107471204D01*
X151100218Y-107471202D01*
X150807049Y-107263187D01*
X150492436Y-107089307D01*
X150492437Y-107089307D01*
X150160323Y-106951740D01*
X149814907Y-106852228D01*
X149814887Y-106852224D01*
X149460517Y-106792014D01*
X149460497Y-106792011D01*
X149101605Y-106771857D01*
X149101595Y-106771857D01*
X148742702Y-106792011D01*
X148742682Y-106792014D01*
X148388312Y-106852224D01*
X148388292Y-106852228D01*
X148042876Y-106951740D01*
X147710762Y-107089307D01*
X147396150Y-107263187D01*
X147102981Y-107471202D01*
X146834946Y-107710732D01*
X146834932Y-107710746D01*
X146595402Y-107978781D01*
X146387387Y-108271950D01*
X146213507Y-108586562D01*
X146075940Y-108918676D01*
X145976428Y-109264092D01*
X145976424Y-109264112D01*
X145916214Y-109618482D01*
X145916211Y-109618502D01*
X145896057Y-109977395D01*
X128307143Y-109977395D01*
X128286988Y-109618502D01*
X128286985Y-109618482D01*
X128226775Y-109264112D01*
X128226771Y-109264092D01*
X128127259Y-108918676D01*
X127989692Y-108586562D01*
X127815812Y-108271950D01*
X127814008Y-108269407D01*
X127709930Y-108122724D01*
X127691677Y-108064328D01*
X127711236Y-108006353D01*
X127720660Y-107995441D01*
X133996489Y-101719614D01*
X134055799Y-101616887D01*
X134058741Y-101605903D01*
X134062287Y-101592672D01*
X134062287Y-101592669D01*
X134086500Y-101502309D01*
X134086500Y-78323997D01*
X135416353Y-78323997D01*
X135416353Y-78324002D01*
X135436833Y-78466454D01*
X135450286Y-78495911D01*
X135462553Y-78522771D01*
X135471500Y-78563897D01*
X135471500Y-90741972D01*
X135485655Y-90794796D01*
X135485655Y-90794798D01*
X135485656Y-90794798D01*
X135485656Y-90794799D01*
X135502201Y-90856548D01*
X135502202Y-90856550D01*
X135502203Y-90856553D01*
X135561507Y-90959270D01*
X135561509Y-90959272D01*
X135561511Y-90959275D01*
X152762725Y-108160489D01*
X152762727Y-108160490D01*
X152762729Y-108160492D01*
X152865446Y-108219796D01*
X152865448Y-108219797D01*
X152865452Y-108219799D01*
X152889661Y-108226284D01*
X152889664Y-108226287D01*
X152889665Y-108226286D01*
X152980027Y-108250499D01*
X152980029Y-108250500D01*
X152980030Y-108250500D01*
X153822389Y-108250500D01*
X153880580Y-108269407D01*
X153892393Y-108279496D01*
X156555386Y-110942489D01*
X156555388Y-110942490D01*
X156555389Y-110942491D01*
X156555390Y-110942492D01*
X156658107Y-111001796D01*
X156658109Y-111001797D01*
X156658113Y-111001799D01*
X156682322Y-111008284D01*
X156682325Y-111008287D01*
X156682326Y-111008286D01*
X156772688Y-111032499D01*
X156772690Y-111032500D01*
X156772691Y-111032500D01*
X160579389Y-111032500D01*
X160637580Y-111051407D01*
X160649393Y-111061496D01*
X163485176Y-113897280D01*
X163505225Y-113926157D01*
X163549623Y-114023373D01*
X163643872Y-114132143D01*
X163643873Y-114132144D01*
X163764942Y-114209950D01*
X163764947Y-114209953D01*
X163871403Y-114241211D01*
X163903035Y-114250499D01*
X163903036Y-114250499D01*
X163903039Y-114250500D01*
X163903041Y-114250500D01*
X164046959Y-114250500D01*
X164046961Y-114250500D01*
X164185053Y-114209953D01*
X164306128Y-114132143D01*
X164400377Y-114023373D01*
X164460165Y-113892457D01*
X164480647Y-113750000D01*
X164460165Y-113607543D01*
X164400377Y-113476627D01*
X164306128Y-113367857D01*
X164306127Y-113367856D01*
X164306126Y-113367855D01*
X164185054Y-113290047D01*
X164162719Y-113283489D01*
X164120607Y-113258503D01*
X163553715Y-112691611D01*
X161083614Y-110221511D01*
X161083611Y-110221509D01*
X161083610Y-110221508D01*
X161083609Y-110221507D01*
X160980890Y-110162202D01*
X160980886Y-110162200D01*
X160956673Y-110155712D01*
X160956673Y-110155713D01*
X160866309Y-110131500D01*
X160866307Y-110131500D01*
X157059611Y-110131500D01*
X157001420Y-110112593D01*
X156989607Y-110102504D01*
X155805779Y-108918676D01*
X154326614Y-107439511D01*
X154326611Y-107439509D01*
X154326610Y-107439508D01*
X154326609Y-107439507D01*
X154223890Y-107380202D01*
X154223886Y-107380200D01*
X154199673Y-107373712D01*
X154199673Y-107373713D01*
X154109309Y-107349500D01*
X154109307Y-107349500D01*
X153266950Y-107349500D01*
X153208759Y-107330593D01*
X153196946Y-107320504D01*
X141226441Y-95349999D01*
X151544318Y-95349999D01*
X151544318Y-95350000D01*
X151564955Y-95506758D01*
X151564957Y-95506766D01*
X151625462Y-95652838D01*
X151625462Y-95652839D01*
X151700500Y-95750630D01*
X151721718Y-95778282D01*
X151847159Y-95874536D01*
X151847160Y-95874536D01*
X151847161Y-95874537D01*
X151993233Y-95935042D01*
X151993238Y-95935044D01*
X152110809Y-95950522D01*
X152149999Y-95955682D01*
X152150000Y-95955682D01*
X152150001Y-95955682D01*
X152181352Y-95951554D01*
X152306762Y-95935044D01*
X152388080Y-95901361D01*
X152458837Y-95872053D01*
X152459553Y-95873783D01*
X152510833Y-95862876D01*
X152566733Y-95887754D01*
X152597333Y-95940737D01*
X152599500Y-95961335D01*
X152599500Y-99067309D01*
X152623713Y-99157673D01*
X152623712Y-99157673D01*
X152630200Y-99181886D01*
X152630202Y-99181890D01*
X152689507Y-99284609D01*
X152689509Y-99284611D01*
X152689511Y-99284614D01*
X163670505Y-110265608D01*
X163698281Y-110320123D01*
X163699500Y-110335610D01*
X163699500Y-111485102D01*
X163690553Y-111526229D01*
X163664834Y-111582543D01*
X163644353Y-111724997D01*
X163644353Y-111725002D01*
X163664834Y-111867456D01*
X163714414Y-111976018D01*
X163724623Y-111998373D01*
X163818872Y-112107143D01*
X163818873Y-112107144D01*
X163939942Y-112184950D01*
X163939947Y-112184953D01*
X164046403Y-112216211D01*
X164078035Y-112225499D01*
X164078036Y-112225499D01*
X164078039Y-112225500D01*
X164078041Y-112225500D01*
X164221959Y-112225500D01*
X164221961Y-112225500D01*
X164360053Y-112184953D01*
X164481128Y-112107143D01*
X164575377Y-111998373D01*
X164635165Y-111867457D01*
X164655647Y-111725000D01*
X164635165Y-111582543D01*
X164609447Y-111526229D01*
X164600500Y-111485102D01*
X164600500Y-110048692D01*
X164600500Y-110048691D01*
X164569799Y-109934114D01*
X164560548Y-109918091D01*
X164510490Y-109831387D01*
X153529496Y-98850393D01*
X153501719Y-98795876D01*
X153500500Y-98780389D01*
X153500500Y-96053249D01*
X159583068Y-96053249D01*
X159583068Y-96053250D01*
X159603705Y-96210008D01*
X159603707Y-96210016D01*
X159664212Y-96356088D01*
X159664212Y-96356089D01*
X159664214Y-96356091D01*
X159760468Y-96481532D01*
X159885909Y-96577786D01*
X160031988Y-96638294D01*
X160149559Y-96653772D01*
X160188749Y-96658932D01*
X160188750Y-96658932D01*
X160188751Y-96658932D01*
X160220102Y-96654804D01*
X160345512Y-96638294D01*
X160491591Y-96577786D01*
X160617032Y-96481532D01*
X160713286Y-96356091D01*
X160773794Y-96210012D01*
X160794432Y-96053250D01*
X160794432Y-96053248D01*
X160794432Y-96047093D01*
X160797805Y-96021470D01*
X160822500Y-95929309D01*
X160822500Y-95099996D01*
X169884876Y-95099996D01*
X169884876Y-95100003D01*
X169903334Y-95310996D01*
X169903335Y-95311003D01*
X169903336Y-95311004D01*
X169958157Y-95515597D01*
X170047672Y-95707562D01*
X170097193Y-95778286D01*
X170164588Y-95874537D01*
X170169161Y-95881067D01*
X170318933Y-96030839D01*
X170318936Y-96030841D01*
X170318937Y-96030842D01*
X170350938Y-96053249D01*
X170492438Y-96152328D01*
X170684403Y-96241843D01*
X170888996Y-96296664D01*
X170889000Y-96296664D01*
X170889003Y-96296665D01*
X171099997Y-96315124D01*
X171100000Y-96315124D01*
X171100003Y-96315124D01*
X171310996Y-96296665D01*
X171310997Y-96296664D01*
X171311004Y-96296664D01*
X171515597Y-96241843D01*
X171707562Y-96152328D01*
X171881067Y-96030839D01*
X172030839Y-95881067D01*
X172152328Y-95707562D01*
X172241843Y-95515597D01*
X172296664Y-95311004D01*
X172306968Y-95193233D01*
X172315124Y-95100003D01*
X172315124Y-95099996D01*
X172296665Y-94889003D01*
X172296664Y-94889000D01*
X172296664Y-94888996D01*
X172241843Y-94684403D01*
X172152328Y-94492438D01*
X172030839Y-94318933D01*
X171881067Y-94169161D01*
X171881063Y-94169158D01*
X171881062Y-94169157D01*
X171784803Y-94101756D01*
X171707562Y-94047672D01*
X171515597Y-93958157D01*
X171311004Y-93903336D01*
X171311003Y-93903335D01*
X171310996Y-93903334D01*
X171100003Y-93884876D01*
X171099997Y-93884876D01*
X170889003Y-93903334D01*
X170824153Y-93920710D01*
X170684403Y-93958157D01*
X170594889Y-93999898D01*
X170492439Y-94047671D01*
X170318937Y-94169157D01*
X170169157Y-94318937D01*
X170047671Y-94492439D01*
X169958157Y-94684404D01*
X169903334Y-94889003D01*
X169884876Y-95099996D01*
X160822500Y-95099996D01*
X160822500Y-91335432D01*
X160841407Y-91277241D01*
X160842936Y-91275193D01*
X160896536Y-91205341D01*
X160957044Y-91059262D01*
X160977682Y-90902500D01*
X160957044Y-90745738D01*
X160896537Y-90599661D01*
X160896537Y-90599660D01*
X160800286Y-90474223D01*
X160800285Y-90474222D01*
X160800282Y-90474218D01*
X160800277Y-90474214D01*
X160800276Y-90474213D01*
X160674838Y-90377962D01*
X160528766Y-90317457D01*
X160528758Y-90317455D01*
X160372001Y-90296818D01*
X160371999Y-90296818D01*
X160215241Y-90317455D01*
X160215233Y-90317457D01*
X160069161Y-90377962D01*
X160069160Y-90377962D01*
X159943723Y-90474213D01*
X159943713Y-90474223D01*
X159847462Y-90599660D01*
X159847462Y-90599661D01*
X159786957Y-90745733D01*
X159786955Y-90745741D01*
X159766318Y-90902499D01*
X159766318Y-90902500D01*
X159786955Y-91059258D01*
X159786957Y-91059266D01*
X159847462Y-91205338D01*
X159847463Y-91205340D01*
X159847464Y-91205341D01*
X159901042Y-91275165D01*
X159921466Y-91332840D01*
X159921500Y-91335432D01*
X159921500Y-95452582D01*
X159902593Y-95510773D01*
X159882768Y-95531124D01*
X159760469Y-95624967D01*
X159760463Y-95624973D01*
X159664212Y-95750410D01*
X159664212Y-95750411D01*
X159603707Y-95896483D01*
X159603705Y-95896491D01*
X159583068Y-96053249D01*
X153500500Y-96053249D01*
X153500500Y-94211007D01*
X153519407Y-94152816D01*
X153533851Y-94136904D01*
X153540483Y-94131030D01*
X153630220Y-94001023D01*
X153686237Y-93853318D01*
X153705278Y-93696500D01*
X153686237Y-93539682D01*
X153630220Y-93391977D01*
X153540483Y-93261970D01*
X153533850Y-93256094D01*
X153502832Y-93203355D01*
X153500500Y-93181992D01*
X153500500Y-85702611D01*
X153519407Y-85644420D01*
X153529496Y-85632607D01*
X154907607Y-84254496D01*
X154962124Y-84226719D01*
X154977611Y-84225500D01*
X157339998Y-84225500D01*
X157398189Y-84244407D01*
X157405648Y-84250397D01*
X157477760Y-84314283D01*
X157617635Y-84387696D01*
X157771015Y-84425500D01*
X157771018Y-84425500D01*
X157928982Y-84425500D01*
X157928985Y-84425500D01*
X158082365Y-84387696D01*
X158222240Y-84314283D01*
X158340483Y-84209530D01*
X158430220Y-84079523D01*
X158486237Y-83931818D01*
X158502221Y-83800177D01*
X158528004Y-83744689D01*
X158581478Y-83714954D01*
X158642218Y-83722329D01*
X158670503Y-83742106D01*
X158731318Y-83802921D01*
X158759095Y-83857438D01*
X158759467Y-83860002D01*
X158770956Y-83947262D01*
X158831462Y-84093338D01*
X158831462Y-84093339D01*
X158927713Y-84218776D01*
X158927718Y-84218782D01*
X159053159Y-84315036D01*
X159053160Y-84315036D01*
X159053161Y-84315037D01*
X159199233Y-84375542D01*
X159199238Y-84375544D01*
X159316809Y-84391022D01*
X159355999Y-84396182D01*
X159356000Y-84396182D01*
X159356001Y-84396182D01*
X159387352Y-84392054D01*
X159512762Y-84375544D01*
X159658841Y-84315036D01*
X159784282Y-84218782D01*
X159880536Y-84093341D01*
X159941044Y-83947262D01*
X159961682Y-83790500D01*
X159941044Y-83633738D01*
X159941042Y-83633733D01*
X159880537Y-83487661D01*
X159880537Y-83487660D01*
X159784286Y-83362223D01*
X159784285Y-83362222D01*
X159784282Y-83362218D01*
X159784277Y-83362214D01*
X159784276Y-83362213D01*
X159658838Y-83265962D01*
X159512762Y-83205456D01*
X159425502Y-83193967D01*
X159370277Y-83167625D01*
X159368421Y-83165818D01*
X159037806Y-82835203D01*
X158617114Y-82414511D01*
X158617111Y-82414509D01*
X158617110Y-82414508D01*
X158617109Y-82414507D01*
X158514390Y-82355202D01*
X158514386Y-82355200D01*
X158490173Y-82348712D01*
X158490173Y-82348713D01*
X158399809Y-82324500D01*
X154665691Y-82324500D01*
X154620508Y-82336606D01*
X154575325Y-82348713D01*
X154575324Y-82348712D01*
X154551112Y-82355201D01*
X154551109Y-82355202D01*
X154448390Y-82414507D01*
X151789507Y-85073390D01*
X151730200Y-85176112D01*
X151730200Y-85176113D01*
X151730201Y-85176114D01*
X151699500Y-85290692D01*
X151699500Y-94917067D01*
X151680593Y-94975258D01*
X151679042Y-94977334D01*
X151625462Y-95047160D01*
X151625462Y-95047161D01*
X151564957Y-95193233D01*
X151564955Y-95193241D01*
X151544318Y-95349999D01*
X141226441Y-95349999D01*
X136401496Y-90525054D01*
X136373719Y-90470537D01*
X136372500Y-90455050D01*
X136372500Y-78563897D01*
X136381446Y-78522771D01*
X136407165Y-78466457D01*
X136407165Y-78466455D01*
X136407166Y-78466454D01*
X136427647Y-78324002D01*
X136427647Y-78323997D01*
X136407165Y-78181543D01*
X136347377Y-78050628D01*
X136347377Y-78050627D01*
X136253128Y-77941857D01*
X136253127Y-77941856D01*
X136253126Y-77941855D01*
X136132057Y-77864049D01*
X136132054Y-77864047D01*
X136132053Y-77864047D01*
X136132050Y-77864046D01*
X135993964Y-77823500D01*
X135993961Y-77823500D01*
X135850039Y-77823500D01*
X135850035Y-77823500D01*
X135711949Y-77864046D01*
X135711942Y-77864049D01*
X135590873Y-77941855D01*
X135496622Y-78050628D01*
X135436834Y-78181543D01*
X135416353Y-78323997D01*
X134086500Y-78323997D01*
X134086500Y-75007897D01*
X134095446Y-74966771D01*
X134121165Y-74910457D01*
X134121165Y-74910455D01*
X134121166Y-74910454D01*
X134141647Y-74768002D01*
X134141647Y-74767997D01*
X134121165Y-74625543D01*
X134075248Y-74525000D01*
X134061377Y-74494627D01*
X133967128Y-74385857D01*
X133967127Y-74385856D01*
X133967126Y-74385855D01*
X133846057Y-74308049D01*
X133846054Y-74308047D01*
X133846053Y-74308047D01*
X133846050Y-74308046D01*
X133707964Y-74267500D01*
X133707961Y-74267500D01*
X133564039Y-74267500D01*
X133564035Y-74267500D01*
X133425949Y-74308046D01*
X133425942Y-74308049D01*
X133304873Y-74385855D01*
X133210622Y-74494628D01*
X133150834Y-74625543D01*
X133130353Y-74767997D01*
X133130353Y-74768002D01*
X133150833Y-74910454D01*
X133164286Y-74939911D01*
X133176553Y-74966771D01*
X133185500Y-75007897D01*
X133185500Y-101215388D01*
X133166593Y-101273579D01*
X133156504Y-101285392D01*
X127083564Y-107358331D01*
X127029047Y-107386108D01*
X126968615Y-107376537D01*
X126956275Y-107369069D01*
X126807052Y-107263189D01*
X126807051Y-107263188D01*
X126807049Y-107263187D01*
X126492436Y-107089307D01*
X126492437Y-107089307D01*
X126160323Y-106951740D01*
X125814907Y-106852228D01*
X125814887Y-106852224D01*
X125460517Y-106792014D01*
X125460497Y-106792011D01*
X125101605Y-106771857D01*
X125101595Y-106771857D01*
X124742702Y-106792011D01*
X124742682Y-106792014D01*
X124388312Y-106852224D01*
X124388292Y-106852228D01*
X124042876Y-106951740D01*
X123710762Y-107089307D01*
X123396150Y-107263187D01*
X123102981Y-107471202D01*
X122834946Y-107710732D01*
X122834932Y-107710746D01*
X122595402Y-107978781D01*
X122387387Y-108271950D01*
X122213507Y-108586562D01*
X122075940Y-108918676D01*
X121976428Y-109264092D01*
X121976424Y-109264112D01*
X121916214Y-109618482D01*
X121916211Y-109618502D01*
X121896057Y-109977395D01*
X102307143Y-109977395D01*
X102286988Y-109618502D01*
X102286985Y-109618482D01*
X102226775Y-109264112D01*
X102226771Y-109264092D01*
X102127259Y-108918676D01*
X101989692Y-108586562D01*
X101815812Y-108271950D01*
X101800592Y-108250500D01*
X101607794Y-107978777D01*
X101368261Y-107710739D01*
X101100223Y-107471206D01*
X101100220Y-107471204D01*
X101100218Y-107471202D01*
X100807049Y-107263187D01*
X100492436Y-107089307D01*
X100492437Y-107089307D01*
X100160323Y-106951740D01*
X99814907Y-106852228D01*
X99814887Y-106852224D01*
X99460517Y-106792014D01*
X99460497Y-106792011D01*
X99101605Y-106771857D01*
X99101595Y-106771857D01*
X98742702Y-106792011D01*
X98742682Y-106792014D01*
X98388312Y-106852224D01*
X98388292Y-106852228D01*
X98042876Y-106951740D01*
X97710762Y-107089307D01*
X97396150Y-107263187D01*
X97102981Y-107471202D01*
X96834946Y-107710732D01*
X96834932Y-107710746D01*
X96595402Y-107978781D01*
X96387387Y-108271950D01*
X96213507Y-108586562D01*
X96075940Y-108918676D01*
X95976428Y-109264092D01*
X95976424Y-109264112D01*
X95916214Y-109618482D01*
X95916211Y-109618502D01*
X95896057Y-109977395D01*
X76010500Y-109977395D01*
X76010500Y-91099999D01*
X131694318Y-91099999D01*
X131694318Y-91100000D01*
X131714955Y-91256758D01*
X131714957Y-91256766D01*
X131775462Y-91402838D01*
X131775462Y-91402839D01*
X131775464Y-91402841D01*
X131871718Y-91528282D01*
X131997159Y-91624536D01*
X132143238Y-91685044D01*
X132260809Y-91700522D01*
X132299999Y-91705682D01*
X132300000Y-91705682D01*
X132300001Y-91705682D01*
X132331352Y-91701554D01*
X132456762Y-91685044D01*
X132602841Y-91624536D01*
X132728282Y-91528282D01*
X132824536Y-91402841D01*
X132885044Y-91256762D01*
X132905682Y-91100000D01*
X132885044Y-90943238D01*
X132826246Y-90801287D01*
X132824537Y-90797161D01*
X132824537Y-90797160D01*
X132728286Y-90671723D01*
X132728285Y-90671722D01*
X132728282Y-90671718D01*
X132728277Y-90671714D01*
X132728276Y-90671713D01*
X132634374Y-90599660D01*
X132602841Y-90575464D01*
X132602840Y-90575463D01*
X132602838Y-90575462D01*
X132456766Y-90514957D01*
X132456758Y-90514955D01*
X132300001Y-90494318D01*
X132299999Y-90494318D01*
X132143241Y-90514955D01*
X132143233Y-90514957D01*
X131997161Y-90575462D01*
X131997160Y-90575462D01*
X131871723Y-90671713D01*
X131871713Y-90671723D01*
X131775462Y-90797160D01*
X131775462Y-90797161D01*
X131714957Y-90943233D01*
X131714955Y-90943241D01*
X131694318Y-91099999D01*
X76010500Y-91099999D01*
X76010500Y-89624997D01*
X87744353Y-89624997D01*
X87744353Y-89625002D01*
X87764834Y-89767456D01*
X87785784Y-89813329D01*
X87824623Y-89898373D01*
X87904159Y-89990163D01*
X87918873Y-90007144D01*
X87969213Y-90039495D01*
X88039947Y-90084953D01*
X88062281Y-90091510D01*
X88104392Y-90116495D01*
X88723386Y-90735489D01*
X88723388Y-90735490D01*
X88723389Y-90735491D01*
X88723390Y-90735492D01*
X88826107Y-90794796D01*
X88826109Y-90794797D01*
X88826113Y-90794799D01*
X88850322Y-90801284D01*
X88850325Y-90801287D01*
X88850326Y-90801286D01*
X88940688Y-90825499D01*
X88940690Y-90825500D01*
X88940691Y-90825500D01*
X115109309Y-90825500D01*
X115199669Y-90801287D01*
X115199672Y-90801287D01*
X115215074Y-90797160D01*
X115223887Y-90794799D01*
X115326614Y-90735489D01*
X116562108Y-89499995D01*
X118277853Y-89499995D01*
X118277853Y-89500004D01*
X118295957Y-89660687D01*
X118295960Y-89660699D01*
X118349368Y-89813328D01*
X118349368Y-89813329D01*
X118419222Y-89924500D01*
X118435403Y-89950251D01*
X118549749Y-90064597D01*
X118549751Y-90064598D01*
X118549752Y-90064599D01*
X118632343Y-90116495D01*
X118686672Y-90150632D01*
X118706343Y-90157515D01*
X118839300Y-90204039D01*
X118839304Y-90204040D01*
X118839307Y-90204041D01*
X118839308Y-90204041D01*
X118839312Y-90204042D01*
X118999996Y-90222147D01*
X119000000Y-90222147D01*
X119000004Y-90222147D01*
X119160687Y-90204042D01*
X119160689Y-90204041D01*
X119160693Y-90204041D01*
X119313328Y-90150632D01*
X119450251Y-90064597D01*
X119450253Y-90064595D01*
X119475354Y-90039495D01*
X119529871Y-90011719D01*
X119545356Y-90010500D01*
X130454644Y-90010500D01*
X130512835Y-90029407D01*
X130524646Y-90039495D01*
X130549746Y-90064595D01*
X130549752Y-90064599D01*
X130632343Y-90116495D01*
X130686672Y-90150632D01*
X130706343Y-90157515D01*
X130839300Y-90204039D01*
X130839304Y-90204040D01*
X130839307Y-90204041D01*
X130839308Y-90204041D01*
X130839312Y-90204042D01*
X130999996Y-90222147D01*
X131000000Y-90222147D01*
X131000004Y-90222147D01*
X131160687Y-90204042D01*
X131160689Y-90204041D01*
X131160693Y-90204041D01*
X131313328Y-90150632D01*
X131450251Y-90064597D01*
X131564597Y-89950251D01*
X131650632Y-89813328D01*
X131704041Y-89660693D01*
X131704042Y-89660687D01*
X131722147Y-89500004D01*
X131722147Y-89499995D01*
X131704042Y-89339312D01*
X131704039Y-89339300D01*
X131670291Y-89242855D01*
X131650632Y-89186672D01*
X131637045Y-89165049D01*
X131564599Y-89049752D01*
X131564598Y-89049751D01*
X131564597Y-89049749D01*
X131450251Y-88935403D01*
X131450248Y-88935401D01*
X131450247Y-88935400D01*
X131313329Y-88849368D01*
X131160699Y-88795960D01*
X131160687Y-88795957D01*
X131000004Y-88777853D01*
X130999996Y-88777853D01*
X130839312Y-88795957D01*
X130839300Y-88795960D01*
X130686671Y-88849368D01*
X130686670Y-88849368D01*
X130549752Y-88935400D01*
X130549746Y-88935404D01*
X130524646Y-88960505D01*
X130470129Y-88988281D01*
X130454644Y-88989500D01*
X119545356Y-88989500D01*
X119487165Y-88970593D01*
X119475354Y-88960505D01*
X119450253Y-88935404D01*
X119450247Y-88935400D01*
X119313329Y-88849368D01*
X119160699Y-88795960D01*
X119160687Y-88795957D01*
X119000004Y-88777853D01*
X118999996Y-88777853D01*
X118839312Y-88795957D01*
X118839300Y-88795960D01*
X118686671Y-88849368D01*
X118686670Y-88849368D01*
X118549752Y-88935400D01*
X118435400Y-89049752D01*
X118349368Y-89186670D01*
X118349368Y-89186671D01*
X118295960Y-89339300D01*
X118295957Y-89339312D01*
X118277853Y-89499995D01*
X116562108Y-89499995D01*
X120121146Y-85940957D01*
X128394318Y-85940957D01*
X128394318Y-85940958D01*
X128414955Y-86097716D01*
X128414957Y-86097724D01*
X128475462Y-86243796D01*
X128475462Y-86243797D01*
X128475464Y-86243799D01*
X128571718Y-86369240D01*
X128697159Y-86465494D01*
X128843238Y-86526002D01*
X128960809Y-86541480D01*
X128999999Y-86546640D01*
X129000000Y-86546640D01*
X129000001Y-86546640D01*
X129031352Y-86542512D01*
X129156762Y-86526002D01*
X129302841Y-86465494D01*
X129428282Y-86369240D01*
X129524536Y-86243799D01*
X129585044Y-86097720D01*
X129605682Y-85940958D01*
X129585044Y-85784196D01*
X129524537Y-85638119D01*
X129524537Y-85638118D01*
X129428286Y-85512681D01*
X129428285Y-85512680D01*
X129428282Y-85512676D01*
X129428277Y-85512672D01*
X129428276Y-85512671D01*
X129302838Y-85416420D01*
X129156766Y-85355915D01*
X129156758Y-85355913D01*
X129000001Y-85335276D01*
X128999999Y-85335276D01*
X128843241Y-85355913D01*
X128843233Y-85355915D01*
X128697161Y-85416420D01*
X128697160Y-85416420D01*
X128571723Y-85512671D01*
X128571713Y-85512681D01*
X128475462Y-85638118D01*
X128475462Y-85638119D01*
X128414957Y-85784191D01*
X128414955Y-85784199D01*
X128394318Y-85940957D01*
X120121146Y-85940957D01*
X130912423Y-75149678D01*
X130966938Y-75121903D01*
X130969470Y-75121535D01*
X131056762Y-75110044D01*
X131202841Y-75049536D01*
X131328282Y-74953282D01*
X131424536Y-74827841D01*
X131485044Y-74681762D01*
X131505682Y-74525000D01*
X131504046Y-74512577D01*
X131496532Y-74455496D01*
X131485044Y-74368238D01*
X131424536Y-74222159D01*
X131328282Y-74096718D01*
X131328277Y-74096714D01*
X131328276Y-74096713D01*
X131202838Y-74000462D01*
X131056766Y-73939957D01*
X131056758Y-73939955D01*
X130900001Y-73919318D01*
X130899999Y-73919318D01*
X130743241Y-73939955D01*
X130743233Y-73939957D01*
X130597161Y-74000462D01*
X130597160Y-74000462D01*
X130471723Y-74096713D01*
X130471713Y-74096723D01*
X130375462Y-74222161D01*
X130314956Y-74368237D01*
X130303467Y-74455496D01*
X130277125Y-74510721D01*
X130275318Y-74512577D01*
X114892393Y-89895504D01*
X114837876Y-89923281D01*
X114822389Y-89924500D01*
X89227611Y-89924500D01*
X89169420Y-89905593D01*
X89157607Y-89895504D01*
X88739822Y-89477719D01*
X88719776Y-89448846D01*
X88675377Y-89351627D01*
X88581128Y-89242857D01*
X88581127Y-89242856D01*
X88581126Y-89242855D01*
X88460057Y-89165049D01*
X88460054Y-89165047D01*
X88460053Y-89165047D01*
X88460050Y-89165046D01*
X88321964Y-89124500D01*
X88321961Y-89124500D01*
X88178039Y-89124500D01*
X88178035Y-89124500D01*
X88039949Y-89165046D01*
X88039942Y-89165049D01*
X87918873Y-89242855D01*
X87824622Y-89351628D01*
X87764834Y-89482543D01*
X87744353Y-89624997D01*
X76010500Y-89624997D01*
X76010500Y-88581004D01*
X89274500Y-88581004D01*
X89274500Y-88581007D01*
X89274500Y-88718993D01*
X89300433Y-88849368D01*
X89301420Y-88854327D01*
X89301420Y-88854329D01*
X89354222Y-88981806D01*
X89354228Y-88981817D01*
X89430885Y-89096541D01*
X89528458Y-89194114D01*
X89643182Y-89270771D01*
X89643193Y-89270777D01*
X89690283Y-89290282D01*
X89770672Y-89323580D01*
X89906007Y-89350500D01*
X89906008Y-89350500D01*
X93969779Y-89350500D01*
X93969780Y-89350500D01*
X94105114Y-89323580D01*
X94232597Y-89270775D01*
X94347329Y-89194114D01*
X101691446Y-81849997D01*
X104234353Y-81849997D01*
X104234353Y-81850002D01*
X104254834Y-81992456D01*
X104314622Y-82123371D01*
X104314623Y-82123373D01*
X104316035Y-82125002D01*
X104408873Y-82232144D01*
X104529942Y-82309950D01*
X104529947Y-82309953D01*
X104636403Y-82341211D01*
X104668035Y-82350499D01*
X104668036Y-82350499D01*
X104668039Y-82350500D01*
X104738810Y-82350500D01*
X104797001Y-82369407D01*
X104808812Y-82379495D01*
X104827689Y-82398371D01*
X104834788Y-82405470D01*
X104914712Y-82451614D01*
X105003856Y-82475500D01*
X105003857Y-82475500D01*
X105096144Y-82475500D01*
X108071241Y-82475500D01*
X108129432Y-82494407D01*
X108138403Y-82502640D01*
X108138520Y-82502506D01*
X108143871Y-82507143D01*
X108264942Y-82584950D01*
X108264947Y-82584953D01*
X108371403Y-82616211D01*
X108403035Y-82625499D01*
X108403036Y-82625499D01*
X108403039Y-82625500D01*
X108403041Y-82625500D01*
X108546959Y-82625500D01*
X108546961Y-82625500D01*
X108685053Y-82584953D01*
X108806128Y-82507143D01*
X108900377Y-82398373D01*
X108960165Y-82267457D01*
X108980647Y-82125000D01*
X108980413Y-82123373D01*
X108960165Y-81982543D01*
X108900377Y-81851628D01*
X108900377Y-81851627D01*
X108806128Y-81742857D01*
X108806127Y-81742856D01*
X108806126Y-81742855D01*
X108685057Y-81665049D01*
X108685054Y-81665047D01*
X108685053Y-81665047D01*
X108685050Y-81665046D01*
X108546964Y-81624500D01*
X108546961Y-81624500D01*
X108403039Y-81624500D01*
X108403035Y-81624500D01*
X108264949Y-81665046D01*
X108264942Y-81665049D01*
X108143871Y-81742856D01*
X108138520Y-81747494D01*
X108137031Y-81745776D01*
X108093659Y-81771928D01*
X108071241Y-81774500D01*
X105318936Y-81774500D01*
X105260745Y-81755593D01*
X105229914Y-81713158D01*
X105228107Y-81713984D01*
X105165377Y-81576628D01*
X105165377Y-81576627D01*
X105071128Y-81467857D01*
X105071127Y-81467856D01*
X105071126Y-81467855D01*
X104950057Y-81390049D01*
X104950054Y-81390047D01*
X104950053Y-81390047D01*
X104944352Y-81388373D01*
X104811964Y-81349500D01*
X104811961Y-81349500D01*
X104668039Y-81349500D01*
X104668035Y-81349500D01*
X104529949Y-81390046D01*
X104529942Y-81390049D01*
X104408873Y-81467855D01*
X104314622Y-81576628D01*
X104254834Y-81707543D01*
X104234353Y-81849997D01*
X101691446Y-81849997D01*
X106161947Y-77379496D01*
X106216464Y-77351719D01*
X106231951Y-77350500D01*
X106293992Y-77350500D01*
X106293993Y-77350500D01*
X106429328Y-77323580D01*
X106556811Y-77270775D01*
X106671542Y-77194114D01*
X106769114Y-77096542D01*
X106845775Y-76981811D01*
X106898580Y-76854328D01*
X106925500Y-76718993D01*
X106925500Y-76581007D01*
X106898580Y-76445672D01*
X106868414Y-76372845D01*
X106845777Y-76318193D01*
X106845771Y-76318182D01*
X106769114Y-76203458D01*
X106679496Y-76113840D01*
X106651719Y-76059323D01*
X106650500Y-76043836D01*
X106650500Y-75802610D01*
X106669407Y-75744419D01*
X106679497Y-75732606D01*
X106927608Y-75484496D01*
X106982124Y-75456719D01*
X106997611Y-75455500D01*
X116300500Y-75455500D01*
X116358691Y-75474407D01*
X116394655Y-75523907D01*
X116399500Y-75554500D01*
X116399500Y-79025500D01*
X116380593Y-79083691D01*
X116331093Y-79119655D01*
X116300500Y-79124500D01*
X115902288Y-79124500D01*
X115866916Y-79116804D01*
X115866847Y-79117042D01*
X115863531Y-79116068D01*
X115861162Y-79115553D01*
X115860056Y-79115048D01*
X115860049Y-79115046D01*
X115843605Y-79110217D01*
X115721964Y-79074500D01*
X115721961Y-79074500D01*
X115578039Y-79074500D01*
X115578035Y-79074500D01*
X115439949Y-79115046D01*
X115439942Y-79115049D01*
X115318873Y-79192855D01*
X115224622Y-79301628D01*
X115164834Y-79432543D01*
X115144353Y-79574997D01*
X115144353Y-79575002D01*
X115164834Y-79717456D01*
X115224622Y-79848371D01*
X115224623Y-79848373D01*
X115300109Y-79935489D01*
X115318873Y-79957144D01*
X115439942Y-80034950D01*
X115439947Y-80034953D01*
X115546403Y-80066211D01*
X115578035Y-80075499D01*
X115578036Y-80075499D01*
X115578039Y-80075500D01*
X115578041Y-80075500D01*
X115721959Y-80075500D01*
X115721961Y-80075500D01*
X115860053Y-80034953D01*
X115860056Y-80034950D01*
X115861162Y-80034447D01*
X115863531Y-80033931D01*
X115866847Y-80032958D01*
X115866916Y-80033195D01*
X115902288Y-80025500D01*
X116859309Y-80025500D01*
X116949669Y-80001287D01*
X116949671Y-80001287D01*
X116966279Y-79996837D01*
X116973887Y-79994799D01*
X116973887Y-79994798D01*
X116974879Y-79994533D01*
X117035980Y-79997736D01*
X117083529Y-80036242D01*
X117099500Y-80090160D01*
X117099500Y-80477389D01*
X117080593Y-80535580D01*
X117070504Y-80547393D01*
X116982393Y-80635504D01*
X116927876Y-80663281D01*
X116912389Y-80664500D01*
X115802288Y-80664500D01*
X115766916Y-80656804D01*
X115766847Y-80657042D01*
X115763531Y-80656068D01*
X115761162Y-80655553D01*
X115760056Y-80655048D01*
X115760049Y-80655046D01*
X115743605Y-80650217D01*
X115621964Y-80614500D01*
X115621961Y-80614500D01*
X115478039Y-80614500D01*
X115478035Y-80614500D01*
X115339949Y-80655046D01*
X115339942Y-80655049D01*
X115218873Y-80732855D01*
X115124622Y-80841628D01*
X115064834Y-80972543D01*
X115044353Y-81114997D01*
X115044353Y-81115002D01*
X115064834Y-81257456D01*
X115106870Y-81349500D01*
X115124623Y-81388373D01*
X115218872Y-81497143D01*
X115218873Y-81497144D01*
X115339942Y-81574950D01*
X115339947Y-81574953D01*
X115446403Y-81606211D01*
X115478035Y-81615499D01*
X115478036Y-81615499D01*
X115478039Y-81615500D01*
X115478041Y-81615500D01*
X115621959Y-81615500D01*
X115621961Y-81615500D01*
X115760053Y-81574953D01*
X115760056Y-81574950D01*
X115761162Y-81574447D01*
X115763531Y-81573931D01*
X115766847Y-81572958D01*
X115766916Y-81573195D01*
X115802288Y-81565500D01*
X117199309Y-81565500D01*
X117289669Y-81541287D01*
X117289672Y-81541287D01*
X117302903Y-81537741D01*
X117313887Y-81534799D01*
X117416614Y-81475489D01*
X117910490Y-80981613D01*
X117969799Y-80878886D01*
X117970396Y-80876658D01*
X118000500Y-80764309D01*
X118000500Y-74365691D01*
X117969799Y-74251114D01*
X117968425Y-74248734D01*
X117953085Y-74222162D01*
X117953081Y-74222158D01*
X117910489Y-74148385D01*
X117706614Y-73944511D01*
X117706609Y-73944507D01*
X117603890Y-73885202D01*
X117603886Y-73885200D01*
X117579673Y-73878712D01*
X117579673Y-73878713D01*
X117489309Y-73854500D01*
X105655691Y-73854500D01*
X105610508Y-73866606D01*
X105565325Y-73878713D01*
X105565324Y-73878712D01*
X105541115Y-73885200D01*
X105541113Y-73885200D01*
X105541113Y-73885201D01*
X105482020Y-73919318D01*
X105438386Y-73944510D01*
X104189508Y-75193389D01*
X104189507Y-75193390D01*
X104130200Y-75296112D01*
X104130200Y-75296113D01*
X104130201Y-75296114D01*
X104102067Y-75401113D01*
X104099500Y-75410692D01*
X104099500Y-76185102D01*
X104090553Y-76226229D01*
X104064834Y-76282543D01*
X104044353Y-76424997D01*
X104044353Y-76425002D01*
X104064834Y-76567456D01*
X104122103Y-76692855D01*
X104124623Y-76698373D01*
X104214093Y-76801628D01*
X104218873Y-76807144D01*
X104292293Y-76854328D01*
X104339947Y-76884953D01*
X104438988Y-76914033D01*
X104489494Y-76948568D01*
X104510056Y-77006195D01*
X104492818Y-77064902D01*
X104481100Y-77079027D01*
X93639625Y-87920504D01*
X93585108Y-87948281D01*
X93569621Y-87949500D01*
X89906004Y-87949500D01*
X89770672Y-87976420D01*
X89770670Y-87976420D01*
X89643193Y-88029222D01*
X89643182Y-88029228D01*
X89528458Y-88105885D01*
X89430885Y-88203458D01*
X89354228Y-88318182D01*
X89354222Y-88318193D01*
X89301420Y-88445670D01*
X89301420Y-88445672D01*
X89274500Y-88581004D01*
X76010500Y-88581004D01*
X76010500Y-83899996D01*
X77684876Y-83899996D01*
X77684876Y-83900003D01*
X77703334Y-84110996D01*
X77703335Y-84111003D01*
X77703336Y-84111004D01*
X77758157Y-84315597D01*
X77847672Y-84507562D01*
X77969161Y-84681067D01*
X78118933Y-84830839D01*
X78292438Y-84952328D01*
X78484403Y-85041843D01*
X78688996Y-85096664D01*
X78689000Y-85096664D01*
X78689003Y-85096665D01*
X78899997Y-85115124D01*
X78900000Y-85115124D01*
X78900003Y-85115124D01*
X79110996Y-85096665D01*
X79110997Y-85096664D01*
X79111004Y-85096664D01*
X79315597Y-85041843D01*
X79507562Y-84952328D01*
X79681067Y-84830839D01*
X79830839Y-84681067D01*
X79952328Y-84507562D01*
X80041843Y-84315597D01*
X80096664Y-84111004D01*
X80098210Y-84093341D01*
X80115124Y-83900003D01*
X80115124Y-83899996D01*
X80096665Y-83689003D01*
X80096664Y-83689000D01*
X80096664Y-83688996D01*
X80041843Y-83484403D01*
X79952328Y-83292438D01*
X79830839Y-83118933D01*
X79681067Y-82969161D01*
X79681063Y-82969158D01*
X79681062Y-82969157D01*
X79584803Y-82901756D01*
X79507562Y-82847672D01*
X79315597Y-82758157D01*
X79111004Y-82703336D01*
X79111003Y-82703335D01*
X79110996Y-82703334D01*
X78900003Y-82684876D01*
X78899997Y-82684876D01*
X78689003Y-82703334D01*
X78624153Y-82720710D01*
X78484403Y-82758157D01*
X78394889Y-82799898D01*
X78292439Y-82847671D01*
X78118937Y-82969157D01*
X77969157Y-83118937D01*
X77847671Y-83292439D01*
X77799898Y-83394889D01*
X77758157Y-83484403D01*
X77757284Y-83487661D01*
X77703334Y-83689003D01*
X77684876Y-83899996D01*
X76010500Y-83899996D01*
X76010500Y-67342995D01*
X97764257Y-67342995D01*
X97764257Y-67343004D01*
X97784411Y-67701897D01*
X97784414Y-67701917D01*
X97844624Y-68056287D01*
X97844628Y-68056307D01*
X97944140Y-68401723D01*
X98081707Y-68733837D01*
X98255587Y-69048449D01*
X98255589Y-69048452D01*
X98463606Y-69341623D01*
X98703139Y-69609661D01*
X98971177Y-69849194D01*
X99264348Y-70057211D01*
X99264350Y-70057212D01*
X99578963Y-70231092D01*
X99578962Y-70231092D01*
X99911076Y-70368659D01*
X100256492Y-70468171D01*
X100256495Y-70468171D01*
X100256500Y-70468173D01*
X100610893Y-70528387D01*
X100610896Y-70528387D01*
X100610902Y-70528388D01*
X100969795Y-70548543D01*
X100969800Y-70548543D01*
X100969805Y-70548543D01*
X101328697Y-70528388D01*
X101328701Y-70528387D01*
X101328707Y-70528387D01*
X101683100Y-70468173D01*
X102028524Y-70368659D01*
X102360633Y-70231094D01*
X102675252Y-70057211D01*
X102968423Y-69849194D01*
X103236461Y-69609661D01*
X103475994Y-69341623D01*
X103684011Y-69048452D01*
X103857894Y-68733833D01*
X103995459Y-68401724D01*
X104094973Y-68056300D01*
X104155187Y-67701907D01*
X104175343Y-67343000D01*
X104175343Y-67342995D01*
X121764257Y-67342995D01*
X121764257Y-67343004D01*
X121784411Y-67701897D01*
X121784414Y-67701917D01*
X121844624Y-68056287D01*
X121844628Y-68056307D01*
X121944140Y-68401723D01*
X122081707Y-68733837D01*
X122255587Y-69048449D01*
X122255589Y-69048452D01*
X122463606Y-69341623D01*
X122703139Y-69609661D01*
X122971177Y-69849194D01*
X123264348Y-70057211D01*
X123264350Y-70057212D01*
X123578963Y-70231092D01*
X123578962Y-70231092D01*
X123911076Y-70368659D01*
X124256489Y-70468170D01*
X124256491Y-70468170D01*
X124256500Y-70468173D01*
X124256512Y-70468175D01*
X124436883Y-70498821D01*
X124491084Y-70527208D01*
X124518249Y-70582033D01*
X124519300Y-70596422D01*
X124519300Y-75954109D01*
X124543080Y-76042857D01*
X124543079Y-76042857D01*
X124550000Y-76068686D01*
X124550002Y-76068690D01*
X124609307Y-76171409D01*
X124609308Y-76171410D01*
X124609309Y-76171411D01*
X124609311Y-76171414D01*
X125136268Y-76698371D01*
X125660177Y-77222280D01*
X125680224Y-77251154D01*
X125724623Y-77348373D01*
X125818872Y-77457143D01*
X125818873Y-77457144D01*
X125939942Y-77534950D01*
X125939947Y-77534953D01*
X126046403Y-77566211D01*
X126078035Y-77575499D01*
X126078036Y-77575499D01*
X126078039Y-77575500D01*
X126078041Y-77575500D01*
X126221959Y-77575500D01*
X126221961Y-77575500D01*
X126360053Y-77534953D01*
X126481128Y-77457143D01*
X126575377Y-77348373D01*
X126635165Y-77217457D01*
X126655647Y-77075000D01*
X126654195Y-77064902D01*
X126635165Y-76932543D01*
X126599445Y-76854328D01*
X126575377Y-76801627D01*
X126481128Y-76692857D01*
X126481127Y-76692856D01*
X126481126Y-76692855D01*
X126360054Y-76615047D01*
X126337719Y-76608489D01*
X126295607Y-76583503D01*
X125449296Y-75737192D01*
X125421519Y-75682675D01*
X125420300Y-75667188D01*
X125420300Y-70596422D01*
X125439207Y-70538231D01*
X125488707Y-70502267D01*
X125502717Y-70498821D01*
X125537412Y-70492925D01*
X125683100Y-70468173D01*
X126028524Y-70368659D01*
X126360633Y-70231094D01*
X126675252Y-70057211D01*
X126968423Y-69849194D01*
X127236461Y-69609661D01*
X127475994Y-69341623D01*
X127684011Y-69048452D01*
X127857894Y-68733833D01*
X127995459Y-68401724D01*
X128094973Y-68056300D01*
X128155187Y-67701907D01*
X128175343Y-67343000D01*
X128175343Y-67342995D01*
X147764257Y-67342995D01*
X147764257Y-67343004D01*
X147784411Y-67701897D01*
X147784414Y-67701917D01*
X147844624Y-68056287D01*
X147844628Y-68056307D01*
X147944140Y-68401723D01*
X148081707Y-68733837D01*
X148255587Y-69048449D01*
X148255589Y-69048452D01*
X148463606Y-69341623D01*
X148703139Y-69609661D01*
X148971177Y-69849194D01*
X149264348Y-70057211D01*
X149264350Y-70057212D01*
X149578963Y-70231092D01*
X149578962Y-70231092D01*
X149911076Y-70368659D01*
X150256492Y-70468171D01*
X150256495Y-70468171D01*
X150256500Y-70468173D01*
X150610893Y-70528387D01*
X150610896Y-70528387D01*
X150610902Y-70528388D01*
X150969795Y-70548543D01*
X150969800Y-70548543D01*
X150969805Y-70548543D01*
X151328697Y-70528388D01*
X151328701Y-70528387D01*
X151328707Y-70528387D01*
X151683100Y-70468173D01*
X152028524Y-70368659D01*
X152360633Y-70231094D01*
X152675252Y-70057211D01*
X152968423Y-69849194D01*
X153236461Y-69609661D01*
X153475994Y-69341623D01*
X153684011Y-69048452D01*
X153857894Y-68733833D01*
X153995459Y-68401724D01*
X154094973Y-68056300D01*
X154155187Y-67701907D01*
X154175343Y-67343000D01*
X154155187Y-66984093D01*
X154094973Y-66629700D01*
X153995459Y-66284276D01*
X153857894Y-65952167D01*
X153857892Y-65952162D01*
X153684012Y-65637550D01*
X153475997Y-65344381D01*
X153475996Y-65344380D01*
X153475994Y-65344377D01*
X153236461Y-65076339D01*
X152968423Y-64836806D01*
X152968420Y-64836804D01*
X152968418Y-64836802D01*
X152675249Y-64628787D01*
X152360636Y-64454907D01*
X152360637Y-64454907D01*
X152028523Y-64317340D01*
X151683107Y-64217828D01*
X151683087Y-64217824D01*
X151328717Y-64157614D01*
X151328697Y-64157611D01*
X150969805Y-64137457D01*
X150969795Y-64137457D01*
X150610902Y-64157611D01*
X150610882Y-64157614D01*
X150256512Y-64217824D01*
X150256492Y-64217828D01*
X149911076Y-64317340D01*
X149578962Y-64454907D01*
X149264350Y-64628787D01*
X148971181Y-64836802D01*
X148703146Y-65076332D01*
X148703132Y-65076346D01*
X148463602Y-65344381D01*
X148255587Y-65637550D01*
X148081707Y-65952162D01*
X147944140Y-66284276D01*
X147844628Y-66629692D01*
X147844624Y-66629712D01*
X147784414Y-66984082D01*
X147784411Y-66984102D01*
X147764257Y-67342995D01*
X128175343Y-67342995D01*
X128155187Y-66984093D01*
X128094973Y-66629700D01*
X127995459Y-66284276D01*
X127857894Y-65952167D01*
X127857892Y-65952162D01*
X127684012Y-65637550D01*
X127475997Y-65344381D01*
X127475996Y-65344380D01*
X127475994Y-65344377D01*
X127236461Y-65076339D01*
X126968423Y-64836806D01*
X126968420Y-64836804D01*
X126968418Y-64836802D01*
X126675249Y-64628787D01*
X126360636Y-64454907D01*
X126360637Y-64454907D01*
X126028523Y-64317340D01*
X125683107Y-64217828D01*
X125683087Y-64217824D01*
X125328717Y-64157614D01*
X125328697Y-64157611D01*
X124969805Y-64137457D01*
X124969795Y-64137457D01*
X124610902Y-64157611D01*
X124610882Y-64157614D01*
X124256512Y-64217824D01*
X124256492Y-64217828D01*
X123911076Y-64317340D01*
X123578962Y-64454907D01*
X123264350Y-64628787D01*
X122971181Y-64836802D01*
X122703146Y-65076332D01*
X122703132Y-65076346D01*
X122463602Y-65344381D01*
X122255587Y-65637550D01*
X122081707Y-65952162D01*
X121944140Y-66284276D01*
X121844628Y-66629692D01*
X121844624Y-66629712D01*
X121784414Y-66984082D01*
X121784411Y-66984102D01*
X121764257Y-67342995D01*
X104175343Y-67342995D01*
X104155187Y-66984093D01*
X104094973Y-66629700D01*
X103995459Y-66284276D01*
X103857894Y-65952167D01*
X103857892Y-65952162D01*
X103684012Y-65637550D01*
X103475997Y-65344381D01*
X103475996Y-65344380D01*
X103475994Y-65344377D01*
X103236461Y-65076339D01*
X102968423Y-64836806D01*
X102968420Y-64836804D01*
X102968418Y-64836802D01*
X102675249Y-64628787D01*
X102360636Y-64454907D01*
X102360637Y-64454907D01*
X102028523Y-64317340D01*
X101683107Y-64217828D01*
X101683087Y-64217824D01*
X101328717Y-64157614D01*
X101328697Y-64157611D01*
X100969805Y-64137457D01*
X100969795Y-64137457D01*
X100610902Y-64157611D01*
X100610882Y-64157614D01*
X100256512Y-64217824D01*
X100256492Y-64217828D01*
X99911076Y-64317340D01*
X99578962Y-64454907D01*
X99264350Y-64628787D01*
X98971181Y-64836802D01*
X98703146Y-65076332D01*
X98703132Y-65076346D01*
X98463602Y-65344381D01*
X98255587Y-65637550D01*
X98081707Y-65952162D01*
X97944140Y-66284276D01*
X97844628Y-66629692D01*
X97844624Y-66629712D01*
X97784414Y-66984082D01*
X97784411Y-66984102D01*
X97764257Y-67342995D01*
X76010500Y-67342995D01*
X76010500Y-49204515D01*
X76010905Y-49195572D01*
X76025287Y-49037006D01*
X76028317Y-49020099D01*
X76068813Y-48870396D01*
X76074716Y-48854278D01*
X76140484Y-48713824D01*
X76149089Y-48698961D01*
X76238143Y-48571994D01*
X76249180Y-48558851D01*
X76358851Y-48449180D01*
X76371994Y-48438143D01*
X76498964Y-48349086D01*
X76513824Y-48340484D01*
X76654278Y-48274716D01*
X76670396Y-48268813D01*
X76820101Y-48228316D01*
X76837006Y-48225287D01*
X76995573Y-48210905D01*
X77004516Y-48210500D01*
X82162187Y-48210500D01*
X82220378Y-48229407D01*
X82223277Y-48231596D01*
X82270722Y-48268801D01*
X82444365Y-48360208D01*
X82444369Y-48360209D01*
X82444371Y-48360210D01*
X82631643Y-48418783D01*
X82631645Y-48418783D01*
X82631651Y-48418785D01*
X82826433Y-48442609D01*
X83022316Y-48430898D01*
X83212871Y-48384036D01*
X83391844Y-48303563D01*
X83553360Y-48192118D01*
X83692118Y-48053360D01*
X83803563Y-47891844D01*
X83884036Y-47712871D01*
X83930898Y-47522316D01*
X83942609Y-47326433D01*
X83918785Y-47131651D01*
X83918783Y-47131645D01*
X83918783Y-47131643D01*
X83860210Y-46944371D01*
X83860207Y-46944363D01*
X83768802Y-46770724D01*
X83768794Y-46770713D01*
X83731596Y-46723275D01*
X83710567Y-46665817D01*
X83710500Y-46662186D01*
X83710500Y-43399996D01*
X129384876Y-43399996D01*
X129384876Y-43400003D01*
X129403334Y-43610996D01*
X129403335Y-43611003D01*
X129403336Y-43611004D01*
X129458157Y-43815597D01*
X129547672Y-44007562D01*
X129669161Y-44181067D01*
X129818933Y-44330839D01*
X129992438Y-44452328D01*
X130184403Y-44541843D01*
X130388996Y-44596664D01*
X130389000Y-44596664D01*
X130389003Y-44596665D01*
X130599997Y-44615124D01*
X130600000Y-44615124D01*
X130600003Y-44615124D01*
X130810996Y-44596665D01*
X130810997Y-44596664D01*
X130811004Y-44596664D01*
X131015597Y-44541843D01*
X131207562Y-44452328D01*
X131381067Y-44330839D01*
X131530839Y-44181067D01*
X131652328Y-44007562D01*
X131741843Y-43815597D01*
X131796664Y-43611004D01*
X131815124Y-43400000D01*
X131796664Y-43188996D01*
X131741843Y-42984403D01*
X131652328Y-42792438D01*
X131530839Y-42618933D01*
X131381067Y-42469161D01*
X131381063Y-42469158D01*
X131381062Y-42469157D01*
X131284803Y-42401756D01*
X131207562Y-42347672D01*
X131015597Y-42258157D01*
X130811004Y-42203336D01*
X130811003Y-42203335D01*
X130810996Y-42203334D01*
X130600003Y-42184876D01*
X130599997Y-42184876D01*
X130389003Y-42203334D01*
X130324153Y-42220710D01*
X130184403Y-42258157D01*
X130094889Y-42299898D01*
X129992439Y-42347671D01*
X129818937Y-42469157D01*
X129669157Y-42618937D01*
X129547671Y-42792439D01*
X129458157Y-42984404D01*
X129403334Y-43189003D01*
X129384876Y-43399996D01*
X83710500Y-43399996D01*
X83710500Y-41519386D01*
X83710567Y-41518971D01*
X83710515Y-41504301D01*
X83710864Y-41495638D01*
X83724264Y-41336599D01*
X83727224Y-41319526D01*
X83767044Y-41169469D01*
X83772939Y-41153172D01*
X83838322Y-41012368D01*
X83846972Y-40997344D01*
X83935916Y-40870101D01*
X83947043Y-40856829D01*
X84056829Y-40747043D01*
X84070101Y-40735916D01*
X84197346Y-40646970D01*
X84212365Y-40638323D01*
X84353174Y-40572937D01*
X84369469Y-40567044D01*
X84519526Y-40527224D01*
X84536594Y-40524264D01*
X84695647Y-40510863D01*
X84704303Y-40510515D01*
X84718236Y-40510564D01*
X84718658Y-40510500D01*
X165295484Y-40510500D01*
X165304427Y-40510905D01*
G37*
G04 #@! TD.AperFunction*
M02*
