G04 #@! TF.GenerationSoftware,KiCad,Pcbnew,8.0.2*
G04 #@! TF.CreationDate,2024-08-20T08:17:01+02:00*
G04 #@! TF.ProjectId,STS1_SIDEPANEL,53545331-5f53-4494-9445-50414e454c2e,rev?*
G04 #@! TF.SameCoordinates,Original*
G04 #@! TF.FileFunction,Copper,L4,Bot*
G04 #@! TF.FilePolarity,Positive*
%FSLAX46Y46*%
G04 Gerber Fmt 4.6, Leading zero omitted, Abs format (unit mm)*
G04 Created by KiCad (PCBNEW 8.0.2) date 2024-08-20 08:17:01*
%MOMM*%
%LPD*%
G01*
G04 APERTURE LIST*
G04 Aperture macros list*
%AMRoundRect*
0 Rectangle with rounded corners*
0 $1 Rounding radius*
0 $2 $3 $4 $5 $6 $7 $8 $9 X,Y pos of 4 corners*
0 Add a 4 corners polygon primitive as box body*
4,1,4,$2,$3,$4,$5,$6,$7,$8,$9,$2,$3,0*
0 Add four circle primitives for the rounded corners*
1,1,$1+$1,$2,$3*
1,1,$1+$1,$4,$5*
1,1,$1+$1,$6,$7*
1,1,$1+$1,$8,$9*
0 Add four rect primitives between the rounded corners*
20,1,$1+$1,$2,$3,$4,$5,0*
20,1,$1+$1,$4,$5,$6,$7,0*
20,1,$1+$1,$6,$7,$8,$9,0*
20,1,$1+$1,$8,$9,$2,$3,0*%
G04 Aperture macros list end*
G04 #@! TA.AperFunction,FiducialPad,Local*
%ADD10C,6.000000*%
G04 #@! TD*
G04 #@! TA.AperFunction,FiducialPad,Global*
%ADD11C,6.000000*%
G04 #@! TD*
G04 #@! TA.AperFunction,SMDPad,CuDef*
%ADD12RoundRect,0.250000X0.250000X0.475000X-0.250000X0.475000X-0.250000X-0.475000X0.250000X-0.475000X0*%
G04 #@! TD*
G04 #@! TA.AperFunction,SMDPad,CuDef*
%ADD13RoundRect,0.250000X-0.350000X-0.450000X0.350000X-0.450000X0.350000X0.450000X-0.350000X0.450000X0*%
G04 #@! TD*
G04 #@! TA.AperFunction,SMDPad,CuDef*
%ADD14R,1.000000X3.200000*%
G04 #@! TD*
G04 #@! TA.AperFunction,SMDPad,CuDef*
%ADD15R,1.800000X1.500000*%
G04 #@! TD*
G04 #@! TA.AperFunction,SMDPad,CuDef*
%ADD16RoundRect,0.250000X-0.475000X0.250000X-0.475000X-0.250000X0.475000X-0.250000X0.475000X0.250000X0*%
G04 #@! TD*
G04 #@! TA.AperFunction,SMDPad,CuDef*
%ADD17R,0.650000X0.950000*%
G04 #@! TD*
G04 #@! TA.AperFunction,SMDPad,CuDef*
%ADD18R,2.000000X1.950000*%
G04 #@! TD*
G04 #@! TA.AperFunction,SMDPad,CuDef*
%ADD19R,0.850000X0.650000*%
G04 #@! TD*
G04 #@! TA.AperFunction,SMDPad,CuDef*
%ADD20RoundRect,0.100000X0.100000X-0.637500X0.100000X0.637500X-0.100000X0.637500X-0.100000X-0.637500X0*%
G04 #@! TD*
G04 #@! TA.AperFunction,SMDPad,CuDef*
%ADD21RoundRect,0.200000X-0.200000X-0.275000X0.200000X-0.275000X0.200000X0.275000X-0.200000X0.275000X0*%
G04 #@! TD*
G04 #@! TA.AperFunction,SMDPad,CuDef*
%ADD22RoundRect,0.250000X-0.300000X0.300000X-0.300000X-0.300000X0.300000X-0.300000X0.300000X0.300000X0*%
G04 #@! TD*
G04 #@! TA.AperFunction,SMDPad,CuDef*
%ADD23RoundRect,0.200000X0.275000X-0.200000X0.275000X0.200000X-0.275000X0.200000X-0.275000X-0.200000X0*%
G04 #@! TD*
G04 #@! TA.AperFunction,SMDPad,CuDef*
%ADD24RoundRect,0.250000X0.450000X-0.262500X0.450000X0.262500X-0.450000X0.262500X-0.450000X-0.262500X0*%
G04 #@! TD*
G04 #@! TA.AperFunction,SMDPad,CuDef*
%ADD25RoundRect,0.150000X0.150000X-0.512500X0.150000X0.512500X-0.150000X0.512500X-0.150000X-0.512500X0*%
G04 #@! TD*
G04 #@! TA.AperFunction,SMDPad,CuDef*
%ADD26RoundRect,0.200000X-0.275000X0.200000X-0.275000X-0.200000X0.275000X-0.200000X0.275000X0.200000X0*%
G04 #@! TD*
G04 #@! TA.AperFunction,SMDPad,CuDef*
%ADD27RoundRect,0.250000X-0.450000X0.262500X-0.450000X-0.262500X0.450000X-0.262500X0.450000X0.262500X0*%
G04 #@! TD*
G04 #@! TA.AperFunction,SMDPad,CuDef*
%ADD28RoundRect,0.225000X0.250000X-0.225000X0.250000X0.225000X-0.250000X0.225000X-0.250000X-0.225000X0*%
G04 #@! TD*
G04 #@! TA.AperFunction,SMDPad,CuDef*
%ADD29RoundRect,0.225000X0.225000X0.250000X-0.225000X0.250000X-0.225000X-0.250000X0.225000X-0.250000X0*%
G04 #@! TD*
G04 #@! TA.AperFunction,SMDPad,CuDef*
%ADD30RoundRect,0.225000X-0.225000X-0.250000X0.225000X-0.250000X0.225000X0.250000X-0.225000X0.250000X0*%
G04 #@! TD*
G04 #@! TA.AperFunction,SMDPad,CuDef*
%ADD31RoundRect,0.200000X0.200000X0.275000X-0.200000X0.275000X-0.200000X-0.275000X0.200000X-0.275000X0*%
G04 #@! TD*
G04 #@! TA.AperFunction,SMDPad,CuDef*
%ADD32RoundRect,0.100000X-0.637500X-0.100000X0.637500X-0.100000X0.637500X0.100000X-0.637500X0.100000X0*%
G04 #@! TD*
G04 #@! TA.AperFunction,SMDPad,CuDef*
%ADD33R,0.300000X1.600000*%
G04 #@! TD*
G04 #@! TA.AperFunction,SMDPad,CuDef*
%ADD34R,2.240000X3.120000*%
G04 #@! TD*
G04 #@! TA.AperFunction,SMDPad,CuDef*
%ADD35RoundRect,0.250000X0.262500X0.450000X-0.262500X0.450000X-0.262500X-0.450000X0.262500X-0.450000X0*%
G04 #@! TD*
G04 #@! TA.AperFunction,SMDPad,CuDef*
%ADD36RoundRect,0.150000X-0.512500X-0.150000X0.512500X-0.150000X0.512500X0.150000X-0.512500X0.150000X0*%
G04 #@! TD*
G04 #@! TA.AperFunction,SMDPad,CuDef*
%ADD37R,5.500000X1.430000*%
G04 #@! TD*
G04 #@! TA.AperFunction,SMDPad,CuDef*
%ADD38R,1.430000X5.500000*%
G04 #@! TD*
G04 #@! TA.AperFunction,SMDPad,CuDef*
%ADD39RoundRect,0.250000X-0.262500X-0.450000X0.262500X-0.450000X0.262500X0.450000X-0.262500X0.450000X0*%
G04 #@! TD*
G04 #@! TA.AperFunction,SMDPad,CuDef*
%ADD40RoundRect,0.225000X-0.250000X0.225000X-0.250000X-0.225000X0.250000X-0.225000X0.250000X0.225000X0*%
G04 #@! TD*
G04 #@! TA.AperFunction,SMDPad,CuDef*
%ADD41RoundRect,0.250000X0.300000X0.300000X-0.300000X0.300000X-0.300000X-0.300000X0.300000X-0.300000X0*%
G04 #@! TD*
G04 #@! TA.AperFunction,ViaPad*
%ADD42C,0.600000*%
G04 #@! TD*
G04 #@! TA.AperFunction,ViaPad*
%ADD43C,0.800000*%
G04 #@! TD*
G04 #@! TA.AperFunction,ViaPad*
%ADD44C,0.900000*%
G04 #@! TD*
G04 #@! TA.AperFunction,Conductor*
%ADD45C,0.300000*%
G04 #@! TD*
G04 #@! TA.AperFunction,Conductor*
%ADD46C,0.500000*%
G04 #@! TD*
G04 #@! TA.AperFunction,Conductor*
%ADD47C,1.000000*%
G04 #@! TD*
G04 #@! TA.AperFunction,Conductor*
%ADD48C,0.750000*%
G04 #@! TD*
G04 #@! TA.AperFunction,Conductor*
%ADD49C,0.450000*%
G04 #@! TD*
G04 #@! TA.AperFunction,Conductor*
%ADD50C,1.500000*%
G04 #@! TD*
G04 #@! TA.AperFunction,Conductor*
%ADD51C,2.000000*%
G04 #@! TD*
G04 APERTURE END LIST*
D10*
X149101600Y-109977400D03*
D11*
X125101600Y-109977400D03*
X99101600Y-109977400D03*
D10*
X100969800Y-67343000D03*
D11*
X124969800Y-67343000D03*
X150969800Y-67343000D03*
D12*
X102250000Y-75225000D03*
X100350000Y-75225000D03*
D13*
X149425000Y-76100000D03*
X151425000Y-76100000D03*
D14*
X140526000Y-84420000D03*
X142526000Y-84420000D03*
X140526000Y-89220000D03*
X142526000Y-89220000D03*
D15*
X121000000Y-88000000D03*
X121000000Y-91000000D03*
D16*
X93100000Y-83000000D03*
X93100000Y-84900000D03*
D17*
X104605000Y-72925000D03*
D18*
X103280000Y-72925000D03*
D19*
X101225000Y-72925000D03*
D20*
X159508000Y-96734000D03*
X158858000Y-96734000D03*
X158208000Y-96734000D03*
X157558000Y-96734000D03*
X157558000Y-91009000D03*
X158208000Y-91009000D03*
X158858000Y-91009000D03*
X159508000Y-91009000D03*
D21*
X161071000Y-93696500D03*
X162721000Y-93696500D03*
D22*
X155546000Y-97376500D03*
X155546000Y-100176500D03*
D23*
X112550000Y-77415000D03*
X112550000Y-75765000D03*
D24*
X157400000Y-112787500D03*
X157400000Y-110962500D03*
D25*
X162592000Y-113687500D03*
X161642000Y-113687500D03*
X160692000Y-113687500D03*
X160692000Y-111412500D03*
X162592000Y-111412500D03*
D17*
X151690000Y-97310000D03*
D18*
X150365000Y-97310000D03*
D19*
X148310000Y-97310000D03*
D26*
X157832000Y-85759500D03*
X157832000Y-87409500D03*
D27*
X153781000Y-93546000D03*
X153781000Y-95371000D03*
D28*
X109280000Y-77365000D03*
X109280000Y-75815000D03*
D26*
X104725000Y-84475000D03*
X104725000Y-86125000D03*
D29*
X155975000Y-90780000D03*
X154425000Y-90780000D03*
D16*
X91000000Y-82975000D03*
X91000000Y-84875000D03*
D30*
X157819000Y-88870500D03*
X159369000Y-88870500D03*
D31*
X156025000Y-87680000D03*
X154375000Y-87680000D03*
D26*
X159356000Y-85759500D03*
X159356000Y-87409500D03*
D21*
X154355000Y-89230000D03*
X156005000Y-89230000D03*
D15*
X129000000Y-88000000D03*
X129000000Y-91000000D03*
D32*
X103118900Y-81373000D03*
X103118900Y-80723000D03*
X103118900Y-80073000D03*
X103118900Y-79423000D03*
X108843900Y-79423000D03*
X108843900Y-80073000D03*
X108843900Y-80723000D03*
X108843900Y-81373000D03*
D33*
X130362000Y-76980000D03*
X130862000Y-76980000D03*
X131362000Y-76980000D03*
X131862000Y-76980000D03*
X132362000Y-76980000D03*
X132862000Y-76980000D03*
X133362000Y-76980000D03*
X133862000Y-76980000D03*
D34*
X128715000Y-75000000D03*
X135509000Y-75000000D03*
D12*
X157575000Y-109100000D03*
X155675000Y-109100000D03*
D35*
X106262500Y-75200000D03*
X104437500Y-75200000D03*
D29*
X162671000Y-95220500D03*
X161121000Y-95220500D03*
D36*
X86112500Y-88200000D03*
X86112500Y-87250000D03*
X86112500Y-86300000D03*
X88387500Y-86300000D03*
X88387500Y-88200000D03*
D37*
X160350000Y-104595000D03*
X160350000Y-100555000D03*
D29*
X104749800Y-83014200D03*
X103199800Y-83014200D03*
D38*
X95727500Y-82175000D03*
X99767500Y-82175000D03*
D12*
X157575000Y-107050000D03*
X155675000Y-107050000D03*
D39*
X87312500Y-81925000D03*
X89137500Y-81925000D03*
D16*
X153330000Y-97120000D03*
X153330000Y-99020000D03*
D40*
X111400000Y-79550000D03*
X111400000Y-81100000D03*
D41*
X103000000Y-77425000D03*
X100200000Y-77425000D03*
D31*
X114495000Y-79570000D03*
X112845000Y-79570000D03*
D26*
X110870000Y-75775000D03*
X110870000Y-77425000D03*
D31*
X114500000Y-81110000D03*
X112850000Y-81110000D03*
D42*
X128960000Y-136400000D03*
X168200000Y-75500000D03*
X99800000Y-41470000D03*
X118500000Y-133400000D03*
X78820000Y-106910000D03*
X101300000Y-42970000D03*
X78780000Y-113060000D03*
X127460000Y-134900000D03*
X78800000Y-73520000D03*
X78820000Y-103910000D03*
X81780000Y-117560000D03*
X148800000Y-137900000D03*
X168200000Y-57000000D03*
X101000000Y-137900000D03*
X171240000Y-92000000D03*
X168200000Y-77000000D03*
X80320000Y-106910000D03*
X134960000Y-134900000D03*
X171200000Y-55500000D03*
X134540000Y-41460000D03*
X78810000Y-119140000D03*
X130460000Y-136400000D03*
X171200000Y-71000000D03*
X87840000Y-42970000D03*
X125900000Y-136400000D03*
X133040000Y-41460000D03*
X102500000Y-133400000D03*
X151800000Y-137900000D03*
X93900000Y-41470000D03*
X151780000Y-41840000D03*
X121080000Y-41460000D03*
X133460000Y-133400000D03*
X169700000Y-75500000D03*
X78820000Y-99410000D03*
X81830000Y-62620000D03*
X168200000Y-121000000D03*
X147280000Y-41840000D03*
X171200000Y-98500000D03*
X168200000Y-104500000D03*
X80350000Y-56160000D03*
X81820000Y-105410000D03*
X124500000Y-134900000D03*
X169700000Y-58500000D03*
X78830000Y-68620000D03*
X168200000Y-61500000D03*
X151780000Y-43340000D03*
X89400000Y-41470000D03*
X78850000Y-54660000D03*
X130460000Y-137900000D03*
X81820000Y-100910000D03*
X168200000Y-124000000D03*
X81830000Y-67120000D03*
X90900000Y-41470000D03*
X127040000Y-41460000D03*
X90900000Y-42970000D03*
X80350000Y-59160000D03*
X134960000Y-137900000D03*
X130460000Y-133400000D03*
X80280000Y-111560000D03*
X81830000Y-65620000D03*
X169700000Y-113500000D03*
X168200000Y-125500000D03*
X168240000Y-90500000D03*
X171200000Y-113500000D03*
X81820000Y-93020000D03*
X81780000Y-116060000D03*
X78820000Y-87120000D03*
X123000000Y-133400000D03*
X86440000Y-41470000D03*
X147240000Y-136400000D03*
X80330000Y-61220000D03*
X98000000Y-136400000D03*
X169700000Y-125500000D03*
X117000000Y-136400000D03*
X81830000Y-70120000D03*
X150300000Y-133400000D03*
X169700000Y-119500000D03*
X78800000Y-79520000D03*
X171200000Y-101500000D03*
X120000000Y-137900000D03*
X119580000Y-41460000D03*
X78850000Y-53160000D03*
X124500000Y-137900000D03*
X133460000Y-136400000D03*
X81780000Y-110060000D03*
X93900000Y-42970000D03*
X169700000Y-100000000D03*
X80280000Y-117560000D03*
X81780000Y-108660000D03*
X115080000Y-42960000D03*
X78810000Y-125040000D03*
X171200000Y-81500000D03*
X150300000Y-136400000D03*
X128540000Y-42960000D03*
X131960000Y-137900000D03*
X168200000Y-80000000D03*
X171240000Y-86000000D03*
X151800000Y-134900000D03*
X169700000Y-81500000D03*
X159200000Y-137900000D03*
X81810000Y-128040000D03*
X118080000Y-41460000D03*
X159200000Y-134900000D03*
X168200000Y-118000000D03*
X169740000Y-92000000D03*
X171200000Y-124000000D03*
X98000000Y-133400000D03*
X92400000Y-41470000D03*
X148800000Y-134900000D03*
X169700000Y-124000000D03*
X168200000Y-103000000D03*
X171200000Y-72500000D03*
X157700000Y-137900000D03*
X130460000Y-134900000D03*
X81820000Y-88520000D03*
X78850000Y-56160000D03*
X80320000Y-103910000D03*
X80330000Y-65620000D03*
X81780000Y-114560000D03*
X133460000Y-134900000D03*
X169700000Y-60000000D03*
X98000000Y-137900000D03*
X150280000Y-43340000D03*
X78780000Y-116060000D03*
X102800000Y-42970000D03*
X80330000Y-68620000D03*
X122580000Y-42960000D03*
X127040000Y-42960000D03*
X118500000Y-137900000D03*
X101000000Y-136400000D03*
X80320000Y-87120000D03*
X102800000Y-41470000D03*
X81800000Y-72120000D03*
X169700000Y-118000000D03*
X78820000Y-88520000D03*
X78820000Y-98010000D03*
X171200000Y-57000000D03*
X169740000Y-90500000D03*
X115080000Y-41460000D03*
X78820000Y-100910000D03*
X169700000Y-115000000D03*
X128960000Y-137900000D03*
X80300000Y-75020000D03*
X81820000Y-90020000D03*
X168200000Y-115000000D03*
X80310000Y-122040000D03*
X171200000Y-122500000D03*
X78820000Y-105410000D03*
X81820000Y-87120000D03*
X160700000Y-133400000D03*
X123000000Y-134900000D03*
X80350000Y-53160000D03*
X127460000Y-136400000D03*
X171200000Y-127000000D03*
X131960000Y-133400000D03*
X96500000Y-133400000D03*
X81820000Y-91520000D03*
X116580000Y-41460000D03*
X81800000Y-78020000D03*
X81830000Y-64120000D03*
X117000000Y-134900000D03*
X78780000Y-110060000D03*
X125900000Y-133400000D03*
X125540000Y-41460000D03*
X81810000Y-125040000D03*
X81780000Y-113060000D03*
X98300000Y-41470000D03*
X81820000Y-94520000D03*
X78850000Y-50260000D03*
X147240000Y-137900000D03*
X78820000Y-93020000D03*
X99500000Y-136400000D03*
X80320000Y-99410000D03*
X98300000Y-42970000D03*
X118080000Y-42960000D03*
X80320000Y-105410000D03*
X171200000Y-125500000D03*
X171240000Y-90500000D03*
X160700000Y-137900000D03*
X150300000Y-134900000D03*
X169740000Y-89000000D03*
X80300000Y-72120000D03*
X160700000Y-134900000D03*
X171240000Y-87500000D03*
X159200000Y-136400000D03*
X154800000Y-136400000D03*
X148800000Y-136400000D03*
X81850000Y-54660000D03*
X80310000Y-119140000D03*
X124140000Y-42960000D03*
X169700000Y-71000000D03*
X154800000Y-137900000D03*
X80330000Y-62620000D03*
X99500000Y-133400000D03*
X80300000Y-79520000D03*
X171200000Y-61500000D03*
X134540000Y-42960000D03*
X102500000Y-136400000D03*
X162200000Y-133400000D03*
X169700000Y-77000000D03*
X81820000Y-96020000D03*
X80310000Y-128040000D03*
X124500000Y-136400000D03*
X156300000Y-133400000D03*
X99800000Y-42970000D03*
X121500000Y-134900000D03*
X125900000Y-134900000D03*
X169700000Y-116500000D03*
X78810000Y-120540000D03*
X163600000Y-136400000D03*
X99500000Y-134900000D03*
X81850000Y-50260000D03*
X128540000Y-41460000D03*
X171200000Y-52600000D03*
X169740000Y-86000000D03*
X80300000Y-76520000D03*
X81850000Y-59160000D03*
X168200000Y-100000000D03*
X80280000Y-114560000D03*
X171200000Y-115000000D03*
X78820000Y-102410000D03*
X125900000Y-137900000D03*
X171200000Y-121000000D03*
X117000000Y-137900000D03*
X81800000Y-75020000D03*
X147240000Y-134900000D03*
X153300000Y-134900000D03*
X157700000Y-133400000D03*
X80280000Y-113060000D03*
X150300000Y-137900000D03*
X87840000Y-41470000D03*
X171200000Y-77000000D03*
X78810000Y-126540000D03*
X169740000Y-84500000D03*
X147240000Y-133400000D03*
X80320000Y-94520000D03*
X98000000Y-134900000D03*
X169700000Y-97000000D03*
X80300000Y-78020000D03*
X171240000Y-84500000D03*
X115230000Y-137900000D03*
X168240000Y-84500000D03*
X101300000Y-41470000D03*
X80300000Y-73520000D03*
X96500000Y-137900000D03*
X151800000Y-133400000D03*
X168200000Y-71000000D03*
X168200000Y-81500000D03*
X78780000Y-108660000D03*
X95400000Y-42970000D03*
X168200000Y-97000000D03*
X81810000Y-126540000D03*
X168200000Y-54000000D03*
X78830000Y-70120000D03*
X168200000Y-74000000D03*
X117000000Y-133400000D03*
X168200000Y-107500000D03*
X171200000Y-109000000D03*
X169700000Y-98500000D03*
X157700000Y-134900000D03*
X156300000Y-136400000D03*
X169700000Y-61500000D03*
X154800000Y-134900000D03*
X171200000Y-119500000D03*
X81850000Y-56160000D03*
X171200000Y-75500000D03*
X121500000Y-133400000D03*
X81850000Y-51660000D03*
X171200000Y-112000000D03*
X81850000Y-57660000D03*
X81810000Y-119140000D03*
X171240000Y-83000000D03*
X80280000Y-108660000D03*
X80350000Y-50260000D03*
X171200000Y-106000000D03*
X96900000Y-41470000D03*
X127460000Y-133400000D03*
X148780000Y-43340000D03*
X78830000Y-61220000D03*
X89400000Y-42970000D03*
X169700000Y-57000000D03*
X171200000Y-118000000D03*
X81820000Y-102410000D03*
X80320000Y-96020000D03*
X80310000Y-123540000D03*
X81800000Y-81020000D03*
X121080000Y-42960000D03*
X119580000Y-42960000D03*
X153300000Y-133400000D03*
X81800000Y-79520000D03*
X78820000Y-94520000D03*
X81830000Y-61220000D03*
X168200000Y-110500000D03*
X168240000Y-86000000D03*
X171200000Y-58500000D03*
X99500000Y-137900000D03*
X80280000Y-110060000D03*
X78810000Y-123540000D03*
X168200000Y-106000000D03*
X121500000Y-136400000D03*
X114000000Y-133400000D03*
X171200000Y-104500000D03*
X81810000Y-123540000D03*
X80310000Y-125040000D03*
X169700000Y-80000000D03*
X171200000Y-54000000D03*
X80350000Y-54660000D03*
X153280000Y-41840000D03*
X121500000Y-137900000D03*
X169700000Y-110500000D03*
X169700000Y-103000000D03*
X81810000Y-120540000D03*
X150280000Y-41840000D03*
X168200000Y-119500000D03*
X160700000Y-136400000D03*
X156300000Y-134900000D03*
X171200000Y-100000000D03*
X81810000Y-122040000D03*
X80330000Y-70120000D03*
X169700000Y-121000000D03*
X80300000Y-81020000D03*
X120000000Y-133400000D03*
X122580000Y-41460000D03*
X78800000Y-76520000D03*
X131960000Y-134900000D03*
X124140000Y-41460000D03*
X154800000Y-133400000D03*
X127460000Y-137900000D03*
X169700000Y-112000000D03*
X163600000Y-137900000D03*
X169700000Y-101500000D03*
X115500000Y-133400000D03*
X128960000Y-134900000D03*
X133040000Y-42960000D03*
X171200000Y-107500000D03*
X168240000Y-92000000D03*
X81850000Y-53160000D03*
X162200000Y-134900000D03*
X168240000Y-89000000D03*
X169700000Y-104500000D03*
X116580000Y-42960000D03*
X169700000Y-109000000D03*
X81780000Y-111560000D03*
X78810000Y-128040000D03*
X169700000Y-122500000D03*
X168200000Y-98500000D03*
X78820000Y-91520000D03*
X102500000Y-134900000D03*
X78800000Y-72120000D03*
X123000000Y-136400000D03*
X128960000Y-133400000D03*
X115500000Y-136400000D03*
X168200000Y-127000000D03*
X169740000Y-87500000D03*
X96500000Y-136400000D03*
X168200000Y-101500000D03*
X81820000Y-98010000D03*
X168200000Y-112000000D03*
X78810000Y-122040000D03*
X115500000Y-134900000D03*
X168200000Y-122500000D03*
X169700000Y-107500000D03*
X80320000Y-98010000D03*
X156300000Y-137900000D03*
X125540000Y-42960000D03*
X153280000Y-43340000D03*
X81820000Y-106910000D03*
X168200000Y-109000000D03*
X78780000Y-111560000D03*
X171240000Y-89000000D03*
X169700000Y-78500000D03*
X163600000Y-133400000D03*
X168200000Y-116500000D03*
X78830000Y-67120000D03*
X92400000Y-42970000D03*
X147280000Y-43340000D03*
X153300000Y-137900000D03*
X96500000Y-134900000D03*
X81800000Y-73520000D03*
X80320000Y-88520000D03*
X78850000Y-59160000D03*
X80320000Y-100910000D03*
X80320000Y-91520000D03*
X80310000Y-120540000D03*
X162200000Y-136400000D03*
X148780000Y-41840000D03*
X171200000Y-110500000D03*
X171200000Y-97000000D03*
X171200000Y-74000000D03*
X171200000Y-60000000D03*
X157700000Y-136400000D03*
X168200000Y-52600000D03*
X168200000Y-60000000D03*
X169700000Y-127000000D03*
X171200000Y-103000000D03*
X168200000Y-113500000D03*
X134960000Y-133400000D03*
X80350000Y-57660000D03*
X81830000Y-68620000D03*
X124500000Y-133400000D03*
X171200000Y-78500000D03*
X80330000Y-64120000D03*
X81820000Y-103910000D03*
X81820000Y-99410000D03*
X169700000Y-52600000D03*
X162200000Y-137900000D03*
X80330000Y-67120000D03*
X169700000Y-54000000D03*
X168200000Y-78500000D03*
X101000000Y-134900000D03*
X159200000Y-133400000D03*
X168240000Y-87500000D03*
X78800000Y-75020000D03*
X80320000Y-102410000D03*
X80280000Y-116060000D03*
X78820000Y-96020000D03*
X86440000Y-42970000D03*
X169700000Y-72500000D03*
X168240000Y-83000000D03*
X78780000Y-117560000D03*
X78830000Y-64120000D03*
X78850000Y-57660000D03*
X151800000Y-136400000D03*
X133460000Y-137900000D03*
X78830000Y-65620000D03*
X78800000Y-78020000D03*
X168200000Y-55500000D03*
X153300000Y-136400000D03*
X123000000Y-137900000D03*
X95400000Y-41470000D03*
X96900000Y-42970000D03*
X134960000Y-136400000D03*
X171200000Y-80000000D03*
X168200000Y-58500000D03*
X169700000Y-55500000D03*
X80350000Y-51660000D03*
X78780000Y-114560000D03*
X101000000Y-133400000D03*
X80320000Y-90020000D03*
X80320000Y-93020000D03*
X102500000Y-137900000D03*
X78820000Y-90020000D03*
X169700000Y-74000000D03*
X78850000Y-51660000D03*
X171200000Y-116500000D03*
X163600000Y-134900000D03*
X168200000Y-72500000D03*
X169700000Y-106000000D03*
X78830000Y-62620000D03*
X169740000Y-83000000D03*
X81800000Y-76520000D03*
X78800000Y-81020000D03*
X80310000Y-126540000D03*
X148800000Y-133400000D03*
X131960000Y-136400000D03*
X109000000Y-99700000D03*
X92000000Y-101200000D03*
X110500000Y-99700000D03*
X128500000Y-101200000D03*
X104500000Y-96700000D03*
X103000000Y-101200000D03*
X113500000Y-101210000D03*
X124000000Y-98200000D03*
X104500000Y-99700000D03*
X155775000Y-84725000D03*
X110330000Y-86240000D03*
X115000000Y-99700000D03*
X92000000Y-99700000D03*
X119020000Y-73470000D03*
X157766000Y-92802000D03*
X94700000Y-71475000D03*
X122500000Y-96700000D03*
X93500000Y-96700000D03*
X120520000Y-74970000D03*
X105280000Y-80735000D03*
X109000000Y-101200000D03*
X112000000Y-99700000D03*
X99200000Y-72975000D03*
X151920000Y-102050000D03*
X104500000Y-101200000D03*
X97000000Y-99700000D03*
X119500000Y-98200000D03*
X148000000Y-98700000D03*
X136000000Y-103200000D03*
X115000000Y-98200000D03*
X162600000Y-96750000D03*
X122020000Y-74970000D03*
X99200000Y-74475000D03*
X97000000Y-101200000D03*
X107500000Y-99700000D03*
X139000000Y-98700000D03*
X100000000Y-98200000D03*
X119500000Y-99700000D03*
X87500000Y-96700000D03*
X131225000Y-72950000D03*
X143500000Y-103200000D03*
X121000000Y-98200000D03*
X139000000Y-101700000D03*
X106000000Y-96700000D03*
X109000000Y-96700000D03*
X111830000Y-87740000D03*
X154025000Y-107050000D03*
X112000000Y-96700000D03*
X145000000Y-103200000D03*
X89000000Y-99700000D03*
X148000000Y-100200000D03*
X110500000Y-96700000D03*
X142000000Y-103200000D03*
X164250000Y-96750000D03*
X153420000Y-100550000D03*
X96200000Y-72975000D03*
X109000000Y-98200000D03*
X95500000Y-101200000D03*
X125500000Y-101200000D03*
X132650000Y-83300000D03*
X95500000Y-98200000D03*
X125500000Y-96700000D03*
X103000000Y-98200000D03*
X127000000Y-98200000D03*
X101500000Y-99700000D03*
X116500000Y-98200000D03*
X137500000Y-101700000D03*
X153420000Y-102050000D03*
X111830000Y-84740000D03*
X153425000Y-103700000D03*
X143500000Y-100200000D03*
X119020000Y-71970000D03*
X159290000Y-94326000D03*
X118000000Y-101200000D03*
X114200000Y-77765000D03*
X124000000Y-99700000D03*
X115000000Y-96700000D03*
X128500000Y-96700000D03*
X97000000Y-96700000D03*
X110500000Y-98200000D03*
X106000000Y-101200000D03*
X113500000Y-98210000D03*
X95500000Y-99700000D03*
X86000000Y-96700000D03*
X96200000Y-71475000D03*
X111830000Y-86240000D03*
X100000000Y-101200000D03*
X114830000Y-86240000D03*
X131858000Y-72925000D03*
X122500000Y-101200000D03*
X106000000Y-99700000D03*
X121000000Y-96700000D03*
X127000000Y-99700000D03*
X115700000Y-76135000D03*
X164250000Y-95226000D03*
X123520000Y-71970000D03*
X106920000Y-80730000D03*
X113330000Y-87740000D03*
X134500000Y-98700000D03*
X114200000Y-76125000D03*
X93500000Y-101200000D03*
X118000000Y-96700000D03*
X119500000Y-101200000D03*
X130000000Y-98200000D03*
X146500000Y-100200000D03*
X119500000Y-96700000D03*
X107660000Y-76205000D03*
X148000000Y-101700000D03*
X115700000Y-77775000D03*
X125500000Y-98200000D03*
X130000000Y-96700000D03*
X140500000Y-103200000D03*
X121000000Y-99700000D03*
X90500000Y-98200000D03*
X90500000Y-96700000D03*
X101500000Y-101200000D03*
X87500000Y-99700000D03*
X142000000Y-100200000D03*
X137500000Y-100200000D03*
X110330000Y-87740000D03*
X94700000Y-72975000D03*
X122500000Y-99700000D03*
X99200000Y-71475000D03*
X107500000Y-101200000D03*
X107500000Y-98200000D03*
X100000000Y-96700000D03*
X142000000Y-101700000D03*
X120520000Y-73470000D03*
X146500000Y-103200000D03*
X122020000Y-73470000D03*
X97700000Y-72975000D03*
X122500000Y-98200000D03*
X130575000Y-72950000D03*
X94700000Y-74475000D03*
X136000000Y-101700000D03*
X140500000Y-98700000D03*
X136000000Y-100200000D03*
X130000000Y-101200000D03*
X116500000Y-101200000D03*
X145000000Y-98700000D03*
X110330000Y-84740000D03*
X102394000Y-84166000D03*
X161076000Y-96750000D03*
X131150000Y-83300000D03*
X112000000Y-98200000D03*
X142000000Y-98700000D03*
X101500000Y-96700000D03*
X107500000Y-96700000D03*
X113500000Y-99710000D03*
X98500000Y-98200000D03*
X134500000Y-101700000D03*
X90500000Y-101200000D03*
X116500000Y-96700000D03*
X157766000Y-94326000D03*
X115000000Y-101200000D03*
X103000000Y-96700000D03*
X95500000Y-96700000D03*
X137500000Y-103200000D03*
X86000000Y-98200000D03*
X112000000Y-101200000D03*
X106150000Y-77815000D03*
X139000000Y-100200000D03*
X86000000Y-101200000D03*
X113330000Y-84740000D03*
X128500000Y-98200000D03*
X100000000Y-99700000D03*
X146500000Y-98700000D03*
X124000000Y-101200000D03*
X125500000Y-99700000D03*
X140500000Y-100200000D03*
X124000000Y-96700000D03*
X104500000Y-98200000D03*
X90500000Y-99700000D03*
X97700000Y-71475000D03*
X103000000Y-99700000D03*
X105750000Y-83025000D03*
X105890000Y-79360000D03*
X140500000Y-101700000D03*
X127000000Y-96700000D03*
X114830000Y-87740000D03*
X86000000Y-99700000D03*
X113500000Y-96710000D03*
X106000000Y-98200000D03*
X136000000Y-98700000D03*
X120520000Y-71970000D03*
X93500000Y-98200000D03*
X118000000Y-98200000D03*
X118000000Y-99700000D03*
X110500000Y-101200000D03*
X130000000Y-99700000D03*
X92000000Y-98200000D03*
X127000000Y-101200000D03*
X97700000Y-74475000D03*
X93500000Y-99700000D03*
X137500000Y-98700000D03*
X89000000Y-101200000D03*
X134500000Y-100200000D03*
X98500000Y-101200000D03*
X119020000Y-74970000D03*
X122020000Y-71970000D03*
X98500000Y-96700000D03*
X154025000Y-109075000D03*
X121000000Y-101200000D03*
X139000000Y-103200000D03*
X143500000Y-101700000D03*
X145000000Y-101700000D03*
X116500000Y-99700000D03*
X128500000Y-99700000D03*
X97000000Y-98200000D03*
X89000000Y-98200000D03*
X87500000Y-98200000D03*
X123520000Y-74970000D03*
X113330000Y-86240000D03*
X101500000Y-98200000D03*
X123520000Y-73470000D03*
X87500000Y-101200000D03*
X106920000Y-79380000D03*
X114830000Y-84740000D03*
X153425000Y-105200000D03*
X96200000Y-74475000D03*
X155734000Y-85710000D03*
X161068000Y-97882000D03*
X159290000Y-92802000D03*
X98500000Y-99700000D03*
X156550000Y-84720000D03*
X89000000Y-96700000D03*
X92000000Y-96700000D03*
X129650000Y-83300000D03*
X134500000Y-103200000D03*
D43*
X129000000Y-85940958D03*
D42*
X126150000Y-77075000D03*
X88250000Y-89625000D03*
D43*
X130900000Y-74525000D03*
D44*
X89975000Y-88650000D03*
D42*
X115650000Y-79575000D03*
D44*
X106225000Y-76650000D03*
X157850000Y-83775000D03*
D42*
X164150000Y-111725000D03*
D44*
X153050000Y-93696500D03*
D42*
X163975000Y-113750000D03*
X135922000Y-78324000D03*
X133636000Y-74768000D03*
D43*
X160188750Y-96053250D03*
X160372000Y-90902500D03*
X152150000Y-95350000D03*
X159356000Y-83790500D03*
X132300000Y-91100000D03*
D42*
X115550000Y-81115000D03*
X104550000Y-76425000D03*
X108475000Y-82125000D03*
X104740000Y-81850000D03*
D45*
X131862000Y-73587000D02*
X131858000Y-73583000D01*
X158858000Y-97471499D02*
X159522501Y-98136000D01*
D46*
X109280000Y-75815000D02*
X110830000Y-75815000D01*
D45*
X103118900Y-80723000D02*
X105268000Y-80723000D01*
X131862000Y-74100000D02*
X131862000Y-73950000D01*
X131862000Y-73950000D02*
X131575000Y-73950000D01*
X103118900Y-80723000D02*
X102281000Y-80723000D01*
X131858000Y-73583000D02*
X131858000Y-72925000D01*
X102140000Y-80864000D02*
X102031400Y-80972600D01*
D46*
X110830000Y-75815000D02*
X110870000Y-75775000D01*
D45*
X131862000Y-74100000D02*
X131862000Y-73587000D01*
D47*
X93100000Y-84900000D02*
X93100000Y-85975000D01*
D45*
X131862000Y-73587000D02*
X131225000Y-72950000D01*
X131862000Y-72994000D02*
X131858000Y-72990000D01*
X159522501Y-98136000D02*
X160814000Y-98136000D01*
X160814000Y-98136000D02*
X161068000Y-97882000D01*
D48*
X105739200Y-83014200D02*
X105750000Y-83025000D01*
D45*
X158858000Y-96734000D02*
X158858000Y-97471499D01*
X131862000Y-74264000D02*
X131862000Y-74100000D01*
D47*
X93075000Y-84875000D02*
X93100000Y-84900000D01*
D45*
X102031400Y-83803400D02*
X102394000Y-84166000D01*
D47*
X91000000Y-84875000D02*
X93075000Y-84875000D01*
X91000000Y-84875000D02*
X91000000Y-85975000D01*
D45*
X131575000Y-73950000D02*
X130575000Y-72950000D01*
X102031400Y-80972600D02*
X102031400Y-83803400D01*
D48*
X104749800Y-83014200D02*
X105739200Y-83014200D01*
D45*
X102281000Y-80723000D02*
X102140000Y-80864000D01*
X105268000Y-80723000D02*
X105280000Y-80735000D01*
X131862000Y-76980000D02*
X131862000Y-74264000D01*
D47*
X129000000Y-85940958D02*
X129000000Y-88000000D01*
X129000000Y-85940958D02*
X130330958Y-85940958D01*
X128979521Y-85920479D02*
X129000000Y-85940958D01*
X130330958Y-85940958D02*
X131851916Y-84420000D01*
X121000000Y-87200000D02*
X121000000Y-88000000D01*
X128979521Y-85920479D02*
X122279521Y-85920479D01*
X131851916Y-84420000D02*
X140526000Y-84420000D01*
X142526000Y-84420000D02*
X140526000Y-84420000D01*
X122279521Y-85920479D02*
X121000000Y-87200000D01*
D46*
X156025000Y-87680000D02*
X156025000Y-90730000D01*
X157304000Y-90780000D02*
X157533000Y-91009000D01*
X155975000Y-90780000D02*
X157304000Y-90780000D01*
X156025000Y-90730000D02*
X155975000Y-90780000D01*
D45*
X87312500Y-81925000D02*
X87312500Y-85100000D01*
D49*
X130192000Y-77075000D02*
X130287000Y-76980000D01*
D45*
X87312500Y-85100000D02*
X86112500Y-86300000D01*
D49*
X126150000Y-77075000D02*
X130192000Y-77075000D01*
D45*
X130862000Y-74563000D02*
X130900000Y-74525000D01*
D46*
X86825000Y-88200000D02*
X86112500Y-88200000D01*
D45*
X130862000Y-76980000D02*
X130862000Y-74563000D01*
D46*
X88250000Y-89625000D02*
X86825000Y-88200000D01*
D50*
X120782767Y-79450000D02*
X130512000Y-79450000D01*
D45*
X131362000Y-76980000D02*
X131362000Y-78750000D01*
D50*
X130512000Y-79450000D02*
X130587000Y-79525000D01*
D47*
X106225000Y-75475000D02*
X106210000Y-75460000D01*
D46*
X115645000Y-79570000D02*
X115650000Y-79575000D01*
X114495000Y-79570000D02*
X115645000Y-79570000D01*
X112890000Y-75425000D02*
X112890000Y-73910000D01*
D50*
X106210000Y-75460000D02*
X106210000Y-74170000D01*
D46*
X110950000Y-73960000D02*
X110900000Y-73910000D01*
D50*
X112890000Y-73910000D02*
X115242767Y-73910000D01*
D47*
X89525000Y-88200000D02*
X88387500Y-88200000D01*
D45*
X131362000Y-78750000D02*
X130587000Y-79525000D01*
D47*
X89975000Y-88650000D02*
X89525000Y-88200000D01*
D50*
X110900000Y-73910000D02*
X112890000Y-73910000D01*
D47*
X106225000Y-76650000D02*
X106225000Y-75475000D01*
D50*
X106470000Y-73910000D02*
X110900000Y-73910000D01*
D46*
X112550000Y-75765000D02*
X112890000Y-75425000D01*
D50*
X115242767Y-73910000D02*
X120782767Y-79450000D01*
D49*
X158208000Y-89259500D02*
X157819000Y-88870500D01*
D46*
X157832000Y-87409500D02*
X157832000Y-88857500D01*
X157832000Y-88857500D02*
X157819000Y-88870500D01*
D49*
X158208000Y-91009000D02*
X158208000Y-89259500D01*
D45*
X132362000Y-76980000D02*
X132362000Y-73413000D01*
X133400000Y-72375000D02*
X147825000Y-72375000D01*
X149425000Y-73975000D02*
X149425000Y-76100000D01*
X147825000Y-72375000D02*
X149425000Y-73975000D01*
X132362000Y-73413000D02*
X133400000Y-72375000D01*
D51*
X149130000Y-89610012D02*
X151741994Y-92222006D01*
X133752000Y-80102000D02*
X133725000Y-80075000D01*
D46*
X157834500Y-83790500D02*
X157850000Y-83775000D01*
D45*
X132862000Y-79212000D02*
X132862000Y-76980000D01*
D46*
X149200000Y-87680000D02*
X149130000Y-87750000D01*
X162904500Y-111725000D02*
X162592000Y-111412500D01*
D51*
X153781000Y-93633500D02*
X152433000Y-93633500D01*
D46*
X157832000Y-85759500D02*
X157832000Y-83790500D01*
X157832000Y-83790500D02*
X157834500Y-83790500D01*
D51*
X149130000Y-87750000D02*
X149130000Y-89610012D01*
D46*
X164150000Y-111725000D02*
X162904500Y-111725000D01*
D51*
X151741994Y-92222006D02*
X152433000Y-92913012D01*
X149130000Y-80102000D02*
X149130000Y-87750000D01*
D46*
X154213000Y-93201500D02*
X153781000Y-93633500D01*
D51*
X152433000Y-93633500D02*
X152370000Y-93696500D01*
X149130000Y-80102000D02*
X133752000Y-80102000D01*
D45*
X133725000Y-80075000D02*
X132862000Y-79212000D01*
D51*
X152433000Y-92913012D02*
X152433000Y-93633500D01*
D46*
X154375000Y-87680000D02*
X149200000Y-87680000D01*
D45*
X133636000Y-78324000D02*
X133362000Y-78050000D01*
X133362000Y-76980000D02*
X133362000Y-78050000D01*
X135922000Y-78324000D02*
X133636000Y-78324000D01*
D46*
X163975000Y-113750000D02*
X163912500Y-113687500D01*
X163912500Y-113687500D02*
X162592000Y-113687500D01*
D45*
X157400000Y-112787500D02*
X159792000Y-112787500D01*
X133862000Y-76980000D02*
X133862000Y-74994000D01*
X159792000Y-112787500D02*
X160692000Y-113687500D01*
X133862000Y-74994000D02*
X133636000Y-74768000D01*
D49*
X158858000Y-91009000D02*
X158858000Y-89381500D01*
X158858000Y-89381500D02*
X159369000Y-88870500D01*
D46*
X159356000Y-87409500D02*
X159356000Y-88857500D01*
X159356000Y-88857500D02*
X159369000Y-88870500D01*
X161121000Y-95220500D02*
X161021500Y-95220500D01*
X161021500Y-95220500D02*
X159508000Y-96734000D01*
X161071000Y-95170500D02*
X161121000Y-95220500D01*
X159614500Y-90902500D02*
X159533000Y-90984000D01*
X161071000Y-93696500D02*
X161071000Y-95170500D01*
X160372000Y-90902500D02*
X159614500Y-90902500D01*
X159533000Y-90984000D02*
X159533000Y-91009000D01*
X159356000Y-85759500D02*
X159356000Y-83790500D01*
D45*
X157400000Y-110962500D02*
X160242000Y-110962500D01*
D46*
X165198000Y-104110500D02*
X165198000Y-94458500D01*
X160350000Y-104595000D02*
X160603500Y-104848500D01*
X164460000Y-104848500D02*
X165198000Y-104110500D01*
D45*
X160242000Y-110962500D02*
X160692000Y-111412500D01*
D46*
X160603500Y-104848500D02*
X164460000Y-104848500D01*
X164436000Y-93696500D02*
X162721000Y-93696500D01*
X165198000Y-94458500D02*
X164436000Y-93696500D01*
D47*
X129100000Y-91100000D02*
X129000000Y-91000000D01*
X140526000Y-89220000D02*
X134180000Y-89220000D01*
X128000000Y-92700000D02*
X129000000Y-91700000D01*
X132300000Y-91100000D02*
X129100000Y-91100000D01*
X122700000Y-92700000D02*
X128000000Y-92700000D01*
X134180000Y-89220000D02*
X132300000Y-91100000D01*
X129000000Y-91700000D02*
X129000000Y-91000000D01*
X142526000Y-89220000D02*
X140526000Y-89220000D01*
X121000000Y-91000000D02*
X122700000Y-92700000D01*
D46*
X108843900Y-79423000D02*
X108843900Y-77801100D01*
X108843900Y-77801100D02*
X109280000Y-77365000D01*
X112540000Y-77425000D02*
X112550000Y-77415000D01*
X110810000Y-77365000D02*
X110870000Y-77425000D01*
X109280000Y-77365000D02*
X110810000Y-77365000D01*
X110870000Y-77425000D02*
X112540000Y-77425000D01*
X111420000Y-79570000D02*
X111400000Y-79550000D01*
D45*
X108843900Y-80073000D02*
X110877000Y-80073000D01*
D49*
X112820000Y-79545000D02*
X112845000Y-79570000D01*
D45*
X110877000Y-80073000D02*
X111400000Y-79550000D01*
D46*
X112845000Y-79570000D02*
X111420000Y-79570000D01*
X111410000Y-81110000D02*
X111400000Y-81100000D01*
D49*
X112835000Y-81095000D02*
X112850000Y-81110000D01*
D46*
X112850000Y-81110000D02*
X111410000Y-81110000D01*
D45*
X111400000Y-81100000D02*
X111023000Y-80723000D01*
X111023000Y-80723000D02*
X108843900Y-80723000D01*
D46*
X115545000Y-81110000D02*
X115550000Y-81115000D01*
X114500000Y-81110000D02*
X115545000Y-81110000D01*
X103524800Y-84475000D02*
X103199800Y-84150000D01*
D45*
X103199800Y-83014200D02*
X103199800Y-81453900D01*
D46*
X103199800Y-84150000D02*
X103199800Y-83014200D01*
D45*
X103199800Y-81453900D02*
X103118900Y-81373000D01*
X108475000Y-81741900D02*
X108843900Y-81373000D01*
D49*
X103140000Y-83074000D02*
X103199800Y-83014200D01*
D45*
X104364000Y-81850000D02*
X104740000Y-81850000D01*
D46*
X104725000Y-84475000D02*
X103524800Y-84475000D01*
D45*
X103199800Y-83014200D02*
X104364000Y-81850000D01*
X108475000Y-82125000D02*
X108475000Y-81741900D01*
D46*
X97000000Y-87050000D02*
X103800000Y-87050000D01*
X97000000Y-87050000D02*
X95727500Y-85777500D01*
D45*
X89137500Y-85550000D02*
X88387500Y-86300000D01*
X89137500Y-81925000D02*
X89137500Y-85550000D01*
D46*
X103800000Y-87050000D02*
X104725000Y-86125000D01*
X95727500Y-85777500D02*
X95727500Y-82175000D01*
G04 #@! TA.AperFunction,Conductor*
G36*
X92249730Y-84149407D02*
G01*
X92285694Y-84198907D01*
X92285694Y-84260093D01*
X92270792Y-84288829D01*
X92181647Y-84407909D01*
X92147420Y-84499677D01*
X92109369Y-84547591D01*
X92050422Y-84563989D01*
X91993095Y-84542607D01*
X91961904Y-84499676D01*
X91918354Y-84382912D01*
X91847923Y-84288830D01*
X91828186Y-84230915D01*
X91846260Y-84172460D01*
X91895241Y-84135792D01*
X91927176Y-84130500D01*
X92191539Y-84130500D01*
X92249730Y-84149407D01*
G37*
G04 #@! TD.AperFunction*
G04 #@! TA.AperFunction,Conductor*
G36*
X165304427Y-40510905D02*
G01*
X165462991Y-40525287D01*
X165479900Y-40528317D01*
X165629599Y-40568812D01*
X165645725Y-40574718D01*
X165764818Y-40630483D01*
X165786171Y-40640482D01*
X165801038Y-40649089D01*
X165927999Y-40738139D01*
X165941154Y-40749186D01*
X166050813Y-40858845D01*
X166061860Y-40872000D01*
X166150910Y-40998961D01*
X166159517Y-41013828D01*
X166225280Y-41154272D01*
X166231187Y-41170402D01*
X166271682Y-41320099D01*
X166274712Y-41337008D01*
X166289095Y-41495572D01*
X166289500Y-41504515D01*
X166289500Y-46662186D01*
X166270593Y-46720377D01*
X166268404Y-46723275D01*
X166231205Y-46770713D01*
X166231197Y-46770724D01*
X166139792Y-46944363D01*
X166139789Y-46944371D01*
X166081216Y-47131643D01*
X166081215Y-47131650D01*
X166081215Y-47131651D01*
X166057391Y-47326433D01*
X166069102Y-47522316D01*
X166069103Y-47522320D01*
X166115963Y-47712867D01*
X166115963Y-47712868D01*
X166196437Y-47891844D01*
X166196440Y-47891849D01*
X166307878Y-48053355D01*
X166307879Y-48053356D01*
X166307882Y-48053360D01*
X166446640Y-48192118D01*
X166446643Y-48192120D01*
X166446644Y-48192121D01*
X166576447Y-48281684D01*
X166608156Y-48303563D01*
X166787129Y-48384036D01*
X166977684Y-48430898D01*
X167173567Y-48442609D01*
X167368349Y-48418785D01*
X167368355Y-48418783D01*
X167368356Y-48418783D01*
X167523736Y-48370185D01*
X167555635Y-48360208D01*
X167729278Y-48268801D01*
X167776723Y-48231596D01*
X167834181Y-48210567D01*
X167837813Y-48210500D01*
X172995484Y-48210500D01*
X173004427Y-48210905D01*
X173162991Y-48225287D01*
X173179900Y-48228317D01*
X173188458Y-48230632D01*
X173329599Y-48268812D01*
X173345725Y-48274718D01*
X173391183Y-48296004D01*
X173486171Y-48340482D01*
X173501038Y-48349089D01*
X173627999Y-48438139D01*
X173641154Y-48449186D01*
X173750813Y-48558845D01*
X173761860Y-48572000D01*
X173850910Y-48698961D01*
X173859517Y-48713828D01*
X173925280Y-48854272D01*
X173931187Y-48870402D01*
X173971682Y-49020099D01*
X173974712Y-49037008D01*
X173989095Y-49195572D01*
X173989500Y-49204515D01*
X173989500Y-129795484D01*
X173989095Y-129804427D01*
X173974712Y-129962991D01*
X173971682Y-129979900D01*
X173931187Y-130129597D01*
X173925280Y-130145727D01*
X173859517Y-130286171D01*
X173850910Y-130301038D01*
X173761860Y-130427999D01*
X173750813Y-130441154D01*
X173641154Y-130550813D01*
X173627999Y-130561860D01*
X173501038Y-130650910D01*
X173486171Y-130659517D01*
X173345727Y-130725280D01*
X173329597Y-130731187D01*
X173179900Y-130771682D01*
X173162991Y-130774712D01*
X173004427Y-130789095D01*
X172995484Y-130789500D01*
X167837813Y-130789500D01*
X167779622Y-130770593D01*
X167776723Y-130768404D01*
X167764768Y-130759029D01*
X167729278Y-130731199D01*
X167729276Y-130731198D01*
X167729275Y-130731197D01*
X167555636Y-130639792D01*
X167555628Y-130639789D01*
X167368356Y-130581216D01*
X167368349Y-130581215D01*
X167173567Y-130557391D01*
X167173565Y-130557391D01*
X167145023Y-130559097D01*
X166977684Y-130569102D01*
X166977680Y-130569102D01*
X166977679Y-130569103D01*
X166787132Y-130615963D01*
X166787131Y-130615963D01*
X166608155Y-130696437D01*
X166608150Y-130696440D01*
X166446644Y-130807878D01*
X166307878Y-130946644D01*
X166196440Y-131108150D01*
X166196437Y-131108155D01*
X166115963Y-131287131D01*
X166115963Y-131287132D01*
X166069102Y-131477684D01*
X166063172Y-131576873D01*
X166057391Y-131673565D01*
X166081216Y-131868356D01*
X166139789Y-132055628D01*
X166139792Y-132055636D01*
X166231197Y-132229275D01*
X166231201Y-132229282D01*
X166268403Y-132276721D01*
X166289433Y-132334179D01*
X166289500Y-132337812D01*
X166289500Y-137495484D01*
X166289095Y-137504427D01*
X166274712Y-137662991D01*
X166271682Y-137679900D01*
X166231187Y-137829597D01*
X166225280Y-137845727D01*
X166159517Y-137986171D01*
X166150910Y-138001038D01*
X166061860Y-138127999D01*
X166050813Y-138141154D01*
X165941154Y-138250813D01*
X165927999Y-138261860D01*
X165801038Y-138350910D01*
X165786171Y-138359517D01*
X165645727Y-138425280D01*
X165629597Y-138431187D01*
X165479900Y-138471682D01*
X165462991Y-138474712D01*
X165304427Y-138489095D01*
X165295484Y-138489500D01*
X84704516Y-138489500D01*
X84695573Y-138489095D01*
X84537008Y-138474712D01*
X84520099Y-138471682D01*
X84370402Y-138431187D01*
X84354272Y-138425280D01*
X84213828Y-138359517D01*
X84198961Y-138350910D01*
X84072000Y-138261860D01*
X84058845Y-138250813D01*
X83949186Y-138141154D01*
X83938139Y-138127999D01*
X83849089Y-138001038D01*
X83840482Y-137986171D01*
X83774719Y-137845727D01*
X83768812Y-137829597D01*
X83750586Y-137762223D01*
X83728317Y-137679900D01*
X83725287Y-137662991D01*
X83718517Y-137588356D01*
X83710905Y-137504427D01*
X83710500Y-137495484D01*
X83710500Y-135599996D01*
X118184876Y-135599996D01*
X118184876Y-135600003D01*
X118203334Y-135810996D01*
X118203335Y-135811003D01*
X118203336Y-135811004D01*
X118258157Y-136015597D01*
X118347672Y-136207562D01*
X118469161Y-136381067D01*
X118618933Y-136530839D01*
X118792438Y-136652328D01*
X118984403Y-136741843D01*
X119188996Y-136796664D01*
X119189000Y-136796664D01*
X119189003Y-136796665D01*
X119399997Y-136815124D01*
X119400000Y-136815124D01*
X119400003Y-136815124D01*
X119610996Y-136796665D01*
X119610997Y-136796664D01*
X119611004Y-136796664D01*
X119815597Y-136741843D01*
X120007562Y-136652328D01*
X120181067Y-136530839D01*
X120330839Y-136381067D01*
X120452328Y-136207562D01*
X120541843Y-136015597D01*
X120596664Y-135811004D01*
X120615124Y-135600000D01*
X120596664Y-135388996D01*
X120541843Y-135184403D01*
X120452328Y-134992438D01*
X120330839Y-134818933D01*
X120181067Y-134669161D01*
X120181063Y-134669158D01*
X120181062Y-134669157D01*
X120084803Y-134601756D01*
X120007562Y-134547672D01*
X119815597Y-134458157D01*
X119611004Y-134403336D01*
X119611003Y-134403335D01*
X119610996Y-134403334D01*
X119400003Y-134384876D01*
X119399997Y-134384876D01*
X119189003Y-134403334D01*
X119124153Y-134420710D01*
X118984403Y-134458157D01*
X118894889Y-134499898D01*
X118792439Y-134547671D01*
X118618937Y-134669157D01*
X118469157Y-134818937D01*
X118347671Y-134992439D01*
X118258157Y-135184404D01*
X118203334Y-135389003D01*
X118184876Y-135599996D01*
X83710500Y-135599996D01*
X83710500Y-132337812D01*
X83729407Y-132279621D01*
X83731597Y-132276721D01*
X83768798Y-132229282D01*
X83768798Y-132229281D01*
X83768801Y-132229278D01*
X83860208Y-132055635D01*
X83918785Y-131868349D01*
X83942609Y-131673567D01*
X83930898Y-131477684D01*
X83884036Y-131287129D01*
X83803563Y-131108156D01*
X83692118Y-130946640D01*
X83553360Y-130807882D01*
X83553356Y-130807879D01*
X83553355Y-130807878D01*
X83391849Y-130696440D01*
X83391844Y-130696437D01*
X83290591Y-130650910D01*
X83212871Y-130615964D01*
X83212869Y-130615963D01*
X83212868Y-130615963D01*
X83022320Y-130569103D01*
X83022316Y-130569102D01*
X82840704Y-130558244D01*
X82826434Y-130557391D01*
X82826433Y-130557391D01*
X82631651Y-130581215D01*
X82631643Y-130581216D01*
X82444371Y-130639789D01*
X82444363Y-130639792D01*
X82270724Y-130731197D01*
X82270719Y-130731201D01*
X82223277Y-130768404D01*
X82165819Y-130789433D01*
X82162187Y-130789500D01*
X77004516Y-130789500D01*
X76995573Y-130789095D01*
X76837008Y-130774712D01*
X76820099Y-130771682D01*
X76670402Y-130731187D01*
X76654272Y-130725280D01*
X76513828Y-130659517D01*
X76498961Y-130650910D01*
X76372000Y-130561860D01*
X76358845Y-130550813D01*
X76249186Y-130441154D01*
X76238139Y-130427999D01*
X76149089Y-130301038D01*
X76140482Y-130286171D01*
X76074719Y-130145727D01*
X76068812Y-130129597D01*
X76050586Y-130062223D01*
X76028317Y-129979900D01*
X76025287Y-129962991D01*
X76018517Y-129888356D01*
X76010905Y-129804427D01*
X76010500Y-129795484D01*
X76010500Y-106126362D01*
X89344500Y-106126362D01*
X89344500Y-113398656D01*
X89345677Y-113420594D01*
X89345678Y-113420603D01*
X89348511Y-113446961D01*
X89348512Y-113446966D01*
X89372469Y-113523479D01*
X89405957Y-113584806D01*
X89441010Y-113631630D01*
X93468376Y-117658996D01*
X93484722Y-117673679D01*
X93484738Y-117673693D01*
X93505380Y-117690327D01*
X93576425Y-117727490D01*
X93576426Y-117727490D01*
X93576428Y-117727491D01*
X93576561Y-117727530D01*
X93643464Y-117747175D01*
X93701362Y-117755500D01*
X93701363Y-117755500D01*
X156848620Y-117755500D01*
X156848638Y-117755500D01*
X156870607Y-117754322D01*
X156896965Y-117751488D01*
X156973482Y-117727529D01*
X157034805Y-117694044D01*
X157081629Y-117658991D01*
X158733991Y-116006629D01*
X158748693Y-115990262D01*
X158765327Y-115969620D01*
X158802490Y-115898575D01*
X158822175Y-115831536D01*
X158830500Y-115773638D01*
X158830500Y-113237000D01*
X158849407Y-113178809D01*
X158898907Y-113142845D01*
X158929500Y-113138000D01*
X159605810Y-113138000D01*
X159664001Y-113156907D01*
X159675814Y-113166996D01*
X160162504Y-113653686D01*
X160190281Y-113708203D01*
X160191500Y-113723690D01*
X160191500Y-114233260D01*
X160194012Y-114250499D01*
X160201427Y-114301395D01*
X160252801Y-114406481D01*
X160252802Y-114406483D01*
X160335517Y-114489198D01*
X160389285Y-114515483D01*
X160440604Y-114540572D01*
X160440605Y-114540572D01*
X160440607Y-114540573D01*
X160508740Y-114550500D01*
X160508743Y-114550500D01*
X160875257Y-114550500D01*
X160875260Y-114550500D01*
X160943393Y-114540573D01*
X161048483Y-114489198D01*
X161061994Y-114475686D01*
X161116507Y-114447909D01*
X161176940Y-114457479D01*
X161202001Y-114475686D01*
X161253956Y-114527641D01*
X161366848Y-114585163D01*
X161366852Y-114585164D01*
X161460518Y-114599999D01*
X161460526Y-114600000D01*
X161467000Y-114599999D01*
X161467000Y-112775001D01*
X161817000Y-112775001D01*
X161817000Y-114599998D01*
X161817001Y-114599999D01*
X161823483Y-114599999D01*
X161823485Y-114599998D01*
X161917141Y-114585166D01*
X161917151Y-114585163D01*
X162030044Y-114527640D01*
X162030046Y-114527639D01*
X162081998Y-114475687D01*
X162136514Y-114447909D01*
X162196946Y-114457480D01*
X162222002Y-114475683D01*
X162235517Y-114489198D01*
X162289285Y-114515483D01*
X162340604Y-114540572D01*
X162340605Y-114540572D01*
X162340607Y-114540573D01*
X162408740Y-114550500D01*
X162408743Y-114550500D01*
X162775257Y-114550500D01*
X162775260Y-114550500D01*
X162843393Y-114540573D01*
X162948483Y-114489198D01*
X163031198Y-114406483D01*
X163082573Y-114301393D01*
X163092500Y-114233260D01*
X163092500Y-114233243D01*
X163092748Y-114229837D01*
X163115816Y-114173167D01*
X163167789Y-114140879D01*
X163191489Y-114138000D01*
X163623917Y-114138000D01*
X163677440Y-114153716D01*
X163764942Y-114209950D01*
X163764947Y-114209953D01*
X163871403Y-114241211D01*
X163903035Y-114250499D01*
X163903036Y-114250499D01*
X163903039Y-114250500D01*
X163903041Y-114250500D01*
X164046959Y-114250500D01*
X164046961Y-114250500D01*
X164185053Y-114209953D01*
X164306128Y-114132143D01*
X164400377Y-114023373D01*
X164460165Y-113892457D01*
X164480647Y-113750000D01*
X164476864Y-113723690D01*
X164460165Y-113607543D01*
X164400377Y-113476628D01*
X164400377Y-113476627D01*
X164306128Y-113367857D01*
X164306127Y-113367856D01*
X164306126Y-113367855D01*
X164185057Y-113290049D01*
X164185054Y-113290047D01*
X164185053Y-113290047D01*
X164185050Y-113290046D01*
X164046964Y-113249500D01*
X164046961Y-113249500D01*
X164031494Y-113249500D01*
X164005871Y-113246127D01*
X164004687Y-113245809D01*
X163971809Y-113237000D01*
X163971808Y-113237000D01*
X163191489Y-113237000D01*
X163133298Y-113218093D01*
X163097334Y-113168593D01*
X163092748Y-113145163D01*
X163092500Y-113141755D01*
X163092500Y-113141740D01*
X163082573Y-113073607D01*
X163031198Y-112968517D01*
X162948483Y-112885802D01*
X162948481Y-112885801D01*
X162843395Y-112834427D01*
X162816139Y-112830456D01*
X162775260Y-112824500D01*
X162408740Y-112824500D01*
X162374673Y-112829463D01*
X162340604Y-112834427D01*
X162235518Y-112885801D01*
X162235514Y-112885803D01*
X162222004Y-112899314D01*
X162167486Y-112927091D01*
X162107055Y-112917517D01*
X162081998Y-112899313D01*
X162030043Y-112847358D01*
X161917151Y-112789836D01*
X161917147Y-112789835D01*
X161823484Y-112775000D01*
X161817001Y-112775000D01*
X161817000Y-112775001D01*
X161467000Y-112775001D01*
X161466999Y-112775000D01*
X161460524Y-112775001D01*
X161460506Y-112775002D01*
X161366858Y-112789833D01*
X161366848Y-112789836D01*
X161253955Y-112847359D01*
X161253953Y-112847360D01*
X161202000Y-112899313D01*
X161147483Y-112927090D01*
X161087051Y-112917518D01*
X161061996Y-112899315D01*
X161048483Y-112885802D01*
X161048481Y-112885801D01*
X160943395Y-112834427D01*
X160916139Y-112830456D01*
X160875260Y-112824500D01*
X160508740Y-112824500D01*
X160440607Y-112834427D01*
X160440606Y-112834427D01*
X160440601Y-112834428D01*
X160432910Y-112838188D01*
X160372328Y-112846756D01*
X160319432Y-112819249D01*
X160007214Y-112507032D01*
X160007212Y-112507030D01*
X159927288Y-112460886D01*
X159838144Y-112437000D01*
X159838142Y-112437000D01*
X158913815Y-112437000D01*
X158855624Y-112418093D01*
X158819660Y-112368593D01*
X158818493Y-112364735D01*
X158808913Y-112330517D01*
X158787954Y-112275500D01*
X158647464Y-111906712D01*
X158645004Y-111900553D01*
X158641925Y-111893193D01*
X158641920Y-111893183D01*
X158607650Y-111837921D01*
X158607648Y-111837918D01*
X158607647Y-111837917D01*
X158607646Y-111837915D01*
X158601585Y-111830921D01*
X158577767Y-111774566D01*
X158590003Y-111717759D01*
X158602490Y-111695437D01*
X158622175Y-111628398D01*
X158630500Y-111570500D01*
X158630500Y-111412000D01*
X158649407Y-111353809D01*
X158698907Y-111317845D01*
X158729500Y-111313000D01*
X160055810Y-111313000D01*
X160114001Y-111331907D01*
X160125814Y-111341996D01*
X160162504Y-111378686D01*
X160190281Y-111433203D01*
X160191500Y-111448690D01*
X160191500Y-111958260D01*
X160198118Y-112003682D01*
X160201427Y-112026395D01*
X160240903Y-112107143D01*
X160252802Y-112131483D01*
X160335517Y-112214198D01*
X160358634Y-112225499D01*
X160440604Y-112265572D01*
X160440605Y-112265572D01*
X160440607Y-112265573D01*
X160508740Y-112275500D01*
X160508743Y-112275500D01*
X160875257Y-112275500D01*
X160875260Y-112275500D01*
X160943393Y-112265573D01*
X161048483Y-112214198D01*
X161131198Y-112131483D01*
X161182573Y-112026393D01*
X161192500Y-111958260D01*
X161192500Y-110866740D01*
X162091500Y-110866740D01*
X162091500Y-111958260D01*
X162098118Y-112003682D01*
X162101427Y-112026395D01*
X162140903Y-112107143D01*
X162152802Y-112131483D01*
X162235517Y-112214198D01*
X162258634Y-112225499D01*
X162340604Y-112265572D01*
X162340605Y-112265572D01*
X162340607Y-112265573D01*
X162408740Y-112275500D01*
X162408743Y-112275500D01*
X162775257Y-112275500D01*
X162775260Y-112275500D01*
X162843393Y-112265573D01*
X162948483Y-112214198D01*
X162958186Y-112204494D01*
X163012701Y-112176719D01*
X163028188Y-112175500D01*
X163897712Y-112175500D01*
X163933083Y-112183195D01*
X163933153Y-112182958D01*
X163936468Y-112183931D01*
X163938838Y-112184447D01*
X163939943Y-112184951D01*
X163939944Y-112184951D01*
X163939947Y-112184953D01*
X164053939Y-112218423D01*
X164078035Y-112225499D01*
X164078036Y-112225499D01*
X164078039Y-112225500D01*
X164078041Y-112225500D01*
X164221959Y-112225500D01*
X164221961Y-112225500D01*
X164360053Y-112184953D01*
X164481128Y-112107143D01*
X164575377Y-111998373D01*
X164635165Y-111867457D01*
X164641992Y-111819971D01*
X164655647Y-111725002D01*
X164655647Y-111724997D01*
X164635165Y-111582543D01*
X164575377Y-111451628D01*
X164575377Y-111451627D01*
X164481128Y-111342857D01*
X164481127Y-111342856D01*
X164481126Y-111342855D01*
X164360057Y-111265049D01*
X164360054Y-111265047D01*
X164360053Y-111265047D01*
X164360050Y-111265046D01*
X164221964Y-111224500D01*
X164221961Y-111224500D01*
X164078039Y-111224500D01*
X164078035Y-111224500D01*
X163939943Y-111265048D01*
X163938838Y-111265553D01*
X163936468Y-111266068D01*
X163933153Y-111267042D01*
X163933083Y-111266804D01*
X163897712Y-111274500D01*
X163191500Y-111274500D01*
X163133309Y-111255593D01*
X163097345Y-111206093D01*
X163092500Y-111175500D01*
X163092500Y-110866743D01*
X163092500Y-110866740D01*
X163082573Y-110798607D01*
X163031198Y-110693517D01*
X162948483Y-110610802D01*
X162933653Y-110603552D01*
X162843395Y-110559427D01*
X162816139Y-110555456D01*
X162775260Y-110549500D01*
X162408740Y-110549500D01*
X162374673Y-110554463D01*
X162340604Y-110559427D01*
X162235518Y-110610801D01*
X162152801Y-110693518D01*
X162101427Y-110798604D01*
X162101427Y-110798607D01*
X162091500Y-110866740D01*
X161192500Y-110866740D01*
X161182573Y-110798607D01*
X161131198Y-110693517D01*
X161048483Y-110610802D01*
X161033653Y-110603552D01*
X160943395Y-110559427D01*
X160916139Y-110555456D01*
X160875260Y-110549500D01*
X160508740Y-110549500D01*
X160474673Y-110554463D01*
X160440604Y-110559427D01*
X160350347Y-110603552D01*
X160293943Y-110612764D01*
X160288146Y-110612000D01*
X160288144Y-110612000D01*
X160288141Y-110612000D01*
X158862627Y-110612000D01*
X158804436Y-110593093D01*
X158768472Y-110543593D01*
X158768472Y-110482407D01*
X158792623Y-110442996D01*
X159085489Y-110150130D01*
X159100303Y-110133625D01*
X159100311Y-110133614D01*
X159100315Y-110133611D01*
X159117050Y-110112806D01*
X159117050Y-110112805D01*
X159117054Y-110112801D01*
X159154206Y-110041550D01*
X159173774Y-109974477D01*
X159181998Y-109916565D01*
X159175760Y-106341617D01*
X159194566Y-106283396D01*
X159244003Y-106247346D01*
X159275791Y-106242452D01*
X163262551Y-106284177D01*
X163307334Y-106279717D01*
X163360143Y-106268518D01*
X163371373Y-106265805D01*
X163452085Y-106222795D01*
X163504889Y-106177040D01*
X163522843Y-106159449D01*
X163522844Y-106159446D01*
X163522846Y-106159445D01*
X163567488Y-106079636D01*
X163567490Y-106079632D01*
X163587173Y-106012599D01*
X163587175Y-106012593D01*
X163595500Y-105954695D01*
X163595500Y-105398000D01*
X163614407Y-105339809D01*
X163663907Y-105303845D01*
X163694500Y-105299000D01*
X164519309Y-105299000D01*
X164609669Y-105274787D01*
X164609672Y-105274787D01*
X164622903Y-105271241D01*
X164633887Y-105268299D01*
X164736614Y-105208989D01*
X165558490Y-104387114D01*
X165617799Y-104284386D01*
X165631163Y-104234511D01*
X165648500Y-104169809D01*
X165648500Y-95099996D01*
X169884876Y-95099996D01*
X169884876Y-95100003D01*
X169903334Y-95310996D01*
X169903335Y-95311003D01*
X169903336Y-95311004D01*
X169958157Y-95515597D01*
X170047672Y-95707562D01*
X170086368Y-95762826D01*
X170168566Y-95880218D01*
X170169161Y-95881067D01*
X170318933Y-96030839D01*
X170492438Y-96152328D01*
X170684403Y-96241843D01*
X170888996Y-96296664D01*
X170889000Y-96296664D01*
X170889003Y-96296665D01*
X171099997Y-96315124D01*
X171100000Y-96315124D01*
X171100003Y-96315124D01*
X171310996Y-96296665D01*
X171310997Y-96296664D01*
X171311004Y-96296664D01*
X171515597Y-96241843D01*
X171707562Y-96152328D01*
X171881067Y-96030839D01*
X172030839Y-95881067D01*
X172152328Y-95707562D01*
X172241843Y-95515597D01*
X172296664Y-95311004D01*
X172310612Y-95151580D01*
X172315124Y-95100003D01*
X172315124Y-95099996D01*
X172296665Y-94889003D01*
X172296664Y-94889000D01*
X172296664Y-94888996D01*
X172241843Y-94684403D01*
X172152328Y-94492438D01*
X172030839Y-94318933D01*
X171881067Y-94169161D01*
X171881063Y-94169158D01*
X171881062Y-94169157D01*
X171774200Y-94094332D01*
X171707562Y-94047672D01*
X171515597Y-93958157D01*
X171311004Y-93903336D01*
X171311003Y-93903335D01*
X171310996Y-93903334D01*
X171100003Y-93884876D01*
X171099997Y-93884876D01*
X170889003Y-93903334D01*
X170824153Y-93920710D01*
X170684403Y-93958157D01*
X170642680Y-93977613D01*
X170492439Y-94047671D01*
X170318937Y-94169157D01*
X170169157Y-94318937D01*
X170047671Y-94492439D01*
X170005735Y-94582371D01*
X169958157Y-94684403D01*
X169924940Y-94808369D01*
X169903334Y-94889003D01*
X169884876Y-95099996D01*
X165648500Y-95099996D01*
X165648500Y-94399191D01*
X165617799Y-94284614D01*
X165617799Y-94284613D01*
X165558490Y-94181886D01*
X164712614Y-93336011D01*
X164712611Y-93336009D01*
X164712610Y-93336008D01*
X164712609Y-93336007D01*
X164609890Y-93276702D01*
X164609886Y-93276700D01*
X164585673Y-93270212D01*
X164585673Y-93270213D01*
X164495309Y-93246000D01*
X164495307Y-93246000D01*
X163341737Y-93246000D01*
X163283546Y-93227093D01*
X163253528Y-93191946D01*
X163249051Y-93183160D01*
X163249050Y-93183158D01*
X163159342Y-93093450D01*
X163046304Y-93035854D01*
X163046305Y-93035854D01*
X162952522Y-93021000D01*
X162489479Y-93021000D01*
X162489476Y-93021001D01*
X162395700Y-93035852D01*
X162395695Y-93035854D01*
X162282659Y-93093449D01*
X162192949Y-93183159D01*
X162135354Y-93296195D01*
X162120500Y-93389977D01*
X162120500Y-94003020D01*
X162120501Y-94003023D01*
X162135352Y-94096799D01*
X162135354Y-94096804D01*
X162192950Y-94209842D01*
X162282658Y-94299550D01*
X162320707Y-94318937D01*
X162336824Y-94327149D01*
X162380088Y-94370413D01*
X162389659Y-94430846D01*
X162361881Y-94485362D01*
X162326475Y-94508116D01*
X162216016Y-94549314D01*
X162106672Y-94631168D01*
X162106668Y-94631172D01*
X162024814Y-94740516D01*
X161977083Y-94868490D01*
X161977081Y-94868498D01*
X161971000Y-94925065D01*
X161971000Y-95045499D01*
X161971001Y-95045500D01*
X163370998Y-95045500D01*
X163370999Y-95045499D01*
X163370999Y-94925069D01*
X163370998Y-94925063D01*
X163364918Y-94868495D01*
X163364917Y-94868493D01*
X163317185Y-94740516D01*
X163235331Y-94631172D01*
X163235327Y-94631168D01*
X163125983Y-94549314D01*
X163073261Y-94529650D01*
X163025347Y-94491599D01*
X163008949Y-94432652D01*
X163030331Y-94375325D01*
X163062908Y-94348685D01*
X163159342Y-94299550D01*
X163249050Y-94209842D01*
X163253528Y-94201054D01*
X163296793Y-94157790D01*
X163341737Y-94147000D01*
X164208389Y-94147000D01*
X164266580Y-94165907D01*
X164278393Y-94175996D01*
X164718504Y-94616107D01*
X164746281Y-94670624D01*
X164747500Y-94686111D01*
X164747500Y-103882889D01*
X164728593Y-103941080D01*
X164718504Y-103952892D01*
X164302394Y-104369003D01*
X164247877Y-104396781D01*
X164232390Y-104398000D01*
X163694500Y-104398000D01*
X163636309Y-104379093D01*
X163600345Y-104329593D01*
X163595500Y-104299000D01*
X163595500Y-103524005D01*
X163595500Y-103524000D01*
X163590803Y-103480316D01*
X163579597Y-103428805D01*
X163577110Y-103418627D01*
X163534100Y-103337915D01*
X163488345Y-103285111D01*
X163470754Y-103267157D01*
X163470753Y-103267156D01*
X163470752Y-103267155D01*
X163470750Y-103267153D01*
X163390941Y-103222511D01*
X163390937Y-103222509D01*
X163323904Y-103202826D01*
X163323895Y-103202824D01*
X163277684Y-103196180D01*
X163266000Y-103194500D01*
X157451362Y-103194500D01*
X157451343Y-103194500D01*
X157429405Y-103195677D01*
X157429398Y-103195677D01*
X157429393Y-103195678D01*
X157420894Y-103196591D01*
X157403038Y-103198511D01*
X157403033Y-103198512D01*
X157326520Y-103222469D01*
X157265193Y-103255957D01*
X157218369Y-103291010D01*
X156491003Y-104018376D01*
X156476320Y-104034722D01*
X156476301Y-104034745D01*
X156459672Y-104055380D01*
X156422510Y-104126423D01*
X156422508Y-104126428D01*
X156402826Y-104193457D01*
X156402824Y-104193466D01*
X156394500Y-104251362D01*
X156394500Y-106166113D01*
X156375593Y-106224304D01*
X156326093Y-106260268D01*
X156264907Y-106260268D01*
X156236711Y-106245768D01*
X156175000Y-106200222D01*
X156175000Y-107899777D01*
X156236712Y-107854232D01*
X156294760Y-107834890D01*
X156353090Y-107853361D01*
X156389423Y-107902591D01*
X156394500Y-107933887D01*
X156394500Y-108216113D01*
X156375593Y-108274304D01*
X156326093Y-108310268D01*
X156264907Y-108310268D01*
X156236711Y-108295768D01*
X156175000Y-108250222D01*
X156175000Y-109954597D01*
X156208540Y-109987887D01*
X156219500Y-110033163D01*
X156219500Y-111570505D01*
X156221050Y-111584914D01*
X156208474Y-111644793D01*
X156163103Y-111685843D01*
X156122618Y-111694500D01*
X155429427Y-111694500D01*
X155371236Y-111675593D01*
X155352889Y-111658293D01*
X153664220Y-109600001D01*
X154975001Y-109600001D01*
X154975001Y-109629203D01*
X154977850Y-109659600D01*
X154977850Y-109659602D01*
X155022654Y-109787647D01*
X155103211Y-109896795D01*
X155174999Y-109949777D01*
X155175000Y-109949777D01*
X155175000Y-109600001D01*
X155174999Y-109600000D01*
X154975002Y-109600000D01*
X154975001Y-109600001D01*
X153664220Y-109600001D01*
X152819831Y-108570788D01*
X154975000Y-108570788D01*
X154975000Y-108599999D01*
X154975001Y-108600000D01*
X155174999Y-108600000D01*
X155175000Y-108599999D01*
X155175000Y-108250222D01*
X155103204Y-108303211D01*
X155022655Y-108412350D01*
X154977850Y-108540398D01*
X154975000Y-108570788D01*
X152819831Y-108570788D01*
X151982355Y-107550001D01*
X154975001Y-107550001D01*
X154975001Y-107579203D01*
X154977850Y-107609600D01*
X154977850Y-107609602D01*
X155022654Y-107737647D01*
X155103211Y-107846795D01*
X155174999Y-107899777D01*
X155175000Y-107899777D01*
X155175000Y-107550001D01*
X155174999Y-107550000D01*
X154975002Y-107550000D01*
X154975001Y-107550001D01*
X151982355Y-107550001D01*
X151137966Y-106520788D01*
X154975000Y-106520788D01*
X154975000Y-106549999D01*
X154975001Y-106550000D01*
X155174999Y-106550000D01*
X155175000Y-106549999D01*
X155175000Y-106200222D01*
X155103204Y-106253211D01*
X155022655Y-106362350D01*
X154977850Y-106490398D01*
X154975000Y-106520788D01*
X151137966Y-106520788D01*
X148918087Y-103815012D01*
X148918078Y-103815003D01*
X148895860Y-103791868D01*
X148867033Y-103766203D01*
X148867025Y-103766197D01*
X148788283Y-103722511D01*
X148788277Y-103722509D01*
X148721238Y-103702824D01*
X148675027Y-103696180D01*
X148663343Y-103694500D01*
X91776362Y-103694500D01*
X91776343Y-103694500D01*
X91754405Y-103695677D01*
X91754398Y-103695677D01*
X91754393Y-103695678D01*
X91745894Y-103696591D01*
X91728038Y-103698511D01*
X91728033Y-103698512D01*
X91651520Y-103722469D01*
X91590193Y-103755957D01*
X91543369Y-103791010D01*
X89441003Y-105893376D01*
X89426320Y-105909722D01*
X89426301Y-105909745D01*
X89409672Y-105930380D01*
X89372510Y-106001423D01*
X89372508Y-106001428D01*
X89352826Y-106068457D01*
X89352824Y-106068466D01*
X89344500Y-106126362D01*
X76010500Y-106126362D01*
X76010500Y-99520000D01*
X152480223Y-99520000D01*
X152533204Y-99591788D01*
X152642352Y-99672345D01*
X152770399Y-99717149D01*
X152800788Y-99719999D01*
X152830000Y-99719999D01*
X152830000Y-99520001D01*
X152829999Y-99520000D01*
X152480223Y-99520000D01*
X76010500Y-99520000D01*
X76010500Y-97485001D01*
X147635000Y-97485001D01*
X147635000Y-97659624D01*
X147649506Y-97732546D01*
X147649507Y-97732548D01*
X147704758Y-97815237D01*
X147704762Y-97815241D01*
X147787451Y-97870492D01*
X147787453Y-97870493D01*
X147860375Y-97884999D01*
X147860377Y-97885000D01*
X148134999Y-97885000D01*
X148135000Y-97884999D01*
X148135000Y-97485001D01*
X148134999Y-97485000D01*
X147635001Y-97485000D01*
X147635000Y-97485001D01*
X76010500Y-97485001D01*
X76010500Y-96960375D01*
X147635000Y-96960375D01*
X147635000Y-97134999D01*
X147635001Y-97135000D01*
X148134999Y-97135000D01*
X148135000Y-97134999D01*
X148135000Y-96735001D01*
X148134999Y-96735000D01*
X147860375Y-96735000D01*
X147787453Y-96749506D01*
X147787451Y-96749507D01*
X147704762Y-96804758D01*
X147704758Y-96804762D01*
X147649507Y-96887451D01*
X147649506Y-96887453D01*
X147635000Y-96960375D01*
X76010500Y-96960375D01*
X76010500Y-87425001D01*
X85200001Y-87425001D01*
X85200001Y-87431485D01*
X85214833Y-87525141D01*
X85214836Y-87525151D01*
X85272358Y-87638043D01*
X85324313Y-87689998D01*
X85352090Y-87744515D01*
X85342519Y-87804947D01*
X85324314Y-87830004D01*
X85310803Y-87843514D01*
X85310801Y-87843518D01*
X85259427Y-87948604D01*
X85259427Y-87948607D01*
X85249500Y-88016740D01*
X85249500Y-88383260D01*
X85254926Y-88420500D01*
X85259427Y-88451395D01*
X85308930Y-88552653D01*
X85310802Y-88556483D01*
X85393517Y-88639198D01*
X85411737Y-88648105D01*
X85498604Y-88690572D01*
X85498605Y-88690572D01*
X85498607Y-88690573D01*
X85566740Y-88700500D01*
X85566743Y-88700500D01*
X86647389Y-88700500D01*
X86705580Y-88719407D01*
X86717393Y-88729496D01*
X87760175Y-89772278D01*
X87780224Y-89801155D01*
X87796615Y-89837045D01*
X87824623Y-89898373D01*
X87918872Y-90007143D01*
X87918873Y-90007144D01*
X88022770Y-90073914D01*
X88039947Y-90084953D01*
X88146403Y-90116211D01*
X88178035Y-90125499D01*
X88178036Y-90125499D01*
X88178039Y-90125500D01*
X88178041Y-90125500D01*
X88321959Y-90125500D01*
X88321961Y-90125500D01*
X88460053Y-90084953D01*
X88581128Y-90007143D01*
X88675377Y-89898373D01*
X88735165Y-89767457D01*
X88750516Y-89660687D01*
X88755647Y-89625002D01*
X88755647Y-89624997D01*
X88737674Y-89499995D01*
X118277853Y-89499995D01*
X118277853Y-89500004D01*
X118295957Y-89660687D01*
X118295960Y-89660699D01*
X118349368Y-89813328D01*
X118349368Y-89813329D01*
X118435400Y-89950247D01*
X118435403Y-89950251D01*
X118549749Y-90064597D01*
X118549751Y-90064598D01*
X118549752Y-90064599D01*
X118668788Y-90139395D01*
X118686672Y-90150632D01*
X118740345Y-90169413D01*
X118839300Y-90204039D01*
X118839304Y-90204040D01*
X118839307Y-90204041D01*
X118912087Y-90212241D01*
X118967792Y-90237544D01*
X118997988Y-90290759D01*
X119000000Y-90310618D01*
X119000000Y-93250000D01*
X119250000Y-93500000D01*
X119250001Y-93500000D01*
X130749999Y-93500000D01*
X130750000Y-93500000D01*
X131000000Y-93250000D01*
X131000000Y-91899500D01*
X131018907Y-91841309D01*
X131068407Y-91805345D01*
X131099000Y-91800500D01*
X132368993Y-91800500D01*
X132368994Y-91800500D01*
X132504328Y-91773580D01*
X132631811Y-91720775D01*
X132746543Y-91644114D01*
X134441160Y-89949495D01*
X134495677Y-89921719D01*
X134511164Y-89920500D01*
X139726500Y-89920500D01*
X139784691Y-89939407D01*
X139820655Y-89988907D01*
X139825500Y-90019500D01*
X139825500Y-90839746D01*
X139825501Y-90839758D01*
X139837132Y-90898227D01*
X139837134Y-90898233D01*
X139875065Y-90955000D01*
X139881448Y-90964552D01*
X139947769Y-91008867D01*
X139992231Y-91017711D01*
X140006241Y-91020498D01*
X140006246Y-91020498D01*
X140006252Y-91020500D01*
X140006253Y-91020500D01*
X141045747Y-91020500D01*
X141045748Y-91020500D01*
X141104231Y-91008867D01*
X141170552Y-90964552D01*
X141214867Y-90898231D01*
X141226500Y-90839748D01*
X141226500Y-90019500D01*
X141245407Y-89961309D01*
X141294907Y-89925345D01*
X141325500Y-89920500D01*
X141726500Y-89920500D01*
X141784691Y-89939407D01*
X141820655Y-89988907D01*
X141825500Y-90019500D01*
X141825500Y-90839746D01*
X141825501Y-90839758D01*
X141837132Y-90898227D01*
X141837134Y-90898233D01*
X141875065Y-90955000D01*
X141881448Y-90964552D01*
X141947769Y-91008867D01*
X141992231Y-91017711D01*
X142006241Y-91020498D01*
X142006246Y-91020498D01*
X142006252Y-91020500D01*
X142006253Y-91020500D01*
X143045747Y-91020500D01*
X143045748Y-91020500D01*
X143104231Y-91008867D01*
X143170552Y-90964552D01*
X143214867Y-90898231D01*
X143226500Y-90839748D01*
X143226500Y-87600252D01*
X143214867Y-87541769D01*
X143170552Y-87475448D01*
X143162098Y-87469799D01*
X143104233Y-87431134D01*
X143104231Y-87431133D01*
X143104228Y-87431132D01*
X143104227Y-87431132D01*
X143045758Y-87419501D01*
X143045748Y-87419500D01*
X142006252Y-87419500D01*
X142006251Y-87419500D01*
X142006241Y-87419501D01*
X141947772Y-87431132D01*
X141947766Y-87431134D01*
X141881451Y-87475445D01*
X141881445Y-87475451D01*
X141837134Y-87541766D01*
X141837132Y-87541772D01*
X141825501Y-87600241D01*
X141825500Y-87600253D01*
X141825500Y-88420500D01*
X141806593Y-88478691D01*
X141757093Y-88514655D01*
X141726500Y-88519500D01*
X141325500Y-88519500D01*
X141267309Y-88500593D01*
X141231345Y-88451093D01*
X141226500Y-88420500D01*
X141226500Y-87600253D01*
X141226498Y-87600241D01*
X141222317Y-87579222D01*
X141214867Y-87541769D01*
X141170552Y-87475448D01*
X141162098Y-87469799D01*
X141104233Y-87431134D01*
X141104231Y-87431133D01*
X141104228Y-87431132D01*
X141104227Y-87431132D01*
X141045758Y-87419501D01*
X141045748Y-87419500D01*
X140006252Y-87419500D01*
X140006251Y-87419500D01*
X140006241Y-87419501D01*
X139947772Y-87431132D01*
X139947766Y-87431134D01*
X139881451Y-87475445D01*
X139881445Y-87475451D01*
X139837134Y-87541766D01*
X139837132Y-87541772D01*
X139825501Y-87600241D01*
X139825500Y-87600253D01*
X139825500Y-88420500D01*
X139806593Y-88478691D01*
X139757093Y-88514655D01*
X139726500Y-88519500D01*
X134111004Y-88519500D01*
X134002591Y-88541064D01*
X134002591Y-88541065D01*
X133989131Y-88543742D01*
X133975670Y-88546420D01*
X133941706Y-88560489D01*
X133848189Y-88599224D01*
X133736914Y-88673577D01*
X133736913Y-88673578D01*
X133733459Y-88675885D01*
X132038839Y-90370504D01*
X131984322Y-90398281D01*
X131968835Y-90399500D01*
X131182981Y-90399500D01*
X131124790Y-90380593D01*
X131088826Y-90331093D01*
X131088826Y-90269907D01*
X131124790Y-90220407D01*
X131155627Y-90206400D01*
X131155445Y-90205878D01*
X131225192Y-90181472D01*
X131313328Y-90150632D01*
X131450251Y-90064597D01*
X131564597Y-89950251D01*
X131650632Y-89813328D01*
X131704041Y-89660693D01*
X131704042Y-89660687D01*
X131722147Y-89500004D01*
X131722147Y-89499995D01*
X131704042Y-89339312D01*
X131704039Y-89339300D01*
X131670291Y-89242855D01*
X131650632Y-89186672D01*
X131637045Y-89165049D01*
X131564599Y-89049752D01*
X131564598Y-89049751D01*
X131564597Y-89049749D01*
X131450251Y-88935403D01*
X131450248Y-88935401D01*
X131450247Y-88935400D01*
X131313329Y-88849368D01*
X131160699Y-88795960D01*
X131160687Y-88795957D01*
X131087915Y-88787758D01*
X131032207Y-88762454D01*
X131002012Y-88709239D01*
X131000000Y-88689381D01*
X131000000Y-86303580D01*
X131018907Y-86245389D01*
X131028996Y-86233576D01*
X132113076Y-85149496D01*
X132167593Y-85121719D01*
X132183080Y-85120500D01*
X139726500Y-85120500D01*
X139784691Y-85139407D01*
X139820655Y-85188907D01*
X139825500Y-85219500D01*
X139825500Y-86039746D01*
X139825501Y-86039758D01*
X139837132Y-86098227D01*
X139837134Y-86098233D01*
X139881445Y-86164548D01*
X139881448Y-86164552D01*
X139947769Y-86208867D01*
X139992231Y-86217711D01*
X140006241Y-86220498D01*
X140006246Y-86220498D01*
X140006252Y-86220500D01*
X140006253Y-86220500D01*
X141045747Y-86220500D01*
X141045748Y-86220500D01*
X141104231Y-86208867D01*
X141170552Y-86164552D01*
X141214867Y-86098231D01*
X141226500Y-86039748D01*
X141226500Y-85219500D01*
X141245407Y-85161309D01*
X141294907Y-85125345D01*
X141325500Y-85120500D01*
X141726500Y-85120500D01*
X141784691Y-85139407D01*
X141820655Y-85188907D01*
X141825500Y-85219500D01*
X141825500Y-86039746D01*
X141825501Y-86039758D01*
X141837132Y-86098227D01*
X141837134Y-86098233D01*
X141881445Y-86164548D01*
X141881448Y-86164552D01*
X141947769Y-86208867D01*
X141992231Y-86217711D01*
X142006241Y-86220498D01*
X142006246Y-86220498D01*
X142006252Y-86220500D01*
X142006253Y-86220500D01*
X143045747Y-86220500D01*
X143045748Y-86220500D01*
X143104231Y-86208867D01*
X143170552Y-86164552D01*
X143214867Y-86098231D01*
X143226500Y-86039748D01*
X143226500Y-82800252D01*
X143214867Y-82741769D01*
X143170552Y-82675448D01*
X143142891Y-82656965D01*
X143104233Y-82631134D01*
X143104231Y-82631133D01*
X143104228Y-82631132D01*
X143104227Y-82631132D01*
X143045758Y-82619501D01*
X143045748Y-82619500D01*
X142006252Y-82619500D01*
X142006251Y-82619500D01*
X142006241Y-82619501D01*
X141947772Y-82631132D01*
X141947766Y-82631134D01*
X141881451Y-82675445D01*
X141881445Y-82675451D01*
X141837134Y-82741766D01*
X141837132Y-82741772D01*
X141825501Y-82800241D01*
X141825500Y-82800253D01*
X141825500Y-83620500D01*
X141806593Y-83678691D01*
X141757093Y-83714655D01*
X141726500Y-83719500D01*
X141325500Y-83719500D01*
X141267309Y-83700593D01*
X141231345Y-83651093D01*
X141226500Y-83620500D01*
X141226500Y-82800253D01*
X141226498Y-82800241D01*
X141223711Y-82786231D01*
X141214867Y-82741769D01*
X141170552Y-82675448D01*
X141142891Y-82656965D01*
X141104233Y-82631134D01*
X141104231Y-82631133D01*
X141104228Y-82631132D01*
X141104227Y-82631132D01*
X141045758Y-82619501D01*
X141045748Y-82619500D01*
X140006252Y-82619500D01*
X140006251Y-82619500D01*
X140006241Y-82619501D01*
X139947772Y-82631132D01*
X139947766Y-82631134D01*
X139881451Y-82675445D01*
X139881445Y-82675451D01*
X139837134Y-82741766D01*
X139837132Y-82741772D01*
X139825501Y-82800241D01*
X139825500Y-82800253D01*
X139825500Y-83620500D01*
X139806593Y-83678691D01*
X139757093Y-83714655D01*
X139726500Y-83719500D01*
X131782920Y-83719500D01*
X131674507Y-83741064D01*
X131674507Y-83741065D01*
X131669153Y-83742130D01*
X131647588Y-83746419D01*
X131594780Y-83768293D01*
X131520107Y-83799223D01*
X131407453Y-83874497D01*
X131407444Y-83874503D01*
X131405377Y-83875883D01*
X130069797Y-85211462D01*
X130015280Y-85239239D01*
X129999793Y-85240458D01*
X129161220Y-85240458D01*
X129141906Y-85238556D01*
X129048517Y-85219979D01*
X129048515Y-85219979D01*
X129048514Y-85219979D01*
X122348515Y-85219979D01*
X122210527Y-85219979D01*
X122210524Y-85219979D01*
X122075193Y-85246899D01*
X122075191Y-85246899D01*
X121947712Y-85299702D01*
X121832978Y-85376364D01*
X121738338Y-85471004D01*
X121683822Y-85498781D01*
X121668335Y-85500000D01*
X119250000Y-85500000D01*
X119000000Y-85750000D01*
X119000000Y-85750001D01*
X119000000Y-88689381D01*
X118981093Y-88747572D01*
X118931593Y-88783536D01*
X118912085Y-88787758D01*
X118839312Y-88795957D01*
X118839300Y-88795960D01*
X118686671Y-88849368D01*
X118686670Y-88849368D01*
X118549752Y-88935400D01*
X118435400Y-89049752D01*
X118349368Y-89186670D01*
X118349368Y-89186671D01*
X118295960Y-89339300D01*
X118295957Y-89339312D01*
X118277853Y-89499995D01*
X88737674Y-89499995D01*
X88735165Y-89482543D01*
X88699752Y-89405000D01*
X88675377Y-89351627D01*
X88581128Y-89242857D01*
X88581127Y-89242856D01*
X88581126Y-89242855D01*
X88460057Y-89165049D01*
X88460054Y-89165048D01*
X88460053Y-89165047D01*
X88437717Y-89158488D01*
X88395606Y-89133503D01*
X88331607Y-89069504D01*
X88303830Y-89014987D01*
X88313401Y-88954555D01*
X88356666Y-88911290D01*
X88401611Y-88900500D01*
X89193835Y-88900500D01*
X89252026Y-88919407D01*
X89263838Y-88929496D01*
X89403847Y-89069504D01*
X89528457Y-89194114D01*
X89643189Y-89270775D01*
X89770672Y-89323580D01*
X89906006Y-89350500D01*
X89906007Y-89350500D01*
X90043993Y-89350500D01*
X90043994Y-89350500D01*
X90179328Y-89323580D01*
X90306811Y-89270775D01*
X90421543Y-89194114D01*
X90519114Y-89096543D01*
X90595775Y-88981811D01*
X90648580Y-88854328D01*
X90675500Y-88718994D01*
X90675500Y-88581006D01*
X90648580Y-88445672D01*
X90606946Y-88345158D01*
X90595776Y-88318191D01*
X90574433Y-88286249D01*
X90519114Y-88203457D01*
X89971543Y-87655886D01*
X89954028Y-87644183D01*
X89856808Y-87579223D01*
X89729328Y-87526420D01*
X89593996Y-87499500D01*
X89593994Y-87499500D01*
X89593993Y-87499500D01*
X88318507Y-87499500D01*
X88318504Y-87499500D01*
X88183172Y-87526420D01*
X88183170Y-87526420D01*
X88055693Y-87579222D01*
X88055682Y-87579228D01*
X87940958Y-87655885D01*
X87940954Y-87655889D01*
X87926340Y-87670504D01*
X87871823Y-87698281D01*
X87856336Y-87699500D01*
X87841740Y-87699500D01*
X87807673Y-87704463D01*
X87773604Y-87709427D01*
X87668518Y-87760801D01*
X87585801Y-87843518D01*
X87534427Y-87948604D01*
X87524500Y-88016743D01*
X87524500Y-88023389D01*
X87505593Y-88081580D01*
X87456093Y-88117544D01*
X87394907Y-88117544D01*
X87355497Y-88093393D01*
X87101614Y-87839511D01*
X87101609Y-87839507D01*
X86993268Y-87776956D01*
X86994029Y-87775636D01*
X86953306Y-87740850D01*
X86939027Y-87681354D01*
X86949512Y-87644183D01*
X87010163Y-87525151D01*
X87010164Y-87525147D01*
X87025000Y-87431484D01*
X87025000Y-87425001D01*
X87024999Y-87425000D01*
X85200002Y-87425000D01*
X85200001Y-87425001D01*
X76010500Y-87425001D01*
X76010500Y-83899996D01*
X77684876Y-83899996D01*
X77684876Y-83900003D01*
X77703334Y-84110996D01*
X77703335Y-84111003D01*
X77703336Y-84111004D01*
X77758157Y-84315597D01*
X77847672Y-84507562D01*
X77896415Y-84577175D01*
X77946410Y-84648576D01*
X77969161Y-84681067D01*
X78118933Y-84830839D01*
X78292438Y-84952328D01*
X78484403Y-85041843D01*
X78688996Y-85096664D01*
X78689000Y-85096664D01*
X78689003Y-85096665D01*
X78899997Y-85115124D01*
X78900000Y-85115124D01*
X78900003Y-85115124D01*
X79110996Y-85096665D01*
X79110997Y-85096664D01*
X79111004Y-85096664D01*
X79315597Y-85041843D01*
X79507562Y-84952328D01*
X79681067Y-84830839D01*
X79830839Y-84681067D01*
X79952328Y-84507562D01*
X80041843Y-84315597D01*
X80096664Y-84111004D01*
X80097699Y-84099181D01*
X80115124Y-83900003D01*
X80115124Y-83899996D01*
X80096665Y-83689003D01*
X80096664Y-83689000D01*
X80096664Y-83688996D01*
X80041843Y-83484403D01*
X79952328Y-83292438D01*
X79830839Y-83118933D01*
X79681067Y-82969161D01*
X79681063Y-82969158D01*
X79681062Y-82969157D01*
X79524284Y-82859381D01*
X79507562Y-82847672D01*
X79315597Y-82758157D01*
X79111004Y-82703336D01*
X79111003Y-82703335D01*
X79110996Y-82703334D01*
X78900003Y-82684876D01*
X78899997Y-82684876D01*
X78689003Y-82703334D01*
X78631422Y-82718763D01*
X78484403Y-82758157D01*
X78405811Y-82794805D01*
X78292439Y-82847671D01*
X78118937Y-82969157D01*
X77969157Y-83118937D01*
X77847671Y-83292439D01*
X77813276Y-83366201D01*
X77758157Y-83484403D01*
X77724114Y-83611451D01*
X77703334Y-83689003D01*
X77684876Y-83899996D01*
X76010500Y-83899996D01*
X76010500Y-65076362D01*
X83819500Y-65076362D01*
X83819500Y-81498638D01*
X83819501Y-81498653D01*
X83820530Y-81517859D01*
X83820678Y-81520607D01*
X83820977Y-81523386D01*
X83823511Y-81546961D01*
X83823512Y-81546966D01*
X83847469Y-81623479D01*
X83847471Y-81623482D01*
X83874798Y-81673528D01*
X83880957Y-81684806D01*
X83916010Y-81731630D01*
X85993376Y-83808996D01*
X86009722Y-83823679D01*
X86009738Y-83823693D01*
X86023860Y-83835073D01*
X86030380Y-83840327D01*
X86098360Y-83875887D01*
X86101425Y-83877490D01*
X86101426Y-83877490D01*
X86101428Y-83877491D01*
X86142656Y-83889597D01*
X86168464Y-83897175D01*
X86226362Y-83905500D01*
X86863000Y-83905500D01*
X86921191Y-83924407D01*
X86957155Y-83973907D01*
X86962000Y-84004500D01*
X86962000Y-84913810D01*
X86943093Y-84972001D01*
X86933004Y-84983814D01*
X86146314Y-85770504D01*
X86091797Y-85798281D01*
X86076310Y-85799500D01*
X85566740Y-85799500D01*
X85532673Y-85804463D01*
X85498604Y-85809427D01*
X85393518Y-85860801D01*
X85310801Y-85943518D01*
X85259427Y-86048604D01*
X85254463Y-86082673D01*
X85249500Y-86116740D01*
X85249500Y-86483260D01*
X85256118Y-86528682D01*
X85259427Y-86551395D01*
X85309124Y-86653050D01*
X85310802Y-86656483D01*
X85324314Y-86669995D01*
X85352090Y-86724510D01*
X85342519Y-86784942D01*
X85324313Y-86810000D01*
X85272360Y-86861953D01*
X85272359Y-86861955D01*
X85214836Y-86974848D01*
X85214835Y-86974852D01*
X85200000Y-87068515D01*
X85200000Y-87074999D01*
X85200001Y-87075000D01*
X87024998Y-87075000D01*
X87024999Y-87074999D01*
X87024999Y-87068516D01*
X87024998Y-87068514D01*
X87010166Y-86974858D01*
X87010163Y-86974848D01*
X86952641Y-86861956D01*
X86900686Y-86810001D01*
X86872909Y-86755484D01*
X86882480Y-86695052D01*
X86900685Y-86669995D01*
X86914198Y-86656483D01*
X86965573Y-86551393D01*
X86975500Y-86483260D01*
X86975500Y-86116740D01*
X86965573Y-86048607D01*
X86961810Y-86040911D01*
X86953242Y-85980330D01*
X86980747Y-85927432D01*
X87592969Y-85315212D01*
X87639114Y-85235288D01*
X87649746Y-85195607D01*
X87663000Y-85146144D01*
X87663000Y-84001199D01*
X87681907Y-83943008D01*
X87731407Y-83907044D01*
X87751410Y-83902767D01*
X87769684Y-83900803D01*
X87821195Y-83889597D01*
X87831373Y-83887110D01*
X87912085Y-83844100D01*
X87964889Y-83798345D01*
X87982843Y-83780754D01*
X87982844Y-83780751D01*
X87982846Y-83780750D01*
X88027488Y-83700941D01*
X88027490Y-83700937D01*
X88047173Y-83633904D01*
X88047175Y-83633898D01*
X88055500Y-83576000D01*
X88055500Y-82735937D01*
X88074407Y-82677746D01*
X88123907Y-82641782D01*
X88185093Y-82641782D01*
X88234593Y-82677746D01*
X88248977Y-82706356D01*
X88257469Y-82733478D01*
X88257470Y-82733481D01*
X88257471Y-82733482D01*
X88290956Y-82794805D01*
X88321199Y-82835203D01*
X88326010Y-82841630D01*
X88758004Y-83273624D01*
X88785781Y-83328141D01*
X88787000Y-83343628D01*
X88787000Y-85363810D01*
X88768093Y-85422001D01*
X88758004Y-85433814D01*
X88421314Y-85770504D01*
X88366797Y-85798281D01*
X88351310Y-85799500D01*
X87841740Y-85799500D01*
X87807673Y-85804463D01*
X87773604Y-85809427D01*
X87668518Y-85860801D01*
X87585801Y-85943518D01*
X87534427Y-86048604D01*
X87529463Y-86082673D01*
X87524500Y-86116740D01*
X87524500Y-86483260D01*
X87531118Y-86528682D01*
X87534427Y-86551395D01*
X87584124Y-86653050D01*
X87585802Y-86656483D01*
X87668517Y-86739198D01*
X87699808Y-86754495D01*
X87773604Y-86790572D01*
X87773605Y-86790572D01*
X87773607Y-86790573D01*
X87841740Y-86800500D01*
X87841743Y-86800500D01*
X88933257Y-86800500D01*
X88933260Y-86800500D01*
X89001393Y-86790573D01*
X89106483Y-86739198D01*
X89189198Y-86656483D01*
X89240573Y-86551393D01*
X89250500Y-86483260D01*
X89250500Y-86116740D01*
X89240573Y-86048607D01*
X89236811Y-86040913D01*
X89228241Y-85980332D01*
X89255748Y-85927432D01*
X89417970Y-85765212D01*
X89464114Y-85685288D01*
X89478794Y-85630500D01*
X89488000Y-85596144D01*
X89488000Y-85172824D01*
X90024999Y-85172824D01*
X90031401Y-85232370D01*
X90031403Y-85232381D01*
X90081646Y-85367088D01*
X90081647Y-85367090D01*
X90167807Y-85482184D01*
X90167815Y-85482192D01*
X90282909Y-85568352D01*
X90282911Y-85568353D01*
X90417618Y-85618596D01*
X90417629Y-85618598D01*
X90477176Y-85625000D01*
X90824999Y-85625000D01*
X90825000Y-85624999D01*
X90825000Y-85050001D01*
X90824999Y-85050000D01*
X90025001Y-85050000D01*
X90025000Y-85050001D01*
X90025000Y-85172824D01*
X90024999Y-85172824D01*
X89488000Y-85172824D01*
X89488000Y-84193336D01*
X89506907Y-84135145D01*
X89556407Y-84099181D01*
X89617593Y-84099181D01*
X89624074Y-84101540D01*
X89626416Y-84102485D01*
X89626425Y-84102490D01*
X89693464Y-84122175D01*
X89751362Y-84130500D01*
X90072824Y-84130500D01*
X90131015Y-84149407D01*
X90166979Y-84198907D01*
X90166979Y-84260093D01*
X90152077Y-84288830D01*
X90081645Y-84382912D01*
X90031403Y-84517618D01*
X90031401Y-84517629D01*
X90025000Y-84577175D01*
X90025000Y-84699999D01*
X90025001Y-84700000D01*
X91076000Y-84700000D01*
X91134191Y-84718907D01*
X91170155Y-84768407D01*
X91175000Y-84799000D01*
X91175000Y-85624999D01*
X91175001Y-85625000D01*
X91522824Y-85625000D01*
X91582370Y-85618598D01*
X91582381Y-85618596D01*
X91717088Y-85568353D01*
X91717090Y-85568352D01*
X91832184Y-85482192D01*
X91832192Y-85482184D01*
X91918351Y-85367092D01*
X91952578Y-85275323D01*
X91990629Y-85227408D01*
X92049575Y-85211010D01*
X92106903Y-85232391D01*
X92138095Y-85275322D01*
X92181647Y-85392090D01*
X92267807Y-85507184D01*
X92267815Y-85507192D01*
X92382909Y-85593352D01*
X92382911Y-85593353D01*
X92517618Y-85643596D01*
X92517629Y-85643598D01*
X92577176Y-85650000D01*
X92924999Y-85650000D01*
X92925000Y-85649999D01*
X92925000Y-85075001D01*
X93275000Y-85075001D01*
X93275000Y-85649999D01*
X93275001Y-85650000D01*
X93622824Y-85650000D01*
X93682370Y-85643598D01*
X93682381Y-85643596D01*
X93817088Y-85593353D01*
X93817090Y-85593352D01*
X93932184Y-85507192D01*
X93932192Y-85507184D01*
X94018352Y-85392090D01*
X94018353Y-85392088D01*
X94068596Y-85257381D01*
X94068598Y-85257370D01*
X94075000Y-85197824D01*
X94075000Y-85075001D01*
X94074999Y-85075000D01*
X93275001Y-85075000D01*
X93275000Y-85075001D01*
X92925000Y-85075001D01*
X92925000Y-84824000D01*
X92943907Y-84765809D01*
X92993407Y-84729845D01*
X93024000Y-84725000D01*
X94074999Y-84725000D01*
X94075000Y-84724999D01*
X94075000Y-84602175D01*
X94068598Y-84542629D01*
X94068596Y-84542618D01*
X94018354Y-84407912D01*
X93947923Y-84313830D01*
X93928186Y-84255915D01*
X93946260Y-84197460D01*
X93995241Y-84160792D01*
X94027176Y-84155500D01*
X94355500Y-84155500D01*
X94413691Y-84174407D01*
X94449655Y-84223907D01*
X94454500Y-84254500D01*
X94454500Y-84968656D01*
X94455677Y-84990594D01*
X94455678Y-84990603D01*
X94458511Y-85016961D01*
X94458512Y-85016966D01*
X94482469Y-85093479D01*
X94484209Y-85096665D01*
X94515956Y-85154805D01*
X94537593Y-85183707D01*
X94551010Y-85201630D01*
X94638376Y-85288996D01*
X94650295Y-85299702D01*
X94654738Y-85303693D01*
X94675380Y-85320327D01*
X94746425Y-85357490D01*
X94746426Y-85357490D01*
X94746428Y-85357491D01*
X94779125Y-85367092D01*
X94813464Y-85377175D01*
X94871362Y-85385500D01*
X95178000Y-85385500D01*
X95236191Y-85404407D01*
X95272155Y-85453907D01*
X95277000Y-85484500D01*
X95277000Y-85836811D01*
X95292185Y-85893479D01*
X95292185Y-85893481D01*
X95292186Y-85893481D01*
X95292186Y-85893482D01*
X95307701Y-85951387D01*
X95307702Y-85951389D01*
X95307703Y-85951392D01*
X95367007Y-86054109D01*
X95367008Y-86054110D01*
X95367009Y-86054111D01*
X95367011Y-86054114D01*
X96723386Y-87410490D01*
X96826113Y-87469799D01*
X96847196Y-87475448D01*
X96940691Y-87500500D01*
X96940693Y-87500500D01*
X103859307Y-87500500D01*
X103859309Y-87500500D01*
X103952804Y-87475448D01*
X103973887Y-87469799D01*
X104076614Y-87410489D01*
X104732607Y-86754494D01*
X104787124Y-86726718D01*
X104802611Y-86725499D01*
X105031521Y-86725499D01*
X105031522Y-86725498D01*
X105078411Y-86718072D01*
X105125299Y-86710647D01*
X105125299Y-86710646D01*
X105125304Y-86710646D01*
X105238342Y-86653050D01*
X105328050Y-86563342D01*
X105385646Y-86450304D01*
X105400500Y-86356519D01*
X105400499Y-85893482D01*
X105400498Y-85893478D01*
X105400498Y-85893476D01*
X105385647Y-85799700D01*
X105385646Y-85799698D01*
X105385646Y-85799696D01*
X105328050Y-85686658D01*
X105238342Y-85596950D01*
X105125304Y-85539354D01*
X105125305Y-85539354D01*
X105031522Y-85524500D01*
X104418479Y-85524500D01*
X104418476Y-85524501D01*
X104324700Y-85539352D01*
X104324695Y-85539354D01*
X104211659Y-85596949D01*
X104121949Y-85686659D01*
X104064354Y-85799695D01*
X104049500Y-85893478D01*
X104049500Y-86122389D01*
X104030593Y-86180580D01*
X104020504Y-86192392D01*
X103642394Y-86570503D01*
X103587877Y-86598281D01*
X103572390Y-86599500D01*
X97227612Y-86599500D01*
X97169421Y-86580593D01*
X97157608Y-86570504D01*
X96206996Y-85619892D01*
X96179219Y-85565375D01*
X96178000Y-85549888D01*
X96178000Y-85484500D01*
X96196907Y-85426309D01*
X96246407Y-85390345D01*
X96277000Y-85385500D01*
X96688620Y-85385500D01*
X96688638Y-85385500D01*
X96710607Y-85384322D01*
X96736965Y-85381488D01*
X96813482Y-85357529D01*
X96874805Y-85324044D01*
X96921629Y-85288991D01*
X96958991Y-85251629D01*
X96973693Y-85235262D01*
X96990327Y-85214620D01*
X97027490Y-85143575D01*
X97047175Y-85076536D01*
X97055500Y-85018638D01*
X97055500Y-79641362D01*
X97054322Y-79619393D01*
X97051488Y-79593035D01*
X97027529Y-79516518D01*
X96994044Y-79455195D01*
X96958991Y-79408371D01*
X96611629Y-79061009D01*
X96611623Y-79061003D01*
X96595277Y-79046320D01*
X96595270Y-79046314D01*
X96595262Y-79046307D01*
X96574620Y-79029673D01*
X96574619Y-79029672D01*
X96503576Y-78992510D01*
X96503571Y-78992508D01*
X96436542Y-78972826D01*
X96436533Y-78972824D01*
X96390322Y-78966180D01*
X96378638Y-78964500D01*
X95001362Y-78964500D01*
X95001343Y-78964500D01*
X94979405Y-78965677D01*
X94979398Y-78965677D01*
X94979393Y-78965678D01*
X94970894Y-78966591D01*
X94953038Y-78968511D01*
X94953033Y-78968512D01*
X94876520Y-78992469D01*
X94815193Y-79025957D01*
X94768369Y-79061010D01*
X94181003Y-79648376D01*
X94166320Y-79664722D01*
X94166301Y-79664745D01*
X94149672Y-79685380D01*
X94112510Y-79756423D01*
X94112508Y-79756428D01*
X94092826Y-79823457D01*
X94092824Y-79823466D01*
X94084500Y-79881362D01*
X94084500Y-81333872D01*
X94065593Y-81392063D01*
X94055504Y-81403876D01*
X94003876Y-81455504D01*
X93949359Y-81483281D01*
X93933872Y-81484500D01*
X90866128Y-81484500D01*
X90807937Y-81465593D01*
X90796124Y-81455504D01*
X90141623Y-80801003D01*
X90125277Y-80786320D01*
X90125270Y-80786314D01*
X90125262Y-80786307D01*
X90104620Y-80769673D01*
X90104619Y-80769672D01*
X90033576Y-80732510D01*
X90033571Y-80732508D01*
X89966542Y-80712826D01*
X89966533Y-80712824D01*
X89920322Y-80706180D01*
X89908638Y-80704500D01*
X88711362Y-80704500D01*
X88711343Y-80704500D01*
X88689405Y-80705677D01*
X88689398Y-80705677D01*
X88689393Y-80705678D01*
X88680894Y-80706591D01*
X88663038Y-80708511D01*
X88663033Y-80708512D01*
X88586520Y-80732469D01*
X88522576Y-80767386D01*
X88462442Y-80778680D01*
X88407154Y-80752470D01*
X88377831Y-80698769D01*
X88385673Y-80638088D01*
X88405123Y-80610495D01*
X90383991Y-78631629D01*
X90398693Y-78615262D01*
X90415327Y-78594620D01*
X90452490Y-78523575D01*
X90472175Y-78456536D01*
X90480500Y-78398638D01*
X90480500Y-77376362D01*
X97994500Y-77376362D01*
X97994500Y-85173656D01*
X97995677Y-85195594D01*
X97995678Y-85195607D01*
X97996326Y-85201630D01*
X97998511Y-85221961D01*
X97998512Y-85221966D01*
X98022469Y-85298479D01*
X98025316Y-85303693D01*
X98055956Y-85359805D01*
X98089654Y-85404818D01*
X98091010Y-85406630D01*
X98218376Y-85533996D01*
X98224339Y-85539352D01*
X98234738Y-85548693D01*
X98255380Y-85565327D01*
X98314287Y-85596141D01*
X98326425Y-85602490D01*
X98326426Y-85602490D01*
X98326428Y-85602491D01*
X98326561Y-85602530D01*
X98393464Y-85622175D01*
X98451362Y-85630500D01*
X98451363Y-85630500D01*
X100848620Y-85630500D01*
X100848638Y-85630500D01*
X100870607Y-85629322D01*
X100896965Y-85626488D01*
X100973482Y-85602529D01*
X101034805Y-85569044D01*
X101081629Y-85533991D01*
X101858991Y-84756629D01*
X101873693Y-84740262D01*
X101890327Y-84719620D01*
X101927490Y-84648575D01*
X101947175Y-84581536D01*
X101955500Y-84523638D01*
X101955500Y-84050226D01*
X101948498Y-83997038D01*
X101931885Y-83935038D01*
X101911355Y-83885476D01*
X101902794Y-83870649D01*
X101892906Y-83846772D01*
X101889772Y-83835073D01*
X101886400Y-83809456D01*
X101886400Y-80966542D01*
X101889771Y-80940926D01*
X101892907Y-80929221D01*
X101902796Y-80905347D01*
X101911360Y-80890515D01*
X101929458Y-80846817D01*
X101950915Y-80814702D01*
X101963649Y-80801968D01*
X102018164Y-80774193D01*
X102078596Y-80783764D01*
X102121861Y-80827029D01*
X102131617Y-80857701D01*
X102141312Y-80924250D01*
X102192614Y-81029189D01*
X102197381Y-81035865D01*
X102196086Y-81036789D01*
X102219575Y-81082889D01*
X102212359Y-81138362D01*
X102197286Y-81172500D01*
X102183814Y-81203011D01*
X102180900Y-81228130D01*
X102180900Y-81517859D01*
X102180901Y-81517864D01*
X102183814Y-81542990D01*
X102198667Y-81576628D01*
X102229194Y-81645765D01*
X102308635Y-81725206D01*
X102411409Y-81770585D01*
X102436535Y-81773500D01*
X102750300Y-81773499D01*
X102808490Y-81792406D01*
X102844454Y-81841906D01*
X102849300Y-81872499D01*
X102849300Y-82289928D01*
X102830393Y-82348119D01*
X102795246Y-82378137D01*
X102721581Y-82415671D01*
X102626270Y-82510982D01*
X102565083Y-82631067D01*
X102565081Y-82631074D01*
X102551192Y-82718769D01*
X102549300Y-82730712D01*
X102549300Y-83297688D01*
X102559520Y-83362218D01*
X102565081Y-83397325D01*
X102565083Y-83397332D01*
X102614432Y-83494183D01*
X102626272Y-83517420D01*
X102720305Y-83611453D01*
X102748081Y-83665968D01*
X102749300Y-83681455D01*
X102749300Y-84209311D01*
X102758456Y-84243480D01*
X102758456Y-84243482D01*
X102758457Y-84243482D01*
X102780002Y-84323891D01*
X102839307Y-84426609D01*
X102839309Y-84426611D01*
X102839311Y-84426614D01*
X103248186Y-84835489D01*
X103301972Y-84866542D01*
X103350914Y-84894799D01*
X103465491Y-84925500D01*
X104093100Y-84925500D01*
X104151291Y-84944407D01*
X104163103Y-84954496D01*
X104192422Y-84983814D01*
X104211658Y-85003050D01*
X104324696Y-85060646D01*
X104418481Y-85075500D01*
X105031518Y-85075499D01*
X105031520Y-85075499D01*
X105031521Y-85075498D01*
X105078411Y-85068072D01*
X105125299Y-85060647D01*
X105125299Y-85060646D01*
X105125304Y-85060646D01*
X105238342Y-85003050D01*
X105328050Y-84913342D01*
X105385646Y-84800304D01*
X105400500Y-84706519D01*
X105400499Y-84243482D01*
X105393440Y-84198907D01*
X105385647Y-84149700D01*
X105385646Y-84149698D01*
X105385646Y-84149696D01*
X105328050Y-84036658D01*
X105238342Y-83946950D01*
X105220533Y-83937876D01*
X105128457Y-83890960D01*
X105085193Y-83847695D01*
X105075622Y-83787263D01*
X105103400Y-83732747D01*
X105138807Y-83709993D01*
X105204782Y-83685386D01*
X105314127Y-83603531D01*
X105314131Y-83603527D01*
X105395985Y-83494183D01*
X105443716Y-83366209D01*
X105443718Y-83366201D01*
X105449800Y-83309634D01*
X105449800Y-83189201D01*
X105449799Y-83189200D01*
X104049802Y-83189200D01*
X104049801Y-83189201D01*
X104049801Y-83309636D01*
X104055881Y-83366204D01*
X104055882Y-83366206D01*
X104103614Y-83494183D01*
X104185468Y-83603527D01*
X104185472Y-83603531D01*
X104294817Y-83685386D01*
X104335029Y-83700384D01*
X104382944Y-83738434D01*
X104399342Y-83797381D01*
X104377961Y-83854709D01*
X104331029Y-83887295D01*
X104324699Y-83889351D01*
X104211658Y-83946950D01*
X104211656Y-83946951D01*
X104163103Y-83995504D01*
X104108586Y-84023281D01*
X104093100Y-84024500D01*
X103752411Y-84024500D01*
X103694220Y-84005593D01*
X103682407Y-83995504D01*
X103679296Y-83992393D01*
X103651519Y-83937876D01*
X103650300Y-83922389D01*
X103650300Y-83681455D01*
X103669207Y-83623264D01*
X103679290Y-83611457D01*
X103773328Y-83517420D01*
X103834519Y-83397326D01*
X103850300Y-83297688D01*
X103850300Y-82900387D01*
X103869207Y-82842196D01*
X103879284Y-82830396D01*
X103890139Y-82819540D01*
X103944653Y-82791766D01*
X104005085Y-82801337D01*
X104030144Y-82819543D01*
X104049801Y-82839200D01*
X105449798Y-82839200D01*
X105449799Y-82839199D01*
X105449799Y-82718769D01*
X105449798Y-82718763D01*
X105443718Y-82662195D01*
X105443717Y-82662193D01*
X105395985Y-82534216D01*
X105314131Y-82424872D01*
X105314127Y-82424868D01*
X105204783Y-82343014D01*
X105164764Y-82328088D01*
X105116850Y-82290037D01*
X105100452Y-82231090D01*
X105121834Y-82173763D01*
X105124513Y-82170532D01*
X105165377Y-82123373D01*
X105225165Y-81992457D01*
X105245413Y-81851627D01*
X105245647Y-81850002D01*
X105245647Y-81849997D01*
X105225165Y-81707543D01*
X105209631Y-81673528D01*
X105165377Y-81576627D01*
X105071128Y-81467857D01*
X105071127Y-81467856D01*
X105071126Y-81467855D01*
X104950057Y-81390049D01*
X104950054Y-81390047D01*
X104950053Y-81390047D01*
X104949052Y-81389753D01*
X104811964Y-81349500D01*
X104811961Y-81349500D01*
X104668039Y-81349500D01*
X104668035Y-81349500D01*
X104529949Y-81390046D01*
X104529942Y-81390049D01*
X104408871Y-81467856D01*
X104403520Y-81472494D01*
X104402031Y-81470776D01*
X104358659Y-81496928D01*
X104336241Y-81499500D01*
X104317856Y-81499500D01*
X104304895Y-81502972D01*
X104234073Y-81521948D01*
X104234074Y-81521949D01*
X104228711Y-81523386D01*
X104205397Y-81536846D01*
X104145548Y-81549565D01*
X104089653Y-81524678D01*
X104059062Y-81471689D01*
X104056899Y-81451115D01*
X104056899Y-81228136D01*
X104053985Y-81203009D01*
X104025440Y-81138362D01*
X104019233Y-81077493D01*
X104041500Y-81036636D01*
X104040419Y-81035865D01*
X104045185Y-81029189D01*
X104096487Y-80924250D01*
X104100312Y-80898000D01*
X103042900Y-80898000D01*
X102984709Y-80879093D01*
X102948745Y-80829593D01*
X102943900Y-80799000D01*
X102943900Y-80647000D01*
X102962807Y-80588809D01*
X103012307Y-80552845D01*
X103042900Y-80548000D01*
X104100311Y-80548000D01*
X104096486Y-80521748D01*
X104072239Y-80472150D01*
X104063667Y-80411568D01*
X104080876Y-80370768D01*
X104082834Y-80368050D01*
X104082843Y-80368041D01*
X104127490Y-80288224D01*
X104147175Y-80221185D01*
X104155500Y-80163287D01*
X104155500Y-80079500D01*
X104174407Y-80021309D01*
X104223907Y-79985345D01*
X104254500Y-79980500D01*
X104348620Y-79980500D01*
X104348638Y-79980500D01*
X104370607Y-79979322D01*
X104396965Y-79976488D01*
X104473482Y-79952529D01*
X104534805Y-79919044D01*
X104581629Y-79883991D01*
X105187490Y-79278130D01*
X107905900Y-79278130D01*
X107905900Y-79567859D01*
X107905901Y-79567864D01*
X107908814Y-79592990D01*
X107920474Y-79619396D01*
X107940497Y-79664745D01*
X107957900Y-79704157D01*
X107955526Y-79705205D01*
X107968937Y-79750757D01*
X107955877Y-79790949D01*
X107957900Y-79791843D01*
X107954194Y-79800234D01*
X107954194Y-79800235D01*
X107943937Y-79823466D01*
X107908814Y-79903011D01*
X107905900Y-79928130D01*
X107905900Y-80217859D01*
X107905901Y-80217864D01*
X107908814Y-80242990D01*
X107957900Y-80354157D01*
X107955526Y-80355205D01*
X107968937Y-80400757D01*
X107955877Y-80440949D01*
X107957900Y-80441843D01*
X107954194Y-80450234D01*
X107954194Y-80450235D01*
X107929152Y-80506950D01*
X107908814Y-80553011D01*
X107905900Y-80578130D01*
X107905900Y-80867859D01*
X107905901Y-80867864D01*
X107908814Y-80892990D01*
X107922347Y-80923638D01*
X107951816Y-80990380D01*
X107957900Y-81004157D01*
X107955526Y-81005205D01*
X107968937Y-81050757D01*
X107955877Y-81090949D01*
X107957900Y-81091843D01*
X107954194Y-81100234D01*
X107954194Y-81100235D01*
X107935794Y-81141907D01*
X107908814Y-81203011D01*
X107905900Y-81228130D01*
X107905900Y-81517859D01*
X107905901Y-81517864D01*
X107908814Y-81542990D01*
X107923667Y-81576628D01*
X107954194Y-81645765D01*
X108033635Y-81725206D01*
X108033636Y-81725206D01*
X108036415Y-81727985D01*
X108064192Y-81782502D01*
X108054621Y-81842934D01*
X108049705Y-81851497D01*
X108049626Y-81851619D01*
X107989834Y-81982543D01*
X107969353Y-82124997D01*
X107969353Y-82125002D01*
X107989834Y-82267456D01*
X108027760Y-82350500D01*
X108049623Y-82398373D01*
X108143872Y-82507143D01*
X108143873Y-82507144D01*
X108264942Y-82584950D01*
X108264947Y-82584953D01*
X108345612Y-82608638D01*
X108403035Y-82625499D01*
X108403036Y-82625499D01*
X108403039Y-82625500D01*
X108403041Y-82625500D01*
X108546959Y-82625500D01*
X108546961Y-82625500D01*
X108685053Y-82584953D01*
X108806128Y-82507143D01*
X108900377Y-82398373D01*
X108960165Y-82267457D01*
X108973636Y-82173763D01*
X108980647Y-82125002D01*
X108980647Y-82124997D01*
X108960165Y-81982543D01*
X108960165Y-81982541D01*
X108928692Y-81913625D01*
X108921717Y-81852839D01*
X108951804Y-81799562D01*
X109007460Y-81774144D01*
X109018745Y-81773499D01*
X109526261Y-81773499D01*
X109526264Y-81773499D01*
X109551391Y-81770585D01*
X109654165Y-81725206D01*
X109733606Y-81645765D01*
X109778985Y-81542991D01*
X109781900Y-81517865D01*
X109781899Y-81228136D01*
X109778985Y-81203009D01*
X109778983Y-81203006D01*
X109777756Y-81198491D01*
X109780723Y-81137378D01*
X109819044Y-81089680D01*
X109873283Y-81073500D01*
X110625500Y-81073500D01*
X110683691Y-81092407D01*
X110719655Y-81141907D01*
X110724500Y-81172500D01*
X110724500Y-81358489D01*
X110732034Y-81406055D01*
X110739169Y-81451108D01*
X110740281Y-81458125D01*
X110740283Y-81458132D01*
X110801470Y-81578217D01*
X110801472Y-81578220D01*
X110896780Y-81673528D01*
X110896782Y-81673529D01*
X111016867Y-81734716D01*
X111016869Y-81734716D01*
X111016874Y-81734719D01*
X111092541Y-81746703D01*
X111116510Y-81750500D01*
X111116512Y-81750500D01*
X111683490Y-81750500D01*
X111704885Y-81747111D01*
X111783126Y-81734719D01*
X111789189Y-81731630D01*
X111801798Y-81725205D01*
X111903220Y-81673528D01*
X111987253Y-81589494D01*
X112041768Y-81561719D01*
X112057255Y-81560500D01*
X112229263Y-81560500D01*
X112287454Y-81579407D01*
X112317472Y-81614554D01*
X112317953Y-81615499D01*
X112321950Y-81623342D01*
X112411658Y-81713050D01*
X112524696Y-81770646D01*
X112618481Y-81785500D01*
X113081518Y-81785499D01*
X113081520Y-81785499D01*
X113081521Y-81785498D01*
X113153217Y-81774144D01*
X113175299Y-81770647D01*
X113175299Y-81770646D01*
X113175304Y-81770646D01*
X113288342Y-81713050D01*
X113378050Y-81623342D01*
X113435646Y-81510304D01*
X113450500Y-81416519D01*
X113450499Y-80803482D01*
X113446571Y-80778680D01*
X113435647Y-80709700D01*
X113435646Y-80709698D01*
X113435646Y-80709696D01*
X113378050Y-80596658D01*
X113288342Y-80506950D01*
X113175304Y-80449354D01*
X113175305Y-80449354D01*
X113099733Y-80437384D01*
X113045217Y-80409606D01*
X113017440Y-80355089D01*
X113027012Y-80294657D01*
X113070277Y-80251393D01*
X113099730Y-80241822D01*
X113170304Y-80230646D01*
X113283342Y-80173050D01*
X113373050Y-80083342D01*
X113430646Y-79970304D01*
X113445500Y-79876519D01*
X113445499Y-79263482D01*
X113445498Y-79263477D01*
X113894500Y-79263477D01*
X113894500Y-79876520D01*
X113894501Y-79876523D01*
X113909352Y-79970299D01*
X113909354Y-79970304D01*
X113966950Y-80083342D01*
X114056658Y-80173050D01*
X114169696Y-80230646D01*
X114234417Y-80240896D01*
X114245265Y-80242615D01*
X114299782Y-80270393D01*
X114327559Y-80324909D01*
X114317988Y-80385341D01*
X114274723Y-80428606D01*
X114245264Y-80438177D01*
X114174699Y-80449352D01*
X114174695Y-80449354D01*
X114061659Y-80506949D01*
X113971949Y-80596659D01*
X113914354Y-80709695D01*
X113899500Y-80803477D01*
X113899500Y-81416520D01*
X113899501Y-81416523D01*
X113914352Y-81510299D01*
X113914354Y-81510304D01*
X113971950Y-81623342D01*
X114061658Y-81713050D01*
X114174696Y-81770646D01*
X114268481Y-81785500D01*
X114731518Y-81785499D01*
X114731520Y-81785499D01*
X114731521Y-81785498D01*
X114803217Y-81774144D01*
X114825299Y-81770647D01*
X114825299Y-81770646D01*
X114825304Y-81770646D01*
X114938342Y-81713050D01*
X115028050Y-81623342D01*
X115032528Y-81614554D01*
X115075793Y-81571290D01*
X115120737Y-81560500D01*
X115288389Y-81560500D01*
X115332806Y-81573542D01*
X115333506Y-81572011D01*
X115339942Y-81574949D01*
X115339947Y-81574953D01*
X115446403Y-81606211D01*
X115478035Y-81615499D01*
X115478036Y-81615499D01*
X115478039Y-81615500D01*
X115478041Y-81615500D01*
X115621959Y-81615500D01*
X115621961Y-81615500D01*
X115760053Y-81574953D01*
X115881128Y-81497143D01*
X115975377Y-81388373D01*
X116035165Y-81257457D01*
X116049662Y-81156629D01*
X116055647Y-81115002D01*
X116055647Y-81114997D01*
X116035165Y-80972543D01*
X116012839Y-80923656D01*
X115975377Y-80841627D01*
X115881128Y-80732857D01*
X115881127Y-80732856D01*
X115881126Y-80732855D01*
X115760057Y-80655049D01*
X115760054Y-80655047D01*
X115760053Y-80655047D01*
X115760050Y-80655046D01*
X115621964Y-80614500D01*
X115621961Y-80614500D01*
X115478039Y-80614500D01*
X115478035Y-80614500D01*
X115377420Y-80644044D01*
X115339947Y-80655047D01*
X115339946Y-80655047D01*
X115338439Y-80655490D01*
X115310548Y-80659500D01*
X115120737Y-80659500D01*
X115062546Y-80640593D01*
X115032528Y-80605446D01*
X115028051Y-80596660D01*
X115028050Y-80596658D01*
X114938342Y-80506950D01*
X114825304Y-80449354D01*
X114825305Y-80449354D01*
X114749733Y-80437384D01*
X114695217Y-80409606D01*
X114667440Y-80355089D01*
X114677012Y-80294657D01*
X114720277Y-80251393D01*
X114749730Y-80241822D01*
X114820304Y-80230646D01*
X114933342Y-80173050D01*
X115023050Y-80083342D01*
X115027528Y-80074554D01*
X115070793Y-80031290D01*
X115115737Y-80020500D01*
X115388389Y-80020500D01*
X115432806Y-80033542D01*
X115433506Y-80032011D01*
X115439942Y-80034949D01*
X115439947Y-80034953D01*
X115546403Y-80066211D01*
X115578035Y-80075499D01*
X115578036Y-80075499D01*
X115578039Y-80075500D01*
X115578041Y-80075500D01*
X115721959Y-80075500D01*
X115721961Y-80075500D01*
X115860053Y-80034953D01*
X115981128Y-79957143D01*
X116075377Y-79848373D01*
X116135165Y-79717457D01*
X116146106Y-79641362D01*
X116155647Y-79575002D01*
X116155647Y-79574997D01*
X116135165Y-79432543D01*
X116124125Y-79408369D01*
X116075377Y-79301627D01*
X115981128Y-79192857D01*
X115981127Y-79192856D01*
X115981126Y-79192855D01*
X115860057Y-79115049D01*
X115860054Y-79115047D01*
X115860053Y-79115047D01*
X115860050Y-79115046D01*
X115721964Y-79074500D01*
X115721961Y-79074500D01*
X115578039Y-79074500D01*
X115578035Y-79074500D01*
X115468637Y-79106623D01*
X115439947Y-79115047D01*
X115439946Y-79115047D01*
X115438439Y-79115490D01*
X115410548Y-79119500D01*
X115115737Y-79119500D01*
X115057546Y-79100593D01*
X115027528Y-79065446D01*
X115023051Y-79056660D01*
X115023050Y-79056658D01*
X114933342Y-78966950D01*
X114820304Y-78909354D01*
X114820305Y-78909354D01*
X114726522Y-78894500D01*
X114263479Y-78894500D01*
X114263476Y-78894501D01*
X114169700Y-78909352D01*
X114169695Y-78909354D01*
X114056659Y-78966949D01*
X113966949Y-79056659D01*
X113909354Y-79169695D01*
X113894500Y-79263477D01*
X113445498Y-79263477D01*
X113434314Y-79192855D01*
X113430647Y-79169700D01*
X113430646Y-79169698D01*
X113430646Y-79169696D01*
X113373050Y-79056658D01*
X113283342Y-78966950D01*
X113170304Y-78909354D01*
X113170305Y-78909354D01*
X113076522Y-78894500D01*
X112613479Y-78894500D01*
X112613476Y-78894501D01*
X112519700Y-78909352D01*
X112519695Y-78909354D01*
X112406659Y-78966949D01*
X112316948Y-79056660D01*
X112312472Y-79065446D01*
X112269207Y-79108710D01*
X112224263Y-79119500D01*
X112083510Y-79119500D01*
X112025319Y-79100593D01*
X112004947Y-79076747D01*
X112003108Y-79078084D01*
X111998529Y-79071782D01*
X111998528Y-79071780D01*
X111903220Y-78976472D01*
X111903217Y-78976470D01*
X111783132Y-78915283D01*
X111783127Y-78915281D01*
X111783126Y-78915281D01*
X111745692Y-78909352D01*
X111683490Y-78899500D01*
X111683488Y-78899500D01*
X111116512Y-78899500D01*
X111116510Y-78899500D01*
X111016874Y-78915281D01*
X111016867Y-78915283D01*
X110896782Y-78976470D01*
X110801470Y-79071782D01*
X110740283Y-79191867D01*
X110740281Y-79191874D01*
X110724500Y-79291510D01*
X110724500Y-79623500D01*
X110705593Y-79681691D01*
X110656093Y-79717655D01*
X110625500Y-79722500D01*
X109873283Y-79722500D01*
X109815092Y-79703593D01*
X109779128Y-79654093D01*
X109777755Y-79597510D01*
X109778981Y-79592999D01*
X109778985Y-79592991D01*
X109781900Y-79567865D01*
X109781899Y-79278136D01*
X109778985Y-79253009D01*
X109733606Y-79150235D01*
X109654165Y-79070794D01*
X109551391Y-79025415D01*
X109551390Y-79025414D01*
X109551388Y-79025414D01*
X109526269Y-79022500D01*
X109526265Y-79022500D01*
X109393400Y-79022500D01*
X109335209Y-79003593D01*
X109299245Y-78954093D01*
X109294400Y-78923500D01*
X109294400Y-78114500D01*
X109313307Y-78056309D01*
X109362807Y-78020345D01*
X109393400Y-78015500D01*
X109563490Y-78015500D01*
X109584885Y-78012111D01*
X109663126Y-77999719D01*
X109783220Y-77938528D01*
X109877253Y-77844494D01*
X109931768Y-77816719D01*
X109947255Y-77815500D01*
X110181906Y-77815500D01*
X110240097Y-77834407D01*
X110260553Y-77858357D01*
X110262370Y-77857038D01*
X110266948Y-77863339D01*
X110266950Y-77863342D01*
X110356658Y-77953050D01*
X110469696Y-78010646D01*
X110563481Y-78025500D01*
X111176518Y-78025499D01*
X111176520Y-78025499D01*
X111176521Y-78025498D01*
X111223411Y-78018072D01*
X111270299Y-78010647D01*
X111270299Y-78010646D01*
X111270304Y-78010646D01*
X111383342Y-77953050D01*
X111411844Y-77924548D01*
X111431897Y-77904496D01*
X111486414Y-77876719D01*
X111501900Y-77875500D01*
X111928100Y-77875500D01*
X111986291Y-77894407D01*
X111998103Y-77904496D01*
X112018156Y-77924548D01*
X112036658Y-77943050D01*
X112149696Y-78000646D01*
X112243481Y-78015500D01*
X112856518Y-78015499D01*
X112856520Y-78015499D01*
X112856521Y-78015498D01*
X112903411Y-78008072D01*
X112950299Y-78000647D01*
X112950299Y-78000646D01*
X112950304Y-78000646D01*
X113063342Y-77943050D01*
X113153050Y-77853342D01*
X113210646Y-77740304D01*
X113225500Y-77646519D01*
X113225499Y-77183482D01*
X113211731Y-77096545D01*
X113210647Y-77089700D01*
X113210646Y-77089698D01*
X113210646Y-77089696D01*
X113153050Y-76976658D01*
X113063342Y-76886950D01*
X112950304Y-76829354D01*
X112950305Y-76829354D01*
X112856522Y-76814500D01*
X112243479Y-76814500D01*
X112243476Y-76814501D01*
X112149700Y-76829352D01*
X112149695Y-76829354D01*
X112036658Y-76886950D01*
X112036656Y-76886951D01*
X111978103Y-76945504D01*
X111923586Y-76973281D01*
X111908100Y-76974500D01*
X111501900Y-76974500D01*
X111443709Y-76955593D01*
X111431897Y-76945504D01*
X111383343Y-76896951D01*
X111383342Y-76896950D01*
X111270304Y-76839354D01*
X111270305Y-76839354D01*
X111176522Y-76824500D01*
X110563479Y-76824500D01*
X110563476Y-76824501D01*
X110469700Y-76839352D01*
X110469695Y-76839354D01*
X110405323Y-76872154D01*
X110356658Y-76896950D01*
X110356657Y-76896950D01*
X110349717Y-76900487D01*
X110348829Y-76898744D01*
X110300336Y-76914500D01*
X109947255Y-76914500D01*
X109889064Y-76895593D01*
X109877257Y-76885509D01*
X109783220Y-76791472D01*
X109783217Y-76791470D01*
X109663132Y-76730283D01*
X109663127Y-76730281D01*
X109663126Y-76730281D01*
X109629913Y-76725020D01*
X109563490Y-76714500D01*
X109563488Y-76714500D01*
X108996512Y-76714500D01*
X108996510Y-76714500D01*
X108896874Y-76730281D01*
X108896867Y-76730283D01*
X108776782Y-76791470D01*
X108681470Y-76886782D01*
X108620283Y-77006867D01*
X108620281Y-77006874D01*
X108604500Y-77106510D01*
X108604500Y-77362389D01*
X108585593Y-77420580D01*
X108575504Y-77432392D01*
X108483411Y-77524485D01*
X108483407Y-77524490D01*
X108424102Y-77627209D01*
X108424100Y-77627213D01*
X108418927Y-77646516D01*
X108418928Y-77646517D01*
X108393400Y-77741791D01*
X108393400Y-78923500D01*
X108374493Y-78981691D01*
X108324993Y-79017655D01*
X108294401Y-79022500D01*
X108161538Y-79022500D01*
X108161535Y-79022501D01*
X108136409Y-79025414D01*
X108033635Y-79070794D01*
X107954194Y-79150235D01*
X107908814Y-79253011D01*
X107905900Y-79278130D01*
X105187490Y-79278130D01*
X105358991Y-79106629D01*
X105373693Y-79090262D01*
X105390327Y-79069620D01*
X105427490Y-78998575D01*
X105447175Y-78931536D01*
X105455500Y-78873638D01*
X105455500Y-77085587D01*
X105474407Y-77027396D01*
X105523907Y-76991432D01*
X105585093Y-76991432D01*
X105634593Y-77027396D01*
X105636810Y-77030579D01*
X105680886Y-77096542D01*
X105680889Y-77096545D01*
X105778458Y-77194114D01*
X105893182Y-77270771D01*
X105893193Y-77270777D01*
X105940283Y-77290282D01*
X106020672Y-77323580D01*
X106156007Y-77350500D01*
X106156008Y-77350500D01*
X106293992Y-77350500D01*
X106293993Y-77350500D01*
X106429328Y-77323580D01*
X106556811Y-77270775D01*
X106671542Y-77194114D01*
X106769114Y-77096542D01*
X106845775Y-76981811D01*
X106898580Y-76854328D01*
X106925500Y-76718993D01*
X106925500Y-76129115D01*
X106944407Y-76070924D01*
X106947966Y-76066317D01*
X106948291Y-76065918D01*
X106948302Y-76065908D01*
X106999022Y-75990001D01*
X108555001Y-75990001D01*
X108555001Y-76085436D01*
X108561081Y-76142004D01*
X108561082Y-76142006D01*
X108608814Y-76269983D01*
X108690668Y-76379327D01*
X108690672Y-76379331D01*
X108800016Y-76461185D01*
X108927990Y-76508916D01*
X108927998Y-76508918D01*
X108984566Y-76514999D01*
X109105000Y-76514999D01*
X109105000Y-75990001D01*
X109104999Y-75990000D01*
X108555002Y-75990000D01*
X108555001Y-75990001D01*
X106999022Y-75990001D01*
X107033306Y-75938691D01*
X107052318Y-75910238D01*
X107052319Y-75910234D01*
X107052322Y-75910231D01*
X107123973Y-75737251D01*
X107160500Y-75553616D01*
X107160500Y-75544565D01*
X108555000Y-75544565D01*
X108555000Y-75639999D01*
X108555001Y-75640000D01*
X109104999Y-75640000D01*
X109105000Y-75639999D01*
X109105000Y-75115001D01*
X109455000Y-75115001D01*
X109455000Y-76514998D01*
X109455001Y-76514999D01*
X109575431Y-76514999D01*
X109575436Y-76514998D01*
X109632004Y-76508918D01*
X109632006Y-76508917D01*
X109759983Y-76461185D01*
X109869327Y-76379331D01*
X109869331Y-76379327D01*
X109951186Y-76269982D01*
X109994908Y-76152757D01*
X110032958Y-76104842D01*
X110091905Y-76088444D01*
X110149233Y-76109825D01*
X110181111Y-76154656D01*
X110192654Y-76187647D01*
X110273207Y-76296790D01*
X110273209Y-76296792D01*
X110382352Y-76377345D01*
X110510398Y-76422149D01*
X110540789Y-76424999D01*
X110695000Y-76424999D01*
X110695000Y-75950001D01*
X111045000Y-75950001D01*
X111045000Y-76424998D01*
X111045001Y-76424999D01*
X111199203Y-76424999D01*
X111229600Y-76422149D01*
X111229602Y-76422149D01*
X111357647Y-76377345D01*
X111466790Y-76296792D01*
X111466792Y-76296790D01*
X111547345Y-76187647D01*
X111592149Y-76059601D01*
X111594999Y-76029211D01*
X111595000Y-76029210D01*
X111595000Y-75950001D01*
X111594999Y-75950000D01*
X111045001Y-75950000D01*
X111045000Y-75950001D01*
X110695000Y-75950001D01*
X110695000Y-75125001D01*
X111045000Y-75125001D01*
X111045000Y-75599999D01*
X111045001Y-75600000D01*
X111594998Y-75600000D01*
X111594999Y-75599999D01*
X111594999Y-75520796D01*
X111592149Y-75490399D01*
X111592149Y-75490397D01*
X111547345Y-75362352D01*
X111466792Y-75253209D01*
X111466790Y-75253207D01*
X111357647Y-75172654D01*
X111229601Y-75127850D01*
X111199211Y-75125000D01*
X111045001Y-75125000D01*
X111045000Y-75125001D01*
X110695000Y-75125001D01*
X110694999Y-75125000D01*
X110540796Y-75125000D01*
X110510399Y-75127850D01*
X110510397Y-75127850D01*
X110382352Y-75172654D01*
X110273209Y-75253207D01*
X110273207Y-75253209D01*
X110192653Y-75362354D01*
X110166667Y-75436620D01*
X110129602Y-75485300D01*
X110071002Y-75502897D01*
X110013250Y-75482689D01*
X109980465Y-75438519D01*
X109951185Y-75360016D01*
X109869331Y-75250672D01*
X109869327Y-75250668D01*
X109759983Y-75168814D01*
X109632009Y-75121083D01*
X109632001Y-75121081D01*
X109575434Y-75115000D01*
X109455001Y-75115000D01*
X109455000Y-75115001D01*
X109105000Y-75115001D01*
X109104999Y-75115000D01*
X108984569Y-75115000D01*
X108984562Y-75115001D01*
X108927995Y-75121081D01*
X108927993Y-75121082D01*
X108800016Y-75168814D01*
X108690672Y-75250668D01*
X108690668Y-75250672D01*
X108608814Y-75360016D01*
X108561083Y-75487990D01*
X108561081Y-75487998D01*
X108555000Y-75544565D01*
X107160500Y-75544565D01*
X107160500Y-74959500D01*
X107179407Y-74901309D01*
X107228907Y-74865345D01*
X107259500Y-74860500D01*
X110806384Y-74860500D01*
X112340500Y-74860500D01*
X112398691Y-74879407D01*
X112434655Y-74928907D01*
X112439500Y-74959500D01*
X112439500Y-75065500D01*
X112420593Y-75123691D01*
X112371093Y-75159655D01*
X112340501Y-75164500D01*
X112243479Y-75164500D01*
X112243476Y-75164501D01*
X112149700Y-75179352D01*
X112149695Y-75179354D01*
X112036659Y-75236949D01*
X111946949Y-75326659D01*
X111889354Y-75439695D01*
X111874500Y-75533477D01*
X111874500Y-75996520D01*
X111874501Y-75996523D01*
X111889352Y-76090299D01*
X111889354Y-76090304D01*
X111946950Y-76203342D01*
X112036658Y-76293050D01*
X112149696Y-76350646D01*
X112243481Y-76365500D01*
X112856518Y-76365499D01*
X112856520Y-76365499D01*
X112856521Y-76365498D01*
X112903411Y-76358072D01*
X112950299Y-76350647D01*
X112950299Y-76350646D01*
X112950304Y-76350646D01*
X113063342Y-76293050D01*
X113153050Y-76203342D01*
X113210646Y-76090304D01*
X113225500Y-75996519D01*
X113225499Y-75767610D01*
X113244406Y-75709421D01*
X113246622Y-75706827D01*
X113246538Y-75706763D01*
X113250479Y-75701624D01*
X113250490Y-75701614D01*
X113309799Y-75598886D01*
X113324507Y-75543994D01*
X113340500Y-75484309D01*
X113340500Y-74959500D01*
X113359407Y-74901309D01*
X113408907Y-74865345D01*
X113439500Y-74860500D01*
X114808049Y-74860500D01*
X114866240Y-74879407D01*
X114878053Y-74889496D01*
X120044465Y-80055908D01*
X120176859Y-80188302D01*
X120226072Y-80221185D01*
X120332528Y-80292318D01*
X120332534Y-80292320D01*
X120332536Y-80292322D01*
X120505516Y-80363973D01*
X120597333Y-80382236D01*
X120689150Y-80400500D01*
X120689151Y-80400500D01*
X129615406Y-80400500D01*
X129673597Y-80419407D01*
X129709561Y-80468907D01*
X129711575Y-80475994D01*
X129712888Y-80481368D01*
X129712889Y-80481370D01*
X129712890Y-80481373D01*
X129755900Y-80562085D01*
X129801655Y-80614889D01*
X129801667Y-80614901D01*
X129819247Y-80632844D01*
X129819249Y-80632846D01*
X129899058Y-80677488D01*
X129899062Y-80677490D01*
X129966095Y-80697173D01*
X129966102Y-80697175D01*
X130024000Y-80705500D01*
X130024001Y-80705500D01*
X130898620Y-80705500D01*
X130898638Y-80705500D01*
X130920607Y-80704322D01*
X130946965Y-80701488D01*
X131023482Y-80677529D01*
X131084805Y-80644044D01*
X131131629Y-80608991D01*
X131633991Y-80106629D01*
X131648693Y-80090262D01*
X131665327Y-80069620D01*
X131702490Y-79998575D01*
X131722175Y-79931536D01*
X131730500Y-79873638D01*
X131730500Y-77879831D01*
X131729510Y-77859685D01*
X131727127Y-77835494D01*
X131724168Y-77815548D01*
X131718902Y-77789073D01*
X131717000Y-77769759D01*
X131717000Y-76299002D01*
X131716762Y-76296792D01*
X131714420Y-76275001D01*
X131713067Y-76262419D01*
X131712500Y-76251837D01*
X131712500Y-76160252D01*
X131712476Y-76160009D01*
X131712000Y-76150310D01*
X131712000Y-75930001D01*
X131711999Y-75930000D01*
X131687373Y-75930000D01*
X131614456Y-75944504D01*
X131587051Y-75962816D01*
X131532050Y-75979500D01*
X131463742Y-75979500D01*
X131448958Y-75977910D01*
X131448899Y-75978328D01*
X131403748Y-75971836D01*
X131387500Y-75969500D01*
X131336500Y-75969500D01*
X131336497Y-75969500D01*
X131322080Y-75971050D01*
X131262202Y-75958470D01*
X131221154Y-75913097D01*
X131212500Y-75872617D01*
X131212500Y-75090945D01*
X131231407Y-75032754D01*
X131251233Y-75012403D01*
X131328282Y-74953282D01*
X131424536Y-74827841D01*
X131485044Y-74681762D01*
X131505682Y-74525000D01*
X131501683Y-74494628D01*
X131493714Y-74434095D01*
X131485044Y-74368238D01*
X131424537Y-74222161D01*
X131424537Y-74222160D01*
X131328286Y-74096723D01*
X131328285Y-74096722D01*
X131328282Y-74096718D01*
X131328277Y-74096714D01*
X131328276Y-74096713D01*
X131213849Y-74008911D01*
X131202841Y-74000464D01*
X131202840Y-74000463D01*
X131202838Y-74000462D01*
X131056766Y-73939957D01*
X131056758Y-73939955D01*
X130900001Y-73919318D01*
X130899999Y-73919318D01*
X130743241Y-73939955D01*
X130743233Y-73939957D01*
X130597161Y-74000462D01*
X130597160Y-74000462D01*
X130471723Y-74096713D01*
X130471713Y-74096723D01*
X130375462Y-74222160D01*
X130375462Y-74222161D01*
X130314957Y-74368233D01*
X130314955Y-74368241D01*
X130294318Y-74524999D01*
X130294318Y-74525000D01*
X130314955Y-74681758D01*
X130314957Y-74681766D01*
X130375462Y-74827838D01*
X130375462Y-74827839D01*
X130438857Y-74910457D01*
X130471718Y-74953282D01*
X130471721Y-74953284D01*
X130472766Y-74954086D01*
X130473300Y-74954863D01*
X130476307Y-74957870D01*
X130475749Y-74958427D01*
X130507423Y-75004510D01*
X130511500Y-75032629D01*
X130511500Y-75880500D01*
X130492593Y-75938691D01*
X130443093Y-75974655D01*
X130412500Y-75979500D01*
X130192251Y-75979500D01*
X130179486Y-75982039D01*
X130153813Y-75987145D01*
X130093053Y-75979955D01*
X130048123Y-75938422D01*
X130035500Y-75890048D01*
X130035500Y-73420253D01*
X130035498Y-73420241D01*
X130032711Y-73406231D01*
X130024879Y-73366857D01*
X132011500Y-73366857D01*
X132011500Y-77799744D01*
X132011523Y-77799978D01*
X132012000Y-77809687D01*
X132012000Y-78029999D01*
X132012001Y-78030000D01*
X132036623Y-78030000D01*
X132036632Y-78029999D01*
X132076184Y-78022131D01*
X132136946Y-78029321D01*
X132181876Y-78070853D01*
X132194500Y-78119228D01*
X132194500Y-80923656D01*
X132195677Y-80945594D01*
X132195678Y-80945603D01*
X132198511Y-80971961D01*
X132198512Y-80971966D01*
X132222469Y-81048479D01*
X132222471Y-81048482D01*
X132255956Y-81109805D01*
X132291009Y-81156629D01*
X132509753Y-81375373D01*
X132525721Y-81389753D01*
X132545848Y-81406055D01*
X132616322Y-81443253D01*
X132683263Y-81463268D01*
X132741115Y-81471877D01*
X134361150Y-81479884D01*
X134404740Y-81475428D01*
X134456178Y-81464535D01*
X134466259Y-81462134D01*
X134547231Y-81419616D01*
X134600312Y-81374183D01*
X134618374Y-81356700D01*
X134620674Y-81352645D01*
X134665834Y-81311364D01*
X134706780Y-81302500D01*
X147830500Y-81302500D01*
X147888691Y-81321407D01*
X147924655Y-81370907D01*
X147929500Y-81401500D01*
X147929500Y-89704496D01*
X147959058Y-89891125D01*
X148017453Y-90070844D01*
X148102390Y-90237544D01*
X148103240Y-90239211D01*
X148214310Y-90392086D01*
X149538712Y-91716488D01*
X150826303Y-93004079D01*
X151168661Y-93346437D01*
X151196438Y-93400954D01*
X151196438Y-93431927D01*
X151169500Y-93602014D01*
X151169500Y-93790984D01*
X151199058Y-93977613D01*
X151257453Y-94157332D01*
X151343239Y-94325698D01*
X151343242Y-94325702D01*
X151366206Y-94357310D01*
X151385113Y-94415501D01*
X151366205Y-94473691D01*
X151316705Y-94509655D01*
X151286113Y-94514500D01*
X150611343Y-94514500D01*
X150589405Y-94515677D01*
X150589398Y-94515677D01*
X150589393Y-94515678D01*
X150580894Y-94516591D01*
X150563038Y-94518511D01*
X150563033Y-94518512D01*
X150486520Y-94542469D01*
X150425193Y-94575957D01*
X150378369Y-94611010D01*
X149001003Y-95988376D01*
X148986320Y-96004722D01*
X148986301Y-96004745D01*
X148969672Y-96025380D01*
X148932510Y-96096423D01*
X148932508Y-96096428D01*
X148912826Y-96163457D01*
X148912824Y-96163466D01*
X148904500Y-96221362D01*
X148904500Y-96643185D01*
X148885593Y-96701376D01*
X148836093Y-96737340D01*
X148786187Y-96740283D01*
X148759629Y-96735000D01*
X148485001Y-96735000D01*
X148485000Y-96735001D01*
X148485000Y-97884999D01*
X148485001Y-97885000D01*
X148759623Y-97885000D01*
X148759631Y-97884999D01*
X148786184Y-97879717D01*
X148846945Y-97886907D01*
X148891876Y-97928439D01*
X148904500Y-97976814D01*
X148904500Y-98258656D01*
X148905677Y-98280594D01*
X148905678Y-98280603D01*
X148908511Y-98306961D01*
X148908512Y-98306966D01*
X148932469Y-98383479D01*
X148947323Y-98410681D01*
X148965956Y-98444805D01*
X148982105Y-98466376D01*
X149001010Y-98491630D01*
X149248376Y-98738996D01*
X149264722Y-98753679D01*
X149264738Y-98753693D01*
X149285380Y-98770327D01*
X149356425Y-98807490D01*
X149356426Y-98807490D01*
X149356428Y-98807491D01*
X149423457Y-98827173D01*
X149423464Y-98827175D01*
X149481362Y-98835500D01*
X149481363Y-98835500D01*
X151428620Y-98835500D01*
X151428638Y-98835500D01*
X151450607Y-98834322D01*
X151476965Y-98831488D01*
X151553482Y-98807529D01*
X151614805Y-98774044D01*
X151661630Y-98738991D01*
X152096123Y-98304496D01*
X152150640Y-98276719D01*
X152166127Y-98275500D01*
X152466909Y-98275500D01*
X152525100Y-98294407D01*
X152561064Y-98343907D01*
X152561064Y-98405093D01*
X152536909Y-98444507D01*
X152533205Y-98448210D01*
X152480222Y-98519999D01*
X152480223Y-98520000D01*
X154179777Y-98520000D01*
X154187895Y-98503919D01*
X154185003Y-98495239D01*
X154203475Y-98436909D01*
X154252705Y-98400577D01*
X154284000Y-98395500D01*
X157188620Y-98395500D01*
X157188638Y-98395500D01*
X157210607Y-98394322D01*
X157236965Y-98391488D01*
X157313482Y-98367529D01*
X157374805Y-98334044D01*
X157421629Y-98298991D01*
X157457496Y-98263124D01*
X157512013Y-98235347D01*
X157572445Y-98244918D01*
X157615710Y-98288183D01*
X157626500Y-98333128D01*
X157626500Y-98396372D01*
X157607593Y-98454563D01*
X157597504Y-98466376D01*
X157013876Y-99050004D01*
X156959359Y-99077781D01*
X156943872Y-99079000D01*
X154835343Y-99079000D01*
X154813405Y-99080177D01*
X154813398Y-99080177D01*
X154813393Y-99080178D01*
X154804894Y-99081091D01*
X154787038Y-99083011D01*
X154787033Y-99083012D01*
X154710520Y-99106969D01*
X154649193Y-99140457D01*
X154602369Y-99175510D01*
X154286876Y-99491004D01*
X154232359Y-99518781D01*
X154216872Y-99520000D01*
X153830001Y-99520000D01*
X153830000Y-99520001D01*
X153830000Y-99719998D01*
X153830001Y-99719999D01*
X153859203Y-99719999D01*
X153889600Y-99717149D01*
X153889606Y-99717148D01*
X153945373Y-99697635D01*
X154006543Y-99696262D01*
X154056838Y-99731106D01*
X154077046Y-99788858D01*
X154076063Y-99805167D01*
X154070500Y-99843861D01*
X154070500Y-102027156D01*
X154071677Y-102049094D01*
X154071678Y-102049103D01*
X154074511Y-102075461D01*
X154074512Y-102075466D01*
X154098469Y-102151979D01*
X154131957Y-102213306D01*
X154167010Y-102260130D01*
X154460376Y-102553496D01*
X154476722Y-102568179D01*
X154476738Y-102568193D01*
X154497380Y-102584827D01*
X154568425Y-102621990D01*
X154568426Y-102621990D01*
X154568428Y-102621991D01*
X154568561Y-102622030D01*
X154635464Y-102641675D01*
X154693362Y-102650000D01*
X154693363Y-102650000D01*
X163510620Y-102650000D01*
X163510638Y-102650000D01*
X163532607Y-102648822D01*
X163558965Y-102645988D01*
X163635482Y-102622029D01*
X163696805Y-102588544D01*
X163743629Y-102553491D01*
X163782991Y-102514129D01*
X163797693Y-102497762D01*
X163814327Y-102477120D01*
X163851490Y-102406075D01*
X163871175Y-102339036D01*
X163879500Y-102281138D01*
X163879500Y-98827862D01*
X163878322Y-98805893D01*
X163875488Y-98779535D01*
X163851529Y-98703018D01*
X163818044Y-98641695D01*
X163782991Y-98594871D01*
X163601629Y-98413509D01*
X163601623Y-98413503D01*
X163585277Y-98398820D01*
X163585270Y-98398814D01*
X163585262Y-98398807D01*
X163570827Y-98387175D01*
X163564619Y-98382172D01*
X163493576Y-98345010D01*
X163493571Y-98345008D01*
X163426542Y-98325326D01*
X163426533Y-98325324D01*
X163380322Y-98318680D01*
X163368638Y-98317000D01*
X163368637Y-98317000D01*
X159482128Y-98317000D01*
X159423937Y-98298093D01*
X159412124Y-98288004D01*
X159003657Y-97879537D01*
X158975880Y-97825020D01*
X158985451Y-97764588D01*
X159028716Y-97721323D01*
X159051932Y-97713938D01*
X159051907Y-97713856D01*
X159059249Y-97711587D01*
X159164189Y-97660285D01*
X159170865Y-97655519D01*
X159171789Y-97656814D01*
X159217879Y-97633325D01*
X159273361Y-97640540D01*
X159338009Y-97669085D01*
X159363135Y-97672000D01*
X159652864Y-97671999D01*
X159677991Y-97669085D01*
X159780765Y-97623706D01*
X159860206Y-97544265D01*
X159905585Y-97441491D01*
X159908500Y-97416365D01*
X159908499Y-97011609D01*
X159927406Y-96953419D01*
X159937489Y-96941612D01*
X160201173Y-96677928D01*
X160255688Y-96650153D01*
X160258220Y-96649785D01*
X160345512Y-96638294D01*
X160491591Y-96577786D01*
X160617032Y-96481532D01*
X160713286Y-96356091D01*
X160773794Y-96210012D01*
X160785281Y-96122751D01*
X160811621Y-96067528D01*
X160813388Y-96065713D01*
X160954107Y-95924996D01*
X161008624Y-95897219D01*
X161024110Y-95896000D01*
X161379490Y-95896000D01*
X161400885Y-95892611D01*
X161479126Y-95880219D01*
X161599220Y-95819028D01*
X161694528Y-95723720D01*
X161755719Y-95603626D01*
X161771500Y-95503988D01*
X161771500Y-95395501D01*
X161971001Y-95395501D01*
X161971001Y-95515936D01*
X161977081Y-95572504D01*
X161977082Y-95572506D01*
X162024814Y-95700483D01*
X162106668Y-95809827D01*
X162106672Y-95809831D01*
X162216016Y-95891685D01*
X162343990Y-95939416D01*
X162343998Y-95939418D01*
X162400566Y-95945499D01*
X162496000Y-95945499D01*
X162496000Y-95395501D01*
X162846000Y-95395501D01*
X162846000Y-95945498D01*
X162846001Y-95945499D01*
X162941431Y-95945499D01*
X162941436Y-95945498D01*
X162998004Y-95939418D01*
X162998006Y-95939417D01*
X163125983Y-95891685D01*
X163235327Y-95809831D01*
X163235331Y-95809827D01*
X163317185Y-95700483D01*
X163364916Y-95572509D01*
X163364918Y-95572501D01*
X163371000Y-95515934D01*
X163371000Y-95395501D01*
X163370999Y-95395500D01*
X162846001Y-95395500D01*
X162846000Y-95395501D01*
X162496000Y-95395501D01*
X162495999Y-95395500D01*
X161971002Y-95395500D01*
X161971001Y-95395501D01*
X161771500Y-95395501D01*
X161771500Y-94937012D01*
X161769608Y-94925069D01*
X161763895Y-94888996D01*
X161755719Y-94837374D01*
X161755716Y-94837369D01*
X161755716Y-94837367D01*
X161694529Y-94717282D01*
X161694528Y-94717280D01*
X161599220Y-94621972D01*
X161599217Y-94621970D01*
X161575554Y-94609913D01*
X161532290Y-94566648D01*
X161521500Y-94521704D01*
X161521500Y-94328399D01*
X161540407Y-94270208D01*
X161550490Y-94258401D01*
X161599050Y-94209842D01*
X161656646Y-94096804D01*
X161671500Y-94003019D01*
X161671499Y-93389982D01*
X161656646Y-93296196D01*
X161599050Y-93183158D01*
X161509342Y-93093450D01*
X161396304Y-93035854D01*
X161396305Y-93035854D01*
X161302522Y-93021000D01*
X160839479Y-93021000D01*
X160839476Y-93021001D01*
X160745700Y-93035852D01*
X160745695Y-93035854D01*
X160632659Y-93093449D01*
X160542949Y-93183159D01*
X160485354Y-93296195D01*
X160470500Y-93389977D01*
X160470500Y-94003020D01*
X160470501Y-94003023D01*
X160485352Y-94096799D01*
X160485354Y-94096804D01*
X160542950Y-94209842D01*
X160591505Y-94258397D01*
X160619281Y-94312912D01*
X160620500Y-94328399D01*
X160620500Y-94603244D01*
X160601593Y-94661435D01*
X160591504Y-94673247D01*
X160547473Y-94717278D01*
X160547470Y-94717282D01*
X160486283Y-94837367D01*
X160486281Y-94837374D01*
X160470500Y-94937010D01*
X160470500Y-95093389D01*
X160451593Y-95151580D01*
X160441503Y-95163393D01*
X160176327Y-95428568D01*
X160121811Y-95456345D01*
X160119247Y-95456717D01*
X160031987Y-95468206D01*
X159885911Y-95528712D01*
X159885910Y-95528712D01*
X159760473Y-95624963D01*
X159760463Y-95624973D01*
X159660264Y-95755556D01*
X159658191Y-95753965D01*
X159620954Y-95787461D01*
X159580733Y-95796000D01*
X159363140Y-95796000D01*
X159363135Y-95796001D01*
X159338009Y-95798914D01*
X159338007Y-95798915D01*
X159273362Y-95827458D01*
X159212492Y-95833665D01*
X159171636Y-95811400D01*
X159170865Y-95812481D01*
X159164187Y-95807713D01*
X159059246Y-95756411D01*
X159033000Y-95752586D01*
X159033000Y-96810000D01*
X159014093Y-96868191D01*
X158964593Y-96904155D01*
X158934000Y-96909000D01*
X158782000Y-96909000D01*
X158723809Y-96890093D01*
X158687845Y-96840593D01*
X158683000Y-96810000D01*
X158683000Y-95752587D01*
X158682999Y-95752586D01*
X158656753Y-95756411D01*
X158551133Y-95808045D01*
X158490551Y-95816616D01*
X158463621Y-95807034D01*
X158463567Y-95807165D01*
X158461228Y-95806182D01*
X158459319Y-95805503D01*
X158458437Y-95805009D01*
X158391404Y-95785326D01*
X158391395Y-95785324D01*
X158345184Y-95778680D01*
X158333500Y-95777000D01*
X158082499Y-95777000D01*
X158058230Y-95779609D01*
X158038812Y-95781697D01*
X158038803Y-95781699D01*
X157987317Y-95792900D01*
X157987310Y-95792901D01*
X157987304Y-95792903D01*
X157985784Y-95793274D01*
X157977123Y-95795390D01*
X157923328Y-95824057D01*
X157863082Y-95834736D01*
X157828441Y-95823089D01*
X157755894Y-95782509D01*
X157688863Y-95762826D01*
X157688854Y-95762824D01*
X157642643Y-95756180D01*
X157630959Y-95754500D01*
X157361362Y-95754500D01*
X157361343Y-95754500D01*
X157339405Y-95755677D01*
X157339398Y-95755677D01*
X157339393Y-95755678D01*
X157332576Y-95756411D01*
X157313038Y-95758511D01*
X157313033Y-95758512D01*
X157236520Y-95782469D01*
X157175193Y-95815957D01*
X157128369Y-95851010D01*
X156673876Y-96305504D01*
X156619359Y-96333281D01*
X156603872Y-96334500D01*
X155366128Y-96334500D01*
X155307937Y-96315593D01*
X155296124Y-96305504D01*
X155004496Y-96013876D01*
X154976719Y-95959359D01*
X154975500Y-95943872D01*
X154975500Y-95041380D01*
X154975499Y-95041343D01*
X154975465Y-95040720D01*
X154974322Y-95019393D01*
X154971488Y-94993035D01*
X154953946Y-94937012D01*
X154947530Y-94916520D01*
X154947529Y-94916518D01*
X154914044Y-94855195D01*
X154878991Y-94808371D01*
X154681629Y-94611009D01*
X154681622Y-94611002D01*
X154664310Y-94595451D01*
X154633655Y-94542499D01*
X154639979Y-94481641D01*
X154660462Y-94451800D01*
X154696690Y-94415573D01*
X154807760Y-94262699D01*
X154893547Y-94094332D01*
X154951940Y-93914618D01*
X154956651Y-93884876D01*
X154981500Y-93727984D01*
X154981500Y-93539015D01*
X154951941Y-93352386D01*
X154950008Y-93346437D01*
X154893547Y-93172668D01*
X154807760Y-93004301D01*
X154696690Y-92851427D01*
X154563073Y-92717810D01*
X154410199Y-92606740D01*
X154410198Y-92606739D01*
X154410196Y-92606738D01*
X154241832Y-92520953D01*
X154062113Y-92462558D01*
X153875484Y-92433000D01*
X153875481Y-92433000D01*
X153596442Y-92433000D01*
X153538251Y-92414093D01*
X153508232Y-92378945D01*
X153459761Y-92283815D01*
X153459760Y-92283813D01*
X153348690Y-92130938D01*
X152524068Y-91306316D01*
X152172753Y-90955001D01*
X153725001Y-90955001D01*
X153725001Y-91075436D01*
X153731081Y-91132004D01*
X153731082Y-91132006D01*
X153778814Y-91259983D01*
X153860668Y-91369327D01*
X153860672Y-91369331D01*
X153970016Y-91451185D01*
X154097990Y-91498916D01*
X154097998Y-91498918D01*
X154154566Y-91504999D01*
X154250000Y-91504999D01*
X154250000Y-90955001D01*
X154600000Y-90955001D01*
X154600000Y-91504998D01*
X154600001Y-91504999D01*
X154695431Y-91504999D01*
X154695436Y-91504998D01*
X154752004Y-91498918D01*
X154752006Y-91498917D01*
X154879983Y-91451185D01*
X154989327Y-91369331D01*
X154989331Y-91369327D01*
X155071185Y-91259983D01*
X155118916Y-91132009D01*
X155118918Y-91132001D01*
X155125000Y-91075434D01*
X155125000Y-90955001D01*
X155124999Y-90955000D01*
X154600001Y-90955000D01*
X154600000Y-90955001D01*
X154250000Y-90955001D01*
X154249999Y-90955000D01*
X153725002Y-90955000D01*
X153725001Y-90955001D01*
X152172753Y-90955001D01*
X150622753Y-89405001D01*
X153705001Y-89405001D01*
X153705001Y-89559203D01*
X153707850Y-89589600D01*
X153707850Y-89589602D01*
X153752654Y-89717647D01*
X153833207Y-89826790D01*
X153833209Y-89826792D01*
X153942354Y-89907346D01*
X153976765Y-89919387D01*
X154025445Y-89956452D01*
X154043042Y-90015052D01*
X154022834Y-90072804D01*
X153978665Y-90105589D01*
X153970016Y-90108814D01*
X153860672Y-90190668D01*
X153860668Y-90190672D01*
X153778814Y-90300016D01*
X153731083Y-90427990D01*
X153731081Y-90427998D01*
X153725000Y-90484565D01*
X153725000Y-90604999D01*
X153725001Y-90605000D01*
X155124998Y-90605000D01*
X155124999Y-90604999D01*
X155124999Y-90496510D01*
X155324500Y-90496510D01*
X155324500Y-91063489D01*
X155340281Y-91163125D01*
X155340283Y-91163132D01*
X155401469Y-91283215D01*
X155401472Y-91283220D01*
X155496780Y-91378528D01*
X155496782Y-91378529D01*
X155616867Y-91439716D01*
X155616869Y-91439716D01*
X155616874Y-91439719D01*
X155689268Y-91451185D01*
X155716510Y-91455500D01*
X155716512Y-91455500D01*
X156233490Y-91455500D01*
X156254885Y-91452111D01*
X156333126Y-91439719D01*
X156453220Y-91378528D01*
X156548528Y-91283220D01*
X156548531Y-91283215D01*
X156553110Y-91276914D01*
X156554487Y-91277915D01*
X156591114Y-91241290D01*
X156636058Y-91230500D01*
X157058500Y-91230500D01*
X157116691Y-91249407D01*
X157152655Y-91298907D01*
X157157500Y-91329500D01*
X157157500Y-91691360D01*
X157157501Y-91691363D01*
X157160414Y-91716490D01*
X157185622Y-91773579D01*
X157205794Y-91819265D01*
X157285235Y-91898706D01*
X157388009Y-91944085D01*
X157413135Y-91947000D01*
X157702864Y-91946999D01*
X157727991Y-91944085D01*
X157830765Y-91898706D01*
X157830766Y-91898704D01*
X157839157Y-91895000D01*
X157840205Y-91897375D01*
X157885739Y-91883962D01*
X157925948Y-91897026D01*
X157926843Y-91895000D01*
X157935233Y-91898704D01*
X157935235Y-91898706D01*
X158038009Y-91944085D01*
X158063135Y-91947000D01*
X158352864Y-91946999D01*
X158377991Y-91944085D01*
X158480765Y-91898706D01*
X158480766Y-91898704D01*
X158489157Y-91895000D01*
X158490205Y-91897375D01*
X158535739Y-91883962D01*
X158575948Y-91897026D01*
X158576843Y-91895000D01*
X158585233Y-91898704D01*
X158585235Y-91898706D01*
X158688009Y-91944085D01*
X158713135Y-91947000D01*
X159002864Y-91946999D01*
X159027991Y-91944085D01*
X159130765Y-91898706D01*
X159130766Y-91898704D01*
X159139157Y-91895000D01*
X159140205Y-91897375D01*
X159185739Y-91883962D01*
X159225948Y-91897026D01*
X159226843Y-91895000D01*
X159235233Y-91898704D01*
X159235235Y-91898706D01*
X159338009Y-91944085D01*
X159363135Y-91947000D01*
X159652864Y-91946999D01*
X159677991Y-91944085D01*
X159780765Y-91898706D01*
X159860206Y-91819265D01*
X159905585Y-91716491D01*
X159908500Y-91691365D01*
X159908500Y-91504509D01*
X159927407Y-91446318D01*
X159976907Y-91410354D01*
X160038093Y-91410354D01*
X160067766Y-91425967D01*
X160069159Y-91427036D01*
X160215238Y-91487544D01*
X160301633Y-91498918D01*
X160371999Y-91508182D01*
X160372000Y-91508182D01*
X160372001Y-91508182D01*
X160403352Y-91504054D01*
X160528762Y-91487544D01*
X160674841Y-91427036D01*
X160800282Y-91330782D01*
X160896536Y-91205341D01*
X160957044Y-91059262D01*
X160977682Y-90902500D01*
X160977119Y-90898227D01*
X160957044Y-90745741D01*
X160957044Y-90745738D01*
X160896537Y-90599661D01*
X160896537Y-90599660D01*
X160800286Y-90474223D01*
X160800285Y-90474222D01*
X160800282Y-90474218D01*
X160800277Y-90474214D01*
X160800276Y-90474213D01*
X160693245Y-90392086D01*
X160674841Y-90377964D01*
X160674840Y-90377963D01*
X160674838Y-90377962D01*
X160528766Y-90317457D01*
X160528758Y-90317455D01*
X160372001Y-90296818D01*
X160371999Y-90296818D01*
X160215241Y-90317455D01*
X160215233Y-90317457D01*
X160069161Y-90377962D01*
X160069158Y-90377964D01*
X160065586Y-90380705D01*
X160007909Y-90401126D01*
X159949244Y-90383745D01*
X159912000Y-90335202D01*
X159906983Y-90313571D01*
X159905585Y-90301509D01*
X159860206Y-90198735D01*
X159780765Y-90119294D01*
X159677991Y-90073915D01*
X159677990Y-90073914D01*
X159677988Y-90073914D01*
X159652869Y-90071000D01*
X159382500Y-90071000D01*
X159324309Y-90052093D01*
X159288345Y-90002593D01*
X159283500Y-89972000D01*
X159283500Y-89645000D01*
X159302407Y-89586809D01*
X159351907Y-89550845D01*
X159382500Y-89546000D01*
X159627490Y-89546000D01*
X159648885Y-89542611D01*
X159727126Y-89530219D01*
X159847220Y-89469028D01*
X159942528Y-89373720D01*
X160003719Y-89253626D01*
X160019500Y-89153988D01*
X160019500Y-88587012D01*
X160018548Y-88581003D01*
X160013071Y-88546420D01*
X160003719Y-88487374D01*
X160003716Y-88487369D01*
X160003716Y-88487367D01*
X159942529Y-88367282D01*
X159942528Y-88367280D01*
X159847220Y-88271972D01*
X159847217Y-88271970D01*
X159841710Y-88266463D01*
X159842607Y-88265565D01*
X159811345Y-88222534D01*
X159806500Y-88191944D01*
X159806500Y-88030237D01*
X159825407Y-87972046D01*
X159860556Y-87942027D01*
X159869338Y-87937552D01*
X159869337Y-87937552D01*
X159869342Y-87937550D01*
X159959050Y-87847842D01*
X160016646Y-87734804D01*
X160031500Y-87641019D01*
X160031499Y-87177982D01*
X160016646Y-87084199D01*
X160016646Y-87084198D01*
X160016646Y-87084196D01*
X159959050Y-86971158D01*
X159869342Y-86881450D01*
X159756304Y-86823854D01*
X159756305Y-86823854D01*
X159662522Y-86809000D01*
X159049479Y-86809000D01*
X159049476Y-86809001D01*
X158955700Y-86823852D01*
X158955695Y-86823854D01*
X158842659Y-86881449D01*
X158752949Y-86971159D01*
X158695354Y-87084194D01*
X158691781Y-87106754D01*
X158664003Y-87161270D01*
X158609486Y-87189047D01*
X158549054Y-87179475D01*
X158505790Y-87136210D01*
X158496219Y-87106752D01*
X158492647Y-87084199D01*
X158492646Y-87084197D01*
X158492646Y-87084196D01*
X158435050Y-86971158D01*
X158345342Y-86881450D01*
X158232304Y-86823854D01*
X158232305Y-86823854D01*
X158138522Y-86809000D01*
X157525479Y-86809000D01*
X157525476Y-86809001D01*
X157431700Y-86823852D01*
X157431695Y-86823854D01*
X157318659Y-86881449D01*
X157228949Y-86971159D01*
X157171354Y-87084195D01*
X157156500Y-87177977D01*
X157156500Y-87641020D01*
X157156501Y-87641023D01*
X157171352Y-87734799D01*
X157171354Y-87734804D01*
X157228950Y-87847842D01*
X157318658Y-87937550D01*
X157318660Y-87937551D01*
X157318661Y-87937552D01*
X157327444Y-87942027D01*
X157370709Y-87985290D01*
X157381500Y-88030237D01*
X157381500Y-88191944D01*
X157362593Y-88250135D01*
X157346277Y-88266450D01*
X157346290Y-88266463D01*
X157340781Y-88271971D01*
X157340780Y-88271972D01*
X157294563Y-88318189D01*
X157245470Y-88367282D01*
X157184283Y-88487367D01*
X157184281Y-88487374D01*
X157168500Y-88587010D01*
X157168500Y-89153989D01*
X157184281Y-89253625D01*
X157184283Y-89253632D01*
X157245470Y-89373717D01*
X157245472Y-89373720D01*
X157340780Y-89469028D01*
X157340782Y-89469029D01*
X157460867Y-89530216D01*
X157460869Y-89530216D01*
X157460874Y-89530219D01*
X157536541Y-89542203D01*
X157560510Y-89546000D01*
X157560512Y-89546000D01*
X157683500Y-89546000D01*
X157741691Y-89564907D01*
X157777655Y-89614407D01*
X157782500Y-89645000D01*
X157782500Y-89972000D01*
X157763593Y-90030191D01*
X157714093Y-90066155D01*
X157683500Y-90071000D01*
X157413140Y-90071000D01*
X157413135Y-90071001D01*
X157388009Y-90073914D01*
X157285235Y-90119294D01*
X157205794Y-90198735D01*
X157174111Y-90270490D01*
X157133312Y-90316083D01*
X157083548Y-90329500D01*
X156636058Y-90329500D01*
X156577867Y-90310593D01*
X156553890Y-90282519D01*
X156553110Y-90283086D01*
X156548528Y-90276780D01*
X156504496Y-90232747D01*
X156476719Y-90178230D01*
X156475500Y-90162744D01*
X156475500Y-89841899D01*
X156494407Y-89783708D01*
X156504490Y-89771901D01*
X156533050Y-89743342D01*
X156590646Y-89630304D01*
X156605500Y-89536519D01*
X156605499Y-88923482D01*
X156594547Y-88854327D01*
X156590647Y-88829700D01*
X156590646Y-88829698D01*
X156590646Y-88829696D01*
X156533050Y-88716658D01*
X156504495Y-88688103D01*
X156476719Y-88633586D01*
X156475500Y-88618100D01*
X156475500Y-88311899D01*
X156494407Y-88253708D01*
X156504490Y-88241901D01*
X156553050Y-88193342D01*
X156610646Y-88080304D01*
X156625500Y-87986519D01*
X156625499Y-87373482D01*
X156610646Y-87279696D01*
X156553050Y-87166658D01*
X156463342Y-87076950D01*
X156350304Y-87019354D01*
X156350305Y-87019354D01*
X156256522Y-87004500D01*
X155793479Y-87004500D01*
X155793476Y-87004501D01*
X155699700Y-87019352D01*
X155699695Y-87019354D01*
X155586659Y-87076949D01*
X155496949Y-87166659D01*
X155439354Y-87279695D01*
X155424500Y-87373477D01*
X155424500Y-87986520D01*
X155424501Y-87986523D01*
X155439352Y-88080299D01*
X155439354Y-88080304D01*
X155496950Y-88193342D01*
X155545505Y-88241897D01*
X155573281Y-88296412D01*
X155574500Y-88311899D01*
X155574500Y-88578101D01*
X155555593Y-88636292D01*
X155545509Y-88648098D01*
X155505505Y-88688103D01*
X155476949Y-88716659D01*
X155419354Y-88829695D01*
X155404500Y-88923477D01*
X155404500Y-89536520D01*
X155404501Y-89536523D01*
X155419352Y-89630299D01*
X155419354Y-89630304D01*
X155476950Y-89743342D01*
X155545505Y-89811897D01*
X155573281Y-89866412D01*
X155574500Y-89881899D01*
X155574500Y-90081204D01*
X155555593Y-90139395D01*
X155520446Y-90169413D01*
X155496782Y-90181470D01*
X155401470Y-90276782D01*
X155340283Y-90396867D01*
X155340281Y-90396874D01*
X155324500Y-90496510D01*
X155124999Y-90496510D01*
X155124999Y-90484569D01*
X155124998Y-90484563D01*
X155118918Y-90427995D01*
X155118917Y-90427993D01*
X155071185Y-90300016D01*
X154989331Y-90190672D01*
X154989327Y-90190668D01*
X154879983Y-90108814D01*
X154795276Y-90077220D01*
X154747362Y-90039169D01*
X154730964Y-89980222D01*
X154752346Y-89922894D01*
X154771085Y-89904807D01*
X154876788Y-89826794D01*
X154876792Y-89826790D01*
X154957345Y-89717647D01*
X155002149Y-89589601D01*
X155004999Y-89559211D01*
X155005000Y-89559210D01*
X155005000Y-89405001D01*
X155004999Y-89405000D01*
X153705002Y-89405000D01*
X153705001Y-89405001D01*
X150622753Y-89405001D01*
X150359496Y-89141744D01*
X150331719Y-89087227D01*
X150330500Y-89071740D01*
X150330500Y-88229500D01*
X150349407Y-88171309D01*
X150398907Y-88135345D01*
X150429500Y-88130500D01*
X153754263Y-88130500D01*
X153812454Y-88149407D01*
X153842472Y-88184554D01*
X153846237Y-88191944D01*
X153846950Y-88193342D01*
X153936658Y-88283050D01*
X153993277Y-88311899D01*
X154046298Y-88338915D01*
X154089562Y-88382180D01*
X154099133Y-88442612D01*
X154071355Y-88497128D01*
X154034050Y-88520568D01*
X153942354Y-88552653D01*
X153833209Y-88633207D01*
X153833207Y-88633209D01*
X153752654Y-88742352D01*
X153707850Y-88870398D01*
X153705000Y-88900788D01*
X153705000Y-89054999D01*
X153705001Y-89055000D01*
X155004998Y-89055000D01*
X155004999Y-89054999D01*
X155004999Y-88900796D01*
X155002149Y-88870399D01*
X155002149Y-88870397D01*
X154957345Y-88742352D01*
X154876792Y-88633209D01*
X154876790Y-88633207D01*
X154767647Y-88552654D01*
X154698038Y-88528298D01*
X154649357Y-88491232D01*
X154631760Y-88432632D01*
X154651968Y-88374880D01*
X154693857Y-88345158D01*
X154693361Y-88344184D01*
X154699996Y-88340802D01*
X154700146Y-88340697D01*
X154700298Y-88340646D01*
X154700304Y-88340646D01*
X154813342Y-88283050D01*
X154903050Y-88193342D01*
X154960646Y-88080304D01*
X154975500Y-87986519D01*
X154975499Y-87373482D01*
X154960646Y-87279696D01*
X154903050Y-87166658D01*
X154813342Y-87076950D01*
X154700304Y-87019354D01*
X154700305Y-87019354D01*
X154606522Y-87004500D01*
X154143479Y-87004500D01*
X154143476Y-87004501D01*
X154049700Y-87019352D01*
X154049695Y-87019354D01*
X153936659Y-87076949D01*
X153846948Y-87166660D01*
X153842472Y-87175446D01*
X153799207Y-87218710D01*
X153754263Y-87229500D01*
X150429500Y-87229500D01*
X150371309Y-87210593D01*
X150335345Y-87161093D01*
X150330500Y-87130500D01*
X150330500Y-85527977D01*
X157156500Y-85527977D01*
X157156500Y-85991020D01*
X157156501Y-85991023D01*
X157171352Y-86084799D01*
X157171354Y-86084804D01*
X157228950Y-86197842D01*
X157318658Y-86287550D01*
X157431696Y-86345146D01*
X157525481Y-86360000D01*
X158138518Y-86359999D01*
X158138520Y-86359999D01*
X158138521Y-86359998D01*
X158185411Y-86352572D01*
X158232299Y-86345147D01*
X158232299Y-86345146D01*
X158232304Y-86345146D01*
X158345342Y-86287550D01*
X158435050Y-86197842D01*
X158492646Y-86084804D01*
X158496219Y-86062243D01*
X158523994Y-86007731D01*
X158578510Y-85979952D01*
X158638942Y-85989522D01*
X158682208Y-86032786D01*
X158691780Y-86062245D01*
X158695352Y-86084800D01*
X158695354Y-86084804D01*
X158752950Y-86197842D01*
X158842658Y-86287550D01*
X158955696Y-86345146D01*
X159049481Y-86360000D01*
X159662518Y-86359999D01*
X159662520Y-86359999D01*
X159662521Y-86359998D01*
X159709411Y-86352572D01*
X159756299Y-86345147D01*
X159756299Y-86345146D01*
X159756304Y-86345146D01*
X159869342Y-86287550D01*
X159959050Y-86197842D01*
X160016646Y-86084804D01*
X160031500Y-85991019D01*
X160031499Y-85527982D01*
X160028852Y-85511270D01*
X160016647Y-85434200D01*
X160016646Y-85434198D01*
X160016646Y-85434196D01*
X159959050Y-85321158D01*
X159869342Y-85231450D01*
X159869339Y-85231448D01*
X159869340Y-85231448D01*
X159860554Y-85226972D01*
X159817290Y-85183707D01*
X159806500Y-85138763D01*
X159806500Y-84223432D01*
X159825407Y-84165241D01*
X159826936Y-84163193D01*
X159880536Y-84093341D01*
X159941044Y-83947262D01*
X159961682Y-83790500D01*
X159941044Y-83633738D01*
X159934601Y-83618183D01*
X159880537Y-83487661D01*
X159880537Y-83487660D01*
X159784286Y-83362223D01*
X159784285Y-83362222D01*
X159784282Y-83362218D01*
X159784277Y-83362214D01*
X159784276Y-83362213D01*
X159669065Y-83273809D01*
X159658841Y-83265964D01*
X159658840Y-83265963D01*
X159658838Y-83265962D01*
X159512766Y-83205457D01*
X159512758Y-83205455D01*
X159356001Y-83184818D01*
X159355999Y-83184818D01*
X159199241Y-83205455D01*
X159199233Y-83205457D01*
X159053161Y-83265962D01*
X159053160Y-83265962D01*
X158927723Y-83362213D01*
X158927713Y-83362223D01*
X158831462Y-83487660D01*
X158831462Y-83487661D01*
X158770957Y-83633733D01*
X158770955Y-83633741D01*
X158750318Y-83790499D01*
X158750318Y-83790500D01*
X158770955Y-83947258D01*
X158770957Y-83947266D01*
X158831462Y-84093338D01*
X158831463Y-84093340D01*
X158831464Y-84093341D01*
X158885042Y-84163165D01*
X158905466Y-84220840D01*
X158905500Y-84223432D01*
X158905500Y-85138763D01*
X158886593Y-85196954D01*
X158851446Y-85226972D01*
X158842660Y-85231448D01*
X158752949Y-85321159D01*
X158695354Y-85434194D01*
X158691781Y-85456754D01*
X158664003Y-85511270D01*
X158609486Y-85539047D01*
X158549054Y-85529475D01*
X158505790Y-85486210D01*
X158496219Y-85456752D01*
X158492647Y-85434199D01*
X158492646Y-85434197D01*
X158492646Y-85434196D01*
X158435050Y-85321158D01*
X158345342Y-85231450D01*
X158345339Y-85231448D01*
X158345340Y-85231448D01*
X158336554Y-85226972D01*
X158293290Y-85183707D01*
X158282500Y-85138763D01*
X158282500Y-84305453D01*
X158301407Y-84247262D01*
X158315845Y-84231356D01*
X158340483Y-84209530D01*
X158430220Y-84079523D01*
X158486237Y-83931818D01*
X158502445Y-83798332D01*
X158505278Y-83775001D01*
X158505278Y-83774998D01*
X158486237Y-83618183D01*
X158486237Y-83618182D01*
X158430220Y-83470477D01*
X158340483Y-83340470D01*
X158222240Y-83235717D01*
X158152302Y-83199010D01*
X158082364Y-83162303D01*
X157928987Y-83124500D01*
X157928985Y-83124500D01*
X157771015Y-83124500D01*
X157771012Y-83124500D01*
X157617635Y-83162303D01*
X157477758Y-83235718D01*
X157359515Y-83340471D01*
X157269780Y-83470476D01*
X157213763Y-83618182D01*
X157213762Y-83618183D01*
X157194722Y-83774998D01*
X157194722Y-83775001D01*
X157213762Y-83931816D01*
X157213763Y-83931818D01*
X157253524Y-84036659D01*
X157269780Y-84079523D01*
X157362919Y-84214459D01*
X157360814Y-84215911D01*
X157381037Y-84262331D01*
X157381500Y-84271890D01*
X157381500Y-85138763D01*
X157362593Y-85196954D01*
X157327446Y-85226972D01*
X157318660Y-85231448D01*
X157228949Y-85321159D01*
X157171354Y-85434195D01*
X157156500Y-85527977D01*
X150330500Y-85527977D01*
X150330500Y-80007515D01*
X150300941Y-79820886D01*
X150294231Y-79800235D01*
X150242547Y-79641168D01*
X150156760Y-79472801D01*
X150045690Y-79319927D01*
X149912073Y-79186310D01*
X149759199Y-79075240D01*
X149759198Y-79075239D01*
X149759196Y-79075238D01*
X149590832Y-78989453D01*
X149411113Y-78931058D01*
X149224484Y-78901500D01*
X149224481Y-78901500D01*
X136286309Y-78901500D01*
X136228118Y-78882593D01*
X136192154Y-78833093D01*
X136192154Y-78771907D01*
X136228118Y-78722407D01*
X136232762Y-78719231D01*
X136253128Y-78706143D01*
X136347377Y-78597373D01*
X136407165Y-78466457D01*
X136427647Y-78324000D01*
X136407165Y-78181543D01*
X136347377Y-78050627D01*
X136253128Y-77941857D01*
X136253127Y-77941856D01*
X136253126Y-77941855D01*
X136132057Y-77864049D01*
X136132054Y-77864047D01*
X136132053Y-77864047D01*
X136129642Y-77863339D01*
X135993964Y-77823500D01*
X135993961Y-77823500D01*
X135850039Y-77823500D01*
X135850035Y-77823500D01*
X135711949Y-77864046D01*
X135711942Y-77864049D01*
X135590871Y-77941856D01*
X135585520Y-77946494D01*
X135584031Y-77944776D01*
X135540659Y-77970928D01*
X135518241Y-77973500D01*
X134298570Y-77973500D01*
X134240379Y-77954593D01*
X134204415Y-77905093D01*
X134201473Y-77855185D01*
X134212498Y-77799758D01*
X134212500Y-77799746D01*
X134212500Y-76849951D01*
X134231407Y-76791760D01*
X134280907Y-76755796D01*
X134330813Y-76752854D01*
X134361746Y-76759007D01*
X134369246Y-76760499D01*
X134369249Y-76760499D01*
X134369252Y-76760500D01*
X134369253Y-76760500D01*
X136648747Y-76760500D01*
X136648748Y-76760500D01*
X136707231Y-76748867D01*
X136773552Y-76704552D01*
X136817867Y-76638231D01*
X136829500Y-76579748D01*
X136829500Y-73420252D01*
X136817867Y-73361769D01*
X136773552Y-73295448D01*
X136747009Y-73277712D01*
X136707233Y-73251134D01*
X136707231Y-73251133D01*
X136707228Y-73251132D01*
X136707227Y-73251132D01*
X136648758Y-73239501D01*
X136648748Y-73239500D01*
X134369252Y-73239500D01*
X134369251Y-73239500D01*
X134369241Y-73239501D01*
X134310772Y-73251132D01*
X134310766Y-73251134D01*
X134244451Y-73295445D01*
X134244445Y-73295451D01*
X134200134Y-73361766D01*
X134200132Y-73361772D01*
X134188501Y-73420241D01*
X134188500Y-73420253D01*
X134188500Y-74375904D01*
X134169593Y-74434095D01*
X134120093Y-74470059D01*
X134058907Y-74470059D01*
X134014681Y-74440735D01*
X133967129Y-74385858D01*
X133967127Y-74385856D01*
X133846057Y-74308049D01*
X133846054Y-74308047D01*
X133846053Y-74308047D01*
X133846050Y-74308046D01*
X133707964Y-74267500D01*
X133707961Y-74267500D01*
X133564039Y-74267500D01*
X133564035Y-74267500D01*
X133425949Y-74308046D01*
X133425942Y-74308049D01*
X133304873Y-74385855D01*
X133210622Y-74494628D01*
X133150834Y-74625543D01*
X133130353Y-74767997D01*
X133130353Y-74768002D01*
X133150834Y-74910456D01*
X133172488Y-74957870D01*
X133210623Y-75041373D01*
X133283086Y-75125000D01*
X133304873Y-75150144D01*
X133392794Y-75206647D01*
X133425947Y-75227953D01*
X133440389Y-75232193D01*
X133490896Y-75266725D01*
X133511459Y-75324351D01*
X133511500Y-75327183D01*
X133511500Y-75880500D01*
X133492593Y-75938691D01*
X133443093Y-75974655D01*
X133412500Y-75979500D01*
X133192248Y-75979500D01*
X133131314Y-75991621D01*
X133092686Y-75991621D01*
X133031751Y-75979500D01*
X133031748Y-75979500D01*
X132963742Y-75979500D01*
X132948958Y-75977910D01*
X132948899Y-75978328D01*
X132903748Y-75971836D01*
X132887500Y-75969500D01*
X132836500Y-75969500D01*
X132836497Y-75969500D01*
X132822080Y-75971050D01*
X132762202Y-75958470D01*
X132721154Y-75913097D01*
X132712500Y-75872617D01*
X132712500Y-73599190D01*
X132731407Y-73540999D01*
X132741496Y-73529186D01*
X133516186Y-72754496D01*
X133570703Y-72726719D01*
X133586190Y-72725500D01*
X147638810Y-72725500D01*
X147697001Y-72744407D01*
X147708814Y-72754496D01*
X149045504Y-74091186D01*
X149073281Y-74145703D01*
X149074500Y-74161190D01*
X149074500Y-75104307D01*
X149055593Y-75162498D01*
X149006093Y-75198462D01*
X148996069Y-75200542D01*
X148996185Y-75201069D01*
X148990296Y-75202355D01*
X148862116Y-75247207D01*
X148752855Y-75327845D01*
X148752845Y-75327855D01*
X148672207Y-75437116D01*
X148627355Y-75565296D01*
X148627353Y-75565305D01*
X148624500Y-75595725D01*
X148624500Y-76604274D01*
X148627353Y-76634694D01*
X148627355Y-76634703D01*
X148672207Y-76762883D01*
X148752845Y-76872144D01*
X148752847Y-76872146D01*
X148752850Y-76872150D01*
X148752853Y-76872152D01*
X148752855Y-76872154D01*
X148862116Y-76952792D01*
X148862117Y-76952792D01*
X148862118Y-76952793D01*
X148990301Y-76997646D01*
X149020725Y-77000499D01*
X149020727Y-77000500D01*
X149020734Y-77000500D01*
X149829273Y-77000500D01*
X149829273Y-77000499D01*
X149859699Y-76997646D01*
X149987882Y-76952793D01*
X150097150Y-76872150D01*
X150177793Y-76762882D01*
X150222646Y-76634699D01*
X150225499Y-76604273D01*
X150225500Y-76604273D01*
X150225500Y-76597824D01*
X150574999Y-76597824D01*
X150581401Y-76657370D01*
X150581403Y-76657381D01*
X150631646Y-76792088D01*
X150631647Y-76792090D01*
X150717807Y-76907184D01*
X150717815Y-76907192D01*
X150832909Y-76993352D01*
X150832911Y-76993353D01*
X150967618Y-77043596D01*
X150967629Y-77043598D01*
X151027176Y-77050000D01*
X151249999Y-77050000D01*
X151250000Y-77049999D01*
X151250000Y-76275001D01*
X151600000Y-76275001D01*
X151600000Y-77049999D01*
X151600001Y-77050000D01*
X151822824Y-77050000D01*
X151882370Y-77043598D01*
X151882381Y-77043596D01*
X152017088Y-76993353D01*
X152017090Y-76993352D01*
X152132184Y-76907192D01*
X152132192Y-76907184D01*
X152218352Y-76792090D01*
X152218353Y-76792088D01*
X152268596Y-76657381D01*
X152268598Y-76657370D01*
X152275000Y-76597824D01*
X152275000Y-76275001D01*
X152274999Y-76275000D01*
X151600001Y-76275000D01*
X151600000Y-76275001D01*
X151250000Y-76275001D01*
X151249999Y-76275000D01*
X150575001Y-76275000D01*
X150575000Y-76275001D01*
X150575000Y-76597824D01*
X150574999Y-76597824D01*
X150225500Y-76597824D01*
X150225500Y-75602175D01*
X150575000Y-75602175D01*
X150575000Y-75924999D01*
X150575001Y-75925000D01*
X151249999Y-75925000D01*
X151250000Y-75924999D01*
X151250000Y-75150001D01*
X151600000Y-75150001D01*
X151600000Y-75924999D01*
X151600001Y-75925000D01*
X152274999Y-75925000D01*
X152275000Y-75924999D01*
X152275000Y-75602175D01*
X152268598Y-75542629D01*
X152268596Y-75542618D01*
X152218353Y-75407911D01*
X152218352Y-75407909D01*
X152132192Y-75292815D01*
X152132184Y-75292807D01*
X152017090Y-75206647D01*
X152017088Y-75206646D01*
X151882381Y-75156403D01*
X151882370Y-75156401D01*
X151822824Y-75150000D01*
X151600001Y-75150000D01*
X151600000Y-75150001D01*
X151250000Y-75150001D01*
X151249999Y-75150000D01*
X151027176Y-75150000D01*
X150967629Y-75156401D01*
X150967618Y-75156403D01*
X150832911Y-75206646D01*
X150832909Y-75206647D01*
X150717815Y-75292807D01*
X150717807Y-75292815D01*
X150631647Y-75407909D01*
X150631646Y-75407911D01*
X150581403Y-75542618D01*
X150581401Y-75542629D01*
X150575000Y-75602175D01*
X150225500Y-75602175D01*
X150225500Y-75595727D01*
X150225499Y-75595725D01*
X150222646Y-75565305D01*
X150222646Y-75565301D01*
X150177793Y-75437118D01*
X150177425Y-75436620D01*
X150097154Y-75327855D01*
X150097152Y-75327853D01*
X150097150Y-75327850D01*
X150097146Y-75327847D01*
X150097144Y-75327845D01*
X149987883Y-75247207D01*
X149859703Y-75202355D01*
X149859699Y-75202354D01*
X149859697Y-75202353D01*
X149853815Y-75201069D01*
X149854434Y-75198234D01*
X149808962Y-75178508D01*
X149777864Y-75125814D01*
X149775500Y-75104307D01*
X149775500Y-73928857D01*
X149763368Y-73883580D01*
X149751614Y-73839712D01*
X149705470Y-73759788D01*
X148040212Y-72094530D01*
X147960288Y-72048386D01*
X147871144Y-72024500D01*
X133353856Y-72024500D01*
X133264712Y-72048386D01*
X133184788Y-72094530D01*
X132081529Y-73197789D01*
X132047905Y-73256028D01*
X132047904Y-73256027D01*
X132035387Y-73277707D01*
X132022032Y-73327548D01*
X132017151Y-73345768D01*
X132011500Y-73366857D01*
X130024879Y-73366857D01*
X130023867Y-73361769D01*
X129979552Y-73295448D01*
X129953009Y-73277712D01*
X129913233Y-73251134D01*
X129913231Y-73251133D01*
X129913228Y-73251132D01*
X129913227Y-73251132D01*
X129854758Y-73239501D01*
X129854748Y-73239500D01*
X127575252Y-73239500D01*
X127575251Y-73239500D01*
X127575241Y-73239501D01*
X127516772Y-73251132D01*
X127516766Y-73251134D01*
X127450451Y-73295445D01*
X127450445Y-73295451D01*
X127406134Y-73361766D01*
X127406132Y-73361772D01*
X127394501Y-73420241D01*
X127394500Y-73420253D01*
X127394500Y-76550500D01*
X127375593Y-76608691D01*
X127326093Y-76644655D01*
X127295500Y-76649500D01*
X126442732Y-76649500D01*
X126389209Y-76633784D01*
X126360057Y-76615049D01*
X126360054Y-76615047D01*
X126360053Y-76615047D01*
X126360050Y-76615046D01*
X126221964Y-76574500D01*
X126221961Y-76574500D01*
X126078039Y-76574500D01*
X126078035Y-76574500D01*
X125939949Y-76615046D01*
X125939942Y-76615049D01*
X125818873Y-76692855D01*
X125724622Y-76801628D01*
X125664834Y-76932543D01*
X125644353Y-77074997D01*
X125644353Y-77075002D01*
X125664834Y-77217456D01*
X125710964Y-77318464D01*
X125724623Y-77348373D01*
X125818872Y-77457143D01*
X125818873Y-77457144D01*
X125915757Y-77519407D01*
X125939947Y-77534953D01*
X126046403Y-77566211D01*
X126078035Y-77575499D01*
X126078036Y-77575499D01*
X126078039Y-77575500D01*
X126078041Y-77575500D01*
X126221959Y-77575500D01*
X126221961Y-77575500D01*
X126360053Y-77534953D01*
X126384243Y-77519407D01*
X126389209Y-77516216D01*
X126442732Y-77500500D01*
X129912500Y-77500500D01*
X129970691Y-77519407D01*
X130006655Y-77568907D01*
X130011500Y-77599500D01*
X130011500Y-77799746D01*
X130011501Y-77799758D01*
X130023132Y-77858227D01*
X130023134Y-77858233D01*
X130067445Y-77924548D01*
X130067448Y-77924552D01*
X130133769Y-77968867D01*
X130178231Y-77977711D01*
X130192241Y-77980498D01*
X130192246Y-77980498D01*
X130192252Y-77980500D01*
X130192253Y-77980500D01*
X130464871Y-77980500D01*
X130523062Y-77999407D01*
X130559026Y-78048907D01*
X130559026Y-78110093D01*
X130534875Y-78149503D01*
X130243876Y-78440503D01*
X130189359Y-78468281D01*
X130173872Y-78469500D01*
X130024000Y-78469500D01*
X129992797Y-78472855D01*
X129980314Y-78474197D01*
X129928800Y-78485404D01*
X129918627Y-78487890D01*
X129912841Y-78490099D01*
X129912571Y-78489391D01*
X129872109Y-78499500D01*
X121217485Y-78499500D01*
X121159294Y-78480593D01*
X121147481Y-78470504D01*
X115848678Y-73171701D01*
X115848675Y-73171698D01*
X115693003Y-73067681D01*
X115692996Y-73067676D01*
X115591668Y-73025705D01*
X115591668Y-73025704D01*
X115520018Y-72996027D01*
X115428200Y-72977763D01*
X115336386Y-72959500D01*
X115336384Y-72959500D01*
X115336383Y-72959500D01*
X112983616Y-72959500D01*
X110993616Y-72959500D01*
X106376384Y-72959500D01*
X106376381Y-72959500D01*
X106192750Y-72996026D01*
X106019770Y-73067677D01*
X106019761Y-73067681D01*
X105864092Y-73171698D01*
X105864088Y-73171701D01*
X105731697Y-73304092D01*
X105691526Y-73364213D01*
X105664213Y-73391526D01*
X105609502Y-73428083D01*
X105550614Y-73444692D01*
X105493210Y-73423515D01*
X105459217Y-73372641D01*
X105455500Y-73345768D01*
X105455500Y-72026380D01*
X105455499Y-72026343D01*
X105455400Y-72024500D01*
X105454322Y-72004393D01*
X105451488Y-71978035D01*
X105427529Y-71901518D01*
X105394044Y-71840195D01*
X105358991Y-71793371D01*
X105281629Y-71716009D01*
X105281623Y-71716003D01*
X105265277Y-71701320D01*
X105265270Y-71701314D01*
X105265262Y-71701307D01*
X105244620Y-71684673D01*
X105244619Y-71684672D01*
X105173576Y-71647510D01*
X105173571Y-71647508D01*
X105106542Y-71627826D01*
X105106533Y-71627824D01*
X105060322Y-71621180D01*
X105048638Y-71619500D01*
X102276362Y-71619500D01*
X102276343Y-71619500D01*
X102254405Y-71620677D01*
X102254398Y-71620677D01*
X102254393Y-71620678D01*
X102245894Y-71621591D01*
X102228038Y-71623511D01*
X102228033Y-71623512D01*
X102151520Y-71647469D01*
X102090193Y-71680957D01*
X102043369Y-71716010D01*
X101941003Y-71818376D01*
X101926320Y-71834722D01*
X101926301Y-71834745D01*
X101909672Y-71855380D01*
X101872510Y-71926423D01*
X101872508Y-71926428D01*
X101852826Y-71993457D01*
X101852824Y-71993466D01*
X101844500Y-72051362D01*
X101844500Y-72314137D01*
X101825593Y-72372328D01*
X101776093Y-72408292D01*
X101726188Y-72411235D01*
X101669705Y-72400000D01*
X101550001Y-72400000D01*
X101550000Y-72400001D01*
X101550000Y-73449999D01*
X101550001Y-73450000D01*
X101669697Y-73450000D01*
X101669700Y-73449999D01*
X101726186Y-73438764D01*
X101786947Y-73445956D01*
X101831877Y-73487488D01*
X101844500Y-73535862D01*
X101844500Y-73788221D01*
X101825593Y-73846412D01*
X101777241Y-73881995D01*
X101772555Y-73883580D01*
X101690048Y-73923017D01*
X101690044Y-73923019D01*
X101690044Y-73923020D01*
X101635290Y-73966423D01*
X101635288Y-73966424D01*
X101635283Y-73966429D01*
X101635282Y-73966430D01*
X101595095Y-74008905D01*
X101595090Y-74008911D01*
X101254953Y-74490499D01*
X101254951Y-74490502D01*
X101252229Y-74494452D01*
X101249033Y-74499209D01*
X101228186Y-74543811D01*
X101222278Y-74556451D01*
X101202776Y-74623538D01*
X101194608Y-74681457D01*
X101198990Y-76294093D01*
X101180240Y-76352335D01*
X101130838Y-76388433D01*
X101069653Y-76388599D01*
X101029986Y-76364366D01*
X100981623Y-76316003D01*
X100965277Y-76301320D01*
X100965270Y-76301314D01*
X100965262Y-76301307D01*
X100944620Y-76284673D01*
X100944619Y-76284672D01*
X100873576Y-76247510D01*
X100873571Y-76247508D01*
X100806542Y-76227826D01*
X100806534Y-76227824D01*
X100746617Y-76219209D01*
X100691709Y-76192212D01*
X100663157Y-76138098D01*
X100671865Y-76077535D01*
X100714508Y-76033658D01*
X100717227Y-76032276D01*
X100806187Y-75988786D01*
X100888786Y-75906187D01*
X100940087Y-75801248D01*
X100950000Y-75733215D01*
X100950000Y-75725001D01*
X100949999Y-75725000D01*
X99750002Y-75725000D01*
X99750001Y-75725001D01*
X99750001Y-75733216D01*
X99759912Y-75801250D01*
X99811214Y-75906188D01*
X99893812Y-75988786D01*
X99981306Y-76031559D01*
X100025280Y-76074102D01*
X100035850Y-76134368D01*
X100008978Y-76189336D01*
X99954928Y-76218012D01*
X99937826Y-76219500D01*
X99151343Y-76219500D01*
X99129405Y-76220677D01*
X99129398Y-76220677D01*
X99129393Y-76220678D01*
X99120894Y-76221591D01*
X99103038Y-76223511D01*
X99103033Y-76223512D01*
X99026520Y-76247469D01*
X98965193Y-76280957D01*
X98918369Y-76316010D01*
X98091003Y-77143376D01*
X98076320Y-77159722D01*
X98076301Y-77159745D01*
X98059672Y-77180380D01*
X98022510Y-77251423D01*
X98022508Y-77251428D01*
X98002826Y-77318457D01*
X98002824Y-77318466D01*
X97994500Y-77376362D01*
X90480500Y-77376362D01*
X90480500Y-75401125D01*
X90499407Y-75342934D01*
X90509490Y-75331127D01*
X91123833Y-74716784D01*
X99750000Y-74716784D01*
X99750000Y-74724999D01*
X99750001Y-74725000D01*
X99849999Y-74725000D01*
X99850000Y-74724999D01*
X100850000Y-74724999D01*
X100850001Y-74725000D01*
X100949998Y-74725000D01*
X100949999Y-74724999D01*
X100949999Y-74716786D01*
X100949998Y-74716783D01*
X100940087Y-74648749D01*
X100888785Y-74543811D01*
X100850000Y-74505026D01*
X100850000Y-74724999D01*
X99850000Y-74724999D01*
X99850000Y-74505026D01*
X99811213Y-74543812D01*
X99759912Y-74648751D01*
X99750000Y-74716784D01*
X91123833Y-74716784D01*
X92590617Y-73250001D01*
X100600000Y-73250001D01*
X100600000Y-73269700D01*
X100611603Y-73328036D01*
X100655806Y-73394189D01*
X100655810Y-73394193D01*
X100721963Y-73438396D01*
X100780299Y-73449999D01*
X100780303Y-73450000D01*
X100899999Y-73450000D01*
X100900000Y-73449999D01*
X100900000Y-73250001D01*
X100899999Y-73250000D01*
X100600001Y-73250000D01*
X100600000Y-73250001D01*
X92590617Y-73250001D01*
X93260319Y-72580299D01*
X100600000Y-72580299D01*
X100600000Y-72599999D01*
X100600001Y-72600000D01*
X100899999Y-72600000D01*
X100900000Y-72599999D01*
X100900000Y-72400001D01*
X100899999Y-72400000D01*
X100780299Y-72400000D01*
X100721963Y-72411603D01*
X100655810Y-72455806D01*
X100655806Y-72455810D01*
X100611603Y-72521963D01*
X100600000Y-72580299D01*
X93260319Y-72580299D01*
X94342122Y-71498496D01*
X94365613Y-71470389D01*
X94390726Y-71434220D01*
X94408854Y-71402386D01*
X94443367Y-71326810D01*
X94458592Y-71303119D01*
X94495512Y-71260511D01*
X94516799Y-71242067D01*
X94566070Y-71210403D01*
X94580080Y-71202914D01*
X94581189Y-71202431D01*
X94581193Y-71202430D01*
X94628157Y-71181987D01*
X94680900Y-71150693D01*
X94721349Y-71119271D01*
X94870830Y-70969791D01*
X94870830Y-70969790D01*
X94931124Y-70909496D01*
X94985641Y-70881719D01*
X95001128Y-70880500D01*
X120548872Y-70880500D01*
X120607063Y-70899407D01*
X120618876Y-70909496D01*
X120718376Y-71008996D01*
X120734722Y-71023679D01*
X120734738Y-71023693D01*
X120755380Y-71040327D01*
X120826425Y-71077490D01*
X120826426Y-71077490D01*
X120826428Y-71077491D01*
X120826561Y-71077530D01*
X120893464Y-71097175D01*
X120951362Y-71105500D01*
X120951363Y-71105500D01*
X155973620Y-71105500D01*
X155973638Y-71105500D01*
X155995607Y-71104322D01*
X156021965Y-71101488D01*
X156098482Y-71077529D01*
X156159805Y-71044044D01*
X156206629Y-71008991D01*
X157558991Y-69656629D01*
X157573693Y-69640262D01*
X157590327Y-69619620D01*
X157627490Y-69548575D01*
X157647175Y-69481536D01*
X157655500Y-69423638D01*
X157655500Y-66101362D01*
X157654322Y-66079393D01*
X157651488Y-66053035D01*
X157627529Y-65976518D01*
X157594044Y-65915195D01*
X157558991Y-65868371D01*
X150231629Y-58541009D01*
X150231623Y-58541003D01*
X150215277Y-58526320D01*
X150215270Y-58526314D01*
X150215262Y-58526307D01*
X150194620Y-58509673D01*
X150194619Y-58509672D01*
X150123576Y-58472510D01*
X150123571Y-58472508D01*
X150056542Y-58452826D01*
X150056533Y-58452824D01*
X150010322Y-58446180D01*
X149998638Y-58444500D01*
X90451362Y-58444500D01*
X90451343Y-58444500D01*
X90429405Y-58445677D01*
X90429398Y-58445677D01*
X90429393Y-58445678D01*
X90420894Y-58446591D01*
X90403038Y-58448511D01*
X90403033Y-58448512D01*
X90326520Y-58472469D01*
X90265193Y-58505957D01*
X90218369Y-58541010D01*
X83916003Y-64843376D01*
X83901320Y-64859722D01*
X83901301Y-64859745D01*
X83884672Y-64880380D01*
X83847510Y-64951423D01*
X83847508Y-64951428D01*
X83827826Y-65018457D01*
X83827824Y-65018466D01*
X83819500Y-65076362D01*
X76010500Y-65076362D01*
X76010500Y-49204515D01*
X76010905Y-49195572D01*
X76025287Y-49037006D01*
X76028317Y-49020099D01*
X76068813Y-48870396D01*
X76074716Y-48854278D01*
X76140484Y-48713824D01*
X76149089Y-48698961D01*
X76238143Y-48571994D01*
X76249180Y-48558851D01*
X76358851Y-48449180D01*
X76371994Y-48438143D01*
X76498964Y-48349086D01*
X76513824Y-48340484D01*
X76654278Y-48274716D01*
X76670396Y-48268813D01*
X76820101Y-48228316D01*
X76837006Y-48225287D01*
X76995573Y-48210905D01*
X77004516Y-48210500D01*
X82162187Y-48210500D01*
X82220378Y-48229407D01*
X82223277Y-48231596D01*
X82270722Y-48268801D01*
X82444365Y-48360208D01*
X82444369Y-48360209D01*
X82444371Y-48360210D01*
X82631643Y-48418783D01*
X82631645Y-48418783D01*
X82631651Y-48418785D01*
X82826433Y-48442609D01*
X83022316Y-48430898D01*
X83212871Y-48384036D01*
X83391844Y-48303563D01*
X83553360Y-48192118D01*
X83692118Y-48053360D01*
X83803563Y-47891844D01*
X83884036Y-47712871D01*
X83930898Y-47522316D01*
X83942609Y-47326433D01*
X83918785Y-47131651D01*
X83918783Y-47131645D01*
X83918783Y-47131643D01*
X83860210Y-46944371D01*
X83860207Y-46944363D01*
X83768802Y-46770724D01*
X83768794Y-46770713D01*
X83731596Y-46723275D01*
X83710567Y-46665817D01*
X83710500Y-46662186D01*
X83710500Y-43399996D01*
X129384876Y-43399996D01*
X129384876Y-43400003D01*
X129403334Y-43610996D01*
X129403335Y-43611003D01*
X129403336Y-43611004D01*
X129458157Y-43815597D01*
X129547672Y-44007562D01*
X129669161Y-44181067D01*
X129818933Y-44330839D01*
X129992438Y-44452328D01*
X130184403Y-44541843D01*
X130388996Y-44596664D01*
X130389000Y-44596664D01*
X130389003Y-44596665D01*
X130599997Y-44615124D01*
X130600000Y-44615124D01*
X130600003Y-44615124D01*
X130810996Y-44596665D01*
X130810997Y-44596664D01*
X130811004Y-44596664D01*
X131015597Y-44541843D01*
X131207562Y-44452328D01*
X131381067Y-44330839D01*
X131530839Y-44181067D01*
X131652328Y-44007562D01*
X131741843Y-43815597D01*
X131796664Y-43611004D01*
X131815124Y-43400000D01*
X131796664Y-43188996D01*
X131741843Y-42984403D01*
X131652328Y-42792438D01*
X131530839Y-42618933D01*
X131381067Y-42469161D01*
X131381063Y-42469158D01*
X131381062Y-42469157D01*
X131284803Y-42401756D01*
X131207562Y-42347672D01*
X131015597Y-42258157D01*
X130811004Y-42203336D01*
X130811003Y-42203335D01*
X130810996Y-42203334D01*
X130600003Y-42184876D01*
X130599997Y-42184876D01*
X130389003Y-42203334D01*
X130324153Y-42220710D01*
X130184403Y-42258157D01*
X130094889Y-42299898D01*
X129992439Y-42347671D01*
X129818937Y-42469157D01*
X129669157Y-42618937D01*
X129547671Y-42792439D01*
X129458157Y-42984404D01*
X129403334Y-43189003D01*
X129384876Y-43399996D01*
X83710500Y-43399996D01*
X83710500Y-41519386D01*
X83710567Y-41518971D01*
X83710515Y-41504301D01*
X83710864Y-41495638D01*
X83724264Y-41336599D01*
X83727224Y-41319526D01*
X83767044Y-41169469D01*
X83772939Y-41153172D01*
X83838322Y-41012368D01*
X83846972Y-40997344D01*
X83935916Y-40870101D01*
X83947043Y-40856829D01*
X84056829Y-40747043D01*
X84070101Y-40735916D01*
X84197346Y-40646970D01*
X84212365Y-40638323D01*
X84353174Y-40572937D01*
X84369469Y-40567044D01*
X84519526Y-40527224D01*
X84536594Y-40524264D01*
X84695647Y-40510863D01*
X84704303Y-40510515D01*
X84718236Y-40510564D01*
X84718658Y-40510500D01*
X165295484Y-40510500D01*
X165304427Y-40510905D01*
G37*
G04 #@! TD.AperFunction*
G04 #@! TA.AperFunction,Conductor*
G36*
X96445677Y-79189685D02*
G01*
X96466319Y-79206319D01*
X96813681Y-79553681D01*
X96847166Y-79615004D01*
X96850000Y-79641362D01*
X96850000Y-85018638D01*
X96830315Y-85085677D01*
X96813681Y-85106319D01*
X96776319Y-85143681D01*
X96714996Y-85177166D01*
X96688638Y-85180000D01*
X94871362Y-85180000D01*
X94804323Y-85160315D01*
X94783681Y-85143681D01*
X94696319Y-85056319D01*
X94662834Y-84994996D01*
X94660000Y-84968638D01*
X94660000Y-84060000D01*
X94550000Y-83950000D01*
X93151362Y-83950000D01*
X93097849Y-83934286D01*
X93097787Y-83934439D01*
X93096373Y-83933853D01*
X93084323Y-83930315D01*
X93080612Y-83927325D01*
X93075000Y-83925000D01*
X93074999Y-83925000D01*
X89751362Y-83925000D01*
X89684323Y-83905315D01*
X89663681Y-83888681D01*
X88471319Y-82696319D01*
X88437834Y-82634996D01*
X88435000Y-82608638D01*
X88435000Y-81186362D01*
X88454685Y-81119323D01*
X88471319Y-81098681D01*
X88623681Y-80946319D01*
X88685004Y-80912834D01*
X88711362Y-80910000D01*
X89908638Y-80910000D01*
X89975677Y-80929685D01*
X89996319Y-80946319D01*
X90740000Y-81690000D01*
X94060000Y-81690000D01*
X94290000Y-81460000D01*
X94290000Y-79881362D01*
X94309685Y-79814323D01*
X94326319Y-79793681D01*
X94913681Y-79206319D01*
X94975004Y-79172834D01*
X95001362Y-79170000D01*
X96378638Y-79170000D01*
X96445677Y-79189685D01*
G37*
G04 #@! TD.AperFunction*
G04 #@! TA.AperFunction,Conductor*
G36*
X132954539Y-76194685D02*
G01*
X133000294Y-76247489D01*
X133011500Y-76299000D01*
X133011500Y-78096143D01*
X133035386Y-78185287D01*
X133035387Y-78185290D01*
X133081527Y-78265208D01*
X133081529Y-78265211D01*
X133081530Y-78265212D01*
X133420788Y-78604470D01*
X133500712Y-78650614D01*
X133589856Y-78674500D01*
X133589857Y-78674500D01*
X133589858Y-78674500D01*
X133698050Y-78674500D01*
X133765089Y-78694185D01*
X133767710Y-78695916D01*
X134443959Y-79155362D01*
X134488348Y-79209317D01*
X134498272Y-79258681D01*
X134486777Y-81151142D01*
X134466685Y-81218061D01*
X134413604Y-81263494D01*
X134362166Y-81274387D01*
X132742131Y-81266380D01*
X132675190Y-81246365D01*
X132655063Y-81230063D01*
X132436319Y-81011319D01*
X132402834Y-80949996D01*
X132400000Y-80923638D01*
X132400000Y-78104500D01*
X132419685Y-78037461D01*
X132472489Y-77991706D01*
X132524000Y-77980500D01*
X132531750Y-77980500D01*
X132531751Y-77980499D01*
X132546568Y-77977552D01*
X132590229Y-77968868D01*
X132590229Y-77968867D01*
X132590231Y-77968867D01*
X132656552Y-77924552D01*
X132700867Y-77858231D01*
X132700867Y-77858229D01*
X132700868Y-77858229D01*
X132712499Y-77799752D01*
X132712500Y-77799750D01*
X132712500Y-76299000D01*
X132732185Y-76231961D01*
X132784989Y-76186206D01*
X132836500Y-76175000D01*
X132887500Y-76175000D01*
X132954539Y-76194685D01*
G37*
G04 #@! TD.AperFunction*
G04 #@! TA.AperFunction,Conductor*
G36*
X100815677Y-76444685D02*
G01*
X100836319Y-76461319D01*
X101163681Y-76788681D01*
X101197166Y-76850004D01*
X101200000Y-76876362D01*
X101200000Y-78485000D01*
X101390469Y-78675469D01*
X101401342Y-78687896D01*
X102211183Y-79748472D01*
X102235203Y-79774830D01*
X102266716Y-79803889D01*
X102268310Y-79805343D01*
X102348127Y-79849990D01*
X102415166Y-79869675D01*
X102473064Y-79878000D01*
X103748686Y-79878000D01*
X103815725Y-79897685D01*
X103826491Y-79905448D01*
X103838751Y-79915327D01*
X103883474Y-79938721D01*
X103933753Y-79987235D01*
X103950000Y-80048596D01*
X103950000Y-80163287D01*
X103930315Y-80230326D01*
X103901388Y-80261738D01*
X103857361Y-80295451D01*
X103792169Y-80320580D01*
X103781974Y-80321000D01*
X102153999Y-80321000D01*
X101750000Y-80724999D01*
X101750000Y-80725772D01*
X101733389Y-80787769D01*
X101716021Y-80817853D01*
X101716018Y-80817858D01*
X101704786Y-80837310D01*
X101680900Y-80926456D01*
X101680900Y-83849544D01*
X101701831Y-83927658D01*
X101704786Y-83938688D01*
X101719052Y-83963397D01*
X101733387Y-83988226D01*
X101750000Y-84050226D01*
X101750000Y-84523638D01*
X101730315Y-84590677D01*
X101713681Y-84611319D01*
X100936319Y-85388681D01*
X100874996Y-85422166D01*
X100848638Y-85425000D01*
X98451362Y-85425000D01*
X98384323Y-85405315D01*
X98363681Y-85388681D01*
X98236319Y-85261319D01*
X98202834Y-85199996D01*
X98200000Y-85173638D01*
X98200000Y-77376362D01*
X98219685Y-77309323D01*
X98236319Y-77288681D01*
X99063681Y-76461319D01*
X99125004Y-76427834D01*
X99151362Y-76425000D01*
X100748638Y-76425000D01*
X100815677Y-76444685D01*
G37*
G04 #@! TD.AperFunction*
G04 #@! TA.AperFunction,Conductor*
G36*
X158400539Y-96002185D02*
G01*
X158446294Y-96054989D01*
X158457500Y-96106500D01*
X158457500Y-97416356D01*
X158457502Y-97416382D01*
X158460413Y-97441487D01*
X158460415Y-97441491D01*
X158505794Y-97544265D01*
X158505796Y-97544267D01*
X158508326Y-97547960D01*
X158525801Y-97585945D01*
X158531386Y-97606787D01*
X158577387Y-97686463D01*
X158594000Y-97748463D01*
X158594000Y-97760500D01*
X159356000Y-98522500D01*
X163368638Y-98522500D01*
X163435677Y-98542185D01*
X163456319Y-98558819D01*
X163637681Y-98740181D01*
X163671166Y-98801504D01*
X163674000Y-98827862D01*
X163674000Y-102281138D01*
X163654315Y-102348177D01*
X163637681Y-102368819D01*
X163598319Y-102408181D01*
X163536996Y-102441666D01*
X163510638Y-102444500D01*
X154693362Y-102444500D01*
X154626323Y-102424815D01*
X154605681Y-102408181D01*
X154312319Y-102114819D01*
X154278834Y-102053496D01*
X154276000Y-102027138D01*
X154276000Y-99843862D01*
X154295685Y-99776823D01*
X154312319Y-99756181D01*
X154747681Y-99320819D01*
X154809004Y-99287334D01*
X154835362Y-99284500D01*
X157070000Y-99284500D01*
X157832000Y-98522500D01*
X157832000Y-97673833D01*
X157851685Y-97606794D01*
X157868319Y-97586152D01*
X157871589Y-97582882D01*
X157910206Y-97544265D01*
X157955585Y-97441491D01*
X157958500Y-97416365D01*
X157958499Y-96106499D01*
X157978184Y-96039461D01*
X158030987Y-95993706D01*
X158082499Y-95982500D01*
X158333500Y-95982500D01*
X158400539Y-96002185D01*
G37*
G04 #@! TD.AperFunction*
G04 #@! TA.AperFunction,Conductor*
G36*
X163333039Y-103419685D02*
G01*
X163378794Y-103472489D01*
X163390000Y-103524000D01*
X163390000Y-105954695D01*
X163370315Y-106021734D01*
X163317511Y-106067489D01*
X163264702Y-106078688D01*
X158969724Y-106033739D01*
X158976498Y-109916923D01*
X158956930Y-109983996D01*
X158940179Y-110004820D01*
X158425000Y-110519999D01*
X158425000Y-111570500D01*
X158405315Y-111637539D01*
X158352511Y-111683294D01*
X158301000Y-111694500D01*
X156549000Y-111694500D01*
X156481961Y-111674815D01*
X156436206Y-111622011D01*
X156425000Y-111570500D01*
X156425000Y-109351362D01*
X156444685Y-109284323D01*
X156461319Y-109263681D01*
X156600000Y-109125000D01*
X156600000Y-104251362D01*
X156619685Y-104184323D01*
X156636319Y-104163681D01*
X157363681Y-103436319D01*
X157425004Y-103402834D01*
X157451362Y-103400000D01*
X163266000Y-103400000D01*
X163333039Y-103419685D01*
G37*
G04 #@! TD.AperFunction*
G04 #@! TA.AperFunction,Conductor*
G36*
X148730382Y-103919685D02*
G01*
X148759208Y-103945350D01*
X155285380Y-111899999D01*
X155285381Y-111899999D01*
X155285382Y-111900000D01*
X158339546Y-111900000D01*
X158406585Y-111919685D01*
X158452340Y-111972489D01*
X158455422Y-111979857D01*
X158616876Y-112403674D01*
X158625000Y-112447817D01*
X158625000Y-115773638D01*
X158605315Y-115840677D01*
X158588681Y-115861319D01*
X156936319Y-117513681D01*
X156874996Y-117547166D01*
X156848638Y-117550000D01*
X93701362Y-117550000D01*
X93634323Y-117530315D01*
X93613681Y-117513681D01*
X89586319Y-113486319D01*
X89552834Y-113424996D01*
X89550000Y-113398638D01*
X89550000Y-106126362D01*
X89569685Y-106059323D01*
X89586319Y-106038681D01*
X91688681Y-103936319D01*
X91750004Y-103902834D01*
X91776362Y-103900000D01*
X148663343Y-103900000D01*
X148730382Y-103919685D01*
G37*
G04 #@! TD.AperFunction*
G04 #@! TA.AperFunction,Conductor*
G36*
X105115677Y-71844685D02*
G01*
X105136319Y-71861319D01*
X105213681Y-71938681D01*
X105247166Y-72000004D01*
X105250000Y-72026362D01*
X105250000Y-78873638D01*
X105230315Y-78940677D01*
X105213681Y-78961319D01*
X104436319Y-79738681D01*
X104374996Y-79772166D01*
X104348638Y-79775000D01*
X104034733Y-79775000D01*
X103967694Y-79755315D01*
X103947052Y-79738681D01*
X103929165Y-79720794D01*
X103826392Y-79675415D01*
X103801268Y-79672500D01*
X102473064Y-79672500D01*
X102406025Y-79652815D01*
X102374512Y-79623756D01*
X101435442Y-78393940D01*
X101410402Y-78328712D01*
X101409996Y-78319036D01*
X101400107Y-74680903D01*
X101419610Y-74613812D01*
X101422806Y-74609055D01*
X101762946Y-74127464D01*
X101817700Y-74084061D01*
X101864231Y-74075000D01*
X102000000Y-74075000D01*
X102050000Y-74025000D01*
X102050000Y-72051362D01*
X102069685Y-71984323D01*
X102086319Y-71963681D01*
X102188681Y-71861319D01*
X102250004Y-71827834D01*
X102276362Y-71825000D01*
X105048638Y-71825000D01*
X105115677Y-71844685D01*
G37*
G04 #@! TD.AperFunction*
G04 #@! TA.AperFunction,Conductor*
G36*
X131454539Y-76194685D02*
G01*
X131500294Y-76247489D01*
X131511500Y-76299000D01*
X131511500Y-77799752D01*
X131522617Y-77855640D01*
X131525000Y-77879831D01*
X131525000Y-79873638D01*
X131505315Y-79940677D01*
X131488681Y-79961319D01*
X130986319Y-80463681D01*
X130924996Y-80497166D01*
X130898638Y-80500000D01*
X130024000Y-80500000D01*
X129956961Y-80480315D01*
X129911206Y-80427511D01*
X129900000Y-80376000D01*
X129900000Y-78799000D01*
X129919685Y-78731961D01*
X129972489Y-78686206D01*
X130024000Y-78675000D01*
X130300000Y-78675000D01*
X130959059Y-78015940D01*
X131020380Y-77982457D01*
X131027718Y-77981302D01*
X131090229Y-77968868D01*
X131090229Y-77968867D01*
X131090231Y-77968867D01*
X131156552Y-77924552D01*
X131200867Y-77858231D01*
X131200867Y-77858229D01*
X131200868Y-77858229D01*
X131212499Y-77799752D01*
X131212500Y-77799750D01*
X131212500Y-76299000D01*
X131232185Y-76231961D01*
X131284989Y-76186206D01*
X131336500Y-76175000D01*
X131387500Y-76175000D01*
X131454539Y-76194685D01*
G37*
G04 #@! TD.AperFunction*
G04 #@! TA.AperFunction,Conductor*
G36*
X150065677Y-58669685D02*
G01*
X150086319Y-58686319D01*
X157413681Y-66013681D01*
X157447166Y-66075004D01*
X157450000Y-66101362D01*
X157450000Y-69423638D01*
X157430315Y-69490677D01*
X157413681Y-69511319D01*
X156061319Y-70863681D01*
X155999996Y-70897166D01*
X155973638Y-70900000D01*
X120951362Y-70900000D01*
X120884323Y-70880315D01*
X120863681Y-70863681D01*
X120675000Y-70675000D01*
X94875000Y-70675000D01*
X94725520Y-70824480D01*
X94576039Y-70973960D01*
X94523296Y-71005254D01*
X94489948Y-71015046D01*
X94489946Y-71015047D01*
X94368873Y-71092856D01*
X94274623Y-71201626D01*
X94274622Y-71201628D01*
X94221925Y-71317017D01*
X94196812Y-71353186D01*
X90275000Y-75274999D01*
X90275000Y-78398638D01*
X90255315Y-78465677D01*
X90238681Y-78486319D01*
X87850000Y-80874999D01*
X87850000Y-83576000D01*
X87830315Y-83643039D01*
X87777511Y-83688794D01*
X87726000Y-83700000D01*
X86226362Y-83700000D01*
X86159323Y-83680315D01*
X86138681Y-83663681D01*
X84061319Y-81586319D01*
X84027834Y-81524996D01*
X84025000Y-81498638D01*
X84025000Y-65076362D01*
X84044685Y-65009323D01*
X84061319Y-64988681D01*
X90363681Y-58686319D01*
X90425004Y-58652834D01*
X90451362Y-58650000D01*
X149998638Y-58650000D01*
X150065677Y-58669685D01*
G37*
G04 #@! TD.AperFunction*
G04 #@! TA.AperFunction,Conductor*
G36*
X151760928Y-94733515D02*
G01*
X151909163Y-94809045D01*
X151909165Y-94809045D01*
X151909168Y-94809047D01*
X151985965Y-94834000D01*
X152088881Y-94867440D01*
X152275514Y-94897000D01*
X152275519Y-94897000D01*
X152464486Y-94897000D01*
X152568168Y-94880577D01*
X152651118Y-94867440D01*
X152735357Y-94840068D01*
X152773674Y-94834000D01*
X153875486Y-94834000D01*
X154062118Y-94804440D01*
X154241832Y-94746047D01*
X154241835Y-94746044D01*
X154241839Y-94746044D01*
X154266429Y-94733515D01*
X154322723Y-94720000D01*
X154448638Y-94720000D01*
X154515677Y-94739685D01*
X154536319Y-94756319D01*
X154733681Y-94953681D01*
X154767166Y-95015004D01*
X154770000Y-95041362D01*
X154770000Y-96070000D01*
X155240000Y-96540000D01*
X156730000Y-96540000D01*
X157273681Y-95996319D01*
X157335004Y-95962834D01*
X157361362Y-95960000D01*
X157630959Y-95960000D01*
X157697998Y-95979685D01*
X157743753Y-96032489D01*
X157753697Y-96101647D01*
X157753696Y-96101650D01*
X157752999Y-96106493D01*
X157752999Y-97359940D01*
X157733314Y-97426979D01*
X157721246Y-97442804D01*
X157708325Y-97457187D01*
X157708313Y-97457201D01*
X157691672Y-97477850D01*
X157654509Y-97548895D01*
X157634826Y-97615927D01*
X157626500Y-97673836D01*
X157626500Y-97752138D01*
X157606815Y-97819177D01*
X157590181Y-97839819D01*
X157276319Y-98153681D01*
X157214996Y-98187166D01*
X157188638Y-98190000D01*
X153501362Y-98190000D01*
X153434323Y-98170315D01*
X153413681Y-98153681D01*
X153330000Y-98070000D01*
X152040000Y-98070000D01*
X152039999Y-98070000D01*
X151516319Y-98593681D01*
X151454996Y-98627166D01*
X151428638Y-98630000D01*
X149481362Y-98630000D01*
X149414323Y-98610315D01*
X149393681Y-98593681D01*
X149146319Y-98346319D01*
X149112834Y-98284996D01*
X149110000Y-98258638D01*
X149110000Y-96221362D01*
X149129685Y-96154323D01*
X149146319Y-96133681D01*
X150523681Y-94756319D01*
X150585004Y-94722834D01*
X150611362Y-94720000D01*
X151704633Y-94720000D01*
X151760928Y-94733515D01*
G37*
G04 #@! TD.AperFunction*
M02*
