M48
; DRILL file {KiCad 8.0.2} date 2024-08-20T08:17:15+0200
; FORMAT={-:-/ absolute / metric / decimal}
; #@! TF.CreationDate,2024-08-20T08:17:15+02:00
; #@! TF.GenerationSoftware,Kicad,Pcbnew,8.0.2
; #@! TF.FileFunction,Plated,2,4,Blind
FMAT,2
METRIC
; #@! TA.AperFunction,Plated,Buried,ViaDrill
T1C0.300
%
G90
G05
T1
X86.0Y-96.7
X86.0Y-98.2
X86.0Y-99.7
X86.0Y-101.2
X87.5Y-96.7
X87.5Y-98.2
X87.5Y-99.7
X87.5Y-101.2
X89.0Y-96.7
X89.0Y-98.2
X89.0Y-99.7
X89.0Y-101.2
X90.5Y-96.7
X90.5Y-98.2
X90.5Y-99.7
X90.5Y-101.2
X92.0Y-96.7
X92.0Y-98.2
X92.0Y-99.7
X92.0Y-101.2
X93.5Y-96.7
X93.5Y-98.2
X93.5Y-99.7
X93.5Y-101.2
X94.7Y-71.475
X94.7Y-72.975
X94.7Y-74.475
X95.5Y-96.7
X95.5Y-98.2
X95.5Y-99.7
X95.5Y-101.2
X96.2Y-71.475
X96.2Y-72.975
X96.2Y-74.475
X97.0Y-96.7
X97.0Y-98.2
X97.0Y-99.7
X97.0Y-101.2
X97.7Y-71.475
X97.7Y-72.975
X97.7Y-74.475
X98.5Y-96.7
X98.5Y-98.2
X98.5Y-99.7
X98.5Y-101.2
X99.2Y-71.475
X99.2Y-72.975
X99.2Y-74.475
X100.0Y-96.7
X100.0Y-98.2
X100.0Y-99.7
X100.0Y-101.2
X101.5Y-96.7
X101.5Y-98.2
X101.5Y-99.7
X101.5Y-101.2
X102.394Y-84.166
X103.0Y-96.7
X103.0Y-98.2
X103.0Y-99.7
X103.0Y-101.2
X104.5Y-96.7
X104.5Y-98.2
X104.5Y-99.7
X104.5Y-101.2
X105.28Y-80.735
X105.75Y-83.025
X105.89Y-79.36
X106.0Y-96.7
X106.0Y-98.2
X106.0Y-99.7
X106.0Y-101.2
X106.15Y-77.815
X106.92Y-79.38
X106.92Y-80.73
X107.5Y-96.7
X107.5Y-98.2
X107.5Y-99.7
X107.5Y-101.2
X107.66Y-76.205
X109.0Y-96.7
X109.0Y-98.2
X109.0Y-99.7
X109.0Y-101.2
X110.33Y-84.74
X110.33Y-86.24
X110.33Y-87.74
X110.5Y-96.7
X110.5Y-98.2
X110.5Y-99.7
X110.5Y-101.2
X111.83Y-84.74
X111.83Y-86.24
X111.83Y-87.74
X112.0Y-96.7
X112.0Y-98.2
X112.0Y-99.7
X112.0Y-101.2
X113.33Y-84.74
X113.33Y-86.24
X113.33Y-87.74
X113.5Y-96.71
X113.5Y-98.21
X113.5Y-99.71
X113.5Y-101.21
X114.2Y-76.125
X114.2Y-77.765
X114.83Y-84.74
X114.83Y-86.24
X114.83Y-87.74
X115.0Y-96.7
X115.0Y-98.2
X115.0Y-99.7
X115.0Y-101.2
X115.7Y-76.135
X115.7Y-77.775
X116.5Y-96.7
X116.5Y-98.2
X116.5Y-99.7
X116.5Y-101.2
X118.0Y-96.7
X118.0Y-98.2
X118.0Y-99.7
X118.0Y-101.2
X119.02Y-71.97
X119.02Y-73.47
X119.02Y-74.97
X119.5Y-96.7
X119.5Y-98.2
X119.5Y-99.7
X119.5Y-101.2
X120.52Y-71.97
X120.52Y-73.47
X120.52Y-74.97
X121.0Y-96.7
X121.0Y-98.2
X121.0Y-99.7
X121.0Y-101.2
X122.02Y-71.97
X122.02Y-73.47
X122.02Y-74.97
X122.5Y-96.7
X122.5Y-98.2
X122.5Y-99.7
X122.5Y-101.2
X123.52Y-71.97
X123.52Y-73.47
X123.52Y-74.97
X124.0Y-96.7
X124.0Y-98.2
X124.0Y-99.7
X124.0Y-101.2
X125.5Y-96.7
X125.5Y-98.2
X125.5Y-99.7
X125.5Y-101.2
X127.0Y-96.7
X127.0Y-98.2
X127.0Y-99.7
X127.0Y-101.2
X128.5Y-96.7
X128.5Y-98.2
X128.5Y-99.7
X128.5Y-101.2
X129.65Y-83.3
X130.0Y-96.7
X130.0Y-98.2
X130.0Y-99.7
X130.0Y-101.2
X130.575Y-72.95
X131.15Y-83.3
X131.225Y-72.95
X131.858Y-72.925
X132.65Y-83.3
X134.5Y-98.7
X134.5Y-100.2
X134.5Y-101.7
X134.5Y-103.2
X136.0Y-98.7
X136.0Y-100.2
X136.0Y-101.7
X136.0Y-103.2
X137.5Y-98.7
X137.5Y-100.2
X137.5Y-101.7
X137.5Y-103.2
X139.0Y-98.7
X139.0Y-100.2
X139.0Y-101.7
X139.0Y-103.2
X140.5Y-98.7
X140.5Y-100.2
X140.5Y-101.7
X140.5Y-103.2
X142.0Y-98.7
X142.0Y-100.2
X142.0Y-101.7
X142.0Y-103.2
X143.5Y-100.2
X143.5Y-101.7
X143.5Y-103.2
X145.0Y-98.7
X145.0Y-101.7
X145.0Y-103.2
X146.5Y-98.7
X146.5Y-100.2
X146.5Y-103.2
X148.0Y-98.7
X148.0Y-100.2
X148.0Y-101.7
X151.92Y-102.05
X153.42Y-100.55
X153.42Y-102.05
X153.425Y-103.7
X153.425Y-105.2
X154.025Y-107.05
X154.025Y-109.075
X155.734Y-85.71
X155.775Y-84.725
X156.55Y-84.72
X157.766Y-92.802
X157.766Y-94.326
X159.29Y-92.802
X159.29Y-94.326
X161.068Y-97.882
X161.076Y-96.75
X162.6Y-96.75
X164.25Y-95.226
X164.25Y-96.75
M30
