G04 #@! TF.GenerationSoftware,KiCad,Pcbnew,8.0.2*
G04 #@! TF.CreationDate,2024-08-20T08:25:12+02:00*
G04 #@! TF.ProjectId,STS1_SIDEPANEL,53545331-5f53-4494-9445-50414e454c2e,rev?*
G04 #@! TF.SameCoordinates,Original*
G04 #@! TF.FileFunction,Profile,NP*
%FSLAX46Y46*%
G04 Gerber Fmt 4.6, Leading zero omitted, Abs format (unit mm)*
G04 Created by KiCad (PCBNEW 8.0.2) date 2024-08-20 08:25:12*
%MOMM*%
%LPD*%
G01*
G04 APERTURE LIST*
G04 #@! TA.AperFunction,Profile*
%ADD10C,0.100000*%
G04 #@! TD*
G04 #@! TA.AperFunction,Profile*
%ADD11C,0.120000*%
G04 #@! TD*
G04 #@! TA.AperFunction,Profile*
%ADD12C,0.250000*%
G04 #@! TD*
G04 APERTURE END LIST*
D10*
X83800000Y-129730000D02*
X83800000Y-50330000D01*
X84800000Y-49330000D02*
X89150000Y-49330000D01*
X84800000Y-130730000D02*
X89150000Y-130730000D01*
X90150000Y-41030000D02*
X90150000Y-48330000D01*
X90150000Y-139030000D02*
X90150000Y-131730000D01*
D11*
X135100000Y-56080000D02*
X135100000Y-63180000D01*
X136100000Y-55080000D02*
X143200000Y-55080000D01*
X136100000Y-64180000D02*
X143200000Y-64180000D01*
X144200000Y-56080000D02*
X144200000Y-63180000D01*
D10*
X164600000Y-40030000D02*
X91150000Y-40030000D01*
X164600000Y-140030000D02*
X91150000Y-140030000D01*
X165600000Y-42700000D02*
X165600000Y-41030000D01*
X165600000Y-139030000D02*
X165600000Y-137530000D01*
X166600000Y-136530000D02*
X166600000Y-43705000D01*
X83800000Y-50330000D02*
G75*
G02*
X84800000Y-49330000I1007256J-7256D01*
G01*
X84800000Y-130730000D02*
G75*
G02*
X83800000Y-129730000I7256J1007256D01*
G01*
X89150000Y-130730000D02*
G75*
G02*
X90150000Y-131730000I-7256J-1007256D01*
G01*
X90150000Y-41030000D02*
G75*
G02*
X91150000Y-40030000I1007256J-7256D01*
G01*
X90150000Y-48330000D02*
G75*
G02*
X89150000Y-49330000I-1007256J7256D01*
G01*
X91150000Y-140030000D02*
G75*
G02*
X90150000Y-139030000I7256J1007256D01*
G01*
D11*
X135100000Y-56080000D02*
G75*
G02*
X136100000Y-55080000I990200J9800D01*
G01*
X136100000Y-64180000D02*
G75*
G02*
X135100000Y-63180000I-9800J990200D01*
G01*
X143200000Y-55080000D02*
G75*
G02*
X144200000Y-56080000I9800J-990200D01*
G01*
X144200000Y-63180000D02*
G75*
G02*
X143200000Y-64180000I-990200J-9800D01*
G01*
D10*
X164600000Y-40030000D02*
G75*
G02*
X165600000Y-41030000I-7300J-1007300D01*
G01*
X165600000Y-137530000D02*
G75*
G02*
X166039998Y-136959991I545300J33900D01*
G01*
X165600000Y-139030000D02*
G75*
G02*
X164600000Y-140030000I-1007300J7300D01*
G01*
X166040000Y-43270000D02*
G75*
G02*
X165600009Y-42700001I105300J536100D01*
G01*
X166040000Y-43270000D02*
G75*
G02*
X166600044Y-43704987I-20100J-603900D01*
G01*
X166600000Y-136530000D02*
G75*
G02*
X166040046Y-136961441I-580100J173800D01*
G01*
D12*
X94250000Y-46180000D02*
G75*
G02*
X92250000Y-46180000I-1000000J0D01*
G01*
X92250000Y-46180000D02*
G75*
G02*
X94250000Y-46180000I1000000J0D01*
G01*
X94250000Y-133880000D02*
G75*
G02*
X92250000Y-133880000I-1000000J0D01*
G01*
X92250000Y-133880000D02*
G75*
G02*
X94250000Y-133880000I1000000J0D01*
G01*
X134100000Y-55080000D02*
G75*
G02*
X132100000Y-55080000I-1000000J0D01*
G01*
X132100000Y-55080000D02*
G75*
G02*
X134100000Y-55080000I1000000J0D01*
G01*
X134100000Y-64180000D02*
G75*
G02*
X132100000Y-64180000I-1000000J0D01*
G01*
X132100000Y-64180000D02*
G75*
G02*
X134100000Y-64180000I1000000J0D01*
G01*
X147200000Y-55080000D02*
G75*
G02*
X145200000Y-55080000I-1000000J0D01*
G01*
X145200000Y-55080000D02*
G75*
G02*
X147200000Y-55080000I1000000J0D01*
G01*
X147200000Y-64180000D02*
G75*
G02*
X145200000Y-64180000I-1000000J0D01*
G01*
X145200000Y-64180000D02*
G75*
G02*
X147200000Y-64180000I1000000J0D01*
G01*
X164450000Y-46180000D02*
G75*
G02*
X162450000Y-46180000I-1000000J0D01*
G01*
X162450000Y-46180000D02*
G75*
G02*
X164450000Y-46180000I1000000J0D01*
G01*
X164450000Y-133880000D02*
G75*
G02*
X162450000Y-133880000I-1000000J0D01*
G01*
X162450000Y-133880000D02*
G75*
G02*
X164450000Y-133880000I1000000J0D01*
G01*
M02*
