G04 #@! TF.GenerationSoftware,KiCad,Pcbnew,8.0.2*
G04 #@! TF.CreationDate,2024-08-20T08:25:12+02:00*
G04 #@! TF.ProjectId,STS1_SIDEPANEL,53545331-5f53-4494-9445-50414e454c2e,rev?*
G04 #@! TF.SameCoordinates,Original*
G04 #@! TF.FileFunction,Copper,L3,Inr*
G04 #@! TF.FilePolarity,Positive*
%FSLAX46Y46*%
G04 Gerber Fmt 4.6, Leading zero omitted, Abs format (unit mm)*
G04 Created by KiCad (PCBNEW 8.0.2) date 2024-08-20 08:25:12*
%MOMM*%
%LPD*%
G01*
G04 APERTURE LIST*
G04 #@! TA.AperFunction,FiducialPad,Local*
%ADD10C,6.000000*%
G04 #@! TD*
G04 #@! TA.AperFunction,FiducialPad,Global*
%ADD11C,6.000000*%
G04 #@! TD*
G04 #@! TA.AperFunction,FiducialPad,Global*
%ADD12C,5.700000*%
G04 #@! TD*
G04 #@! TA.AperFunction,ViaPad*
%ADD13C,0.600000*%
G04 #@! TD*
G04 #@! TA.AperFunction,ViaPad*
%ADD14C,0.800000*%
G04 #@! TD*
G04 #@! TA.AperFunction,ViaPad*
%ADD15C,0.900000*%
G04 #@! TD*
G04 #@! TA.AperFunction,Conductor*
%ADD16C,0.500000*%
G04 #@! TD*
G04 #@! TA.AperFunction,Conductor*
%ADD17C,1.000000*%
G04 #@! TD*
G04 #@! TA.AperFunction,Conductor*
%ADD18C,1.500000*%
G04 #@! TD*
G04 #@! TA.AperFunction,Conductor*
%ADD19C,0.300000*%
G04 #@! TD*
G04 APERTURE END LIST*
D10*
X101150000Y-110780200D03*
D11*
X125150000Y-110780200D03*
D12*
X152050000Y-110780200D03*
D13*
X115000000Y-134500000D03*
X165000000Y-59500000D03*
X105467400Y-58827400D03*
D14*
X152900000Y-87425000D03*
D13*
X95000000Y-79000000D03*
X129925000Y-65314300D03*
X125000000Y-53940000D03*
X100000000Y-44500000D03*
X150000000Y-49500000D03*
D14*
X122800000Y-84000000D03*
D13*
X100000000Y-134500000D03*
X160000000Y-59500000D03*
X130000000Y-130000000D03*
D14*
X102925000Y-87425000D03*
D13*
X105000000Y-79000000D03*
X85000000Y-130000000D03*
X140000000Y-134500000D03*
X90000000Y-64735000D03*
X119925000Y-65314300D03*
X105000000Y-44500000D03*
X155000000Y-49500000D03*
X160000000Y-74500000D03*
X160000000Y-44500000D03*
X155000000Y-66265400D03*
D14*
X99925000Y-87425000D03*
D13*
X125000000Y-59020000D03*
X145000000Y-49500000D03*
X150000000Y-44500000D03*
X100000000Y-49500000D03*
X95000000Y-49500000D03*
X135000000Y-44500000D03*
X135000000Y-74158400D03*
D14*
X99925000Y-81425000D03*
X122800000Y-87000000D03*
D13*
X155000000Y-44500000D03*
D14*
X146900000Y-87425000D03*
D13*
X95000000Y-58827400D03*
D14*
X96925000Y-84425000D03*
D13*
X117250000Y-132425000D03*
X160000000Y-66030400D03*
X120000000Y-70313400D03*
X165000000Y-89500000D03*
X125000000Y-49495000D03*
D14*
X146900000Y-84425000D03*
X146900000Y-81425000D03*
D13*
X90000000Y-84500000D03*
D14*
X149900000Y-84425000D03*
D13*
X120000000Y-44500000D03*
X120000000Y-49368000D03*
X95000000Y-84420000D03*
D14*
X122800000Y-81000000D03*
D13*
X125000000Y-130000000D03*
X155000000Y-54500000D03*
D14*
X149900000Y-87425000D03*
D13*
X115225000Y-58827400D03*
X150000000Y-70450000D03*
X95000000Y-134500000D03*
X114925000Y-65314300D03*
X125000000Y-74225000D03*
X130000000Y-44500000D03*
X95000000Y-44500000D03*
X150000000Y-59020000D03*
X155000000Y-62779200D03*
X120000000Y-130000000D03*
X125000000Y-70313400D03*
X120000000Y-74225000D03*
X115000000Y-49520400D03*
D14*
X116800000Y-87000000D03*
D13*
X85000000Y-79000000D03*
D14*
X152900000Y-84425000D03*
D13*
X95000000Y-53584400D03*
X90000000Y-74895000D03*
X165000000Y-70450000D03*
X90000000Y-130000000D03*
X110000000Y-134500000D03*
X110000000Y-44500000D03*
X145000000Y-44500000D03*
D14*
X119800000Y-81000000D03*
D13*
X145000000Y-74158400D03*
X85000000Y-74500000D03*
X130000000Y-74225000D03*
D14*
X119800000Y-84000000D03*
D13*
X90000000Y-69815000D03*
X90000000Y-54500000D03*
X85000000Y-84500000D03*
X85000000Y-99500000D03*
X90000000Y-94500000D03*
D14*
X102925000Y-84425000D03*
D13*
X155000000Y-59020000D03*
X160000000Y-70450000D03*
X155000000Y-79500000D03*
D14*
X96925000Y-87425000D03*
D13*
X124925000Y-65314300D03*
X160000000Y-54500000D03*
X115000000Y-53736800D03*
D14*
X99925000Y-84425000D03*
D13*
X135000000Y-130000000D03*
X165000000Y-94500000D03*
X130000000Y-49500000D03*
X130000000Y-53940000D03*
X150000000Y-54500000D03*
X140000000Y-74158400D03*
X140000000Y-79340000D03*
X165000000Y-79500000D03*
X150000000Y-74260000D03*
X85000000Y-64500000D03*
X100000000Y-79000000D03*
D14*
X149900000Y-81425000D03*
D13*
X140000000Y-49500000D03*
X125000000Y-44500000D03*
X135000000Y-134500000D03*
D14*
X152900000Y-81425000D03*
D13*
X95000000Y-130000000D03*
X160000000Y-79500000D03*
X145000000Y-79500000D03*
X110000000Y-53584400D03*
X135000000Y-49500000D03*
X130000000Y-134500000D03*
X105000000Y-134500000D03*
X85000000Y-89500000D03*
X160000000Y-62544200D03*
X120000000Y-58816800D03*
X165000000Y-54575000D03*
X145000000Y-70246800D03*
X100000000Y-130000000D03*
X164950000Y-130100000D03*
D14*
X116800000Y-84000000D03*
D13*
X115000000Y-74200000D03*
X105467400Y-53584400D03*
D14*
X116800000Y-81000000D03*
D13*
X165000000Y-74500000D03*
X100000000Y-53584400D03*
X105000000Y-49500000D03*
X165000000Y-134500000D03*
X165000000Y-49495000D03*
X165000000Y-66030400D03*
X85000000Y-54500000D03*
X110000000Y-70288400D03*
X100000000Y-58827400D03*
X85000000Y-94500000D03*
D14*
X102925000Y-81425000D03*
D13*
X160000000Y-49500000D03*
X120000000Y-134500000D03*
X155500000Y-134750000D03*
X130000000Y-59020000D03*
X165000000Y-99500000D03*
X120000000Y-53736800D03*
X115000000Y-70288400D03*
X110000000Y-74200000D03*
X85000000Y-59500000D03*
D14*
X96925000Y-81425000D03*
D13*
X115000000Y-44500000D03*
X160000000Y-134500000D03*
X165000000Y-62544200D03*
X125000000Y-134500000D03*
X90000000Y-59655000D03*
X130000000Y-70313400D03*
X140000000Y-70246800D03*
X135000000Y-70246800D03*
X155000000Y-74260000D03*
X90000000Y-89500000D03*
X140000000Y-44500000D03*
X160125000Y-130100000D03*
X85000000Y-69500000D03*
X90000000Y-79000000D03*
X110000000Y-58827400D03*
D14*
X119800000Y-87000000D03*
D13*
X150000000Y-66265400D03*
X110000000Y-49500000D03*
X155000000Y-70450000D03*
X150000000Y-62779200D03*
X116125000Y-98710000D03*
X114586000Y-98898000D03*
X124575000Y-102050000D03*
X127575000Y-103550000D03*
X114615000Y-100320000D03*
X108075000Y-100400000D03*
X116165000Y-97050000D03*
X123075000Y-102050000D03*
X123075000Y-103550000D03*
X127575000Y-102050000D03*
X116995000Y-95790000D03*
X106575000Y-98750000D03*
X124575000Y-103550000D03*
X126075000Y-102050000D03*
X106575000Y-100390000D03*
X115365000Y-95790000D03*
X108075000Y-98760000D03*
X119975000Y-92100000D03*
X116525000Y-93500000D03*
X126075000Y-103550000D03*
D14*
X106900000Y-67475000D03*
D13*
X105525000Y-64700000D03*
X97475609Y-124836890D03*
D14*
X108925000Y-63650000D03*
D13*
X96510000Y-124740000D03*
D14*
X133250000Y-86550000D03*
D13*
X112346998Y-128375000D03*
D15*
X111720000Y-132400000D03*
X110350000Y-105550000D03*
D13*
X111450000Y-127450000D03*
D14*
X128950000Y-87850000D03*
D15*
X111400000Y-104550000D03*
D13*
X109750000Y-101950000D03*
D15*
X113950000Y-104550000D03*
X115150000Y-104550000D03*
D14*
X128950000Y-89850000D03*
D15*
X112750000Y-104550000D03*
D13*
X112300000Y-127125000D03*
D14*
X128950000Y-88850000D03*
D13*
X106625000Y-96950000D03*
D15*
X111720000Y-133650000D03*
D14*
X101925000Y-68600000D03*
X107550000Y-68600000D03*
D13*
X117650000Y-95050000D03*
X114550000Y-95050000D03*
X106725000Y-95410000D03*
X117725000Y-100100000D03*
D16*
X97475609Y-124835052D02*
X97500000Y-124810661D01*
X97475609Y-124836890D02*
X97475609Y-124835052D01*
X104622918Y-64700000D02*
X105525000Y-64700000D01*
X91975000Y-77347918D02*
X104622918Y-64700000D01*
X97500000Y-124810661D02*
X97500000Y-123875000D01*
X97500000Y-123875000D02*
X91975000Y-118350000D01*
X91975000Y-118350000D02*
X91975000Y-77347918D01*
X91275000Y-77057968D02*
X104682968Y-63650000D01*
X96510000Y-123874950D02*
X91275000Y-118639950D01*
X91275000Y-118639950D02*
X91275000Y-77057968D01*
X96510000Y-124740000D02*
X96510000Y-123874950D01*
X104682968Y-63650000D02*
X108925000Y-63650000D01*
X117575000Y-105795000D02*
X117575000Y-124225000D01*
X133250000Y-90120000D02*
X133250000Y-86550000D01*
X113425000Y-128375000D02*
X112346998Y-128375000D01*
X117575000Y-124225000D02*
X113425000Y-128375000D01*
X117575000Y-105795000D02*
X133250000Y-90120000D01*
D17*
X128950000Y-91173503D02*
X128950000Y-87850000D01*
D18*
X109350000Y-125875000D02*
X110600000Y-127125000D01*
D17*
X115598503Y-104525000D02*
X111400000Y-104525000D01*
D16*
X105425000Y-97475000D02*
X105425000Y-100625000D01*
D17*
X115598503Y-104525000D02*
X128950000Y-91173503D01*
D18*
X109350000Y-125875000D02*
X109350000Y-106575000D01*
D16*
X106750000Y-101950000D02*
X109750000Y-101950000D01*
D18*
X110600000Y-127125000D02*
X112300000Y-127125000D01*
X111096998Y-127803002D02*
X111096998Y-131776998D01*
D16*
X106625000Y-96950000D02*
X105950000Y-96950000D01*
D18*
X109350000Y-106575000D02*
X111400000Y-104525000D01*
X111450000Y-127450000D02*
X111096998Y-127803002D01*
X111096998Y-131776998D02*
X111720000Y-132400000D01*
D16*
X105425000Y-100625000D02*
X106750000Y-101950000D01*
X105950000Y-96950000D02*
X105425000Y-97475000D01*
D19*
X117650000Y-95050000D02*
X114550000Y-95050000D01*
D16*
X105990000Y-95410000D02*
X106725000Y-95410000D01*
X104725000Y-96675000D02*
X105990000Y-95410000D01*
X104725000Y-100914950D02*
X104725000Y-96675000D01*
X117725000Y-101055000D02*
X116080000Y-102700000D01*
X106510050Y-102700000D02*
X104725000Y-100914950D01*
X116080000Y-102700000D02*
X106510050Y-102700000D01*
X117725000Y-100100000D02*
X117725000Y-101055000D01*
G04 #@! TA.AperFunction,Conductor*
G36*
X164604540Y-40040933D02*
G01*
X164718978Y-40051689D01*
X164762784Y-40055806D01*
X164779604Y-40058870D01*
X164854365Y-40079289D01*
X164929132Y-40099711D01*
X164945163Y-40105619D01*
X165085429Y-40171577D01*
X165100213Y-40180160D01*
X165227039Y-40269269D01*
X165240129Y-40280270D01*
X165349729Y-40389870D01*
X165360730Y-40402960D01*
X165449839Y-40529786D01*
X165458423Y-40544572D01*
X165524377Y-40684828D01*
X165530290Y-40700872D01*
X165571129Y-40850395D01*
X165574193Y-40867215D01*
X165589066Y-41025457D01*
X165589500Y-41034721D01*
X165589500Y-42696710D01*
X165589303Y-42702945D01*
X165585303Y-42766314D01*
X165585304Y-42766318D01*
X165609029Y-42898401D01*
X165609030Y-42898404D01*
X165663452Y-43021074D01*
X165663453Y-43021076D01*
X165745454Y-43127307D01*
X165745458Y-43127311D01*
X165850348Y-43211026D01*
X165869975Y-43220117D01*
X165972116Y-43267429D01*
X165972117Y-43267429D01*
X165972121Y-43267431D01*
X166026241Y-43278009D01*
X166036480Y-43280845D01*
X166046642Y-43282005D01*
X166049546Y-43282575D01*
X166054983Y-43282620D01*
X166152080Y-43296087D01*
X166172110Y-43301038D01*
X166269092Y-43336095D01*
X166287678Y-43345106D01*
X166375259Y-43399519D01*
X166391572Y-43412191D01*
X166465953Y-43483596D01*
X166479282Y-43499380D01*
X166537223Y-43584665D01*
X166546986Y-43602871D01*
X166582152Y-43688984D01*
X166589500Y-43726412D01*
X166589500Y-136508236D01*
X166581878Y-136546329D01*
X166546431Y-136631359D01*
X166536610Y-136649386D01*
X166478360Y-136734039D01*
X166465032Y-136749653D01*
X166390576Y-136820471D01*
X166374314Y-136833001D01*
X166286854Y-136886939D01*
X166268357Y-136895846D01*
X166171644Y-136930588D01*
X166151709Y-136935487D01*
X166079099Y-136945508D01*
X166068795Y-136943664D01*
X166056646Y-136946039D01*
X166056604Y-136946041D01*
X166048074Y-136947714D01*
X166048013Y-136947726D01*
X165972123Y-136962559D01*
X165972111Y-136962563D01*
X165850345Y-137018964D01*
X165745454Y-137102679D01*
X165745448Y-137102685D01*
X165663446Y-137208918D01*
X165663445Y-137208920D01*
X165609022Y-137331592D01*
X165609021Y-137331595D01*
X165585296Y-137463678D01*
X165589304Y-137527210D01*
X165589500Y-137533443D01*
X165589500Y-139025278D01*
X165589066Y-139034542D01*
X165574193Y-139192784D01*
X165571129Y-139209604D01*
X165530290Y-139359127D01*
X165524377Y-139375171D01*
X165458423Y-139515427D01*
X165449839Y-139530213D01*
X165360730Y-139657039D01*
X165349729Y-139670129D01*
X165240129Y-139779729D01*
X165227039Y-139790730D01*
X165100213Y-139879839D01*
X165085427Y-139888423D01*
X164945171Y-139954377D01*
X164929127Y-139960290D01*
X164779604Y-140001129D01*
X164762784Y-140004193D01*
X164619854Y-140017626D01*
X164604540Y-140019066D01*
X164595279Y-140019500D01*
X91154721Y-140019500D01*
X91145459Y-140019066D01*
X91128705Y-140017491D01*
X90987215Y-140004193D01*
X90970395Y-140001129D01*
X90820872Y-139960290D01*
X90804830Y-139954377D01*
X90734700Y-139921400D01*
X90664572Y-139888423D01*
X90649786Y-139879839D01*
X90522960Y-139790730D01*
X90509870Y-139779729D01*
X90400270Y-139670129D01*
X90389269Y-139657039D01*
X90300160Y-139530213D01*
X90291576Y-139515427D01*
X90264325Y-139457475D01*
X90225619Y-139375163D01*
X90219711Y-139359132D01*
X90199289Y-139284365D01*
X90178870Y-139209604D01*
X90175806Y-139192783D01*
X90160934Y-139034541D01*
X90160500Y-139025278D01*
X90160500Y-133879996D01*
X92234611Y-133879996D01*
X92234611Y-133880003D01*
X92254119Y-134078087D01*
X92254120Y-134078093D01*
X92287850Y-134189283D01*
X92311903Y-134268573D01*
X92405735Y-134444120D01*
X92405737Y-134444122D01*
X92405738Y-134444124D01*
X92532007Y-134597983D01*
X92532016Y-134597992D01*
X92685875Y-134724261D01*
X92685880Y-134724265D01*
X92861427Y-134818097D01*
X92968202Y-134850487D01*
X93051906Y-134875879D01*
X93051912Y-134875880D01*
X93249997Y-134895389D01*
X93250000Y-134895389D01*
X93250003Y-134895389D01*
X93448087Y-134875880D01*
X93448093Y-134875879D01*
X93638573Y-134818097D01*
X93814120Y-134724265D01*
X93967988Y-134597988D01*
X94094265Y-134444120D01*
X94188097Y-134268573D01*
X94245879Y-134078093D01*
X94246377Y-134073042D01*
X94265389Y-133880003D01*
X94265389Y-133879996D01*
X94245880Y-133681912D01*
X94245879Y-133681906D01*
X94230277Y-133630475D01*
X94188097Y-133491427D01*
X94094265Y-133315880D01*
X94094261Y-133315875D01*
X93967992Y-133162016D01*
X93967983Y-133162007D01*
X93814124Y-133035738D01*
X93814122Y-133035737D01*
X93814120Y-133035735D01*
X93738885Y-132995521D01*
X93638581Y-132941907D01*
X93638578Y-132941906D01*
X93638573Y-132941903D01*
X93617636Y-132935551D01*
X93448093Y-132884120D01*
X93448087Y-132884119D01*
X93250003Y-132864611D01*
X93249997Y-132864611D01*
X93051912Y-132884119D01*
X93051906Y-132884120D01*
X92861433Y-132941901D01*
X92861431Y-132941901D01*
X92861427Y-132941903D01*
X92861424Y-132941904D01*
X92861418Y-132941907D01*
X92685885Y-133035732D01*
X92685875Y-133035738D01*
X92532016Y-133162007D01*
X92532007Y-133162016D01*
X92405738Y-133315875D01*
X92405732Y-133315885D01*
X92311907Y-133491418D01*
X92311901Y-133491433D01*
X92254120Y-133681906D01*
X92254119Y-133681912D01*
X92234611Y-133879996D01*
X90160500Y-133879996D01*
X90160500Y-131748922D01*
X90160627Y-131748111D01*
X90160502Y-131730205D01*
X90160500Y-131729512D01*
X90160500Y-131706981D01*
X90160346Y-131706219D01*
X90160199Y-131683381D01*
X90159931Y-131641697D01*
X90128311Y-131468096D01*
X90067292Y-131302525D01*
X90067291Y-131302524D01*
X90067290Y-131302520D01*
X89978694Y-131149922D01*
X89978691Y-131149918D01*
X89865166Y-131014845D01*
X89865161Y-131014839D01*
X89816812Y-130974203D01*
X89730081Y-130901308D01*
X89730077Y-130901305D01*
X89577479Y-130812709D01*
X89425254Y-130756609D01*
X89411904Y-130751689D01*
X89411902Y-130751688D01*
X89411898Y-130751687D01*
X89238309Y-130720069D01*
X89173776Y-130719653D01*
X89173020Y-130719500D01*
X89154349Y-130719500D01*
X89150488Y-130719500D01*
X89149792Y-130719498D01*
X89132250Y-130719374D01*
X89131432Y-130719500D01*
X84804721Y-130719500D01*
X84795459Y-130719066D01*
X84778705Y-130717491D01*
X84637215Y-130704193D01*
X84620395Y-130701129D01*
X84470872Y-130660290D01*
X84454830Y-130654377D01*
X84384700Y-130621400D01*
X84314572Y-130588423D01*
X84299786Y-130579839D01*
X84172960Y-130490730D01*
X84159870Y-130479729D01*
X84050270Y-130370129D01*
X84039269Y-130357039D01*
X83950160Y-130230213D01*
X83941576Y-130215427D01*
X83914325Y-130157475D01*
X83875619Y-130075163D01*
X83869711Y-130059132D01*
X83849289Y-129984365D01*
X83828870Y-129909604D01*
X83825806Y-129892783D01*
X83810934Y-129734541D01*
X83810500Y-129725278D01*
X83810500Y-76998659D01*
X90824500Y-76998659D01*
X90824500Y-118699258D01*
X90843400Y-118769798D01*
X90855200Y-118813836D01*
X90855202Y-118813840D01*
X90914507Y-118916559D01*
X90914509Y-118916561D01*
X90914511Y-118916564D01*
X96030505Y-124032558D01*
X96058281Y-124087073D01*
X96059500Y-124102560D01*
X96059500Y-124500102D01*
X96050553Y-124541229D01*
X96024834Y-124597543D01*
X96004353Y-124739997D01*
X96004353Y-124740002D01*
X96024834Y-124882456D01*
X96084622Y-125013371D01*
X96084623Y-125013373D01*
X96168576Y-125110261D01*
X96178873Y-125122144D01*
X96299942Y-125199950D01*
X96299947Y-125199953D01*
X96364932Y-125219034D01*
X96438035Y-125240499D01*
X96438036Y-125240499D01*
X96438039Y-125240500D01*
X96438041Y-125240500D01*
X96581959Y-125240500D01*
X96581961Y-125240500D01*
X96720053Y-125199953D01*
X96841128Y-125122143D01*
X96880735Y-125076433D01*
X96933129Y-125044837D01*
X96994090Y-125050072D01*
X97040332Y-125090139D01*
X97045606Y-125100135D01*
X97050230Y-125110260D01*
X97050231Y-125110261D01*
X97050232Y-125110263D01*
X97060527Y-125122144D01*
X97144482Y-125219034D01*
X97177884Y-125240500D01*
X97265556Y-125296843D01*
X97372012Y-125328101D01*
X97403644Y-125337389D01*
X97403645Y-125337389D01*
X97403648Y-125337390D01*
X97403650Y-125337390D01*
X97547568Y-125337390D01*
X97547570Y-125337390D01*
X97685662Y-125296843D01*
X97806737Y-125219033D01*
X97900986Y-125110263D01*
X97960774Y-124979347D01*
X97981256Y-124836890D01*
X97967325Y-124740000D01*
X97960775Y-124694437D01*
X97960774Y-124694434D01*
X97959444Y-124691521D01*
X97950500Y-124650399D01*
X97950500Y-123815692D01*
X97919799Y-123701114D01*
X97919799Y-123701112D01*
X97860492Y-123598390D01*
X97860491Y-123598389D01*
X97860490Y-123598388D01*
X97860489Y-123598386D01*
X92454496Y-118192393D01*
X92426719Y-118137876D01*
X92425500Y-118122389D01*
X92425500Y-110780195D01*
X97944457Y-110780195D01*
X97944457Y-110780204D01*
X97964611Y-111139097D01*
X97964614Y-111139117D01*
X98024824Y-111493487D01*
X98024828Y-111493507D01*
X98124340Y-111838923D01*
X98261907Y-112171037D01*
X98435787Y-112485649D01*
X98435789Y-112485652D01*
X98643806Y-112778823D01*
X98883339Y-113046861D01*
X99151377Y-113286394D01*
X99444548Y-113494411D01*
X99444550Y-113494412D01*
X99759163Y-113668292D01*
X99759162Y-113668292D01*
X100091276Y-113805859D01*
X100436692Y-113905371D01*
X100436695Y-113905371D01*
X100436700Y-113905373D01*
X100791093Y-113965587D01*
X100791096Y-113965587D01*
X100791102Y-113965588D01*
X101149995Y-113985743D01*
X101150000Y-113985743D01*
X101150005Y-113985743D01*
X101508897Y-113965588D01*
X101508901Y-113965587D01*
X101508907Y-113965587D01*
X101863300Y-113905373D01*
X102208724Y-113805859D01*
X102540833Y-113668294D01*
X102855452Y-113494411D01*
X103148623Y-113286394D01*
X103416661Y-113046861D01*
X103656194Y-112778823D01*
X103864211Y-112485652D01*
X104038094Y-112171033D01*
X104175659Y-111838924D01*
X104275173Y-111493500D01*
X104335387Y-111139107D01*
X104336332Y-111122296D01*
X104355543Y-110780204D01*
X104355543Y-110780195D01*
X104335388Y-110421302D01*
X104335385Y-110421282D01*
X104275175Y-110066912D01*
X104275171Y-110066892D01*
X104175659Y-109721476D01*
X104038092Y-109389362D01*
X103864212Y-109074750D01*
X103656197Y-108781581D01*
X103656196Y-108781580D01*
X103656194Y-108781577D01*
X103416661Y-108513539D01*
X103148623Y-108274006D01*
X103148620Y-108274004D01*
X103148618Y-108274002D01*
X102855449Y-108065987D01*
X102540836Y-107892107D01*
X102540837Y-107892107D01*
X102208723Y-107754540D01*
X101863307Y-107655028D01*
X101863287Y-107655024D01*
X101508917Y-107594814D01*
X101508897Y-107594811D01*
X101150005Y-107574657D01*
X101149995Y-107574657D01*
X100791102Y-107594811D01*
X100791082Y-107594814D01*
X100436712Y-107655024D01*
X100436692Y-107655028D01*
X100091276Y-107754540D01*
X99759162Y-107892107D01*
X99444550Y-108065987D01*
X99151381Y-108274002D01*
X98883346Y-108513532D01*
X98883332Y-108513546D01*
X98643802Y-108781581D01*
X98435787Y-109074750D01*
X98261907Y-109389362D01*
X98124340Y-109721476D01*
X98024828Y-110066892D01*
X98024824Y-110066912D01*
X97964614Y-110421282D01*
X97964611Y-110421302D01*
X97944457Y-110780195D01*
X92425500Y-110780195D01*
X92425500Y-96615692D01*
X104274500Y-96615692D01*
X104274500Y-100974261D01*
X104280242Y-100995689D01*
X104280242Y-100995691D01*
X104280243Y-100995691D01*
X104305202Y-101088841D01*
X104364507Y-101191559D01*
X104364509Y-101191561D01*
X104364511Y-101191564D01*
X106233436Y-103060489D01*
X106233438Y-103060490D01*
X106233440Y-103060492D01*
X106336157Y-103119796D01*
X106336159Y-103119797D01*
X106336163Y-103119799D01*
X106360372Y-103126284D01*
X106360375Y-103126287D01*
X106360376Y-103126286D01*
X106450738Y-103150499D01*
X106450740Y-103150500D01*
X106450741Y-103150500D01*
X115743338Y-103150500D01*
X115801529Y-103169407D01*
X115837493Y-103218907D01*
X115837493Y-103280093D01*
X115813342Y-103319504D01*
X115337342Y-103795504D01*
X115282825Y-103823281D01*
X115267338Y-103824500D01*
X112084719Y-103824500D01*
X112026528Y-103805593D01*
X112014715Y-103795504D01*
X112005912Y-103786701D01*
X112005909Y-103786698D01*
X111961560Y-103757064D01*
X111850238Y-103682680D01*
X111850226Y-103682674D01*
X111677250Y-103611027D01*
X111493619Y-103574500D01*
X111493617Y-103574500D01*
X111306383Y-103574500D01*
X111306380Y-103574500D01*
X111122750Y-103611027D01*
X111122748Y-103611027D01*
X110949774Y-103682674D01*
X110949762Y-103682680D01*
X110794092Y-103786698D01*
X110794088Y-103786701D01*
X108611701Y-105969088D01*
X108611698Y-105969092D01*
X108507680Y-106124762D01*
X108507674Y-106124774D01*
X108494953Y-106155488D01*
X108436027Y-106297747D01*
X108436027Y-106297749D01*
X108399500Y-106481381D01*
X108399500Y-125968619D01*
X108436027Y-126152249D01*
X108436027Y-126152251D01*
X108507674Y-126325225D01*
X108507680Y-126325237D01*
X108582064Y-126436559D01*
X108611698Y-126480908D01*
X109994092Y-127863302D01*
X110102500Y-127935737D01*
X110140379Y-127983786D01*
X110146498Y-128018052D01*
X110146498Y-131870617D01*
X110183025Y-132054247D01*
X110183025Y-132054249D01*
X110254672Y-132227223D01*
X110254678Y-132227235D01*
X110307565Y-132306384D01*
X110358696Y-132382906D01*
X110358699Y-132382909D01*
X111114092Y-133138302D01*
X111145969Y-133159602D01*
X111183848Y-133207652D01*
X111186250Y-133268790D01*
X111172444Y-133298154D01*
X111139780Y-133345477D01*
X111083763Y-133493182D01*
X111083762Y-133493183D01*
X111064722Y-133649998D01*
X111064722Y-133650001D01*
X111083762Y-133806816D01*
X111083763Y-133806818D01*
X111139780Y-133954523D01*
X111229515Y-134084528D01*
X111229516Y-134084529D01*
X111229517Y-134084530D01*
X111347760Y-134189283D01*
X111487635Y-134262696D01*
X111641015Y-134300500D01*
X111641018Y-134300500D01*
X111798982Y-134300500D01*
X111798985Y-134300500D01*
X111952365Y-134262696D01*
X112092240Y-134189283D01*
X112210483Y-134084530D01*
X112300220Y-133954523D01*
X112328484Y-133879996D01*
X162434611Y-133879996D01*
X162434611Y-133880003D01*
X162454119Y-134078087D01*
X162454120Y-134078093D01*
X162487850Y-134189283D01*
X162511903Y-134268573D01*
X162605735Y-134444120D01*
X162605737Y-134444122D01*
X162605738Y-134444124D01*
X162732007Y-134597983D01*
X162732016Y-134597992D01*
X162885875Y-134724261D01*
X162885880Y-134724265D01*
X163061427Y-134818097D01*
X163168202Y-134850487D01*
X163251906Y-134875879D01*
X163251912Y-134875880D01*
X163449997Y-134895389D01*
X163450000Y-134895389D01*
X163450003Y-134895389D01*
X163648087Y-134875880D01*
X163648093Y-134875879D01*
X163838573Y-134818097D01*
X164014120Y-134724265D01*
X164167988Y-134597988D01*
X164294265Y-134444120D01*
X164388097Y-134268573D01*
X164445879Y-134078093D01*
X164446377Y-134073042D01*
X164465389Y-133880003D01*
X164465389Y-133879996D01*
X164445880Y-133681912D01*
X164445879Y-133681906D01*
X164430277Y-133630475D01*
X164388097Y-133491427D01*
X164294265Y-133315880D01*
X164294261Y-133315875D01*
X164167992Y-133162016D01*
X164167983Y-133162007D01*
X164014124Y-133035738D01*
X164014122Y-133035737D01*
X164014120Y-133035735D01*
X163938885Y-132995521D01*
X163838581Y-132941907D01*
X163838578Y-132941906D01*
X163838573Y-132941903D01*
X163817636Y-132935551D01*
X163648093Y-132884120D01*
X163648087Y-132884119D01*
X163450003Y-132864611D01*
X163449997Y-132864611D01*
X163251912Y-132884119D01*
X163251906Y-132884120D01*
X163061433Y-132941901D01*
X163061431Y-132941901D01*
X163061427Y-132941903D01*
X163061424Y-132941904D01*
X163061418Y-132941907D01*
X162885885Y-133035732D01*
X162885875Y-133035738D01*
X162732016Y-133162007D01*
X162732007Y-133162016D01*
X162605738Y-133315875D01*
X162605732Y-133315885D01*
X162511907Y-133491418D01*
X162511901Y-133491433D01*
X162454120Y-133681906D01*
X162454119Y-133681912D01*
X162434611Y-133879996D01*
X112328484Y-133879996D01*
X112356237Y-133806818D01*
X112375278Y-133650000D01*
X112356237Y-133493182D01*
X112300220Y-133345477D01*
X112267555Y-133298154D01*
X112250061Y-133239524D01*
X112270369Y-133181807D01*
X112294030Y-133159602D01*
X112325909Y-133138302D01*
X112458302Y-133005909D01*
X112535416Y-132890500D01*
X112562319Y-132850238D01*
X112562325Y-132850226D01*
X112633973Y-132677250D01*
X112670500Y-132493617D01*
X112670500Y-132306383D01*
X112633973Y-132122750D01*
X112562323Y-131949770D01*
X112562319Y-131949762D01*
X112502649Y-131860463D01*
X112458302Y-131794092D01*
X112076494Y-131412284D01*
X112048717Y-131357767D01*
X112047498Y-131342280D01*
X112047498Y-128940937D01*
X112066405Y-128882746D01*
X112115905Y-128846782D01*
X112174387Y-128845947D01*
X112275037Y-128875500D01*
X112275039Y-128875500D01*
X112418957Y-128875500D01*
X112418959Y-128875500D01*
X112557051Y-128834953D01*
X112557054Y-128834950D01*
X112558160Y-128834447D01*
X112560529Y-128833931D01*
X112563845Y-128832958D01*
X112563914Y-128833195D01*
X112599286Y-128825500D01*
X113484309Y-128825500D01*
X113574669Y-128801287D01*
X113574672Y-128801287D01*
X113587903Y-128797741D01*
X113598887Y-128794799D01*
X113701614Y-128735489D01*
X117935489Y-124501614D01*
X117964690Y-124451035D01*
X117994767Y-124398942D01*
X117994776Y-124398924D01*
X117994798Y-124398887D01*
X117994799Y-124398886D01*
X118025500Y-124284309D01*
X118025500Y-110780195D01*
X121944457Y-110780195D01*
X121944457Y-110780204D01*
X121964611Y-111139097D01*
X121964614Y-111139117D01*
X122024824Y-111493487D01*
X122024828Y-111493507D01*
X122124340Y-111838923D01*
X122261907Y-112171037D01*
X122435787Y-112485649D01*
X122435789Y-112485652D01*
X122643806Y-112778823D01*
X122883339Y-113046861D01*
X123151377Y-113286394D01*
X123444548Y-113494411D01*
X123444550Y-113494412D01*
X123759163Y-113668292D01*
X123759162Y-113668292D01*
X124091276Y-113805859D01*
X124436692Y-113905371D01*
X124436695Y-113905371D01*
X124436700Y-113905373D01*
X124791093Y-113965587D01*
X124791096Y-113965587D01*
X124791102Y-113965588D01*
X125149995Y-113985743D01*
X125150000Y-113985743D01*
X125150005Y-113985743D01*
X125508897Y-113965588D01*
X125508901Y-113965587D01*
X125508907Y-113965587D01*
X125863300Y-113905373D01*
X126208724Y-113805859D01*
X126540833Y-113668294D01*
X126855452Y-113494411D01*
X127148623Y-113286394D01*
X127416661Y-113046861D01*
X127656194Y-112778823D01*
X127864211Y-112485652D01*
X128038094Y-112171033D01*
X128175659Y-111838924D01*
X128275173Y-111493500D01*
X128335387Y-111139107D01*
X128336332Y-111122296D01*
X128355543Y-110780204D01*
X128355543Y-110780195D01*
X148994693Y-110780195D01*
X148994693Y-110780204D01*
X149013902Y-111122276D01*
X149013905Y-111122296D01*
X149071293Y-111460058D01*
X149071297Y-111460076D01*
X149166146Y-111789302D01*
X149297265Y-112105852D01*
X149462995Y-112405716D01*
X149462998Y-112405721D01*
X149661265Y-112685153D01*
X149816280Y-112858615D01*
X149889565Y-112940621D01*
X149889578Y-112940634D01*
X149959868Y-113003449D01*
X150145047Y-113168935D01*
X150424479Y-113367202D01*
X150424483Y-113367204D01*
X150724348Y-113532934D01*
X150724347Y-113532934D01*
X150724352Y-113532936D01*
X151040896Y-113664053D01*
X151370130Y-113758904D01*
X151370138Y-113758905D01*
X151370141Y-113758906D01*
X151539022Y-113787600D01*
X151707914Y-113816296D01*
X151707917Y-113816296D01*
X151707923Y-113816297D01*
X152049995Y-113835507D01*
X152050000Y-113835507D01*
X152050005Y-113835507D01*
X152392076Y-113816297D01*
X152392080Y-113816296D01*
X152392086Y-113816296D01*
X152729870Y-113758904D01*
X153059104Y-113664053D01*
X153375648Y-113532936D01*
X153675521Y-113367202D01*
X153954953Y-113168935D01*
X154210428Y-112940628D01*
X154438735Y-112685153D01*
X154637002Y-112405721D01*
X154802736Y-112105848D01*
X154933853Y-111789304D01*
X155028704Y-111460070D01*
X155086096Y-111122286D01*
X155105307Y-110780200D01*
X155086096Y-110438114D01*
X155028704Y-110100330D01*
X154933853Y-109771096D01*
X154802736Y-109454552D01*
X154802734Y-109454547D01*
X154637004Y-109154683D01*
X154637002Y-109154679D01*
X154438735Y-108875247D01*
X154273249Y-108690068D01*
X154210434Y-108619778D01*
X154210421Y-108619765D01*
X154091561Y-108513546D01*
X153954953Y-108391465D01*
X153675521Y-108193198D01*
X153675516Y-108193195D01*
X153375651Y-108027465D01*
X153375652Y-108027465D01*
X153059102Y-107896346D01*
X152729876Y-107801497D01*
X152729858Y-107801493D01*
X152392096Y-107744105D01*
X152392076Y-107744102D01*
X152050005Y-107724893D01*
X152049995Y-107724893D01*
X151707923Y-107744102D01*
X151707903Y-107744105D01*
X151370141Y-107801493D01*
X151370123Y-107801497D01*
X151040897Y-107896346D01*
X150724347Y-108027465D01*
X150424483Y-108193195D01*
X150424479Y-108193198D01*
X150145047Y-108391465D01*
X150070031Y-108458502D01*
X149889578Y-108619765D01*
X149889565Y-108619778D01*
X149744974Y-108781577D01*
X149661265Y-108875247D01*
X149661263Y-108875250D01*
X149462995Y-109154683D01*
X149297265Y-109454547D01*
X149166146Y-109771097D01*
X149071297Y-110100323D01*
X149071293Y-110100341D01*
X149013905Y-110438103D01*
X149013902Y-110438123D01*
X148994693Y-110780195D01*
X128355543Y-110780195D01*
X128335388Y-110421302D01*
X128335385Y-110421282D01*
X128275175Y-110066912D01*
X128275171Y-110066892D01*
X128175659Y-109721476D01*
X128038092Y-109389362D01*
X127864212Y-109074750D01*
X127656197Y-108781581D01*
X127656196Y-108781580D01*
X127656194Y-108781577D01*
X127416661Y-108513539D01*
X127148623Y-108274006D01*
X127148620Y-108274004D01*
X127148618Y-108274002D01*
X126855449Y-108065987D01*
X126540836Y-107892107D01*
X126540837Y-107892107D01*
X126208723Y-107754540D01*
X125863307Y-107655028D01*
X125863287Y-107655024D01*
X125508917Y-107594814D01*
X125508897Y-107594811D01*
X125150005Y-107574657D01*
X125149995Y-107574657D01*
X124791102Y-107594811D01*
X124791082Y-107594814D01*
X124436712Y-107655024D01*
X124436692Y-107655028D01*
X124091276Y-107754540D01*
X123759162Y-107892107D01*
X123444550Y-108065987D01*
X123151381Y-108274002D01*
X122883346Y-108513532D01*
X122883332Y-108513546D01*
X122643802Y-108781581D01*
X122435787Y-109074750D01*
X122261907Y-109389362D01*
X122124340Y-109721476D01*
X122024828Y-110066892D01*
X122024824Y-110066912D01*
X121964614Y-110421282D01*
X121964611Y-110421302D01*
X121944457Y-110780195D01*
X118025500Y-110780195D01*
X118025500Y-106022611D01*
X118044407Y-105964420D01*
X118054496Y-105952607D01*
X124407603Y-99599500D01*
X133610490Y-90396614D01*
X133669799Y-90293886D01*
X133696572Y-90193967D01*
X133700500Y-90179309D01*
X133700500Y-86982932D01*
X133719407Y-86924741D01*
X133720936Y-86922693D01*
X133774536Y-86852841D01*
X133835044Y-86706762D01*
X133855682Y-86550000D01*
X133835044Y-86393238D01*
X133774537Y-86247161D01*
X133774537Y-86247160D01*
X133678286Y-86121723D01*
X133678285Y-86121722D01*
X133678282Y-86121718D01*
X133678277Y-86121714D01*
X133678276Y-86121713D01*
X133552838Y-86025462D01*
X133406766Y-85964957D01*
X133406758Y-85964955D01*
X133250001Y-85944318D01*
X133249999Y-85944318D01*
X133093241Y-85964955D01*
X133093233Y-85964957D01*
X132947161Y-86025462D01*
X132947160Y-86025462D01*
X132821723Y-86121713D01*
X132821713Y-86121723D01*
X132725462Y-86247160D01*
X132725462Y-86247161D01*
X132664957Y-86393233D01*
X132664955Y-86393241D01*
X132644318Y-86549999D01*
X132644318Y-86550000D01*
X132664955Y-86706758D01*
X132664957Y-86706766D01*
X132725462Y-86852838D01*
X132725463Y-86852840D01*
X132725464Y-86852841D01*
X132779042Y-86922665D01*
X132799466Y-86980340D01*
X132799500Y-86982932D01*
X132799500Y-89892388D01*
X132780593Y-89950579D01*
X132770504Y-89962392D01*
X117214508Y-105518389D01*
X117214507Y-105518390D01*
X117155202Y-105621109D01*
X117155201Y-105621112D01*
X117148712Y-105645324D01*
X117148713Y-105645325D01*
X117124500Y-105735691D01*
X117124500Y-123997389D01*
X117105593Y-124055580D01*
X117095504Y-124067393D01*
X113267393Y-127895504D01*
X113212876Y-127923281D01*
X113197389Y-127924500D01*
X113083718Y-127924500D01*
X113025527Y-127905593D01*
X112989563Y-127856093D01*
X112989563Y-127794907D01*
X113013714Y-127755496D01*
X113038302Y-127730908D01*
X113112282Y-127620187D01*
X113142318Y-127575238D01*
X113142319Y-127575234D01*
X113142322Y-127575231D01*
X113213973Y-127402251D01*
X113250500Y-127218616D01*
X113250500Y-127031384D01*
X113213973Y-126847749D01*
X113142322Y-126674769D01*
X113142320Y-126674767D01*
X113142318Y-126674761D01*
X113082649Y-126585463D01*
X113038302Y-126519092D01*
X112905908Y-126386698D01*
X112861559Y-126357065D01*
X112750238Y-126282681D01*
X112750229Y-126282677D01*
X112577249Y-126211026D01*
X112393618Y-126174500D01*
X112393616Y-126174500D01*
X111034718Y-126174500D01*
X110976527Y-126155593D01*
X110964714Y-126145504D01*
X110329496Y-125510286D01*
X110301719Y-125455769D01*
X110300500Y-125440282D01*
X110300500Y-107009718D01*
X110319407Y-106951527D01*
X110329496Y-106939714D01*
X112014714Y-105254496D01*
X112069231Y-105226719D01*
X112084718Y-105225500D01*
X115667496Y-105225500D01*
X115667497Y-105225500D01*
X115802831Y-105198580D01*
X115930314Y-105145775D01*
X116045046Y-105069114D01*
X129494114Y-91620046D01*
X129570775Y-91505314D01*
X129623580Y-91377831D01*
X129650500Y-91242496D01*
X129650500Y-87781007D01*
X129623580Y-87645672D01*
X129570775Y-87518189D01*
X129570774Y-87518187D01*
X129570771Y-87518182D01*
X129494114Y-87403458D01*
X129396541Y-87305885D01*
X129281817Y-87229228D01*
X129281806Y-87229222D01*
X129154328Y-87176420D01*
X129018995Y-87149500D01*
X129018993Y-87149500D01*
X128881007Y-87149500D01*
X128881004Y-87149500D01*
X128745672Y-87176420D01*
X128745670Y-87176420D01*
X128618193Y-87229222D01*
X128618182Y-87229228D01*
X128503458Y-87305885D01*
X128405885Y-87403458D01*
X128329228Y-87518182D01*
X128329222Y-87518193D01*
X128276420Y-87645670D01*
X128276420Y-87645672D01*
X128249500Y-87781004D01*
X128249500Y-90842338D01*
X128230593Y-90900529D01*
X128220504Y-90912342D01*
X118344504Y-100788342D01*
X118289987Y-100816119D01*
X118229555Y-100806548D01*
X118186290Y-100763283D01*
X118175500Y-100718338D01*
X118175500Y-100339897D01*
X118184446Y-100298771D01*
X118210165Y-100242457D01*
X118210165Y-100242455D01*
X118210166Y-100242454D01*
X118230647Y-100100002D01*
X118230647Y-100099997D01*
X118210165Y-99957543D01*
X118150377Y-99826628D01*
X118150377Y-99826627D01*
X118056128Y-99717857D01*
X118056127Y-99717856D01*
X118056126Y-99717855D01*
X117935057Y-99640049D01*
X117935054Y-99640047D01*
X117935053Y-99640047D01*
X117935050Y-99640046D01*
X117796964Y-99599500D01*
X117796961Y-99599500D01*
X117653039Y-99599500D01*
X117653035Y-99599500D01*
X117514949Y-99640046D01*
X117514942Y-99640049D01*
X117393873Y-99717855D01*
X117299622Y-99826628D01*
X117239834Y-99957543D01*
X117219353Y-100099997D01*
X117219353Y-100100002D01*
X117239833Y-100242454D01*
X117253286Y-100271911D01*
X117265553Y-100298771D01*
X117274500Y-100339897D01*
X117274500Y-100827389D01*
X117255593Y-100885580D01*
X117245504Y-100897393D01*
X115922393Y-102220504D01*
X115867876Y-102248281D01*
X115852389Y-102249500D01*
X110317493Y-102249500D01*
X110259302Y-102230593D01*
X110223338Y-102181093D01*
X110223338Y-102119907D01*
X110227440Y-102109373D01*
X110235165Y-102092456D01*
X110255647Y-101950002D01*
X110255647Y-101949997D01*
X110235165Y-101807543D01*
X110175377Y-101676628D01*
X110175377Y-101676627D01*
X110081128Y-101567857D01*
X110081127Y-101567856D01*
X110081126Y-101567855D01*
X109960057Y-101490049D01*
X109960054Y-101490047D01*
X109960053Y-101490047D01*
X109960050Y-101490046D01*
X109821964Y-101449500D01*
X109821961Y-101449500D01*
X109678039Y-101449500D01*
X109678035Y-101449500D01*
X109539943Y-101490048D01*
X109538838Y-101490553D01*
X109536468Y-101491068D01*
X109533153Y-101492042D01*
X109533083Y-101491804D01*
X109497712Y-101499500D01*
X106977611Y-101499500D01*
X106919420Y-101480593D01*
X106907607Y-101470504D01*
X105904496Y-100467393D01*
X105876719Y-100412876D01*
X105875500Y-100397389D01*
X105875500Y-97702611D01*
X105894407Y-97644420D01*
X105904496Y-97632607D01*
X106107607Y-97429496D01*
X106162124Y-97401719D01*
X106177611Y-97400500D01*
X106372712Y-97400500D01*
X106408083Y-97408195D01*
X106408153Y-97407958D01*
X106411468Y-97408931D01*
X106413838Y-97409447D01*
X106414943Y-97409951D01*
X106414944Y-97409951D01*
X106414947Y-97409953D01*
X106528939Y-97443423D01*
X106553035Y-97450499D01*
X106553036Y-97450499D01*
X106553039Y-97450500D01*
X106553041Y-97450500D01*
X106696959Y-97450500D01*
X106696961Y-97450500D01*
X106835053Y-97409953D01*
X106956128Y-97332143D01*
X107050377Y-97223373D01*
X107110165Y-97092457D01*
X107130647Y-96950000D01*
X107110165Y-96807543D01*
X107050377Y-96676627D01*
X106956128Y-96567857D01*
X106956127Y-96567856D01*
X106956126Y-96567855D01*
X106835057Y-96490049D01*
X106835054Y-96490047D01*
X106835053Y-96490047D01*
X106835050Y-96490046D01*
X106696964Y-96449500D01*
X106696961Y-96449500D01*
X106553039Y-96449500D01*
X106553035Y-96449500D01*
X106414943Y-96490048D01*
X106413838Y-96490553D01*
X106411468Y-96491068D01*
X106408153Y-96492042D01*
X106408083Y-96491804D01*
X106372712Y-96499500D01*
X105890691Y-96499500D01*
X105877924Y-96502921D01*
X105800325Y-96523713D01*
X105800324Y-96523712D01*
X105769847Y-96531880D01*
X105769514Y-96530638D01*
X105715357Y-96534895D01*
X105663191Y-96502921D01*
X105639781Y-96446391D01*
X105654071Y-96386897D01*
X105668474Y-96368629D01*
X106147608Y-95889496D01*
X106202124Y-95861719D01*
X106217611Y-95860500D01*
X106472712Y-95860500D01*
X106508083Y-95868195D01*
X106508153Y-95867958D01*
X106511468Y-95868931D01*
X106513838Y-95869447D01*
X106514943Y-95869951D01*
X106514944Y-95869951D01*
X106514947Y-95869953D01*
X106628939Y-95903423D01*
X106653035Y-95910499D01*
X106653036Y-95910499D01*
X106653039Y-95910500D01*
X106653041Y-95910500D01*
X106796959Y-95910500D01*
X106796961Y-95910500D01*
X106935053Y-95869953D01*
X107056128Y-95792143D01*
X107150377Y-95683373D01*
X107210165Y-95552457D01*
X107227463Y-95432144D01*
X107230647Y-95410002D01*
X107230647Y-95409997D01*
X107210165Y-95267543D01*
X107175874Y-95192457D01*
X107150377Y-95136627D01*
X107075312Y-95049997D01*
X114044353Y-95049997D01*
X114044353Y-95050002D01*
X114064834Y-95192456D01*
X114099126Y-95267543D01*
X114124623Y-95323373D01*
X114193682Y-95403072D01*
X114218873Y-95432144D01*
X114339942Y-95509950D01*
X114339947Y-95509953D01*
X114446403Y-95541211D01*
X114478035Y-95550499D01*
X114478036Y-95550499D01*
X114478039Y-95550500D01*
X114478041Y-95550500D01*
X114621959Y-95550500D01*
X114621961Y-95550500D01*
X114760053Y-95509953D01*
X114881128Y-95432143D01*
X114886480Y-95427506D01*
X114887968Y-95429223D01*
X114931341Y-95403072D01*
X114953759Y-95400500D01*
X117246241Y-95400500D01*
X117304432Y-95419407D01*
X117313403Y-95427640D01*
X117313520Y-95427506D01*
X117318871Y-95432143D01*
X117439942Y-95509950D01*
X117439947Y-95509953D01*
X117546403Y-95541211D01*
X117578035Y-95550499D01*
X117578036Y-95550499D01*
X117578039Y-95550500D01*
X117578041Y-95550500D01*
X117721959Y-95550500D01*
X117721961Y-95550500D01*
X117860053Y-95509953D01*
X117981128Y-95432143D01*
X118075377Y-95323373D01*
X118135165Y-95192457D01*
X118155647Y-95050000D01*
X118155576Y-95049507D01*
X118135165Y-94907543D01*
X118075377Y-94776628D01*
X118075377Y-94776627D01*
X117981128Y-94667857D01*
X117981127Y-94667856D01*
X117981126Y-94667855D01*
X117860057Y-94590049D01*
X117860054Y-94590047D01*
X117860053Y-94590047D01*
X117860050Y-94590046D01*
X117721964Y-94549500D01*
X117721961Y-94549500D01*
X117578039Y-94549500D01*
X117578035Y-94549500D01*
X117439949Y-94590046D01*
X117439942Y-94590049D01*
X117318871Y-94667856D01*
X117313520Y-94672494D01*
X117312031Y-94670776D01*
X117268659Y-94696928D01*
X117246241Y-94699500D01*
X114953759Y-94699500D01*
X114895568Y-94680593D01*
X114886596Y-94672359D01*
X114886480Y-94672494D01*
X114881128Y-94667856D01*
X114760057Y-94590049D01*
X114760054Y-94590047D01*
X114760053Y-94590047D01*
X114760050Y-94590046D01*
X114621964Y-94549500D01*
X114621961Y-94549500D01*
X114478039Y-94549500D01*
X114478035Y-94549500D01*
X114339949Y-94590046D01*
X114339942Y-94590049D01*
X114218873Y-94667855D01*
X114124622Y-94776628D01*
X114064834Y-94907543D01*
X114044353Y-95049997D01*
X107075312Y-95049997D01*
X107056128Y-95027857D01*
X107056127Y-95027856D01*
X107056126Y-95027855D01*
X106935057Y-94950049D01*
X106935054Y-94950047D01*
X106935053Y-94950047D01*
X106935050Y-94950046D01*
X106796964Y-94909500D01*
X106796961Y-94909500D01*
X106653039Y-94909500D01*
X106653035Y-94909500D01*
X106514943Y-94950048D01*
X106513838Y-94950553D01*
X106511468Y-94951068D01*
X106508153Y-94952042D01*
X106508083Y-94951804D01*
X106472712Y-94959500D01*
X105930691Y-94959500D01*
X105885508Y-94971606D01*
X105840325Y-94983713D01*
X105840324Y-94983712D01*
X105816112Y-94990201D01*
X105816109Y-94990202D01*
X105713390Y-95049507D01*
X104364507Y-96398390D01*
X104305200Y-96501112D01*
X104305200Y-96501113D01*
X104305201Y-96501114D01*
X104274500Y-96615692D01*
X92425500Y-96615692D01*
X92425500Y-77575528D01*
X92444407Y-77517337D01*
X92454490Y-77505530D01*
X101195152Y-68764867D01*
X101249667Y-68737092D01*
X101310099Y-68746663D01*
X101353364Y-68789928D01*
X101356618Y-68796988D01*
X101400462Y-68902838D01*
X101400462Y-68902839D01*
X101400464Y-68902841D01*
X101496718Y-69028282D01*
X101622159Y-69124536D01*
X101768238Y-69185044D01*
X101885809Y-69200522D01*
X101924999Y-69205682D01*
X101925000Y-69205682D01*
X101925001Y-69205682D01*
X101956352Y-69201554D01*
X102081762Y-69185044D01*
X102227841Y-69124536D01*
X102353282Y-69028282D01*
X102449536Y-68902841D01*
X102510044Y-68756762D01*
X102530682Y-68600000D01*
X102510044Y-68443238D01*
X102449537Y-68297161D01*
X102449537Y-68297160D01*
X102353286Y-68171723D01*
X102353285Y-68171722D01*
X102353282Y-68171718D01*
X102353277Y-68171714D01*
X102353276Y-68171713D01*
X102227838Y-68075462D01*
X102121988Y-68031618D01*
X102075462Y-67991882D01*
X102061178Y-67932387D01*
X102084593Y-67875859D01*
X102089856Y-67870163D01*
X102485020Y-67474999D01*
X106294318Y-67474999D01*
X106294318Y-67475000D01*
X106314955Y-67631758D01*
X106314957Y-67631766D01*
X106375462Y-67777838D01*
X106375462Y-67777839D01*
X106461239Y-67889626D01*
X106471718Y-67903282D01*
X106597159Y-67999536D01*
X106597160Y-67999536D01*
X106597161Y-67999537D01*
X106743233Y-68060042D01*
X106743238Y-68060044D01*
X106900000Y-68080682D01*
X106987377Y-68069178D01*
X107047535Y-68080328D01*
X107089653Y-68124710D01*
X107097639Y-68185371D01*
X107078840Y-68227598D01*
X107025461Y-68297163D01*
X106964957Y-68443233D01*
X106964955Y-68443241D01*
X106944318Y-68599999D01*
X106944318Y-68600000D01*
X106964955Y-68756758D01*
X106964957Y-68756766D01*
X107025462Y-68902838D01*
X107025462Y-68902839D01*
X107025464Y-68902841D01*
X107121718Y-69028282D01*
X107247159Y-69124536D01*
X107393238Y-69185044D01*
X107510809Y-69200522D01*
X107549999Y-69205682D01*
X107550000Y-69205682D01*
X107550001Y-69205682D01*
X107581352Y-69201554D01*
X107706762Y-69185044D01*
X107852841Y-69124536D01*
X107978282Y-69028282D01*
X108074536Y-68902841D01*
X108135044Y-68756762D01*
X108155682Y-68600000D01*
X108135044Y-68443238D01*
X108074537Y-68297161D01*
X108074537Y-68297160D01*
X107978286Y-68171723D01*
X107978285Y-68171722D01*
X107978282Y-68171718D01*
X107978277Y-68171714D01*
X107978276Y-68171713D01*
X107852838Y-68075462D01*
X107706766Y-68014957D01*
X107706758Y-68014955D01*
X107550001Y-67994318D01*
X107549999Y-67994318D01*
X107462624Y-68005821D01*
X107402463Y-67994671D01*
X107360346Y-67950288D01*
X107352360Y-67889626D01*
X107371157Y-67847405D01*
X107424536Y-67777841D01*
X107485044Y-67631762D01*
X107505682Y-67475000D01*
X107485044Y-67318238D01*
X107424537Y-67172161D01*
X107424537Y-67172160D01*
X107328286Y-67046723D01*
X107328285Y-67046722D01*
X107328282Y-67046718D01*
X107328277Y-67046714D01*
X107328276Y-67046713D01*
X107202838Y-66950462D01*
X107056766Y-66889957D01*
X107056758Y-66889955D01*
X106900001Y-66869318D01*
X106899999Y-66869318D01*
X106743241Y-66889955D01*
X106743233Y-66889957D01*
X106597161Y-66950462D01*
X106597160Y-66950462D01*
X106471723Y-67046713D01*
X106471713Y-67046723D01*
X106375462Y-67172160D01*
X106375462Y-67172161D01*
X106314957Y-67318233D01*
X106314955Y-67318241D01*
X106294318Y-67474999D01*
X102485020Y-67474999D01*
X104780525Y-65179496D01*
X104835042Y-65151719D01*
X104850529Y-65150500D01*
X105272712Y-65150500D01*
X105308083Y-65158195D01*
X105308153Y-65157958D01*
X105311468Y-65158931D01*
X105313838Y-65159447D01*
X105314943Y-65159951D01*
X105314944Y-65159951D01*
X105314947Y-65159953D01*
X105428939Y-65193423D01*
X105453035Y-65200499D01*
X105453036Y-65200499D01*
X105453039Y-65200500D01*
X105453041Y-65200500D01*
X105596959Y-65200500D01*
X105596961Y-65200500D01*
X105735053Y-65159953D01*
X105856128Y-65082143D01*
X105950377Y-64973373D01*
X106010165Y-64842457D01*
X106024304Y-64744120D01*
X106030647Y-64700002D01*
X106030647Y-64699997D01*
X106010165Y-64557543D01*
X105950377Y-64426628D01*
X105950377Y-64426627D01*
X105856128Y-64317857D01*
X105801552Y-64282783D01*
X105762822Y-64235418D01*
X105759329Y-64174332D01*
X105792409Y-64122860D01*
X105849425Y-64100661D01*
X105855077Y-64100500D01*
X108492068Y-64100500D01*
X108550259Y-64119407D01*
X108552315Y-64120943D01*
X108622159Y-64174536D01*
X108622160Y-64174536D01*
X108622161Y-64174537D01*
X108682427Y-64199500D01*
X108768238Y-64235044D01*
X108878043Y-64249500D01*
X108924999Y-64255682D01*
X108925000Y-64255682D01*
X108925001Y-64255682D01*
X108971957Y-64249500D01*
X109081762Y-64235044D01*
X109214659Y-64179996D01*
X132084611Y-64179996D01*
X132084611Y-64180003D01*
X132104119Y-64378087D01*
X132104120Y-64378093D01*
X132155551Y-64547636D01*
X132161903Y-64568573D01*
X132255735Y-64744120D01*
X132255737Y-64744122D01*
X132255738Y-64744124D01*
X132382007Y-64897983D01*
X132382016Y-64897992D01*
X132535875Y-65024261D01*
X132535880Y-65024265D01*
X132711427Y-65118097D01*
X132850475Y-65160277D01*
X132901906Y-65175879D01*
X132901912Y-65175880D01*
X133099997Y-65195389D01*
X133100000Y-65195389D01*
X133100003Y-65195389D01*
X133298087Y-65175880D01*
X133298093Y-65175879D01*
X133488573Y-65118097D01*
X133664120Y-65024265D01*
X133817988Y-64897988D01*
X133944265Y-64744120D01*
X134038097Y-64568573D01*
X134095879Y-64378093D01*
X134096377Y-64373042D01*
X134115389Y-64180003D01*
X134115389Y-64179996D01*
X134095880Y-63981912D01*
X134095879Y-63981906D01*
X134071072Y-63900129D01*
X134038097Y-63791427D01*
X133944265Y-63615880D01*
X133865436Y-63519827D01*
X133817992Y-63462016D01*
X133817983Y-63462007D01*
X133664124Y-63335738D01*
X133664122Y-63335737D01*
X133664120Y-63335735D01*
X133538441Y-63268558D01*
X133488581Y-63241907D01*
X133488578Y-63241906D01*
X133488573Y-63241903D01*
X133467636Y-63235551D01*
X133298093Y-63184120D01*
X133298087Y-63184119D01*
X133100003Y-63164611D01*
X133099997Y-63164611D01*
X132901912Y-63184119D01*
X132901906Y-63184120D01*
X132711433Y-63241901D01*
X132711431Y-63241901D01*
X132711427Y-63241903D01*
X132711424Y-63241904D01*
X132711418Y-63241907D01*
X132535885Y-63335732D01*
X132535875Y-63335738D01*
X132382016Y-63462007D01*
X132382007Y-63462016D01*
X132255738Y-63615875D01*
X132255732Y-63615885D01*
X132161907Y-63791418D01*
X132161901Y-63791433D01*
X132104120Y-63981906D01*
X132104119Y-63981912D01*
X132084611Y-64179996D01*
X109214659Y-64179996D01*
X109227841Y-64174536D01*
X109353282Y-64078282D01*
X109449536Y-63952841D01*
X109510044Y-63806762D01*
X109530682Y-63650000D01*
X109510044Y-63493238D01*
X109489398Y-63443394D01*
X109449537Y-63347161D01*
X109449537Y-63347160D01*
X109353286Y-63221723D01*
X109353285Y-63221722D01*
X109353282Y-63221718D01*
X109353277Y-63221714D01*
X109353276Y-63221713D01*
X109282104Y-63167101D01*
X109227841Y-63125464D01*
X109227840Y-63125463D01*
X109227838Y-63125462D01*
X109081766Y-63064957D01*
X109081758Y-63064955D01*
X108925001Y-63044318D01*
X108924999Y-63044318D01*
X108768241Y-63064955D01*
X108768233Y-63064957D01*
X108622161Y-63125462D01*
X108583994Y-63154748D01*
X108552334Y-63179042D01*
X108494659Y-63199466D01*
X108492068Y-63199500D01*
X104623659Y-63199500D01*
X104540741Y-63221718D01*
X104540740Y-63221717D01*
X104509079Y-63230201D01*
X104509077Y-63230202D01*
X104406358Y-63289507D01*
X90914507Y-76781358D01*
X90855202Y-76884077D01*
X90855201Y-76884080D01*
X90848712Y-76908292D01*
X90848713Y-76908293D01*
X90824500Y-76998659D01*
X83810500Y-76998659D01*
X83810500Y-55079996D01*
X132084611Y-55079996D01*
X132084611Y-55080003D01*
X132104119Y-55278087D01*
X132104120Y-55278093D01*
X132153616Y-55441256D01*
X132161903Y-55468573D01*
X132255735Y-55644120D01*
X132255737Y-55644122D01*
X132255738Y-55644124D01*
X132382007Y-55797983D01*
X132382016Y-55797992D01*
X132515452Y-55907500D01*
X132535880Y-55924265D01*
X132711427Y-56018097D01*
X132818202Y-56050487D01*
X132901906Y-56075879D01*
X132901912Y-56075880D01*
X133099997Y-56095389D01*
X133100000Y-56095389D01*
X133100003Y-56095389D01*
X133298087Y-56075880D01*
X133298093Y-56075879D01*
X133488573Y-56018097D01*
X133538420Y-55991453D01*
X135088720Y-55991453D01*
X135089496Y-56079535D01*
X135089500Y-56080407D01*
X135089500Y-63179591D01*
X135089496Y-63180463D01*
X135088720Y-63268546D01*
X135088721Y-63268558D01*
X135118163Y-63443388D01*
X135118165Y-63443396D01*
X135145509Y-63519827D01*
X135177891Y-63610341D01*
X135200613Y-63649999D01*
X135266041Y-63764192D01*
X135379851Y-63900129D01*
X135379870Y-63900148D01*
X135515807Y-64013958D01*
X135515810Y-64013960D01*
X135515813Y-64013962D01*
X135669659Y-64102109D01*
X135836606Y-64161835D01*
X135836609Y-64161835D01*
X135836611Y-64161836D01*
X135944471Y-64180000D01*
X136011453Y-64191280D01*
X136099536Y-64190504D01*
X136100408Y-64190500D01*
X143199592Y-64190500D01*
X143200464Y-64190504D01*
X143288547Y-64191280D01*
X143355552Y-64179996D01*
X145184611Y-64179996D01*
X145184611Y-64180003D01*
X145204119Y-64378087D01*
X145204120Y-64378093D01*
X145255551Y-64547636D01*
X145261903Y-64568573D01*
X145355735Y-64744120D01*
X145355737Y-64744122D01*
X145355738Y-64744124D01*
X145482007Y-64897983D01*
X145482016Y-64897992D01*
X145635875Y-65024261D01*
X145635880Y-65024265D01*
X145811427Y-65118097D01*
X145950475Y-65160277D01*
X146001906Y-65175879D01*
X146001912Y-65175880D01*
X146199997Y-65195389D01*
X146200000Y-65195389D01*
X146200003Y-65195389D01*
X146398087Y-65175880D01*
X146398093Y-65175879D01*
X146588573Y-65118097D01*
X146764120Y-65024265D01*
X146917988Y-64897988D01*
X147044265Y-64744120D01*
X147138097Y-64568573D01*
X147195879Y-64378093D01*
X147196377Y-64373042D01*
X147215389Y-64180003D01*
X147215389Y-64179996D01*
X147195880Y-63981912D01*
X147195879Y-63981906D01*
X147171072Y-63900129D01*
X147138097Y-63791427D01*
X147044265Y-63615880D01*
X146965436Y-63519827D01*
X146917992Y-63462016D01*
X146917983Y-63462007D01*
X146764124Y-63335738D01*
X146764122Y-63335737D01*
X146764120Y-63335735D01*
X146638441Y-63268558D01*
X146588581Y-63241907D01*
X146588578Y-63241906D01*
X146588573Y-63241903D01*
X146567636Y-63235551D01*
X146398093Y-63184120D01*
X146398087Y-63184119D01*
X146200003Y-63164611D01*
X146199997Y-63164611D01*
X146001912Y-63184119D01*
X146001906Y-63184120D01*
X145811433Y-63241901D01*
X145811431Y-63241901D01*
X145811427Y-63241903D01*
X145811424Y-63241904D01*
X145811418Y-63241907D01*
X145635885Y-63335732D01*
X145635875Y-63335738D01*
X145482016Y-63462007D01*
X145482007Y-63462016D01*
X145355738Y-63615875D01*
X145355732Y-63615885D01*
X145261907Y-63791418D01*
X145261901Y-63791433D01*
X145204120Y-63981906D01*
X145204119Y-63981912D01*
X145184611Y-64179996D01*
X143355552Y-64179996D01*
X143463394Y-64161835D01*
X143630341Y-64102109D01*
X143784187Y-64013962D01*
X143822474Y-63981907D01*
X143920129Y-63900148D01*
X143920132Y-63900144D01*
X143920139Y-63900139D01*
X143920144Y-63900132D01*
X143920148Y-63900129D01*
X144033958Y-63764192D01*
X144033958Y-63764191D01*
X144033962Y-63764187D01*
X144122109Y-63610341D01*
X144181835Y-63443394D01*
X144211280Y-63268547D01*
X144210504Y-63180463D01*
X144210500Y-63179591D01*
X144210500Y-56080407D01*
X144210504Y-56079535D01*
X144211045Y-56018092D01*
X144211280Y-55991453D01*
X144181835Y-55816606D01*
X144122109Y-55649659D01*
X144033962Y-55495813D01*
X144033960Y-55495810D01*
X144033958Y-55495807D01*
X143920148Y-55359870D01*
X143920129Y-55359851D01*
X143784192Y-55246041D01*
X143630339Y-55157890D01*
X143463396Y-55098165D01*
X143463388Y-55098163D01*
X143355510Y-55079996D01*
X145184611Y-55079996D01*
X145184611Y-55080003D01*
X145204119Y-55278087D01*
X145204120Y-55278093D01*
X145253616Y-55441256D01*
X145261903Y-55468573D01*
X145355735Y-55644120D01*
X145355737Y-55644122D01*
X145355738Y-55644124D01*
X145482007Y-55797983D01*
X145482016Y-55797992D01*
X145615452Y-55907500D01*
X145635880Y-55924265D01*
X145811427Y-56018097D01*
X145918202Y-56050487D01*
X146001906Y-56075879D01*
X146001912Y-56075880D01*
X146199997Y-56095389D01*
X146200000Y-56095389D01*
X146200003Y-56095389D01*
X146398087Y-56075880D01*
X146398093Y-56075879D01*
X146588573Y-56018097D01*
X146764120Y-55924265D01*
X146917988Y-55797988D01*
X147044265Y-55644120D01*
X147138097Y-55468573D01*
X147195879Y-55278093D01*
X147196377Y-55273042D01*
X147215389Y-55080003D01*
X147215389Y-55079996D01*
X147195880Y-54881912D01*
X147195879Y-54881906D01*
X147180277Y-54830475D01*
X147138097Y-54691427D01*
X147044265Y-54515880D01*
X147044261Y-54515875D01*
X146917992Y-54362016D01*
X146917983Y-54362007D01*
X146764124Y-54235738D01*
X146764122Y-54235737D01*
X146764120Y-54235735D01*
X146688885Y-54195521D01*
X146588581Y-54141907D01*
X146588578Y-54141906D01*
X146588573Y-54141903D01*
X146567636Y-54135551D01*
X146398093Y-54084120D01*
X146398087Y-54084119D01*
X146200003Y-54064611D01*
X146199997Y-54064611D01*
X146001912Y-54084119D01*
X146001906Y-54084120D01*
X145811433Y-54141901D01*
X145811431Y-54141901D01*
X145811427Y-54141903D01*
X145811424Y-54141904D01*
X145811418Y-54141907D01*
X145635885Y-54235732D01*
X145635875Y-54235738D01*
X145482016Y-54362007D01*
X145482007Y-54362016D01*
X145355738Y-54515875D01*
X145355732Y-54515885D01*
X145261907Y-54691418D01*
X145261901Y-54691433D01*
X145204120Y-54881906D01*
X145204119Y-54881912D01*
X145184611Y-55079996D01*
X143355510Y-55079996D01*
X143288558Y-55068721D01*
X143288547Y-55068720D01*
X143288546Y-55068720D01*
X143200464Y-55069496D01*
X143199592Y-55069500D01*
X136100408Y-55069500D01*
X136099536Y-55069496D01*
X136011453Y-55068720D01*
X136011441Y-55068721D01*
X135836611Y-55098163D01*
X135836603Y-55098165D01*
X135669660Y-55157890D01*
X135515807Y-55246041D01*
X135379870Y-55359851D01*
X135379851Y-55359870D01*
X135266041Y-55495807D01*
X135177890Y-55649660D01*
X135118165Y-55816603D01*
X135118163Y-55816611D01*
X135088721Y-55991441D01*
X135088720Y-55991453D01*
X133538420Y-55991453D01*
X133664120Y-55924265D01*
X133817988Y-55797988D01*
X133944265Y-55644120D01*
X134038097Y-55468573D01*
X134095879Y-55278093D01*
X134096377Y-55273042D01*
X134115389Y-55080003D01*
X134115389Y-55079996D01*
X134095880Y-54881912D01*
X134095879Y-54881906D01*
X134080277Y-54830475D01*
X134038097Y-54691427D01*
X133944265Y-54515880D01*
X133944261Y-54515875D01*
X133817992Y-54362016D01*
X133817983Y-54362007D01*
X133664124Y-54235738D01*
X133664122Y-54235737D01*
X133664120Y-54235735D01*
X133588885Y-54195521D01*
X133488581Y-54141907D01*
X133488578Y-54141906D01*
X133488573Y-54141903D01*
X133467636Y-54135551D01*
X133298093Y-54084120D01*
X133298087Y-54084119D01*
X133100003Y-54064611D01*
X133099997Y-54064611D01*
X132901912Y-54084119D01*
X132901906Y-54084120D01*
X132711433Y-54141901D01*
X132711431Y-54141901D01*
X132711427Y-54141903D01*
X132711424Y-54141904D01*
X132711418Y-54141907D01*
X132535885Y-54235732D01*
X132535875Y-54235738D01*
X132382016Y-54362007D01*
X132382007Y-54362016D01*
X132255738Y-54515875D01*
X132255732Y-54515885D01*
X132161907Y-54691418D01*
X132161901Y-54691433D01*
X132104120Y-54881906D01*
X132104119Y-54881912D01*
X132084611Y-55079996D01*
X83810500Y-55079996D01*
X83810500Y-50334721D01*
X83810934Y-50325458D01*
X83825806Y-50167216D01*
X83828870Y-50150395D01*
X83838756Y-50114197D01*
X83869712Y-50000863D01*
X83875617Y-49984840D01*
X83941579Y-49844565D01*
X83950160Y-49829786D01*
X84039269Y-49702960D01*
X84050264Y-49689876D01*
X84159876Y-49580264D01*
X84172960Y-49569269D01*
X84299786Y-49480160D01*
X84314565Y-49471579D01*
X84454840Y-49405617D01*
X84470863Y-49399712D01*
X84584197Y-49368756D01*
X84620395Y-49358870D01*
X84637216Y-49355806D01*
X84795458Y-49340934D01*
X84804721Y-49340500D01*
X89131432Y-49340500D01*
X89132250Y-49340625D01*
X89146664Y-49340523D01*
X89146665Y-49340524D01*
X89149792Y-49340502D01*
X89150488Y-49340500D01*
X89173472Y-49340500D01*
X89174228Y-49340343D01*
X89238303Y-49339931D01*
X89411904Y-49308311D01*
X89577475Y-49247292D01*
X89577477Y-49247290D01*
X89577479Y-49247290D01*
X89685164Y-49184770D01*
X89730078Y-49158694D01*
X89865161Y-49045161D01*
X89978694Y-48910078D01*
X90067292Y-48757475D01*
X90128311Y-48591904D01*
X90159931Y-48418303D01*
X90160343Y-48354228D01*
X90160500Y-48353471D01*
X90160500Y-48330488D01*
X90160502Y-48329792D01*
X90160625Y-48312250D01*
X90160500Y-48311432D01*
X90160500Y-46179996D01*
X92234611Y-46179996D01*
X92234611Y-46180003D01*
X92254119Y-46378087D01*
X92254120Y-46378093D01*
X92305551Y-46547636D01*
X92311903Y-46568573D01*
X92405735Y-46744120D01*
X92405737Y-46744122D01*
X92405738Y-46744124D01*
X92532007Y-46897983D01*
X92532016Y-46897992D01*
X92685875Y-47024261D01*
X92685880Y-47024265D01*
X92861427Y-47118097D01*
X92968202Y-47150487D01*
X93051906Y-47175879D01*
X93051912Y-47175880D01*
X93249997Y-47195389D01*
X93250000Y-47195389D01*
X93250003Y-47195389D01*
X93448087Y-47175880D01*
X93448093Y-47175879D01*
X93638573Y-47118097D01*
X93814120Y-47024265D01*
X93967988Y-46897988D01*
X94094265Y-46744120D01*
X94188097Y-46568573D01*
X94245879Y-46378093D01*
X94246377Y-46373042D01*
X94265389Y-46180003D01*
X94265389Y-46179996D01*
X162434611Y-46179996D01*
X162434611Y-46180003D01*
X162454119Y-46378087D01*
X162454120Y-46378093D01*
X162505551Y-46547636D01*
X162511903Y-46568573D01*
X162605735Y-46744120D01*
X162605737Y-46744122D01*
X162605738Y-46744124D01*
X162732007Y-46897983D01*
X162732016Y-46897992D01*
X162885875Y-47024261D01*
X162885880Y-47024265D01*
X163061427Y-47118097D01*
X163168202Y-47150487D01*
X163251906Y-47175879D01*
X163251912Y-47175880D01*
X163449997Y-47195389D01*
X163450000Y-47195389D01*
X163450003Y-47195389D01*
X163648087Y-47175880D01*
X163648093Y-47175879D01*
X163838573Y-47118097D01*
X164014120Y-47024265D01*
X164167988Y-46897988D01*
X164294265Y-46744120D01*
X164388097Y-46568573D01*
X164445879Y-46378093D01*
X164446377Y-46373042D01*
X164465389Y-46180003D01*
X164465389Y-46179996D01*
X164445880Y-45981912D01*
X164445879Y-45981906D01*
X164430277Y-45930475D01*
X164388097Y-45791427D01*
X164294265Y-45615880D01*
X164294261Y-45615875D01*
X164167992Y-45462016D01*
X164167983Y-45462007D01*
X164014124Y-45335738D01*
X164014122Y-45335737D01*
X164014120Y-45335735D01*
X163938885Y-45295521D01*
X163838581Y-45241907D01*
X163838578Y-45241906D01*
X163838573Y-45241903D01*
X163817636Y-45235551D01*
X163648093Y-45184120D01*
X163648087Y-45184119D01*
X163450003Y-45164611D01*
X163449997Y-45164611D01*
X163251912Y-45184119D01*
X163251906Y-45184120D01*
X163061433Y-45241901D01*
X163061431Y-45241901D01*
X163061427Y-45241903D01*
X163061424Y-45241904D01*
X163061418Y-45241907D01*
X162885885Y-45335732D01*
X162885875Y-45335738D01*
X162732016Y-45462007D01*
X162732007Y-45462016D01*
X162605738Y-45615875D01*
X162605732Y-45615885D01*
X162511907Y-45791418D01*
X162511901Y-45791433D01*
X162454120Y-45981906D01*
X162454119Y-45981912D01*
X162434611Y-46179996D01*
X94265389Y-46179996D01*
X94245880Y-45981912D01*
X94245879Y-45981906D01*
X94230277Y-45930475D01*
X94188097Y-45791427D01*
X94094265Y-45615880D01*
X94094261Y-45615875D01*
X93967992Y-45462016D01*
X93967983Y-45462007D01*
X93814124Y-45335738D01*
X93814122Y-45335737D01*
X93814120Y-45335735D01*
X93738885Y-45295521D01*
X93638581Y-45241907D01*
X93638578Y-45241906D01*
X93638573Y-45241903D01*
X93617636Y-45235551D01*
X93448093Y-45184120D01*
X93448087Y-45184119D01*
X93250003Y-45164611D01*
X93249997Y-45164611D01*
X93051912Y-45184119D01*
X93051906Y-45184120D01*
X92861433Y-45241901D01*
X92861431Y-45241901D01*
X92861427Y-45241903D01*
X92861424Y-45241904D01*
X92861418Y-45241907D01*
X92685885Y-45335732D01*
X92685875Y-45335738D01*
X92532016Y-45462007D01*
X92532007Y-45462016D01*
X92405738Y-45615875D01*
X92405732Y-45615885D01*
X92311907Y-45791418D01*
X92311901Y-45791433D01*
X92254120Y-45981906D01*
X92254119Y-45981912D01*
X92234611Y-46179996D01*
X90160500Y-46179996D01*
X90160500Y-41034721D01*
X90160934Y-41025458D01*
X90175806Y-40867216D01*
X90178870Y-40850395D01*
X90188756Y-40814197D01*
X90219712Y-40700863D01*
X90225617Y-40684840D01*
X90291579Y-40544565D01*
X90300160Y-40529786D01*
X90389269Y-40402960D01*
X90400264Y-40389876D01*
X90509876Y-40280264D01*
X90522960Y-40269269D01*
X90649786Y-40180160D01*
X90664565Y-40171579D01*
X90804840Y-40105617D01*
X90820863Y-40099712D01*
X90934197Y-40068756D01*
X90970395Y-40058870D01*
X90987216Y-40055806D01*
X91145458Y-40040934D01*
X91154721Y-40040500D01*
X164595279Y-40040500D01*
X164604540Y-40040933D01*
G37*
G04 #@! TD.AperFunction*
M02*
