G04 #@! TF.GenerationSoftware,KiCad,Pcbnew,8.0.2*
G04 #@! TF.CreationDate,2024-08-20T08:20:47+02:00*
G04 #@! TF.ProjectId,STS1_SIDEPANEL,53545331-5f53-4494-9445-50414e454c2e,rev?*
G04 #@! TF.SameCoordinates,Original*
G04 #@! TF.FileFunction,Legend,Top*
G04 #@! TF.FilePolarity,Positive*
%FSLAX46Y46*%
G04 Gerber Fmt 4.6, Leading zero omitted, Abs format (unit mm)*
G04 Created by KiCad (PCBNEW 8.0.2) date 2024-08-20 08:20:47*
%MOMM*%
%LPD*%
G01*
G04 APERTURE LIST*
G04 Aperture macros list*
%AMRoundRect*
0 Rectangle with rounded corners*
0 $1 Rounding radius*
0 $2 $3 $4 $5 $6 $7 $8 $9 X,Y pos of 4 corners*
0 Add a 4 corners polygon primitive as box body*
4,1,4,$2,$3,$4,$5,$6,$7,$8,$9,$2,$3,0*
0 Add four circle primitives for the rounded corners*
1,1,$1+$1,$2,$3*
1,1,$1+$1,$4,$5*
1,1,$1+$1,$6,$7*
1,1,$1+$1,$8,$9*
0 Add four rect primitives between the rounded corners*
20,1,$1+$1,$2,$3,$4,$5,0*
20,1,$1+$1,$4,$5,$6,$7,0*
20,1,$1+$1,$6,$7,$8,$9,0*
20,1,$1+$1,$8,$9,$2,$3,0*%
%AMFreePoly0*
4,1,17,27.998779,14.255902,28.009846,14.246565,39.669846,2.866565,39.698571,2.811843,39.696113,2.795000,39.700000,2.795000,39.700000,-2.795000,-39.700000,-2.795000,-39.700000,2.795000,-39.695106,2.795000,-39.695106,2.825902,-39.669846,2.866565,-28.009846,14.246565,-27.954442,14.273952,-27.940000,14.275000,27.940000,14.275000,27.998779,14.255902,27.998779,14.255902,$1*%
G04 Aperture macros list end*
%ADD10C,0.150000*%
%ADD11C,0.120000*%
%ADD12C,6.000000*%
%ADD13FreePoly0,180.000000*%
%ADD14R,79.400000X20.475000*%
%ADD15RoundRect,0.350000X4.400000X3.150000X-4.400000X3.150000X-4.400000X-3.150000X4.400000X-3.150000X0*%
%ADD16O,1.350000X1.350000*%
%ADD17RoundRect,0.100000X0.300000X-0.300000X0.300000X0.300000X-0.300000X0.300000X-0.300000X-0.300000X0*%
G04 APERTURE END LIST*
D10*
X101764628Y-37630819D02*
X101193200Y-37630819D01*
X101478914Y-37630819D02*
X101478914Y-36630819D01*
X101478914Y-36630819D02*
X101383676Y-36773676D01*
X101383676Y-36773676D02*
X101288438Y-36868914D01*
X101288438Y-36868914D02*
X101193200Y-36916533D01*
X102383676Y-36630819D02*
X102478914Y-36630819D01*
X102478914Y-36630819D02*
X102574152Y-36678438D01*
X102574152Y-36678438D02*
X102621771Y-36726057D01*
X102621771Y-36726057D02*
X102669390Y-36821295D01*
X102669390Y-36821295D02*
X102717009Y-37011771D01*
X102717009Y-37011771D02*
X102717009Y-37249866D01*
X102717009Y-37249866D02*
X102669390Y-37440342D01*
X102669390Y-37440342D02*
X102621771Y-37535580D01*
X102621771Y-37535580D02*
X102574152Y-37583200D01*
X102574152Y-37583200D02*
X102478914Y-37630819D01*
X102478914Y-37630819D02*
X102383676Y-37630819D01*
X102383676Y-37630819D02*
X102288438Y-37583200D01*
X102288438Y-37583200D02*
X102240819Y-37535580D01*
X102240819Y-37535580D02*
X102193200Y-37440342D01*
X102193200Y-37440342D02*
X102145581Y-37249866D01*
X102145581Y-37249866D02*
X102145581Y-37011771D01*
X102145581Y-37011771D02*
X102193200Y-36821295D01*
X102193200Y-36821295D02*
X102240819Y-36726057D01*
X102240819Y-36726057D02*
X102288438Y-36678438D01*
X102288438Y-36678438D02*
X102383676Y-36630819D01*
X103336057Y-36630819D02*
X103431295Y-36630819D01*
X103431295Y-36630819D02*
X103526533Y-36678438D01*
X103526533Y-36678438D02*
X103574152Y-36726057D01*
X103574152Y-36726057D02*
X103621771Y-36821295D01*
X103621771Y-36821295D02*
X103669390Y-37011771D01*
X103669390Y-37011771D02*
X103669390Y-37249866D01*
X103669390Y-37249866D02*
X103621771Y-37440342D01*
X103621771Y-37440342D02*
X103574152Y-37535580D01*
X103574152Y-37535580D02*
X103526533Y-37583200D01*
X103526533Y-37583200D02*
X103431295Y-37630819D01*
X103431295Y-37630819D02*
X103336057Y-37630819D01*
X103336057Y-37630819D02*
X103240819Y-37583200D01*
X103240819Y-37583200D02*
X103193200Y-37535580D01*
X103193200Y-37535580D02*
X103145581Y-37440342D01*
X103145581Y-37440342D02*
X103097962Y-37249866D01*
X103097962Y-37249866D02*
X103097962Y-37011771D01*
X103097962Y-37011771D02*
X103145581Y-36821295D01*
X103145581Y-36821295D02*
X103193200Y-36726057D01*
X103193200Y-36726057D02*
X103240819Y-36678438D01*
X103240819Y-36678438D02*
X103336057Y-36630819D01*
X104859867Y-37630819D02*
X104859867Y-36964152D01*
X104859867Y-37059390D02*
X104907486Y-37011771D01*
X104907486Y-37011771D02*
X105002724Y-36964152D01*
X105002724Y-36964152D02*
X105145581Y-36964152D01*
X105145581Y-36964152D02*
X105240819Y-37011771D01*
X105240819Y-37011771D02*
X105288438Y-37107009D01*
X105288438Y-37107009D02*
X105288438Y-37630819D01*
X105288438Y-37107009D02*
X105336057Y-37011771D01*
X105336057Y-37011771D02*
X105431295Y-36964152D01*
X105431295Y-36964152D02*
X105574152Y-36964152D01*
X105574152Y-36964152D02*
X105669391Y-37011771D01*
X105669391Y-37011771D02*
X105717010Y-37107009D01*
X105717010Y-37107009D02*
X105717010Y-37630819D01*
X106193200Y-37630819D02*
X106193200Y-36964152D01*
X106193200Y-37059390D02*
X106240819Y-37011771D01*
X106240819Y-37011771D02*
X106336057Y-36964152D01*
X106336057Y-36964152D02*
X106478914Y-36964152D01*
X106478914Y-36964152D02*
X106574152Y-37011771D01*
X106574152Y-37011771D02*
X106621771Y-37107009D01*
X106621771Y-37107009D02*
X106621771Y-37630819D01*
X106621771Y-37107009D02*
X106669390Y-37011771D01*
X106669390Y-37011771D02*
X106764628Y-36964152D01*
X106764628Y-36964152D02*
X106907485Y-36964152D01*
X106907485Y-36964152D02*
X107002724Y-37011771D01*
X107002724Y-37011771D02*
X107050343Y-37107009D01*
X107050343Y-37107009D02*
X107050343Y-37630819D01*
X108193200Y-37630819D02*
X108717009Y-36964152D01*
X108193200Y-36964152D02*
X108717009Y-37630819D01*
X110002724Y-37059390D02*
X109907486Y-37011771D01*
X109907486Y-37011771D02*
X109859867Y-36964152D01*
X109859867Y-36964152D02*
X109812248Y-36868914D01*
X109812248Y-36868914D02*
X109812248Y-36821295D01*
X109812248Y-36821295D02*
X109859867Y-36726057D01*
X109859867Y-36726057D02*
X109907486Y-36678438D01*
X109907486Y-36678438D02*
X110002724Y-36630819D01*
X110002724Y-36630819D02*
X110193200Y-36630819D01*
X110193200Y-36630819D02*
X110288438Y-36678438D01*
X110288438Y-36678438D02*
X110336057Y-36726057D01*
X110336057Y-36726057D02*
X110383676Y-36821295D01*
X110383676Y-36821295D02*
X110383676Y-36868914D01*
X110383676Y-36868914D02*
X110336057Y-36964152D01*
X110336057Y-36964152D02*
X110288438Y-37011771D01*
X110288438Y-37011771D02*
X110193200Y-37059390D01*
X110193200Y-37059390D02*
X110002724Y-37059390D01*
X110002724Y-37059390D02*
X109907486Y-37107009D01*
X109907486Y-37107009D02*
X109859867Y-37154628D01*
X109859867Y-37154628D02*
X109812248Y-37249866D01*
X109812248Y-37249866D02*
X109812248Y-37440342D01*
X109812248Y-37440342D02*
X109859867Y-37535580D01*
X109859867Y-37535580D02*
X109907486Y-37583200D01*
X109907486Y-37583200D02*
X110002724Y-37630819D01*
X110002724Y-37630819D02*
X110193200Y-37630819D01*
X110193200Y-37630819D02*
X110288438Y-37583200D01*
X110288438Y-37583200D02*
X110336057Y-37535580D01*
X110336057Y-37535580D02*
X110383676Y-37440342D01*
X110383676Y-37440342D02*
X110383676Y-37249866D01*
X110383676Y-37249866D02*
X110336057Y-37154628D01*
X110336057Y-37154628D02*
X110288438Y-37107009D01*
X110288438Y-37107009D02*
X110193200Y-37059390D01*
X110764629Y-36726057D02*
X110812248Y-36678438D01*
X110812248Y-36678438D02*
X110907486Y-36630819D01*
X110907486Y-36630819D02*
X111145581Y-36630819D01*
X111145581Y-36630819D02*
X111240819Y-36678438D01*
X111240819Y-36678438D02*
X111288438Y-36726057D01*
X111288438Y-36726057D02*
X111336057Y-36821295D01*
X111336057Y-36821295D02*
X111336057Y-36916533D01*
X111336057Y-36916533D02*
X111288438Y-37059390D01*
X111288438Y-37059390D02*
X110717010Y-37630819D01*
X110717010Y-37630819D02*
X111336057Y-37630819D01*
X111764629Y-37535580D02*
X111812248Y-37583200D01*
X111812248Y-37583200D02*
X111764629Y-37630819D01*
X111764629Y-37630819D02*
X111717010Y-37583200D01*
X111717010Y-37583200D02*
X111764629Y-37535580D01*
X111764629Y-37535580D02*
X111764629Y-37630819D01*
X112383676Y-37059390D02*
X112288438Y-37011771D01*
X112288438Y-37011771D02*
X112240819Y-36964152D01*
X112240819Y-36964152D02*
X112193200Y-36868914D01*
X112193200Y-36868914D02*
X112193200Y-36821295D01*
X112193200Y-36821295D02*
X112240819Y-36726057D01*
X112240819Y-36726057D02*
X112288438Y-36678438D01*
X112288438Y-36678438D02*
X112383676Y-36630819D01*
X112383676Y-36630819D02*
X112574152Y-36630819D01*
X112574152Y-36630819D02*
X112669390Y-36678438D01*
X112669390Y-36678438D02*
X112717009Y-36726057D01*
X112717009Y-36726057D02*
X112764628Y-36821295D01*
X112764628Y-36821295D02*
X112764628Y-36868914D01*
X112764628Y-36868914D02*
X112717009Y-36964152D01*
X112717009Y-36964152D02*
X112669390Y-37011771D01*
X112669390Y-37011771D02*
X112574152Y-37059390D01*
X112574152Y-37059390D02*
X112383676Y-37059390D01*
X112383676Y-37059390D02*
X112288438Y-37107009D01*
X112288438Y-37107009D02*
X112240819Y-37154628D01*
X112240819Y-37154628D02*
X112193200Y-37249866D01*
X112193200Y-37249866D02*
X112193200Y-37440342D01*
X112193200Y-37440342D02*
X112240819Y-37535580D01*
X112240819Y-37535580D02*
X112288438Y-37583200D01*
X112288438Y-37583200D02*
X112383676Y-37630819D01*
X112383676Y-37630819D02*
X112574152Y-37630819D01*
X112574152Y-37630819D02*
X112669390Y-37583200D01*
X112669390Y-37583200D02*
X112717009Y-37535580D01*
X112717009Y-37535580D02*
X112764628Y-37440342D01*
X112764628Y-37440342D02*
X112764628Y-37249866D01*
X112764628Y-37249866D02*
X112717009Y-37154628D01*
X112717009Y-37154628D02*
X112669390Y-37107009D01*
X112669390Y-37107009D02*
X112574152Y-37059390D01*
X113955105Y-37630819D02*
X113955105Y-36964152D01*
X113955105Y-37059390D02*
X114002724Y-37011771D01*
X114002724Y-37011771D02*
X114097962Y-36964152D01*
X114097962Y-36964152D02*
X114240819Y-36964152D01*
X114240819Y-36964152D02*
X114336057Y-37011771D01*
X114336057Y-37011771D02*
X114383676Y-37107009D01*
X114383676Y-37107009D02*
X114383676Y-37630819D01*
X114383676Y-37107009D02*
X114431295Y-37011771D01*
X114431295Y-37011771D02*
X114526533Y-36964152D01*
X114526533Y-36964152D02*
X114669390Y-36964152D01*
X114669390Y-36964152D02*
X114764629Y-37011771D01*
X114764629Y-37011771D02*
X114812248Y-37107009D01*
X114812248Y-37107009D02*
X114812248Y-37630819D01*
X115288438Y-37630819D02*
X115288438Y-36964152D01*
X115288438Y-37059390D02*
X115336057Y-37011771D01*
X115336057Y-37011771D02*
X115431295Y-36964152D01*
X115431295Y-36964152D02*
X115574152Y-36964152D01*
X115574152Y-36964152D02*
X115669390Y-37011771D01*
X115669390Y-37011771D02*
X115717009Y-37107009D01*
X115717009Y-37107009D02*
X115717009Y-37630819D01*
X115717009Y-37107009D02*
X115764628Y-37011771D01*
X115764628Y-37011771D02*
X115859866Y-36964152D01*
X115859866Y-36964152D02*
X116002723Y-36964152D01*
X116002723Y-36964152D02*
X116097962Y-37011771D01*
X116097962Y-37011771D02*
X116145581Y-37107009D01*
X116145581Y-37107009D02*
X116145581Y-37630819D01*
X86841104Y-81347600D02*
X86698247Y-81299980D01*
X86698247Y-81299980D02*
X86460152Y-81299980D01*
X86460152Y-81299980D02*
X86364914Y-81347600D01*
X86364914Y-81347600D02*
X86317295Y-81395219D01*
X86317295Y-81395219D02*
X86269676Y-81490457D01*
X86269676Y-81490457D02*
X86269676Y-81585695D01*
X86269676Y-81585695D02*
X86317295Y-81680933D01*
X86317295Y-81680933D02*
X86364914Y-81728552D01*
X86364914Y-81728552D02*
X86460152Y-81776171D01*
X86460152Y-81776171D02*
X86650628Y-81823790D01*
X86650628Y-81823790D02*
X86745866Y-81871409D01*
X86745866Y-81871409D02*
X86793485Y-81919028D01*
X86793485Y-81919028D02*
X86841104Y-82014266D01*
X86841104Y-82014266D02*
X86841104Y-82109504D01*
X86841104Y-82109504D02*
X86793485Y-82204742D01*
X86793485Y-82204742D02*
X86745866Y-82252361D01*
X86745866Y-82252361D02*
X86650628Y-82299980D01*
X86650628Y-82299980D02*
X86412533Y-82299980D01*
X86412533Y-82299980D02*
X86269676Y-82252361D01*
X85269676Y-81395219D02*
X85317295Y-81347600D01*
X85317295Y-81347600D02*
X85460152Y-81299980D01*
X85460152Y-81299980D02*
X85555390Y-81299980D01*
X85555390Y-81299980D02*
X85698247Y-81347600D01*
X85698247Y-81347600D02*
X85793485Y-81442838D01*
X85793485Y-81442838D02*
X85841104Y-81538076D01*
X85841104Y-81538076D02*
X85888723Y-81728552D01*
X85888723Y-81728552D02*
X85888723Y-81871409D01*
X85888723Y-81871409D02*
X85841104Y-82061885D01*
X85841104Y-82061885D02*
X85793485Y-82157123D01*
X85793485Y-82157123D02*
X85698247Y-82252361D01*
X85698247Y-82252361D02*
X85555390Y-82299980D01*
X85555390Y-82299980D02*
X85460152Y-82299980D01*
X85460152Y-82299980D02*
X85317295Y-82252361D01*
X85317295Y-82252361D02*
X85269676Y-82204742D01*
X84317295Y-81299980D02*
X84888723Y-81299980D01*
X84603009Y-81299980D02*
X84603009Y-82299980D01*
X84603009Y-82299980D02*
X84698247Y-82157123D01*
X84698247Y-82157123D02*
X84793485Y-82061885D01*
X84793485Y-82061885D02*
X84888723Y-82014266D01*
X162795180Y-76128095D02*
X161985657Y-76128095D01*
X161985657Y-76128095D02*
X161890419Y-76175714D01*
X161890419Y-76175714D02*
X161842800Y-76223333D01*
X161842800Y-76223333D02*
X161795180Y-76318571D01*
X161795180Y-76318571D02*
X161795180Y-76509047D01*
X161795180Y-76509047D02*
X161842800Y-76604285D01*
X161842800Y-76604285D02*
X161890419Y-76651904D01*
X161890419Y-76651904D02*
X161985657Y-76699523D01*
X161985657Y-76699523D02*
X162795180Y-76699523D01*
X161795180Y-77699523D02*
X161795180Y-77128095D01*
X161795180Y-77413809D02*
X162795180Y-77413809D01*
X162795180Y-77413809D02*
X162652323Y-77318571D01*
X162652323Y-77318571D02*
X162557085Y-77223333D01*
X162557085Y-77223333D02*
X162509466Y-77128095D01*
D11*
X84849200Y-82709800D02*
X165049200Y-82709800D01*
X84849200Y-109209800D02*
X84849200Y-82709800D01*
X84849200Y-112209800D02*
X84849200Y-122709800D01*
X84849200Y-122709800D02*
X95449200Y-122709800D01*
X95449200Y-122709800D02*
X84849200Y-112209800D01*
X98449200Y-122709800D02*
X84849200Y-109209800D01*
X151449200Y-122709800D02*
X98449200Y-122709800D01*
X165049200Y-82709800D02*
X165049200Y-109209800D01*
X165049200Y-109209800D02*
X151449200Y-122709800D01*
X158550000Y-76590000D02*
X158550000Y-77190000D01*
X159450000Y-75540000D02*
X160050000Y-75540000D01*
X159450000Y-78240000D02*
X160050000Y-78240000D01*
X160950000Y-76590000D02*
X160950000Y-77190000D01*
X160950000Y-75390000D02*
G75*
G02*
X160750000Y-75390000I-100000J0D01*
G01*
X160750000Y-75390000D02*
G75*
G02*
X160950000Y-75390000I100000J0D01*
G01*
%LPC*%
D12*
X148949200Y-100709800D03*
D13*
X124949200Y-106314800D03*
D12*
X124949200Y-100709800D03*
D14*
X124949200Y-93282300D03*
D12*
X98949200Y-100709800D03*
D15*
X140279200Y-126209800D03*
X108819200Y-126209800D03*
X90024200Y-126204800D03*
D16*
X120500000Y-71175000D03*
X120500000Y-69175000D03*
X120500000Y-67175000D03*
X120500000Y-65175000D03*
X120500000Y-63175000D03*
X120500000Y-61175000D03*
X120500000Y-59175000D03*
X120500000Y-57175000D03*
X120500000Y-55175000D03*
X120500000Y-53175000D03*
X120500000Y-51175000D03*
X120500000Y-49175000D03*
D17*
X160550000Y-75940000D03*
X158950000Y-75940000D03*
X158950000Y-77840000D03*
X160550000Y-77840000D03*
D16*
X138309600Y-71186600D03*
X138309600Y-69186600D03*
X138309600Y-67186600D03*
X138309600Y-65186600D03*
X138309600Y-63186600D03*
X138309600Y-61186600D03*
X138309600Y-59186600D03*
X138309600Y-57186600D03*
X138309600Y-55186600D03*
X138309600Y-53186600D03*
X138309600Y-51186600D03*
X138309600Y-49186600D03*
%LPD*%
M02*
