M48
; DRILL file {KiCad 8.0.2} date 2024-08-20T08:21:01+0200
; FORMAT={-:-/ absolute / metric / decimal}
; #@! TF.CreationDate,2024-08-20T08:21:01+02:00
; #@! TF.GenerationSoftware,Kicad,Pcbnew,8.0.2
; #@! TF.FileFunction,Plated,1,4,PTH
FMAT,2
METRIC
; #@! TA.AperFunction,Plated,PTH,ViaDrill
T1C0.400
; #@! TA.AperFunction,Plated,PTH,ComponentDrill
T2C0.800
; #@! TA.AperFunction,Plated,PTH,ComponentDrill
T3C5.000
%
G90
G05
T1
X85.0Y-52.1
X85.0Y-55.1
X85.0Y-58.1
X85.0Y-61.1
X85.0Y-64.1
X85.0Y-67.1
X85.0Y-70.1
X85.0Y-73.1
X85.0Y-76.1
X85.0Y-79.1
X88.0Y-52.1
X88.0Y-55.1
X88.0Y-58.1
X88.0Y-61.1
X88.0Y-64.1
X88.0Y-67.1
X88.0Y-70.1
X88.0Y-73.1
X88.0Y-76.1
X88.0Y-79.1
X91.0Y-49.1
X91.0Y-52.1
X91.0Y-55.1
X91.0Y-58.1
X91.0Y-61.1
X91.0Y-64.1
X91.0Y-67.1
X91.0Y-70.1
X91.0Y-73.1
X91.0Y-76.1
X92.0Y-132.0
X92.0Y-135.0
X92.0Y-138.0
X94.0Y-40.5
X94.0Y-43.1
X94.0Y-49.1
X94.0Y-52.1
X94.0Y-55.1
X94.0Y-58.1
X94.0Y-61.1
X94.0Y-64.1
X95.0Y-132.0
X95.0Y-135.0
X95.0Y-138.0
X97.0Y-40.5
X97.0Y-43.1
X97.0Y-46.1
X97.0Y-58.1
X97.0Y-61.1
X97.0Y-64.1
X97.0Y-67.1
X97.0Y-70.1
X97.969Y-126.0
X97.969Y-129.0
X98.0Y-132.0
X98.0Y-135.0
X98.0Y-138.0
X100.0Y-40.5
X100.0Y-43.1
X100.0Y-58.1
X100.0Y-61.1
X100.969Y-126.0
X100.969Y-129.0
X101.0Y-135.0
X101.0Y-138.0
X103.0Y-40.5
X103.0Y-49.1
X103.969Y-126.0
X103.969Y-129.0
X104.0Y-132.0
X104.0Y-135.0
X104.0Y-138.0
X106.0Y-40.5
X106.0Y-46.1
X107.0Y-132.0
X107.0Y-135.0
X107.0Y-138.0
X109.0Y-40.5
X109.0Y-46.1
X109.0Y-52.1
X109.0Y-55.1
X109.0Y-58.1
X110.0Y-132.0
X110.0Y-135.0
X110.0Y-138.0
X112.0Y-40.5
X112.0Y-46.1
X112.25Y-77.6
X113.0Y-132.0
X113.0Y-135.0
X113.0Y-138.0
X115.0Y-40.5
X115.0Y-46.1
X115.25Y-77.6
X116.0Y-132.0
X116.0Y-135.0
X116.0Y-138.0
X118.0Y-40.5
X118.0Y-46.1
X118.25Y-77.6
X119.0Y-132.0
X119.0Y-135.0
X119.0Y-138.0
X121.0Y-40.5
X121.0Y-46.1
X121.25Y-77.6
X122.0Y-132.0
X122.0Y-135.0
X122.0Y-138.0
X124.0Y-40.5
X124.0Y-46.1
X125.0Y-126.0
X125.0Y-132.0
X125.0Y-135.0
X125.0Y-138.0
X127.0Y-40.5
X127.0Y-46.1
X127.0Y-49.1
X127.0Y-52.1
X127.0Y-67.1
X128.0Y-126.0
X128.0Y-129.0
X128.0Y-132.0
X128.0Y-135.0
X128.0Y-138.0
X129.95Y-70.1
X130.0Y-40.5
X130.0Y-46.1
X130.0Y-49.1
X130.0Y-52.1
X130.0Y-67.1
X131.0Y-126.0
X131.0Y-129.0
X131.0Y-132.0
X131.0Y-135.0
X131.0Y-138.0
X132.95Y-70.1
X133.0Y-40.5
X133.0Y-46.1
X133.0Y-49.1
X133.0Y-52.1
X133.0Y-67.1
X134.0Y-126.0
X134.0Y-129.0
X134.0Y-132.0
X134.0Y-135.0
X134.0Y-138.0
X136.0Y-40.5
X136.0Y-46.1
X136.0Y-49.1
X136.0Y-52.1
X136.0Y-55.1
X136.0Y-58.1
X136.0Y-61.1
X136.0Y-64.1
X136.0Y-67.1
X136.0Y-70.1
X137.0Y-135.014
X137.0Y-138.014
X139.0Y-40.5
X139.0Y-46.1
X140.0Y-135.0
X140.0Y-138.0
X142.0Y-40.5
X142.0Y-46.1
X142.0Y-49.1
X142.0Y-52.1
X142.0Y-67.1
X142.0Y-70.1
X142.0Y-73.1
X143.0Y-135.0
X143.0Y-138.0
X145.0Y-40.5
X145.0Y-46.1
X145.0Y-49.1
X145.0Y-52.1
X145.0Y-64.1
X145.0Y-67.1
X145.0Y-70.1
X145.0Y-73.1
X146.0Y-135.0
X146.0Y-138.0
X148.0Y-40.5
X148.0Y-46.1
X148.0Y-49.1
X148.0Y-52.1
X148.0Y-64.1
X148.0Y-67.1
X148.0Y-70.1
X148.0Y-73.1
X148.05Y-76.1
X149.0Y-135.0
X149.0Y-138.0
X150.95Y-49.1
X151.0Y-40.5
X151.0Y-52.1
X151.0Y-64.1
X151.0Y-67.1
X151.0Y-70.1
X151.0Y-73.1
X152.0Y-135.0
X152.0Y-138.0
X154.0Y-40.5
X154.0Y-64.1
X154.0Y-67.1
X154.0Y-70.1
X154.0Y-73.1
X155.0Y-135.0
X155.0Y-138.0
X157.0Y-40.5
X157.0Y-46.1
X157.0Y-49.075
X157.0Y-64.1
X157.0Y-67.1
X157.0Y-70.1
X157.0Y-73.1
X157.62Y-75.98
X157.884Y-77.84
X158.0Y-132.0
X158.0Y-135.0
X158.0Y-138.0
X158.043Y-123.251
X158.043Y-126.251
X158.043Y-129.251
X160.0Y-40.5
X160.0Y-46.1
X160.0Y-49.1
X161.0Y-132.0
X161.0Y-135.0
X161.0Y-138.0
X161.043Y-123.251
X161.043Y-126.251
X161.043Y-129.251
X161.783Y-77.7
X163.0Y-40.5
X163.0Y-46.1
X163.0Y-49.1
X163.0Y-52.1
X163.0Y-55.1
X163.0Y-58.1
X163.0Y-61.1
X163.0Y-64.1
X163.0Y-67.1
X163.0Y-70.1
X163.0Y-73.1
X163.039Y-80.4
X165.0Y-46.1
X165.0Y-49.1
X165.0Y-52.1
X165.0Y-55.1
X165.0Y-58.1
X165.0Y-61.1
X165.0Y-64.1
X165.0Y-67.1
X165.0Y-70.1
X165.0Y-73.1
X165.0Y-76.1
T2
X120.5Y-49.175
X120.5Y-51.175
X120.5Y-53.175
X120.5Y-55.175
X120.5Y-57.175
X120.5Y-59.175
X120.5Y-61.175
X120.5Y-63.175
X120.5Y-65.175
X120.5Y-67.175
X120.5Y-69.175
X120.5Y-71.175
X138.31Y-49.187
X138.31Y-51.187
X138.31Y-53.187
X138.31Y-55.187
X138.31Y-57.187
X138.31Y-59.187
X138.31Y-61.187
X138.31Y-63.187
X138.31Y-65.187
X138.31Y-67.187
X138.31Y-69.187
X138.31Y-71.187
T3
X98.949Y-100.71
X124.949Y-100.71
X148.949Y-100.71
M30
