G04 #@! TF.GenerationSoftware,KiCad,Pcbnew,8.0.2*
G04 #@! TF.CreationDate,2024-08-20T08:19:13+02:00*
G04 #@! TF.ProjectId,STS1_SIDEPANEL,53545331-5f53-4494-9445-50414e454c2e,rev?*
G04 #@! TF.SameCoordinates,Original*
G04 #@! TF.FileFunction,Copper,L1,Top*
G04 #@! TF.FilePolarity,Positive*
%FSLAX46Y46*%
G04 Gerber Fmt 4.6, Leading zero omitted, Abs format (unit mm)*
G04 Created by KiCad (PCBNEW 8.0.2) date 2024-08-20 08:19:13*
%MOMM*%
%LPD*%
G01*
G04 APERTURE LIST*
G04 Aperture macros list*
%AMRoundRect*
0 Rectangle with rounded corners*
0 $1 Rounding radius*
0 $2 $3 $4 $5 $6 $7 $8 $9 X,Y pos of 4 corners*
0 Add a 4 corners polygon primitive as box body*
4,1,4,$2,$3,$4,$5,$6,$7,$8,$9,$2,$3,0*
0 Add four circle primitives for the rounded corners*
1,1,$1+$1,$2,$3*
1,1,$1+$1,$4,$5*
1,1,$1+$1,$6,$7*
1,1,$1+$1,$8,$9*
0 Add four rect primitives between the rounded corners*
20,1,$1+$1,$2,$3,$4,$5,0*
20,1,$1+$1,$4,$5,$6,$7,0*
20,1,$1+$1,$6,$7,$8,$9,0*
20,1,$1+$1,$8,$9,$2,$3,0*%
%AMFreePoly0*
4,1,17,27.998779,14.255902,28.009846,14.246565,39.669846,2.866565,39.698571,2.811843,39.696113,2.795000,39.700000,2.795000,39.700000,-2.795000,-39.700000,-2.795000,-39.700000,2.795000,-39.695106,2.795000,-39.695106,2.825902,-39.669846,2.866565,-28.009846,14.246565,-27.954442,14.273952,-27.940000,14.275000,27.940000,14.275000,27.998779,14.255902,27.998779,14.255902,$1*%
G04 Aperture macros list end*
G04 #@! TA.AperFunction,FiducialPad,Local*
%ADD10C,6.000000*%
G04 #@! TD*
G04 #@! TA.AperFunction,SMDPad,CuDef*
%ADD11FreePoly0,180.000000*%
G04 #@! TD*
G04 #@! TA.AperFunction,FiducialPad,Global*
%ADD12C,6.000000*%
G04 #@! TD*
G04 #@! TA.AperFunction,SMDPad,CuDef*
%ADD13R,79.400000X20.475000*%
G04 #@! TD*
G04 #@! TA.AperFunction,SMDPad,CuDef*
%ADD14RoundRect,0.350000X4.400000X3.150000X-4.400000X3.150000X-4.400000X-3.150000X4.400000X-3.150000X0*%
G04 #@! TD*
G04 #@! TA.AperFunction,SMDPad,CuDef*
%ADD15RoundRect,0.185000X1.665000X3.315000X-1.665000X3.315000X-1.665000X-3.315000X1.665000X-3.315000X0*%
G04 #@! TD*
G04 #@! TA.AperFunction,SMDPad,CuDef*
%ADD16FreePoly0,0.000000*%
G04 #@! TD*
G04 #@! TA.AperFunction,SMDPad,CuDef*
%ADD17RoundRect,0.350000X-4.400000X-3.150000X4.400000X-3.150000X4.400000X3.150000X-4.400000X3.150000X0*%
G04 #@! TD*
G04 #@! TA.AperFunction,SMDPad,CuDef*
%ADD18RoundRect,0.100000X0.300000X0.300000X-0.300000X0.300000X-0.300000X-0.300000X0.300000X-0.300000X0*%
G04 #@! TD*
G04 #@! TA.AperFunction,ViaPad*
%ADD19C,0.600000*%
G04 #@! TD*
G04 #@! TA.AperFunction,ViaPad*
%ADD20C,0.800000*%
G04 #@! TD*
G04 #@! TA.AperFunction,Conductor*
%ADD21C,0.200000*%
G04 #@! TD*
G04 #@! TA.AperFunction,Conductor*
%ADD22C,0.500000*%
G04 #@! TD*
G04 #@! TA.AperFunction,Conductor*
%ADD23C,0.300000*%
G04 #@! TD*
G04 #@! TA.AperFunction,Conductor*
%ADD24C,1.000000*%
G04 #@! TD*
G04 APERTURE END LIST*
D10*
X148492000Y-108097800D03*
D11*
X124492000Y-113702800D03*
D12*
X124492000Y-108097800D03*
D13*
X124492000Y-100670300D03*
D12*
X98492000Y-108097800D03*
D14*
X139822000Y-133597800D03*
X108362000Y-133597800D03*
D15*
X92107000Y-133592800D03*
D10*
X101152400Y-69705000D03*
D16*
X125152400Y-64100000D03*
D12*
X125152400Y-69705000D03*
D13*
X125152400Y-77132500D03*
D12*
X151152400Y-69705000D03*
D17*
X109822400Y-44205000D03*
X141282400Y-44205000D03*
X160077400Y-44210000D03*
D18*
X129800000Y-133300000D03*
X129800000Y-134900000D03*
X131700000Y-134900000D03*
X131700000Y-133300000D03*
D19*
X84225000Y-76750000D03*
X99000000Y-135275000D03*
X165500000Y-123500000D03*
X99000000Y-138275000D03*
X149325000Y-41200000D03*
D20*
X91000000Y-89100000D03*
D19*
X130700000Y-45500000D03*
X115140000Y-133825000D03*
X165500000Y-117500000D03*
X101900000Y-136775000D03*
X90875000Y-50400000D03*
X133600000Y-41000000D03*
X118200000Y-42500000D03*
X132200000Y-45500000D03*
X146425000Y-41200000D03*
X130700000Y-41000000D03*
X161000000Y-128000000D03*
X115140000Y-136825000D03*
X96000000Y-138225000D03*
X165500000Y-102500000D03*
X103460000Y-138275000D03*
X84225000Y-73750000D03*
X165000000Y-54500000D03*
X121100000Y-138325000D03*
X99900000Y-42500000D03*
X98400000Y-44000000D03*
X155000000Y-131000000D03*
X84225000Y-69250000D03*
X113640000Y-136825000D03*
X161975000Y-136900000D03*
X165500000Y-107000000D03*
X84225000Y-79750000D03*
X165475000Y-89150000D03*
X92400000Y-40975000D03*
X146425000Y-45700000D03*
X147100000Y-136875000D03*
X88850000Y-88975000D03*
X131500000Y-136825000D03*
X135100000Y-44000000D03*
X159500000Y-126500000D03*
X96000000Y-133725000D03*
X165500000Y-96500000D03*
X165500000Y-101000000D03*
X84225000Y-61750000D03*
X92375000Y-48900000D03*
X132200000Y-41000000D03*
X145600000Y-138375000D03*
X155000000Y-129500000D03*
X92375000Y-50400000D03*
X119600000Y-138325000D03*
X159500000Y-129500000D03*
X115300000Y-41000000D03*
X84875000Y-53600000D03*
X164000000Y-131000000D03*
X161000000Y-125000000D03*
X150000000Y-133875000D03*
X134500000Y-133825000D03*
X157400000Y-133875000D03*
X151500000Y-136875000D03*
X125800000Y-41000000D03*
X162500000Y-129500000D03*
X119600000Y-133825000D03*
X125600000Y-136825000D03*
X156000000Y-135375000D03*
X132200000Y-42500000D03*
X84225000Y-67750000D03*
X124100000Y-135325000D03*
X119600000Y-136825000D03*
X87875000Y-53600000D03*
X165500000Y-108500000D03*
X96900000Y-45500000D03*
X100500000Y-138275000D03*
X84225000Y-63250000D03*
X149325000Y-45700000D03*
X134500000Y-138325000D03*
X147100000Y-138375000D03*
X134500000Y-136825000D03*
X153000000Y-138375000D03*
X99000000Y-133775000D03*
X147925000Y-44200000D03*
X165500000Y-90500000D03*
X165500000Y-104000000D03*
X127100000Y-136825000D03*
X99900000Y-45500000D03*
X162500000Y-122000000D03*
X164000000Y-123500000D03*
X165500000Y-122000000D03*
X101300000Y-41000000D03*
X93875000Y-47400000D03*
X152325000Y-42700000D03*
X153000000Y-136875000D03*
X119800000Y-41000000D03*
X150000000Y-136875000D03*
X159500000Y-131000000D03*
X162500000Y-126500000D03*
X158000000Y-129500000D03*
X165500000Y-111500000D03*
X162500000Y-128000000D03*
X162500000Y-125000000D03*
X95275000Y-47400000D03*
X86375000Y-54975000D03*
X87875000Y-52100000D03*
X165500000Y-98000000D03*
X89375000Y-52100000D03*
X160525000Y-89125000D03*
X84225000Y-72250000D03*
X156000000Y-136875000D03*
X84225000Y-82750000D03*
X165500000Y-114500000D03*
X161000000Y-123500000D03*
X116640000Y-133825000D03*
X164000000Y-122000000D03*
X118200000Y-45500000D03*
X97500000Y-135275000D03*
X102900000Y-44000000D03*
X124100000Y-136825000D03*
X127100000Y-135325000D03*
X165000000Y-49500000D03*
X150000000Y-138375000D03*
X156500000Y-131000000D03*
X115300000Y-42500000D03*
X84875000Y-52100000D03*
X154500000Y-136875000D03*
X133600000Y-44000000D03*
X134500000Y-135325000D03*
X90900000Y-40975000D03*
X133000000Y-138325000D03*
X152325000Y-41200000D03*
X156500000Y-128000000D03*
X86375000Y-52100000D03*
X95300000Y-40975000D03*
X161000000Y-129500000D03*
X161000000Y-126500000D03*
X87875000Y-54975000D03*
X119600000Y-135325000D03*
X165500000Y-129500000D03*
X160575000Y-133900000D03*
X84225000Y-88975000D03*
X122600000Y-133825000D03*
X104400000Y-45500000D03*
X98400000Y-45500000D03*
X127100000Y-138325000D03*
X121100000Y-135325000D03*
X165500000Y-131000000D03*
X87875000Y-50500000D03*
X118040000Y-136825000D03*
X115140000Y-135325000D03*
X158000000Y-126500000D03*
X157400000Y-138375000D03*
X159075000Y-136900000D03*
X130000000Y-138325000D03*
X125600000Y-135325000D03*
X130700000Y-42500000D03*
X104400000Y-42500000D03*
X165500000Y-126500000D03*
X135100000Y-41000000D03*
X145600000Y-136875000D03*
X164000000Y-128000000D03*
X121300000Y-42500000D03*
X164000000Y-129500000D03*
X147100000Y-135375000D03*
X153875000Y-45700000D03*
X159075000Y-138400000D03*
X89375000Y-50500000D03*
X121100000Y-133825000D03*
X133600000Y-45500000D03*
X84225000Y-78250000D03*
X97500000Y-138275000D03*
X162500000Y-131000000D03*
X146425000Y-42700000D03*
X93900000Y-42475000D03*
X165500000Y-125000000D03*
X104400000Y-44000000D03*
X92400000Y-42475000D03*
X157400000Y-136875000D03*
X153000000Y-133875000D03*
X165500000Y-119000000D03*
X115140000Y-138325000D03*
X86375000Y-50500000D03*
X84875000Y-57575000D03*
X95300000Y-42475000D03*
X89375000Y-53600000D03*
X93875000Y-48900000D03*
X121100000Y-136825000D03*
X159500000Y-125000000D03*
X157400000Y-135375000D03*
X98400000Y-42500000D03*
X147925000Y-42700000D03*
X153875000Y-41200000D03*
X162375000Y-89125000D03*
X121300000Y-41000000D03*
X96900000Y-42500000D03*
X149325000Y-44200000D03*
X101900000Y-138275000D03*
X125600000Y-133825000D03*
X156500000Y-129500000D03*
X164000000Y-125000000D03*
X99900000Y-44000000D03*
X150825000Y-41200000D03*
X84875000Y-50500000D03*
X135100000Y-42500000D03*
X100500000Y-136775000D03*
X96000000Y-135225000D03*
X153000000Y-135375000D03*
X132200000Y-44000000D03*
X116800000Y-41000000D03*
X158000000Y-128000000D03*
X129200000Y-41000000D03*
X148600000Y-135375000D03*
X153875000Y-42700000D03*
X101300000Y-42500000D03*
X102900000Y-45500000D03*
X102900000Y-41000000D03*
X122600000Y-136825000D03*
X129200000Y-42500000D03*
X148600000Y-138375000D03*
X165500000Y-92000000D03*
X122600000Y-135325000D03*
X84875000Y-56375000D03*
X116800000Y-42500000D03*
X96900000Y-44000000D03*
X119800000Y-45500000D03*
X121300000Y-44000000D03*
X164000000Y-126500000D03*
X90875000Y-47400000D03*
X154500000Y-133875000D03*
X118040000Y-138325000D03*
X118040000Y-135325000D03*
X124100000Y-133825000D03*
X84225000Y-84250000D03*
X84225000Y-85750000D03*
X116640000Y-135325000D03*
X159500000Y-128000000D03*
X90875000Y-52100000D03*
X145600000Y-133875000D03*
X146425000Y-44200000D03*
X102900000Y-42500000D03*
X97500000Y-136775000D03*
X165500000Y-116000000D03*
X99000000Y-136775000D03*
X156000000Y-138375000D03*
X84225000Y-87250000D03*
X116800000Y-44000000D03*
X113640000Y-138325000D03*
X119800000Y-42500000D03*
X153875000Y-44200000D03*
X86375000Y-56375000D03*
X133000000Y-135325000D03*
X147925000Y-41200000D03*
X101300000Y-44000000D03*
X118040000Y-133825000D03*
X158000000Y-131000000D03*
X127300000Y-41000000D03*
X113640000Y-133825000D03*
X93900000Y-40975000D03*
X116800000Y-45500000D03*
X165500000Y-110000000D03*
X151500000Y-135375000D03*
X97500000Y-133775000D03*
X84225000Y-64750000D03*
X128500000Y-138325000D03*
X96900000Y-41000000D03*
X159075000Y-133900000D03*
X118200000Y-41000000D03*
X93875000Y-50400000D03*
X150000000Y-135375000D03*
X151500000Y-133875000D03*
X84225000Y-66250000D03*
X127100000Y-133825000D03*
X129200000Y-45500000D03*
X160575000Y-138400000D03*
X122800000Y-41000000D03*
X119800000Y-44000000D03*
X147100000Y-133875000D03*
X96000000Y-136725000D03*
X131500000Y-138325000D03*
X165500000Y-120500000D03*
X156000000Y-133875000D03*
X163975000Y-89125000D03*
X165500000Y-99500000D03*
X159075000Y-135400000D03*
X101900000Y-135275000D03*
X145600000Y-135375000D03*
X86375000Y-53600000D03*
X124200000Y-41000000D03*
X165500000Y-105500000D03*
X98400000Y-41000000D03*
X116640000Y-136825000D03*
X84225000Y-81250000D03*
X129200000Y-44000000D03*
X90900000Y-42475000D03*
X130700000Y-44000000D03*
X149325000Y-42700000D03*
X162500000Y-123500000D03*
X116640000Y-138325000D03*
X100500000Y-135275000D03*
X133600000Y-42500000D03*
X101300000Y-45500000D03*
X85725000Y-88975000D03*
X164000000Y-120500000D03*
X165500000Y-128000000D03*
X122600000Y-138325000D03*
X115300000Y-45500000D03*
X92375000Y-47400000D03*
X90875000Y-48900000D03*
X84875000Y-58975000D03*
X160575000Y-136900000D03*
X135100000Y-45500000D03*
X154500000Y-138375000D03*
X104400000Y-41000000D03*
X161000000Y-131000000D03*
X130000000Y-136825000D03*
X148600000Y-133875000D03*
X165500000Y-93500000D03*
X133000000Y-136825000D03*
X147925000Y-45700000D03*
X84225000Y-70750000D03*
X148600000Y-136875000D03*
X135900000Y-138325000D03*
X124100000Y-138325000D03*
X154500000Y-135375000D03*
X84225000Y-75250000D03*
X165500000Y-113000000D03*
X87350000Y-88975000D03*
X161975000Y-138400000D03*
X95275000Y-48900000D03*
X113640000Y-135325000D03*
X128500000Y-136825000D03*
X115300000Y-44000000D03*
X99900000Y-41000000D03*
X118200000Y-44000000D03*
X165500000Y-95000000D03*
X161975000Y-135400000D03*
X125600000Y-138325000D03*
X84875000Y-54975000D03*
X151500000Y-138375000D03*
X160575000Y-135400000D03*
X150825000Y-42700000D03*
X133025000Y-133150000D03*
X131675000Y-135775000D03*
X128725000Y-134925000D03*
D20*
X130000000Y-132075000D03*
D21*
X140260000Y-134500000D02*
X140900000Y-133860000D01*
D22*
X133025000Y-133150000D02*
X131850000Y-133150000D01*
X131850000Y-133150000D02*
X131700000Y-133300000D01*
D23*
X131675000Y-135775000D02*
X131675000Y-134925000D01*
X131675000Y-134925000D02*
X131700000Y-134900000D01*
X128725000Y-134925000D02*
X129775000Y-134925000D01*
X129775000Y-134925000D02*
X129800000Y-134900000D01*
D24*
X125152400Y-69705000D02*
X125152400Y-77132500D01*
D22*
X130000000Y-132075000D02*
X130000000Y-133100000D01*
X130000000Y-133100000D02*
X129800000Y-133300000D01*
G04 #@! TA.AperFunction,Conductor*
G36*
X164404540Y-39510933D02*
G01*
X164518978Y-39521689D01*
X164562784Y-39525806D01*
X164579604Y-39528870D01*
X164654365Y-39549289D01*
X164729132Y-39569711D01*
X164745163Y-39575619D01*
X164885429Y-39641577D01*
X164900213Y-39650160D01*
X165027039Y-39739269D01*
X165040129Y-39750270D01*
X165149729Y-39859870D01*
X165160730Y-39872960D01*
X165249839Y-39999786D01*
X165258423Y-40014572D01*
X165324377Y-40154828D01*
X165330290Y-40170872D01*
X165371129Y-40320395D01*
X165374193Y-40337215D01*
X165389066Y-40495457D01*
X165389500Y-40504721D01*
X165389500Y-41983814D01*
X165388832Y-41989015D01*
X165389328Y-41997399D01*
X165389500Y-42003234D01*
X165389500Y-42016145D01*
X165390766Y-42021654D01*
X165393429Y-42066540D01*
X165393430Y-42066542D01*
X165432606Y-42192673D01*
X165500876Y-42305726D01*
X165500877Y-42305727D01*
X165500879Y-42305730D01*
X165594270Y-42399121D01*
X165707329Y-42467395D01*
X165833459Y-42506570D01*
X165889867Y-42509916D01*
X165907445Y-42512558D01*
X166008756Y-42537255D01*
X166029035Y-42544620D01*
X166120969Y-42589897D01*
X166139181Y-42601490D01*
X166219113Y-42665618D01*
X166234381Y-42680886D01*
X166298509Y-42760818D01*
X166310102Y-42779030D01*
X166355376Y-42870957D01*
X166362746Y-42891250D01*
X166386683Y-42989443D01*
X166389500Y-43012890D01*
X166389500Y-135988824D01*
X166387336Y-136009409D01*
X166365919Y-136110161D01*
X166358661Y-136131728D01*
X166315154Y-136224185D01*
X166303162Y-136243526D01*
X166239695Y-136323602D01*
X166223602Y-136339695D01*
X166143526Y-136403162D01*
X166124186Y-136415154D01*
X166071322Y-136440030D01*
X166031730Y-136458660D01*
X166010163Y-136465919D01*
X165911600Y-136486869D01*
X165886908Y-136488947D01*
X165846082Y-136487250D01*
X165842213Y-136487090D01*
X165842212Y-136487090D01*
X165727799Y-136509480D01*
X165727791Y-136509482D01*
X165621823Y-136558096D01*
X165530225Y-136630214D01*
X165530214Y-136630225D01*
X165458096Y-136721823D01*
X165409482Y-136827791D01*
X165409480Y-136827799D01*
X165387090Y-136942211D01*
X165389415Y-136998147D01*
X165389500Y-137002258D01*
X165389500Y-138495278D01*
X165389066Y-138504542D01*
X165374193Y-138662784D01*
X165371129Y-138679604D01*
X165330290Y-138829127D01*
X165324377Y-138845171D01*
X165258423Y-138985427D01*
X165249839Y-139000213D01*
X165160730Y-139127039D01*
X165149729Y-139140129D01*
X165040129Y-139249729D01*
X165027039Y-139260730D01*
X164900213Y-139349839D01*
X164885427Y-139358423D01*
X164745171Y-139424377D01*
X164729127Y-139430290D01*
X164579604Y-139471129D01*
X164562784Y-139474193D01*
X164419854Y-139487626D01*
X164404540Y-139489066D01*
X164395279Y-139489500D01*
X90904721Y-139489500D01*
X90895459Y-139489066D01*
X90878705Y-139487491D01*
X90737215Y-139474193D01*
X90720395Y-139471129D01*
X90570872Y-139430290D01*
X90554830Y-139424377D01*
X90484700Y-139391400D01*
X90414572Y-139358423D01*
X90399786Y-139349839D01*
X90272960Y-139260730D01*
X90259870Y-139249729D01*
X90150270Y-139140129D01*
X90139269Y-139127039D01*
X90050160Y-139000213D01*
X90041576Y-138985427D01*
X90014325Y-138927475D01*
X89975619Y-138845163D01*
X89969711Y-138829132D01*
X89949289Y-138754365D01*
X89928870Y-138679604D01*
X89925806Y-138662783D01*
X89910934Y-138504541D01*
X89910500Y-138495278D01*
X89910500Y-137126255D01*
X89929407Y-137068064D01*
X89978907Y-137032100D01*
X90040093Y-137032100D01*
X90089593Y-137068064D01*
X90098438Y-137082770D01*
X90123924Y-137134902D01*
X90214898Y-137225876D01*
X90330482Y-137282382D01*
X90405418Y-137293300D01*
X90405421Y-137293300D01*
X93808578Y-137293300D01*
X93808582Y-137293300D01*
X93883518Y-137282382D01*
X93999102Y-137225876D01*
X94090076Y-137134902D01*
X94146582Y-137019318D01*
X94157500Y-136944382D01*
X94157500Y-134924997D01*
X128219353Y-134924997D01*
X128219353Y-134925002D01*
X128239834Y-135067456D01*
X128299622Y-135198371D01*
X128299623Y-135198373D01*
X128368682Y-135278072D01*
X128393873Y-135307144D01*
X128495982Y-135372765D01*
X128514947Y-135384953D01*
X128621403Y-135416211D01*
X128653035Y-135425499D01*
X128653036Y-135425499D01*
X128653039Y-135425500D01*
X128653041Y-135425500D01*
X128796959Y-135425500D01*
X128796961Y-135425500D01*
X128935053Y-135384953D01*
X129056128Y-135307143D01*
X129061480Y-135302506D01*
X129062968Y-135304223D01*
X129106341Y-135278072D01*
X129128759Y-135275500D01*
X129140339Y-135275500D01*
X129198530Y-135294407D01*
X129230903Y-135334511D01*
X129247794Y-135372765D01*
X129327235Y-135452206D01*
X129430009Y-135497585D01*
X129455135Y-135500500D01*
X130144864Y-135500499D01*
X130169991Y-135497585D01*
X130272765Y-135452206D01*
X130352206Y-135372765D01*
X130397585Y-135269991D01*
X130400500Y-135244865D01*
X130400499Y-134555136D01*
X130400498Y-134555130D01*
X131099500Y-134555130D01*
X131099500Y-135244860D01*
X131099501Y-135244863D01*
X131102414Y-135269990D01*
X131127756Y-135327385D01*
X131147794Y-135372765D01*
X131209495Y-135434466D01*
X131237271Y-135488981D01*
X131229543Y-135545595D01*
X131189834Y-135632543D01*
X131169353Y-135774997D01*
X131169353Y-135775002D01*
X131189834Y-135917456D01*
X131249622Y-136048371D01*
X131249623Y-136048373D01*
X131321850Y-136131728D01*
X131343873Y-136157144D01*
X131464318Y-136234549D01*
X131464947Y-136234953D01*
X131571403Y-136266211D01*
X131603035Y-136275499D01*
X131603036Y-136275499D01*
X131603039Y-136275500D01*
X131603041Y-136275500D01*
X131746959Y-136275500D01*
X131746961Y-136275500D01*
X131885053Y-136234953D01*
X132006128Y-136157143D01*
X132100377Y-136048373D01*
X132160165Y-135917457D01*
X132180647Y-135775000D01*
X132160165Y-135632543D01*
X132135026Y-135577496D01*
X132128051Y-135516709D01*
X132158137Y-135463432D01*
X132169137Y-135454690D01*
X132172758Y-135452209D01*
X132172765Y-135452206D01*
X132252206Y-135372765D01*
X132297585Y-135269991D01*
X132300500Y-135244865D01*
X132300499Y-134555136D01*
X132297585Y-134530009D01*
X132252206Y-134427235D01*
X132172765Y-134347794D01*
X132069991Y-134302415D01*
X132069990Y-134302414D01*
X132069988Y-134302414D01*
X132044868Y-134299500D01*
X131355139Y-134299500D01*
X131355136Y-134299501D01*
X131330009Y-134302414D01*
X131227235Y-134347794D01*
X131147794Y-134427235D01*
X131102414Y-134530011D01*
X131099500Y-134555130D01*
X130400498Y-134555130D01*
X130397585Y-134530009D01*
X130352206Y-134427235D01*
X130272765Y-134347794D01*
X130169991Y-134302415D01*
X130169990Y-134302414D01*
X130169988Y-134302414D01*
X130144868Y-134299500D01*
X129455139Y-134299500D01*
X129455136Y-134299501D01*
X129430009Y-134302414D01*
X129327235Y-134347794D01*
X129247793Y-134427236D01*
X129211955Y-134508401D01*
X129171154Y-134553996D01*
X129111345Y-134566901D01*
X129062621Y-134545849D01*
X129062085Y-134546685D01*
X129057019Y-134543429D01*
X129056560Y-134543231D01*
X129056128Y-134542856D01*
X128935057Y-134465049D01*
X128935054Y-134465047D01*
X128935053Y-134465047D01*
X128935050Y-134465046D01*
X128796964Y-134424500D01*
X128796961Y-134424500D01*
X128653039Y-134424500D01*
X128653035Y-134424500D01*
X128514949Y-134465046D01*
X128514942Y-134465049D01*
X128393873Y-134542855D01*
X128299622Y-134651628D01*
X128239834Y-134782543D01*
X128219353Y-134924997D01*
X94157500Y-134924997D01*
X94157500Y-133349996D01*
X100034611Y-133349996D01*
X100034611Y-133350003D01*
X100054119Y-133548087D01*
X100054120Y-133548093D01*
X100105551Y-133717636D01*
X100111903Y-133738573D01*
X100111906Y-133738578D01*
X100111907Y-133738581D01*
X100130179Y-133772765D01*
X100205735Y-133914120D01*
X100205737Y-133914122D01*
X100205738Y-133914124D01*
X100332007Y-134067983D01*
X100332016Y-134067992D01*
X100485875Y-134194261D01*
X100485880Y-134194265D01*
X100661427Y-134288097D01*
X100768202Y-134320487D01*
X100851906Y-134345879D01*
X100851912Y-134345880D01*
X101049997Y-134365389D01*
X101050000Y-134365389D01*
X101050003Y-134365389D01*
X101248087Y-134345880D01*
X101248093Y-134345879D01*
X101438573Y-134288097D01*
X101614120Y-134194265D01*
X101767988Y-134067988D01*
X101894265Y-133914120D01*
X101988097Y-133738573D01*
X102045879Y-133548093D01*
X102046377Y-133543042D01*
X102065389Y-133350003D01*
X102065389Y-133349996D01*
X102045880Y-133151912D01*
X102045879Y-133151906D01*
X102002086Y-133007543D01*
X101988097Y-132961427D01*
X101984731Y-132955130D01*
X129199500Y-132955130D01*
X129199500Y-133644860D01*
X129199501Y-133644863D01*
X129202414Y-133669990D01*
X129227756Y-133727385D01*
X129247794Y-133772765D01*
X129327235Y-133852206D01*
X129430009Y-133897585D01*
X129455135Y-133900500D01*
X130144864Y-133900499D01*
X130169991Y-133897585D01*
X130272765Y-133852206D01*
X130352206Y-133772765D01*
X130397585Y-133669991D01*
X130400500Y-133644865D01*
X130400499Y-133333841D01*
X130413763Y-133284341D01*
X130419799Y-133273887D01*
X130437102Y-133209309D01*
X130450500Y-133159309D01*
X130450500Y-132955130D01*
X131099500Y-132955130D01*
X131099500Y-133644860D01*
X131099501Y-133644863D01*
X131102414Y-133669990D01*
X131127756Y-133727385D01*
X131147794Y-133772765D01*
X131227235Y-133852206D01*
X131330009Y-133897585D01*
X131355135Y-133900500D01*
X132044864Y-133900499D01*
X132069991Y-133897585D01*
X132172765Y-133852206D01*
X132252206Y-133772765D01*
X132297585Y-133669991D01*
X132297585Y-133669988D01*
X132300592Y-133663179D01*
X132302763Y-133664137D01*
X132330154Y-133622319D01*
X132387362Y-133600616D01*
X132392155Y-133600500D01*
X132772712Y-133600500D01*
X132808083Y-133608195D01*
X132808153Y-133607958D01*
X132811468Y-133608931D01*
X132813838Y-133609447D01*
X132814943Y-133609951D01*
X132814944Y-133609951D01*
X132814947Y-133609953D01*
X132928939Y-133643423D01*
X132953035Y-133650499D01*
X132953036Y-133650499D01*
X132953039Y-133650500D01*
X132953041Y-133650500D01*
X133096959Y-133650500D01*
X133096961Y-133650500D01*
X133235053Y-133609953D01*
X133356128Y-133532143D01*
X133450377Y-133423373D01*
X133483888Y-133349996D01*
X162234611Y-133349996D01*
X162234611Y-133350003D01*
X162254119Y-133548087D01*
X162254120Y-133548093D01*
X162305551Y-133717636D01*
X162311903Y-133738573D01*
X162311906Y-133738578D01*
X162311907Y-133738581D01*
X162330179Y-133772765D01*
X162405735Y-133914120D01*
X162405737Y-133914122D01*
X162405738Y-133914124D01*
X162532007Y-134067983D01*
X162532016Y-134067992D01*
X162685875Y-134194261D01*
X162685880Y-134194265D01*
X162861427Y-134288097D01*
X162968202Y-134320487D01*
X163051906Y-134345879D01*
X163051912Y-134345880D01*
X163249997Y-134365389D01*
X163250000Y-134365389D01*
X163250003Y-134365389D01*
X163448087Y-134345880D01*
X163448093Y-134345879D01*
X163638573Y-134288097D01*
X163814120Y-134194265D01*
X163967988Y-134067988D01*
X164094265Y-133914120D01*
X164188097Y-133738573D01*
X164245879Y-133548093D01*
X164246377Y-133543042D01*
X164265389Y-133350003D01*
X164265389Y-133349996D01*
X164245880Y-133151912D01*
X164245879Y-133151906D01*
X164202086Y-133007543D01*
X164188097Y-132961427D01*
X164094265Y-132785880D01*
X164079472Y-132767855D01*
X163967992Y-132632016D01*
X163967983Y-132632007D01*
X163814124Y-132505738D01*
X163814122Y-132505737D01*
X163814120Y-132505735D01*
X163705477Y-132447664D01*
X163638581Y-132411907D01*
X163638578Y-132411906D01*
X163638573Y-132411903D01*
X163617636Y-132405551D01*
X163448093Y-132354120D01*
X163448087Y-132354119D01*
X163250003Y-132334611D01*
X163249997Y-132334611D01*
X163051912Y-132354119D01*
X163051906Y-132354120D01*
X162861433Y-132411901D01*
X162861431Y-132411901D01*
X162861427Y-132411903D01*
X162861424Y-132411904D01*
X162861418Y-132411907D01*
X162685885Y-132505732D01*
X162685875Y-132505738D01*
X162532016Y-132632007D01*
X162532007Y-132632016D01*
X162405738Y-132785875D01*
X162405732Y-132785885D01*
X162311907Y-132961418D01*
X162311901Y-132961433D01*
X162254120Y-133151906D01*
X162254119Y-133151912D01*
X162234611Y-133349996D01*
X133483888Y-133349996D01*
X133510165Y-133292457D01*
X133522120Y-133209308D01*
X133530647Y-133150002D01*
X133530647Y-133149997D01*
X133510165Y-133007543D01*
X133486231Y-132955135D01*
X133450377Y-132876627D01*
X133356128Y-132767857D01*
X133356127Y-132767856D01*
X133356126Y-132767855D01*
X133235057Y-132690049D01*
X133235054Y-132690047D01*
X133235053Y-132690047D01*
X133235050Y-132690046D01*
X133096964Y-132649500D01*
X133096961Y-132649500D01*
X132953039Y-132649500D01*
X132953035Y-132649500D01*
X132814943Y-132690048D01*
X132813838Y-132690553D01*
X132811468Y-132691068D01*
X132808153Y-132692042D01*
X132808083Y-132691804D01*
X132772712Y-132699500D01*
X131355139Y-132699500D01*
X131355136Y-132699501D01*
X131330009Y-132702414D01*
X131227235Y-132747794D01*
X131147794Y-132827235D01*
X131102414Y-132930011D01*
X131099500Y-132955130D01*
X130450500Y-132955130D01*
X130450500Y-132507932D01*
X130469407Y-132449741D01*
X130470936Y-132447693D01*
X130524536Y-132377841D01*
X130585044Y-132231762D01*
X130605682Y-132075000D01*
X130585044Y-131918238D01*
X130524537Y-131772161D01*
X130524537Y-131772160D01*
X130428286Y-131646723D01*
X130428285Y-131646722D01*
X130428282Y-131646718D01*
X130428277Y-131646714D01*
X130428276Y-131646713D01*
X130302838Y-131550462D01*
X130156766Y-131489957D01*
X130156758Y-131489955D01*
X130000001Y-131469318D01*
X129999999Y-131469318D01*
X129843241Y-131489955D01*
X129843233Y-131489957D01*
X129697161Y-131550462D01*
X129697160Y-131550462D01*
X129571723Y-131646713D01*
X129571713Y-131646723D01*
X129475462Y-131772160D01*
X129475462Y-131772161D01*
X129414957Y-131918233D01*
X129414955Y-131918241D01*
X129394318Y-132074999D01*
X129394318Y-132075000D01*
X129414955Y-132231758D01*
X129414957Y-132231766D01*
X129475462Y-132377838D01*
X129475463Y-132377840D01*
X129475464Y-132377841D01*
X129529042Y-132447665D01*
X129549466Y-132505340D01*
X129549500Y-132507932D01*
X129549500Y-132600603D01*
X129530593Y-132658794D01*
X129481093Y-132694758D01*
X129457966Y-132699110D01*
X129457974Y-132699172D01*
X129457108Y-132699272D01*
X129456234Y-132699437D01*
X129455143Y-132699500D01*
X129430009Y-132702414D01*
X129327235Y-132747794D01*
X129247794Y-132827235D01*
X129202414Y-132930011D01*
X129199500Y-132955130D01*
X101984731Y-132955130D01*
X101894265Y-132785880D01*
X101879472Y-132767855D01*
X101767992Y-132632016D01*
X101767983Y-132632007D01*
X101614124Y-132505738D01*
X101614122Y-132505737D01*
X101614120Y-132505735D01*
X101505477Y-132447664D01*
X101438581Y-132411907D01*
X101438578Y-132411906D01*
X101438573Y-132411903D01*
X101417636Y-132405551D01*
X101248093Y-132354120D01*
X101248087Y-132354119D01*
X101050003Y-132334611D01*
X101049997Y-132334611D01*
X100851912Y-132354119D01*
X100851906Y-132354120D01*
X100661433Y-132411901D01*
X100661431Y-132411901D01*
X100661427Y-132411903D01*
X100661424Y-132411904D01*
X100661418Y-132411907D01*
X100485885Y-132505732D01*
X100485875Y-132505738D01*
X100332016Y-132632007D01*
X100332007Y-132632016D01*
X100205738Y-132785875D01*
X100205732Y-132785885D01*
X100111907Y-132961418D01*
X100111901Y-132961433D01*
X100054120Y-133151906D01*
X100054119Y-133151912D01*
X100034611Y-133349996D01*
X94157500Y-133349996D01*
X94157500Y-130241218D01*
X94146582Y-130166282D01*
X94090076Y-130050698D01*
X93999102Y-129959724D01*
X93883518Y-129903218D01*
X93808582Y-129892300D01*
X90405418Y-129892300D01*
X90330482Y-129903218D01*
X90214899Y-129959723D01*
X90123923Y-130050699D01*
X90067418Y-130166282D01*
X90058629Y-130226609D01*
X90056500Y-130241221D01*
X90056500Y-130866678D01*
X90037593Y-130924869D01*
X89988093Y-130960833D01*
X89926907Y-130960833D01*
X89877407Y-130924869D01*
X89864607Y-130900912D01*
X89817290Y-130772520D01*
X89728694Y-130619922D01*
X89728691Y-130619918D01*
X89615166Y-130484845D01*
X89615161Y-130484839D01*
X89566812Y-130444203D01*
X89480081Y-130371308D01*
X89480077Y-130371305D01*
X89327479Y-130282709D01*
X89175254Y-130226609D01*
X89161904Y-130221689D01*
X89161902Y-130221688D01*
X89161898Y-130221687D01*
X88988309Y-130190069D01*
X88923776Y-130189653D01*
X88923020Y-130189500D01*
X88904349Y-130189500D01*
X88900488Y-130189500D01*
X88899792Y-130189498D01*
X88882250Y-130189374D01*
X88881432Y-130189500D01*
X84604721Y-130189500D01*
X84595459Y-130189066D01*
X84578705Y-130187491D01*
X84437215Y-130174193D01*
X84420395Y-130171129D01*
X84270872Y-130130290D01*
X84254830Y-130124377D01*
X84184700Y-130091400D01*
X84114572Y-130058423D01*
X84099786Y-130049839D01*
X83972960Y-129960730D01*
X83959870Y-129949729D01*
X83850270Y-129840129D01*
X83839269Y-129827039D01*
X83750160Y-129700213D01*
X83741576Y-129685427D01*
X83714325Y-129627475D01*
X83675619Y-129545163D01*
X83669711Y-129529132D01*
X83649289Y-129454365D01*
X83628870Y-129379604D01*
X83625806Y-129362783D01*
X83610934Y-129204541D01*
X83610500Y-129195278D01*
X83610500Y-116522589D01*
X84583122Y-116522589D01*
X84583123Y-116522597D01*
X84606546Y-116611000D01*
X84606549Y-116611007D01*
X84636706Y-116668456D01*
X84636709Y-116668460D01*
X84675119Y-116719998D01*
X84675123Y-116720002D01*
X84675128Y-116720009D01*
X96335128Y-128100009D01*
X96344008Y-128108068D01*
X96346164Y-128110025D01*
X96357767Y-128119813D01*
X96357772Y-128119817D01*
X96426780Y-128158189D01*
X96488497Y-128178242D01*
X96488498Y-128178242D01*
X96488501Y-128178243D01*
X96551997Y-128188300D01*
X96552000Y-128188300D01*
X152431997Y-128188300D01*
X152432000Y-128188300D01*
X152446881Y-128187760D01*
X152462045Y-128186659D01*
X152538227Y-128165921D01*
X152596401Y-128137165D01*
X152648872Y-128100009D01*
X164308872Y-116720009D01*
X164339899Y-116681381D01*
X164366422Y-116638685D01*
X164377010Y-116619410D01*
X164397361Y-116530247D01*
X164397361Y-116504600D01*
X164397500Y-116502129D01*
X164397500Y-110907800D01*
X164393122Y-110868941D01*
X164392500Y-110857857D01*
X164392500Y-90413053D01*
X164392498Y-90413041D01*
X164389711Y-90399031D01*
X164380867Y-90354569D01*
X164336552Y-90288248D01*
X164336548Y-90288245D01*
X164270233Y-90243934D01*
X164270231Y-90243933D01*
X164270228Y-90243932D01*
X164270227Y-90243932D01*
X164211758Y-90232301D01*
X164211748Y-90232300D01*
X84772252Y-90232300D01*
X84772251Y-90232300D01*
X84772241Y-90232301D01*
X84713772Y-90243932D01*
X84713766Y-90243934D01*
X84647451Y-90288245D01*
X84647445Y-90288251D01*
X84603134Y-90354566D01*
X84603132Y-90354572D01*
X84591501Y-90413041D01*
X84591500Y-90413053D01*
X84591500Y-110874738D01*
X84589018Y-110896766D01*
X84586500Y-110907798D01*
X84586500Y-116469399D01*
X84585462Y-116483696D01*
X84585155Y-116485796D01*
X84585152Y-116485827D01*
X84583122Y-116522589D01*
X83610500Y-116522589D01*
X83610500Y-61300682D01*
X85246900Y-61300682D01*
X85246900Y-66895001D01*
X85251278Y-66933857D01*
X85251900Y-66944941D01*
X85251900Y-87389746D01*
X85251901Y-87389758D01*
X85263532Y-87448227D01*
X85263533Y-87448231D01*
X85307848Y-87514552D01*
X85374169Y-87558867D01*
X85418631Y-87567711D01*
X85432641Y-87570498D01*
X85432646Y-87570498D01*
X85432652Y-87570500D01*
X85432653Y-87570500D01*
X164872147Y-87570500D01*
X164872148Y-87570500D01*
X164930631Y-87558867D01*
X164996952Y-87514552D01*
X165041267Y-87448231D01*
X165052900Y-87389748D01*
X165052900Y-66928061D01*
X165055382Y-66906030D01*
X165057900Y-66895000D01*
X165057900Y-61333401D01*
X165058938Y-61319101D01*
X165059246Y-61316993D01*
X165061277Y-61280206D01*
X165037854Y-61191800D01*
X165007692Y-61134342D01*
X165007690Y-61134339D01*
X164969280Y-61082801D01*
X164969276Y-61082796D01*
X164969272Y-61082791D01*
X153309272Y-49702791D01*
X153298249Y-49692787D01*
X153298235Y-49692774D01*
X153286632Y-49682986D01*
X153286626Y-49682982D01*
X153217620Y-49644611D01*
X153155898Y-49624556D01*
X153092403Y-49614500D01*
X153092400Y-49614500D01*
X97212400Y-49614500D01*
X97201239Y-49614905D01*
X97197518Y-49615040D01*
X97182353Y-49616141D01*
X97182352Y-49616141D01*
X97106172Y-49636879D01*
X97048004Y-49665632D01*
X97047997Y-49665636D01*
X97023502Y-49682982D01*
X97009656Y-49692787D01*
X96995527Y-49702792D01*
X85335522Y-61082796D01*
X85335522Y-61082797D01*
X85304513Y-61121402D01*
X85304500Y-61121421D01*
X85277978Y-61164114D01*
X85277975Y-61164120D01*
X85267390Y-61183388D01*
X85247039Y-61272554D01*
X85247039Y-61298206D01*
X85246900Y-61300682D01*
X83610500Y-61300682D01*
X83610500Y-49804721D01*
X83610934Y-49795458D01*
X83625806Y-49637216D01*
X83628870Y-49620395D01*
X83638756Y-49584197D01*
X83669712Y-49470863D01*
X83675617Y-49454840D01*
X83741579Y-49314565D01*
X83750160Y-49299786D01*
X83839269Y-49172960D01*
X83850264Y-49159876D01*
X83959876Y-49050264D01*
X83972960Y-49039269D01*
X84099786Y-48950160D01*
X84114565Y-48941579D01*
X84254840Y-48875617D01*
X84270863Y-48869712D01*
X84384197Y-48838756D01*
X84420395Y-48828870D01*
X84437216Y-48825806D01*
X84595458Y-48810934D01*
X84604721Y-48810500D01*
X88881432Y-48810500D01*
X88882250Y-48810625D01*
X88896664Y-48810523D01*
X88896665Y-48810524D01*
X88899792Y-48810502D01*
X88900488Y-48810500D01*
X88923472Y-48810500D01*
X88924228Y-48810343D01*
X88988303Y-48809931D01*
X89161904Y-48778311D01*
X89327475Y-48717292D01*
X89327477Y-48717290D01*
X89327479Y-48717290D01*
X89435164Y-48654770D01*
X89480078Y-48628694D01*
X89615161Y-48515161D01*
X89728694Y-48380078D01*
X89817292Y-48227475D01*
X89878311Y-48061904D01*
X89909931Y-47888303D01*
X89910343Y-47824228D01*
X89910500Y-47823471D01*
X89910500Y-47800488D01*
X89910502Y-47799792D01*
X89910625Y-47782250D01*
X89910500Y-47781432D01*
X89910500Y-45649996D01*
X92034611Y-45649996D01*
X92034611Y-45650003D01*
X92054119Y-45848087D01*
X92054120Y-45848093D01*
X92105551Y-46017636D01*
X92111903Y-46038573D01*
X92205735Y-46214120D01*
X92205737Y-46214122D01*
X92205738Y-46214124D01*
X92332007Y-46367983D01*
X92332016Y-46367992D01*
X92485875Y-46494261D01*
X92485880Y-46494265D01*
X92661427Y-46588097D01*
X92768202Y-46620487D01*
X92851906Y-46645879D01*
X92851912Y-46645880D01*
X93049997Y-46665389D01*
X93050000Y-46665389D01*
X93050003Y-46665389D01*
X93248087Y-46645880D01*
X93248093Y-46645879D01*
X93438573Y-46588097D01*
X93614120Y-46494265D01*
X93767988Y-46367988D01*
X93894265Y-46214120D01*
X93988097Y-46038573D01*
X94045879Y-45848093D01*
X94046377Y-45843042D01*
X94065389Y-45650003D01*
X94065389Y-45649996D01*
X150234611Y-45649996D01*
X150234611Y-45650003D01*
X150254119Y-45848087D01*
X150254120Y-45848093D01*
X150305551Y-46017636D01*
X150311903Y-46038573D01*
X150405735Y-46214120D01*
X150405737Y-46214122D01*
X150405738Y-46214124D01*
X150532007Y-46367983D01*
X150532016Y-46367992D01*
X150685875Y-46494261D01*
X150685880Y-46494265D01*
X150861427Y-46588097D01*
X150968202Y-46620487D01*
X151051906Y-46645879D01*
X151051912Y-46645880D01*
X151249997Y-46665389D01*
X151250000Y-46665389D01*
X151250003Y-46665389D01*
X151448087Y-46645880D01*
X151448093Y-46645879D01*
X151638573Y-46588097D01*
X151814120Y-46494265D01*
X151967988Y-46367988D01*
X152094265Y-46214120D01*
X152188097Y-46038573D01*
X152245879Y-45848093D01*
X152246377Y-45843042D01*
X152265389Y-45650003D01*
X152265389Y-45649996D01*
X152245880Y-45451912D01*
X152245879Y-45451906D01*
X152230277Y-45400475D01*
X152188097Y-45261427D01*
X152094265Y-45085880D01*
X152094261Y-45085875D01*
X151967992Y-44932016D01*
X151967983Y-44932007D01*
X151814124Y-44805738D01*
X151814122Y-44805737D01*
X151814120Y-44805735D01*
X151738885Y-44765521D01*
X151638581Y-44711907D01*
X151638578Y-44711906D01*
X151638573Y-44711903D01*
X151617636Y-44705551D01*
X151448093Y-44654120D01*
X151448087Y-44654119D01*
X151250003Y-44634611D01*
X151249997Y-44634611D01*
X151051912Y-44654119D01*
X151051906Y-44654120D01*
X150861433Y-44711901D01*
X150861431Y-44711901D01*
X150861427Y-44711903D01*
X150861424Y-44711904D01*
X150861418Y-44711907D01*
X150685885Y-44805732D01*
X150685875Y-44805738D01*
X150532016Y-44932007D01*
X150532007Y-44932016D01*
X150405738Y-45085875D01*
X150405732Y-45085885D01*
X150311907Y-45261418D01*
X150311901Y-45261433D01*
X150254120Y-45451906D01*
X150254119Y-45451912D01*
X150234611Y-45649996D01*
X94065389Y-45649996D01*
X94045880Y-45451912D01*
X94045879Y-45451906D01*
X94030277Y-45400475D01*
X93988097Y-45261427D01*
X93894265Y-45085880D01*
X93894261Y-45085875D01*
X93767992Y-44932016D01*
X93767983Y-44932007D01*
X93614124Y-44805738D01*
X93614122Y-44805737D01*
X93614120Y-44805735D01*
X93538885Y-44765521D01*
X93438581Y-44711907D01*
X93438578Y-44711906D01*
X93438573Y-44711903D01*
X93417636Y-44705551D01*
X93248093Y-44654120D01*
X93248087Y-44654119D01*
X93050003Y-44634611D01*
X93049997Y-44634611D01*
X92851912Y-44654119D01*
X92851906Y-44654120D01*
X92661433Y-44711901D01*
X92661431Y-44711901D01*
X92661427Y-44711903D01*
X92661424Y-44711904D01*
X92661418Y-44711907D01*
X92485885Y-44805732D01*
X92485875Y-44805738D01*
X92332016Y-44932007D01*
X92332007Y-44932016D01*
X92205738Y-45085875D01*
X92205732Y-45085885D01*
X92111907Y-45261418D01*
X92111901Y-45261433D01*
X92054120Y-45451906D01*
X92054119Y-45451912D01*
X92034611Y-45649996D01*
X89910500Y-45649996D01*
X89910500Y-41016893D01*
X155126900Y-41016893D01*
X155126900Y-47403106D01*
X155137523Y-47491565D01*
X155193037Y-47632339D01*
X155193038Y-47632341D01*
X155193039Y-47632342D01*
X155284478Y-47752922D01*
X155405058Y-47844361D01*
X155405059Y-47844361D01*
X155405060Y-47844362D01*
X155475447Y-47872119D01*
X155545836Y-47899877D01*
X155634298Y-47910500D01*
X155634300Y-47910500D01*
X164520500Y-47910500D01*
X164520502Y-47910500D01*
X164608964Y-47899877D01*
X164749742Y-47844361D01*
X164870322Y-47752922D01*
X164961761Y-47632342D01*
X165017277Y-47491564D01*
X165027900Y-47403102D01*
X165027900Y-41016898D01*
X165017277Y-40928436D01*
X164961761Y-40787658D01*
X164870322Y-40667078D01*
X164749742Y-40575639D01*
X164749741Y-40575638D01*
X164749739Y-40575637D01*
X164608965Y-40520123D01*
X164520506Y-40509500D01*
X164520502Y-40509500D01*
X155634298Y-40509500D01*
X155634293Y-40509500D01*
X155545834Y-40520123D01*
X155405060Y-40575637D01*
X155405056Y-40575640D01*
X155284481Y-40667075D01*
X155284475Y-40667081D01*
X155193040Y-40787656D01*
X155193037Y-40787660D01*
X155137523Y-40928434D01*
X155126900Y-41016893D01*
X89910500Y-41016893D01*
X89910500Y-40504721D01*
X89910934Y-40495458D01*
X89925806Y-40337216D01*
X89928870Y-40320395D01*
X89938756Y-40284197D01*
X89969712Y-40170863D01*
X89975617Y-40154840D01*
X90041579Y-40014565D01*
X90050160Y-39999786D01*
X90139269Y-39872960D01*
X90150264Y-39859876D01*
X90259876Y-39750264D01*
X90272960Y-39739269D01*
X90399786Y-39650160D01*
X90414565Y-39641579D01*
X90554840Y-39575617D01*
X90570863Y-39569712D01*
X90684197Y-39538756D01*
X90720395Y-39528870D01*
X90737216Y-39525806D01*
X90895458Y-39510934D01*
X90904721Y-39510500D01*
X164395279Y-39510500D01*
X164404540Y-39510933D01*
G37*
G04 #@! TD.AperFunction*
M02*
