G04 #@! TF.GenerationSoftware,KiCad,Pcbnew,8.0.2*
G04 #@! TF.CreationDate,2024-08-20T08:19:13+02:00*
G04 #@! TF.ProjectId,STS1_SIDEPANEL,53545331-5f53-4494-9445-50414e454c2e,rev?*
G04 #@! TF.SameCoordinates,Original*
G04 #@! TF.FileFunction,Copper,L2,Inr*
G04 #@! TF.FilePolarity,Positive*
%FSLAX46Y46*%
G04 Gerber Fmt 4.6, Leading zero omitted, Abs format (unit mm)*
G04 Created by KiCad (PCBNEW 8.0.2) date 2024-08-20 08:19:13*
%MOMM*%
%LPD*%
G01*
G04 APERTURE LIST*
G04 #@! TA.AperFunction,FiducialPad,Local*
%ADD10C,6.000000*%
G04 #@! TD*
G04 #@! TA.AperFunction,FiducialPad,Global*
%ADD11C,6.000000*%
G04 #@! TD*
G04 #@! TA.AperFunction,ViaPad*
%ADD12C,0.600000*%
G04 #@! TD*
G04 #@! TA.AperFunction,ViaPad*
%ADD13C,0.800000*%
G04 #@! TD*
G04 APERTURE END LIST*
D10*
X148492000Y-108097800D03*
D11*
X124492000Y-108097800D03*
X98492000Y-108097800D03*
D10*
X101152400Y-69705000D03*
D11*
X125152400Y-69705000D03*
X151152400Y-69705000D03*
D12*
X84225000Y-76750000D03*
X99000000Y-135275000D03*
X165500000Y-123500000D03*
X99000000Y-138275000D03*
X149325000Y-41200000D03*
D13*
X91000000Y-89100000D03*
D12*
X130700000Y-45500000D03*
X115140000Y-133825000D03*
X165500000Y-117500000D03*
X101900000Y-136775000D03*
X90875000Y-50400000D03*
X133600000Y-41000000D03*
X118200000Y-42500000D03*
X132200000Y-45500000D03*
X146425000Y-41200000D03*
X130700000Y-41000000D03*
X161000000Y-128000000D03*
X115140000Y-136825000D03*
X96000000Y-138225000D03*
X165500000Y-102500000D03*
X103460000Y-138275000D03*
X84225000Y-73750000D03*
X165000000Y-54500000D03*
X121100000Y-138325000D03*
X99900000Y-42500000D03*
X98400000Y-44000000D03*
X155000000Y-131000000D03*
X84225000Y-69250000D03*
X113640000Y-136825000D03*
X161975000Y-136900000D03*
X165500000Y-107000000D03*
X84225000Y-79750000D03*
X165475000Y-89150000D03*
X92400000Y-40975000D03*
X146425000Y-45700000D03*
X147100000Y-136875000D03*
X88850000Y-88975000D03*
X131500000Y-136825000D03*
X135100000Y-44000000D03*
X159500000Y-126500000D03*
X96000000Y-133725000D03*
X165500000Y-96500000D03*
X165500000Y-101000000D03*
X84225000Y-61750000D03*
X92375000Y-48900000D03*
X132200000Y-41000000D03*
X145600000Y-138375000D03*
X155000000Y-129500000D03*
X92375000Y-50400000D03*
X119600000Y-138325000D03*
X159500000Y-129500000D03*
X115300000Y-41000000D03*
X84875000Y-53600000D03*
X164000000Y-131000000D03*
X161000000Y-125000000D03*
X150000000Y-133875000D03*
X134500000Y-133825000D03*
X157400000Y-133875000D03*
X151500000Y-136875000D03*
X125800000Y-41000000D03*
X162500000Y-129500000D03*
X119600000Y-133825000D03*
X125600000Y-136825000D03*
X156000000Y-135375000D03*
X132200000Y-42500000D03*
X84225000Y-67750000D03*
X124100000Y-135325000D03*
X119600000Y-136825000D03*
X87875000Y-53600000D03*
X165500000Y-108500000D03*
X96900000Y-45500000D03*
X100500000Y-138275000D03*
X84225000Y-63250000D03*
X149325000Y-45700000D03*
X134500000Y-138325000D03*
X147100000Y-138375000D03*
X134500000Y-136825000D03*
X153000000Y-138375000D03*
X99000000Y-133775000D03*
X147925000Y-44200000D03*
X165500000Y-90500000D03*
X165500000Y-104000000D03*
X127100000Y-136825000D03*
X99900000Y-45500000D03*
X162500000Y-122000000D03*
X164000000Y-123500000D03*
X165500000Y-122000000D03*
X101300000Y-41000000D03*
X93875000Y-47400000D03*
X152325000Y-42700000D03*
X153000000Y-136875000D03*
X119800000Y-41000000D03*
X150000000Y-136875000D03*
X159500000Y-131000000D03*
X162500000Y-126500000D03*
X158000000Y-129500000D03*
X165500000Y-111500000D03*
X162500000Y-128000000D03*
X162500000Y-125000000D03*
X95275000Y-47400000D03*
X86375000Y-54975000D03*
X87875000Y-52100000D03*
X165500000Y-98000000D03*
X89375000Y-52100000D03*
X160525000Y-89125000D03*
X84225000Y-72250000D03*
X156000000Y-136875000D03*
X84225000Y-82750000D03*
X165500000Y-114500000D03*
X161000000Y-123500000D03*
X116640000Y-133825000D03*
X164000000Y-122000000D03*
X118200000Y-45500000D03*
X97500000Y-135275000D03*
X102900000Y-44000000D03*
X124100000Y-136825000D03*
X127100000Y-135325000D03*
X165000000Y-49500000D03*
X150000000Y-138375000D03*
X156500000Y-131000000D03*
X115300000Y-42500000D03*
X84875000Y-52100000D03*
X154500000Y-136875000D03*
X133600000Y-44000000D03*
X134500000Y-135325000D03*
X90900000Y-40975000D03*
X133000000Y-138325000D03*
X152325000Y-41200000D03*
X156500000Y-128000000D03*
X86375000Y-52100000D03*
X95300000Y-40975000D03*
X161000000Y-129500000D03*
X161000000Y-126500000D03*
X87875000Y-54975000D03*
X119600000Y-135325000D03*
X165500000Y-129500000D03*
X160575000Y-133900000D03*
X84225000Y-88975000D03*
X122600000Y-133825000D03*
X104400000Y-45500000D03*
X98400000Y-45500000D03*
X127100000Y-138325000D03*
X121100000Y-135325000D03*
X165500000Y-131000000D03*
X87875000Y-50500000D03*
X118040000Y-136825000D03*
X115140000Y-135325000D03*
X158000000Y-126500000D03*
X157400000Y-138375000D03*
X159075000Y-136900000D03*
X130000000Y-138325000D03*
X125600000Y-135325000D03*
X130700000Y-42500000D03*
X104400000Y-42500000D03*
X165500000Y-126500000D03*
X135100000Y-41000000D03*
X145600000Y-136875000D03*
X164000000Y-128000000D03*
X121300000Y-42500000D03*
X164000000Y-129500000D03*
X147100000Y-135375000D03*
X153875000Y-45700000D03*
X159075000Y-138400000D03*
X89375000Y-50500000D03*
X121100000Y-133825000D03*
X133600000Y-45500000D03*
X84225000Y-78250000D03*
X97500000Y-138275000D03*
X162500000Y-131000000D03*
X146425000Y-42700000D03*
X93900000Y-42475000D03*
X165500000Y-125000000D03*
X104400000Y-44000000D03*
X92400000Y-42475000D03*
X157400000Y-136875000D03*
X153000000Y-133875000D03*
X165500000Y-119000000D03*
X115140000Y-138325000D03*
X86375000Y-50500000D03*
X84875000Y-57575000D03*
X95300000Y-42475000D03*
X89375000Y-53600000D03*
X93875000Y-48900000D03*
X121100000Y-136825000D03*
X159500000Y-125000000D03*
X157400000Y-135375000D03*
X98400000Y-42500000D03*
X147925000Y-42700000D03*
X153875000Y-41200000D03*
X162375000Y-89125000D03*
X121300000Y-41000000D03*
X96900000Y-42500000D03*
X149325000Y-44200000D03*
X101900000Y-138275000D03*
X125600000Y-133825000D03*
X156500000Y-129500000D03*
X164000000Y-125000000D03*
X99900000Y-44000000D03*
X150825000Y-41200000D03*
X84875000Y-50500000D03*
X135100000Y-42500000D03*
X100500000Y-136775000D03*
X96000000Y-135225000D03*
X153000000Y-135375000D03*
X132200000Y-44000000D03*
X116800000Y-41000000D03*
X158000000Y-128000000D03*
X129200000Y-41000000D03*
X148600000Y-135375000D03*
X153875000Y-42700000D03*
X101300000Y-42500000D03*
X102900000Y-45500000D03*
X102900000Y-41000000D03*
X122600000Y-136825000D03*
X129200000Y-42500000D03*
X148600000Y-138375000D03*
X165500000Y-92000000D03*
X122600000Y-135325000D03*
X84875000Y-56375000D03*
X116800000Y-42500000D03*
X96900000Y-44000000D03*
X119800000Y-45500000D03*
X121300000Y-44000000D03*
X164000000Y-126500000D03*
X90875000Y-47400000D03*
X154500000Y-133875000D03*
X118040000Y-138325000D03*
X118040000Y-135325000D03*
X124100000Y-133825000D03*
X84225000Y-84250000D03*
X84225000Y-85750000D03*
X116640000Y-135325000D03*
X159500000Y-128000000D03*
X90875000Y-52100000D03*
X145600000Y-133875000D03*
X146425000Y-44200000D03*
X102900000Y-42500000D03*
X97500000Y-136775000D03*
X165500000Y-116000000D03*
X99000000Y-136775000D03*
X156000000Y-138375000D03*
X84225000Y-87250000D03*
X116800000Y-44000000D03*
X113640000Y-138325000D03*
X119800000Y-42500000D03*
X153875000Y-44200000D03*
X86375000Y-56375000D03*
X133000000Y-135325000D03*
X147925000Y-41200000D03*
X101300000Y-44000000D03*
X118040000Y-133825000D03*
X158000000Y-131000000D03*
X127300000Y-41000000D03*
X113640000Y-133825000D03*
X93900000Y-40975000D03*
X116800000Y-45500000D03*
X165500000Y-110000000D03*
X151500000Y-135375000D03*
X97500000Y-133775000D03*
X84225000Y-64750000D03*
X128500000Y-138325000D03*
X96900000Y-41000000D03*
X159075000Y-133900000D03*
X118200000Y-41000000D03*
X93875000Y-50400000D03*
X150000000Y-135375000D03*
X151500000Y-133875000D03*
X84225000Y-66250000D03*
X127100000Y-133825000D03*
X129200000Y-45500000D03*
X160575000Y-138400000D03*
X122800000Y-41000000D03*
X119800000Y-44000000D03*
X147100000Y-133875000D03*
X96000000Y-136725000D03*
X131500000Y-138325000D03*
X165500000Y-120500000D03*
X156000000Y-133875000D03*
X163975000Y-89125000D03*
X165500000Y-99500000D03*
X159075000Y-135400000D03*
X101900000Y-135275000D03*
X145600000Y-135375000D03*
X86375000Y-53600000D03*
X124200000Y-41000000D03*
X165500000Y-105500000D03*
X98400000Y-41000000D03*
X116640000Y-136825000D03*
X84225000Y-81250000D03*
X129200000Y-44000000D03*
X90900000Y-42475000D03*
X130700000Y-44000000D03*
X149325000Y-42700000D03*
X162500000Y-123500000D03*
X116640000Y-138325000D03*
X100500000Y-135275000D03*
X133600000Y-42500000D03*
X101300000Y-45500000D03*
X85725000Y-88975000D03*
X164000000Y-120500000D03*
X165500000Y-128000000D03*
X122600000Y-138325000D03*
X115300000Y-45500000D03*
X92375000Y-47400000D03*
X90875000Y-48900000D03*
X84875000Y-58975000D03*
X160575000Y-136900000D03*
X135100000Y-45500000D03*
X154500000Y-138375000D03*
X104400000Y-41000000D03*
X161000000Y-131000000D03*
X130000000Y-136825000D03*
X148600000Y-133875000D03*
X165500000Y-93500000D03*
X133000000Y-136825000D03*
X147925000Y-45700000D03*
X84225000Y-70750000D03*
X148600000Y-136875000D03*
X135900000Y-138325000D03*
X124100000Y-138325000D03*
X154500000Y-135375000D03*
X84225000Y-75250000D03*
X165500000Y-113000000D03*
X87350000Y-88975000D03*
X161975000Y-138400000D03*
X95275000Y-48900000D03*
X113640000Y-135325000D03*
X128500000Y-136825000D03*
X115300000Y-44000000D03*
X99900000Y-41000000D03*
X118200000Y-44000000D03*
X165500000Y-95000000D03*
X161975000Y-135400000D03*
X125600000Y-138325000D03*
X84875000Y-54975000D03*
X151500000Y-138375000D03*
X160575000Y-135400000D03*
X150825000Y-42700000D03*
X92500000Y-98050000D03*
X150625000Y-85300000D03*
X148400000Y-99830000D03*
X107440000Y-77540000D03*
X135700000Y-85365000D03*
X113500000Y-99550000D03*
X145070000Y-103750000D03*
X133510000Y-76115000D03*
X137025000Y-93975000D03*
X107440000Y-74540000D03*
X138010000Y-77615000D03*
X91000000Y-95050000D03*
X116520000Y-83800000D03*
X112000000Y-95050000D03*
X110440000Y-77540000D03*
X130510000Y-76115000D03*
X104500000Y-96550000D03*
X110500000Y-99550000D03*
X118000000Y-96550000D03*
X109000000Y-98050000D03*
X136510000Y-79115000D03*
X109000000Y-95050000D03*
X108940000Y-76040000D03*
X119500000Y-96550000D03*
X117390000Y-80880000D03*
X141252000Y-87700000D03*
X115000000Y-95050000D03*
X108940000Y-77540000D03*
X135700000Y-87725000D03*
X141252000Y-90682000D03*
X136510000Y-76115000D03*
X116500000Y-95050000D03*
X105940000Y-74540000D03*
X147750000Y-85300000D03*
X117130000Y-82425000D03*
X115000000Y-99550000D03*
X125440000Y-79190000D03*
X112000000Y-99550000D03*
X131500000Y-88750000D03*
X119500000Y-98050000D03*
X131500000Y-89875000D03*
X113500000Y-98050000D03*
X129225000Y-96325000D03*
X89500000Y-96550000D03*
X149125000Y-85300000D03*
X126940000Y-79200000D03*
X140250000Y-103750000D03*
X116500000Y-98050000D03*
X138600000Y-87700000D03*
X138010000Y-79115000D03*
X134500000Y-87725000D03*
X110500000Y-98050000D03*
X132010000Y-77615000D03*
X138750000Y-103750000D03*
X122500000Y-95050000D03*
X116500000Y-99550000D03*
X142070000Y-103750000D03*
X110440000Y-74540000D03*
X143920000Y-98300000D03*
X105940000Y-77540000D03*
X122500000Y-98050000D03*
X137250000Y-103750000D03*
X150550000Y-98305000D03*
X89500000Y-98050000D03*
X103000000Y-98050000D03*
X91000000Y-98050000D03*
X88000000Y-96550000D03*
X116500000Y-96550000D03*
X110500000Y-96550000D03*
X136172000Y-93984000D03*
X86000000Y-96550000D03*
X88000000Y-98050000D03*
X91000000Y-96550000D03*
X118000000Y-99550000D03*
X135700000Y-89875000D03*
X135010000Y-77615000D03*
X107500000Y-96550000D03*
X91000000Y-99550000D03*
X133000000Y-88750000D03*
X92500000Y-95050000D03*
X112000000Y-98050000D03*
X133510000Y-77615000D03*
X113500000Y-96550000D03*
X115000000Y-96550000D03*
X145400000Y-98300000D03*
X121000000Y-98050000D03*
X116990000Y-86090000D03*
X131500000Y-87725000D03*
X146900000Y-101475000D03*
X134500000Y-85365000D03*
X140050000Y-89025000D03*
X137900000Y-93984000D03*
X137025000Y-92451000D03*
X134500000Y-89875000D03*
X103000000Y-96550000D03*
X132010000Y-79115000D03*
X134500000Y-88750000D03*
X105940000Y-76040000D03*
X130510000Y-79115000D03*
X133000000Y-89875000D03*
X103000000Y-95050000D03*
X151825000Y-85300000D03*
X109000000Y-99550000D03*
X86000000Y-95050000D03*
X125440000Y-80830000D03*
X110500000Y-95050000D03*
X140050000Y-87700000D03*
X113500000Y-95050000D03*
X86000000Y-99550000D03*
X88000000Y-99550000D03*
X119500000Y-99550000D03*
X118160000Y-83795000D03*
X149150000Y-97560000D03*
X136510000Y-77615000D03*
X88000000Y-95050000D03*
X135700000Y-86500000D03*
X138010000Y-76115000D03*
X104500000Y-95050000D03*
X143570000Y-103750000D03*
X118900000Y-79270000D03*
X136172000Y-92460000D03*
X129225000Y-95300000D03*
X107440000Y-76040000D03*
X108940000Y-74540000D03*
X122500000Y-99550000D03*
X118160000Y-82445000D03*
X121000000Y-96550000D03*
X89500000Y-99550000D03*
X115000000Y-98050000D03*
X134500000Y-86500000D03*
X137900000Y-92460000D03*
X145400000Y-101475000D03*
X119500000Y-95050000D03*
X106000000Y-95060000D03*
X141252000Y-89025000D03*
X110440000Y-76040000D03*
X145050000Y-85300000D03*
X118000000Y-95050000D03*
X133000000Y-87725000D03*
X121000000Y-99550000D03*
X121000000Y-95050000D03*
X133510000Y-79115000D03*
X135700000Y-88750000D03*
X126940000Y-80840000D03*
X98550000Y-124200000D03*
X109000000Y-96550000D03*
X133000000Y-86510000D03*
X132010000Y-76115000D03*
X146550000Y-85300000D03*
X92500000Y-96550000D03*
X130510000Y-77615000D03*
X118000000Y-98050000D03*
X145400000Y-99830000D03*
X118904000Y-80864000D03*
X112000000Y-96550000D03*
X104500000Y-98050000D03*
X86000000Y-98050000D03*
X135010000Y-79115000D03*
X146900000Y-99830000D03*
X133000000Y-85375000D03*
X106000000Y-96560000D03*
X107500000Y-95050000D03*
X89500000Y-95050000D03*
X113634000Y-87231000D03*
X135010000Y-76115000D03*
X150550000Y-96825000D03*
X122500000Y-96550000D03*
X133025000Y-133150000D03*
X131675000Y-135775000D03*
X128725000Y-134925000D03*
D13*
X130000000Y-132075000D03*
G04 #@! TA.AperFunction,Conductor*
G36*
X164404540Y-39510933D02*
G01*
X164518978Y-39521689D01*
X164562784Y-39525806D01*
X164579604Y-39528870D01*
X164654365Y-39549289D01*
X164729132Y-39569711D01*
X164745163Y-39575619D01*
X164885429Y-39641577D01*
X164900213Y-39650160D01*
X165027039Y-39739269D01*
X165040129Y-39750270D01*
X165149729Y-39859870D01*
X165160730Y-39872960D01*
X165249839Y-39999786D01*
X165258423Y-40014572D01*
X165324377Y-40154828D01*
X165330290Y-40170872D01*
X165371129Y-40320395D01*
X165374193Y-40337215D01*
X165389066Y-40495457D01*
X165389500Y-40504721D01*
X165389500Y-41983814D01*
X165388832Y-41989015D01*
X165389328Y-41997399D01*
X165389500Y-42003234D01*
X165389500Y-42016145D01*
X165390766Y-42021654D01*
X165393429Y-42066540D01*
X165393430Y-42066542D01*
X165432606Y-42192673D01*
X165500876Y-42305726D01*
X165500877Y-42305727D01*
X165500879Y-42305730D01*
X165594270Y-42399121D01*
X165707329Y-42467395D01*
X165833459Y-42506570D01*
X165889867Y-42509916D01*
X165907445Y-42512558D01*
X166008756Y-42537255D01*
X166029035Y-42544620D01*
X166120969Y-42589897D01*
X166139181Y-42601490D01*
X166219113Y-42665618D01*
X166234381Y-42680886D01*
X166298509Y-42760818D01*
X166310102Y-42779030D01*
X166355376Y-42870957D01*
X166362746Y-42891250D01*
X166386683Y-42989443D01*
X166389500Y-43012890D01*
X166389500Y-135988824D01*
X166387336Y-136009409D01*
X166365919Y-136110161D01*
X166358661Y-136131728D01*
X166315154Y-136224185D01*
X166303162Y-136243526D01*
X166239695Y-136323602D01*
X166223602Y-136339695D01*
X166143526Y-136403162D01*
X166124186Y-136415154D01*
X166071322Y-136440030D01*
X166031730Y-136458660D01*
X166010163Y-136465919D01*
X165911600Y-136486869D01*
X165886908Y-136488947D01*
X165846082Y-136487250D01*
X165842213Y-136487090D01*
X165842212Y-136487090D01*
X165727799Y-136509480D01*
X165727791Y-136509482D01*
X165621823Y-136558096D01*
X165530225Y-136630214D01*
X165530214Y-136630225D01*
X165458096Y-136721823D01*
X165409482Y-136827791D01*
X165409480Y-136827799D01*
X165387090Y-136942211D01*
X165389415Y-136998147D01*
X165389500Y-137002258D01*
X165389500Y-138495278D01*
X165389066Y-138504542D01*
X165374193Y-138662784D01*
X165371129Y-138679604D01*
X165330290Y-138829127D01*
X165324377Y-138845171D01*
X165258423Y-138985427D01*
X165249839Y-139000213D01*
X165160730Y-139127039D01*
X165149729Y-139140129D01*
X165040129Y-139249729D01*
X165027039Y-139260730D01*
X164900213Y-139349839D01*
X164885427Y-139358423D01*
X164745171Y-139424377D01*
X164729127Y-139430290D01*
X164579604Y-139471129D01*
X164562784Y-139474193D01*
X164419854Y-139487626D01*
X164404540Y-139489066D01*
X164395279Y-139489500D01*
X90904721Y-139489500D01*
X90895459Y-139489066D01*
X90878705Y-139487491D01*
X90737215Y-139474193D01*
X90720395Y-139471129D01*
X90570872Y-139430290D01*
X90554830Y-139424377D01*
X90484700Y-139391400D01*
X90414572Y-139358423D01*
X90399786Y-139349839D01*
X90272960Y-139260730D01*
X90259870Y-139249729D01*
X90150270Y-139140129D01*
X90139269Y-139127039D01*
X90050160Y-139000213D01*
X90041576Y-138985427D01*
X90014325Y-138927475D01*
X89975619Y-138845163D01*
X89969711Y-138829132D01*
X89949289Y-138754365D01*
X89928870Y-138679604D01*
X89925806Y-138662783D01*
X89910934Y-138504541D01*
X89910500Y-138495278D01*
X89910500Y-135774997D01*
X131169353Y-135774997D01*
X131169353Y-135775002D01*
X131189834Y-135917456D01*
X131249622Y-136048371D01*
X131249623Y-136048373D01*
X131321850Y-136131728D01*
X131343873Y-136157144D01*
X131464318Y-136234549D01*
X131464947Y-136234953D01*
X131571403Y-136266211D01*
X131603035Y-136275499D01*
X131603036Y-136275499D01*
X131603039Y-136275500D01*
X131603041Y-136275500D01*
X131746959Y-136275500D01*
X131746961Y-136275500D01*
X131885053Y-136234953D01*
X132006128Y-136157143D01*
X132100377Y-136048373D01*
X132160165Y-135917457D01*
X132180647Y-135775000D01*
X132160165Y-135632543D01*
X132100377Y-135501627D01*
X132006128Y-135392857D01*
X132006127Y-135392856D01*
X132006126Y-135392855D01*
X131885057Y-135315049D01*
X131885054Y-135315047D01*
X131885053Y-135315047D01*
X131858138Y-135307144D01*
X131746964Y-135274500D01*
X131746961Y-135274500D01*
X131603039Y-135274500D01*
X131603035Y-135274500D01*
X131464949Y-135315046D01*
X131464942Y-135315049D01*
X131343873Y-135392855D01*
X131249622Y-135501628D01*
X131189834Y-135632543D01*
X131169353Y-135774997D01*
X89910500Y-135774997D01*
X89910500Y-134924997D01*
X128219353Y-134924997D01*
X128219353Y-134925002D01*
X128239834Y-135067456D01*
X128299622Y-135198371D01*
X128299623Y-135198373D01*
X128365587Y-135274500D01*
X128393873Y-135307144D01*
X128514942Y-135384950D01*
X128514947Y-135384953D01*
X128621403Y-135416211D01*
X128653035Y-135425499D01*
X128653036Y-135425499D01*
X128653039Y-135425500D01*
X128653041Y-135425500D01*
X128796959Y-135425500D01*
X128796961Y-135425500D01*
X128935053Y-135384953D01*
X129056128Y-135307143D01*
X129150377Y-135198373D01*
X129210165Y-135067457D01*
X129230647Y-134925000D01*
X129210165Y-134782543D01*
X129150377Y-134651627D01*
X129056128Y-134542857D01*
X129056127Y-134542856D01*
X129056126Y-134542855D01*
X128935057Y-134465049D01*
X128935054Y-134465047D01*
X128935053Y-134465047D01*
X128935050Y-134465046D01*
X128796964Y-134424500D01*
X128796961Y-134424500D01*
X128653039Y-134424500D01*
X128653035Y-134424500D01*
X128514949Y-134465046D01*
X128514942Y-134465049D01*
X128393873Y-134542855D01*
X128299622Y-134651628D01*
X128239834Y-134782543D01*
X128219353Y-134924997D01*
X89910500Y-134924997D01*
X89910500Y-133349996D01*
X100034611Y-133349996D01*
X100034611Y-133350003D01*
X100054119Y-133548087D01*
X100054120Y-133548093D01*
X100085186Y-133650500D01*
X100111903Y-133738573D01*
X100205735Y-133914120D01*
X100205737Y-133914122D01*
X100205738Y-133914124D01*
X100332007Y-134067983D01*
X100332016Y-134067992D01*
X100485875Y-134194261D01*
X100485880Y-134194265D01*
X100661427Y-134288097D01*
X100768202Y-134320487D01*
X100851906Y-134345879D01*
X100851912Y-134345880D01*
X101049997Y-134365389D01*
X101050000Y-134365389D01*
X101050003Y-134365389D01*
X101248087Y-134345880D01*
X101248093Y-134345879D01*
X101438573Y-134288097D01*
X101614120Y-134194265D01*
X101767988Y-134067988D01*
X101894265Y-133914120D01*
X101988097Y-133738573D01*
X102045879Y-133548093D01*
X102046377Y-133543042D01*
X102065389Y-133350003D01*
X102065389Y-133349996D01*
X102045880Y-133151912D01*
X102045879Y-133151906D01*
X102045300Y-133149997D01*
X132519353Y-133149997D01*
X132519353Y-133150002D01*
X132539834Y-133292456D01*
X132599622Y-133423371D01*
X132599623Y-133423373D01*
X132693872Y-133532143D01*
X132693873Y-133532144D01*
X132814942Y-133609950D01*
X132814947Y-133609953D01*
X132921403Y-133641211D01*
X132953035Y-133650499D01*
X132953036Y-133650499D01*
X132953039Y-133650500D01*
X132953041Y-133650500D01*
X133096959Y-133650500D01*
X133096961Y-133650500D01*
X133235053Y-133609953D01*
X133356128Y-133532143D01*
X133450377Y-133423373D01*
X133483888Y-133349996D01*
X162234611Y-133349996D01*
X162234611Y-133350003D01*
X162254119Y-133548087D01*
X162254120Y-133548093D01*
X162285186Y-133650500D01*
X162311903Y-133738573D01*
X162405735Y-133914120D01*
X162405737Y-133914122D01*
X162405738Y-133914124D01*
X162532007Y-134067983D01*
X162532016Y-134067992D01*
X162685875Y-134194261D01*
X162685880Y-134194265D01*
X162861427Y-134288097D01*
X162968202Y-134320487D01*
X163051906Y-134345879D01*
X163051912Y-134345880D01*
X163249997Y-134365389D01*
X163250000Y-134365389D01*
X163250003Y-134365389D01*
X163448087Y-134345880D01*
X163448093Y-134345879D01*
X163638573Y-134288097D01*
X163814120Y-134194265D01*
X163967988Y-134067988D01*
X164094265Y-133914120D01*
X164188097Y-133738573D01*
X164245879Y-133548093D01*
X164246377Y-133543042D01*
X164265389Y-133350003D01*
X164265389Y-133349996D01*
X164245880Y-133151912D01*
X164245879Y-133151906D01*
X164202086Y-133007543D01*
X164188097Y-132961427D01*
X164094265Y-132785880D01*
X164079472Y-132767855D01*
X163967992Y-132632016D01*
X163967983Y-132632007D01*
X163814124Y-132505738D01*
X163814122Y-132505737D01*
X163814120Y-132505735D01*
X163738885Y-132465521D01*
X163638581Y-132411907D01*
X163638578Y-132411906D01*
X163638573Y-132411903D01*
X163617636Y-132405551D01*
X163448093Y-132354120D01*
X163448087Y-132354119D01*
X163250003Y-132334611D01*
X163249997Y-132334611D01*
X163051912Y-132354119D01*
X163051906Y-132354120D01*
X162861433Y-132411901D01*
X162861431Y-132411901D01*
X162861427Y-132411903D01*
X162861424Y-132411904D01*
X162861418Y-132411907D01*
X162685885Y-132505732D01*
X162685875Y-132505738D01*
X162532016Y-132632007D01*
X162532007Y-132632016D01*
X162405738Y-132785875D01*
X162405732Y-132785885D01*
X162311907Y-132961418D01*
X162311901Y-132961433D01*
X162254120Y-133151906D01*
X162254119Y-133151912D01*
X162234611Y-133349996D01*
X133483888Y-133349996D01*
X133510165Y-133292457D01*
X133530647Y-133150000D01*
X133510165Y-133007543D01*
X133450377Y-132876627D01*
X133356128Y-132767857D01*
X133356127Y-132767856D01*
X133356126Y-132767855D01*
X133235057Y-132690049D01*
X133235054Y-132690047D01*
X133235053Y-132690047D01*
X133235050Y-132690046D01*
X133096964Y-132649500D01*
X133096961Y-132649500D01*
X132953039Y-132649500D01*
X132953035Y-132649500D01*
X132814949Y-132690046D01*
X132814942Y-132690049D01*
X132693873Y-132767855D01*
X132599622Y-132876628D01*
X132539834Y-133007543D01*
X132519353Y-133149997D01*
X102045300Y-133149997D01*
X102002086Y-133007543D01*
X101988097Y-132961427D01*
X101894265Y-132785880D01*
X101879472Y-132767855D01*
X101767992Y-132632016D01*
X101767983Y-132632007D01*
X101614124Y-132505738D01*
X101614122Y-132505737D01*
X101614120Y-132505735D01*
X101538885Y-132465521D01*
X101438581Y-132411907D01*
X101438578Y-132411906D01*
X101438573Y-132411903D01*
X101417636Y-132405551D01*
X101248093Y-132354120D01*
X101248087Y-132354119D01*
X101050003Y-132334611D01*
X101049997Y-132334611D01*
X100851912Y-132354119D01*
X100851906Y-132354120D01*
X100661433Y-132411901D01*
X100661431Y-132411901D01*
X100661427Y-132411903D01*
X100661424Y-132411904D01*
X100661418Y-132411907D01*
X100485885Y-132505732D01*
X100485875Y-132505738D01*
X100332016Y-132632007D01*
X100332007Y-132632016D01*
X100205738Y-132785875D01*
X100205732Y-132785885D01*
X100111907Y-132961418D01*
X100111901Y-132961433D01*
X100054120Y-133151906D01*
X100054119Y-133151912D01*
X100034611Y-133349996D01*
X89910500Y-133349996D01*
X89910500Y-132074999D01*
X129394318Y-132074999D01*
X129394318Y-132075000D01*
X129414955Y-132231758D01*
X129414957Y-132231766D01*
X129475462Y-132377838D01*
X129475462Y-132377839D01*
X129519953Y-132435821D01*
X129571718Y-132503282D01*
X129697159Y-132599536D01*
X129697160Y-132599536D01*
X129697161Y-132599537D01*
X129819757Y-132650318D01*
X129843238Y-132660044D01*
X129960809Y-132675522D01*
X129999999Y-132680682D01*
X130000000Y-132680682D01*
X130000001Y-132680682D01*
X130031352Y-132676554D01*
X130156762Y-132660044D01*
X130302841Y-132599536D01*
X130428282Y-132503282D01*
X130524536Y-132377841D01*
X130585044Y-132231762D01*
X130605682Y-132075000D01*
X130585044Y-131918238D01*
X130524537Y-131772161D01*
X130524537Y-131772160D01*
X130428286Y-131646723D01*
X130428285Y-131646722D01*
X130428282Y-131646718D01*
X130428277Y-131646714D01*
X130428276Y-131646713D01*
X130302838Y-131550462D01*
X130156766Y-131489957D01*
X130156758Y-131489955D01*
X130000001Y-131469318D01*
X129999999Y-131469318D01*
X129843241Y-131489955D01*
X129843233Y-131489957D01*
X129697161Y-131550462D01*
X129697160Y-131550462D01*
X129571723Y-131646713D01*
X129571713Y-131646723D01*
X129475462Y-131772160D01*
X129475462Y-131772161D01*
X129414957Y-131918233D01*
X129414955Y-131918241D01*
X129394318Y-132074999D01*
X89910500Y-132074999D01*
X89910500Y-131218922D01*
X89910627Y-131218111D01*
X89910502Y-131200205D01*
X89910500Y-131199512D01*
X89910500Y-131176981D01*
X89910346Y-131176219D01*
X89909931Y-131111697D01*
X89878311Y-130938096D01*
X89817292Y-130772525D01*
X89817291Y-130772524D01*
X89817290Y-130772520D01*
X89728694Y-130619922D01*
X89728691Y-130619918D01*
X89615166Y-130484845D01*
X89615161Y-130484839D01*
X89566812Y-130444203D01*
X89480081Y-130371308D01*
X89480077Y-130371305D01*
X89327479Y-130282709D01*
X89175254Y-130226609D01*
X89161904Y-130221689D01*
X89161902Y-130221688D01*
X89161898Y-130221687D01*
X88988309Y-130190069D01*
X88923776Y-130189653D01*
X88923020Y-130189500D01*
X88904349Y-130189500D01*
X88900488Y-130189500D01*
X88899792Y-130189498D01*
X88882250Y-130189374D01*
X88881432Y-130189500D01*
X84604721Y-130189500D01*
X84595459Y-130189066D01*
X84578705Y-130187491D01*
X84437215Y-130174193D01*
X84420395Y-130171129D01*
X84270872Y-130130290D01*
X84254830Y-130124377D01*
X84184700Y-130091400D01*
X84114572Y-130058423D01*
X84099786Y-130049839D01*
X83972960Y-129960730D01*
X83959870Y-129949729D01*
X83850270Y-129840129D01*
X83839269Y-129827039D01*
X83750160Y-129700213D01*
X83741576Y-129685427D01*
X83714325Y-129627475D01*
X83675619Y-129545163D01*
X83669711Y-129529132D01*
X83649289Y-129454365D01*
X83628870Y-129379604D01*
X83625806Y-129362783D01*
X83610934Y-129204541D01*
X83610500Y-129195278D01*
X83610500Y-108097795D01*
X95286457Y-108097795D01*
X95286457Y-108097804D01*
X95306611Y-108456697D01*
X95306614Y-108456717D01*
X95366824Y-108811087D01*
X95366828Y-108811107D01*
X95466340Y-109156523D01*
X95603907Y-109488637D01*
X95777787Y-109803249D01*
X95777789Y-109803252D01*
X95985806Y-110096423D01*
X96225339Y-110364461D01*
X96493377Y-110603994D01*
X96786548Y-110812011D01*
X96786550Y-110812012D01*
X97101163Y-110985892D01*
X97101162Y-110985892D01*
X97433276Y-111123459D01*
X97778692Y-111222971D01*
X97778695Y-111222971D01*
X97778700Y-111222973D01*
X98133093Y-111283187D01*
X98133096Y-111283187D01*
X98133102Y-111283188D01*
X98491995Y-111303343D01*
X98492000Y-111303343D01*
X98492005Y-111303343D01*
X98850897Y-111283188D01*
X98850901Y-111283187D01*
X98850907Y-111283187D01*
X99205300Y-111222973D01*
X99550724Y-111123459D01*
X99882833Y-110985894D01*
X100197452Y-110812011D01*
X100490623Y-110603994D01*
X100758661Y-110364461D01*
X100998194Y-110096423D01*
X101206211Y-109803252D01*
X101380094Y-109488633D01*
X101517659Y-109156524D01*
X101617173Y-108811100D01*
X101677387Y-108456707D01*
X101697543Y-108097800D01*
X101697543Y-108097795D01*
X121286457Y-108097795D01*
X121286457Y-108097804D01*
X121306611Y-108456697D01*
X121306614Y-108456717D01*
X121366824Y-108811087D01*
X121366828Y-108811107D01*
X121466340Y-109156523D01*
X121603907Y-109488637D01*
X121777787Y-109803249D01*
X121777789Y-109803252D01*
X121985806Y-110096423D01*
X122225339Y-110364461D01*
X122493377Y-110603994D01*
X122786548Y-110812011D01*
X122786550Y-110812012D01*
X123101163Y-110985892D01*
X123101162Y-110985892D01*
X123433276Y-111123459D01*
X123778692Y-111222971D01*
X123778695Y-111222971D01*
X123778700Y-111222973D01*
X124133093Y-111283187D01*
X124133096Y-111283187D01*
X124133102Y-111283188D01*
X124491995Y-111303343D01*
X124492000Y-111303343D01*
X124492005Y-111303343D01*
X124850897Y-111283188D01*
X124850901Y-111283187D01*
X124850907Y-111283187D01*
X125205300Y-111222973D01*
X125550724Y-111123459D01*
X125882833Y-110985894D01*
X126197452Y-110812011D01*
X126490623Y-110603994D01*
X126758661Y-110364461D01*
X126998194Y-110096423D01*
X127206211Y-109803252D01*
X127380094Y-109488633D01*
X127517659Y-109156524D01*
X127617173Y-108811100D01*
X127677387Y-108456707D01*
X127697543Y-108097800D01*
X127697543Y-108097795D01*
X145286457Y-108097795D01*
X145286457Y-108097804D01*
X145306611Y-108456697D01*
X145306614Y-108456717D01*
X145366824Y-108811087D01*
X145366828Y-108811107D01*
X145466340Y-109156523D01*
X145603907Y-109488637D01*
X145777787Y-109803249D01*
X145777789Y-109803252D01*
X145985806Y-110096423D01*
X146225339Y-110364461D01*
X146493377Y-110603994D01*
X146786548Y-110812011D01*
X146786550Y-110812012D01*
X147101163Y-110985892D01*
X147101162Y-110985892D01*
X147433276Y-111123459D01*
X147778692Y-111222971D01*
X147778695Y-111222971D01*
X147778700Y-111222973D01*
X148133093Y-111283187D01*
X148133096Y-111283187D01*
X148133102Y-111283188D01*
X148491995Y-111303343D01*
X148492000Y-111303343D01*
X148492005Y-111303343D01*
X148850897Y-111283188D01*
X148850901Y-111283187D01*
X148850907Y-111283187D01*
X149205300Y-111222973D01*
X149550724Y-111123459D01*
X149882833Y-110985894D01*
X150197452Y-110812011D01*
X150490623Y-110603994D01*
X150758661Y-110364461D01*
X150998194Y-110096423D01*
X151206211Y-109803252D01*
X151380094Y-109488633D01*
X151517659Y-109156524D01*
X151617173Y-108811100D01*
X151677387Y-108456707D01*
X151697543Y-108097800D01*
X151677387Y-107738893D01*
X151617173Y-107384500D01*
X151517659Y-107039076D01*
X151380094Y-106706967D01*
X151380092Y-106706962D01*
X151206212Y-106392350D01*
X150998197Y-106099181D01*
X150998196Y-106099180D01*
X150998194Y-106099177D01*
X150758661Y-105831139D01*
X150490623Y-105591606D01*
X150490620Y-105591604D01*
X150490618Y-105591602D01*
X150197449Y-105383587D01*
X149882836Y-105209707D01*
X149882837Y-105209707D01*
X149550723Y-105072140D01*
X149205307Y-104972628D01*
X149205287Y-104972624D01*
X148850917Y-104912414D01*
X148850897Y-104912411D01*
X148492005Y-104892257D01*
X148491995Y-104892257D01*
X148133102Y-104912411D01*
X148133082Y-104912414D01*
X147778712Y-104972624D01*
X147778692Y-104972628D01*
X147433276Y-105072140D01*
X147101162Y-105209707D01*
X146786550Y-105383587D01*
X146493381Y-105591602D01*
X146225346Y-105831132D01*
X146225332Y-105831146D01*
X145985802Y-106099181D01*
X145777787Y-106392350D01*
X145603907Y-106706962D01*
X145466340Y-107039076D01*
X145366828Y-107384492D01*
X145366824Y-107384512D01*
X145306614Y-107738882D01*
X145306611Y-107738902D01*
X145286457Y-108097795D01*
X127697543Y-108097795D01*
X127677387Y-107738893D01*
X127617173Y-107384500D01*
X127517659Y-107039076D01*
X127380094Y-106706967D01*
X127380092Y-106706962D01*
X127206212Y-106392350D01*
X126998197Y-106099181D01*
X126998196Y-106099180D01*
X126998194Y-106099177D01*
X126758661Y-105831139D01*
X126490623Y-105591606D01*
X126490620Y-105591604D01*
X126490618Y-105591602D01*
X126197449Y-105383587D01*
X125882836Y-105209707D01*
X125882837Y-105209707D01*
X125550723Y-105072140D01*
X125205307Y-104972628D01*
X125205287Y-104972624D01*
X124850917Y-104912414D01*
X124850897Y-104912411D01*
X124492005Y-104892257D01*
X124491995Y-104892257D01*
X124133102Y-104912411D01*
X124133082Y-104912414D01*
X123778712Y-104972624D01*
X123778692Y-104972628D01*
X123433276Y-105072140D01*
X123101162Y-105209707D01*
X122786550Y-105383587D01*
X122493381Y-105591602D01*
X122225346Y-105831132D01*
X122225332Y-105831146D01*
X121985802Y-106099181D01*
X121777787Y-106392350D01*
X121603907Y-106706962D01*
X121466340Y-107039076D01*
X121366828Y-107384492D01*
X121366824Y-107384512D01*
X121306614Y-107738882D01*
X121306611Y-107738902D01*
X121286457Y-108097795D01*
X101697543Y-108097795D01*
X101677387Y-107738893D01*
X101617173Y-107384500D01*
X101517659Y-107039076D01*
X101380094Y-106706967D01*
X101380092Y-106706962D01*
X101206212Y-106392350D01*
X100998197Y-106099181D01*
X100998196Y-106099180D01*
X100998194Y-106099177D01*
X100758661Y-105831139D01*
X100490623Y-105591606D01*
X100490620Y-105591604D01*
X100490618Y-105591602D01*
X100197449Y-105383587D01*
X99882836Y-105209707D01*
X99882837Y-105209707D01*
X99550723Y-105072140D01*
X99205307Y-104972628D01*
X99205287Y-104972624D01*
X98850917Y-104912414D01*
X98850897Y-104912411D01*
X98492005Y-104892257D01*
X98491995Y-104892257D01*
X98133102Y-104912411D01*
X98133082Y-104912414D01*
X97778712Y-104972624D01*
X97778692Y-104972628D01*
X97433276Y-105072140D01*
X97101162Y-105209707D01*
X96786550Y-105383587D01*
X96493381Y-105591602D01*
X96225346Y-105831132D01*
X96225332Y-105831146D01*
X95985802Y-106099181D01*
X95777787Y-106392350D01*
X95603907Y-106706962D01*
X95466340Y-107039076D01*
X95366828Y-107384492D01*
X95366824Y-107384512D01*
X95306614Y-107738882D01*
X95306611Y-107738902D01*
X95286457Y-108097795D01*
X83610500Y-108097795D01*
X83610500Y-69704995D01*
X97946857Y-69704995D01*
X97946857Y-69705004D01*
X97967011Y-70063897D01*
X97967014Y-70063917D01*
X98027224Y-70418287D01*
X98027228Y-70418307D01*
X98126740Y-70763723D01*
X98264307Y-71095837D01*
X98438187Y-71410449D01*
X98438189Y-71410452D01*
X98646206Y-71703623D01*
X98885739Y-71971661D01*
X99153777Y-72211194D01*
X99446948Y-72419211D01*
X99446950Y-72419212D01*
X99761563Y-72593092D01*
X99761562Y-72593092D01*
X100093676Y-72730659D01*
X100439092Y-72830171D01*
X100439095Y-72830171D01*
X100439100Y-72830173D01*
X100793493Y-72890387D01*
X100793496Y-72890387D01*
X100793502Y-72890388D01*
X101152395Y-72910543D01*
X101152400Y-72910543D01*
X101152405Y-72910543D01*
X101511297Y-72890388D01*
X101511301Y-72890387D01*
X101511307Y-72890387D01*
X101865700Y-72830173D01*
X102211124Y-72730659D01*
X102543233Y-72593094D01*
X102857852Y-72419211D01*
X103151023Y-72211194D01*
X103419061Y-71971661D01*
X103658594Y-71703623D01*
X103866611Y-71410452D01*
X104040494Y-71095833D01*
X104178059Y-70763724D01*
X104277573Y-70418300D01*
X104337787Y-70063907D01*
X104357943Y-69705000D01*
X104357943Y-69704995D01*
X121946857Y-69704995D01*
X121946857Y-69705004D01*
X121967011Y-70063897D01*
X121967014Y-70063917D01*
X122027224Y-70418287D01*
X122027228Y-70418307D01*
X122126740Y-70763723D01*
X122264307Y-71095837D01*
X122438187Y-71410449D01*
X122438189Y-71410452D01*
X122646206Y-71703623D01*
X122885739Y-71971661D01*
X123153777Y-72211194D01*
X123446948Y-72419211D01*
X123446950Y-72419212D01*
X123761563Y-72593092D01*
X123761562Y-72593092D01*
X124093676Y-72730659D01*
X124439092Y-72830171D01*
X124439095Y-72830171D01*
X124439100Y-72830173D01*
X124793493Y-72890387D01*
X124793496Y-72890387D01*
X124793502Y-72890388D01*
X125152395Y-72910543D01*
X125152400Y-72910543D01*
X125152405Y-72910543D01*
X125511297Y-72890388D01*
X125511301Y-72890387D01*
X125511307Y-72890387D01*
X125865700Y-72830173D01*
X126211124Y-72730659D01*
X126543233Y-72593094D01*
X126857852Y-72419211D01*
X127151023Y-72211194D01*
X127419061Y-71971661D01*
X127658594Y-71703623D01*
X127866611Y-71410452D01*
X128040494Y-71095833D01*
X128178059Y-70763724D01*
X128277573Y-70418300D01*
X128337787Y-70063907D01*
X128357943Y-69705000D01*
X128357943Y-69704995D01*
X147946857Y-69704995D01*
X147946857Y-69705004D01*
X147967011Y-70063897D01*
X147967014Y-70063917D01*
X148027224Y-70418287D01*
X148027228Y-70418307D01*
X148126740Y-70763723D01*
X148264307Y-71095837D01*
X148438187Y-71410449D01*
X148438189Y-71410452D01*
X148646206Y-71703623D01*
X148885739Y-71971661D01*
X149153777Y-72211194D01*
X149446948Y-72419211D01*
X149446950Y-72419212D01*
X149761563Y-72593092D01*
X149761562Y-72593092D01*
X150093676Y-72730659D01*
X150439092Y-72830171D01*
X150439095Y-72830171D01*
X150439100Y-72830173D01*
X150793493Y-72890387D01*
X150793496Y-72890387D01*
X150793502Y-72890388D01*
X151152395Y-72910543D01*
X151152400Y-72910543D01*
X151152405Y-72910543D01*
X151511297Y-72890388D01*
X151511301Y-72890387D01*
X151511307Y-72890387D01*
X151865700Y-72830173D01*
X152211124Y-72730659D01*
X152543233Y-72593094D01*
X152857852Y-72419211D01*
X153151023Y-72211194D01*
X153419061Y-71971661D01*
X153658594Y-71703623D01*
X153866611Y-71410452D01*
X154040494Y-71095833D01*
X154178059Y-70763724D01*
X154277573Y-70418300D01*
X154337787Y-70063907D01*
X154357943Y-69705000D01*
X154337787Y-69346093D01*
X154277573Y-68991700D01*
X154178059Y-68646276D01*
X154040494Y-68314167D01*
X154040492Y-68314162D01*
X153866612Y-67999550D01*
X153658597Y-67706381D01*
X153658596Y-67706380D01*
X153658594Y-67706377D01*
X153419061Y-67438339D01*
X153151023Y-67198806D01*
X153151020Y-67198804D01*
X153151018Y-67198802D01*
X152857849Y-66990787D01*
X152543236Y-66816907D01*
X152543237Y-66816907D01*
X152211123Y-66679340D01*
X151865707Y-66579828D01*
X151865687Y-66579824D01*
X151511317Y-66519614D01*
X151511297Y-66519611D01*
X151152405Y-66499457D01*
X151152395Y-66499457D01*
X150793502Y-66519611D01*
X150793482Y-66519614D01*
X150439112Y-66579824D01*
X150439092Y-66579828D01*
X150093676Y-66679340D01*
X149761562Y-66816907D01*
X149446950Y-66990787D01*
X149153781Y-67198802D01*
X148885746Y-67438332D01*
X148885732Y-67438346D01*
X148646202Y-67706381D01*
X148438187Y-67999550D01*
X148264307Y-68314162D01*
X148126740Y-68646276D01*
X148027228Y-68991692D01*
X148027224Y-68991712D01*
X147967014Y-69346082D01*
X147967011Y-69346102D01*
X147946857Y-69704995D01*
X128357943Y-69704995D01*
X128337787Y-69346093D01*
X128277573Y-68991700D01*
X128178059Y-68646276D01*
X128040494Y-68314167D01*
X128040492Y-68314162D01*
X127866612Y-67999550D01*
X127658597Y-67706381D01*
X127658596Y-67706380D01*
X127658594Y-67706377D01*
X127419061Y-67438339D01*
X127151023Y-67198806D01*
X127151020Y-67198804D01*
X127151018Y-67198802D01*
X126857849Y-66990787D01*
X126543236Y-66816907D01*
X126543237Y-66816907D01*
X126211123Y-66679340D01*
X125865707Y-66579828D01*
X125865687Y-66579824D01*
X125511317Y-66519614D01*
X125511297Y-66519611D01*
X125152405Y-66499457D01*
X125152395Y-66499457D01*
X124793502Y-66519611D01*
X124793482Y-66519614D01*
X124439112Y-66579824D01*
X124439092Y-66579828D01*
X124093676Y-66679340D01*
X123761562Y-66816907D01*
X123446950Y-66990787D01*
X123153781Y-67198802D01*
X122885746Y-67438332D01*
X122885732Y-67438346D01*
X122646202Y-67706381D01*
X122438187Y-67999550D01*
X122264307Y-68314162D01*
X122126740Y-68646276D01*
X122027228Y-68991692D01*
X122027224Y-68991712D01*
X121967014Y-69346082D01*
X121967011Y-69346102D01*
X121946857Y-69704995D01*
X104357943Y-69704995D01*
X104337787Y-69346093D01*
X104277573Y-68991700D01*
X104178059Y-68646276D01*
X104040494Y-68314167D01*
X104040492Y-68314162D01*
X103866612Y-67999550D01*
X103658597Y-67706381D01*
X103658596Y-67706380D01*
X103658594Y-67706377D01*
X103419061Y-67438339D01*
X103151023Y-67198806D01*
X103151020Y-67198804D01*
X103151018Y-67198802D01*
X102857849Y-66990787D01*
X102543236Y-66816907D01*
X102543237Y-66816907D01*
X102211123Y-66679340D01*
X101865707Y-66579828D01*
X101865687Y-66579824D01*
X101511317Y-66519614D01*
X101511297Y-66519611D01*
X101152405Y-66499457D01*
X101152395Y-66499457D01*
X100793502Y-66519611D01*
X100793482Y-66519614D01*
X100439112Y-66579824D01*
X100439092Y-66579828D01*
X100093676Y-66679340D01*
X99761562Y-66816907D01*
X99446950Y-66990787D01*
X99153781Y-67198802D01*
X98885746Y-67438332D01*
X98885732Y-67438346D01*
X98646202Y-67706381D01*
X98438187Y-67999550D01*
X98264307Y-68314162D01*
X98126740Y-68646276D01*
X98027228Y-68991692D01*
X98027224Y-68991712D01*
X97967014Y-69346082D01*
X97967011Y-69346102D01*
X97946857Y-69704995D01*
X83610500Y-69704995D01*
X83610500Y-49804721D01*
X83610934Y-49795458D01*
X83625806Y-49637216D01*
X83628870Y-49620395D01*
X83638756Y-49584197D01*
X83669712Y-49470863D01*
X83675617Y-49454840D01*
X83741579Y-49314565D01*
X83750160Y-49299786D01*
X83839269Y-49172960D01*
X83850264Y-49159876D01*
X83959876Y-49050264D01*
X83972960Y-49039269D01*
X84099786Y-48950160D01*
X84114565Y-48941579D01*
X84254840Y-48875617D01*
X84270863Y-48869712D01*
X84384197Y-48838756D01*
X84420395Y-48828870D01*
X84437216Y-48825806D01*
X84595458Y-48810934D01*
X84604721Y-48810500D01*
X88881432Y-48810500D01*
X88882250Y-48810625D01*
X88896664Y-48810523D01*
X88896665Y-48810524D01*
X88899792Y-48810502D01*
X88900488Y-48810500D01*
X88923472Y-48810500D01*
X88924228Y-48810343D01*
X88988303Y-48809931D01*
X89161904Y-48778311D01*
X89327475Y-48717292D01*
X89327477Y-48717290D01*
X89327479Y-48717290D01*
X89435164Y-48654770D01*
X89480078Y-48628694D01*
X89615161Y-48515161D01*
X89728694Y-48380078D01*
X89817292Y-48227475D01*
X89878311Y-48061904D01*
X89909931Y-47888303D01*
X89910343Y-47824228D01*
X89910500Y-47823471D01*
X89910500Y-47800488D01*
X89910502Y-47799792D01*
X89910625Y-47782250D01*
X89910500Y-47781432D01*
X89910500Y-45649996D01*
X92034611Y-45649996D01*
X92034611Y-45650003D01*
X92054119Y-45848087D01*
X92054120Y-45848093D01*
X92105551Y-46017636D01*
X92111903Y-46038573D01*
X92205735Y-46214120D01*
X92205737Y-46214122D01*
X92205738Y-46214124D01*
X92332007Y-46367983D01*
X92332016Y-46367992D01*
X92485875Y-46494261D01*
X92485880Y-46494265D01*
X92661427Y-46588097D01*
X92768202Y-46620487D01*
X92851906Y-46645879D01*
X92851912Y-46645880D01*
X93049997Y-46665389D01*
X93050000Y-46665389D01*
X93050003Y-46665389D01*
X93248087Y-46645880D01*
X93248093Y-46645879D01*
X93438573Y-46588097D01*
X93614120Y-46494265D01*
X93767988Y-46367988D01*
X93894265Y-46214120D01*
X93988097Y-46038573D01*
X94045879Y-45848093D01*
X94046377Y-45843042D01*
X94065389Y-45650003D01*
X94065389Y-45649996D01*
X150234611Y-45649996D01*
X150234611Y-45650003D01*
X150254119Y-45848087D01*
X150254120Y-45848093D01*
X150305551Y-46017636D01*
X150311903Y-46038573D01*
X150405735Y-46214120D01*
X150405737Y-46214122D01*
X150405738Y-46214124D01*
X150532007Y-46367983D01*
X150532016Y-46367992D01*
X150685875Y-46494261D01*
X150685880Y-46494265D01*
X150861427Y-46588097D01*
X150968202Y-46620487D01*
X151051906Y-46645879D01*
X151051912Y-46645880D01*
X151249997Y-46665389D01*
X151250000Y-46665389D01*
X151250003Y-46665389D01*
X151448087Y-46645880D01*
X151448093Y-46645879D01*
X151638573Y-46588097D01*
X151814120Y-46494265D01*
X151967988Y-46367988D01*
X152094265Y-46214120D01*
X152188097Y-46038573D01*
X152245879Y-45848093D01*
X152246377Y-45843042D01*
X152265389Y-45650003D01*
X152265389Y-45649996D01*
X152245880Y-45451912D01*
X152245879Y-45451906D01*
X152230277Y-45400475D01*
X152188097Y-45261427D01*
X152094265Y-45085880D01*
X152094261Y-45085875D01*
X151967992Y-44932016D01*
X151967983Y-44932007D01*
X151814124Y-44805738D01*
X151814122Y-44805737D01*
X151814120Y-44805735D01*
X151738885Y-44765521D01*
X151638581Y-44711907D01*
X151638578Y-44711906D01*
X151638573Y-44711903D01*
X151617636Y-44705551D01*
X151448093Y-44654120D01*
X151448087Y-44654119D01*
X151250003Y-44634611D01*
X151249997Y-44634611D01*
X151051912Y-44654119D01*
X151051906Y-44654120D01*
X150861433Y-44711901D01*
X150861431Y-44711901D01*
X150861427Y-44711903D01*
X150861424Y-44711904D01*
X150861418Y-44711907D01*
X150685885Y-44805732D01*
X150685875Y-44805738D01*
X150532016Y-44932007D01*
X150532007Y-44932016D01*
X150405738Y-45085875D01*
X150405732Y-45085885D01*
X150311907Y-45261418D01*
X150311901Y-45261433D01*
X150254120Y-45451906D01*
X150254119Y-45451912D01*
X150234611Y-45649996D01*
X94065389Y-45649996D01*
X94045880Y-45451912D01*
X94045879Y-45451906D01*
X94030277Y-45400475D01*
X93988097Y-45261427D01*
X93894265Y-45085880D01*
X93894261Y-45085875D01*
X93767992Y-44932016D01*
X93767983Y-44932007D01*
X93614124Y-44805738D01*
X93614122Y-44805737D01*
X93614120Y-44805735D01*
X93538885Y-44765521D01*
X93438581Y-44711907D01*
X93438578Y-44711906D01*
X93438573Y-44711903D01*
X93417636Y-44705551D01*
X93248093Y-44654120D01*
X93248087Y-44654119D01*
X93050003Y-44634611D01*
X93049997Y-44634611D01*
X92851912Y-44654119D01*
X92851906Y-44654120D01*
X92661433Y-44711901D01*
X92661431Y-44711901D01*
X92661427Y-44711903D01*
X92661424Y-44711904D01*
X92661418Y-44711907D01*
X92485885Y-44805732D01*
X92485875Y-44805738D01*
X92332016Y-44932007D01*
X92332007Y-44932016D01*
X92205738Y-45085875D01*
X92205732Y-45085885D01*
X92111907Y-45261418D01*
X92111901Y-45261433D01*
X92054120Y-45451906D01*
X92054119Y-45451912D01*
X92034611Y-45649996D01*
X89910500Y-45649996D01*
X89910500Y-40504721D01*
X89910934Y-40495458D01*
X89925806Y-40337216D01*
X89928870Y-40320395D01*
X89938756Y-40284197D01*
X89969712Y-40170863D01*
X89975617Y-40154840D01*
X90041579Y-40014565D01*
X90050160Y-39999786D01*
X90139269Y-39872960D01*
X90150264Y-39859876D01*
X90259876Y-39750264D01*
X90272960Y-39739269D01*
X90399786Y-39650160D01*
X90414565Y-39641579D01*
X90554840Y-39575617D01*
X90570863Y-39569712D01*
X90684197Y-39538756D01*
X90720395Y-39528870D01*
X90737216Y-39525806D01*
X90895458Y-39510934D01*
X90904721Y-39510500D01*
X164395279Y-39510500D01*
X164404540Y-39510933D01*
G37*
G04 #@! TD.AperFunction*
M02*
