M48
; DRILL file {KiCad 8.0.2} date 2024-08-20T08:19:24+0200
; FORMAT={-:-/ absolute / metric / decimal}
; #@! TF.CreationDate,2024-08-20T08:19:24+02:00
; #@! TF.GenerationSoftware,Kicad,Pcbnew,8.0.2
; #@! TF.FileFunction,Plated,1,4,PTH
FMAT,2
METRIC
; #@! TA.AperFunction,Plated,PTH,ViaDrill
T1C0.300
; #@! TA.AperFunction,Plated,PTH,ViaDrill
T2C0.400
; #@! TA.AperFunction,Plated,PTH,ComponentDrill
T3C5.000
%
G90
G05
T1
X84.225Y-61.75
X84.225Y-63.25
X84.225Y-64.75
X84.225Y-66.25
X84.225Y-67.75
X84.225Y-69.25
X84.225Y-70.75
X84.225Y-72.25
X84.225Y-73.75
X84.225Y-75.25
X84.225Y-76.75
X84.225Y-78.25
X84.225Y-79.75
X84.225Y-81.25
X84.225Y-82.75
X84.225Y-84.25
X84.225Y-85.75
X84.225Y-87.25
X84.225Y-88.975
X84.875Y-50.5
X84.875Y-52.1
X84.875Y-53.6
X84.875Y-54.975
X84.875Y-56.375
X84.875Y-57.575
X84.875Y-58.975
X85.725Y-88.975
X86.375Y-50.5
X86.375Y-52.1
X86.375Y-53.6
X86.375Y-54.975
X86.375Y-56.375
X87.35Y-88.975
X87.875Y-50.5
X87.875Y-52.1
X87.875Y-53.6
X87.875Y-54.975
X88.85Y-88.975
X89.375Y-50.5
X89.375Y-52.1
X89.375Y-53.6
X90.875Y-47.4
X90.875Y-48.9
X90.875Y-50.4
X90.875Y-52.1
X90.9Y-40.975
X90.9Y-42.475
X92.375Y-47.4
X92.375Y-48.9
X92.375Y-50.4
X92.4Y-40.975
X92.4Y-42.475
X93.875Y-47.4
X93.875Y-48.9
X93.875Y-50.4
X93.9Y-40.975
X93.9Y-42.475
X95.275Y-47.4
X95.275Y-48.9
X95.3Y-40.975
X95.3Y-42.475
X96.0Y-133.725
X96.0Y-135.225
X96.0Y-136.725
X96.0Y-138.225
X96.9Y-41.0
X96.9Y-42.5
X96.9Y-44.0
X96.9Y-45.5
X97.5Y-133.775
X97.5Y-135.275
X97.5Y-136.775
X97.5Y-138.275
X98.4Y-41.0
X98.4Y-42.5
X98.4Y-44.0
X98.4Y-45.5
X99.0Y-133.775
X99.0Y-135.275
X99.0Y-136.775
X99.0Y-138.275
X99.9Y-41.0
X99.9Y-42.5
X99.9Y-44.0
X99.9Y-45.5
X100.5Y-135.275
X100.5Y-136.775
X100.5Y-138.275
X101.3Y-41.0
X101.3Y-42.5
X101.3Y-44.0
X101.3Y-45.5
X101.9Y-135.275
X101.9Y-136.775
X101.9Y-138.275
X102.9Y-41.0
X102.9Y-42.5
X102.9Y-44.0
X102.9Y-45.5
X103.46Y-138.275
X104.4Y-41.0
X104.4Y-42.5
X104.4Y-44.0
X104.4Y-45.5
X113.64Y-133.825
X113.64Y-135.325
X113.64Y-136.825
X113.64Y-138.325
X115.14Y-133.825
X115.14Y-135.325
X115.14Y-136.825
X115.14Y-138.325
X115.3Y-41.0
X115.3Y-42.5
X115.3Y-44.0
X115.3Y-45.5
X116.64Y-133.825
X116.64Y-135.325
X116.64Y-136.825
X116.64Y-138.325
X116.8Y-41.0
X116.8Y-42.5
X116.8Y-44.0
X116.8Y-45.5
X118.04Y-133.825
X118.04Y-135.325
X118.04Y-136.825
X118.04Y-138.325
X118.2Y-41.0
X118.2Y-42.5
X118.2Y-44.0
X118.2Y-45.5
X119.6Y-133.825
X119.6Y-135.325
X119.6Y-136.825
X119.6Y-138.325
X119.8Y-41.0
X119.8Y-42.5
X119.8Y-44.0
X119.8Y-45.5
X121.1Y-133.825
X121.1Y-135.325
X121.1Y-136.825
X121.1Y-138.325
X121.3Y-41.0
X121.3Y-42.5
X121.3Y-44.0
X122.6Y-133.825
X122.6Y-135.325
X122.6Y-136.825
X122.6Y-138.325
X122.8Y-41.0
X124.1Y-133.825
X124.1Y-135.325
X124.1Y-136.825
X124.1Y-138.325
X124.2Y-41.0
X125.6Y-133.825
X125.6Y-135.325
X125.6Y-136.825
X125.6Y-138.325
X125.8Y-41.0
X127.1Y-133.825
X127.1Y-135.325
X127.1Y-136.825
X127.1Y-138.325
X127.3Y-41.0
X128.5Y-136.825
X128.5Y-138.325
X128.725Y-134.925
X129.2Y-41.0
X129.2Y-42.5
X129.2Y-44.0
X129.2Y-45.5
X130.0Y-136.825
X130.0Y-138.325
X130.7Y-41.0
X130.7Y-42.5
X130.7Y-44.0
X130.7Y-45.5
X131.5Y-136.825
X131.5Y-138.325
X131.675Y-135.775
X132.2Y-41.0
X132.2Y-42.5
X132.2Y-44.0
X132.2Y-45.5
X133.0Y-135.325
X133.0Y-136.825
X133.0Y-138.325
X133.025Y-133.15
X133.6Y-41.0
X133.6Y-42.5
X133.6Y-44.0
X133.6Y-45.5
X134.5Y-133.825
X134.5Y-135.325
X134.5Y-136.825
X134.5Y-138.325
X135.1Y-41.0
X135.1Y-42.5
X135.1Y-44.0
X135.1Y-45.5
X135.9Y-138.325
X145.6Y-133.875
X145.6Y-135.375
X145.6Y-136.875
X145.6Y-138.375
X146.425Y-41.2
X146.425Y-42.7
X146.425Y-44.2
X146.425Y-45.7
X147.1Y-133.875
X147.1Y-135.375
X147.1Y-136.875
X147.1Y-138.375
X147.925Y-41.2
X147.925Y-42.7
X147.925Y-44.2
X147.925Y-45.7
X148.6Y-133.875
X148.6Y-135.375
X148.6Y-136.875
X148.6Y-138.375
X149.325Y-41.2
X149.325Y-42.7
X149.325Y-44.2
X149.325Y-45.7
X150.0Y-133.875
X150.0Y-135.375
X150.0Y-136.875
X150.0Y-138.375
X150.825Y-41.2
X150.825Y-42.7
X151.5Y-133.875
X151.5Y-135.375
X151.5Y-136.875
X151.5Y-138.375
X152.325Y-41.2
X152.325Y-42.7
X153.0Y-133.875
X153.0Y-135.375
X153.0Y-136.875
X153.0Y-138.375
X153.875Y-41.2
X153.875Y-42.7
X153.875Y-44.2
X153.875Y-45.7
X154.5Y-133.875
X154.5Y-135.375
X154.5Y-136.875
X154.5Y-138.375
X155.0Y-129.5
X155.0Y-131.0
X156.0Y-133.875
X156.0Y-135.375
X156.0Y-136.875
X156.0Y-138.375
X156.5Y-128.0
X156.5Y-129.5
X156.5Y-131.0
X157.4Y-133.875
X157.4Y-135.375
X157.4Y-136.875
X157.4Y-138.375
X158.0Y-126.5
X158.0Y-128.0
X158.0Y-129.5
X158.0Y-131.0
X159.075Y-133.9
X159.075Y-135.4
X159.075Y-136.9
X159.075Y-138.4
X159.5Y-125.0
X159.5Y-126.5
X159.5Y-128.0
X159.5Y-129.5
X159.5Y-131.0
X160.525Y-89.125
X160.575Y-133.9
X160.575Y-135.4
X160.575Y-136.9
X160.575Y-138.4
X161.0Y-123.5
X161.0Y-125.0
X161.0Y-126.5
X161.0Y-128.0
X161.0Y-129.5
X161.0Y-131.0
X161.975Y-135.4
X161.975Y-136.9
X161.975Y-138.4
X162.375Y-89.125
X162.5Y-122.0
X162.5Y-123.5
X162.5Y-125.0
X162.5Y-126.5
X162.5Y-128.0
X162.5Y-129.5
X162.5Y-131.0
X163.975Y-89.125
X164.0Y-120.5
X164.0Y-122.0
X164.0Y-123.5
X164.0Y-125.0
X164.0Y-126.5
X164.0Y-128.0
X164.0Y-129.5
X164.0Y-131.0
X165.0Y-49.5
X165.0Y-54.5
X165.475Y-89.15
X165.5Y-90.5
X165.5Y-92.0
X165.5Y-93.5
X165.5Y-95.0
X165.5Y-96.5
X165.5Y-98.0
X165.5Y-99.5
X165.5Y-101.0
X165.5Y-102.5
X165.5Y-104.0
X165.5Y-105.5
X165.5Y-107.0
X165.5Y-108.5
X165.5Y-110.0
X165.5Y-111.5
X165.5Y-113.0
X165.5Y-114.5
X165.5Y-116.0
X165.5Y-117.5
X165.5Y-119.0
X165.5Y-120.5
X165.5Y-122.0
X165.5Y-123.5
X165.5Y-125.0
X165.5Y-126.5
X165.5Y-128.0
X165.5Y-129.5
X165.5Y-131.0
T2
X91.0Y-89.1
X130.0Y-132.075
T3
X98.492Y-108.098
X101.152Y-69.705
X124.492Y-108.098
X125.152Y-69.705
X148.492Y-108.098
X151.152Y-69.705
M30
