G04 #@! TF.GenerationSoftware,KiCad,Pcbnew,8.0.2*
G04 #@! TF.CreationDate,2024-08-20T08:20:47+02:00*
G04 #@! TF.ProjectId,STS1_SIDEPANEL,53545331-5f53-4494-9445-50414e454c2e,rev?*
G04 #@! TF.SameCoordinates,Original*
G04 #@! TF.FileFunction,Soldermask,Bot*
G04 #@! TF.FilePolarity,Negative*
%FSLAX46Y46*%
G04 Gerber Fmt 4.6, Leading zero omitted, Abs format (unit mm)*
G04 Created by KiCad (PCBNEW 8.0.2) date 2024-08-20 08:20:47*
%MOMM*%
%LPD*%
G01*
G04 APERTURE LIST*
G04 Aperture macros list*
%AMRoundRect*
0 Rectangle with rounded corners*
0 $1 Rounding radius*
0 $2 $3 $4 $5 $6 $7 $8 $9 X,Y pos of 4 corners*
0 Add a 4 corners polygon primitive as box body*
4,1,4,$2,$3,$4,$5,$6,$7,$8,$9,$2,$3,0*
0 Add four circle primitives for the rounded corners*
1,1,$1+$1,$2,$3*
1,1,$1+$1,$4,$5*
1,1,$1+$1,$6,$7*
1,1,$1+$1,$8,$9*
0 Add four rect primitives between the rounded corners*
20,1,$1+$1,$2,$3,$4,$5,0*
20,1,$1+$1,$4,$5,$6,$7,0*
20,1,$1+$1,$6,$7,$8,$9,0*
20,1,$1+$1,$8,$9,$2,$3,0*%
G04 Aperture macros list end*
%ADD10C,6.000000*%
%ADD11O,1.350000X1.350000*%
%ADD12RoundRect,0.200000X0.275000X-0.200000X0.275000X0.200000X-0.275000X0.200000X-0.275000X-0.200000X0*%
%ADD13R,0.300000X1.000000*%
%ADD14R,1.650000X1.300000*%
%ADD15RoundRect,0.200000X-0.200000X-0.275000X0.200000X-0.275000X0.200000X0.275000X-0.200000X0.275000X0*%
%ADD16RoundRect,0.250000X0.450000X-0.350000X0.450000X0.350000X-0.450000X0.350000X-0.450000X-0.350000X0*%
%ADD17R,0.400000X1.000000*%
%ADD18R,2.000000X1.300000*%
%ADD19RoundRect,0.225000X0.250000X-0.225000X0.250000X0.225000X-0.250000X0.225000X-0.250000X-0.225000X0*%
%ADD20RoundRect,0.085000X-0.265000X-0.085000X0.265000X-0.085000X0.265000X0.085000X-0.265000X0.085000X0*%
%ADD21RoundRect,0.250000X0.475000X-0.250000X0.475000X0.250000X-0.475000X0.250000X-0.475000X-0.250000X0*%
%ADD22RoundRect,0.102000X0.325000X-0.475000X0.325000X0.475000X-0.325000X0.475000X-0.325000X-0.475000X0*%
%ADD23RoundRect,0.102000X-1.000000X-0.975000X1.000000X-0.975000X1.000000X0.975000X-1.000000X0.975000X0*%
%ADD24RoundRect,0.102000X0.425000X0.325000X-0.425000X0.325000X-0.425000X-0.325000X0.425000X-0.325000X0*%
%ADD25RoundRect,0.102000X0.715000X2.750000X-0.715000X2.750000X-0.715000X-2.750000X0.715000X-2.750000X0*%
%ADD26RoundRect,0.225000X-0.225000X-0.250000X0.225000X-0.250000X0.225000X0.250000X-0.225000X0.250000X0*%
%ADD27RoundRect,0.200000X0.200000X0.275000X-0.200000X0.275000X-0.200000X-0.275000X0.200000X-0.275000X0*%
%ADD28RoundRect,0.102000X-0.150000X-0.800000X0.150000X-0.800000X0.150000X0.800000X-0.150000X0.800000X0*%
%ADD29RoundRect,0.102000X-1.120000X-1.560000X1.120000X-1.560000X1.120000X1.560000X-1.120000X1.560000X0*%
%ADD30RoundRect,0.150000X0.512500X0.150000X-0.512500X0.150000X-0.512500X-0.150000X0.512500X-0.150000X0*%
%ADD31RoundRect,0.200000X-0.275000X0.200000X-0.275000X-0.200000X0.275000X-0.200000X0.275000X0.200000X0*%
%ADD32RoundRect,0.225000X-0.250000X0.225000X-0.250000X-0.225000X0.250000X-0.225000X0.250000X0.225000X0*%
%ADD33RoundRect,0.100000X0.637500X0.100000X-0.637500X0.100000X-0.637500X-0.100000X0.637500X-0.100000X0*%
%ADD34RoundRect,0.250000X-0.262500X-0.450000X0.262500X-0.450000X0.262500X0.450000X-0.262500X0.450000X0*%
%ADD35RoundRect,0.250000X-0.300000X-0.300000X0.300000X-0.300000X0.300000X0.300000X-0.300000X0.300000X0*%
%ADD36RoundRect,0.250000X0.262500X0.450000X-0.262500X0.450000X-0.262500X-0.450000X0.262500X-0.450000X0*%
%ADD37RoundRect,0.250000X-0.250000X-0.475000X0.250000X-0.475000X0.250000X0.475000X-0.250000X0.475000X0*%
G04 APERTURE END LIST*
D10*
X148949200Y-100709800D03*
X124949200Y-100709800D03*
X98949200Y-100709800D03*
D11*
X120500000Y-71175000D03*
X120500000Y-69175000D03*
X120500000Y-67175000D03*
X120500000Y-65175000D03*
X120500000Y-63175000D03*
X120500000Y-61175000D03*
X120500000Y-59175000D03*
X120500000Y-57175000D03*
X120500000Y-55175000D03*
X120500000Y-53175000D03*
X120500000Y-51175000D03*
X120500000Y-49175000D03*
X138309600Y-71186600D03*
X138309600Y-69186600D03*
X138309600Y-67186600D03*
X138309600Y-65186600D03*
X138309600Y-63186600D03*
X138309600Y-61186600D03*
X138309600Y-59186600D03*
X138309600Y-57186600D03*
X138309600Y-55186600D03*
X138309600Y-53186600D03*
X138309600Y-51186600D03*
X138309600Y-49186600D03*
D12*
X105270000Y-90335000D03*
X105270000Y-88685000D03*
D13*
X138080000Y-127720000D03*
X138580000Y-127720000D03*
X139080000Y-127720000D03*
X139580000Y-127720000D03*
X140080000Y-127720000D03*
X140580000Y-127720000D03*
X141080000Y-127720000D03*
X141580000Y-127720000D03*
X142080000Y-127720000D03*
X142580000Y-127720000D03*
X143080000Y-127720000D03*
X143580000Y-127720000D03*
X144080000Y-127720000D03*
X144580000Y-127720000D03*
X145080000Y-127720000D03*
X145580000Y-127720000D03*
X146080000Y-127720000D03*
X146580000Y-127720000D03*
X147080000Y-127720000D03*
X147580000Y-127720000D03*
X148080000Y-127720000D03*
X148580000Y-127720000D03*
D14*
X135805000Y-125820000D03*
X150855000Y-125820000D03*
D15*
X101700000Y-85365000D03*
X103350000Y-85365000D03*
D16*
X129550000Y-122500000D03*
X129550000Y-120500000D03*
D17*
X95535000Y-123500000D03*
X96535000Y-123500000D03*
X97535000Y-123500000D03*
X98535000Y-123500000D03*
D18*
X92735000Y-120800000D03*
X101335000Y-120800000D03*
D19*
X161782831Y-83775000D03*
X161782831Y-82225000D03*
D20*
X155440000Y-84085000D03*
X155440000Y-83585000D03*
X155440000Y-83085000D03*
X156940000Y-83085000D03*
X156940000Y-83585000D03*
X156940000Y-84085000D03*
D21*
X123040000Y-84540000D03*
X123040000Y-82640000D03*
D12*
X155600000Y-88825000D03*
X155600000Y-87175000D03*
D22*
X111560000Y-93620000D03*
D23*
X112885000Y-93620000D03*
D24*
X114940000Y-93620000D03*
D25*
X120472500Y-84300000D03*
X116432500Y-84300000D03*
D26*
X111450200Y-83460800D03*
X113000200Y-83460800D03*
D27*
X111300000Y-81800000D03*
X109650000Y-81800000D03*
D28*
X114005000Y-128480000D03*
X114505000Y-128480000D03*
X115005000Y-128480000D03*
X115505000Y-128480000D03*
X116005000Y-128480000D03*
X116505000Y-128480000D03*
X117005000Y-128480000D03*
X117505000Y-128480000D03*
X118005000Y-128480000D03*
X118505000Y-128480000D03*
X119005000Y-128480000D03*
X119505000Y-128480000D03*
X120005000Y-128480000D03*
X120505000Y-128480000D03*
X121005000Y-128480000D03*
X121505000Y-128480000D03*
D29*
X112358000Y-126500000D03*
X123152000Y-126500000D03*
D30*
X130697500Y-79577500D03*
X130697500Y-80527500D03*
X130697500Y-81477500D03*
X128422500Y-81477500D03*
X128422500Y-79577500D03*
D12*
X157600000Y-88825000D03*
X157600000Y-87175000D03*
D31*
X103720000Y-88695000D03*
X103720000Y-90345000D03*
D32*
X106860000Y-88615000D03*
X106860000Y-90165000D03*
D15*
X101705000Y-86905000D03*
X103355000Y-86905000D03*
D13*
X143660000Y-113030000D03*
X144160000Y-113030000D03*
X144660000Y-113030000D03*
X145160000Y-113030000D03*
X145660000Y-113030000D03*
X146160000Y-113030000D03*
X146660000Y-113030000D03*
X147160000Y-113030000D03*
X147660000Y-113030000D03*
X148160000Y-113030000D03*
X148660000Y-113030000D03*
X149160000Y-113030000D03*
X149660000Y-113030000D03*
X150160000Y-113030000D03*
X150660000Y-113030000D03*
X151160000Y-113030000D03*
X151660000Y-113030000D03*
X152160000Y-113030000D03*
X152660000Y-113030000D03*
X153160000Y-113030000D03*
X153660000Y-113030000D03*
X154160000Y-113030000D03*
D14*
X141385000Y-111130000D03*
X156435000Y-111130000D03*
D33*
X113081100Y-85102000D03*
X113081100Y-85752000D03*
X113081100Y-86402000D03*
X113081100Y-87052000D03*
X107356100Y-87052000D03*
X107356100Y-86402000D03*
X107356100Y-85752000D03*
X107356100Y-85102000D03*
D34*
X109895000Y-91230000D03*
X111720000Y-91230000D03*
D35*
X113200000Y-89050000D03*
X116000000Y-89050000D03*
D19*
X104810000Y-86930000D03*
X104810000Y-85380000D03*
D21*
X125110000Y-84530000D03*
X125110000Y-82630000D03*
D36*
X128712500Y-86320000D03*
X126887500Y-86320000D03*
D37*
X113960000Y-91280000D03*
X115860000Y-91280000D03*
M02*
