M48
; DRILL file {KiCad 8.0.2} date 2024-08-20T08:21:01+0200
; FORMAT={-:-/ absolute / metric / decimal}
; #@! TF.CreationDate,2024-08-20T08:21:01+02:00
; #@! TF.GenerationSoftware,Kicad,Pcbnew,8.0.2
; #@! TF.FileFunction,Plated,3,4,Blind
FMAT,2
METRIC
; #@! TA.AperFunction,Plated,Buried,ViaDrill
T1C0.300
; #@! TA.AperFunction,Plated,Buried,ViaDrill
T2C0.400
; #@! TA.AperFunction,Plated,Buried,ViaDrill
T3C0.500
%
G90
G05
T1
X87.25Y-107.175
X88.0Y-106.375
X88.7Y-105.942
X89.4Y-105.45
X90.1Y-104.9
X90.8Y-104.39
X100.55Y-86.9
X100.65Y-85.36
X107.725Y-84.35
X109.975Y-89.825
X111.46Y-84.625
X111.65Y-90.05
X153.065Y-81.908
X153.306Y-82.798
X155.8Y-82.0
X156.7Y-82.0
T2
X95.35Y-116.7
X95.4Y-124.75
X96.4Y-124.75
X96.475Y-121.9
X97.4Y-124.75
X97.5Y-122.375
X99.725Y-123.55
X100.65Y-123.55
X101.6Y-123.55
X104.0Y-116.4
X130.72Y-78.22
X153.05Y-88.8
X154.023Y-88.825
T3
X107.175Y-93.66
X108.1Y-94.5
X108.9Y-95.3
X109.05Y-116.75
X109.05Y-117.9
X109.2Y-119.3
X110.1Y-120.2
X110.25Y-95.3
X126.71Y-79.48
X132.9Y-115.7
X132.9Y-117.0
X133.9Y-115.7
X133.9Y-117.0
X134.9Y-115.7
X134.9Y-117.0
X135.9Y-115.7
X135.9Y-117.0
X138.75Y-93.1
X138.75Y-94.05
X138.75Y-95.0
X138.75Y-96.25
X140.1Y-93.1
X140.1Y-94.05
X140.1Y-95.0
X140.1Y-96.25
M30
