G04 #@! TF.GenerationSoftware,KiCad,Pcbnew,8.0.2*
G04 #@! TF.CreationDate,2024-08-20T08:20:47+02:00*
G04 #@! TF.ProjectId,STS1_SIDEPANEL,53545331-5f53-4494-9445-50414e454c2e,rev?*
G04 #@! TF.SameCoordinates,Original*
G04 #@! TF.FileFunction,Copper,L4,Bot*
G04 #@! TF.FilePolarity,Positive*
%FSLAX46Y46*%
G04 Gerber Fmt 4.6, Leading zero omitted, Abs format (unit mm)*
G04 Created by KiCad (PCBNEW 8.0.2) date 2024-08-20 08:20:47*
%MOMM*%
%LPD*%
G01*
G04 APERTURE LIST*
G04 Aperture macros list*
%AMRoundRect*
0 Rectangle with rounded corners*
0 $1 Rounding radius*
0 $2 $3 $4 $5 $6 $7 $8 $9 X,Y pos of 4 corners*
0 Add a 4 corners polygon primitive as box body*
4,1,4,$2,$3,$4,$5,$6,$7,$8,$9,$2,$3,0*
0 Add four circle primitives for the rounded corners*
1,1,$1+$1,$2,$3*
1,1,$1+$1,$4,$5*
1,1,$1+$1,$6,$7*
1,1,$1+$1,$8,$9*
0 Add four rect primitives between the rounded corners*
20,1,$1+$1,$2,$3,$4,$5,0*
20,1,$1+$1,$4,$5,$6,$7,0*
20,1,$1+$1,$6,$7,$8,$9,0*
20,1,$1+$1,$8,$9,$2,$3,0*%
G04 Aperture macros list end*
G04 #@! TA.AperFunction,FiducialPad,Local*
%ADD10C,6.000000*%
G04 #@! TD*
G04 #@! TA.AperFunction,FiducialPad,Global*
%ADD11C,6.000000*%
G04 #@! TD*
G04 #@! TA.AperFunction,ComponentPad*
%ADD12O,1.350000X1.350000*%
G04 #@! TD*
G04 #@! TA.AperFunction,SMDPad,CuDef*
%ADD13RoundRect,0.200000X0.275000X-0.200000X0.275000X0.200000X-0.275000X0.200000X-0.275000X-0.200000X0*%
G04 #@! TD*
G04 #@! TA.AperFunction,SMDPad,CuDef*
%ADD14R,0.300000X1.000000*%
G04 #@! TD*
G04 #@! TA.AperFunction,SMDPad,CuDef*
%ADD15R,1.650000X1.300000*%
G04 #@! TD*
G04 #@! TA.AperFunction,SMDPad,CuDef*
%ADD16RoundRect,0.200000X-0.200000X-0.275000X0.200000X-0.275000X0.200000X0.275000X-0.200000X0.275000X0*%
G04 #@! TD*
G04 #@! TA.AperFunction,SMDPad,CuDef*
%ADD17RoundRect,0.250000X0.450000X-0.350000X0.450000X0.350000X-0.450000X0.350000X-0.450000X-0.350000X0*%
G04 #@! TD*
G04 #@! TA.AperFunction,SMDPad,CuDef*
%ADD18R,0.400000X1.000000*%
G04 #@! TD*
G04 #@! TA.AperFunction,SMDPad,CuDef*
%ADD19R,2.000000X1.300000*%
G04 #@! TD*
G04 #@! TA.AperFunction,SMDPad,CuDef*
%ADD20RoundRect,0.225000X0.250000X-0.225000X0.250000X0.225000X-0.250000X0.225000X-0.250000X-0.225000X0*%
G04 #@! TD*
G04 #@! TA.AperFunction,SMDPad,CuDef*
%ADD21RoundRect,0.085000X-0.265000X-0.085000X0.265000X-0.085000X0.265000X0.085000X-0.265000X0.085000X0*%
G04 #@! TD*
G04 #@! TA.AperFunction,SMDPad,CuDef*
%ADD22RoundRect,0.250000X0.475000X-0.250000X0.475000X0.250000X-0.475000X0.250000X-0.475000X-0.250000X0*%
G04 #@! TD*
G04 #@! TA.AperFunction,SMDPad,CuDef*
%ADD23R,0.650000X0.950000*%
G04 #@! TD*
G04 #@! TA.AperFunction,SMDPad,CuDef*
%ADD24R,2.000000X1.950000*%
G04 #@! TD*
G04 #@! TA.AperFunction,SMDPad,CuDef*
%ADD25R,0.850000X0.650000*%
G04 #@! TD*
G04 #@! TA.AperFunction,SMDPad,CuDef*
%ADD26R,1.430000X5.500000*%
G04 #@! TD*
G04 #@! TA.AperFunction,SMDPad,CuDef*
%ADD27RoundRect,0.225000X-0.225000X-0.250000X0.225000X-0.250000X0.225000X0.250000X-0.225000X0.250000X0*%
G04 #@! TD*
G04 #@! TA.AperFunction,SMDPad,CuDef*
%ADD28RoundRect,0.200000X0.200000X0.275000X-0.200000X0.275000X-0.200000X-0.275000X0.200000X-0.275000X0*%
G04 #@! TD*
G04 #@! TA.AperFunction,SMDPad,CuDef*
%ADD29R,0.300000X1.600000*%
G04 #@! TD*
G04 #@! TA.AperFunction,SMDPad,CuDef*
%ADD30R,2.240000X3.120000*%
G04 #@! TD*
G04 #@! TA.AperFunction,SMDPad,CuDef*
%ADD31RoundRect,0.150000X0.512500X0.150000X-0.512500X0.150000X-0.512500X-0.150000X0.512500X-0.150000X0*%
G04 #@! TD*
G04 #@! TA.AperFunction,SMDPad,CuDef*
%ADD32RoundRect,0.200000X-0.275000X0.200000X-0.275000X-0.200000X0.275000X-0.200000X0.275000X0.200000X0*%
G04 #@! TD*
G04 #@! TA.AperFunction,SMDPad,CuDef*
%ADD33RoundRect,0.225000X-0.250000X0.225000X-0.250000X-0.225000X0.250000X-0.225000X0.250000X0.225000X0*%
G04 #@! TD*
G04 #@! TA.AperFunction,SMDPad,CuDef*
%ADD34RoundRect,0.100000X0.637500X0.100000X-0.637500X0.100000X-0.637500X-0.100000X0.637500X-0.100000X0*%
G04 #@! TD*
G04 #@! TA.AperFunction,SMDPad,CuDef*
%ADD35RoundRect,0.250000X-0.262500X-0.450000X0.262500X-0.450000X0.262500X0.450000X-0.262500X0.450000X0*%
G04 #@! TD*
G04 #@! TA.AperFunction,SMDPad,CuDef*
%ADD36RoundRect,0.250000X-0.300000X-0.300000X0.300000X-0.300000X0.300000X0.300000X-0.300000X0.300000X0*%
G04 #@! TD*
G04 #@! TA.AperFunction,SMDPad,CuDef*
%ADD37RoundRect,0.250000X0.262500X0.450000X-0.262500X0.450000X-0.262500X-0.450000X0.262500X-0.450000X0*%
G04 #@! TD*
G04 #@! TA.AperFunction,SMDPad,CuDef*
%ADD38RoundRect,0.250000X-0.250000X-0.475000X0.250000X-0.475000X0.250000X0.475000X-0.250000X0.475000X0*%
G04 #@! TD*
G04 #@! TA.AperFunction,ViaPad*
%ADD39C,0.800000*%
G04 #@! TD*
G04 #@! TA.AperFunction,ViaPad*
%ADD40C,0.600000*%
G04 #@! TD*
G04 #@! TA.AperFunction,ViaPad*
%ADD41C,0.900000*%
G04 #@! TD*
G04 #@! TA.AperFunction,Conductor*
%ADD42C,0.750000*%
G04 #@! TD*
G04 #@! TA.AperFunction,Conductor*
%ADD43C,0.500000*%
G04 #@! TD*
G04 #@! TA.AperFunction,Conductor*
%ADD44C,0.300000*%
G04 #@! TD*
G04 #@! TA.AperFunction,Conductor*
%ADD45C,1.000000*%
G04 #@! TD*
G04 #@! TA.AperFunction,Conductor*
%ADD46C,0.450000*%
G04 #@! TD*
G04 #@! TA.AperFunction,Conductor*
%ADD47C,0.400000*%
G04 #@! TD*
G04 #@! TA.AperFunction,Conductor*
%ADD48C,0.200000*%
G04 #@! TD*
G04 #@! TA.AperFunction,Conductor*
%ADD49C,1.500000*%
G04 #@! TD*
G04 APERTURE END LIST*
D10*
X148949200Y-100709800D03*
D11*
X124949200Y-100709800D03*
X98949200Y-100709800D03*
D12*
X120500000Y-71175000D03*
X120500000Y-69175000D03*
X120500000Y-67175000D03*
X120500000Y-65175000D03*
X120500000Y-63175000D03*
X120500000Y-61175000D03*
X120500000Y-59175000D03*
X120500000Y-57175000D03*
X120500000Y-55175000D03*
X120500000Y-53175000D03*
X120500000Y-51175000D03*
X120500000Y-49175000D03*
X138309600Y-71186600D03*
X138309600Y-69186600D03*
X138309600Y-67186600D03*
X138309600Y-65186600D03*
X138309600Y-63186600D03*
X138309600Y-61186600D03*
X138309600Y-59186600D03*
X138309600Y-57186600D03*
X138309600Y-55186600D03*
X138309600Y-53186600D03*
X138309600Y-51186600D03*
X138309600Y-49186600D03*
D13*
X105270000Y-90335000D03*
X105270000Y-88685000D03*
D14*
X138080000Y-127720000D03*
X138580000Y-127720000D03*
X139080000Y-127720000D03*
X139580000Y-127720000D03*
X140080000Y-127720000D03*
X140580000Y-127720000D03*
X141080000Y-127720000D03*
X141580000Y-127720000D03*
X142080000Y-127720000D03*
X142580000Y-127720000D03*
X143080000Y-127720000D03*
X143580000Y-127720000D03*
X144080000Y-127720000D03*
X144580000Y-127720000D03*
X145080000Y-127720000D03*
X145580000Y-127720000D03*
X146080000Y-127720000D03*
X146580000Y-127720000D03*
X147080000Y-127720000D03*
X147580000Y-127720000D03*
X148080000Y-127720000D03*
X148580000Y-127720000D03*
D15*
X135805000Y-125820000D03*
X150855000Y-125820000D03*
D16*
X101700000Y-85365000D03*
X103350000Y-85365000D03*
D17*
X129550000Y-122500000D03*
X129550000Y-120500000D03*
D18*
X95535000Y-123500000D03*
X96535000Y-123500000D03*
X97535000Y-123500000D03*
X98535000Y-123500000D03*
D19*
X92735000Y-120800000D03*
X101335000Y-120800000D03*
D20*
X161782831Y-83775000D03*
X161782831Y-82225000D03*
D21*
X155440000Y-84085000D03*
X155440000Y-83585000D03*
X155440000Y-83085000D03*
X156940000Y-83085000D03*
X156940000Y-83585000D03*
X156940000Y-84085000D03*
D22*
X123040000Y-84540000D03*
X123040000Y-82640000D03*
D13*
X155600000Y-88825000D03*
X155600000Y-87175000D03*
D23*
X111560000Y-93620000D03*
D24*
X112885000Y-93620000D03*
D25*
X114940000Y-93620000D03*
D26*
X120472500Y-84300000D03*
X116432500Y-84300000D03*
D27*
X111450200Y-83460800D03*
X113000200Y-83460800D03*
D28*
X111300000Y-81800000D03*
X109650000Y-81800000D03*
D29*
X114005000Y-128480000D03*
X114505000Y-128480000D03*
X115005000Y-128480000D03*
X115505000Y-128480000D03*
X116005000Y-128480000D03*
X116505000Y-128480000D03*
X117005000Y-128480000D03*
X117505000Y-128480000D03*
X118005000Y-128480000D03*
X118505000Y-128480000D03*
X119005000Y-128480000D03*
X119505000Y-128480000D03*
X120005000Y-128480000D03*
X120505000Y-128480000D03*
X121005000Y-128480000D03*
X121505000Y-128480000D03*
D30*
X112358000Y-126500000D03*
X123152000Y-126500000D03*
D31*
X130697500Y-79577500D03*
X130697500Y-80527500D03*
X130697500Y-81477500D03*
X128422500Y-81477500D03*
X128422500Y-79577500D03*
D13*
X157600000Y-88825000D03*
X157600000Y-87175000D03*
D32*
X103720000Y-88695000D03*
X103720000Y-90345000D03*
D33*
X106860000Y-88615000D03*
X106860000Y-90165000D03*
D16*
X101705000Y-86905000D03*
X103355000Y-86905000D03*
D14*
X143660000Y-113030000D03*
X144160000Y-113030000D03*
X144660000Y-113030000D03*
X145160000Y-113030000D03*
X145660000Y-113030000D03*
X146160000Y-113030000D03*
X146660000Y-113030000D03*
X147160000Y-113030000D03*
X147660000Y-113030000D03*
X148160000Y-113030000D03*
X148660000Y-113030000D03*
X149160000Y-113030000D03*
X149660000Y-113030000D03*
X150160000Y-113030000D03*
X150660000Y-113030000D03*
X151160000Y-113030000D03*
X151660000Y-113030000D03*
X152160000Y-113030000D03*
X152660000Y-113030000D03*
X153160000Y-113030000D03*
X153660000Y-113030000D03*
X154160000Y-113030000D03*
D15*
X141385000Y-111130000D03*
X156435000Y-111130000D03*
D34*
X113081100Y-85102000D03*
X113081100Y-85752000D03*
X113081100Y-86402000D03*
X113081100Y-87052000D03*
X107356100Y-87052000D03*
X107356100Y-86402000D03*
X107356100Y-85752000D03*
X107356100Y-85102000D03*
D35*
X109895000Y-91230000D03*
X111720000Y-91230000D03*
D36*
X113200000Y-89050000D03*
X116000000Y-89050000D03*
D20*
X104810000Y-86930000D03*
X104810000Y-85380000D03*
D22*
X125110000Y-84530000D03*
X125110000Y-82630000D03*
D37*
X128712500Y-86320000D03*
X126887500Y-86320000D03*
D38*
X113960000Y-91280000D03*
X115860000Y-91280000D03*
D39*
X163000000Y-61100000D03*
X124000000Y-46100000D03*
X148000000Y-67100000D03*
X165000000Y-67100000D03*
X128000000Y-129000000D03*
X104000000Y-132000000D03*
X100000000Y-40500000D03*
X158042600Y-126251000D03*
X92000000Y-138000000D03*
X94000000Y-43100000D03*
X157000000Y-67100000D03*
X103000000Y-40500000D03*
X103000000Y-49100000D03*
X145000000Y-64100000D03*
X128000000Y-132000000D03*
X152000000Y-135000000D03*
X98000000Y-132000000D03*
X145000000Y-67100000D03*
X127000000Y-52100000D03*
X142000000Y-49100000D03*
X118000000Y-46100000D03*
X136000000Y-46100000D03*
X116000000Y-132000000D03*
X94000000Y-58100000D03*
X94000000Y-61100000D03*
X151000000Y-40500000D03*
X165000000Y-61100000D03*
X136000000Y-70100000D03*
X94000000Y-55100000D03*
X88000000Y-67100000D03*
X125000000Y-135000000D03*
X88000000Y-64100000D03*
X163000000Y-70100000D03*
X128000000Y-135000000D03*
X97968800Y-129000000D03*
X133000000Y-40500000D03*
X113000000Y-138000000D03*
X100968800Y-126000000D03*
X113000000Y-135000000D03*
X161000000Y-132000000D03*
X157000000Y-70100000D03*
X130000000Y-46100000D03*
X107000000Y-132000000D03*
X154000000Y-73100000D03*
X131000000Y-135000000D03*
X165000000Y-49100000D03*
X125000000Y-132000000D03*
X154000000Y-67100000D03*
X124000000Y-40500000D03*
X122000000Y-132000000D03*
X149000000Y-135000000D03*
X119000000Y-132000000D03*
X97000000Y-43100000D03*
X131000000Y-129000000D03*
X85000000Y-70100000D03*
X157000000Y-64100000D03*
X85000000Y-79100000D03*
X152000000Y-138000000D03*
X130000000Y-40500000D03*
X119000000Y-135000000D03*
X165000000Y-64100000D03*
X163000000Y-73100000D03*
X151000000Y-64100000D03*
X85000000Y-67100000D03*
X145000000Y-49100000D03*
X148000000Y-46100000D03*
X140000000Y-138000000D03*
X97000000Y-64100000D03*
X136000000Y-52100000D03*
X136000000Y-61100000D03*
X142000000Y-46100000D03*
X130000000Y-67100000D03*
X148000000Y-49100000D03*
X113000000Y-132000000D03*
X116000000Y-138000000D03*
X98000000Y-138000000D03*
X142000000Y-73100000D03*
X148000000Y-73100000D03*
X94000000Y-64100000D03*
X165000000Y-52100000D03*
X131000000Y-126000000D03*
X133000000Y-46100000D03*
X158042600Y-129251000D03*
X109000000Y-46100000D03*
X154000000Y-40500000D03*
X165000000Y-73100000D03*
X95000000Y-135000000D03*
X163000000Y-64100000D03*
X97000000Y-46100000D03*
X100000000Y-58100000D03*
X110000000Y-132000000D03*
X136000000Y-67100000D03*
X142000000Y-67100000D03*
X161042600Y-129251000D03*
X118250000Y-77600000D03*
X127000000Y-49100000D03*
X88000000Y-52100000D03*
X161042600Y-123251000D03*
X165000000Y-76100000D03*
X91000000Y-73100000D03*
X95000000Y-138000000D03*
X136000000Y-55100000D03*
X160000000Y-49100000D03*
X136000000Y-58100000D03*
X151000000Y-52100000D03*
X154000000Y-64100000D03*
X94000000Y-49100000D03*
X140000000Y-135000000D03*
X145000000Y-40500000D03*
X131000000Y-138000000D03*
X109000000Y-58100000D03*
X165000000Y-70100000D03*
X157000000Y-73100000D03*
X85000000Y-76100000D03*
X137000000Y-135014000D03*
X160000000Y-46100000D03*
X127000000Y-67100000D03*
X163000000Y-58100000D03*
X155000000Y-135000000D03*
X101000000Y-138000000D03*
X163000000Y-40500000D03*
X112000000Y-46100000D03*
X139000000Y-46100000D03*
X104000000Y-138000000D03*
X134000000Y-135000000D03*
X161042600Y-126251000D03*
X148050000Y-76100000D03*
X128000000Y-138000000D03*
X112250000Y-77600000D03*
X157000000Y-49075000D03*
X109000000Y-52100000D03*
X97000000Y-40500000D03*
X163000000Y-49100000D03*
X134000000Y-132000000D03*
X158000000Y-135000000D03*
X92000000Y-135000000D03*
X158000000Y-138000000D03*
X131000000Y-132000000D03*
X157000000Y-46100000D03*
X106000000Y-40500000D03*
X142000000Y-70100000D03*
X91000000Y-70100000D03*
X133000000Y-52100000D03*
X143000000Y-138000000D03*
X163000000Y-46100000D03*
X104000000Y-135000000D03*
X157000000Y-40500000D03*
X151000000Y-67100000D03*
X158042600Y-123251000D03*
X94000000Y-52100000D03*
X92000000Y-132000000D03*
X101000000Y-135000000D03*
X163000000Y-52100000D03*
X148000000Y-64100000D03*
X161000000Y-138000000D03*
X121000000Y-46100000D03*
X85000000Y-58100000D03*
X134000000Y-129000000D03*
X85000000Y-55100000D03*
X127000000Y-40500000D03*
X107000000Y-138000000D03*
X137000000Y-138014000D03*
X88000000Y-76100000D03*
X109000000Y-55100000D03*
X91000000Y-76100000D03*
X127000000Y-46100000D03*
X98000000Y-135000000D03*
X134000000Y-138000000D03*
X88000000Y-79100000D03*
X139000000Y-40500000D03*
X119000000Y-138000000D03*
X118000000Y-40500000D03*
X145000000Y-46100000D03*
X85000000Y-52100000D03*
X142000000Y-52100000D03*
X91000000Y-64100000D03*
X129950000Y-70100000D03*
X158000000Y-132000000D03*
X107000000Y-135000000D03*
X103968800Y-129000000D03*
X88000000Y-61100000D03*
X128000000Y-126000000D03*
X91000000Y-58100000D03*
X136000000Y-64100000D03*
X151000000Y-73100000D03*
X136000000Y-40500000D03*
X143000000Y-135000000D03*
X106000000Y-46100000D03*
X88000000Y-70100000D03*
X97968800Y-126000000D03*
X161000000Y-135000000D03*
X100968800Y-129000000D03*
X165000000Y-55100000D03*
X110000000Y-138000000D03*
X91000000Y-67100000D03*
X163000000Y-55100000D03*
X85000000Y-64100000D03*
X145000000Y-52100000D03*
X91000000Y-49100000D03*
X94000000Y-40500000D03*
X132950000Y-70100000D03*
X100000000Y-43100000D03*
X148000000Y-70100000D03*
X85000000Y-61100000D03*
X88000000Y-73100000D03*
X145000000Y-70100000D03*
X91000000Y-61100000D03*
X100000000Y-61100000D03*
X130000000Y-49100000D03*
X97000000Y-61100000D03*
X163000000Y-67100000D03*
X151000000Y-70100000D03*
X125000000Y-126000000D03*
X149000000Y-138000000D03*
X150950000Y-49100000D03*
X148000000Y-40500000D03*
X133000000Y-49100000D03*
X85000000Y-73100000D03*
X160000000Y-40500000D03*
X154000000Y-70100000D03*
X112000000Y-40500000D03*
X91000000Y-55100000D03*
X88000000Y-55100000D03*
X122000000Y-135000000D03*
X122000000Y-138000000D03*
X109000000Y-40500000D03*
X97000000Y-67100000D03*
X115000000Y-40500000D03*
X95000000Y-132000000D03*
X148000000Y-52100000D03*
X97000000Y-58100000D03*
X103968800Y-126000000D03*
X91000000Y-52100000D03*
X134000000Y-126000000D03*
X142000000Y-40500000D03*
X121000000Y-40500000D03*
X146000000Y-135000000D03*
X116000000Y-135000000D03*
X136000000Y-49100000D03*
X121250000Y-77600000D03*
X115250000Y-77600000D03*
X165000000Y-46100000D03*
X155000000Y-138000000D03*
X97000000Y-70100000D03*
X130000000Y-52100000D03*
X110000000Y-135000000D03*
X88000000Y-58100000D03*
X145000000Y-73100000D03*
X133000000Y-67100000D03*
X115000000Y-46100000D03*
X165000000Y-58100000D03*
X125000000Y-138000000D03*
X146000000Y-138000000D03*
D40*
X103170000Y-78520000D03*
X100500000Y-90340000D03*
X118500000Y-92000000D03*
X102000000Y-90350000D03*
X120000000Y-95000000D03*
X121500000Y-93500000D03*
X103170000Y-81520000D03*
X104810000Y-81530000D03*
X110050000Y-88660000D03*
X110090000Y-87000000D03*
X117000000Y-92000000D03*
X100170000Y-80020000D03*
X117000000Y-93500000D03*
X121500000Y-95000000D03*
X120000000Y-93500000D03*
X101670000Y-81520000D03*
X108680000Y-88660000D03*
X104810000Y-78530000D03*
X107810000Y-81530000D03*
X101670000Y-78520000D03*
X121500000Y-92000000D03*
X100500000Y-88700000D03*
X102000000Y-88710000D03*
X110920000Y-85740000D03*
X106310000Y-81530000D03*
X104810000Y-80030000D03*
X110450000Y-83450000D03*
X108540000Y-90270000D03*
X118500000Y-93500000D03*
X106310000Y-80030000D03*
X117000000Y-95000000D03*
X107810000Y-78530000D03*
X100170000Y-81520000D03*
X118500000Y-95000000D03*
X120000000Y-92000000D03*
X103170000Y-80020000D03*
X109290000Y-85740000D03*
X107810000Y-80030000D03*
X106310000Y-78530000D03*
X101670000Y-80020000D03*
D39*
X163038890Y-80400000D03*
X96400000Y-124750000D03*
X95400000Y-124750000D03*
X154022831Y-88825000D03*
X97400000Y-124750000D03*
X153050000Y-88800000D03*
X157884379Y-77840000D03*
X97500000Y-122375000D03*
D40*
X153306147Y-82798316D03*
D39*
X157620000Y-75980000D03*
D40*
X153065461Y-81907630D03*
D39*
X96475000Y-121900000D03*
X104000000Y-116400000D03*
X95350000Y-116700000D03*
X130720000Y-78220000D03*
D41*
X110100000Y-120200000D03*
X109050000Y-116750000D03*
X126710000Y-79480000D03*
X109050000Y-117900000D03*
D40*
X109975000Y-89825000D03*
D41*
X108900000Y-95300000D03*
X110250000Y-95300000D03*
X109200000Y-119300000D03*
D40*
X100550000Y-86900000D03*
D41*
X107175000Y-93660000D03*
X108100000Y-94500000D03*
D40*
X111460000Y-84625000D03*
X107725000Y-84350000D03*
X100650000Y-85360000D03*
X111650000Y-90050000D03*
D41*
X140100000Y-94050000D03*
X133900000Y-117000000D03*
X132900000Y-117000000D03*
X135900000Y-117000000D03*
X140100000Y-93100000D03*
X134900000Y-117000000D03*
X140100000Y-95000000D03*
X140100000Y-96250000D03*
D40*
X87250000Y-107175000D03*
X88000000Y-106375000D03*
D39*
X161782831Y-77700000D03*
X100650000Y-123550000D03*
D40*
X155800000Y-82000000D03*
D39*
X101600000Y-123550000D03*
D40*
X156700000Y-82000000D03*
D39*
X99725000Y-123550000D03*
D41*
X138750000Y-93100000D03*
X134900000Y-115700000D03*
X132900000Y-115700000D03*
X138750000Y-96250000D03*
X133900000Y-115700000D03*
X138750000Y-94050000D03*
X138750000Y-95000000D03*
X135900000Y-115700000D03*
D40*
X89400000Y-105450000D03*
X90100000Y-104900000D03*
X88700000Y-105942392D03*
X90800000Y-104389908D03*
D42*
X110460800Y-83460800D02*
X110450000Y-83450000D01*
D43*
X105270000Y-90335000D02*
X106690000Y-90335000D01*
D44*
X115505000Y-131505000D02*
X116000000Y-132000000D01*
D43*
X106690000Y-90335000D02*
X106860000Y-90165000D01*
D44*
X115505000Y-134505000D02*
X116000000Y-135000000D01*
X115505000Y-130093528D02*
X115505000Y-132350000D01*
X115505000Y-130093528D02*
X113598528Y-132000000D01*
X115505000Y-132495000D02*
X113000000Y-135000000D01*
X120500000Y-61175000D02*
X120425000Y-61175000D01*
X115505000Y-132350000D02*
X115505000Y-134505000D01*
X113598528Y-132000000D02*
X113000000Y-132000000D01*
X115505000Y-132350000D02*
X115505000Y-132495000D01*
X115505000Y-128480000D02*
X115505000Y-131505000D01*
D42*
X111450200Y-83460800D02*
X110460800Y-83460800D01*
D44*
X115505000Y-128480000D02*
X115505000Y-130093528D01*
D45*
X154022831Y-88825000D02*
X155600000Y-88825000D01*
X95400000Y-123635000D02*
X95535000Y-123500000D01*
X159299520Y-84084520D02*
X158300000Y-83085000D01*
X96400000Y-124750000D02*
X97400000Y-124750000D01*
X163038890Y-83061110D02*
X162325000Y-83775000D01*
X158300000Y-83085000D02*
X156940000Y-83085000D01*
X162325000Y-83775000D02*
X161782831Y-83775000D01*
X156104520Y-88825000D02*
X155600000Y-88825000D01*
X159645794Y-84084520D02*
X159955314Y-83775000D01*
X159400000Y-84185000D02*
X159299520Y-84084520D01*
X159955314Y-83775000D02*
X161782831Y-83775000D01*
X95400000Y-124750000D02*
X95400000Y-123635000D01*
X95400000Y-124750000D02*
X96400000Y-124750000D01*
X158732831Y-88825000D02*
X159400000Y-88157831D01*
X153075000Y-88825000D02*
X153050000Y-88800000D01*
X157600000Y-88825000D02*
X158732831Y-88825000D01*
X163038890Y-80400000D02*
X163038890Y-83061110D01*
X157600000Y-88825000D02*
X156104520Y-88825000D01*
X154022831Y-88825000D02*
X153075000Y-88825000D01*
X159299520Y-84084520D02*
X159645794Y-84084520D01*
D46*
X156940000Y-83085000D02*
X156940000Y-83490000D01*
D45*
X159400000Y-88157831D02*
X159400000Y-84185000D01*
D43*
X97535000Y-122410000D02*
X97500000Y-122375000D01*
D47*
X155440000Y-84160000D02*
X155440000Y-84155000D01*
X156448041Y-79515000D02*
X153235436Y-82727605D01*
X155012500Y-84587500D02*
X155440000Y-84160000D01*
X153945331Y-84587500D02*
X155012500Y-84587500D01*
X157884379Y-77840000D02*
X157884379Y-78078662D01*
X153306147Y-82798316D02*
X153306147Y-83948316D01*
X155012500Y-84587500D02*
X157600000Y-87175000D01*
X157884379Y-78078662D02*
X156448041Y-79515000D01*
X153306147Y-83948316D02*
X153945331Y-84587500D01*
D43*
X97535000Y-123500000D02*
X97535000Y-122410000D01*
D47*
X153235436Y-82727605D02*
X153306147Y-82798316D01*
D48*
X138080000Y-127720000D02*
X138080000Y-120320000D01*
X138080000Y-120320000D02*
X143660000Y-114740000D01*
X143660000Y-114740000D02*
X143660000Y-113030000D01*
D44*
X158232831Y-87975000D02*
X156400000Y-87975000D01*
X156940000Y-84085000D02*
X158449520Y-85594520D01*
D47*
X152636172Y-82478341D02*
X153136172Y-81978341D01*
X152606147Y-82508366D02*
X152606147Y-84181148D01*
X152606147Y-84181148D02*
X152766415Y-84341416D01*
X152636172Y-82478341D02*
X152606147Y-82508366D01*
D44*
X156400000Y-87975000D02*
X155600000Y-87175000D01*
D47*
X153136172Y-81978341D02*
X156700000Y-78414513D01*
X156700000Y-78414513D02*
X156700000Y-76900000D01*
D44*
X158449520Y-85594520D02*
X158449520Y-87758311D01*
D47*
X153136172Y-81978341D02*
X153065461Y-81907630D01*
D44*
X158449520Y-87758311D02*
X158232831Y-87975000D01*
D43*
X96535000Y-121960000D02*
X96475000Y-121900000D01*
D47*
X156700000Y-76900000D02*
X157620000Y-75980000D01*
X155600000Y-87175000D02*
X152766415Y-84341416D01*
D43*
X96535000Y-123500000D02*
X96535000Y-121960000D01*
X105260000Y-88695000D02*
X105270000Y-88685000D01*
X103720000Y-88695000D02*
X105260000Y-88695000D01*
X106860000Y-88615000D02*
X106860000Y-87552000D01*
X105270000Y-88685000D02*
X106790000Y-88685000D01*
D46*
X107335000Y-87073100D02*
X107356100Y-87052000D01*
D43*
X106860000Y-87552000D02*
X107335000Y-87077000D01*
X106790000Y-88685000D02*
X106860000Y-88615000D01*
D46*
X103380000Y-86930000D02*
X103355000Y-86905000D01*
X107356100Y-86402000D02*
X105338000Y-86402000D01*
X104810000Y-86930000D02*
X103380000Y-86930000D01*
X105338000Y-86402000D02*
X104810000Y-86930000D01*
D43*
X110788001Y-128510000D02*
X113905000Y-128510000D01*
D44*
X130697500Y-81477500D02*
X128712500Y-83462500D01*
D43*
X104000000Y-119525000D02*
X109650000Y-125175000D01*
D44*
X128712500Y-83462500D02*
X128712500Y-86320000D01*
D43*
X109650000Y-127371999D02*
X110788001Y-128510000D01*
X104000000Y-116400000D02*
X104000000Y-119525000D01*
X109650000Y-125175000D02*
X109650000Y-127371999D01*
X108950000Y-125550000D02*
X108950000Y-127661949D01*
X108950000Y-127661949D02*
X111088051Y-129800000D01*
X111088051Y-129800000D02*
X114475000Y-129800000D01*
D44*
X114505000Y-128480000D02*
X114505000Y-129770000D01*
D43*
X130720000Y-78220000D02*
X130720000Y-79555000D01*
X95350000Y-116700000D02*
X97250000Y-118600000D01*
X102000000Y-118600000D02*
X108950000Y-125550000D01*
X130720000Y-79555000D02*
X130697500Y-79577500D01*
X97250000Y-118600000D02*
X102000000Y-118600000D01*
D44*
X114505000Y-129770000D02*
X114475000Y-129800000D01*
D49*
X109990000Y-91015000D02*
X109990000Y-91210000D01*
D45*
X128325000Y-79480000D02*
X128422500Y-79577500D01*
D49*
X109200000Y-119300000D02*
X109050000Y-119150000D01*
D45*
X126710000Y-79480000D02*
X128325000Y-79480000D01*
D43*
X103720000Y-91020000D02*
X105265000Y-92565000D01*
D49*
X109990000Y-91210000D02*
X108635000Y-92565000D01*
X110100000Y-120200000D02*
X109200000Y-119300000D01*
X107175000Y-93660000D02*
X107175000Y-92565000D01*
X112275000Y-122375000D02*
X114125000Y-122375000D01*
D43*
X100555000Y-86905000D02*
X100550000Y-86900000D01*
D49*
X108635000Y-92565000D02*
X107175000Y-92565000D01*
D43*
X109975000Y-91000000D02*
X109990000Y-91015000D01*
D49*
X108815000Y-95300000D02*
X107175000Y-93660000D01*
D43*
X103720000Y-90345000D02*
X103720000Y-91020000D01*
D49*
X109050000Y-119150000D02*
X109050000Y-116750000D01*
X112275000Y-122375000D02*
X110100000Y-120200000D01*
X110250000Y-95300000D02*
X108815000Y-95300000D01*
D43*
X105265000Y-92565000D02*
X107175000Y-92565000D01*
X101705000Y-86905000D02*
X100555000Y-86905000D01*
X109975000Y-89825000D02*
X109975000Y-91000000D01*
D46*
X105182000Y-85752000D02*
X104810000Y-85380000D01*
X104810000Y-85380000D02*
X103365000Y-85380000D01*
X107356100Y-85752000D02*
X105182000Y-85752000D01*
X103365000Y-85380000D02*
X103350000Y-85365000D01*
D44*
X116725000Y-130150000D02*
X125789339Y-130150000D01*
X116005000Y-128480000D02*
X116005000Y-129430000D01*
X116005000Y-129430000D02*
X116725000Y-130150000D01*
X129550000Y-126389339D02*
X129550000Y-122500000D01*
X125789339Y-130150000D02*
X129550000Y-126389339D01*
D43*
X112750200Y-81800000D02*
X113000200Y-82050000D01*
D44*
X113000200Y-85021100D02*
X113081100Y-85102000D01*
D43*
X111300000Y-81800000D02*
X112750200Y-81800000D01*
D44*
X107725000Y-84350000D02*
X107725000Y-84733100D01*
X107725000Y-84733100D02*
X107356100Y-85102000D01*
D46*
X113060000Y-83401000D02*
X113000200Y-83460800D01*
D43*
X113000200Y-82050000D02*
X113000200Y-83460800D01*
D44*
X113000200Y-83460800D02*
X111836000Y-84625000D01*
X113000200Y-83460800D02*
X113000200Y-85021100D01*
X111836000Y-84625000D02*
X111460000Y-84625000D01*
D43*
X101700000Y-85365000D02*
X100655000Y-85365000D01*
X100655000Y-85365000D02*
X100650000Y-85360000D01*
D48*
X144160000Y-114805686D02*
X144160000Y-113030000D01*
X138580000Y-120385686D02*
X144160000Y-114805686D01*
X138580000Y-127720000D02*
X138580000Y-120385686D01*
X144660000Y-114871372D02*
X144660000Y-113030000D01*
X139080000Y-120451372D02*
X144660000Y-114871372D01*
X139080000Y-127720000D02*
X139080000Y-120451372D01*
X145160000Y-114937058D02*
X145160000Y-113030000D01*
X139580000Y-120517058D02*
X145160000Y-114937058D01*
X139580000Y-127720000D02*
X139580000Y-120517058D01*
X140080000Y-127720000D02*
X140080000Y-120582744D01*
X140080000Y-120582744D02*
X145660000Y-115002744D01*
X145660000Y-115002744D02*
X145660000Y-113030000D01*
X140580000Y-120648430D02*
X146160000Y-115068430D01*
X140580000Y-127720000D02*
X140580000Y-120648430D01*
X146160000Y-115068430D02*
X146160000Y-113030000D01*
X141080000Y-127720000D02*
X141080000Y-120714116D01*
X146660000Y-115134116D02*
X146660000Y-113030000D01*
X141080000Y-120714116D02*
X146660000Y-115134116D01*
X147160000Y-115199802D02*
X147160000Y-113030000D01*
X141580000Y-127720000D02*
X141580000Y-120779802D01*
X141580000Y-120779802D02*
X147160000Y-115199802D01*
X142080000Y-127720000D02*
X142080000Y-120845488D01*
X142080000Y-120845488D02*
X147660000Y-115265488D01*
X147660000Y-115265488D02*
X147660000Y-113030000D01*
X142580000Y-127720000D02*
X142580000Y-120911174D01*
X142580000Y-120911174D02*
X148160000Y-115331174D01*
X148160000Y-115331174D02*
X148160000Y-113030000D01*
X143080000Y-120976860D02*
X148660000Y-115396860D01*
X143080000Y-127720000D02*
X143080000Y-120976860D01*
X148660000Y-115396860D02*
X148660000Y-113030000D01*
X143580000Y-121042546D02*
X149160000Y-115462546D01*
X143580000Y-127720000D02*
X143580000Y-121042546D01*
X149160000Y-115462546D02*
X149160000Y-113030000D01*
X144080000Y-127720000D02*
X144080000Y-121108232D01*
X149660000Y-115528232D02*
X149660000Y-113030000D01*
X144080000Y-121108232D02*
X149660000Y-115528232D01*
X144580000Y-127720000D02*
X144580000Y-121173918D01*
X144580000Y-121173918D02*
X150160000Y-115593918D01*
X150160000Y-115593918D02*
X150160000Y-113030000D01*
X150660000Y-115659604D02*
X150660000Y-113030000D01*
X145080000Y-121239604D02*
X150660000Y-115659604D01*
X145080000Y-127720000D02*
X145080000Y-121239604D01*
X145580000Y-127720000D02*
X145580000Y-121305290D01*
X145580000Y-121305290D02*
X151160000Y-115725290D01*
X151160000Y-115725290D02*
X151160000Y-113030000D01*
X146080000Y-121370976D02*
X151660000Y-115790976D01*
X146080000Y-127720000D02*
X146080000Y-121370976D01*
X151660000Y-115790976D02*
X151660000Y-113030000D01*
X152160000Y-115856662D02*
X152160000Y-113030000D01*
X146580000Y-121436662D02*
X152160000Y-115856662D01*
X146580000Y-127720000D02*
X146580000Y-121436662D01*
X152660000Y-113030000D02*
X152660000Y-115922347D01*
X147080000Y-121502347D02*
X147080000Y-127720000D01*
X152660000Y-115922347D02*
X147080000Y-121502347D01*
X153160000Y-115988034D02*
X153160000Y-113030000D01*
X147580000Y-121568034D02*
X153160000Y-115988034D01*
X147580000Y-127720000D02*
X147580000Y-121568034D01*
X148080000Y-127720000D02*
X148080000Y-121633720D01*
X148080000Y-121633720D02*
X153660000Y-116053720D01*
X153660000Y-116053720D02*
X153660000Y-113030000D01*
X154160000Y-116119406D02*
X154160000Y-113030000D01*
X148580000Y-127720000D02*
X148580000Y-121699406D01*
X148580000Y-121699406D02*
X154160000Y-116119406D01*
D45*
X126250000Y-120650000D02*
X129900000Y-117000000D01*
X121505000Y-128760000D02*
X124840000Y-128760000D01*
X126250000Y-127350000D02*
X126250000Y-120650000D01*
X122975000Y-65175000D02*
X140100000Y-82300000D01*
X140100000Y-82300000D02*
X140100000Y-96250000D01*
X129900000Y-117000000D02*
X135900000Y-117000000D01*
D42*
X121505000Y-128480000D02*
X121230000Y-128480000D01*
D45*
X124840000Y-128760000D02*
X126250000Y-127350000D01*
X120500000Y-65175000D02*
X122975000Y-65175000D01*
D44*
X116505000Y-128480000D02*
X116505000Y-122205000D01*
D43*
X116200000Y-119200000D02*
X116200000Y-120500000D01*
D44*
X116505000Y-122205000D02*
X116200000Y-121900000D01*
D43*
X87250000Y-107175000D02*
X87250255Y-107175000D01*
X112075000Y-115075000D02*
X116200000Y-119200000D01*
X87250255Y-107175000D02*
X95150255Y-115075000D01*
X95150255Y-115075000D02*
X112075000Y-115075000D01*
D44*
X116200000Y-121900000D02*
X116200000Y-120500000D01*
X117005000Y-120505000D02*
X117000000Y-120500000D01*
D43*
X88000000Y-106934796D02*
X95440204Y-114375000D01*
X88000000Y-106375000D02*
X88000000Y-106934796D01*
X95440204Y-114375000D02*
X112364950Y-114375000D01*
X112364950Y-114375000D02*
X117000000Y-119010050D01*
X117000000Y-119010050D02*
X117000000Y-120500000D01*
D44*
X117005000Y-128480000D02*
X117005000Y-120505000D01*
D42*
X156700000Y-82000000D02*
X161557831Y-82000000D01*
D46*
X155440000Y-82360000D02*
X155800000Y-82000000D01*
X161782831Y-77700000D02*
X161782831Y-82225000D01*
X161782831Y-82225000D02*
X161717831Y-82160000D01*
X155440000Y-83085000D02*
X155440000Y-82360000D01*
D45*
X99725000Y-123550000D02*
X101600000Y-123550000D01*
D46*
X155440000Y-83085000D02*
X155440000Y-83530000D01*
D42*
X161557831Y-82000000D02*
X161782831Y-82225000D01*
D45*
X99725000Y-123550000D02*
X98585000Y-123550000D01*
X98585000Y-123550000D02*
X98535000Y-123500000D01*
D42*
X156700000Y-82000000D02*
X155800000Y-82000000D01*
D45*
X127850000Y-115700000D02*
X135900000Y-115700000D01*
X120500000Y-67175000D02*
X123125000Y-67175000D01*
D44*
X120250000Y-126975000D02*
X120225000Y-126950000D01*
X120250000Y-128480000D02*
X120505000Y-128480000D01*
X120005000Y-128480000D02*
X120250000Y-128480000D01*
X120005000Y-127170000D02*
X120225000Y-126950000D01*
X120250000Y-128480000D02*
X120250000Y-126975000D01*
D45*
X123125000Y-67175000D02*
X138750000Y-82800000D01*
D44*
X120005000Y-128480000D02*
X120005000Y-127170000D01*
D45*
X138750000Y-82800000D02*
X138750000Y-96250000D01*
X120225000Y-123325000D02*
X127850000Y-115700000D01*
D44*
X120505000Y-127230000D02*
X120225000Y-126950000D01*
X120505000Y-128480000D02*
X120505000Y-127230000D01*
D45*
X120225000Y-126950000D02*
X120225000Y-123325000D01*
D47*
X119200000Y-79425000D02*
X120472500Y-80697500D01*
X112000000Y-79425000D02*
X109650000Y-81775000D01*
D44*
X128422500Y-81477500D02*
X126887500Y-83012500D01*
D47*
X109650000Y-81775000D02*
X109650000Y-81800000D01*
X112000000Y-79425000D02*
X119200000Y-79425000D01*
X120472500Y-80697500D02*
X120472500Y-84300000D01*
D44*
X126887500Y-83012500D02*
X126887500Y-86320000D01*
X118005000Y-128480000D02*
X118005000Y-122502107D01*
X118005000Y-122502107D02*
X118425000Y-122082107D01*
D43*
X96020102Y-112975000D02*
X89450000Y-106404897D01*
X112975000Y-112975000D02*
X96020102Y-112975000D01*
X118425000Y-120500000D02*
X118425000Y-118425000D01*
X89450000Y-106404897D02*
X89450000Y-105500000D01*
X118425000Y-118425000D02*
X112975000Y-112975000D01*
D44*
X118425000Y-122082107D02*
X118425000Y-120500000D01*
D43*
X89450000Y-105500000D02*
X89400000Y-105450000D01*
D44*
X119125000Y-120500000D02*
X119125000Y-122089213D01*
D43*
X119125000Y-120500000D02*
X119125000Y-118125000D01*
D44*
X119125000Y-122089213D02*
X118505000Y-122709213D01*
D43*
X90150000Y-106114949D02*
X90150000Y-104950000D01*
X96310051Y-112275000D02*
X90150000Y-106114949D01*
D44*
X118505000Y-122709213D02*
X118505000Y-128480000D01*
D43*
X113275000Y-112275000D02*
X96310051Y-112275000D01*
X90150000Y-104950000D02*
X90100000Y-104900000D01*
X119125000Y-118125000D02*
X113275000Y-112275000D01*
X88750000Y-105992392D02*
X88700000Y-105942392D01*
D44*
X117700000Y-122100000D02*
X117700000Y-120500000D01*
D43*
X112654900Y-113675000D02*
X95730153Y-113675000D01*
D44*
X117505000Y-122295000D02*
X117505000Y-128480000D01*
D43*
X95730153Y-113675000D02*
X88750000Y-106694847D01*
X117700000Y-118720100D02*
X112654900Y-113675000D01*
X88750000Y-106694847D02*
X88750000Y-105992392D01*
D44*
X117700000Y-122100000D02*
X117505000Y-122295000D01*
D43*
X117700000Y-120500000D02*
X117700000Y-118720100D01*
X90850000Y-105825000D02*
X96600000Y-111575000D01*
X119825000Y-117835050D02*
X119825000Y-122237741D01*
X90800000Y-104389908D02*
X90800000Y-104539339D01*
X119825000Y-122237741D02*
X119275000Y-122787741D01*
D44*
X119005000Y-128480000D02*
X119005000Y-127470000D01*
D43*
X96600000Y-111575000D02*
X113564950Y-111575000D01*
X113564950Y-111575000D02*
X119825000Y-117835050D01*
X90800000Y-104539339D02*
X90850000Y-104589339D01*
X90850000Y-104589339D02*
X90850000Y-105825000D01*
D44*
X119005000Y-127470000D02*
X119275000Y-127200000D01*
D43*
X119275000Y-122787741D02*
X119275000Y-127200000D01*
G04 #@! TA.AperFunction,Conductor*
G36*
X129276519Y-116420185D02*
G01*
X129322274Y-116472989D01*
X129332218Y-116542147D01*
X129303193Y-116605703D01*
X129297161Y-116612181D01*
X125705888Y-120203453D01*
X125705887Y-120203454D01*
X125629222Y-120318192D01*
X125576421Y-120445667D01*
X125576418Y-120445679D01*
X125552215Y-120567354D01*
X125552215Y-120567360D01*
X125549500Y-120581007D01*
X125549500Y-120581010D01*
X125549500Y-127008481D01*
X125529815Y-127075520D01*
X125513181Y-127096162D01*
X124684181Y-127925162D01*
X124622858Y-127958647D01*
X124553166Y-127953663D01*
X124497233Y-127911791D01*
X124472816Y-127846327D01*
X124472500Y-127837481D01*
X124472500Y-124920249D01*
X124472499Y-124920247D01*
X124460868Y-124861770D01*
X124460867Y-124861769D01*
X124416552Y-124795447D01*
X124350230Y-124751132D01*
X124350229Y-124751131D01*
X124291752Y-124739500D01*
X124291748Y-124739500D01*
X122012252Y-124739500D01*
X122012247Y-124739500D01*
X121953770Y-124751131D01*
X121953769Y-124751132D01*
X121887447Y-124795447D01*
X121843132Y-124861769D01*
X121843131Y-124861770D01*
X121831500Y-124920247D01*
X121831500Y-127359585D01*
X121811815Y-127426624D01*
X121759011Y-127472379D01*
X121689853Y-127482323D01*
X121683310Y-127481203D01*
X121674748Y-127479500D01*
X121335252Y-127479500D01*
X121279190Y-127490651D01*
X121230810Y-127490651D01*
X121174748Y-127479500D01*
X120979500Y-127479500D01*
X120912461Y-127459815D01*
X120866706Y-127407011D01*
X120855500Y-127355500D01*
X120855500Y-127282997D01*
X120864939Y-127235544D01*
X120870667Y-127221715D01*
X120898580Y-127154328D01*
X120914256Y-127075520D01*
X120925500Y-127018995D01*
X120925500Y-123666518D01*
X120945185Y-123599479D01*
X120961819Y-123578837D01*
X128103837Y-116436819D01*
X128165160Y-116403334D01*
X128191518Y-116400500D01*
X129209480Y-116400500D01*
X129276519Y-116420185D01*
G37*
G04 #@! TD.AperFunction*
G04 #@! TA.AperFunction,Conductor*
G36*
X164139503Y-39512188D02*
G01*
X164306127Y-39539977D01*
X164327349Y-39545482D01*
X164485946Y-39602019D01*
X164505870Y-39611182D01*
X164652006Y-39694780D01*
X164670011Y-39707316D01*
X164799122Y-39815362D01*
X164814637Y-39830877D01*
X164922683Y-39959988D01*
X164935221Y-39977996D01*
X165018814Y-40124123D01*
X165027982Y-40144058D01*
X165084514Y-40302642D01*
X165090023Y-40323880D01*
X165103057Y-40402032D01*
X165117811Y-40490496D01*
X165119500Y-40510894D01*
X165119500Y-42170954D01*
X165119274Y-42178436D01*
X165115982Y-42232883D01*
X165115982Y-42232884D01*
X165137121Y-42348217D01*
X165185247Y-42455144D01*
X165185249Y-42455147D01*
X165257556Y-42547439D01*
X165257560Y-42547443D01*
X165349852Y-42619750D01*
X165349855Y-42619752D01*
X165349858Y-42619753D01*
X165349859Y-42619754D01*
X165456781Y-42667878D01*
X165572114Y-42689017D01*
X165572115Y-42689016D01*
X165572116Y-42689017D01*
X165609936Y-42686730D01*
X165626563Y-42685725D01*
X165634044Y-42685500D01*
X165887539Y-42685500D01*
X165911009Y-42687741D01*
X166008122Y-42706470D01*
X166036147Y-42715432D01*
X166123521Y-42755342D01*
X166148648Y-42770659D01*
X166224149Y-42830037D01*
X166244962Y-42850850D01*
X166304337Y-42926347D01*
X166319660Y-42951483D01*
X166359566Y-43038850D01*
X166368531Y-43066887D01*
X166387256Y-43163979D01*
X166389500Y-43187461D01*
X166389500Y-135805707D01*
X166388697Y-135812001D01*
X166389069Y-135818170D01*
X166389066Y-135833109D01*
X166383701Y-135921736D01*
X166378313Y-135951135D01*
X166354145Y-136028688D01*
X166341876Y-136055947D01*
X166299855Y-136125456D01*
X166281420Y-136148986D01*
X166223986Y-136206420D01*
X166200456Y-136224855D01*
X166130947Y-136266876D01*
X166103688Y-136279145D01*
X166026135Y-136303313D01*
X165996736Y-136308701D01*
X165908110Y-136314066D01*
X165893171Y-136314069D01*
X165887001Y-136313697D01*
X165880707Y-136314500D01*
X165634044Y-136314500D01*
X165626563Y-136314274D01*
X165624097Y-136314124D01*
X165572116Y-136310982D01*
X165572115Y-136310982D01*
X165456782Y-136332121D01*
X165349855Y-136380247D01*
X165349852Y-136380249D01*
X165257560Y-136452556D01*
X165257556Y-136452560D01*
X165185249Y-136544852D01*
X165185247Y-136544855D01*
X165137121Y-136651782D01*
X165115982Y-136767115D01*
X165115982Y-136767116D01*
X165119274Y-136821562D01*
X165119500Y-136829044D01*
X165119500Y-138489104D01*
X165117811Y-138509502D01*
X165090024Y-138676118D01*
X165084514Y-138697357D01*
X165027982Y-138855941D01*
X165018814Y-138875876D01*
X164935221Y-139022003D01*
X164922683Y-139040011D01*
X164814637Y-139169122D01*
X164799122Y-139184637D01*
X164670011Y-139292683D01*
X164652003Y-139305221D01*
X164505876Y-139388814D01*
X164485941Y-139397982D01*
X164327357Y-139454514D01*
X164306118Y-139460024D01*
X164139504Y-139487811D01*
X164119106Y-139489500D01*
X90910894Y-139489500D01*
X90890496Y-139487811D01*
X90723881Y-139460024D01*
X90702642Y-139454514D01*
X90544058Y-139397982D01*
X90524123Y-139388814D01*
X90377996Y-139305221D01*
X90359988Y-139292683D01*
X90230877Y-139184637D01*
X90215362Y-139169122D01*
X90177265Y-139123598D01*
X90107315Y-139040009D01*
X90094778Y-139022003D01*
X90061405Y-138963664D01*
X90011182Y-138875870D01*
X90002019Y-138855946D01*
X89945482Y-138697349D01*
X89939976Y-138676124D01*
X89912189Y-138509501D01*
X89910500Y-138489104D01*
X89910500Y-133350000D01*
X100034611Y-133350000D01*
X100054121Y-133548095D01*
X100111903Y-133738574D01*
X100205731Y-133914114D01*
X100205735Y-133914121D01*
X100332011Y-134067988D01*
X100485878Y-134194264D01*
X100485885Y-134194268D01*
X100661425Y-134288096D01*
X100661427Y-134288097D01*
X100851907Y-134345879D01*
X101050000Y-134365389D01*
X101248093Y-134345879D01*
X101438573Y-134288097D01*
X101614120Y-134194265D01*
X101767988Y-134067988D01*
X101894265Y-133914120D01*
X101988097Y-133738573D01*
X102045879Y-133548093D01*
X102065389Y-133350000D01*
X162234611Y-133350000D01*
X162254121Y-133548095D01*
X162311903Y-133738574D01*
X162405731Y-133914114D01*
X162405735Y-133914121D01*
X162532011Y-134067988D01*
X162685878Y-134194264D01*
X162685885Y-134194268D01*
X162861425Y-134288096D01*
X162861427Y-134288097D01*
X163051907Y-134345879D01*
X163250000Y-134365389D01*
X163448093Y-134345879D01*
X163638573Y-134288097D01*
X163814120Y-134194265D01*
X163967988Y-134067988D01*
X164094265Y-133914120D01*
X164188097Y-133738573D01*
X164245879Y-133548093D01*
X164265389Y-133350000D01*
X164245879Y-133151907D01*
X164188097Y-132961427D01*
X164094265Y-132785880D01*
X164094264Y-132785878D01*
X163967988Y-132632011D01*
X163814121Y-132505735D01*
X163814114Y-132505731D01*
X163638574Y-132411903D01*
X163448095Y-132354121D01*
X163250000Y-132334611D01*
X163051904Y-132354121D01*
X162861425Y-132411903D01*
X162685885Y-132505731D01*
X162685878Y-132505735D01*
X162532011Y-132632011D01*
X162405735Y-132785878D01*
X162405731Y-132785885D01*
X162311903Y-132961425D01*
X162254121Y-133151904D01*
X162234611Y-133350000D01*
X102065389Y-133350000D01*
X102045879Y-133151907D01*
X101988097Y-132961427D01*
X101894265Y-132785880D01*
X101894264Y-132785878D01*
X101767988Y-132632011D01*
X101614121Y-132505735D01*
X101614114Y-132505731D01*
X101438574Y-132411903D01*
X101248095Y-132354121D01*
X101050000Y-132334611D01*
X100851904Y-132354121D01*
X100661425Y-132411903D01*
X100485885Y-132505731D01*
X100485878Y-132505735D01*
X100332011Y-132632011D01*
X100205735Y-132785878D01*
X100205731Y-132785885D01*
X100111903Y-132961425D01*
X100054121Y-133151904D01*
X100034611Y-133350000D01*
X89910500Y-133350000D01*
X89910500Y-131218370D01*
X89911377Y-131211033D01*
X89910863Y-131204330D01*
X89910500Y-131194846D01*
X89910500Y-131182797D01*
X89908638Y-131174988D01*
X89903121Y-131102034D01*
X89903119Y-131102026D01*
X89854182Y-130913398D01*
X89854178Y-130913387D01*
X89772757Y-130736335D01*
X89661401Y-130576401D01*
X89523598Y-130438598D01*
X89363664Y-130327242D01*
X89186612Y-130245821D01*
X89186601Y-130245817D01*
X88997974Y-130196880D01*
X88997964Y-130196878D01*
X88925005Y-130191360D01*
X88917204Y-130189500D01*
X88905145Y-130189500D01*
X88895656Y-130189136D01*
X88889001Y-130188625D01*
X88881667Y-130189500D01*
X84610894Y-130189500D01*
X84590496Y-130187811D01*
X84423881Y-130160024D01*
X84402642Y-130154514D01*
X84244058Y-130097982D01*
X84224123Y-130088814D01*
X84077996Y-130005221D01*
X84059988Y-129992683D01*
X83930877Y-129884637D01*
X83915362Y-129869122D01*
X83877265Y-129823598D01*
X83807315Y-129740009D01*
X83794778Y-129722003D01*
X83711182Y-129575870D01*
X83702019Y-129555946D01*
X83645482Y-129397349D01*
X83639976Y-129376124D01*
X83612189Y-129209501D01*
X83610500Y-129189104D01*
X83610500Y-124818995D01*
X94699499Y-124818995D01*
X94726418Y-124954322D01*
X94726421Y-124954332D01*
X94779221Y-125081804D01*
X94779228Y-125081817D01*
X94855885Y-125196541D01*
X94855888Y-125196545D01*
X94953454Y-125294111D01*
X94953458Y-125294114D01*
X95068182Y-125370771D01*
X95068195Y-125370778D01*
X95195667Y-125423578D01*
X95195672Y-125423580D01*
X95195676Y-125423580D01*
X95195677Y-125423581D01*
X95331004Y-125450500D01*
X95331007Y-125450500D01*
X97468995Y-125450500D01*
X97560041Y-125432389D01*
X97604328Y-125423580D01*
X97731811Y-125370775D01*
X97846542Y-125294114D01*
X97944114Y-125196542D01*
X98020775Y-125081811D01*
X98073580Y-124954328D01*
X98100500Y-124818993D01*
X98100500Y-124681007D01*
X98100500Y-124681004D01*
X98073581Y-124545677D01*
X98073580Y-124545676D01*
X98073580Y-124545672D01*
X98073578Y-124545667D01*
X98020778Y-124418195D01*
X98020771Y-124418182D01*
X97944115Y-124303459D01*
X97944114Y-124303458D01*
X97913720Y-124273064D01*
X97880236Y-124211744D01*
X97885220Y-124142052D01*
X97898297Y-124116497D01*
X97919516Y-124084741D01*
X97973126Y-124039939D01*
X98042451Y-124031232D01*
X98105478Y-124061386D01*
X98110297Y-124065954D01*
X98138457Y-124094114D01*
X98150987Y-124102486D01*
X98185201Y-124136699D01*
X98190447Y-124144551D01*
X98190450Y-124144554D01*
X98256769Y-124188867D01*
X98256770Y-124188868D01*
X98321226Y-124201689D01*
X98321003Y-124202805D01*
X98344967Y-124208790D01*
X98380672Y-124223580D01*
X98380676Y-124223580D01*
X98380677Y-124223581D01*
X98516003Y-124250500D01*
X98516006Y-124250500D01*
X101668995Y-124250500D01*
X101760041Y-124232389D01*
X101804328Y-124223580D01*
X101931811Y-124170775D01*
X102046542Y-124094114D01*
X102144114Y-123996542D01*
X102220775Y-123881811D01*
X102273580Y-123754328D01*
X102300500Y-123618993D01*
X102300500Y-123481007D01*
X102300500Y-123481004D01*
X102273581Y-123345677D01*
X102273580Y-123345676D01*
X102273580Y-123345672D01*
X102236440Y-123256007D01*
X102220778Y-123218195D01*
X102220771Y-123218182D01*
X102144114Y-123103458D01*
X102144111Y-123103454D01*
X102046545Y-123005888D01*
X102046541Y-123005885D01*
X101931817Y-122929228D01*
X101931804Y-122929221D01*
X101804332Y-122876421D01*
X101804322Y-122876418D01*
X101668995Y-122849500D01*
X101668993Y-122849500D01*
X99793993Y-122849500D01*
X98908266Y-122849500D01*
X98841227Y-122829815D01*
X98839404Y-122828622D01*
X98813231Y-122811133D01*
X98813229Y-122811132D01*
X98813227Y-122811131D01*
X98813229Y-122811131D01*
X98754752Y-122799500D01*
X98754748Y-122799500D01*
X98315252Y-122799500D01*
X98315247Y-122799500D01*
X98256770Y-122811131D01*
X98256769Y-122811132D01*
X98194773Y-122852557D01*
X98128095Y-122873435D01*
X98060715Y-122854950D01*
X98014025Y-122802971D01*
X98002849Y-122734001D01*
X98022543Y-122686070D01*
X98020474Y-122684876D01*
X98024532Y-122677845D01*
X98024536Y-122677841D01*
X98085044Y-122531762D01*
X98105682Y-122375000D01*
X98100434Y-122335141D01*
X98085044Y-122218239D01*
X98085044Y-122218238D01*
X98024536Y-122072159D01*
X97928282Y-121946718D01*
X97802841Y-121850464D01*
X97738654Y-121823877D01*
X97656762Y-121789956D01*
X97656760Y-121789955D01*
X97500001Y-121769318D01*
X97499999Y-121769318D01*
X97343239Y-121789955D01*
X97343234Y-121789957D01*
X97229818Y-121836935D01*
X97160349Y-121844404D01*
X97097870Y-121813128D01*
X97062218Y-121753039D01*
X97061062Y-121747041D01*
X97060044Y-121743239D01*
X97060044Y-121743238D01*
X96999536Y-121597159D01*
X96903282Y-121471718D01*
X96777841Y-121375464D01*
X96631762Y-121314956D01*
X96631760Y-121314955D01*
X96475001Y-121294318D01*
X96474999Y-121294318D01*
X96318239Y-121314955D01*
X96318237Y-121314956D01*
X96172160Y-121375463D01*
X96046718Y-121471718D01*
X95950463Y-121597160D01*
X95889956Y-121743237D01*
X95889955Y-121743239D01*
X95869318Y-121899998D01*
X95869318Y-121900001D01*
X95889955Y-122056760D01*
X95889956Y-122056762D01*
X95950464Y-122202841D01*
X96046718Y-122328282D01*
X96046720Y-122328283D01*
X96046722Y-122328286D01*
X96048181Y-122329745D01*
X96049018Y-122331278D01*
X96051666Y-122334729D01*
X96051127Y-122335141D01*
X96081666Y-122391068D01*
X96084500Y-122417426D01*
X96084500Y-122761033D01*
X96064815Y-122828072D01*
X96012011Y-122873827D01*
X95942853Y-122883771D01*
X95891106Y-122860139D01*
X95889707Y-122862233D01*
X95813230Y-122811132D01*
X95813229Y-122811131D01*
X95754752Y-122799500D01*
X95754748Y-122799500D01*
X95315252Y-122799500D01*
X95315247Y-122799500D01*
X95256770Y-122811131D01*
X95256768Y-122811132D01*
X95190448Y-122855447D01*
X95190447Y-122855448D01*
X95165169Y-122893277D01*
X95130964Y-122927482D01*
X95088455Y-122955887D01*
X95088450Y-122955892D01*
X94855890Y-123188451D01*
X94855887Y-123188454D01*
X94810751Y-123256007D01*
X94794988Y-123279598D01*
X94779225Y-123303188D01*
X94779221Y-123303195D01*
X94726421Y-123430667D01*
X94726418Y-123430677D01*
X94699500Y-123566004D01*
X94699500Y-123566007D01*
X94699500Y-124681007D01*
X94699500Y-124818993D01*
X94699500Y-124818995D01*
X94699499Y-124818995D01*
X83610500Y-124818995D01*
X83610500Y-120130247D01*
X91534500Y-120130247D01*
X91534500Y-121469752D01*
X91546131Y-121528229D01*
X91546132Y-121528230D01*
X91590447Y-121594552D01*
X91656769Y-121638867D01*
X91656770Y-121638868D01*
X91715247Y-121650499D01*
X91715250Y-121650500D01*
X91715252Y-121650500D01*
X93754750Y-121650500D01*
X93754751Y-121650499D01*
X93769568Y-121647552D01*
X93813229Y-121638868D01*
X93813229Y-121638867D01*
X93813231Y-121638867D01*
X93879552Y-121594552D01*
X93923867Y-121528231D01*
X93923867Y-121528229D01*
X93923868Y-121528229D01*
X93935499Y-121469752D01*
X93935500Y-121469750D01*
X93935500Y-120130249D01*
X93935499Y-120130247D01*
X93923868Y-120071770D01*
X93923867Y-120071769D01*
X93879552Y-120005447D01*
X93813230Y-119961132D01*
X93813229Y-119961131D01*
X93754752Y-119949500D01*
X93754748Y-119949500D01*
X91715252Y-119949500D01*
X91715247Y-119949500D01*
X91656770Y-119961131D01*
X91656769Y-119961132D01*
X91590447Y-120005447D01*
X91546132Y-120071769D01*
X91546131Y-120071770D01*
X91534500Y-120130247D01*
X83610500Y-120130247D01*
X83610500Y-116699998D01*
X94744318Y-116699998D01*
X94744318Y-116700001D01*
X94764955Y-116856760D01*
X94764956Y-116856762D01*
X94825464Y-117002841D01*
X94921718Y-117128282D01*
X95047159Y-117224536D01*
X95193238Y-117285044D01*
X95272083Y-117295424D01*
X95335978Y-117323689D01*
X95343577Y-117330680D01*
X96973386Y-118960490D01*
X96973388Y-118960491D01*
X96973392Y-118960494D01*
X97076110Y-119019798D01*
X97076113Y-119019799D01*
X97087120Y-119022748D01*
X97087125Y-119022751D01*
X97087126Y-119022750D01*
X97109011Y-119028614D01*
X97190691Y-119050500D01*
X101762035Y-119050500D01*
X101829074Y-119070185D01*
X101849716Y-119086819D01*
X102512155Y-119749258D01*
X102545640Y-119810581D01*
X102540656Y-119880273D01*
X102498784Y-119936206D01*
X102433320Y-119960623D01*
X102400285Y-119958557D01*
X102354749Y-119949500D01*
X102354748Y-119949500D01*
X100315252Y-119949500D01*
X100315247Y-119949500D01*
X100256770Y-119961131D01*
X100256769Y-119961132D01*
X100190447Y-120005447D01*
X100146132Y-120071769D01*
X100146131Y-120071770D01*
X100134500Y-120130247D01*
X100134500Y-121469752D01*
X100146131Y-121528229D01*
X100146132Y-121528230D01*
X100190447Y-121594552D01*
X100256769Y-121638867D01*
X100256770Y-121638868D01*
X100315247Y-121650499D01*
X100315250Y-121650500D01*
X100315252Y-121650500D01*
X102354750Y-121650500D01*
X102354751Y-121650499D01*
X102369568Y-121647552D01*
X102413229Y-121638868D01*
X102413229Y-121638867D01*
X102413231Y-121638867D01*
X102479552Y-121594552D01*
X102523867Y-121528231D01*
X102523867Y-121528229D01*
X102523868Y-121528229D01*
X102535499Y-121469752D01*
X102535500Y-121469750D01*
X102535500Y-120130249D01*
X102535499Y-120130247D01*
X102526443Y-120084716D01*
X102532670Y-120015125D01*
X102575533Y-119959947D01*
X102641423Y-119936703D01*
X102709420Y-119952771D01*
X102735741Y-119972844D01*
X108463181Y-125700284D01*
X108496666Y-125761607D01*
X108499500Y-125787965D01*
X108499500Y-127721258D01*
X108519673Y-127796543D01*
X108519672Y-127796543D01*
X108519673Y-127796545D01*
X108530199Y-127835832D01*
X108530200Y-127835834D01*
X108530201Y-127835836D01*
X108589511Y-127938563D01*
X110811437Y-130160490D01*
X110914164Y-130219799D01*
X110938372Y-130226284D01*
X110938375Y-130226286D01*
X110938376Y-130226286D01*
X110968498Y-130234357D01*
X111028742Y-130250500D01*
X111028744Y-130250500D01*
X114534306Y-130250500D01*
X114534309Y-130250500D01*
X114648886Y-130219799D01*
X114751613Y-130160489D01*
X114835489Y-130076613D01*
X114894799Y-129973886D01*
X114925500Y-129859309D01*
X114925500Y-129740691D01*
X114897607Y-129636593D01*
X114899270Y-129566743D01*
X114938433Y-129508881D01*
X115002661Y-129481377D01*
X115017382Y-129480500D01*
X115174750Y-129480500D01*
X115174751Y-129480499D01*
X115189568Y-129477552D01*
X115233229Y-129468868D01*
X115233229Y-129468867D01*
X115233231Y-129468867D01*
X115299552Y-129424552D01*
X115343867Y-129358231D01*
X115343867Y-129358229D01*
X115343868Y-129358229D01*
X115352828Y-129313181D01*
X115355500Y-129299748D01*
X115355500Y-127660252D01*
X115355500Y-122051362D01*
X115354322Y-122029393D01*
X115351488Y-122003035D01*
X115327529Y-121926518D01*
X115294044Y-121865195D01*
X115283016Y-121850464D01*
X115259001Y-121818384D01*
X115258998Y-121818381D01*
X115258991Y-121818371D01*
X115140120Y-121699500D01*
X114980739Y-121540118D01*
X114965773Y-121526554D01*
X114965771Y-121526552D01*
X114965765Y-121526547D01*
X114946943Y-121511105D01*
X114877947Y-121473850D01*
X114877946Y-121473849D01*
X114877945Y-121473849D01*
X114811261Y-121452991D01*
X114753531Y-121443654D01*
X114753524Y-121443653D01*
X114753521Y-121443653D01*
X114283590Y-121435407D01*
X114261578Y-121433045D01*
X114218616Y-121424500D01*
X114218615Y-121424500D01*
X113662887Y-121424500D01*
X113660712Y-121424481D01*
X113482078Y-121421346D01*
X113482071Y-121421346D01*
X113456574Y-121422484D01*
X113456565Y-121422485D01*
X113444354Y-121423794D01*
X113431142Y-121424500D01*
X112720072Y-121424500D01*
X112653033Y-121404815D01*
X112632391Y-121388181D01*
X110036819Y-118792609D01*
X110003334Y-118731286D01*
X110000500Y-118704928D01*
X110000500Y-116656383D01*
X110000499Y-116656379D01*
X109993677Y-116622081D01*
X109963973Y-116472749D01*
X109892322Y-116299769D01*
X109892321Y-116299768D01*
X109892318Y-116299762D01*
X109788302Y-116144092D01*
X109788299Y-116144088D01*
X109655911Y-116011700D01*
X109655907Y-116011697D01*
X109500237Y-115907681D01*
X109500228Y-115907676D01*
X109327251Y-115836027D01*
X109327243Y-115836025D01*
X109143620Y-115799500D01*
X109143616Y-115799500D01*
X108956384Y-115799500D01*
X108956379Y-115799500D01*
X108772756Y-115836025D01*
X108772748Y-115836027D01*
X108599771Y-115907676D01*
X108599762Y-115907681D01*
X108444092Y-116011697D01*
X108444088Y-116011700D01*
X108311700Y-116144088D01*
X108311697Y-116144092D01*
X108207681Y-116299762D01*
X108207676Y-116299771D01*
X108136027Y-116472748D01*
X108136025Y-116472756D01*
X108099500Y-116656379D01*
X108099500Y-119243618D01*
X108107936Y-119286026D01*
X108107936Y-119286028D01*
X108136025Y-119427243D01*
X108136027Y-119427251D01*
X108156474Y-119476614D01*
X108156474Y-119476615D01*
X108207673Y-119600223D01*
X108207680Y-119600236D01*
X108311696Y-119755906D01*
X108311697Y-119755907D01*
X108311698Y-119755908D01*
X108461698Y-119905908D01*
X109361698Y-120805908D01*
X111536698Y-122980908D01*
X111609247Y-123053457D01*
X111669093Y-123113303D01*
X111669096Y-123113305D01*
X111781570Y-123188458D01*
X111781571Y-123188458D01*
X111824768Y-123217321D01*
X111824771Y-123217323D01*
X111863956Y-123233554D01*
X111997749Y-123288973D01*
X112154663Y-123320185D01*
X112181378Y-123325499D01*
X112181382Y-123325500D01*
X112181383Y-123325500D01*
X112181384Y-123325500D01*
X113147734Y-123325500D01*
X113214773Y-123345185D01*
X113260528Y-123397989D01*
X113268032Y-123419426D01*
X113559531Y-124585426D01*
X113556693Y-124655238D01*
X113516563Y-124712433D01*
X113451881Y-124738853D01*
X113439233Y-124739500D01*
X111218247Y-124739500D01*
X111159770Y-124751131D01*
X111159769Y-124751132D01*
X111093447Y-124795447D01*
X111049132Y-124861769D01*
X111049131Y-124861770D01*
X111037500Y-124920247D01*
X111037500Y-127823034D01*
X111017815Y-127890073D01*
X110965011Y-127935828D01*
X110895853Y-127945772D01*
X110832297Y-127916747D01*
X110825819Y-127910715D01*
X110136819Y-127221715D01*
X110103334Y-127160392D01*
X110100500Y-127134034D01*
X110100500Y-125115693D01*
X110100500Y-125115691D01*
X110069799Y-125001114D01*
X110058263Y-124981133D01*
X110010490Y-124898386D01*
X104486819Y-119374715D01*
X104453334Y-119313392D01*
X104450500Y-119287034D01*
X104450500Y-116841419D01*
X104470185Y-116774380D01*
X104476124Y-116765933D01*
X104492092Y-116745121D01*
X104524536Y-116702841D01*
X104585044Y-116556762D01*
X104605682Y-116400000D01*
X104599099Y-116350000D01*
X104585044Y-116243239D01*
X104585044Y-116243238D01*
X104524536Y-116097159D01*
X104428282Y-115971718D01*
X104302841Y-115875464D01*
X104156762Y-115814956D01*
X104156760Y-115814955D01*
X104000001Y-115794318D01*
X103999999Y-115794318D01*
X103843239Y-115814955D01*
X103843237Y-115814956D01*
X103697160Y-115875463D01*
X103571718Y-115971718D01*
X103475463Y-116097160D01*
X103414956Y-116243237D01*
X103414955Y-116243239D01*
X103394318Y-116399998D01*
X103394318Y-116400001D01*
X103414955Y-116556760D01*
X103414957Y-116556765D01*
X103475461Y-116702836D01*
X103475464Y-116702841D01*
X103523876Y-116765933D01*
X103549070Y-116831102D01*
X103549500Y-116841419D01*
X103549500Y-119213035D01*
X103529815Y-119280074D01*
X103477011Y-119325829D01*
X103407853Y-119335773D01*
X103344297Y-119306748D01*
X103337819Y-119300716D01*
X102276616Y-118239513D01*
X102276614Y-118239511D01*
X102173887Y-118180201D01*
X102148404Y-118173373D01*
X102148401Y-118173372D01*
X102110746Y-118163282D01*
X102059309Y-118149500D01*
X102059308Y-118149500D01*
X97487966Y-118149500D01*
X97420927Y-118129815D01*
X97400285Y-118113181D01*
X95980681Y-116693578D01*
X95947196Y-116632255D01*
X95945425Y-116622097D01*
X95935044Y-116543238D01*
X95874536Y-116397159D01*
X95778282Y-116271718D01*
X95652841Y-116175464D01*
X95613011Y-116158966D01*
X95506762Y-116114956D01*
X95506760Y-116114955D01*
X95350001Y-116094318D01*
X95349999Y-116094318D01*
X95193239Y-116114955D01*
X95193237Y-116114956D01*
X95047160Y-116175463D01*
X94921718Y-116271718D01*
X94825463Y-116397160D01*
X94764956Y-116543237D01*
X94764955Y-116543239D01*
X94744318Y-116699998D01*
X83610500Y-116699998D01*
X83610500Y-107175000D01*
X86744353Y-107175000D01*
X86764834Y-107317456D01*
X86824622Y-107448371D01*
X86824623Y-107448373D01*
X86918872Y-107557143D01*
X86918874Y-107557144D01*
X86918876Y-107557146D01*
X87039941Y-107634950D01*
X87039944Y-107634952D01*
X87039946Y-107634952D01*
X87039947Y-107634953D01*
X87056519Y-107639818D01*
X87109267Y-107671115D01*
X94873641Y-115435489D01*
X94976368Y-115494799D01*
X94976367Y-115494799D01*
X94988222Y-115497975D01*
X94996903Y-115500301D01*
X94996905Y-115500302D01*
X95016778Y-115505626D01*
X95090946Y-115525500D01*
X111837035Y-115525500D01*
X111904074Y-115545185D01*
X111924716Y-115561819D01*
X115713181Y-119350284D01*
X115746666Y-119411607D01*
X115749500Y-119437965D01*
X115749500Y-120559309D01*
X115780201Y-120673886D01*
X115832887Y-120765140D01*
X115849500Y-120827140D01*
X115849500Y-121946144D01*
X115862143Y-121993327D01*
X115872246Y-122031033D01*
X115873386Y-122035288D01*
X115919527Y-122115208D01*
X115919531Y-122115213D01*
X116118181Y-122313863D01*
X116151666Y-122375186D01*
X116154500Y-122401544D01*
X116154500Y-127355500D01*
X116134815Y-127422539D01*
X116082011Y-127468294D01*
X116030500Y-127479500D01*
X115835247Y-127479500D01*
X115776770Y-127491131D01*
X115776769Y-127491132D01*
X115710447Y-127535447D01*
X115666132Y-127601769D01*
X115666131Y-127601770D01*
X115654500Y-127660247D01*
X115654500Y-129476144D01*
X115667159Y-129523388D01*
X115678385Y-129565287D01*
X115724527Y-129645208D01*
X115724529Y-129645211D01*
X115724530Y-129645212D01*
X116509788Y-130430470D01*
X116589712Y-130476614D01*
X116678856Y-130500500D01*
X116678858Y-130500500D01*
X125835481Y-130500500D01*
X125835483Y-130500500D01*
X125924627Y-130476614D01*
X126004551Y-130430470D01*
X129234774Y-127200247D01*
X137729500Y-127200247D01*
X137729500Y-128239752D01*
X137741131Y-128298229D01*
X137741132Y-128298230D01*
X137785447Y-128364552D01*
X137851769Y-128408867D01*
X137851770Y-128408868D01*
X137910247Y-128420499D01*
X137910250Y-128420500D01*
X137910252Y-128420500D01*
X138249750Y-128420500D01*
X138305808Y-128409349D01*
X138354192Y-128409349D01*
X138410249Y-128420500D01*
X138410252Y-128420500D01*
X138749750Y-128420500D01*
X138805808Y-128409349D01*
X138854192Y-128409349D01*
X138910249Y-128420500D01*
X138910252Y-128420500D01*
X139249750Y-128420500D01*
X139305808Y-128409349D01*
X139354192Y-128409349D01*
X139410249Y-128420500D01*
X139410252Y-128420500D01*
X139749750Y-128420500D01*
X139805808Y-128409349D01*
X139854192Y-128409349D01*
X139910249Y-128420500D01*
X139910252Y-128420500D01*
X140249750Y-128420500D01*
X140305808Y-128409349D01*
X140354192Y-128409349D01*
X140410249Y-128420500D01*
X140410252Y-128420500D01*
X140749750Y-128420500D01*
X140805808Y-128409349D01*
X140854192Y-128409349D01*
X140910249Y-128420500D01*
X140910252Y-128420500D01*
X141249750Y-128420500D01*
X141305808Y-128409349D01*
X141354192Y-128409349D01*
X141410249Y-128420500D01*
X141410252Y-128420500D01*
X141749750Y-128420500D01*
X141805808Y-128409349D01*
X141854192Y-128409349D01*
X141910249Y-128420500D01*
X141910252Y-128420500D01*
X142249750Y-128420500D01*
X142305808Y-128409349D01*
X142354192Y-128409349D01*
X142410249Y-128420500D01*
X142410252Y-128420500D01*
X142749750Y-128420500D01*
X142805808Y-128409349D01*
X142854192Y-128409349D01*
X142910249Y-128420500D01*
X142910252Y-128420500D01*
X143249750Y-128420500D01*
X143305808Y-128409349D01*
X143354192Y-128409349D01*
X143410249Y-128420500D01*
X143410252Y-128420500D01*
X143749750Y-128420500D01*
X143805808Y-128409349D01*
X143854192Y-128409349D01*
X143910249Y-128420500D01*
X143910252Y-128420500D01*
X144249750Y-128420500D01*
X144305808Y-128409349D01*
X144354192Y-128409349D01*
X144410249Y-128420500D01*
X144410252Y-128420500D01*
X144749750Y-128420500D01*
X144805808Y-128409349D01*
X144854192Y-128409349D01*
X144910249Y-128420500D01*
X144910252Y-128420500D01*
X145249750Y-128420500D01*
X145305808Y-128409349D01*
X145354192Y-128409349D01*
X145410249Y-128420500D01*
X145410252Y-128420500D01*
X145749750Y-128420500D01*
X145805808Y-128409349D01*
X145854192Y-128409349D01*
X145910249Y-128420500D01*
X145910252Y-128420500D01*
X146249750Y-128420500D01*
X146305808Y-128409349D01*
X146354192Y-128409349D01*
X146410249Y-128420500D01*
X146410252Y-128420500D01*
X146749750Y-128420500D01*
X146805808Y-128409349D01*
X146854192Y-128409349D01*
X146910249Y-128420500D01*
X146910252Y-128420500D01*
X147249750Y-128420500D01*
X147305808Y-128409349D01*
X147354192Y-128409349D01*
X147410249Y-128420500D01*
X147410252Y-128420500D01*
X147749750Y-128420500D01*
X147805808Y-128409349D01*
X147854192Y-128409349D01*
X147910249Y-128420500D01*
X147910252Y-128420500D01*
X148249750Y-128420500D01*
X148305808Y-128409349D01*
X148354192Y-128409349D01*
X148410249Y-128420500D01*
X148410252Y-128420500D01*
X148749750Y-128420500D01*
X148749751Y-128420499D01*
X148764568Y-128417552D01*
X148808229Y-128408868D01*
X148808229Y-128408867D01*
X148808231Y-128408867D01*
X148874552Y-128364552D01*
X148918867Y-128298231D01*
X148918867Y-128298229D01*
X148918868Y-128298229D01*
X148930499Y-128239752D01*
X148930500Y-128239750D01*
X148930500Y-127200249D01*
X148930499Y-127200247D01*
X148918868Y-127141773D01*
X148918867Y-127141770D01*
X148918867Y-127141769D01*
X148901396Y-127115622D01*
X148880520Y-127048947D01*
X148880500Y-127046734D01*
X148880500Y-125150247D01*
X149829500Y-125150247D01*
X149829500Y-126489752D01*
X149841131Y-126548229D01*
X149841132Y-126548230D01*
X149885447Y-126614552D01*
X149951769Y-126658867D01*
X149951770Y-126658868D01*
X150010247Y-126670499D01*
X150010250Y-126670500D01*
X150010252Y-126670500D01*
X151699750Y-126670500D01*
X151699751Y-126670499D01*
X151714568Y-126667552D01*
X151758229Y-126658868D01*
X151758229Y-126658867D01*
X151758231Y-126658867D01*
X151824552Y-126614552D01*
X151868867Y-126548231D01*
X151868867Y-126548229D01*
X151868868Y-126548229D01*
X151880499Y-126489752D01*
X151880500Y-126489750D01*
X151880500Y-125150249D01*
X151880499Y-125150247D01*
X151868868Y-125091770D01*
X151868867Y-125091769D01*
X151824552Y-125025447D01*
X151758230Y-124981132D01*
X151758229Y-124981131D01*
X151699752Y-124969500D01*
X151699748Y-124969500D01*
X150010252Y-124969500D01*
X150010247Y-124969500D01*
X149951770Y-124981131D01*
X149951769Y-124981132D01*
X149885447Y-125025447D01*
X149841132Y-125091769D01*
X149841131Y-125091770D01*
X149829500Y-125150247D01*
X148880500Y-125150247D01*
X148880500Y-121875239D01*
X148900185Y-121808200D01*
X148916819Y-121787558D01*
X151653878Y-119050499D01*
X154400460Y-116303917D01*
X154440022Y-116235394D01*
X154460500Y-116158968D01*
X154460500Y-116079844D01*
X154460500Y-113703266D01*
X154480185Y-113636227D01*
X154481398Y-113634374D01*
X154498867Y-113608231D01*
X154510500Y-113549748D01*
X154510500Y-112510252D01*
X154510500Y-112510249D01*
X154510499Y-112510247D01*
X154498868Y-112451770D01*
X154498867Y-112451769D01*
X154454552Y-112385447D01*
X154388230Y-112341132D01*
X154388229Y-112341131D01*
X154329752Y-112329500D01*
X154329748Y-112329500D01*
X153990252Y-112329500D01*
X153934190Y-112340651D01*
X153885810Y-112340651D01*
X153829748Y-112329500D01*
X153490252Y-112329500D01*
X153434190Y-112340651D01*
X153385810Y-112340651D01*
X153329748Y-112329500D01*
X152990252Y-112329500D01*
X152934190Y-112340651D01*
X152885810Y-112340651D01*
X152829748Y-112329500D01*
X152490252Y-112329500D01*
X152434190Y-112340651D01*
X152385810Y-112340651D01*
X152329748Y-112329500D01*
X151990252Y-112329500D01*
X151934190Y-112340651D01*
X151885810Y-112340651D01*
X151829748Y-112329500D01*
X151490252Y-112329500D01*
X151434190Y-112340651D01*
X151385810Y-112340651D01*
X151329748Y-112329500D01*
X150990252Y-112329500D01*
X150934190Y-112340651D01*
X150885810Y-112340651D01*
X150829748Y-112329500D01*
X150490252Y-112329500D01*
X150434190Y-112340651D01*
X150385810Y-112340651D01*
X150329748Y-112329500D01*
X149990252Y-112329500D01*
X149934190Y-112340651D01*
X149885810Y-112340651D01*
X149829748Y-112329500D01*
X149490252Y-112329500D01*
X149434190Y-112340651D01*
X149385810Y-112340651D01*
X149329748Y-112329500D01*
X148990252Y-112329500D01*
X148934190Y-112340651D01*
X148885810Y-112340651D01*
X148829748Y-112329500D01*
X148490252Y-112329500D01*
X148434190Y-112340651D01*
X148385810Y-112340651D01*
X148329748Y-112329500D01*
X147990252Y-112329500D01*
X147934190Y-112340651D01*
X147885810Y-112340651D01*
X147829748Y-112329500D01*
X147490252Y-112329500D01*
X147434190Y-112340651D01*
X147385810Y-112340651D01*
X147329748Y-112329500D01*
X146990252Y-112329500D01*
X146934190Y-112340651D01*
X146885810Y-112340651D01*
X146829748Y-112329500D01*
X146490252Y-112329500D01*
X146434190Y-112340651D01*
X146385810Y-112340651D01*
X146329748Y-112329500D01*
X145990252Y-112329500D01*
X145934190Y-112340651D01*
X145885810Y-112340651D01*
X145829748Y-112329500D01*
X145490252Y-112329500D01*
X145434190Y-112340651D01*
X145385810Y-112340651D01*
X145329748Y-112329500D01*
X144990252Y-112329500D01*
X144934190Y-112340651D01*
X144885810Y-112340651D01*
X144829748Y-112329500D01*
X144490252Y-112329500D01*
X144434190Y-112340651D01*
X144385810Y-112340651D01*
X144329748Y-112329500D01*
X143990252Y-112329500D01*
X143934190Y-112340651D01*
X143885810Y-112340651D01*
X143829748Y-112329500D01*
X143490252Y-112329500D01*
X143490247Y-112329500D01*
X143431770Y-112341131D01*
X143431769Y-112341132D01*
X143365447Y-112385447D01*
X143321132Y-112451769D01*
X143321131Y-112451770D01*
X143309500Y-112510247D01*
X143309500Y-113549752D01*
X143321131Y-113608228D01*
X143338602Y-113634374D01*
X143359480Y-113701052D01*
X143359500Y-113703266D01*
X143359500Y-114564167D01*
X143339815Y-114631206D01*
X143323181Y-114651848D01*
X137839541Y-120135487D01*
X137839535Y-120135495D01*
X137799982Y-120204004D01*
X137799979Y-120204009D01*
X137779500Y-120280439D01*
X137779500Y-127046734D01*
X137759815Y-127113773D01*
X137758603Y-127115624D01*
X137741132Y-127141770D01*
X137741131Y-127141773D01*
X137729500Y-127200247D01*
X129234774Y-127200247D01*
X129830470Y-126604551D01*
X129876614Y-126524627D01*
X129900500Y-126435483D01*
X129900500Y-126343195D01*
X129900500Y-125150247D01*
X134779500Y-125150247D01*
X134779500Y-126489752D01*
X134791131Y-126548229D01*
X134791132Y-126548230D01*
X134835447Y-126614552D01*
X134901769Y-126658867D01*
X134901770Y-126658868D01*
X134960247Y-126670499D01*
X134960250Y-126670500D01*
X134960252Y-126670500D01*
X136649750Y-126670500D01*
X136649751Y-126670499D01*
X136664568Y-126667552D01*
X136708229Y-126658868D01*
X136708229Y-126658867D01*
X136708231Y-126658867D01*
X136774552Y-126614552D01*
X136818867Y-126548231D01*
X136818867Y-126548229D01*
X136818868Y-126548229D01*
X136830499Y-126489752D01*
X136830500Y-126489750D01*
X136830500Y-125150249D01*
X136830499Y-125150247D01*
X136818868Y-125091770D01*
X136818867Y-125091769D01*
X136774552Y-125025447D01*
X136708230Y-124981132D01*
X136708229Y-124981131D01*
X136649752Y-124969500D01*
X136649748Y-124969500D01*
X134960252Y-124969500D01*
X134960247Y-124969500D01*
X134901770Y-124981131D01*
X134901769Y-124981132D01*
X134835447Y-125025447D01*
X134791132Y-125091769D01*
X134791131Y-125091770D01*
X134779500Y-125150247D01*
X129900500Y-125150247D01*
X129900500Y-123424500D01*
X129920185Y-123357461D01*
X129972989Y-123311706D01*
X130024500Y-123300500D01*
X130054270Y-123300500D01*
X130084699Y-123297646D01*
X130084701Y-123297646D01*
X130148790Y-123275219D01*
X130212882Y-123252793D01*
X130322150Y-123172150D01*
X130402793Y-123062882D01*
X130431477Y-122980908D01*
X130447646Y-122934701D01*
X130447646Y-122934699D01*
X130450500Y-122904269D01*
X130450500Y-122095730D01*
X130447646Y-122065300D01*
X130447646Y-122065298D01*
X130405951Y-121946143D01*
X130402793Y-121937118D01*
X130322150Y-121827850D01*
X130212882Y-121747207D01*
X130212880Y-121747206D01*
X130084700Y-121702353D01*
X130054270Y-121699500D01*
X130054266Y-121699500D01*
X129045734Y-121699500D01*
X129045730Y-121699500D01*
X129015300Y-121702353D01*
X129015298Y-121702353D01*
X128887119Y-121747206D01*
X128887117Y-121747207D01*
X128777850Y-121827850D01*
X128697207Y-121937117D01*
X128697206Y-121937119D01*
X128652353Y-122065298D01*
X128652353Y-122065300D01*
X128649500Y-122095730D01*
X128649500Y-122904269D01*
X128652353Y-122934699D01*
X128652353Y-122934701D01*
X128693909Y-123053457D01*
X128697207Y-123062882D01*
X128777850Y-123172150D01*
X128887118Y-123252793D01*
X128929845Y-123267744D01*
X129015299Y-123297646D01*
X129045730Y-123300500D01*
X129045734Y-123300500D01*
X129075500Y-123300500D01*
X129142539Y-123320185D01*
X129188294Y-123372989D01*
X129199500Y-123424500D01*
X129199500Y-126192795D01*
X129179815Y-126259834D01*
X129163181Y-126280476D01*
X125680476Y-129763181D01*
X125619153Y-129796666D01*
X125592795Y-129799500D01*
X116921544Y-129799500D01*
X116854505Y-129779815D01*
X116833863Y-129763181D01*
X116762863Y-129692181D01*
X116729378Y-129630858D01*
X116734362Y-129561166D01*
X116776234Y-129505233D01*
X116841698Y-129480816D01*
X116850544Y-129480500D01*
X117174750Y-129480500D01*
X117230808Y-129469349D01*
X117279192Y-129469349D01*
X117335249Y-129480500D01*
X117335252Y-129480500D01*
X117674750Y-129480500D01*
X117730808Y-129469349D01*
X117779192Y-129469349D01*
X117835249Y-129480500D01*
X117835252Y-129480500D01*
X118174750Y-129480500D01*
X118230808Y-129469349D01*
X118279192Y-129469349D01*
X118335249Y-129480500D01*
X118335252Y-129480500D01*
X118674750Y-129480500D01*
X118730808Y-129469349D01*
X118779192Y-129469349D01*
X118835249Y-129480500D01*
X118835252Y-129480500D01*
X119174750Y-129480500D01*
X119230808Y-129469349D01*
X119279192Y-129469349D01*
X119335249Y-129480500D01*
X119335252Y-129480500D01*
X119674750Y-129480500D01*
X119730808Y-129469349D01*
X119779192Y-129469349D01*
X119835249Y-129480500D01*
X119835252Y-129480500D01*
X120174750Y-129480500D01*
X120230808Y-129469349D01*
X120279192Y-129469349D01*
X120335249Y-129480500D01*
X120335252Y-129480500D01*
X120674750Y-129480500D01*
X120730808Y-129469349D01*
X120779192Y-129469349D01*
X120835249Y-129480500D01*
X120835252Y-129480500D01*
X121174750Y-129480500D01*
X121230808Y-129469349D01*
X121279192Y-129469349D01*
X121335249Y-129480500D01*
X121335252Y-129480500D01*
X121674750Y-129480500D01*
X121674751Y-129480499D01*
X121689485Y-129477568D01*
X121745210Y-129466485D01*
X121745316Y-129467021D01*
X121778096Y-129460500D01*
X124908996Y-129460500D01*
X125000040Y-129442389D01*
X125044328Y-129433580D01*
X125108069Y-129407177D01*
X125171807Y-129380777D01*
X125171808Y-129380776D01*
X125171811Y-129380775D01*
X125286543Y-129304114D01*
X125630157Y-128960500D01*
X126794113Y-127796545D01*
X126794114Y-127796543D01*
X126870775Y-127681811D01*
X126923580Y-127554328D01*
X126936150Y-127491133D01*
X126950500Y-127418993D01*
X126950500Y-120991519D01*
X126970185Y-120924480D01*
X126986819Y-120903838D01*
X130153838Y-117736819D01*
X130215161Y-117703334D01*
X130241519Y-117700500D01*
X135968995Y-117700500D01*
X136060041Y-117682389D01*
X136104328Y-117673580D01*
X136231811Y-117620775D01*
X136346542Y-117544114D01*
X136444114Y-117446542D01*
X136520775Y-117331811D01*
X136573580Y-117204328D01*
X136600500Y-117068993D01*
X136600500Y-116931007D01*
X136600500Y-116931004D01*
X136573581Y-116795677D01*
X136573580Y-116795676D01*
X136573580Y-116795672D01*
X136561262Y-116765933D01*
X136520778Y-116668195D01*
X136520771Y-116668182D01*
X136444114Y-116553458D01*
X136444111Y-116553454D01*
X136346545Y-116455888D01*
X136346541Y-116455885D01*
X136342380Y-116453105D01*
X136297572Y-116399495D01*
X136288862Y-116330171D01*
X136319013Y-116267142D01*
X136342380Y-116246895D01*
X136342577Y-116246762D01*
X136346542Y-116244114D01*
X136444114Y-116146542D01*
X136520775Y-116031811D01*
X136573580Y-115904328D01*
X136587166Y-115836027D01*
X136600500Y-115768995D01*
X136600500Y-115631004D01*
X136573581Y-115495677D01*
X136573580Y-115495676D01*
X136573580Y-115495672D01*
X136573218Y-115494799D01*
X136520778Y-115368195D01*
X136520771Y-115368182D01*
X136444114Y-115253458D01*
X136444111Y-115253454D01*
X136346545Y-115155888D01*
X136346541Y-115155885D01*
X136231817Y-115079228D01*
X136231804Y-115079221D01*
X136104332Y-115026421D01*
X136104322Y-115026418D01*
X135968995Y-114999500D01*
X135968993Y-114999500D01*
X127781007Y-114999500D01*
X127781004Y-114999500D01*
X127677843Y-115020019D01*
X127677844Y-115020020D01*
X127645677Y-115026418D01*
X127645668Y-115026421D01*
X127598049Y-115046146D01*
X127598048Y-115046146D01*
X127518193Y-115079222D01*
X127518192Y-115079223D01*
X127518189Y-115079224D01*
X127518189Y-115079225D01*
X127410183Y-115151393D01*
X127405726Y-115154370D01*
X127403455Y-115155888D01*
X120487181Y-122072162D01*
X120425858Y-122105647D01*
X120356166Y-122100663D01*
X120300233Y-122058791D01*
X120275816Y-121993327D01*
X120275500Y-121984481D01*
X120275500Y-117775743D01*
X120275500Y-117775741D01*
X120244799Y-117661164D01*
X120244797Y-117661161D01*
X120244797Y-117661159D01*
X120244796Y-117661158D01*
X120224860Y-117626628D01*
X120224858Y-117626625D01*
X120185492Y-117558439D01*
X120185488Y-117558434D01*
X113841566Y-111214513D01*
X113841564Y-111214511D01*
X113790200Y-111184856D01*
X113738838Y-111155201D01*
X113726730Y-111151957D01*
X113714623Y-111148713D01*
X113714620Y-111148712D01*
X113676428Y-111138478D01*
X113624259Y-111124500D01*
X113624258Y-111124500D01*
X96837965Y-111124500D01*
X96770926Y-111104815D01*
X96750284Y-111088181D01*
X96122350Y-110460247D01*
X140359500Y-110460247D01*
X140359500Y-111799752D01*
X140371131Y-111858229D01*
X140371132Y-111858230D01*
X140415447Y-111924552D01*
X140481769Y-111968867D01*
X140481770Y-111968868D01*
X140540247Y-111980499D01*
X140540250Y-111980500D01*
X140540252Y-111980500D01*
X142229750Y-111980500D01*
X142229751Y-111980499D01*
X142244568Y-111977552D01*
X142288229Y-111968868D01*
X142288229Y-111968867D01*
X142288231Y-111968867D01*
X142354552Y-111924552D01*
X142398867Y-111858231D01*
X142398867Y-111858229D01*
X142398868Y-111858229D01*
X142410499Y-111799752D01*
X142410500Y-111799750D01*
X142410500Y-110460249D01*
X142410499Y-110460247D01*
X155409500Y-110460247D01*
X155409500Y-111799752D01*
X155421131Y-111858229D01*
X155421132Y-111858230D01*
X155465447Y-111924552D01*
X155531769Y-111968867D01*
X155531770Y-111968868D01*
X155590247Y-111980499D01*
X155590250Y-111980500D01*
X155590252Y-111980500D01*
X157279750Y-111980500D01*
X157279751Y-111980499D01*
X157294568Y-111977552D01*
X157338229Y-111968868D01*
X157338229Y-111968867D01*
X157338231Y-111968867D01*
X157404552Y-111924552D01*
X157448867Y-111858231D01*
X157448867Y-111858229D01*
X157448868Y-111858229D01*
X157460499Y-111799752D01*
X157460500Y-111799750D01*
X157460500Y-110460249D01*
X157460499Y-110460247D01*
X157448868Y-110401770D01*
X157448867Y-110401769D01*
X157404552Y-110335447D01*
X157338230Y-110291132D01*
X157338229Y-110291131D01*
X157279752Y-110279500D01*
X157279748Y-110279500D01*
X155590252Y-110279500D01*
X155590247Y-110279500D01*
X155531770Y-110291131D01*
X155531769Y-110291132D01*
X155465447Y-110335447D01*
X155421132Y-110401769D01*
X155421131Y-110401770D01*
X155409500Y-110460247D01*
X142410499Y-110460247D01*
X142398868Y-110401770D01*
X142398867Y-110401769D01*
X142354552Y-110335447D01*
X142288230Y-110291132D01*
X142288229Y-110291131D01*
X142229752Y-110279500D01*
X142229748Y-110279500D01*
X140540252Y-110279500D01*
X140540247Y-110279500D01*
X140481770Y-110291131D01*
X140481769Y-110291132D01*
X140415447Y-110335447D01*
X140371132Y-110401769D01*
X140371131Y-110401770D01*
X140359500Y-110460247D01*
X96122350Y-110460247D01*
X91336819Y-105674716D01*
X91303334Y-105613393D01*
X91300500Y-105587035D01*
X91300500Y-104530031D01*
X91300500Y-104530030D01*
X91297320Y-104518166D01*
X91294357Y-104468427D01*
X91305647Y-104389908D01*
X91285165Y-104247451D01*
X91225377Y-104116535D01*
X91131128Y-104007765D01*
X91010053Y-103929955D01*
X91010051Y-103929954D01*
X91010049Y-103929953D01*
X91010050Y-103929953D01*
X90871963Y-103889408D01*
X90871961Y-103889408D01*
X90728039Y-103889408D01*
X90728036Y-103889408D01*
X90589949Y-103929953D01*
X90468873Y-104007764D01*
X90374623Y-104116534D01*
X90374622Y-104116536D01*
X90314835Y-104247451D01*
X90308169Y-104293810D01*
X90279143Y-104357365D01*
X90220364Y-104395139D01*
X90180829Y-104397968D01*
X90180829Y-104399500D01*
X90028036Y-104399500D01*
X89889949Y-104440045D01*
X89768873Y-104517856D01*
X89768872Y-104517856D01*
X89768872Y-104517857D01*
X89758325Y-104530029D01*
X89674623Y-104626626D01*
X89674622Y-104626628D01*
X89614834Y-104757543D01*
X89602527Y-104843147D01*
X89573502Y-104906703D01*
X89514724Y-104944477D01*
X89479789Y-104949500D01*
X89328036Y-104949500D01*
X89189949Y-104990045D01*
X89068873Y-105067856D01*
X88974623Y-105176626D01*
X88974622Y-105176628D01*
X88914834Y-105307543D01*
X88910663Y-105336559D01*
X88881638Y-105400115D01*
X88822860Y-105437889D01*
X88780829Y-105440895D01*
X88780829Y-105441892D01*
X88628036Y-105441892D01*
X88489949Y-105482437D01*
X88368873Y-105560248D01*
X88274623Y-105669018D01*
X88274622Y-105669020D01*
X88212550Y-105804938D01*
X88166795Y-105857742D01*
X88099755Y-105877426D01*
X88080891Y-105874715D01*
X88080741Y-105875762D01*
X88071963Y-105874500D01*
X88071961Y-105874500D01*
X87928039Y-105874500D01*
X87928036Y-105874500D01*
X87789949Y-105915045D01*
X87668873Y-105992856D01*
X87574623Y-106101626D01*
X87574622Y-106101628D01*
X87514834Y-106232543D01*
X87494353Y-106375000D01*
X87514834Y-106517453D01*
X87517333Y-106525962D01*
X87516043Y-106526340D01*
X87524678Y-106586397D01*
X87495652Y-106649952D01*
X87436873Y-106687726D01*
X87367007Y-106687726D01*
X87321961Y-106674500D01*
X87178039Y-106674500D01*
X87178036Y-106674500D01*
X87039949Y-106715045D01*
X86918873Y-106792856D01*
X86824623Y-106901626D01*
X86824622Y-106901628D01*
X86764834Y-107032543D01*
X86744353Y-107175000D01*
X83610500Y-107175000D01*
X83610500Y-98651365D01*
X91834500Y-98651365D01*
X91834500Y-101488638D01*
X91835678Y-101510618D01*
X91838511Y-101536965D01*
X91838512Y-101536967D01*
X91862470Y-101613478D01*
X91862471Y-101613483D01*
X91876872Y-101639855D01*
X91895956Y-101674805D01*
X91895958Y-101674808D01*
X91895960Y-101674811D01*
X91930998Y-101721615D01*
X91931002Y-101721619D01*
X91931009Y-101721629D01*
X91931016Y-101721636D01*
X95658365Y-105448986D01*
X95658366Y-105448987D01*
X95674716Y-105463674D01*
X95674730Y-105463686D01*
X95674738Y-105463693D01*
X95683136Y-105470460D01*
X95695379Y-105480327D01*
X95766424Y-105517490D01*
X95833456Y-105537173D01*
X95833458Y-105537173D01*
X95833464Y-105537175D01*
X95891362Y-105545500D01*
X95891366Y-105545500D01*
X155748639Y-105545500D01*
X155751180Y-105545363D01*
X155770607Y-105544322D01*
X155770614Y-105544321D01*
X155770618Y-105544321D01*
X155796965Y-105541488D01*
X155873482Y-105517529D01*
X155934805Y-105484044D01*
X155981629Y-105448991D01*
X156138991Y-105291629D01*
X156153693Y-105275262D01*
X156170327Y-105254620D01*
X156207490Y-105183575D01*
X156227175Y-105116536D01*
X156235500Y-105058638D01*
X156235500Y-98011362D01*
X156234322Y-97989393D01*
X156231488Y-97963035D01*
X156207529Y-97886518D01*
X156174044Y-97825195D01*
X156138991Y-97778371D01*
X156138983Y-97778363D01*
X153781634Y-95421013D01*
X153781633Y-95421012D01*
X153765283Y-95406325D01*
X153765269Y-95406313D01*
X153744620Y-95389672D01*
X153673575Y-95352509D01*
X153606543Y-95332826D01*
X153605894Y-95332732D01*
X153548638Y-95324500D01*
X140924500Y-95324500D01*
X140857461Y-95304815D01*
X140811706Y-95252011D01*
X140800500Y-95200500D01*
X140800500Y-82455637D01*
X152205647Y-82455637D01*
X152205647Y-82455639D01*
X152205647Y-84128421D01*
X152205647Y-84233875D01*
X152208054Y-84242857D01*
X152232940Y-84335737D01*
X152242115Y-84351628D01*
X152285667Y-84427061D01*
X152445935Y-84587329D01*
X154301900Y-86443293D01*
X154888181Y-87029573D01*
X154921666Y-87090896D01*
X154924500Y-87117254D01*
X154924500Y-87406517D01*
X154931783Y-87452499D01*
X154939354Y-87500304D01*
X154996950Y-87613342D01*
X154996952Y-87613344D01*
X154996954Y-87613347D01*
X155086652Y-87703045D01*
X155086654Y-87703046D01*
X155086658Y-87703050D01*
X155199696Y-87760646D01*
X155199698Y-87760647D01*
X155293475Y-87775499D01*
X155293481Y-87775500D01*
X155653455Y-87775499D01*
X155720494Y-87795183D01*
X155741136Y-87811818D01*
X155842137Y-87912819D01*
X155875622Y-87974142D01*
X155870638Y-88043834D01*
X155828766Y-88099767D01*
X155763302Y-88124184D01*
X155754456Y-88124500D01*
X153256887Y-88124500D01*
X153232696Y-88122117D01*
X153195004Y-88114619D01*
X153118996Y-88099500D01*
X153118994Y-88099500D01*
X152981006Y-88099500D01*
X152981004Y-88099500D01*
X152845677Y-88126418D01*
X152845667Y-88126421D01*
X152718192Y-88179222D01*
X152603454Y-88255887D01*
X152505887Y-88353454D01*
X152429222Y-88468192D01*
X152376421Y-88595667D01*
X152376418Y-88595677D01*
X152349500Y-88731003D01*
X152349500Y-88731006D01*
X152349500Y-88868994D01*
X152349500Y-88868996D01*
X152349499Y-88868996D01*
X152376418Y-89004322D01*
X152376421Y-89004332D01*
X152429222Y-89131807D01*
X152505885Y-89246542D01*
X152574592Y-89315249D01*
X152574607Y-89315263D01*
X152628454Y-89369111D01*
X152628458Y-89369114D01*
X152743182Y-89445771D01*
X152743186Y-89445773D01*
X152743189Y-89445775D01*
X152788420Y-89464510D01*
X152788421Y-89464511D01*
X152829546Y-89481545D01*
X152870671Y-89498580D01*
X152870674Y-89498580D01*
X152870679Y-89498582D01*
X152897545Y-89503925D01*
X152897551Y-89503926D01*
X152897591Y-89503934D01*
X152987937Y-89521905D01*
X153006006Y-89525500D01*
X153006007Y-89525500D01*
X158801827Y-89525500D01*
X158910288Y-89503925D01*
X158937159Y-89498580D01*
X159019414Y-89464509D01*
X159064638Y-89445777D01*
X159064639Y-89445776D01*
X159064642Y-89445775D01*
X159179374Y-89369114D01*
X159944113Y-88604374D01*
X159951392Y-88593481D01*
X160020775Y-88489642D01*
X160063432Y-88386658D01*
X160073580Y-88362160D01*
X160085852Y-88300464D01*
X160090734Y-88275917D01*
X160100500Y-88226826D01*
X160100500Y-84671833D01*
X160120185Y-84604794D01*
X160136819Y-84584151D01*
X160209153Y-84511818D01*
X160270477Y-84478334D01*
X160296834Y-84475500D01*
X162393996Y-84475500D01*
X162485040Y-84457389D01*
X162529328Y-84448580D01*
X162593069Y-84422177D01*
X162656807Y-84395777D01*
X162656808Y-84395776D01*
X162656811Y-84395775D01*
X162771543Y-84319114D01*
X163583004Y-83507653D01*
X163659665Y-83392921D01*
X163712470Y-83265438D01*
X163731216Y-83171199D01*
X163739390Y-83130106D01*
X163739390Y-80331004D01*
X163712471Y-80195677D01*
X163712470Y-80195676D01*
X163712470Y-80195672D01*
X163706186Y-80180500D01*
X163659668Y-80068195D01*
X163659661Y-80068182D01*
X163583004Y-79953458D01*
X163583001Y-79953454D01*
X163485435Y-79855888D01*
X163485431Y-79855885D01*
X163370707Y-79779228D01*
X163370694Y-79779221D01*
X163243222Y-79726421D01*
X163243212Y-79726418D01*
X163107885Y-79699500D01*
X163107883Y-79699500D01*
X162969897Y-79699500D01*
X162969895Y-79699500D01*
X162834567Y-79726418D01*
X162834557Y-79726421D01*
X162707085Y-79779221D01*
X162707072Y-79779228D01*
X162592348Y-79855885D01*
X162592344Y-79855888D01*
X162494778Y-79953454D01*
X162435433Y-80042270D01*
X162381820Y-80087074D01*
X162312495Y-80095781D01*
X162249468Y-80065626D01*
X162212749Y-80006183D01*
X162208331Y-79973378D01*
X162208331Y-78173999D01*
X162228016Y-78106960D01*
X162233941Y-78098531D01*
X162307367Y-78002841D01*
X162367875Y-77856762D01*
X162388513Y-77700000D01*
X162386306Y-77683239D01*
X162367875Y-77543239D01*
X162367875Y-77543238D01*
X162307367Y-77397159D01*
X162211113Y-77271718D01*
X162085672Y-77175464D01*
X161939593Y-77114956D01*
X161939591Y-77114955D01*
X161782832Y-77094318D01*
X161782830Y-77094318D01*
X161626070Y-77114955D01*
X161626068Y-77114956D01*
X161479991Y-77175463D01*
X161354549Y-77271718D01*
X161258294Y-77397160D01*
X161197787Y-77543237D01*
X161197786Y-77543239D01*
X161177149Y-77699998D01*
X161177149Y-77700001D01*
X161197786Y-77856760D01*
X161197787Y-77856762D01*
X161258295Y-78002841D01*
X161331708Y-78098515D01*
X161356901Y-78163681D01*
X161357331Y-78173999D01*
X161357331Y-81300500D01*
X161337646Y-81367539D01*
X161284842Y-81413294D01*
X161233331Y-81424500D01*
X155724234Y-81424500D01*
X155577863Y-81463719D01*
X155446635Y-81539485D01*
X155446632Y-81539487D01*
X155339487Y-81646632D01*
X155339485Y-81646635D01*
X155263719Y-81777863D01*
X155224500Y-81924234D01*
X155223439Y-81932294D01*
X155221660Y-81932059D01*
X155204815Y-81989429D01*
X155188181Y-82010071D01*
X155099517Y-82098734D01*
X155099513Y-82098740D01*
X155043498Y-82195760D01*
X155043497Y-82195763D01*
X155014500Y-82303982D01*
X155014500Y-82760701D01*
X154994815Y-82827740D01*
X154993602Y-82829592D01*
X154943743Y-82904211D01*
X154929500Y-82975815D01*
X154929500Y-83194178D01*
X154936622Y-83229984D01*
X154943744Y-83265789D01*
X154943744Y-83265790D01*
X154943745Y-83265791D01*
X154943961Y-83266115D01*
X154944215Y-83266926D01*
X154948418Y-83277074D01*
X154947509Y-83277450D01*
X154964835Y-83332794D01*
X154948343Y-83392897D01*
X154948417Y-83392928D01*
X154948173Y-83393514D01*
X154946347Y-83400173D01*
X154943961Y-83403885D01*
X154943743Y-83404209D01*
X154943743Y-83404210D01*
X154929500Y-83475816D01*
X154929500Y-83694178D01*
X154935594Y-83724815D01*
X154943744Y-83765789D01*
X154943744Y-83765790D01*
X154943745Y-83765791D01*
X154943961Y-83766115D01*
X154944215Y-83766926D01*
X154948418Y-83777074D01*
X154947509Y-83777450D01*
X154964835Y-83832794D01*
X154948343Y-83892897D01*
X154948417Y-83892928D01*
X154948173Y-83893514D01*
X154946347Y-83900173D01*
X154943961Y-83903885D01*
X154943743Y-83904209D01*
X154943743Y-83904210D01*
X154929500Y-83975816D01*
X154929500Y-84052743D01*
X154909815Y-84119782D01*
X154893186Y-84140420D01*
X154882930Y-84150677D01*
X154821608Y-84184165D01*
X154795244Y-84187000D01*
X154162585Y-84187000D01*
X154095546Y-84167315D01*
X154074904Y-84150681D01*
X153742966Y-83818742D01*
X153709481Y-83757419D01*
X153706647Y-83731061D01*
X153706647Y-83146648D01*
X153726332Y-83079609D01*
X153727048Y-83078652D01*
X153731515Y-83071698D01*
X153731524Y-83071689D01*
X153791312Y-82940773D01*
X153811794Y-82798316D01*
X153810486Y-82789221D01*
X153820426Y-82720065D01*
X153845539Y-82683893D01*
X156683744Y-79845687D01*
X156683749Y-79845684D01*
X156693952Y-79835480D01*
X156693954Y-79835480D01*
X158120081Y-78409350D01*
X158120091Y-78409343D01*
X158131669Y-78397765D01*
X158171899Y-78370881D01*
X158187220Y-78364536D01*
X158312661Y-78268282D01*
X158408915Y-78142841D01*
X158469423Y-77996762D01*
X158490061Y-77840000D01*
X158469423Y-77683238D01*
X158408915Y-77537159D01*
X158312661Y-77411718D01*
X158187220Y-77315464D01*
X158041141Y-77254956D01*
X158041139Y-77254955D01*
X157884380Y-77234318D01*
X157884378Y-77234318D01*
X157727618Y-77254955D01*
X157727616Y-77254956D01*
X157581539Y-77315463D01*
X157456097Y-77411718D01*
X157359842Y-77537160D01*
X157339061Y-77587331D01*
X157295220Y-77641734D01*
X157228926Y-77663799D01*
X157161226Y-77646520D01*
X157113616Y-77595382D01*
X157100500Y-77539878D01*
X157100500Y-77117254D01*
X157120185Y-77050215D01*
X157136815Y-77029577D01*
X157544991Y-76621400D01*
X157606312Y-76587917D01*
X157616485Y-76586144D01*
X157619997Y-76585681D01*
X157620000Y-76585682D01*
X157776762Y-76565044D01*
X157922841Y-76504536D01*
X158048282Y-76408282D01*
X158144536Y-76282841D01*
X158205044Y-76136762D01*
X158225682Y-75980000D01*
X158205044Y-75823238D01*
X158144536Y-75677159D01*
X158048282Y-75551718D01*
X157922841Y-75455464D01*
X157776762Y-75394956D01*
X157776760Y-75394955D01*
X157620001Y-75374318D01*
X157619999Y-75374318D01*
X157463239Y-75394955D01*
X157463237Y-75394956D01*
X157317160Y-75455463D01*
X157191718Y-75551718D01*
X157095463Y-75677160D01*
X157034956Y-75823237D01*
X157034956Y-75823238D01*
X157013855Y-75983513D01*
X156985588Y-76047409D01*
X156978597Y-76055008D01*
X156379522Y-76654084D01*
X156379518Y-76654090D01*
X156326792Y-76745412D01*
X156326793Y-76745413D01*
X156299500Y-76847273D01*
X156299500Y-78197257D01*
X156279815Y-78264296D01*
X156263181Y-78284938D01*
X153177308Y-81370811D01*
X153115985Y-81404296D01*
X153089627Y-81407130D01*
X152993497Y-81407130D01*
X152855410Y-81447675D01*
X152734334Y-81525486D01*
X152640084Y-81634256D01*
X152640083Y-81634258D01*
X152580295Y-81765173D01*
X152564345Y-81876114D01*
X152559814Y-81907630D01*
X152561117Y-81916696D01*
X152561122Y-81916726D01*
X152551178Y-81985885D01*
X152526065Y-82022054D01*
X152342799Y-82205318D01*
X152342795Y-82205324D01*
X152332106Y-82216014D01*
X152332102Y-82216018D01*
X152285669Y-82262450D01*
X152285667Y-82262453D01*
X152232940Y-82353778D01*
X152223439Y-82389237D01*
X152223439Y-82389238D01*
X152223438Y-82389237D01*
X152205647Y-82455637D01*
X140800500Y-82455637D01*
X140800500Y-82231006D01*
X140800499Y-82231003D01*
X140797518Y-82216018D01*
X140775738Y-82106519D01*
X140773580Y-82095671D01*
X140720775Y-81968189D01*
X140644114Y-81853457D01*
X140644112Y-81853454D01*
X129977258Y-71186600D01*
X137429278Y-71186600D01*
X137448515Y-71369629D01*
X137448516Y-71369632D01*
X137505383Y-71544653D01*
X137505386Y-71544659D01*
X137597405Y-71704040D01*
X137706927Y-71825677D01*
X137720549Y-71840806D01*
X137720551Y-71840808D01*
X137869434Y-71948978D01*
X137869435Y-71948978D01*
X137869439Y-71948981D01*
X138006553Y-72010028D01*
X138037561Y-72023834D01*
X138037566Y-72023836D01*
X138217581Y-72062100D01*
X138401619Y-72062100D01*
X138581634Y-72023836D01*
X138749761Y-71948981D01*
X138898650Y-71840807D01*
X139021795Y-71704040D01*
X139113814Y-71544659D01*
X139170685Y-71369629D01*
X139189922Y-71186600D01*
X139170685Y-71003571D01*
X139113814Y-70828541D01*
X139021795Y-70669160D01*
X138898650Y-70532393D01*
X138898648Y-70532391D01*
X138749765Y-70424221D01*
X138749762Y-70424219D01*
X138749761Y-70424219D01*
X138688712Y-70397038D01*
X138581638Y-70349365D01*
X138581633Y-70349363D01*
X138401619Y-70311100D01*
X138217581Y-70311100D01*
X138037566Y-70349363D01*
X138037561Y-70349365D01*
X137869439Y-70424219D01*
X137869434Y-70424221D01*
X137720551Y-70532391D01*
X137720549Y-70532393D01*
X137597404Y-70669161D01*
X137505386Y-70828540D01*
X137505383Y-70828546D01*
X137452285Y-70991967D01*
X137448515Y-71003571D01*
X137429278Y-71186600D01*
X129977258Y-71186600D01*
X127977258Y-69186600D01*
X137429278Y-69186600D01*
X137448515Y-69369629D01*
X137448516Y-69369632D01*
X137505383Y-69544653D01*
X137505386Y-69544659D01*
X137597405Y-69704040D01*
X137706927Y-69825677D01*
X137720549Y-69840806D01*
X137720551Y-69840808D01*
X137869434Y-69948978D01*
X137869435Y-69948978D01*
X137869439Y-69948981D01*
X138006553Y-70010028D01*
X138037561Y-70023834D01*
X138037566Y-70023836D01*
X138217581Y-70062100D01*
X138401619Y-70062100D01*
X138581634Y-70023836D01*
X138749761Y-69948981D01*
X138898650Y-69840807D01*
X139021795Y-69704040D01*
X139113814Y-69544659D01*
X139170685Y-69369629D01*
X139189922Y-69186600D01*
X139170685Y-69003571D01*
X139113814Y-68828541D01*
X139021795Y-68669160D01*
X138898650Y-68532393D01*
X138898648Y-68532391D01*
X138749765Y-68424221D01*
X138749762Y-68424219D01*
X138749761Y-68424219D01*
X138688712Y-68397038D01*
X138581638Y-68349365D01*
X138581633Y-68349363D01*
X138401619Y-68311100D01*
X138217581Y-68311100D01*
X138037566Y-68349363D01*
X138037561Y-68349365D01*
X137869439Y-68424219D01*
X137869434Y-68424221D01*
X137720551Y-68532391D01*
X137720549Y-68532393D01*
X137597404Y-68669161D01*
X137505386Y-68828540D01*
X137505383Y-68828546D01*
X137452285Y-68991967D01*
X137448515Y-69003571D01*
X137429278Y-69186600D01*
X127977258Y-69186600D01*
X125977258Y-67186600D01*
X137429278Y-67186600D01*
X137448515Y-67369629D01*
X137448516Y-67369632D01*
X137505383Y-67544653D01*
X137505386Y-67544659D01*
X137597405Y-67704040D01*
X137706927Y-67825677D01*
X137720549Y-67840806D01*
X137720551Y-67840808D01*
X137869434Y-67948978D01*
X137869435Y-67948978D01*
X137869439Y-67948981D01*
X138006553Y-68010028D01*
X138037561Y-68023834D01*
X138037566Y-68023836D01*
X138217581Y-68062100D01*
X138401619Y-68062100D01*
X138581634Y-68023836D01*
X138749761Y-67948981D01*
X138898650Y-67840807D01*
X139021795Y-67704040D01*
X139113814Y-67544659D01*
X139170685Y-67369629D01*
X139189922Y-67186600D01*
X139170685Y-67003571D01*
X139113814Y-66828541D01*
X139021795Y-66669160D01*
X138898650Y-66532393D01*
X138898648Y-66532391D01*
X138749765Y-66424221D01*
X138749762Y-66424219D01*
X138749761Y-66424219D01*
X138681515Y-66393834D01*
X138581638Y-66349365D01*
X138581633Y-66349363D01*
X138401619Y-66311100D01*
X138217581Y-66311100D01*
X138037566Y-66349363D01*
X138037561Y-66349365D01*
X137869439Y-66424219D01*
X137869434Y-66424221D01*
X137720551Y-66532391D01*
X137720549Y-66532393D01*
X137597404Y-66669161D01*
X137505386Y-66828540D01*
X137505383Y-66828546D01*
X137452285Y-66991967D01*
X137448515Y-67003571D01*
X137429278Y-67186600D01*
X125977258Y-67186600D01*
X123421545Y-64630887D01*
X123306807Y-64554222D01*
X123179332Y-64501421D01*
X123179322Y-64501418D01*
X123043996Y-64474500D01*
X123043994Y-64474500D01*
X123043993Y-64474500D01*
X121065623Y-64474500D01*
X120998584Y-64454815D01*
X120992737Y-64450818D01*
X120940160Y-64412618D01*
X120772038Y-64337765D01*
X120772033Y-64337763D01*
X120592019Y-64299500D01*
X120407981Y-64299500D01*
X120227966Y-64337763D01*
X120227961Y-64337765D01*
X120059839Y-64412619D01*
X120059834Y-64412621D01*
X119910951Y-64520791D01*
X119910949Y-64520793D01*
X119787804Y-64657561D01*
X119695786Y-64816940D01*
X119695783Y-64816946D01*
X119638916Y-64991967D01*
X119638915Y-64991971D01*
X119619678Y-65175000D01*
X119638915Y-65358029D01*
X119638916Y-65358032D01*
X119695783Y-65533053D01*
X119695786Y-65533059D01*
X119787805Y-65692440D01*
X119798250Y-65704040D01*
X119910949Y-65829206D01*
X119910951Y-65829208D01*
X120059834Y-65937378D01*
X120059835Y-65937378D01*
X120059839Y-65937381D01*
X120196953Y-65998428D01*
X120227961Y-66012234D01*
X120227966Y-66012236D01*
X120407981Y-66050500D01*
X120592019Y-66050500D01*
X120772034Y-66012236D01*
X120940161Y-65937381D01*
X120992737Y-65899181D01*
X121058544Y-65875702D01*
X121065623Y-65875500D01*
X122633481Y-65875500D01*
X122700520Y-65895185D01*
X122721162Y-65911819D01*
X123072162Y-66262819D01*
X123105647Y-66324142D01*
X123100663Y-66393834D01*
X123058791Y-66449767D01*
X122993327Y-66474184D01*
X122984481Y-66474500D01*
X121065623Y-66474500D01*
X120998584Y-66454815D01*
X120992737Y-66450818D01*
X120991290Y-66449767D01*
X120940161Y-66412619D01*
X120940160Y-66412618D01*
X120772038Y-66337765D01*
X120772033Y-66337763D01*
X120592019Y-66299500D01*
X120407981Y-66299500D01*
X120227966Y-66337763D01*
X120227961Y-66337765D01*
X120059839Y-66412619D01*
X120059834Y-66412621D01*
X119910951Y-66520791D01*
X119910949Y-66520793D01*
X119787804Y-66657561D01*
X119695786Y-66816940D01*
X119695783Y-66816946D01*
X119638916Y-66991967D01*
X119638915Y-66991971D01*
X119619678Y-67175000D01*
X119638915Y-67358029D01*
X119638916Y-67358032D01*
X119695783Y-67533053D01*
X119695786Y-67533059D01*
X119787805Y-67692440D01*
X119798250Y-67704040D01*
X119910949Y-67829206D01*
X119910951Y-67829208D01*
X120059834Y-67937378D01*
X120059835Y-67937378D01*
X120059839Y-67937381D01*
X120196953Y-67998428D01*
X120227961Y-68012234D01*
X120227966Y-68012236D01*
X120407981Y-68050500D01*
X120592019Y-68050500D01*
X120772034Y-68012236D01*
X120940161Y-67937381D01*
X120992737Y-67899181D01*
X121058544Y-67875702D01*
X121065623Y-67875500D01*
X122783481Y-67875500D01*
X122850520Y-67895185D01*
X122871162Y-67911819D01*
X138013181Y-83053838D01*
X138046666Y-83115161D01*
X138049500Y-83141519D01*
X138049500Y-95200500D01*
X138029815Y-95267539D01*
X137977011Y-95313294D01*
X137925500Y-95324500D01*
X136216482Y-95324500D01*
X136149443Y-95304815D01*
X136128801Y-95288181D01*
X134241819Y-93401199D01*
X134208334Y-93339876D01*
X134205500Y-93313518D01*
X134205500Y-87031361D01*
X134204321Y-87009381D01*
X134201488Y-86983034D01*
X134201487Y-86983032D01*
X134177529Y-86906518D01*
X134144044Y-86845195D01*
X134144039Y-86845188D01*
X134109001Y-86798384D01*
X134108998Y-86798381D01*
X134108991Y-86798371D01*
X133217239Y-85906619D01*
X132321634Y-85011013D01*
X132321633Y-85011012D01*
X132305283Y-84996325D01*
X132305269Y-84996313D01*
X132284620Y-84979672D01*
X132213575Y-84942509D01*
X132146543Y-84922826D01*
X132145894Y-84922732D01*
X132088638Y-84914500D01*
X132088634Y-84914500D01*
X129187000Y-84914500D01*
X129119961Y-84894815D01*
X129074206Y-84842011D01*
X129063000Y-84790500D01*
X129063000Y-83659044D01*
X129082685Y-83592005D01*
X129099319Y-83571363D01*
X130656363Y-82014319D01*
X130717686Y-81980834D01*
X130744044Y-81978000D01*
X131243261Y-81978000D01*
X131265971Y-81974691D01*
X131311393Y-81968073D01*
X131416483Y-81916698D01*
X131499198Y-81833983D01*
X131550573Y-81728893D01*
X131560500Y-81660760D01*
X131560500Y-81294240D01*
X131559394Y-81286652D01*
X131550573Y-81226108D01*
X131536321Y-81196954D01*
X131499198Y-81121017D01*
X131499196Y-81121015D01*
X131499196Y-81121014D01*
X131416485Y-81038303D01*
X131311391Y-80986926D01*
X131243261Y-80977000D01*
X131243260Y-80977000D01*
X130151740Y-80977000D01*
X130151739Y-80977000D01*
X130083608Y-80986926D01*
X129978514Y-81038303D01*
X129895803Y-81121014D01*
X129844426Y-81226108D01*
X129834500Y-81294239D01*
X129834500Y-81660760D01*
X129844426Y-81728892D01*
X129847270Y-81738095D01*
X129843563Y-81739240D01*
X129852083Y-81789614D01*
X129824639Y-81853868D01*
X129816627Y-81862689D01*
X128432031Y-83247286D01*
X128432027Y-83247291D01*
X128385887Y-83327209D01*
X128385886Y-83327212D01*
X128362000Y-83416356D01*
X128362000Y-84838603D01*
X128342315Y-84905642D01*
X128297429Y-84947433D01*
X128248662Y-84974063D01*
X128245188Y-84975960D01*
X128198384Y-85010998D01*
X128198370Y-85011010D01*
X128071004Y-85138375D01*
X128056325Y-85154716D01*
X128056313Y-85154730D01*
X128039672Y-85175379D01*
X128002509Y-85246424D01*
X127982826Y-85313456D01*
X127974500Y-85371365D01*
X127974500Y-94173518D01*
X127954815Y-94240557D01*
X127938181Y-94261199D01*
X126371199Y-95828181D01*
X126309876Y-95861666D01*
X126283518Y-95864500D01*
X111230570Y-95864500D01*
X111163531Y-95844815D01*
X111117776Y-95792011D01*
X111107832Y-95722853D01*
X111116009Y-95693048D01*
X111163971Y-95577255D01*
X111163973Y-95577251D01*
X111200500Y-95393616D01*
X111200500Y-95206384D01*
X111163973Y-95022749D01*
X111124293Y-94926953D01*
X111116824Y-94857483D01*
X111148099Y-94795004D01*
X111208188Y-94759352D01*
X111238854Y-94755500D01*
X111726700Y-94755500D01*
X111793739Y-94775185D01*
X111795560Y-94776377D01*
X111806769Y-94783867D01*
X111806771Y-94783867D01*
X111806773Y-94783868D01*
X111865247Y-94795499D01*
X111865250Y-94795500D01*
X111865252Y-94795500D01*
X113904750Y-94795500D01*
X113904751Y-94795499D01*
X113919568Y-94792552D01*
X113963229Y-94783868D01*
X113963229Y-94783867D01*
X113963231Y-94783867D01*
X114029552Y-94739552D01*
X114073867Y-94673231D01*
X114073867Y-94673227D01*
X114080123Y-94663866D01*
X114095540Y-94645079D01*
X114258991Y-94481629D01*
X114273693Y-94465262D01*
X114290327Y-94444620D01*
X114327490Y-94373575D01*
X114334559Y-94349500D01*
X114347173Y-94306543D01*
X114347173Y-94306542D01*
X114347175Y-94306536D01*
X114355500Y-94248638D01*
X114355500Y-92703971D01*
X114375185Y-92636932D01*
X114426028Y-92592093D01*
X114427437Y-92591419D01*
X114427439Y-92591419D01*
X114509954Y-92551981D01*
X114564708Y-92508579D01*
X114604909Y-92466089D01*
X114945032Y-91984520D01*
X114947745Y-91980583D01*
X114950957Y-91975803D01*
X114977721Y-91918549D01*
X114997224Y-91851456D01*
X115005391Y-91793535D01*
X115005377Y-91788217D01*
X115260001Y-91788217D01*
X115269912Y-91856249D01*
X115321215Y-91961191D01*
X115359999Y-91999975D01*
X116360000Y-91999975D01*
X116398787Y-91961188D01*
X116450087Y-91856251D01*
X116450088Y-91856248D01*
X116460000Y-91788219D01*
X116460000Y-91780000D01*
X116360000Y-91780000D01*
X116360000Y-91999975D01*
X115359999Y-91999975D01*
X115360000Y-91999974D01*
X115360000Y-91780000D01*
X115260001Y-91780000D01*
X115260001Y-91788217D01*
X115005377Y-91788217D01*
X115001171Y-90241487D01*
X115020674Y-90174398D01*
X115073353Y-90128500D01*
X115142484Y-90118369D01*
X115206119Y-90147221D01*
X115212852Y-90153473D01*
X115218366Y-90158987D01*
X115234716Y-90173674D01*
X115234730Y-90173686D01*
X115234738Y-90173693D01*
X115235613Y-90174398D01*
X115255379Y-90190327D01*
X115326424Y-90227490D01*
X115393202Y-90247098D01*
X115393464Y-90247175D01*
X115428180Y-90252166D01*
X115491735Y-90281192D01*
X115529508Y-90339970D01*
X115529508Y-90409840D01*
X115491733Y-90468618D01*
X115464992Y-90486304D01*
X115403809Y-90516214D01*
X115321212Y-90598811D01*
X115269912Y-90703748D01*
X115269911Y-90703751D01*
X115260000Y-90771780D01*
X115260000Y-90780000D01*
X116459999Y-90780000D01*
X116459999Y-90771782D01*
X116450087Y-90703750D01*
X116398784Y-90598808D01*
X116316188Y-90516212D01*
X116264410Y-90490900D01*
X116212827Y-90443773D01*
X116194913Y-90376238D01*
X116216354Y-90309740D01*
X116270343Y-90265390D01*
X116318870Y-90255500D01*
X117048639Y-90255500D01*
X117051180Y-90255363D01*
X117070607Y-90254322D01*
X117070614Y-90254321D01*
X117070618Y-90254321D01*
X117096965Y-90251488D01*
X117173482Y-90227529D01*
X117234805Y-90194044D01*
X117281629Y-90158991D01*
X118108991Y-89331629D01*
X118123693Y-89315262D01*
X118140327Y-89294620D01*
X118177490Y-89223575D01*
X118187782Y-89188526D01*
X118197173Y-89156543D01*
X118197173Y-89156542D01*
X118197175Y-89156536D01*
X118205500Y-89098638D01*
X118205500Y-81301362D01*
X118204322Y-81279393D01*
X118203890Y-81275379D01*
X118201488Y-81253034D01*
X118201487Y-81253032D01*
X118196895Y-81238366D01*
X118177529Y-81176518D01*
X118144044Y-81115195D01*
X118144039Y-81115188D01*
X118109001Y-81068384D01*
X118108998Y-81068381D01*
X118108991Y-81068371D01*
X117981629Y-80941009D01*
X117981628Y-80941008D01*
X117981624Y-80941004D01*
X117965283Y-80926325D01*
X117965269Y-80926313D01*
X117944620Y-80909672D01*
X117873575Y-80872509D01*
X117806543Y-80852826D01*
X117805894Y-80852732D01*
X117748638Y-80844500D01*
X115351362Y-80844500D01*
X115351361Y-80844500D01*
X115329381Y-80845678D01*
X115303034Y-80848511D01*
X115303032Y-80848512D01*
X115226521Y-80872470D01*
X115226516Y-80872471D01*
X115165188Y-80905960D01*
X115118384Y-80940998D01*
X115118363Y-80941016D01*
X114341013Y-81718365D01*
X114341012Y-81718366D01*
X114326325Y-81734716D01*
X114326313Y-81734730D01*
X114309672Y-81755379D01*
X114272509Y-81826424D01*
X114252826Y-81893456D01*
X114244500Y-81951365D01*
X114244500Y-84861269D01*
X114224815Y-84928308D01*
X114172011Y-84974063D01*
X114102853Y-84984007D01*
X114039297Y-84954982D01*
X114007066Y-84911356D01*
X113980707Y-84851659D01*
X113970806Y-84829235D01*
X113891365Y-84749794D01*
X113881144Y-84745281D01*
X113788592Y-84704415D01*
X113763468Y-84701500D01*
X113763465Y-84701500D01*
X113474700Y-84701500D01*
X113407661Y-84681815D01*
X113361906Y-84629011D01*
X113350700Y-84577500D01*
X113350700Y-84200391D01*
X113370385Y-84133352D01*
X113418404Y-84089907D01*
X113478420Y-84059328D01*
X113573728Y-83964020D01*
X113634919Y-83843926D01*
X113637710Y-83826307D01*
X113650700Y-83744293D01*
X113650700Y-83177306D01*
X113634920Y-83077678D01*
X113634919Y-83077676D01*
X113634919Y-83077674D01*
X113573728Y-82957580D01*
X113573726Y-82957578D01*
X113573723Y-82957574D01*
X113487019Y-82870870D01*
X113453534Y-82809547D01*
X113450700Y-82783189D01*
X113450700Y-81990693D01*
X113450700Y-81990691D01*
X113419999Y-81876114D01*
X113412248Y-81862689D01*
X113394931Y-81832694D01*
X113360693Y-81773392D01*
X113360687Y-81773384D01*
X113026816Y-81439513D01*
X113026814Y-81439511D01*
X112970729Y-81407130D01*
X112924088Y-81380201D01*
X112911980Y-81376957D01*
X112899873Y-81373713D01*
X112899870Y-81373712D01*
X112861678Y-81363478D01*
X112809509Y-81349500D01*
X112809508Y-81349500D01*
X111936057Y-81349500D01*
X111869018Y-81329815D01*
X111835793Y-81293093D01*
X111833786Y-81294552D01*
X111828050Y-81286657D01*
X111738347Y-81196954D01*
X111738344Y-81196952D01*
X111738342Y-81196950D01*
X111661517Y-81157805D01*
X111625301Y-81139352D01*
X111531524Y-81124500D01*
X111166253Y-81124500D01*
X111099214Y-81104815D01*
X111053459Y-81052011D01*
X111043515Y-80982853D01*
X111072540Y-80919297D01*
X111078552Y-80912839D01*
X112129574Y-79861819D01*
X112190897Y-79828334D01*
X112217255Y-79825500D01*
X118982745Y-79825500D01*
X119049784Y-79845185D01*
X119070426Y-79861819D01*
X119838209Y-80629602D01*
X119871694Y-80690925D01*
X119866710Y-80760617D01*
X119824838Y-80816550D01*
X119799003Y-80831415D01*
X119796525Y-80832467D01*
X119735188Y-80865960D01*
X119688384Y-80900998D01*
X119688363Y-80901016D01*
X119351013Y-81238365D01*
X119351012Y-81238366D01*
X119336325Y-81254716D01*
X119336313Y-81254730D01*
X119319672Y-81275379D01*
X119282509Y-81346424D01*
X119262826Y-81413456D01*
X119262825Y-81413464D01*
X119254684Y-81470087D01*
X119254500Y-81471365D01*
X119254500Y-87048638D01*
X119255678Y-87070618D01*
X119258511Y-87096965D01*
X119258512Y-87096967D01*
X119282470Y-87173478D01*
X119282471Y-87173483D01*
X119295234Y-87196856D01*
X119315956Y-87234805D01*
X119315958Y-87234808D01*
X119315960Y-87234811D01*
X119350998Y-87281615D01*
X119351002Y-87281619D01*
X119351009Y-87281629D01*
X119351016Y-87281636D01*
X120298365Y-88228986D01*
X120298366Y-88228987D01*
X120314716Y-88243674D01*
X120314730Y-88243686D01*
X120314738Y-88243693D01*
X120323136Y-88250460D01*
X120335379Y-88260327D01*
X120406424Y-88297490D01*
X120473456Y-88317173D01*
X120473458Y-88317173D01*
X120473464Y-88317175D01*
X120531362Y-88325500D01*
X120531366Y-88325500D01*
X126978639Y-88325500D01*
X126981180Y-88325363D01*
X127000607Y-88324322D01*
X127000614Y-88324321D01*
X127000618Y-88324321D01*
X127026965Y-88321488D01*
X127103482Y-88297529D01*
X127164805Y-88264044D01*
X127211629Y-88228991D01*
X127538991Y-87901629D01*
X127553693Y-87885262D01*
X127570327Y-87864620D01*
X127607490Y-87793575D01*
X127627175Y-87726536D01*
X127635500Y-87668638D01*
X127635500Y-84171362D01*
X127634322Y-84149393D01*
X127631488Y-84123035D01*
X127607529Y-84046518D01*
X127574044Y-83985195D01*
X127574039Y-83985188D01*
X127539001Y-83938384D01*
X127538998Y-83938381D01*
X127538991Y-83938371D01*
X127441629Y-83841009D01*
X127441628Y-83841008D01*
X127441624Y-83841004D01*
X127425283Y-83826325D01*
X127425269Y-83826313D01*
X127404620Y-83809672D01*
X127333573Y-83772508D01*
X127327057Y-83770595D01*
X127268281Y-83732816D01*
X127239261Y-83669258D01*
X127238000Y-83651620D01*
X127238000Y-83209044D01*
X127257685Y-83142005D01*
X127274319Y-83121363D01*
X128381363Y-82014319D01*
X128442686Y-81980834D01*
X128469044Y-81978000D01*
X128968261Y-81978000D01*
X128990971Y-81974691D01*
X129036393Y-81968073D01*
X129141483Y-81916698D01*
X129224198Y-81833983D01*
X129275573Y-81728893D01*
X129285500Y-81660760D01*
X129285500Y-81294240D01*
X129284394Y-81286652D01*
X129275573Y-81226108D01*
X129261321Y-81196954D01*
X129224198Y-81121017D01*
X129224196Y-81121015D01*
X129224196Y-81121014D01*
X129141485Y-81038303D01*
X129036391Y-80986926D01*
X128968261Y-80977000D01*
X128968260Y-80977000D01*
X127876740Y-80977000D01*
X127876739Y-80977000D01*
X127808608Y-80986926D01*
X127703514Y-81038303D01*
X127620803Y-81121014D01*
X127569426Y-81226108D01*
X127559500Y-81294239D01*
X127559500Y-81660760D01*
X127569426Y-81728892D01*
X127572270Y-81738095D01*
X127568563Y-81739240D01*
X127577083Y-81789614D01*
X127549639Y-81853868D01*
X127541627Y-81862689D01*
X126607032Y-82797285D01*
X126607028Y-82797291D01*
X126579995Y-82844114D01*
X126560887Y-82877209D01*
X126560886Y-82877212D01*
X126537000Y-82966356D01*
X126537000Y-83620500D01*
X126517315Y-83687539D01*
X126464511Y-83733294D01*
X126413000Y-83744500D01*
X122606482Y-83744500D01*
X122539443Y-83724815D01*
X122518801Y-83708181D01*
X121981819Y-83171199D01*
X121948334Y-83109876D01*
X121945500Y-83083518D01*
X121945500Y-81731361D01*
X121944321Y-81709381D01*
X121941488Y-81683034D01*
X121941487Y-81683032D01*
X121930089Y-81646632D01*
X121917529Y-81606518D01*
X121884044Y-81545195D01*
X121879771Y-81539487D01*
X121849001Y-81498384D01*
X121848998Y-81498381D01*
X121848991Y-81498371D01*
X121576727Y-81226107D01*
X121251634Y-80901013D01*
X121251633Y-80901012D01*
X121235283Y-80886325D01*
X121235269Y-80886313D01*
X121214620Y-80869672D01*
X121143575Y-80832509D01*
X121076543Y-80812826D01*
X121075894Y-80812732D01*
X121018638Y-80804500D01*
X121018634Y-80804500D01*
X120997001Y-80804500D01*
X120929962Y-80784815D01*
X120884207Y-80732011D01*
X120873001Y-80680500D01*
X120873001Y-80644775D01*
X120873001Y-80644773D01*
X120845707Y-80542912D01*
X120819343Y-80497250D01*
X120792980Y-80451587D01*
X120718413Y-80377020D01*
X120718412Y-80377019D01*
X120714082Y-80372689D01*
X120714071Y-80372679D01*
X119890388Y-79548995D01*
X126009499Y-79548995D01*
X126036418Y-79684322D01*
X126036421Y-79684332D01*
X126089221Y-79811804D01*
X126089228Y-79811817D01*
X126165885Y-79926541D01*
X126165888Y-79926545D01*
X126263454Y-80024111D01*
X126263458Y-80024114D01*
X126378182Y-80100771D01*
X126378195Y-80100778D01*
X126505667Y-80153578D01*
X126505672Y-80153580D01*
X126505676Y-80153580D01*
X126505677Y-80153581D01*
X126641004Y-80180500D01*
X126641007Y-80180500D01*
X128026471Y-80180500D01*
X128084216Y-80197456D01*
X128085314Y-80195402D01*
X128090695Y-80198278D01*
X128218167Y-80251078D01*
X128218172Y-80251080D01*
X128218176Y-80251080D01*
X128218177Y-80251081D01*
X128353503Y-80278000D01*
X128353506Y-80278000D01*
X128491496Y-80278000D01*
X128582542Y-80259889D01*
X128626829Y-80251080D01*
X128754311Y-80198275D01*
X128869043Y-80121614D01*
X128869046Y-80121611D01*
X128876339Y-80114319D01*
X128937662Y-80080834D01*
X128964020Y-80078000D01*
X128968261Y-80078000D01*
X128990971Y-80074691D01*
X129036393Y-80068073D01*
X129141483Y-80016698D01*
X129224198Y-79933983D01*
X129275573Y-79828893D01*
X129285500Y-79760760D01*
X129285500Y-79394240D01*
X129285500Y-79394239D01*
X129834500Y-79394239D01*
X129834500Y-79760760D01*
X129844426Y-79828891D01*
X129895803Y-79933985D01*
X129978514Y-80016696D01*
X129978515Y-80016696D01*
X129978517Y-80016698D01*
X130083607Y-80068073D01*
X130117673Y-80073036D01*
X130151739Y-80078000D01*
X130151740Y-80078000D01*
X131243261Y-80078000D01*
X131265971Y-80074691D01*
X131311393Y-80068073D01*
X131416483Y-80016698D01*
X131499198Y-79933983D01*
X131550573Y-79828893D01*
X131560500Y-79760760D01*
X131560500Y-79394240D01*
X131550573Y-79326107D01*
X131499198Y-79221017D01*
X131499196Y-79221015D01*
X131499196Y-79221014D01*
X131416485Y-79138303D01*
X131311391Y-79086926D01*
X131276621Y-79081860D01*
X131213120Y-79052715D01*
X131175457Y-78993866D01*
X131170500Y-78959156D01*
X131170500Y-78661419D01*
X131190185Y-78594380D01*
X131196124Y-78585933D01*
X131212092Y-78565121D01*
X131244536Y-78522841D01*
X131305044Y-78376762D01*
X131325682Y-78220000D01*
X131305044Y-78063238D01*
X131244536Y-77917159D01*
X131148282Y-77791718D01*
X131022841Y-77695464D01*
X130993327Y-77683239D01*
X130876762Y-77634956D01*
X130876760Y-77634955D01*
X130720001Y-77614318D01*
X130719999Y-77614318D01*
X130563239Y-77634955D01*
X130563237Y-77634956D01*
X130417160Y-77695463D01*
X130291718Y-77791718D01*
X130195463Y-77917160D01*
X130134956Y-78063237D01*
X130134955Y-78063239D01*
X130114318Y-78219998D01*
X130114318Y-78220001D01*
X130134955Y-78376760D01*
X130134957Y-78376765D01*
X130195461Y-78522836D01*
X130195464Y-78522841D01*
X130243876Y-78585933D01*
X130269070Y-78651102D01*
X130269500Y-78661419D01*
X130269500Y-78953127D01*
X130249815Y-79020166D01*
X130197011Y-79065921D01*
X130154469Y-79076802D01*
X130151739Y-79076999D01*
X130083608Y-79086926D01*
X129978514Y-79138303D01*
X129895803Y-79221014D01*
X129844426Y-79326108D01*
X129834500Y-79394239D01*
X129285500Y-79394239D01*
X129275573Y-79326107D01*
X129224198Y-79221017D01*
X129224196Y-79221015D01*
X129224196Y-79221014D01*
X129141485Y-79138303D01*
X129036391Y-79086926D01*
X128968261Y-79077000D01*
X128968260Y-79077000D01*
X128964019Y-79077000D01*
X128896980Y-79057315D01*
X128876342Y-79040685D01*
X128771543Y-78935886D01*
X128694530Y-78884428D01*
X128656807Y-78859222D01*
X128529332Y-78806421D01*
X128529322Y-78806418D01*
X128393996Y-78779500D01*
X128393994Y-78779500D01*
X128393993Y-78779500D01*
X126641007Y-78779500D01*
X126641005Y-78779500D01*
X126505677Y-78806418D01*
X126505667Y-78806421D01*
X126378195Y-78859221D01*
X126378182Y-78859228D01*
X126263458Y-78935885D01*
X126263454Y-78935888D01*
X126165888Y-79033454D01*
X126165885Y-79033458D01*
X126089228Y-79148182D01*
X126089221Y-79148195D01*
X126036421Y-79275667D01*
X126036418Y-79275677D01*
X126009500Y-79411004D01*
X126009500Y-79411007D01*
X126009500Y-79548993D01*
X126009500Y-79548995D01*
X126009499Y-79548995D01*
X119890388Y-79548995D01*
X119445915Y-79104522D01*
X119445914Y-79104521D01*
X119445913Y-79104520D01*
X119398246Y-79076999D01*
X119354589Y-79051793D01*
X119286144Y-79033454D01*
X119252727Y-79024500D01*
X112052727Y-79024500D01*
X111947273Y-79024500D01*
X111845410Y-79051793D01*
X111754087Y-79104520D01*
X111754084Y-79104522D01*
X109770424Y-81088181D01*
X109709101Y-81121666D01*
X109682743Y-81124500D01*
X109418482Y-81124500D01*
X109337519Y-81137323D01*
X109324696Y-81139354D01*
X109211658Y-81196950D01*
X109211657Y-81196951D01*
X109211652Y-81196954D01*
X109121954Y-81286652D01*
X109121951Y-81286657D01*
X109121950Y-81286658D01*
X109114458Y-81301362D01*
X109064352Y-81399698D01*
X109049500Y-81493475D01*
X109049500Y-81493480D01*
X109049500Y-81493481D01*
X109049501Y-82106518D01*
X109064354Y-82200304D01*
X109121950Y-82313342D01*
X109121952Y-82313344D01*
X109121954Y-82313347D01*
X109211652Y-82403045D01*
X109211654Y-82403046D01*
X109211658Y-82403050D01*
X109324694Y-82460645D01*
X109324698Y-82460647D01*
X109418475Y-82475499D01*
X109418481Y-82475500D01*
X109881518Y-82475499D01*
X109975304Y-82460646D01*
X110088342Y-82403050D01*
X110178050Y-82313342D01*
X110235646Y-82200304D01*
X110235646Y-82200302D01*
X110235647Y-82200301D01*
X110250499Y-82106524D01*
X110250500Y-82106519D01*
X110250499Y-81792253D01*
X110270183Y-81725215D01*
X110286813Y-81704578D01*
X110487821Y-81503570D01*
X110549142Y-81470087D01*
X110618834Y-81475071D01*
X110674767Y-81516943D01*
X110699184Y-81582407D01*
X110699500Y-81591253D01*
X110699501Y-81853454D01*
X110699501Y-82106518D01*
X110714354Y-82200304D01*
X110771950Y-82313342D01*
X110771952Y-82313344D01*
X110771954Y-82313347D01*
X110861652Y-82403045D01*
X110861654Y-82403046D01*
X110861658Y-82403050D01*
X110974694Y-82460645D01*
X110974698Y-82460647D01*
X111068475Y-82475499D01*
X111068481Y-82475500D01*
X111531518Y-82475499D01*
X111625304Y-82460646D01*
X111738342Y-82403050D01*
X111766892Y-82374500D01*
X111828050Y-82313343D01*
X111833786Y-82305448D01*
X111836059Y-82307100D01*
X111873546Y-82267409D01*
X111936057Y-82250500D01*
X112425700Y-82250500D01*
X112492739Y-82270185D01*
X112538494Y-82322989D01*
X112549700Y-82374500D01*
X112549700Y-82783189D01*
X112530015Y-82850228D01*
X112513381Y-82870870D01*
X112426676Y-82957574D01*
X112426673Y-82957578D01*
X112365479Y-83077678D01*
X112349700Y-83177306D01*
X112349700Y-83564255D01*
X112330015Y-83631294D01*
X112313381Y-83651936D01*
X111819983Y-84145334D01*
X111758660Y-84178819D01*
X111688968Y-84173835D01*
X111678239Y-84168464D01*
X111678118Y-84168730D01*
X111670050Y-84165045D01*
X111531963Y-84124500D01*
X111531961Y-84124500D01*
X111388039Y-84124500D01*
X111388036Y-84124500D01*
X111249949Y-84165045D01*
X111128873Y-84242856D01*
X111034623Y-84351626D01*
X111034622Y-84351628D01*
X110974834Y-84482543D01*
X110954353Y-84625000D01*
X110974834Y-84767456D01*
X111013289Y-84851659D01*
X111034623Y-84898373D01*
X111128872Y-85007143D01*
X111249947Y-85084953D01*
X111249950Y-85084954D01*
X111249949Y-85084954D01*
X111388036Y-85125499D01*
X111388038Y-85125500D01*
X111388039Y-85125500D01*
X111531962Y-85125500D01*
X111531962Y-85125499D01*
X111639121Y-85094035D01*
X111670050Y-85084954D01*
X111670050Y-85084953D01*
X111670053Y-85084953D01*
X111791128Y-85007143D01*
X111791136Y-85007133D01*
X111792688Y-85005790D01*
X111794572Y-85004929D01*
X111798589Y-85002348D01*
X111798960Y-85002925D01*
X111856243Y-84976763D01*
X111873895Y-84975500D01*
X111882142Y-84975500D01*
X111882144Y-84975500D01*
X111971288Y-84951614D01*
X111971299Y-84951607D01*
X111971635Y-84951469D01*
X111971957Y-84951434D01*
X111979139Y-84949510D01*
X111979438Y-84950629D01*
X112041104Y-84943993D01*
X112103586Y-84975261D01*
X112139245Y-85035346D01*
X112143100Y-85066024D01*
X112143100Y-85246856D01*
X112143102Y-85246882D01*
X112146013Y-85271987D01*
X112146015Y-85271991D01*
X112191393Y-85374764D01*
X112191394Y-85374765D01*
X112270835Y-85454206D01*
X112373609Y-85499585D01*
X112398735Y-85502500D01*
X113763464Y-85502499D01*
X113763479Y-85502497D01*
X113763482Y-85502497D01*
X113788587Y-85499586D01*
X113788588Y-85499585D01*
X113788591Y-85499585D01*
X113891365Y-85454206D01*
X113970806Y-85374765D01*
X114007066Y-85292644D01*
X114052151Y-85239268D01*
X114118938Y-85218740D01*
X114186220Y-85237578D01*
X114232636Y-85289801D01*
X114244500Y-85342730D01*
X114244500Y-85570500D01*
X114224815Y-85637539D01*
X114172011Y-85683294D01*
X114120500Y-85694500D01*
X114106524Y-85694500D01*
X114105403Y-85694503D01*
X114103822Y-85694513D01*
X114103820Y-85694513D01*
X114044755Y-85703579D01*
X114044754Y-85703579D01*
X113977971Y-85724106D01*
X113977966Y-85724107D01*
X113977959Y-85724110D01*
X113954437Y-85732947D01*
X113881353Y-85787931D01*
X113881353Y-85787932D01*
X113836269Y-85841306D01*
X113806637Y-85888719D01*
X113754414Y-85935135D01*
X113701485Y-85946999D01*
X112364924Y-85946999D01*
X112356585Y-85948271D01*
X112356282Y-85948297D01*
X112290477Y-85958676D01*
X112268626Y-85963352D01*
X112187916Y-86006361D01*
X112187913Y-86006363D01*
X112135104Y-86052122D01*
X112117160Y-86069704D01*
X112117154Y-86069711D01*
X112072511Y-86149521D01*
X112072509Y-86149526D01*
X112052826Y-86216558D01*
X112052825Y-86216563D01*
X112052825Y-86216564D01*
X112046991Y-86257143D01*
X112044500Y-86274465D01*
X112044500Y-86370500D01*
X112024815Y-86437539D01*
X111972011Y-86483294D01*
X111920500Y-86494500D01*
X111851361Y-86494500D01*
X111829381Y-86495678D01*
X111803034Y-86498511D01*
X111803032Y-86498512D01*
X111726521Y-86522470D01*
X111726516Y-86522471D01*
X111665188Y-86555960D01*
X111618384Y-86590998D01*
X111618363Y-86591016D01*
X110841013Y-87368365D01*
X110841012Y-87368366D01*
X110826325Y-87384716D01*
X110826313Y-87384730D01*
X110809672Y-87405379D01*
X110772509Y-87476424D01*
X110752826Y-87543456D01*
X110752825Y-87543464D01*
X110746396Y-87588181D01*
X110744500Y-87601365D01*
X110744500Y-90143996D01*
X110724815Y-90211035D01*
X110672011Y-90256790D01*
X110602853Y-90266734D01*
X110551609Y-90247098D01*
X110480609Y-90199657D01*
X110435804Y-90146045D01*
X110425500Y-90096555D01*
X110425500Y-90070335D01*
X110436705Y-90018825D01*
X110460165Y-89967457D01*
X110480647Y-89825000D01*
X110460165Y-89682543D01*
X110400377Y-89551627D01*
X110306128Y-89442857D01*
X110185053Y-89365047D01*
X110185051Y-89365046D01*
X110185049Y-89365045D01*
X110185050Y-89365045D01*
X110046963Y-89324500D01*
X110046961Y-89324500D01*
X109903039Y-89324500D01*
X109903036Y-89324500D01*
X109764949Y-89365045D01*
X109643873Y-89442856D01*
X109549623Y-89551626D01*
X109549622Y-89551628D01*
X109489834Y-89682543D01*
X109469353Y-89825000D01*
X109489834Y-89967453D01*
X109489834Y-89967454D01*
X109489834Y-89967455D01*
X109489835Y-89967457D01*
X109513294Y-90018825D01*
X109524500Y-90070335D01*
X109524500Y-90116600D01*
X109504815Y-90183639D01*
X109469391Y-90219702D01*
X109384092Y-90276697D01*
X109384088Y-90276700D01*
X109251700Y-90409088D01*
X109251697Y-90409092D01*
X109147681Y-90564762D01*
X109147676Y-90564771D01*
X109076026Y-90737750D01*
X109072932Y-90753306D01*
X109040545Y-90815216D01*
X109038996Y-90816792D01*
X108277609Y-91578181D01*
X108216286Y-91611666D01*
X108189928Y-91614500D01*
X107081379Y-91614500D01*
X106897756Y-91651025D01*
X106897748Y-91651027D01*
X106724771Y-91722676D01*
X106724762Y-91722681D01*
X106569092Y-91826697D01*
X106569088Y-91826700D01*
X106436700Y-91959088D01*
X106436697Y-91959092D01*
X106369680Y-92059391D01*
X106316068Y-92104196D01*
X106266578Y-92114500D01*
X105502965Y-92114500D01*
X105435926Y-92094815D01*
X105415284Y-92078181D01*
X104309428Y-90972325D01*
X104275943Y-90911002D01*
X104280927Y-90841310D01*
X104309428Y-90796963D01*
X104323050Y-90783342D01*
X104380646Y-90670304D01*
X104380646Y-90670302D01*
X104380647Y-90670301D01*
X104395499Y-90576524D01*
X104395500Y-90576519D01*
X104395499Y-90113482D01*
X104380646Y-90019696D01*
X104323050Y-89906658D01*
X104323046Y-89906654D01*
X104323045Y-89906652D01*
X104233347Y-89816954D01*
X104233344Y-89816952D01*
X104233342Y-89816950D01*
X104156517Y-89777805D01*
X104120301Y-89759352D01*
X104026524Y-89744500D01*
X103413482Y-89744500D01*
X103332519Y-89757323D01*
X103319696Y-89759354D01*
X103206658Y-89816950D01*
X103206657Y-89816951D01*
X103206652Y-89816954D01*
X103116954Y-89906652D01*
X103116951Y-89906657D01*
X103059352Y-90019698D01*
X103044500Y-90113475D01*
X103044500Y-90576517D01*
X103055292Y-90644657D01*
X103059354Y-90670304D01*
X103116950Y-90783342D01*
X103206658Y-90873050D01*
X103206660Y-90873051D01*
X103206663Y-90873054D01*
X103214557Y-90878790D01*
X103212903Y-90881066D01*
X103252584Y-90918535D01*
X103269500Y-90981057D01*
X103269500Y-91079308D01*
X103293712Y-91169672D01*
X103300200Y-91193885D01*
X103300200Y-91193886D01*
X103300201Y-91193887D01*
X103359511Y-91296614D01*
X104988386Y-92925489D01*
X105091113Y-92984799D01*
X105115321Y-92991284D01*
X105115324Y-92991286D01*
X105115325Y-92991286D01*
X105145447Y-92999357D01*
X105205691Y-93015500D01*
X106100500Y-93015500D01*
X106167539Y-93035185D01*
X106213294Y-93087989D01*
X106224500Y-93139500D01*
X106224500Y-93753620D01*
X106261025Y-93937243D01*
X106261027Y-93937251D01*
X106286812Y-93999501D01*
X106332677Y-94110230D01*
X106332678Y-94110233D01*
X106436697Y-94265907D01*
X106436700Y-94265911D01*
X107823609Y-95652819D01*
X107857094Y-95714142D01*
X107852110Y-95783834D01*
X107810238Y-95839767D01*
X107744774Y-95864184D01*
X107735928Y-95864500D01*
X94621361Y-95864500D01*
X94599381Y-95865678D01*
X94573034Y-95868511D01*
X94573032Y-95868512D01*
X94496521Y-95892470D01*
X94496516Y-95892471D01*
X94435188Y-95925960D01*
X94388384Y-95960998D01*
X94388363Y-95961016D01*
X91931013Y-98418365D01*
X91931012Y-98418366D01*
X91916325Y-98434716D01*
X91916313Y-98434730D01*
X91899672Y-98455379D01*
X91862509Y-98526424D01*
X91842826Y-98593456D01*
X91834500Y-98651365D01*
X83610500Y-98651365D01*
X83610500Y-86900000D01*
X100044353Y-86900000D01*
X100064834Y-87042456D01*
X100089728Y-87096965D01*
X100124623Y-87173373D01*
X100218872Y-87282143D01*
X100339947Y-87359953D01*
X100339950Y-87359954D01*
X100339949Y-87359954D01*
X100478036Y-87400499D01*
X100478038Y-87400500D01*
X100478039Y-87400500D01*
X100621962Y-87400500D01*
X100621962Y-87400499D01*
X100698202Y-87378114D01*
X100758114Y-87360523D01*
X100793048Y-87355500D01*
X101068943Y-87355500D01*
X101135982Y-87375185D01*
X101169206Y-87411906D01*
X101171214Y-87410448D01*
X101176950Y-87418343D01*
X101266652Y-87508045D01*
X101266654Y-87508046D01*
X101266658Y-87508050D01*
X101377877Y-87564719D01*
X101379698Y-87565647D01*
X101473475Y-87580499D01*
X101473481Y-87580500D01*
X101936518Y-87580499D01*
X102030304Y-87565646D01*
X102143342Y-87508050D01*
X102233050Y-87418342D01*
X102290646Y-87305304D01*
X102290646Y-87305302D01*
X102290647Y-87305301D01*
X102305499Y-87211524D01*
X102305500Y-87211519D01*
X102305499Y-86598482D01*
X102290646Y-86504696D01*
X102233050Y-86391658D01*
X102233046Y-86391654D01*
X102233045Y-86391652D01*
X102143347Y-86301954D01*
X102143343Y-86301951D01*
X102143342Y-86301950D01*
X102140715Y-86300611D01*
X102030021Y-86244209D01*
X101979226Y-86196235D01*
X101962431Y-86128413D01*
X101984969Y-86062279D01*
X102030018Y-86023243D01*
X102138342Y-85968050D01*
X102228050Y-85878342D01*
X102285646Y-85765304D01*
X102285646Y-85765302D01*
X102285647Y-85765301D01*
X102300499Y-85671524D01*
X102300500Y-85671519D01*
X102300499Y-85058482D01*
X102300498Y-85058475D01*
X102749500Y-85058475D01*
X102749500Y-85671517D01*
X102757829Y-85724106D01*
X102764354Y-85765304D01*
X102821950Y-85878342D01*
X102821952Y-85878344D01*
X102821954Y-85878347D01*
X102911652Y-85968045D01*
X102911654Y-85968046D01*
X102911658Y-85968050D01*
X103003251Y-86014719D01*
X103024977Y-86025789D01*
X103075773Y-86073764D01*
X103092568Y-86141585D01*
X103070030Y-86207720D01*
X103024978Y-86246757D01*
X102916658Y-86301950D01*
X102916657Y-86301951D01*
X102916652Y-86301954D01*
X102826954Y-86391652D01*
X102826951Y-86391657D01*
X102826950Y-86391658D01*
X102822928Y-86399552D01*
X102769352Y-86504698D01*
X102754500Y-86598475D01*
X102754500Y-87211517D01*
X102764033Y-87271708D01*
X102769354Y-87305304D01*
X102826950Y-87418342D01*
X102826952Y-87418344D01*
X102826954Y-87418347D01*
X102916652Y-87508045D01*
X102916654Y-87508046D01*
X102916658Y-87508050D01*
X103027877Y-87564719D01*
X103029698Y-87565647D01*
X103123475Y-87580499D01*
X103123481Y-87580500D01*
X103586518Y-87580499D01*
X103680304Y-87565646D01*
X103793342Y-87508050D01*
X103824968Y-87476424D01*
X103883050Y-87418343D01*
X103888786Y-87410448D01*
X103891059Y-87412100D01*
X103928546Y-87372409D01*
X103991057Y-87355500D01*
X104109988Y-87355500D01*
X104177027Y-87375185D01*
X104210311Y-87406621D01*
X104211476Y-87408225D01*
X104306774Y-87503523D01*
X104306778Y-87503526D01*
X104306780Y-87503528D01*
X104426874Y-87564719D01*
X104426876Y-87564719D01*
X104426878Y-87564720D01*
X104526507Y-87580500D01*
X104526512Y-87580500D01*
X105093493Y-87580500D01*
X105193121Y-87564720D01*
X105193121Y-87564719D01*
X105193126Y-87564719D01*
X105313220Y-87503528D01*
X105408528Y-87408220D01*
X105469719Y-87288126D01*
X105470750Y-87281615D01*
X105485500Y-87188493D01*
X105485500Y-86951500D01*
X105505185Y-86884461D01*
X105557989Y-86838706D01*
X105609500Y-86827500D01*
X106294100Y-86827500D01*
X106361139Y-86847185D01*
X106406894Y-86899989D01*
X106418100Y-86951500D01*
X106418100Y-87196856D01*
X106418102Y-87196882D01*
X106421013Y-87221987D01*
X106421014Y-87221991D01*
X106442967Y-87271708D01*
X106452039Y-87340986D01*
X106444202Y-87363176D01*
X106440201Y-87378112D01*
X106440201Y-87378113D01*
X106409500Y-87492691D01*
X106409500Y-87939987D01*
X106389815Y-88007026D01*
X106358386Y-88040305D01*
X106356776Y-88041474D01*
X106261476Y-88136774D01*
X106261469Y-88136783D01*
X106246178Y-88166795D01*
X106198204Y-88217591D01*
X106135694Y-88234500D01*
X105912254Y-88234500D01*
X105845215Y-88214815D01*
X105824572Y-88198180D01*
X105783346Y-88156953D01*
X105783344Y-88156952D01*
X105783342Y-88156950D01*
X105689930Y-88109354D01*
X105670301Y-88099352D01*
X105576524Y-88084500D01*
X104963482Y-88084500D01*
X104882519Y-88097323D01*
X104869696Y-88099354D01*
X104756658Y-88156950D01*
X104756657Y-88156951D01*
X104756653Y-88156954D01*
X104705428Y-88208180D01*
X104644105Y-88241666D01*
X104617746Y-88244500D01*
X104362254Y-88244500D01*
X104295215Y-88224815D01*
X104274572Y-88208180D01*
X104233346Y-88166953D01*
X104233344Y-88166952D01*
X104233342Y-88166950D01*
X104150030Y-88124500D01*
X104120301Y-88109352D01*
X104026524Y-88094500D01*
X103413482Y-88094500D01*
X103332519Y-88107323D01*
X103319696Y-88109354D01*
X103206658Y-88166950D01*
X103206657Y-88166951D01*
X103206652Y-88166954D01*
X103116954Y-88256652D01*
X103116951Y-88256657D01*
X103116950Y-88256658D01*
X103113187Y-88264044D01*
X103059352Y-88369698D01*
X103044500Y-88463475D01*
X103044500Y-88926517D01*
X103051882Y-88973126D01*
X103059354Y-89020304D01*
X103116950Y-89133342D01*
X103116952Y-89133344D01*
X103116954Y-89133347D01*
X103206652Y-89223045D01*
X103206654Y-89223046D01*
X103206658Y-89223050D01*
X103300072Y-89270647D01*
X103319698Y-89280647D01*
X103413475Y-89295499D01*
X103413481Y-89295500D01*
X104026518Y-89295499D01*
X104120304Y-89280646D01*
X104233342Y-89223050D01*
X104274572Y-89181820D01*
X104335895Y-89148334D01*
X104362254Y-89145500D01*
X104637746Y-89145500D01*
X104704785Y-89165185D01*
X104725428Y-89181820D01*
X104756653Y-89213046D01*
X104756655Y-89213047D01*
X104756658Y-89213050D01*
X104869694Y-89270645D01*
X104869698Y-89270647D01*
X104963475Y-89285499D01*
X104963481Y-89285500D01*
X105576518Y-89285499D01*
X105670304Y-89270646D01*
X105783342Y-89213050D01*
X105824572Y-89171820D01*
X105885895Y-89138334D01*
X105912254Y-89135500D01*
X106252389Y-89135500D01*
X106319428Y-89155185D01*
X106340070Y-89171819D01*
X106356774Y-89188523D01*
X106356778Y-89188526D01*
X106356780Y-89188528D01*
X106476874Y-89249719D01*
X106476876Y-89249719D01*
X106476878Y-89249720D01*
X106576507Y-89265500D01*
X106576512Y-89265500D01*
X107143493Y-89265500D01*
X107243121Y-89249720D01*
X107243121Y-89249719D01*
X107243126Y-89249719D01*
X107363220Y-89188528D01*
X107458528Y-89093220D01*
X107519719Y-88973126D01*
X107527101Y-88926518D01*
X107535500Y-88873493D01*
X107535500Y-88356506D01*
X107519720Y-88256878D01*
X107519719Y-88256876D01*
X107519719Y-88256874D01*
X107458528Y-88136780D01*
X107458526Y-88136778D01*
X107458523Y-88136774D01*
X107363223Y-88041474D01*
X107361614Y-88040305D01*
X107360131Y-88038382D01*
X107356320Y-88034571D01*
X107356812Y-88034078D01*
X107318948Y-87984974D01*
X107310500Y-87939987D01*
X107310500Y-87789964D01*
X107330185Y-87722925D01*
X107346815Y-87702287D01*
X107560284Y-87488817D01*
X107621607Y-87455333D01*
X107647965Y-87452499D01*
X108038456Y-87452499D01*
X108038464Y-87452499D01*
X108038479Y-87452497D01*
X108038482Y-87452497D01*
X108063587Y-87449586D01*
X108063588Y-87449585D01*
X108063591Y-87449585D01*
X108166365Y-87404206D01*
X108245806Y-87324765D01*
X108291185Y-87221991D01*
X108294100Y-87196865D01*
X108294099Y-86907136D01*
X108294028Y-86906521D01*
X108291186Y-86882012D01*
X108291185Y-86882008D01*
X108244857Y-86777086D01*
X108235785Y-86707808D01*
X108244857Y-86676913D01*
X108245804Y-86674766D01*
X108245806Y-86674765D01*
X108291185Y-86571991D01*
X108294100Y-86546865D01*
X108294099Y-86257136D01*
X108292471Y-86243094D01*
X108291186Y-86232012D01*
X108291185Y-86232008D01*
X108244857Y-86127086D01*
X108235785Y-86057808D01*
X108244857Y-86026913D01*
X108245804Y-86024766D01*
X108245806Y-86024765D01*
X108291185Y-85921991D01*
X108294100Y-85896865D01*
X108294099Y-85607136D01*
X108294097Y-85607117D01*
X108291186Y-85582012D01*
X108291185Y-85582008D01*
X108244857Y-85477086D01*
X108235785Y-85407808D01*
X108244857Y-85376913D01*
X108245804Y-85374766D01*
X108245806Y-85374765D01*
X108291185Y-85271991D01*
X108294100Y-85246865D01*
X108294099Y-84957136D01*
X108293849Y-84954982D01*
X108291186Y-84932012D01*
X108291185Y-84932010D01*
X108291185Y-84932009D01*
X108245806Y-84829235D01*
X108176633Y-84760062D01*
X108143148Y-84698739D01*
X108148132Y-84629047D01*
X108151514Y-84620881D01*
X108210165Y-84492457D01*
X108230647Y-84350000D01*
X108210165Y-84207543D01*
X108150377Y-84076627D01*
X108056128Y-83967857D01*
X107935053Y-83890047D01*
X107935051Y-83890046D01*
X107935049Y-83890045D01*
X107935050Y-83890045D01*
X107796963Y-83849500D01*
X107796961Y-83849500D01*
X107653039Y-83849500D01*
X107653036Y-83849500D01*
X107514949Y-83890045D01*
X107393873Y-83967856D01*
X107299623Y-84076626D01*
X107299622Y-84076628D01*
X107239834Y-84207543D01*
X107219353Y-84350000D01*
X107239834Y-84492454D01*
X107239834Y-84492455D01*
X107239835Y-84492457D01*
X107248677Y-84511818D01*
X107255149Y-84525989D01*
X107265092Y-84595147D01*
X107236067Y-84658703D01*
X107177288Y-84696477D01*
X107142354Y-84701500D01*
X106673743Y-84701500D01*
X106673717Y-84701502D01*
X106648612Y-84704413D01*
X106648608Y-84704415D01*
X106545835Y-84749793D01*
X106466394Y-84829234D01*
X106421015Y-84932006D01*
X106421015Y-84932008D01*
X106418350Y-84954982D01*
X106418100Y-84957135D01*
X106418100Y-85086628D01*
X106418101Y-85202500D01*
X106398417Y-85269539D01*
X106345613Y-85315294D01*
X106294101Y-85326500D01*
X105609500Y-85326500D01*
X105542461Y-85306815D01*
X105496706Y-85254011D01*
X105485500Y-85202500D01*
X105485500Y-85121506D01*
X105469720Y-85021878D01*
X105469719Y-85021876D01*
X105469719Y-85021874D01*
X105408528Y-84901780D01*
X105408526Y-84901778D01*
X105408523Y-84901774D01*
X105313225Y-84806476D01*
X105313221Y-84806473D01*
X105313220Y-84806472D01*
X105193126Y-84745281D01*
X105193124Y-84745280D01*
X105193121Y-84745279D01*
X105093493Y-84729500D01*
X105093488Y-84729500D01*
X104526512Y-84729500D01*
X104526507Y-84729500D01*
X104426878Y-84745279D01*
X104306778Y-84806473D01*
X104306774Y-84806476D01*
X104211476Y-84901774D01*
X104210311Y-84903379D01*
X104208392Y-84904858D01*
X104204571Y-84908680D01*
X104204077Y-84908186D01*
X104154983Y-84946048D01*
X104109988Y-84954500D01*
X104006438Y-84954500D01*
X103939399Y-84934815D01*
X103895954Y-84886796D01*
X103882072Y-84859552D01*
X103878050Y-84851658D01*
X103878047Y-84851655D01*
X103878045Y-84851652D01*
X103788347Y-84761954D01*
X103788344Y-84761952D01*
X103788342Y-84761950D01*
X103711517Y-84722805D01*
X103675301Y-84704352D01*
X103581524Y-84689500D01*
X103118482Y-84689500D01*
X103042704Y-84701502D01*
X103024696Y-84704354D01*
X102911658Y-84761950D01*
X102911657Y-84761951D01*
X102911652Y-84761954D01*
X102821954Y-84851652D01*
X102821951Y-84851657D01*
X102821950Y-84851658D01*
X102817928Y-84859552D01*
X102764352Y-84964698D01*
X102749500Y-85058475D01*
X102300498Y-85058475D01*
X102285646Y-84964696D01*
X102228050Y-84851658D01*
X102228046Y-84851654D01*
X102228045Y-84851652D01*
X102138347Y-84761954D01*
X102138344Y-84761952D01*
X102138342Y-84761950D01*
X102061517Y-84722805D01*
X102025301Y-84704352D01*
X101931524Y-84689500D01*
X101468482Y-84689500D01*
X101392704Y-84701502D01*
X101374696Y-84704354D01*
X101261658Y-84761950D01*
X101261657Y-84761951D01*
X101261652Y-84761954D01*
X101171950Y-84851657D01*
X101166214Y-84859552D01*
X101163940Y-84857899D01*
X101126454Y-84897591D01*
X101063943Y-84914500D01*
X100918675Y-84914500D01*
X100867161Y-84903293D01*
X100860050Y-84900045D01*
X100721963Y-84859500D01*
X100721961Y-84859500D01*
X100578039Y-84859500D01*
X100578036Y-84859500D01*
X100439949Y-84900045D01*
X100318873Y-84977856D01*
X100318872Y-84977856D01*
X100318872Y-84977857D01*
X100313543Y-84984007D01*
X100224623Y-85086626D01*
X100224622Y-85086628D01*
X100164834Y-85217543D01*
X100144353Y-85360000D01*
X100164834Y-85502456D01*
X100201167Y-85582012D01*
X100224623Y-85633373D01*
X100318872Y-85742143D01*
X100439947Y-85819953D01*
X100439950Y-85819954D01*
X100439949Y-85819954D01*
X100578036Y-85860499D01*
X100578038Y-85860500D01*
X100578039Y-85860500D01*
X100721962Y-85860500D01*
X100721962Y-85860499D01*
X100774114Y-85845186D01*
X100858114Y-85820523D01*
X100893048Y-85815500D01*
X101063943Y-85815500D01*
X101130982Y-85835185D01*
X101164206Y-85871906D01*
X101166214Y-85870448D01*
X101171950Y-85878343D01*
X101261652Y-85968045D01*
X101261654Y-85968046D01*
X101261658Y-85968050D01*
X101353251Y-86014719D01*
X101374977Y-86025789D01*
X101425773Y-86073764D01*
X101442568Y-86141585D01*
X101420030Y-86207720D01*
X101374978Y-86246757D01*
X101266658Y-86301950D01*
X101266657Y-86301951D01*
X101266652Y-86301954D01*
X101176950Y-86391657D01*
X101171214Y-86399552D01*
X101168940Y-86397899D01*
X101131454Y-86437591D01*
X101068943Y-86454500D01*
X100818675Y-86454500D01*
X100767161Y-86443293D01*
X100760050Y-86440045D01*
X100621963Y-86399500D01*
X100621961Y-86399500D01*
X100478039Y-86399500D01*
X100478036Y-86399500D01*
X100339949Y-86440045D01*
X100218873Y-86517856D01*
X100124623Y-86626626D01*
X100124622Y-86626628D01*
X100064834Y-86757543D01*
X100044353Y-86900000D01*
X83610500Y-86900000D01*
X83610500Y-71175000D01*
X119619678Y-71175000D01*
X119638915Y-71358029D01*
X119638916Y-71358032D01*
X119695783Y-71533053D01*
X119695786Y-71533059D01*
X119787805Y-71692440D01*
X119798250Y-71704040D01*
X119910949Y-71829206D01*
X119910951Y-71829208D01*
X120059834Y-71937378D01*
X120059835Y-71937378D01*
X120059839Y-71937381D01*
X120196953Y-71998428D01*
X120227961Y-72012234D01*
X120227966Y-72012236D01*
X120407981Y-72050500D01*
X120592019Y-72050500D01*
X120772034Y-72012236D01*
X120940161Y-71937381D01*
X121089050Y-71829207D01*
X121212195Y-71692440D01*
X121304214Y-71533059D01*
X121361085Y-71358029D01*
X121380322Y-71175000D01*
X121361085Y-70991971D01*
X121304214Y-70816941D01*
X121212195Y-70657560D01*
X121089050Y-70520793D01*
X121089048Y-70520791D01*
X120940165Y-70412621D01*
X120940162Y-70412619D01*
X120940161Y-70412619D01*
X120879112Y-70385438D01*
X120772038Y-70337765D01*
X120772033Y-70337763D01*
X120592019Y-70299500D01*
X120407981Y-70299500D01*
X120227966Y-70337763D01*
X120227961Y-70337765D01*
X120059839Y-70412619D01*
X120059834Y-70412621D01*
X119910951Y-70520791D01*
X119910949Y-70520793D01*
X119787804Y-70657561D01*
X119695786Y-70816940D01*
X119695783Y-70816946D01*
X119638916Y-70991967D01*
X119638915Y-70991971D01*
X119619678Y-71175000D01*
X83610500Y-71175000D01*
X83610500Y-69175000D01*
X119619678Y-69175000D01*
X119638915Y-69358029D01*
X119638916Y-69358032D01*
X119695783Y-69533053D01*
X119695786Y-69533059D01*
X119787805Y-69692440D01*
X119798250Y-69704040D01*
X119910949Y-69829206D01*
X119910951Y-69829208D01*
X120059834Y-69937378D01*
X120059835Y-69937378D01*
X120059839Y-69937381D01*
X120196953Y-69998428D01*
X120227961Y-70012234D01*
X120227966Y-70012236D01*
X120407981Y-70050500D01*
X120592019Y-70050500D01*
X120772034Y-70012236D01*
X120940161Y-69937381D01*
X121089050Y-69829207D01*
X121212195Y-69692440D01*
X121304214Y-69533059D01*
X121361085Y-69358029D01*
X121380322Y-69175000D01*
X121361085Y-68991971D01*
X121304214Y-68816941D01*
X121212195Y-68657560D01*
X121089050Y-68520793D01*
X121089048Y-68520791D01*
X120940165Y-68412621D01*
X120940162Y-68412619D01*
X120940161Y-68412619D01*
X120879112Y-68385438D01*
X120772038Y-68337765D01*
X120772033Y-68337763D01*
X120592019Y-68299500D01*
X120407981Y-68299500D01*
X120227966Y-68337763D01*
X120227961Y-68337765D01*
X120059839Y-68412619D01*
X120059834Y-68412621D01*
X119910951Y-68520791D01*
X119910949Y-68520793D01*
X119787804Y-68657561D01*
X119695786Y-68816940D01*
X119695783Y-68816946D01*
X119638916Y-68991967D01*
X119638915Y-68991971D01*
X119619678Y-69175000D01*
X83610500Y-69175000D01*
X83610500Y-63175000D01*
X119619678Y-63175000D01*
X119638915Y-63358029D01*
X119638916Y-63358032D01*
X119695783Y-63533053D01*
X119695786Y-63533059D01*
X119787805Y-63692440D01*
X119798250Y-63704040D01*
X119910949Y-63829206D01*
X119910951Y-63829208D01*
X120059834Y-63937378D01*
X120059835Y-63937378D01*
X120059839Y-63937381D01*
X120196953Y-63998428D01*
X120227961Y-64012234D01*
X120227966Y-64012236D01*
X120407981Y-64050500D01*
X120592019Y-64050500D01*
X120772034Y-64012236D01*
X120940161Y-63937381D01*
X121089050Y-63829207D01*
X121212195Y-63692440D01*
X121304214Y-63533059D01*
X121361085Y-63358029D01*
X121380322Y-63175000D01*
X121361085Y-62991971D01*
X121324061Y-62878023D01*
X121304216Y-62816946D01*
X121304213Y-62816940D01*
X121212195Y-62657560D01*
X121089050Y-62520793D01*
X121089048Y-62520791D01*
X120940165Y-62412621D01*
X120940162Y-62412619D01*
X120940161Y-62412619D01*
X120871414Y-62382011D01*
X120772038Y-62337765D01*
X120772033Y-62337763D01*
X120592019Y-62299500D01*
X120407981Y-62299500D01*
X120227966Y-62337763D01*
X120227961Y-62337765D01*
X120059839Y-62412619D01*
X120059834Y-62412621D01*
X119910951Y-62520791D01*
X119910949Y-62520793D01*
X119787804Y-62657561D01*
X119695786Y-62816940D01*
X119695783Y-62816946D01*
X119639812Y-62989209D01*
X119638915Y-62991971D01*
X119619678Y-63175000D01*
X83610500Y-63175000D01*
X83610500Y-51501600D01*
X110106779Y-51501600D01*
X110109332Y-51583107D01*
X110109393Y-51586915D01*
X110115341Y-61722952D01*
X110114441Y-61731445D01*
X110114720Y-61734182D01*
X110115356Y-61746623D01*
X110115362Y-61754209D01*
X110117706Y-61763484D01*
X110125072Y-61835450D01*
X110125073Y-61835457D01*
X110177035Y-62018288D01*
X110260088Y-62189261D01*
X110260089Y-62189263D01*
X110260090Y-62189264D01*
X110371690Y-62343133D01*
X110371692Y-62343136D01*
X110411945Y-62382011D01*
X110508414Y-62475180D01*
X110561425Y-62510882D01*
X110666064Y-62581355D01*
X110666066Y-62581356D01*
X110666072Y-62581360D01*
X110839832Y-62658416D01*
X111024367Y-62703987D01*
X111071527Y-62707161D01*
X111094451Y-62708704D01*
X111101667Y-62710393D01*
X111115410Y-62710393D01*
X111123660Y-62710668D01*
X111132103Y-62711230D01*
X111138835Y-62710393D01*
X116097547Y-62710393D01*
X116099257Y-62710654D01*
X116117897Y-62710418D01*
X116119155Y-62710402D01*
X116120717Y-62710393D01*
X116146572Y-62710393D01*
X116148442Y-62710003D01*
X116208095Y-62709188D01*
X116381262Y-62676883D01*
X116546362Y-62615466D01*
X116546364Y-62615464D01*
X116546366Y-62615464D01*
X116604861Y-62581360D01*
X116698541Y-62526743D01*
X116833322Y-62413322D01*
X116946743Y-62278541D01*
X117035466Y-62126362D01*
X117096883Y-61961262D01*
X117129188Y-61788095D01*
X117130003Y-61728442D01*
X117130393Y-61726571D01*
X117130393Y-61700717D01*
X117130403Y-61699152D01*
X117130650Y-61679509D01*
X117130393Y-61677796D01*
X117130393Y-57515993D01*
X117130410Y-57515903D01*
X117130393Y-57486485D01*
X117130393Y-57458110D01*
X117130374Y-57458022D01*
X117130199Y-57175000D01*
X119619678Y-57175000D01*
X119638915Y-57358029D01*
X119638916Y-57358032D01*
X119695783Y-57533053D01*
X119695786Y-57533059D01*
X119787805Y-57692440D01*
X119798250Y-57704040D01*
X119910949Y-57829206D01*
X119910951Y-57829208D01*
X120059834Y-57937378D01*
X120059835Y-57937378D01*
X120059839Y-57937381D01*
X120196953Y-57998428D01*
X120227961Y-58012234D01*
X120227966Y-58012236D01*
X120407981Y-58050500D01*
X120592019Y-58050500D01*
X120772034Y-58012236D01*
X120940161Y-57937381D01*
X121089050Y-57829207D01*
X121212195Y-57692440D01*
X121304214Y-57533059D01*
X121361085Y-57358029D01*
X121380322Y-57175000D01*
X121361085Y-56991971D01*
X121304214Y-56816941D01*
X121212195Y-56657560D01*
X121089050Y-56520793D01*
X121089048Y-56520791D01*
X120940165Y-56412621D01*
X120940162Y-56412619D01*
X120940161Y-56412619D01*
X120879112Y-56385438D01*
X120772038Y-56337765D01*
X120772033Y-56337763D01*
X120592019Y-56299500D01*
X120407981Y-56299500D01*
X120227966Y-56337763D01*
X120227961Y-56337765D01*
X120059839Y-56412619D01*
X120059834Y-56412621D01*
X119910951Y-56520791D01*
X119910949Y-56520793D01*
X119787804Y-56657561D01*
X119695786Y-56816940D01*
X119695783Y-56816946D01*
X119638916Y-56991967D01*
X119638915Y-56991971D01*
X119619678Y-57175000D01*
X117130199Y-57175000D01*
X117128964Y-55175000D01*
X119619678Y-55175000D01*
X119638915Y-55358029D01*
X119638916Y-55358032D01*
X119695783Y-55533053D01*
X119695786Y-55533059D01*
X119787805Y-55692440D01*
X119798250Y-55704040D01*
X119910949Y-55829206D01*
X119910951Y-55829208D01*
X120059834Y-55937378D01*
X120059835Y-55937378D01*
X120059839Y-55937381D01*
X120196953Y-55998428D01*
X120227961Y-56012234D01*
X120227966Y-56012236D01*
X120407981Y-56050500D01*
X120592019Y-56050500D01*
X120772034Y-56012236D01*
X120940161Y-55937381D01*
X121089050Y-55829207D01*
X121212195Y-55692440D01*
X121304214Y-55533059D01*
X121361085Y-55358029D01*
X121380322Y-55175000D01*
X121364648Y-55025874D01*
X125924912Y-55025874D01*
X125929337Y-55112076D01*
X125929500Y-55118433D01*
X125929500Y-65208641D01*
X125929042Y-65211801D01*
X125929462Y-65228620D01*
X125929500Y-65231708D01*
X125929500Y-65254412D01*
X125930217Y-65257801D01*
X125931810Y-65322890D01*
X125934456Y-65335727D01*
X125969214Y-65504381D01*
X126038174Y-65676385D01*
X126136501Y-65833451D01*
X126261089Y-65970618D01*
X126261095Y-65970624D01*
X126408007Y-66083559D01*
X126408009Y-66083560D01*
X126572604Y-66168692D01*
X126749675Y-66223328D01*
X126820128Y-66231858D01*
X126830279Y-66234528D01*
X126834828Y-66234533D01*
X126849675Y-66235442D01*
X126858817Y-66234561D01*
X131921339Y-66240477D01*
X131931564Y-66241737D01*
X131951204Y-66242625D01*
X131965346Y-66238752D01*
X132032159Y-66234005D01*
X132210345Y-66191028D01*
X132210348Y-66191027D01*
X132378963Y-66119186D01*
X132378964Y-66119185D01*
X132378972Y-66119182D01*
X132533400Y-66020446D01*
X132669379Y-65897536D01*
X132783165Y-65753836D01*
X132871627Y-65593301D01*
X132932329Y-65420349D01*
X132944776Y-65348622D01*
X132948513Y-65335727D01*
X132949127Y-65328569D01*
X132948147Y-65314868D01*
X132948109Y-65226854D01*
X132948091Y-65186600D01*
X137429278Y-65186600D01*
X137448515Y-65369629D01*
X137448516Y-65369632D01*
X137505383Y-65544653D01*
X137505386Y-65544659D01*
X137597405Y-65704040D01*
X137642244Y-65753839D01*
X137720549Y-65840806D01*
X137720551Y-65840808D01*
X137869434Y-65948978D01*
X137869435Y-65948978D01*
X137869439Y-65948981D01*
X138006553Y-66010028D01*
X138037561Y-66023834D01*
X138037566Y-66023836D01*
X138217581Y-66062100D01*
X138401619Y-66062100D01*
X138581634Y-66023836D01*
X138749761Y-65948981D01*
X138898650Y-65840807D01*
X139021795Y-65704040D01*
X139113814Y-65544659D01*
X139170685Y-65369629D01*
X139189922Y-65186600D01*
X139170685Y-65003571D01*
X139113814Y-64828541D01*
X139021795Y-64669160D01*
X138898650Y-64532393D01*
X138898648Y-64532391D01*
X138749765Y-64424221D01*
X138749762Y-64424219D01*
X138749761Y-64424219D01*
X138688712Y-64397038D01*
X138581638Y-64349365D01*
X138581633Y-64349363D01*
X138401619Y-64311100D01*
X138217581Y-64311100D01*
X138037566Y-64349363D01*
X138037561Y-64349365D01*
X137869439Y-64424219D01*
X137869434Y-64424221D01*
X137720551Y-64532391D01*
X137720549Y-64532393D01*
X137597404Y-64669161D01*
X137505386Y-64828540D01*
X137505383Y-64828546D01*
X137452285Y-64991967D01*
X137448515Y-65003571D01*
X137429278Y-65186600D01*
X132948091Y-65186600D01*
X132947217Y-63186600D01*
X137429278Y-63186600D01*
X137448515Y-63369629D01*
X137448516Y-63369632D01*
X137505383Y-63544653D01*
X137505386Y-63544659D01*
X137597405Y-63704040D01*
X137683521Y-63799682D01*
X137720549Y-63840806D01*
X137720551Y-63840808D01*
X137869434Y-63948978D01*
X137869435Y-63948978D01*
X137869439Y-63948981D01*
X138006553Y-64010028D01*
X138037561Y-64023834D01*
X138037566Y-64023836D01*
X138217581Y-64062100D01*
X138401619Y-64062100D01*
X138581634Y-64023836D01*
X138749761Y-63948981D01*
X138898650Y-63840807D01*
X139021795Y-63704040D01*
X139113814Y-63544659D01*
X139170685Y-63369629D01*
X139189922Y-63186600D01*
X139180820Y-63100000D01*
X141284611Y-63100000D01*
X141304121Y-63298095D01*
X141361903Y-63488574D01*
X141455731Y-63664114D01*
X141455735Y-63664121D01*
X141582011Y-63817988D01*
X141735878Y-63944264D01*
X141735885Y-63944268D01*
X141911425Y-64038096D01*
X141911427Y-64038097D01*
X142101907Y-64095879D01*
X142300000Y-64115389D01*
X142498093Y-64095879D01*
X142688573Y-64038097D01*
X142864120Y-63944265D01*
X143017988Y-63817988D01*
X143144265Y-63664120D01*
X143238097Y-63488573D01*
X143295879Y-63298093D01*
X143315389Y-63100000D01*
X143295879Y-62901907D01*
X143238097Y-62711427D01*
X143209305Y-62657561D01*
X143177521Y-62598097D01*
X144288533Y-62598097D01*
X144289419Y-62609466D01*
X144292686Y-62621071D01*
X144297444Y-62651311D01*
X144299628Y-62665190D01*
X144345645Y-62785366D01*
X144415688Y-62893319D01*
X144506681Y-62984312D01*
X144614634Y-63054355D01*
X144734810Y-63100372D01*
X144778933Y-63107313D01*
X144790535Y-63110579D01*
X144801906Y-63111466D01*
X144814094Y-63110500D01*
X152814722Y-63110500D01*
X152824839Y-63111425D01*
X152838871Y-63110500D01*
X152841566Y-63110500D01*
X152852298Y-63107616D01*
X152899016Y-63101430D01*
X152903220Y-63100000D01*
X154384611Y-63100000D01*
X154404121Y-63298095D01*
X154461903Y-63488574D01*
X154555731Y-63664114D01*
X154555735Y-63664121D01*
X154682011Y-63817988D01*
X154835878Y-63944264D01*
X154835885Y-63944268D01*
X155011425Y-64038096D01*
X155011427Y-64038097D01*
X155201907Y-64095879D01*
X155400000Y-64115389D01*
X155598093Y-64095879D01*
X155788573Y-64038097D01*
X155964120Y-63944265D01*
X156117988Y-63817988D01*
X156244265Y-63664120D01*
X156338097Y-63488573D01*
X156395879Y-63298093D01*
X156415389Y-63100000D01*
X156395879Y-62901907D01*
X156338097Y-62711427D01*
X156309305Y-62657561D01*
X156244268Y-62535885D01*
X156244264Y-62535878D01*
X156117988Y-62382011D01*
X155964121Y-62255735D01*
X155964114Y-62255731D01*
X155788574Y-62161903D01*
X155598095Y-62104121D01*
X155400000Y-62084611D01*
X155201904Y-62104121D01*
X155011425Y-62161903D01*
X154835885Y-62255731D01*
X154835878Y-62255735D01*
X154682011Y-62382011D01*
X154555735Y-62535878D01*
X154555731Y-62535885D01*
X154461903Y-62711425D01*
X154404121Y-62901904D01*
X154384611Y-63100000D01*
X152903220Y-63100000D01*
X153028206Y-63057483D01*
X153146357Y-62989209D01*
X153248944Y-62899225D01*
X153332034Y-62790979D01*
X153392443Y-62668619D01*
X153406135Y-62617633D01*
X153411195Y-62602748D01*
X153411024Y-62599432D01*
X153411025Y-62599430D01*
X153411023Y-62599427D01*
X153410664Y-62592438D01*
X153410500Y-62586054D01*
X153410500Y-54400391D01*
X153410504Y-54399444D01*
X153410951Y-54340897D01*
X153410951Y-54340895D01*
X153389052Y-54242316D01*
X153385274Y-54225308D01*
X153378140Y-54210414D01*
X153334127Y-54118519D01*
X153334126Y-54118518D01*
X153334126Y-54118517D01*
X153260157Y-54026056D01*
X153260155Y-54026055D01*
X153260155Y-54026054D01*
X153167198Y-53952713D01*
X153060067Y-53902289D01*
X153049518Y-53900000D01*
X154384611Y-53900000D01*
X154404121Y-54098095D01*
X154461903Y-54288574D01*
X154555731Y-54464114D01*
X154555735Y-54464121D01*
X154682011Y-54617988D01*
X154835878Y-54744264D01*
X154835885Y-54744268D01*
X154971845Y-54816940D01*
X155011427Y-54838097D01*
X155201907Y-54895879D01*
X155400000Y-54915389D01*
X155598093Y-54895879D01*
X155788573Y-54838097D01*
X155964120Y-54744265D01*
X156117988Y-54617988D01*
X156244265Y-54464120D01*
X156338097Y-54288573D01*
X156395879Y-54098093D01*
X156415389Y-53900000D01*
X156395879Y-53701907D01*
X156338097Y-53511427D01*
X156262306Y-53369632D01*
X156244268Y-53335885D01*
X156244264Y-53335878D01*
X156117988Y-53182011D01*
X155964121Y-53055735D01*
X155964114Y-53055731D01*
X155788574Y-52961903D01*
X155598095Y-52904121D01*
X155400000Y-52884611D01*
X155201904Y-52904121D01*
X155011425Y-52961903D01*
X154835885Y-53055731D01*
X154835878Y-53055735D01*
X154682011Y-53182011D01*
X154555735Y-53335878D01*
X154555731Y-53335885D01*
X154461903Y-53511425D01*
X154404121Y-53701904D01*
X154384611Y-53900000D01*
X153049518Y-53900000D01*
X153018768Y-53893328D01*
X153003478Y-53888544D01*
X153000495Y-53888851D01*
X152987826Y-53889500D01*
X144742478Y-53889500D01*
X144630321Y-53915100D01*
X144526683Y-53965009D01*
X144526678Y-53965012D01*
X144436738Y-54036738D01*
X144365012Y-54126678D01*
X144365009Y-54126683D01*
X144315100Y-54230321D01*
X144289500Y-54342478D01*
X144289500Y-62585906D01*
X144288533Y-62598097D01*
X143177521Y-62598097D01*
X143144268Y-62535885D01*
X143144264Y-62535878D01*
X143017988Y-62382011D01*
X142864121Y-62255735D01*
X142864114Y-62255731D01*
X142688574Y-62161903D01*
X142498095Y-62104121D01*
X142300000Y-62084611D01*
X142101904Y-62104121D01*
X141911425Y-62161903D01*
X141735885Y-62255731D01*
X141735878Y-62255735D01*
X141582011Y-62382011D01*
X141455735Y-62535878D01*
X141455731Y-62535885D01*
X141361903Y-62711425D01*
X141304121Y-62901904D01*
X141284611Y-63100000D01*
X139180820Y-63100000D01*
X139170685Y-63003571D01*
X139133661Y-62889623D01*
X139113816Y-62828546D01*
X139113813Y-62828540D01*
X139021795Y-62669160D01*
X138898650Y-62532393D01*
X138898648Y-62532391D01*
X138749765Y-62424221D01*
X138749762Y-62424219D01*
X138749761Y-62424219D01*
X138654963Y-62382012D01*
X138581638Y-62349365D01*
X138581633Y-62349363D01*
X138401619Y-62311100D01*
X138217581Y-62311100D01*
X138037566Y-62349363D01*
X138037561Y-62349365D01*
X137869439Y-62424219D01*
X137869434Y-62424221D01*
X137720551Y-62532391D01*
X137720549Y-62532393D01*
X137597404Y-62669161D01*
X137505386Y-62828540D01*
X137505383Y-62828546D01*
X137452285Y-62991967D01*
X137448515Y-63003571D01*
X137429278Y-63186600D01*
X132947217Y-63186600D01*
X132946342Y-61186600D01*
X137429278Y-61186600D01*
X137448515Y-61369629D01*
X137448516Y-61369632D01*
X137505383Y-61544653D01*
X137505386Y-61544659D01*
X137597405Y-61704040D01*
X137673079Y-61788085D01*
X137720549Y-61840806D01*
X137720551Y-61840808D01*
X137869434Y-61948978D01*
X137869435Y-61948978D01*
X137869439Y-61948981D01*
X138006553Y-62010028D01*
X138037561Y-62023834D01*
X138037566Y-62023836D01*
X138217581Y-62062100D01*
X138401619Y-62062100D01*
X138581634Y-62023836D01*
X138749761Y-61948981D01*
X138898650Y-61840807D01*
X139021795Y-61704040D01*
X139113814Y-61544659D01*
X139170685Y-61369629D01*
X139189922Y-61186600D01*
X139170685Y-61003571D01*
X139113814Y-60828541D01*
X139021795Y-60669160D01*
X138898650Y-60532393D01*
X138898648Y-60532391D01*
X138749765Y-60424221D01*
X138749762Y-60424219D01*
X138749761Y-60424219D01*
X138688712Y-60397038D01*
X138581638Y-60349365D01*
X138581633Y-60349363D01*
X138401619Y-60311100D01*
X138217581Y-60311100D01*
X138037566Y-60349363D01*
X138037561Y-60349365D01*
X137869439Y-60424219D01*
X137869434Y-60424221D01*
X137720551Y-60532391D01*
X137720549Y-60532393D01*
X137597404Y-60669161D01*
X137505386Y-60828540D01*
X137505383Y-60828546D01*
X137448516Y-61003567D01*
X137448515Y-61003571D01*
X137429278Y-61186600D01*
X132946342Y-61186600D01*
X132945467Y-59186600D01*
X137429278Y-59186600D01*
X137448515Y-59369629D01*
X137448516Y-59369632D01*
X137505383Y-59544653D01*
X137505386Y-59544659D01*
X137597405Y-59704040D01*
X137706927Y-59825677D01*
X137720549Y-59840806D01*
X137720551Y-59840808D01*
X137869434Y-59948978D01*
X137869435Y-59948978D01*
X137869439Y-59948981D01*
X138006553Y-60010028D01*
X138037561Y-60023834D01*
X138037566Y-60023836D01*
X138217581Y-60062100D01*
X138401619Y-60062100D01*
X138581634Y-60023836D01*
X138749761Y-59948981D01*
X138898650Y-59840807D01*
X139021795Y-59704040D01*
X139113814Y-59544659D01*
X139170685Y-59369629D01*
X139189922Y-59186600D01*
X139170685Y-59003571D01*
X139113814Y-58828541D01*
X139021795Y-58669160D01*
X138898650Y-58532393D01*
X138898648Y-58532391D01*
X138749765Y-58424221D01*
X138749762Y-58424219D01*
X138749761Y-58424219D01*
X138688712Y-58397038D01*
X138581638Y-58349365D01*
X138581633Y-58349363D01*
X138401619Y-58311100D01*
X138217581Y-58311100D01*
X138037566Y-58349363D01*
X138037561Y-58349365D01*
X137869439Y-58424219D01*
X137869434Y-58424221D01*
X137720551Y-58532391D01*
X137720549Y-58532393D01*
X137597404Y-58669161D01*
X137505386Y-58828540D01*
X137505383Y-58828546D01*
X137448516Y-59003567D01*
X137448515Y-59003571D01*
X137429278Y-59186600D01*
X132945467Y-59186600D01*
X132944592Y-57186600D01*
X137429278Y-57186600D01*
X137448515Y-57369629D01*
X137448516Y-57369632D01*
X137505383Y-57544653D01*
X137505386Y-57544659D01*
X137597405Y-57704040D01*
X137706927Y-57825677D01*
X137720549Y-57840806D01*
X137720551Y-57840808D01*
X137869434Y-57948978D01*
X137869435Y-57948978D01*
X137869439Y-57948981D01*
X138006553Y-58010028D01*
X138037561Y-58023834D01*
X138037566Y-58023836D01*
X138217581Y-58062100D01*
X138401619Y-58062100D01*
X138581634Y-58023836D01*
X138749761Y-57948981D01*
X138898650Y-57840807D01*
X139021795Y-57704040D01*
X139113814Y-57544659D01*
X139170685Y-57369629D01*
X139189922Y-57186600D01*
X139170685Y-57003571D01*
X139113814Y-56828541D01*
X139021795Y-56669160D01*
X138898650Y-56532393D01*
X138898648Y-56532391D01*
X138749765Y-56424221D01*
X138749762Y-56424219D01*
X138749761Y-56424219D01*
X138688712Y-56397038D01*
X138581638Y-56349365D01*
X138581633Y-56349363D01*
X138401619Y-56311100D01*
X138217581Y-56311100D01*
X138037566Y-56349363D01*
X138037561Y-56349365D01*
X137869439Y-56424219D01*
X137869434Y-56424221D01*
X137720551Y-56532391D01*
X137720549Y-56532393D01*
X137597404Y-56669161D01*
X137505386Y-56828540D01*
X137505383Y-56828546D01*
X137452285Y-56991967D01*
X137448515Y-57003571D01*
X137429278Y-57186600D01*
X132944592Y-57186600D01*
X132943717Y-55186600D01*
X137429278Y-55186600D01*
X137448515Y-55369629D01*
X137448516Y-55369632D01*
X137505383Y-55544653D01*
X137505386Y-55544659D01*
X137597405Y-55704040D01*
X137706927Y-55825677D01*
X137720549Y-55840806D01*
X137720551Y-55840808D01*
X137869434Y-55948978D01*
X137869435Y-55948978D01*
X137869439Y-55948981D01*
X138006553Y-56010028D01*
X138037561Y-56023834D01*
X138037566Y-56023836D01*
X138217581Y-56062100D01*
X138401619Y-56062100D01*
X138581634Y-56023836D01*
X138749761Y-55948981D01*
X138898650Y-55840807D01*
X139021795Y-55704040D01*
X139113814Y-55544659D01*
X139170685Y-55369629D01*
X139189922Y-55186600D01*
X139170685Y-55003571D01*
X139113814Y-54828541D01*
X139021795Y-54669160D01*
X138898650Y-54532393D01*
X138898648Y-54532391D01*
X138749765Y-54424221D01*
X138749762Y-54424219D01*
X138749761Y-54424219D01*
X138685596Y-54395651D01*
X138581638Y-54349365D01*
X138581633Y-54349363D01*
X138401619Y-54311100D01*
X138217581Y-54311100D01*
X138037566Y-54349363D01*
X138037561Y-54349365D01*
X137869439Y-54424219D01*
X137869434Y-54424221D01*
X137720551Y-54532391D01*
X137720549Y-54532393D01*
X137597404Y-54669161D01*
X137505386Y-54828540D01*
X137505383Y-54828546D01*
X137452285Y-54991967D01*
X137448515Y-55003571D01*
X137429278Y-55186600D01*
X132943717Y-55186600D01*
X132943656Y-55047162D01*
X132944610Y-55035676D01*
X132943646Y-55022706D01*
X132943645Y-55022247D01*
X132940620Y-55011327D01*
X132929968Y-54939683D01*
X132872311Y-54764014D01*
X132785886Y-54600568D01*
X132724526Y-54520791D01*
X132673167Y-54454016D01*
X132673166Y-54454015D01*
X132537367Y-54328541D01*
X132382377Y-54227736D01*
X132212620Y-54154479D01*
X132212615Y-54154478D01*
X132032954Y-54110864D01*
X132032944Y-54110863D01*
X131965363Y-54106218D01*
X131958048Y-54104500D01*
X131944640Y-54104500D01*
X131936104Y-54104206D01*
X131928063Y-54103651D01*
X131921184Y-54104500D01*
X126943435Y-54104500D01*
X126937078Y-54104337D01*
X126850874Y-54099912D01*
X126850873Y-54099912D01*
X126829711Y-54102767D01*
X126672908Y-54123929D01*
X126502458Y-54180456D01*
X126345417Y-54267535D01*
X126345406Y-54267542D01*
X126207177Y-54382177D01*
X126092542Y-54520406D01*
X126092535Y-54520417D01*
X126005456Y-54677458D01*
X125948929Y-54847908D01*
X125929488Y-54991967D01*
X125925340Y-55022706D01*
X125924912Y-55025874D01*
X121364648Y-55025874D01*
X121361085Y-54991971D01*
X121304214Y-54816941D01*
X121212195Y-54657560D01*
X121089050Y-54520793D01*
X121089048Y-54520791D01*
X120940165Y-54412621D01*
X120940162Y-54412619D01*
X120940161Y-54412619D01*
X120879112Y-54385438D01*
X120772038Y-54337765D01*
X120772033Y-54337763D01*
X120592019Y-54299500D01*
X120407981Y-54299500D01*
X120227966Y-54337763D01*
X120227961Y-54337765D01*
X120059839Y-54412619D01*
X120059834Y-54412621D01*
X119910951Y-54520791D01*
X119910949Y-54520793D01*
X119787804Y-54657561D01*
X119695786Y-54816940D01*
X119695783Y-54816946D01*
X119638916Y-54991967D01*
X119638915Y-54991971D01*
X119619678Y-55175000D01*
X117128964Y-55175000D01*
X117127728Y-53175000D01*
X119619678Y-53175000D01*
X119638915Y-53358029D01*
X119638916Y-53358032D01*
X119695783Y-53533053D01*
X119695786Y-53533059D01*
X119787805Y-53692440D01*
X119897327Y-53814077D01*
X119910949Y-53829206D01*
X119910951Y-53829208D01*
X120059834Y-53937378D01*
X120059835Y-53937378D01*
X120059839Y-53937381D01*
X120146761Y-53976081D01*
X120227961Y-54012234D01*
X120227966Y-54012236D01*
X120407981Y-54050500D01*
X120592019Y-54050500D01*
X120772034Y-54012236D01*
X120940161Y-53937381D01*
X121089050Y-53829207D01*
X121212195Y-53692440D01*
X121304214Y-53533059D01*
X121361085Y-53358029D01*
X121379103Y-53186600D01*
X137429278Y-53186600D01*
X137448515Y-53369629D01*
X137448516Y-53369632D01*
X137505383Y-53544653D01*
X137505386Y-53544659D01*
X137597405Y-53704040D01*
X137706927Y-53825677D01*
X137720549Y-53840806D01*
X137720551Y-53840808D01*
X137869434Y-53948978D01*
X137869435Y-53948978D01*
X137869439Y-53948981D01*
X137997027Y-54005787D01*
X138037561Y-54023834D01*
X138037566Y-54023836D01*
X138217581Y-54062100D01*
X138401619Y-54062100D01*
X138581634Y-54023836D01*
X138749761Y-53948981D01*
X138817178Y-53900000D01*
X141284611Y-53900000D01*
X141304121Y-54098095D01*
X141361903Y-54288574D01*
X141455731Y-54464114D01*
X141455735Y-54464121D01*
X141582011Y-54617988D01*
X141735878Y-54744264D01*
X141735885Y-54744268D01*
X141871845Y-54816940D01*
X141911427Y-54838097D01*
X142101907Y-54895879D01*
X142300000Y-54915389D01*
X142498093Y-54895879D01*
X142688573Y-54838097D01*
X142864120Y-54744265D01*
X143017988Y-54617988D01*
X143144265Y-54464120D01*
X143238097Y-54288573D01*
X143295879Y-54098093D01*
X143315389Y-53900000D01*
X143295879Y-53701907D01*
X143238097Y-53511427D01*
X143162306Y-53369632D01*
X143144268Y-53335885D01*
X143144264Y-53335878D01*
X143017988Y-53182011D01*
X142864121Y-53055735D01*
X142864114Y-53055731D01*
X142688574Y-52961903D01*
X142498095Y-52904121D01*
X142300000Y-52884611D01*
X142101904Y-52904121D01*
X141911425Y-52961903D01*
X141735885Y-53055731D01*
X141735878Y-53055735D01*
X141582011Y-53182011D01*
X141455735Y-53335878D01*
X141455731Y-53335885D01*
X141361903Y-53511425D01*
X141304121Y-53701904D01*
X141284611Y-53900000D01*
X138817178Y-53900000D01*
X138898650Y-53840807D01*
X139021795Y-53704040D01*
X139113814Y-53544659D01*
X139170685Y-53369629D01*
X139189922Y-53186600D01*
X139170685Y-53003571D01*
X139113814Y-52828541D01*
X139021795Y-52669160D01*
X138898650Y-52532393D01*
X138898648Y-52532391D01*
X138749765Y-52424221D01*
X138749762Y-52424219D01*
X138749761Y-52424219D01*
X138688712Y-52397038D01*
X138581638Y-52349365D01*
X138581633Y-52349363D01*
X138401619Y-52311100D01*
X138217581Y-52311100D01*
X138037566Y-52349363D01*
X138037561Y-52349365D01*
X137869439Y-52424219D01*
X137869434Y-52424221D01*
X137720551Y-52532391D01*
X137720549Y-52532393D01*
X137597404Y-52669161D01*
X137505386Y-52828540D01*
X137505383Y-52828546D01*
X137454282Y-52985821D01*
X137448515Y-53003571D01*
X137429278Y-53186600D01*
X121379103Y-53186600D01*
X121380322Y-53175000D01*
X121361085Y-52991971D01*
X121304214Y-52816941D01*
X121212195Y-52657560D01*
X121089050Y-52520793D01*
X121089048Y-52520791D01*
X120940165Y-52412621D01*
X120940162Y-52412619D01*
X120940161Y-52412619D01*
X120879112Y-52385438D01*
X120772038Y-52337765D01*
X120772033Y-52337763D01*
X120592019Y-52299500D01*
X120407981Y-52299500D01*
X120227966Y-52337763D01*
X120227961Y-52337765D01*
X120059839Y-52412619D01*
X120059834Y-52412621D01*
X119910951Y-52520791D01*
X119910949Y-52520793D01*
X119787804Y-52657561D01*
X119695786Y-52816940D01*
X119695783Y-52816946D01*
X119640913Y-52985821D01*
X119638915Y-52991971D01*
X119619678Y-53175000D01*
X117127728Y-53175000D01*
X117126725Y-51551903D01*
X117127644Y-51541840D01*
X117126711Y-51527743D01*
X117126709Y-51524891D01*
X117123887Y-51514385D01*
X117114303Y-51441852D01*
X117058489Y-51261976D01*
X117014306Y-51175000D01*
X119619678Y-51175000D01*
X119638915Y-51358029D01*
X119638916Y-51358032D01*
X119695783Y-51533053D01*
X119695786Y-51533059D01*
X119787805Y-51692440D01*
X119798250Y-51704040D01*
X119910949Y-51829206D01*
X119910951Y-51829208D01*
X120059834Y-51937378D01*
X120059835Y-51937378D01*
X120059839Y-51937381D01*
X120196953Y-51998428D01*
X120227961Y-52012234D01*
X120227966Y-52012236D01*
X120407981Y-52050500D01*
X120592019Y-52050500D01*
X120772034Y-52012236D01*
X120940161Y-51937381D01*
X121089050Y-51829207D01*
X121212195Y-51692440D01*
X121304214Y-51533059D01*
X121361085Y-51358029D01*
X121379103Y-51186600D01*
X137429278Y-51186600D01*
X137448515Y-51369629D01*
X137448516Y-51369632D01*
X137505383Y-51544653D01*
X137505386Y-51544659D01*
X137597405Y-51704040D01*
X137706927Y-51825677D01*
X137720549Y-51840806D01*
X137720551Y-51840808D01*
X137869434Y-51948978D01*
X137869435Y-51948978D01*
X137869439Y-51948981D01*
X138006553Y-52010028D01*
X138037561Y-52023834D01*
X138037566Y-52023836D01*
X138217581Y-52062100D01*
X138401619Y-52062100D01*
X138581634Y-52023836D01*
X138749761Y-51948981D01*
X138898650Y-51840807D01*
X139021795Y-51704040D01*
X139113814Y-51544659D01*
X139170685Y-51369629D01*
X139189922Y-51186600D01*
X139170685Y-51003571D01*
X139133661Y-50889623D01*
X139113816Y-50828546D01*
X139113813Y-50828540D01*
X139021795Y-50669160D01*
X138898650Y-50532393D01*
X138898648Y-50532391D01*
X138749765Y-50424221D01*
X138749762Y-50424219D01*
X138749761Y-50424219D01*
X138688712Y-50397038D01*
X138581638Y-50349365D01*
X138581633Y-50349363D01*
X138401619Y-50311100D01*
X138217581Y-50311100D01*
X138037566Y-50349363D01*
X138037561Y-50349365D01*
X137869439Y-50424219D01*
X137869434Y-50424221D01*
X137720551Y-50532391D01*
X137720549Y-50532393D01*
X137597404Y-50669161D01*
X137505386Y-50828540D01*
X137505383Y-50828546D01*
X137452285Y-50991967D01*
X137448515Y-51003571D01*
X137429278Y-51186600D01*
X121379103Y-51186600D01*
X121380322Y-51175000D01*
X121361085Y-50991971D01*
X121324061Y-50878023D01*
X121304216Y-50816946D01*
X121304213Y-50816940D01*
X121301832Y-50812816D01*
X121212195Y-50657560D01*
X121089050Y-50520793D01*
X121089048Y-50520791D01*
X120940165Y-50412621D01*
X120940162Y-50412619D01*
X120940161Y-50412619D01*
X120879112Y-50385438D01*
X120772038Y-50337765D01*
X120772033Y-50337763D01*
X120592019Y-50299500D01*
X120407981Y-50299500D01*
X120227966Y-50337763D01*
X120227961Y-50337765D01*
X120059839Y-50412619D01*
X120059834Y-50412621D01*
X119910951Y-50520791D01*
X119910949Y-50520793D01*
X119787804Y-50657561D01*
X119695786Y-50816940D01*
X119695783Y-50816946D01*
X119638916Y-50991967D01*
X119638915Y-50991971D01*
X119619678Y-51175000D01*
X117014306Y-51175000D01*
X116973191Y-51094062D01*
X116860844Y-50942904D01*
X116810490Y-50894806D01*
X116724659Y-50812821D01*
X116724655Y-50812818D01*
X116724653Y-50812816D01*
X116568507Y-50707511D01*
X116568505Y-50707510D01*
X116568497Y-50707505D01*
X116396871Y-50629998D01*
X116396865Y-50629996D01*
X116396863Y-50629995D01*
X116396862Y-50629995D01*
X116214618Y-50582480D01*
X116214615Y-50582479D01*
X116214611Y-50582479D01*
X116144331Y-50576450D01*
X116135858Y-50574387D01*
X116125670Y-50574390D01*
X116115022Y-50573934D01*
X116109980Y-50573500D01*
X116102133Y-50574400D01*
X111040379Y-50576569D01*
X111033518Y-50575728D01*
X111025488Y-50576284D01*
X111016987Y-50576580D01*
X111003669Y-50576586D01*
X110996419Y-50578291D01*
X110937429Y-50582415D01*
X110937428Y-50582415D01*
X110774897Y-50622165D01*
X110621458Y-50688887D01*
X110621453Y-50688890D01*
X110481544Y-50780651D01*
X110481538Y-50780657D01*
X110359212Y-50894797D01*
X110359203Y-50894806D01*
X110257993Y-51028029D01*
X110257992Y-51028030D01*
X110180815Y-51176496D01*
X110129920Y-51335892D01*
X110129919Y-51335900D01*
X110106779Y-51501600D01*
X83610500Y-51501600D01*
X83610500Y-49810894D01*
X83612189Y-49790497D01*
X83614794Y-49774875D01*
X83639977Y-49623872D01*
X83645482Y-49602653D01*
X83702021Y-49444048D01*
X83711180Y-49424133D01*
X83794783Y-49277987D01*
X83807311Y-49259995D01*
X83878438Y-49175000D01*
X119619678Y-49175000D01*
X119638915Y-49358029D01*
X119638916Y-49358032D01*
X119695783Y-49533053D01*
X119695786Y-49533059D01*
X119787805Y-49692440D01*
X119880736Y-49795651D01*
X119910949Y-49829206D01*
X119910951Y-49829208D01*
X120059834Y-49937378D01*
X120059835Y-49937378D01*
X120059839Y-49937381D01*
X120196953Y-49998428D01*
X120227961Y-50012234D01*
X120227966Y-50012236D01*
X120407981Y-50050500D01*
X120592019Y-50050500D01*
X120772034Y-50012236D01*
X120940161Y-49937381D01*
X121089050Y-49829207D01*
X121212195Y-49692440D01*
X121304214Y-49533059D01*
X121361085Y-49358029D01*
X121379103Y-49186600D01*
X137429278Y-49186600D01*
X137448515Y-49369629D01*
X137448516Y-49369632D01*
X137505383Y-49544653D01*
X137505386Y-49544659D01*
X137597405Y-49704040D01*
X137675251Y-49790497D01*
X137720549Y-49840806D01*
X137720551Y-49840808D01*
X137869434Y-49948978D01*
X137869435Y-49948978D01*
X137869439Y-49948981D01*
X138006553Y-50010028D01*
X138037561Y-50023834D01*
X138037566Y-50023836D01*
X138217581Y-50062100D01*
X138401619Y-50062100D01*
X138581634Y-50023836D01*
X138749761Y-49948981D01*
X138898650Y-49840807D01*
X139021795Y-49704040D01*
X139113814Y-49544659D01*
X139170685Y-49369629D01*
X139189922Y-49186600D01*
X139170685Y-49003571D01*
X139119428Y-48845819D01*
X139113816Y-48828546D01*
X139113813Y-48828540D01*
X139021795Y-48669160D01*
X138898650Y-48532393D01*
X138898648Y-48532391D01*
X138749765Y-48424221D01*
X138749762Y-48424219D01*
X138749761Y-48424219D01*
X138688712Y-48397038D01*
X138581638Y-48349365D01*
X138581633Y-48349363D01*
X138401619Y-48311100D01*
X138217581Y-48311100D01*
X138037566Y-48349363D01*
X138037561Y-48349365D01*
X137869439Y-48424219D01*
X137869434Y-48424221D01*
X137720551Y-48532391D01*
X137720549Y-48532393D01*
X137597404Y-48669161D01*
X137505386Y-48828540D01*
X137505383Y-48828546D01*
X137452285Y-48991967D01*
X137448515Y-49003571D01*
X137429278Y-49186600D01*
X121379103Y-49186600D01*
X121380322Y-49175000D01*
X121361085Y-48991971D01*
X121313489Y-48845485D01*
X121304216Y-48816946D01*
X121304213Y-48816940D01*
X121301470Y-48812189D01*
X121212195Y-48657560D01*
X121089050Y-48520793D01*
X121089048Y-48520791D01*
X120940165Y-48412621D01*
X120940162Y-48412619D01*
X120940161Y-48412619D01*
X120879112Y-48385438D01*
X120772038Y-48337765D01*
X120772033Y-48337763D01*
X120592019Y-48299500D01*
X120407981Y-48299500D01*
X120227966Y-48337763D01*
X120227961Y-48337765D01*
X120059839Y-48412619D01*
X120059834Y-48412621D01*
X119910951Y-48520791D01*
X119910949Y-48520793D01*
X119787804Y-48657561D01*
X119695786Y-48816940D01*
X119695783Y-48816946D01*
X119638916Y-48991967D01*
X119638915Y-48991971D01*
X119619678Y-49175000D01*
X83878438Y-49175000D01*
X83915368Y-49130870D01*
X83930870Y-49115368D01*
X84059995Y-49007311D01*
X84077987Y-48994783D01*
X84224133Y-48911180D01*
X84244048Y-48902021D01*
X84402653Y-48845482D01*
X84423872Y-48839977D01*
X84574875Y-48814794D01*
X84590497Y-48812189D01*
X84610894Y-48810500D01*
X88881667Y-48810500D01*
X88889001Y-48811374D01*
X88895656Y-48810864D01*
X88905145Y-48810500D01*
X88917248Y-48810500D01*
X88925056Y-48808634D01*
X88997968Y-48803121D01*
X89186606Y-48754181D01*
X89363664Y-48672757D01*
X89523598Y-48561401D01*
X89661401Y-48423598D01*
X89772757Y-48263664D01*
X89854181Y-48086606D01*
X89903121Y-47897968D01*
X89908634Y-47825056D01*
X89910500Y-47817248D01*
X89910500Y-47805145D01*
X89910864Y-47795656D01*
X89911374Y-47789002D01*
X89910500Y-47781666D01*
X89910500Y-45650000D01*
X92034611Y-45650000D01*
X92054121Y-45848095D01*
X92111903Y-46038574D01*
X92205731Y-46214114D01*
X92205735Y-46214121D01*
X92332011Y-46367988D01*
X92485878Y-46494264D01*
X92485885Y-46494268D01*
X92661425Y-46588096D01*
X92661427Y-46588097D01*
X92851907Y-46645879D01*
X93050000Y-46665389D01*
X93248093Y-46645879D01*
X93438573Y-46588097D01*
X93614120Y-46494265D01*
X93767988Y-46367988D01*
X93894265Y-46214120D01*
X93988097Y-46038573D01*
X94045879Y-45848093D01*
X94065389Y-45650000D01*
X150234611Y-45650000D01*
X150254121Y-45848095D01*
X150311903Y-46038574D01*
X150405731Y-46214114D01*
X150405735Y-46214121D01*
X150532011Y-46367988D01*
X150685878Y-46494264D01*
X150685885Y-46494268D01*
X150861425Y-46588096D01*
X150861427Y-46588097D01*
X151051907Y-46645879D01*
X151250000Y-46665389D01*
X151448093Y-46645879D01*
X151638573Y-46588097D01*
X151814120Y-46494265D01*
X151967988Y-46367988D01*
X152094265Y-46214120D01*
X152188097Y-46038573D01*
X152245879Y-45848093D01*
X152265389Y-45650000D01*
X152245879Y-45451907D01*
X152188097Y-45261427D01*
X152094265Y-45085880D01*
X152094264Y-45085878D01*
X151967988Y-44932011D01*
X151814121Y-44805735D01*
X151814114Y-44805731D01*
X151638574Y-44711903D01*
X151448095Y-44654121D01*
X151250000Y-44634611D01*
X151051904Y-44654121D01*
X150861425Y-44711903D01*
X150685885Y-44805731D01*
X150685878Y-44805735D01*
X150532011Y-44932011D01*
X150405735Y-45085878D01*
X150405731Y-45085885D01*
X150311903Y-45261425D01*
X150254121Y-45451904D01*
X150234611Y-45650000D01*
X94065389Y-45650000D01*
X94045879Y-45451907D01*
X93988097Y-45261427D01*
X93894265Y-45085880D01*
X93894264Y-45085878D01*
X93767988Y-44932011D01*
X93614121Y-44805735D01*
X93614114Y-44805731D01*
X93438574Y-44711903D01*
X93248095Y-44654121D01*
X93050000Y-44634611D01*
X92851904Y-44654121D01*
X92661425Y-44711903D01*
X92485885Y-44805731D01*
X92485878Y-44805735D01*
X92332011Y-44932011D01*
X92205735Y-45085878D01*
X92205731Y-45085885D01*
X92111903Y-45261425D01*
X92054121Y-45451904D01*
X92034611Y-45650000D01*
X89910500Y-45650000D01*
X89910500Y-40510894D01*
X89912189Y-40490497D01*
X89914794Y-40474875D01*
X89939977Y-40323872D01*
X89945482Y-40302653D01*
X90002021Y-40144048D01*
X90011180Y-40124133D01*
X90094783Y-39977987D01*
X90107311Y-39959995D01*
X90215368Y-39830870D01*
X90230870Y-39815368D01*
X90359995Y-39707311D01*
X90377987Y-39694783D01*
X90524133Y-39611180D01*
X90544048Y-39602021D01*
X90702653Y-39545482D01*
X90723872Y-39539977D01*
X90874875Y-39514794D01*
X90890497Y-39512189D01*
X90910894Y-39510500D01*
X164119106Y-39510500D01*
X164139503Y-39512188D01*
G37*
G04 #@! TD.AperFunction*
G04 #@! TA.AperFunction,Conductor*
G36*
X121085677Y-81029685D02*
G01*
X121106319Y-81046319D01*
X121703681Y-81643681D01*
X121737166Y-81705004D01*
X121740000Y-81731362D01*
X121740000Y-83220000D01*
X122470000Y-83950000D01*
X127208638Y-83950000D01*
X127275677Y-83969685D01*
X127296319Y-83986319D01*
X127393681Y-84083681D01*
X127427166Y-84145004D01*
X127430000Y-84171362D01*
X127430000Y-87668638D01*
X127410315Y-87735677D01*
X127393681Y-87756319D01*
X127066319Y-88083681D01*
X127004996Y-88117166D01*
X126978638Y-88120000D01*
X120531362Y-88120000D01*
X120464323Y-88100315D01*
X120443681Y-88083681D01*
X119496319Y-87136319D01*
X119462834Y-87074996D01*
X119460000Y-87048638D01*
X119460000Y-81471362D01*
X119479685Y-81404323D01*
X119496319Y-81383681D01*
X119833681Y-81046319D01*
X119895004Y-81012834D01*
X119921362Y-81010000D01*
X121018638Y-81010000D01*
X121085677Y-81029685D01*
G37*
G04 #@! TD.AperFunction*
G04 #@! TA.AperFunction,Conductor*
G36*
X112232306Y-86719685D02*
G01*
X112252948Y-86736319D01*
X112270835Y-86754206D01*
X112373609Y-86799585D01*
X112398735Y-86802500D01*
X113726934Y-86802499D01*
X113793973Y-86822184D01*
X113825488Y-86851245D01*
X114764557Y-88081059D01*
X114789597Y-88146287D01*
X114790003Y-88155976D01*
X114799892Y-91794094D01*
X114780389Y-91861187D01*
X114777177Y-91865967D01*
X114437054Y-92347536D01*
X114382300Y-92390938D01*
X114335769Y-92400000D01*
X114199999Y-92400000D01*
X114150000Y-92449999D01*
X114150000Y-94248638D01*
X114130315Y-94315677D01*
X114113681Y-94336319D01*
X113936319Y-94513681D01*
X113874996Y-94547166D01*
X113848638Y-94550000D01*
X111074000Y-94550000D01*
X111006961Y-94530315D01*
X110961206Y-94477511D01*
X110950000Y-94426000D01*
X110950000Y-87601362D01*
X110969685Y-87534323D01*
X110986319Y-87513681D01*
X111763681Y-86736319D01*
X111825004Y-86702834D01*
X111851362Y-86700000D01*
X112165267Y-86700000D01*
X112232306Y-86719685D01*
G37*
G04 #@! TD.AperFunction*
G04 #@! TA.AperFunction,Conductor*
G36*
X114749916Y-121649121D02*
G01*
X114816599Y-121669979D01*
X114835421Y-121685421D01*
X115113681Y-121963681D01*
X115147166Y-122025004D01*
X115150000Y-122051362D01*
X115150000Y-129151000D01*
X115130315Y-129218039D01*
X115077511Y-129263794D01*
X115026000Y-129275000D01*
X114989713Y-129275000D01*
X114922674Y-129255315D01*
X114876919Y-129202511D01*
X114866088Y-129160633D01*
X114865337Y-129151000D01*
X114855875Y-129029562D01*
X114855500Y-129019929D01*
X114855500Y-127660249D01*
X114855499Y-127660247D01*
X114843868Y-127601770D01*
X114843867Y-127601769D01*
X114799552Y-127535447D01*
X114730626Y-127489392D01*
X114685821Y-127435779D01*
X114681716Y-127425000D01*
X113843066Y-124870933D01*
X113840583Y-124862334D01*
X113353702Y-122914808D01*
X113350000Y-122884734D01*
X113350000Y-121762278D01*
X113352407Y-121737964D01*
X113354703Y-121726480D01*
X113387151Y-121664603D01*
X113447902Y-121630091D01*
X113478468Y-121626815D01*
X114749916Y-121649121D01*
G37*
G04 #@! TD.AperFunction*
G04 #@! TA.AperFunction,Conductor*
G36*
X117815677Y-81069685D02*
G01*
X117836319Y-81086319D01*
X117963681Y-81213681D01*
X117997166Y-81275004D01*
X118000000Y-81301362D01*
X118000000Y-89098638D01*
X117980315Y-89165677D01*
X117963681Y-89186319D01*
X117136319Y-90013681D01*
X117074996Y-90047166D01*
X117048638Y-90050000D01*
X115451362Y-90050000D01*
X115384323Y-90030315D01*
X115363681Y-90013681D01*
X115036319Y-89686319D01*
X115002834Y-89624996D01*
X115000000Y-89598638D01*
X115000000Y-87990000D01*
X114809527Y-87799527D01*
X114798654Y-87787100D01*
X114478918Y-87368371D01*
X113988817Y-86726529D01*
X113964797Y-86700172D01*
X113964787Y-86700162D01*
X113933334Y-86671158D01*
X113931689Y-86669656D01*
X113931685Y-86669654D01*
X113891779Y-86647332D01*
X113851871Y-86625009D01*
X113851870Y-86625008D01*
X113851869Y-86625008D01*
X113784837Y-86605325D01*
X113784833Y-86605324D01*
X113784832Y-86605324D01*
X113726934Y-86596999D01*
X113726930Y-86596999D01*
X112451313Y-86596999D01*
X112384274Y-86577314D01*
X112373507Y-86569551D01*
X112361252Y-86559675D01*
X112361250Y-86559674D01*
X112361249Y-86559673D01*
X112316523Y-86536277D01*
X112266245Y-86487760D01*
X112250000Y-86426402D01*
X112250000Y-86274462D01*
X112269685Y-86207423D01*
X112322489Y-86161668D01*
X112388294Y-86151289D01*
X112393609Y-86151905D01*
X112398735Y-86152500D01*
X113763464Y-86152499D01*
X113763479Y-86152497D01*
X113763482Y-86152497D01*
X113788587Y-86149586D01*
X113788588Y-86149585D01*
X113788591Y-86149585D01*
X113891365Y-86104206D01*
X113970806Y-86024765D01*
X113993259Y-85973914D01*
X114038345Y-85920537D01*
X114105131Y-85900010D01*
X114106693Y-85900000D01*
X114300000Y-85900000D01*
X114450000Y-85750000D01*
X114450000Y-81951362D01*
X114469685Y-81884323D01*
X114486319Y-81863681D01*
X115263681Y-81086319D01*
X115325004Y-81052834D01*
X115351362Y-81050000D01*
X117748638Y-81050000D01*
X117815677Y-81069685D01*
G37*
G04 #@! TD.AperFunction*
G04 #@! TA.AperFunction,Conductor*
G36*
X132155677Y-85139685D02*
G01*
X132176319Y-85156319D01*
X133963681Y-86943681D01*
X133997166Y-87005004D01*
X134000000Y-87031362D01*
X134000000Y-93450000D01*
X136080000Y-95530000D01*
X137925500Y-95530000D01*
X137992539Y-95549685D01*
X138038294Y-95602489D01*
X138049500Y-95654000D01*
X138049500Y-96318993D01*
X138049500Y-96318995D01*
X138049499Y-96318995D01*
X138076418Y-96454322D01*
X138076421Y-96454332D01*
X138129221Y-96581804D01*
X138129228Y-96581817D01*
X138205885Y-96696541D01*
X138205888Y-96696545D01*
X138303454Y-96794111D01*
X138303458Y-96794114D01*
X138418182Y-96870771D01*
X138418195Y-96870778D01*
X138545667Y-96923578D01*
X138545672Y-96923580D01*
X138545676Y-96923580D01*
X138545677Y-96923581D01*
X138681004Y-96950500D01*
X138681007Y-96950500D01*
X138818995Y-96950500D01*
X138910041Y-96932389D01*
X138954328Y-96923580D01*
X139081811Y-96870775D01*
X139196542Y-96794114D01*
X139294114Y-96696542D01*
X139321898Y-96654961D01*
X139375510Y-96610156D01*
X139444835Y-96601449D01*
X139507863Y-96631604D01*
X139528102Y-96654961D01*
X139555885Y-96696541D01*
X139555888Y-96696545D01*
X139653454Y-96794111D01*
X139653458Y-96794114D01*
X139768182Y-96870771D01*
X139768195Y-96870778D01*
X139895667Y-96923578D01*
X139895672Y-96923580D01*
X139895676Y-96923580D01*
X139895677Y-96923581D01*
X140031004Y-96950500D01*
X140031007Y-96950500D01*
X140168995Y-96950500D01*
X140260041Y-96932389D01*
X140304328Y-96923580D01*
X140431811Y-96870775D01*
X140546542Y-96794114D01*
X140644114Y-96696542D01*
X140720775Y-96581811D01*
X140773580Y-96454328D01*
X140800500Y-96318993D01*
X140800500Y-95654000D01*
X140820185Y-95586961D01*
X140872989Y-95541206D01*
X140924500Y-95530000D01*
X153548638Y-95530000D01*
X153615677Y-95549685D01*
X153636319Y-95566319D01*
X155993681Y-97923681D01*
X156027166Y-97985004D01*
X156030000Y-98011362D01*
X156030000Y-105058638D01*
X156010315Y-105125677D01*
X155993681Y-105146319D01*
X155836319Y-105303681D01*
X155774996Y-105337166D01*
X155748638Y-105340000D01*
X95891362Y-105340000D01*
X95824323Y-105320315D01*
X95803681Y-105303681D01*
X92076319Y-101576319D01*
X92042834Y-101514996D01*
X92040000Y-101488638D01*
X92040000Y-98651362D01*
X92059685Y-98584323D01*
X92076319Y-98563681D01*
X94533681Y-96106319D01*
X94595004Y-96072834D01*
X94621362Y-96070000D01*
X108218917Y-96070000D01*
X108285956Y-96089685D01*
X108287783Y-96090881D01*
X108364769Y-96142322D01*
X108537749Y-96213973D01*
X108569370Y-96220262D01*
X108629517Y-96232227D01*
X108629550Y-96232232D01*
X108629566Y-96232236D01*
X108690777Y-96244412D01*
X108721382Y-96250500D01*
X108721383Y-96250500D01*
X110343617Y-96250500D01*
X110343618Y-96250499D01*
X110527251Y-96213973D01*
X110700231Y-96142322D01*
X110777192Y-96090897D01*
X110843869Y-96070020D01*
X110846083Y-96070000D01*
X126420000Y-96070000D01*
X128180000Y-94310000D01*
X128180000Y-85371362D01*
X128199685Y-85304323D01*
X128216319Y-85283681D01*
X128343681Y-85156319D01*
X128405004Y-85122834D01*
X128431362Y-85120000D01*
X132088638Y-85120000D01*
X132155677Y-85139685D01*
G37*
G04 #@! TD.AperFunction*
M02*
