G04 #@! TF.GenerationSoftware,KiCad,Pcbnew,8.0.2*
G04 #@! TF.CreationDate,2024-08-20T08:20:47+02:00*
G04 #@! TF.ProjectId,STS1_SIDEPANEL,53545331-5f53-4494-9445-50414e454c2e,rev?*
G04 #@! TF.SameCoordinates,Original*
G04 #@! TF.FileFunction,Legend,Bot*
G04 #@! TF.FilePolarity,Positive*
%FSLAX46Y46*%
G04 Gerber Fmt 4.6, Leading zero omitted, Abs format (unit mm)*
G04 Created by KiCad (PCBNEW 8.0.2) date 2024-08-20 08:20:47*
%MOMM*%
%LPD*%
G01*
G04 APERTURE LIST*
G04 Aperture macros list*
%AMRoundRect*
0 Rectangle with rounded corners*
0 $1 Rounding radius*
0 $2 $3 $4 $5 $6 $7 $8 $9 X,Y pos of 4 corners*
0 Add a 4 corners polygon primitive as box body*
4,1,4,$2,$3,$4,$5,$6,$7,$8,$9,$2,$3,0*
0 Add four circle primitives for the rounded corners*
1,1,$1+$1,$2,$3*
1,1,$1+$1,$4,$5*
1,1,$1+$1,$6,$7*
1,1,$1+$1,$8,$9*
0 Add four rect primitives between the rounded corners*
20,1,$1+$1,$2,$3,$4,$5,0*
20,1,$1+$1,$4,$5,$6,$7,0*
20,1,$1+$1,$6,$7,$8,$9,0*
20,1,$1+$1,$8,$9,$2,$3,0*%
G04 Aperture macros list end*
%ADD10C,0.150000*%
%ADD11C,0.254000*%
%ADD12C,0.120000*%
%ADD13C,0.100000*%
%ADD14C,0.127000*%
%ADD15C,0.200000*%
%ADD16C,6.000000*%
%ADD17O,1.350000X1.350000*%
%ADD18RoundRect,0.200000X0.275000X-0.200000X0.275000X0.200000X-0.275000X0.200000X-0.275000X-0.200000X0*%
%ADD19R,0.300000X1.000000*%
%ADD20R,1.650000X1.300000*%
%ADD21RoundRect,0.200000X-0.200000X-0.275000X0.200000X-0.275000X0.200000X0.275000X-0.200000X0.275000X0*%
%ADD22RoundRect,0.250000X0.450000X-0.350000X0.450000X0.350000X-0.450000X0.350000X-0.450000X-0.350000X0*%
%ADD23R,0.400000X1.000000*%
%ADD24R,2.000000X1.300000*%
%ADD25RoundRect,0.225000X0.250000X-0.225000X0.250000X0.225000X-0.250000X0.225000X-0.250000X-0.225000X0*%
%ADD26RoundRect,0.085000X-0.265000X-0.085000X0.265000X-0.085000X0.265000X0.085000X-0.265000X0.085000X0*%
%ADD27RoundRect,0.250000X0.475000X-0.250000X0.475000X0.250000X-0.475000X0.250000X-0.475000X-0.250000X0*%
%ADD28RoundRect,0.102000X0.325000X-0.475000X0.325000X0.475000X-0.325000X0.475000X-0.325000X-0.475000X0*%
%ADD29RoundRect,0.102000X-1.000000X-0.975000X1.000000X-0.975000X1.000000X0.975000X-1.000000X0.975000X0*%
%ADD30RoundRect,0.102000X0.425000X0.325000X-0.425000X0.325000X-0.425000X-0.325000X0.425000X-0.325000X0*%
%ADD31RoundRect,0.102000X0.715000X2.750000X-0.715000X2.750000X-0.715000X-2.750000X0.715000X-2.750000X0*%
%ADD32RoundRect,0.225000X-0.225000X-0.250000X0.225000X-0.250000X0.225000X0.250000X-0.225000X0.250000X0*%
%ADD33RoundRect,0.200000X0.200000X0.275000X-0.200000X0.275000X-0.200000X-0.275000X0.200000X-0.275000X0*%
%ADD34RoundRect,0.102000X-0.150000X-0.800000X0.150000X-0.800000X0.150000X0.800000X-0.150000X0.800000X0*%
%ADD35RoundRect,0.102000X-1.120000X-1.560000X1.120000X-1.560000X1.120000X1.560000X-1.120000X1.560000X0*%
%ADD36RoundRect,0.150000X0.512500X0.150000X-0.512500X0.150000X-0.512500X-0.150000X0.512500X-0.150000X0*%
%ADD37RoundRect,0.200000X-0.275000X0.200000X-0.275000X-0.200000X0.275000X-0.200000X0.275000X0.200000X0*%
%ADD38RoundRect,0.225000X-0.250000X0.225000X-0.250000X-0.225000X0.250000X-0.225000X0.250000X0.225000X0*%
%ADD39RoundRect,0.100000X0.637500X0.100000X-0.637500X0.100000X-0.637500X-0.100000X0.637500X-0.100000X0*%
%ADD40RoundRect,0.250000X-0.262500X-0.450000X0.262500X-0.450000X0.262500X0.450000X-0.262500X0.450000X0*%
%ADD41RoundRect,0.250000X-0.300000X-0.300000X0.300000X-0.300000X0.300000X0.300000X-0.300000X0.300000X0*%
%ADD42RoundRect,0.250000X0.262500X0.450000X-0.262500X0.450000X-0.262500X-0.450000X0.262500X-0.450000X0*%
%ADD43RoundRect,0.250000X-0.250000X-0.475000X0.250000X-0.475000X0.250000X0.475000X-0.250000X0.475000X0*%
G04 APERTURE END LIST*
D10*
X91647619Y-41254819D02*
X92314285Y-41254819D01*
X92314285Y-41254819D02*
X91647619Y-42254819D01*
X91647619Y-42254819D02*
X92314285Y-42254819D01*
X92695238Y-41873866D02*
X93457143Y-41873866D01*
X94552381Y-41254819D02*
X94885714Y-42254819D01*
X94885714Y-42254819D02*
X95219047Y-41254819D01*
X95504762Y-41350057D02*
X95552381Y-41302438D01*
X95552381Y-41302438D02*
X95647619Y-41254819D01*
X95647619Y-41254819D02*
X95885714Y-41254819D01*
X95885714Y-41254819D02*
X95980952Y-41302438D01*
X95980952Y-41302438D02*
X96028571Y-41350057D01*
X96028571Y-41350057D02*
X96076190Y-41445295D01*
X96076190Y-41445295D02*
X96076190Y-41540533D01*
X96076190Y-41540533D02*
X96028571Y-41683390D01*
X96028571Y-41683390D02*
X95457143Y-42254819D01*
X95457143Y-42254819D02*
X96076190Y-42254819D01*
X96504762Y-42159580D02*
X96552381Y-42207200D01*
X96552381Y-42207200D02*
X96504762Y-42254819D01*
X96504762Y-42254819D02*
X96457143Y-42207200D01*
X96457143Y-42207200D02*
X96504762Y-42159580D01*
X96504762Y-42159580D02*
X96504762Y-42254819D01*
X97457142Y-41254819D02*
X96980952Y-41254819D01*
X96980952Y-41254819D02*
X96933333Y-41731009D01*
X96933333Y-41731009D02*
X96980952Y-41683390D01*
X96980952Y-41683390D02*
X97076190Y-41635771D01*
X97076190Y-41635771D02*
X97314285Y-41635771D01*
X97314285Y-41635771D02*
X97409523Y-41683390D01*
X97409523Y-41683390D02*
X97457142Y-41731009D01*
X97457142Y-41731009D02*
X97504761Y-41826247D01*
X97504761Y-41826247D02*
X97504761Y-42064342D01*
X97504761Y-42064342D02*
X97457142Y-42159580D01*
X97457142Y-42159580D02*
X97409523Y-42207200D01*
X97409523Y-42207200D02*
X97314285Y-42254819D01*
X97314285Y-42254819D02*
X97076190Y-42254819D01*
X97076190Y-42254819D02*
X96980952Y-42207200D01*
X96980952Y-42207200D02*
X96933333Y-42159580D01*
X105769819Y-91982142D02*
X105293628Y-91648809D01*
X105769819Y-91410714D02*
X104769819Y-91410714D01*
X104769819Y-91410714D02*
X104769819Y-91791666D01*
X104769819Y-91791666D02*
X104817438Y-91886904D01*
X104817438Y-91886904D02*
X104865057Y-91934523D01*
X104865057Y-91934523D02*
X104960295Y-91982142D01*
X104960295Y-91982142D02*
X105103152Y-91982142D01*
X105103152Y-91982142D02*
X105198390Y-91934523D01*
X105198390Y-91934523D02*
X105246009Y-91886904D01*
X105246009Y-91886904D02*
X105293628Y-91791666D01*
X105293628Y-91791666D02*
X105293628Y-91410714D01*
X104769819Y-92315476D02*
X104769819Y-92982142D01*
X104769819Y-92982142D02*
X105769819Y-92553571D01*
X105769819Y-93886904D02*
X105769819Y-93315476D01*
X105769819Y-93601190D02*
X104769819Y-93601190D01*
X104769819Y-93601190D02*
X104912676Y-93505952D01*
X104912676Y-93505952D02*
X105007914Y-93410714D01*
X105007914Y-93410714D02*
X105055533Y-93315476D01*
X99892857Y-85829819D02*
X100226190Y-85353628D01*
X100464285Y-85829819D02*
X100464285Y-84829819D01*
X100464285Y-84829819D02*
X100083333Y-84829819D01*
X100083333Y-84829819D02*
X99988095Y-84877438D01*
X99988095Y-84877438D02*
X99940476Y-84925057D01*
X99940476Y-84925057D02*
X99892857Y-85020295D01*
X99892857Y-85020295D02*
X99892857Y-85163152D01*
X99892857Y-85163152D02*
X99940476Y-85258390D01*
X99940476Y-85258390D02*
X99988095Y-85306009D01*
X99988095Y-85306009D02*
X100083333Y-85353628D01*
X100083333Y-85353628D02*
X100464285Y-85353628D01*
X99559523Y-84829819D02*
X98940476Y-84829819D01*
X98940476Y-84829819D02*
X99273809Y-85210771D01*
X99273809Y-85210771D02*
X99130952Y-85210771D01*
X99130952Y-85210771D02*
X99035714Y-85258390D01*
X99035714Y-85258390D02*
X98988095Y-85306009D01*
X98988095Y-85306009D02*
X98940476Y-85401247D01*
X98940476Y-85401247D02*
X98940476Y-85639342D01*
X98940476Y-85639342D02*
X98988095Y-85734580D01*
X98988095Y-85734580D02*
X99035714Y-85782200D01*
X99035714Y-85782200D02*
X99130952Y-85829819D01*
X99130952Y-85829819D02*
X99416666Y-85829819D01*
X99416666Y-85829819D02*
X99511904Y-85782200D01*
X99511904Y-85782200D02*
X99559523Y-85734580D01*
X97988095Y-85829819D02*
X98559523Y-85829819D01*
X98273809Y-85829819D02*
X98273809Y-84829819D01*
X98273809Y-84829819D02*
X98369047Y-84972676D01*
X98369047Y-84972676D02*
X98464285Y-85067914D01*
X98464285Y-85067914D02*
X98559523Y-85115533D01*
X130654819Y-120214286D02*
X130654819Y-120785714D01*
X131654819Y-120500000D02*
X130654819Y-120500000D01*
X131654819Y-121119048D02*
X130654819Y-121119048D01*
X131131009Y-121119048D02*
X131131009Y-121690476D01*
X131654819Y-121690476D02*
X130654819Y-121690476D01*
X131654819Y-122690476D02*
X131654819Y-122119048D01*
X131654819Y-122404762D02*
X130654819Y-122404762D01*
X130654819Y-122404762D02*
X130797676Y-122309524D01*
X130797676Y-122309524D02*
X130892914Y-122214286D01*
X130892914Y-122214286D02*
X130940533Y-122119048D01*
D11*
X98283444Y-120031828D02*
X98283444Y-121059923D01*
X98283444Y-121059923D02*
X98222967Y-121180875D01*
X98222967Y-121180875D02*
X98162491Y-121241352D01*
X98162491Y-121241352D02*
X98041539Y-121301828D01*
X98041539Y-121301828D02*
X97799634Y-121301828D01*
X97799634Y-121301828D02*
X97678682Y-121241352D01*
X97678682Y-121241352D02*
X97618205Y-121180875D01*
X97618205Y-121180875D02*
X97557729Y-121059923D01*
X97557729Y-121059923D02*
X97557729Y-120031828D01*
X97134396Y-120031828D02*
X96711063Y-121301828D01*
X96711063Y-121301828D02*
X96287729Y-120031828D01*
X95199158Y-121301828D02*
X95924873Y-121301828D01*
X95562016Y-121301828D02*
X95562016Y-120031828D01*
X95562016Y-120031828D02*
X95682968Y-120213256D01*
X95682968Y-120213256D02*
X95803920Y-120334209D01*
X95803920Y-120334209D02*
X95924873Y-120394685D01*
D10*
X162122411Y-80363333D02*
X162170031Y-80315714D01*
X162170031Y-80315714D02*
X162217650Y-80172857D01*
X162217650Y-80172857D02*
X162217650Y-80077619D01*
X162217650Y-80077619D02*
X162170031Y-79934762D01*
X162170031Y-79934762D02*
X162074792Y-79839524D01*
X162074792Y-79839524D02*
X161979554Y-79791905D01*
X161979554Y-79791905D02*
X161789078Y-79744286D01*
X161789078Y-79744286D02*
X161646221Y-79744286D01*
X161646221Y-79744286D02*
X161455745Y-79791905D01*
X161455745Y-79791905D02*
X161360507Y-79839524D01*
X161360507Y-79839524D02*
X161265269Y-79934762D01*
X161265269Y-79934762D02*
X161217650Y-80077619D01*
X161217650Y-80077619D02*
X161217650Y-80172857D01*
X161217650Y-80172857D02*
X161265269Y-80315714D01*
X161265269Y-80315714D02*
X161312888Y-80363333D01*
X162217650Y-81315714D02*
X162217650Y-80744286D01*
X162217650Y-81030000D02*
X161217650Y-81030000D01*
X161217650Y-81030000D02*
X161360507Y-80934762D01*
X161360507Y-80934762D02*
X161455745Y-80839524D01*
X161455745Y-80839524D02*
X161503364Y-80744286D01*
X157166189Y-85739819D02*
X157166189Y-84739819D01*
X156118571Y-85644580D02*
X156166190Y-85692200D01*
X156166190Y-85692200D02*
X156309047Y-85739819D01*
X156309047Y-85739819D02*
X156404285Y-85739819D01*
X156404285Y-85739819D02*
X156547142Y-85692200D01*
X156547142Y-85692200D02*
X156642380Y-85596961D01*
X156642380Y-85596961D02*
X156689999Y-85501723D01*
X156689999Y-85501723D02*
X156737618Y-85311247D01*
X156737618Y-85311247D02*
X156737618Y-85168390D01*
X156737618Y-85168390D02*
X156689999Y-84977914D01*
X156689999Y-84977914D02*
X156642380Y-84882676D01*
X156642380Y-84882676D02*
X156547142Y-84787438D01*
X156547142Y-84787438D02*
X156404285Y-84739819D01*
X156404285Y-84739819D02*
X156309047Y-84739819D01*
X156309047Y-84739819D02*
X156166190Y-84787438D01*
X156166190Y-84787438D02*
X156118571Y-84835057D01*
X155166190Y-85739819D02*
X155737618Y-85739819D01*
X155451904Y-85739819D02*
X155451904Y-84739819D01*
X155451904Y-84739819D02*
X155547142Y-84882676D01*
X155547142Y-84882676D02*
X155642380Y-84977914D01*
X155642380Y-84977914D02*
X155737618Y-85025533D01*
X123419580Y-86327142D02*
X123467200Y-86279523D01*
X123467200Y-86279523D02*
X123514819Y-86136666D01*
X123514819Y-86136666D02*
X123514819Y-86041428D01*
X123514819Y-86041428D02*
X123467200Y-85898571D01*
X123467200Y-85898571D02*
X123371961Y-85803333D01*
X123371961Y-85803333D02*
X123276723Y-85755714D01*
X123276723Y-85755714D02*
X123086247Y-85708095D01*
X123086247Y-85708095D02*
X122943390Y-85708095D01*
X122943390Y-85708095D02*
X122752914Y-85755714D01*
X122752914Y-85755714D02*
X122657676Y-85803333D01*
X122657676Y-85803333D02*
X122562438Y-85898571D01*
X122562438Y-85898571D02*
X122514819Y-86041428D01*
X122514819Y-86041428D02*
X122514819Y-86136666D01*
X122514819Y-86136666D02*
X122562438Y-86279523D01*
X122562438Y-86279523D02*
X122610057Y-86327142D01*
X123514819Y-87279523D02*
X123514819Y-86708095D01*
X123514819Y-86993809D02*
X122514819Y-86993809D01*
X122514819Y-86993809D02*
X122657676Y-86898571D01*
X122657676Y-86898571D02*
X122752914Y-86803333D01*
X122752914Y-86803333D02*
X122800533Y-86708095D01*
X123514819Y-88231904D02*
X123514819Y-87660476D01*
X123514819Y-87946190D02*
X122514819Y-87946190D01*
X122514819Y-87946190D02*
X122657676Y-87850952D01*
X122657676Y-87850952D02*
X122752914Y-87755714D01*
X122752914Y-87755714D02*
X122800533Y-87660476D01*
X156054819Y-90559523D02*
X155578628Y-90226190D01*
X156054819Y-89988095D02*
X155054819Y-89988095D01*
X155054819Y-89988095D02*
X155054819Y-90369047D01*
X155054819Y-90369047D02*
X155102438Y-90464285D01*
X155102438Y-90464285D02*
X155150057Y-90511904D01*
X155150057Y-90511904D02*
X155245295Y-90559523D01*
X155245295Y-90559523D02*
X155388152Y-90559523D01*
X155388152Y-90559523D02*
X155483390Y-90511904D01*
X155483390Y-90511904D02*
X155531009Y-90464285D01*
X155531009Y-90464285D02*
X155578628Y-90369047D01*
X155578628Y-90369047D02*
X155578628Y-89988095D01*
X155054819Y-90988095D02*
X155864342Y-90988095D01*
X155864342Y-90988095D02*
X155959580Y-91035714D01*
X155959580Y-91035714D02*
X156007200Y-91083333D01*
X156007200Y-91083333D02*
X156054819Y-91178571D01*
X156054819Y-91178571D02*
X156054819Y-91369047D01*
X156054819Y-91369047D02*
X156007200Y-91464285D01*
X156007200Y-91464285D02*
X155959580Y-91511904D01*
X155959580Y-91511904D02*
X155864342Y-91559523D01*
X155864342Y-91559523D02*
X155054819Y-91559523D01*
X155150057Y-91988095D02*
X155102438Y-92035714D01*
X155102438Y-92035714D02*
X155054819Y-92130952D01*
X155054819Y-92130952D02*
X155054819Y-92369047D01*
X155054819Y-92369047D02*
X155102438Y-92464285D01*
X155102438Y-92464285D02*
X155150057Y-92511904D01*
X155150057Y-92511904D02*
X155245295Y-92559523D01*
X155245295Y-92559523D02*
X155340533Y-92559523D01*
X155340533Y-92559523D02*
X155483390Y-92511904D01*
X155483390Y-92511904D02*
X156054819Y-91940476D01*
X156054819Y-91940476D02*
X156054819Y-92559523D01*
X115354285Y-96124819D02*
X115354285Y-95124819D01*
X115354285Y-95124819D02*
X115116190Y-95124819D01*
X115116190Y-95124819D02*
X114973333Y-95172438D01*
X114973333Y-95172438D02*
X114878095Y-95267676D01*
X114878095Y-95267676D02*
X114830476Y-95362914D01*
X114830476Y-95362914D02*
X114782857Y-95553390D01*
X114782857Y-95553390D02*
X114782857Y-95696247D01*
X114782857Y-95696247D02*
X114830476Y-95886723D01*
X114830476Y-95886723D02*
X114878095Y-95981961D01*
X114878095Y-95981961D02*
X114973333Y-96077200D01*
X114973333Y-96077200D02*
X115116190Y-96124819D01*
X115116190Y-96124819D02*
X115354285Y-96124819D01*
X114401904Y-95220057D02*
X114354285Y-95172438D01*
X114354285Y-95172438D02*
X114259047Y-95124819D01*
X114259047Y-95124819D02*
X114020952Y-95124819D01*
X114020952Y-95124819D02*
X113925714Y-95172438D01*
X113925714Y-95172438D02*
X113878095Y-95220057D01*
X113878095Y-95220057D02*
X113830476Y-95315295D01*
X113830476Y-95315295D02*
X113830476Y-95410533D01*
X113830476Y-95410533D02*
X113878095Y-95553390D01*
X113878095Y-95553390D02*
X114449523Y-96124819D01*
X114449523Y-96124819D02*
X113830476Y-96124819D01*
X112878095Y-96124819D02*
X113449523Y-96124819D01*
X113163809Y-96124819D02*
X113163809Y-95124819D01*
X113163809Y-95124819D02*
X113259047Y-95267676D01*
X113259047Y-95267676D02*
X113354285Y-95362914D01*
X113354285Y-95362914D02*
X113449523Y-95410533D01*
X118616666Y-80454819D02*
X119092856Y-80454819D01*
X119092856Y-80454819D02*
X119092856Y-79454819D01*
X117759523Y-80454819D02*
X118330951Y-80454819D01*
X118045237Y-80454819D02*
X118045237Y-79454819D01*
X118045237Y-79454819D02*
X118140475Y-79597676D01*
X118140475Y-79597676D02*
X118235713Y-79692914D01*
X118235713Y-79692914D02*
X118330951Y-79740533D01*
X114042857Y-82509580D02*
X114090476Y-82557200D01*
X114090476Y-82557200D02*
X114233333Y-82604819D01*
X114233333Y-82604819D02*
X114328571Y-82604819D01*
X114328571Y-82604819D02*
X114471428Y-82557200D01*
X114471428Y-82557200D02*
X114566666Y-82461961D01*
X114566666Y-82461961D02*
X114614285Y-82366723D01*
X114614285Y-82366723D02*
X114661904Y-82176247D01*
X114661904Y-82176247D02*
X114661904Y-82033390D01*
X114661904Y-82033390D02*
X114614285Y-81842914D01*
X114614285Y-81842914D02*
X114566666Y-81747676D01*
X114566666Y-81747676D02*
X114471428Y-81652438D01*
X114471428Y-81652438D02*
X114328571Y-81604819D01*
X114328571Y-81604819D02*
X114233333Y-81604819D01*
X114233333Y-81604819D02*
X114090476Y-81652438D01*
X114090476Y-81652438D02*
X114042857Y-81700057D01*
X113661904Y-81700057D02*
X113614285Y-81652438D01*
X113614285Y-81652438D02*
X113519047Y-81604819D01*
X113519047Y-81604819D02*
X113280952Y-81604819D01*
X113280952Y-81604819D02*
X113185714Y-81652438D01*
X113185714Y-81652438D02*
X113138095Y-81700057D01*
X113138095Y-81700057D02*
X113090476Y-81795295D01*
X113090476Y-81795295D02*
X113090476Y-81890533D01*
X113090476Y-81890533D02*
X113138095Y-82033390D01*
X113138095Y-82033390D02*
X113709523Y-82604819D01*
X113709523Y-82604819D02*
X113090476Y-82604819D01*
X112138095Y-82604819D02*
X112709523Y-82604819D01*
X112423809Y-82604819D02*
X112423809Y-81604819D01*
X112423809Y-81604819D02*
X112519047Y-81747676D01*
X112519047Y-81747676D02*
X112614285Y-81842914D01*
X112614285Y-81842914D02*
X112709523Y-81890533D01*
X110892857Y-80679819D02*
X111226190Y-80203628D01*
X111464285Y-80679819D02*
X111464285Y-79679819D01*
X111464285Y-79679819D02*
X111083333Y-79679819D01*
X111083333Y-79679819D02*
X110988095Y-79727438D01*
X110988095Y-79727438D02*
X110940476Y-79775057D01*
X110940476Y-79775057D02*
X110892857Y-79870295D01*
X110892857Y-79870295D02*
X110892857Y-80013152D01*
X110892857Y-80013152D02*
X110940476Y-80108390D01*
X110940476Y-80108390D02*
X110988095Y-80156009D01*
X110988095Y-80156009D02*
X111083333Y-80203628D01*
X111083333Y-80203628D02*
X111464285Y-80203628D01*
X110511904Y-79775057D02*
X110464285Y-79727438D01*
X110464285Y-79727438D02*
X110369047Y-79679819D01*
X110369047Y-79679819D02*
X110130952Y-79679819D01*
X110130952Y-79679819D02*
X110035714Y-79727438D01*
X110035714Y-79727438D02*
X109988095Y-79775057D01*
X109988095Y-79775057D02*
X109940476Y-79870295D01*
X109940476Y-79870295D02*
X109940476Y-79965533D01*
X109940476Y-79965533D02*
X109988095Y-80108390D01*
X109988095Y-80108390D02*
X110559523Y-80679819D01*
X110559523Y-80679819D02*
X109940476Y-80679819D01*
X108988095Y-80679819D02*
X109559523Y-80679819D01*
X109273809Y-80679819D02*
X109273809Y-79679819D01*
X109273809Y-79679819D02*
X109369047Y-79822676D01*
X109369047Y-79822676D02*
X109464285Y-79917914D01*
X109464285Y-79917914D02*
X109559523Y-79965533D01*
X113438333Y-130384819D02*
X113438333Y-131099104D01*
X113438333Y-131099104D02*
X113485952Y-131241961D01*
X113485952Y-131241961D02*
X113581190Y-131337200D01*
X113581190Y-131337200D02*
X113724047Y-131384819D01*
X113724047Y-131384819D02*
X113819285Y-131384819D01*
X112438333Y-131384819D02*
X113009761Y-131384819D01*
X112724047Y-131384819D02*
X112724047Y-130384819D01*
X112724047Y-130384819D02*
X112819285Y-130527676D01*
X112819285Y-130527676D02*
X112914523Y-130622914D01*
X112914523Y-130622914D02*
X113009761Y-130670533D01*
X130798094Y-77582319D02*
X130798094Y-78391842D01*
X130798094Y-78391842D02*
X130750475Y-78487080D01*
X130750475Y-78487080D02*
X130702856Y-78534700D01*
X130702856Y-78534700D02*
X130607618Y-78582319D01*
X130607618Y-78582319D02*
X130417142Y-78582319D01*
X130417142Y-78582319D02*
X130321904Y-78534700D01*
X130321904Y-78534700D02*
X130274285Y-78487080D01*
X130274285Y-78487080D02*
X130226666Y-78391842D01*
X130226666Y-78391842D02*
X130226666Y-77582319D01*
X129226666Y-78582319D02*
X129798094Y-78582319D01*
X129512380Y-78582319D02*
X129512380Y-77582319D01*
X129512380Y-77582319D02*
X129607618Y-77725176D01*
X129607618Y-77725176D02*
X129702856Y-77820414D01*
X129702856Y-77820414D02*
X129798094Y-77868033D01*
X128274285Y-78582319D02*
X128845713Y-78582319D01*
X128559999Y-78582319D02*
X128559999Y-77582319D01*
X128559999Y-77582319D02*
X128655237Y-77725176D01*
X128655237Y-77725176D02*
X128750475Y-77820414D01*
X128750475Y-77820414D02*
X128845713Y-77868033D01*
X158054819Y-90559523D02*
X157578628Y-90226190D01*
X158054819Y-89988095D02*
X157054819Y-89988095D01*
X157054819Y-89988095D02*
X157054819Y-90369047D01*
X157054819Y-90369047D02*
X157102438Y-90464285D01*
X157102438Y-90464285D02*
X157150057Y-90511904D01*
X157150057Y-90511904D02*
X157245295Y-90559523D01*
X157245295Y-90559523D02*
X157388152Y-90559523D01*
X157388152Y-90559523D02*
X157483390Y-90511904D01*
X157483390Y-90511904D02*
X157531009Y-90464285D01*
X157531009Y-90464285D02*
X157578628Y-90369047D01*
X157578628Y-90369047D02*
X157578628Y-89988095D01*
X157054819Y-90988095D02*
X157864342Y-90988095D01*
X157864342Y-90988095D02*
X157959580Y-91035714D01*
X157959580Y-91035714D02*
X158007200Y-91083333D01*
X158007200Y-91083333D02*
X158054819Y-91178571D01*
X158054819Y-91178571D02*
X158054819Y-91369047D01*
X158054819Y-91369047D02*
X158007200Y-91464285D01*
X158007200Y-91464285D02*
X157959580Y-91511904D01*
X157959580Y-91511904D02*
X157864342Y-91559523D01*
X157864342Y-91559523D02*
X157054819Y-91559523D01*
X158054819Y-92559523D02*
X158054819Y-91988095D01*
X158054819Y-92273809D02*
X157054819Y-92273809D01*
X157054819Y-92273809D02*
X157197676Y-92178571D01*
X157197676Y-92178571D02*
X157292914Y-92083333D01*
X157292914Y-92083333D02*
X157340533Y-91988095D01*
X104124819Y-91977142D02*
X103648628Y-91643809D01*
X104124819Y-91405714D02*
X103124819Y-91405714D01*
X103124819Y-91405714D02*
X103124819Y-91786666D01*
X103124819Y-91786666D02*
X103172438Y-91881904D01*
X103172438Y-91881904D02*
X103220057Y-91929523D01*
X103220057Y-91929523D02*
X103315295Y-91977142D01*
X103315295Y-91977142D02*
X103458152Y-91977142D01*
X103458152Y-91977142D02*
X103553390Y-91929523D01*
X103553390Y-91929523D02*
X103601009Y-91881904D01*
X103601009Y-91881904D02*
X103648628Y-91786666D01*
X103648628Y-91786666D02*
X103648628Y-91405714D01*
X103124819Y-92834285D02*
X103124819Y-92643809D01*
X103124819Y-92643809D02*
X103172438Y-92548571D01*
X103172438Y-92548571D02*
X103220057Y-92500952D01*
X103220057Y-92500952D02*
X103362914Y-92405714D01*
X103362914Y-92405714D02*
X103553390Y-92358095D01*
X103553390Y-92358095D02*
X103934342Y-92358095D01*
X103934342Y-92358095D02*
X104029580Y-92405714D01*
X104029580Y-92405714D02*
X104077200Y-92453333D01*
X104077200Y-92453333D02*
X104124819Y-92548571D01*
X104124819Y-92548571D02*
X104124819Y-92739047D01*
X104124819Y-92739047D02*
X104077200Y-92834285D01*
X104077200Y-92834285D02*
X104029580Y-92881904D01*
X104029580Y-92881904D02*
X103934342Y-92929523D01*
X103934342Y-92929523D02*
X103696247Y-92929523D01*
X103696247Y-92929523D02*
X103601009Y-92881904D01*
X103601009Y-92881904D02*
X103553390Y-92834285D01*
X103553390Y-92834285D02*
X103505771Y-92739047D01*
X103505771Y-92739047D02*
X103505771Y-92548571D01*
X103505771Y-92548571D02*
X103553390Y-92453333D01*
X103553390Y-92453333D02*
X103601009Y-92405714D01*
X103601009Y-92405714D02*
X103696247Y-92358095D01*
X104124819Y-93881904D02*
X104124819Y-93310476D01*
X104124819Y-93596190D02*
X103124819Y-93596190D01*
X103124819Y-93596190D02*
X103267676Y-93500952D01*
X103267676Y-93500952D02*
X103362914Y-93405714D01*
X103362914Y-93405714D02*
X103410533Y-93310476D01*
X107426580Y-91878142D02*
X107474200Y-91830523D01*
X107474200Y-91830523D02*
X107521819Y-91687666D01*
X107521819Y-91687666D02*
X107521819Y-91592428D01*
X107521819Y-91592428D02*
X107474200Y-91449571D01*
X107474200Y-91449571D02*
X107378961Y-91354333D01*
X107378961Y-91354333D02*
X107283723Y-91306714D01*
X107283723Y-91306714D02*
X107093247Y-91259095D01*
X107093247Y-91259095D02*
X106950390Y-91259095D01*
X106950390Y-91259095D02*
X106759914Y-91306714D01*
X106759914Y-91306714D02*
X106664676Y-91354333D01*
X106664676Y-91354333D02*
X106569438Y-91449571D01*
X106569438Y-91449571D02*
X106521819Y-91592428D01*
X106521819Y-91592428D02*
X106521819Y-91687666D01*
X106521819Y-91687666D02*
X106569438Y-91830523D01*
X106569438Y-91830523D02*
X106617057Y-91878142D01*
X106521819Y-92211476D02*
X106521819Y-92830523D01*
X106521819Y-92830523D02*
X106902771Y-92497190D01*
X106902771Y-92497190D02*
X106902771Y-92640047D01*
X106902771Y-92640047D02*
X106950390Y-92735285D01*
X106950390Y-92735285D02*
X106998009Y-92782904D01*
X106998009Y-92782904D02*
X107093247Y-92830523D01*
X107093247Y-92830523D02*
X107331342Y-92830523D01*
X107331342Y-92830523D02*
X107426580Y-92782904D01*
X107426580Y-92782904D02*
X107474200Y-92735285D01*
X107474200Y-92735285D02*
X107521819Y-92640047D01*
X107521819Y-92640047D02*
X107521819Y-92354333D01*
X107521819Y-92354333D02*
X107474200Y-92259095D01*
X107474200Y-92259095D02*
X107426580Y-92211476D01*
X107521819Y-93782904D02*
X107521819Y-93211476D01*
X107521819Y-93497190D02*
X106521819Y-93497190D01*
X106521819Y-93497190D02*
X106664676Y-93401952D01*
X106664676Y-93401952D02*
X106759914Y-93306714D01*
X106759914Y-93306714D02*
X106807533Y-93211476D01*
X100032857Y-87429819D02*
X100366190Y-86953628D01*
X100604285Y-87429819D02*
X100604285Y-86429819D01*
X100604285Y-86429819D02*
X100223333Y-86429819D01*
X100223333Y-86429819D02*
X100128095Y-86477438D01*
X100128095Y-86477438D02*
X100080476Y-86525057D01*
X100080476Y-86525057D02*
X100032857Y-86620295D01*
X100032857Y-86620295D02*
X100032857Y-86763152D01*
X100032857Y-86763152D02*
X100080476Y-86858390D01*
X100080476Y-86858390D02*
X100128095Y-86906009D01*
X100128095Y-86906009D02*
X100223333Y-86953628D01*
X100223333Y-86953628D02*
X100604285Y-86953628D01*
X99175714Y-86763152D02*
X99175714Y-87429819D01*
X99413809Y-86382200D02*
X99651904Y-87096485D01*
X99651904Y-87096485D02*
X99032857Y-87096485D01*
X98128095Y-87429819D02*
X98699523Y-87429819D01*
X98413809Y-87429819D02*
X98413809Y-86429819D01*
X98413809Y-86429819D02*
X98509047Y-86572676D01*
X98509047Y-86572676D02*
X98604285Y-86667914D01*
X98604285Y-86667914D02*
X98699523Y-86715533D01*
D11*
X150633571Y-111493842D02*
X150754523Y-111554318D01*
X150754523Y-111554318D02*
X150996428Y-111554318D01*
X150996428Y-111554318D02*
X151117380Y-111493842D01*
X151117380Y-111493842D02*
X151177857Y-111433365D01*
X151177857Y-111433365D02*
X151238333Y-111312413D01*
X151238333Y-111312413D02*
X151238333Y-110949556D01*
X151238333Y-110949556D02*
X151177857Y-110828603D01*
X151177857Y-110828603D02*
X151117380Y-110768127D01*
X151117380Y-110768127D02*
X150996428Y-110707651D01*
X150996428Y-110707651D02*
X150754523Y-110707651D01*
X150754523Y-110707651D02*
X150633571Y-110768127D01*
X149545000Y-111554318D02*
X149545000Y-110889080D01*
X149545000Y-110889080D02*
X149605476Y-110768127D01*
X149605476Y-110768127D02*
X149726428Y-110707651D01*
X149726428Y-110707651D02*
X149968333Y-110707651D01*
X149968333Y-110707651D02*
X150089286Y-110768127D01*
X149545000Y-111493842D02*
X149665952Y-111554318D01*
X149665952Y-111554318D02*
X149968333Y-111554318D01*
X149968333Y-111554318D02*
X150089286Y-111493842D01*
X150089286Y-111493842D02*
X150149762Y-111372889D01*
X150149762Y-111372889D02*
X150149762Y-111251937D01*
X150149762Y-111251937D02*
X150089286Y-111130984D01*
X150089286Y-111130984D02*
X149968333Y-111070508D01*
X149968333Y-111070508D02*
X149665952Y-111070508D01*
X149665952Y-111070508D02*
X149545000Y-111010032D01*
X148940238Y-111554318D02*
X148940238Y-110707651D01*
X148940238Y-110828603D02*
X148879761Y-110768127D01*
X148879761Y-110768127D02*
X148758809Y-110707651D01*
X148758809Y-110707651D02*
X148577380Y-110707651D01*
X148577380Y-110707651D02*
X148456428Y-110768127D01*
X148456428Y-110768127D02*
X148395952Y-110889080D01*
X148395952Y-110889080D02*
X148395952Y-111554318D01*
X148395952Y-110889080D02*
X148335476Y-110768127D01*
X148335476Y-110768127D02*
X148214523Y-110707651D01*
X148214523Y-110707651D02*
X148033095Y-110707651D01*
X148033095Y-110707651D02*
X147912142Y-110768127D01*
X147912142Y-110768127D02*
X147851666Y-110889080D01*
X147851666Y-110889080D02*
X147851666Y-111554318D01*
X146581666Y-111554318D02*
X147307381Y-111554318D01*
X146944524Y-111554318D02*
X146944524Y-110284318D01*
X146944524Y-110284318D02*
X147065476Y-110465746D01*
X147065476Y-110465746D02*
X147186428Y-110586699D01*
X147186428Y-110586699D02*
X147307381Y-110647175D01*
D10*
X110080475Y-84109819D02*
X110080475Y-83109819D01*
X110080475Y-83109819D02*
X109747142Y-83824104D01*
X109747142Y-83824104D02*
X109413809Y-83109819D01*
X109413809Y-83109819D02*
X109413809Y-84109819D01*
X108937618Y-84109819D02*
X108937618Y-83109819D01*
X108937618Y-83109819D02*
X108556666Y-83109819D01*
X108556666Y-83109819D02*
X108461428Y-83157438D01*
X108461428Y-83157438D02*
X108413809Y-83205057D01*
X108413809Y-83205057D02*
X108366190Y-83300295D01*
X108366190Y-83300295D02*
X108366190Y-83443152D01*
X108366190Y-83443152D02*
X108413809Y-83538390D01*
X108413809Y-83538390D02*
X108461428Y-83586009D01*
X108461428Y-83586009D02*
X108556666Y-83633628D01*
X108556666Y-83633628D02*
X108937618Y-83633628D01*
X107937618Y-84109819D02*
X107937618Y-83109819D01*
X107937618Y-83109819D02*
X107556666Y-83109819D01*
X107556666Y-83109819D02*
X107461428Y-83157438D01*
X107461428Y-83157438D02*
X107413809Y-83205057D01*
X107413809Y-83205057D02*
X107366190Y-83300295D01*
X107366190Y-83300295D02*
X107366190Y-83443152D01*
X107366190Y-83443152D02*
X107413809Y-83538390D01*
X107413809Y-83538390D02*
X107461428Y-83586009D01*
X107461428Y-83586009D02*
X107556666Y-83633628D01*
X107556666Y-83633628D02*
X107937618Y-83633628D01*
X107080475Y-83109819D02*
X106509047Y-83109819D01*
X106794761Y-84109819D02*
X106794761Y-83109819D01*
X105651904Y-84109819D02*
X106223332Y-84109819D01*
X105937618Y-84109819D02*
X105937618Y-83109819D01*
X105937618Y-83109819D02*
X106032856Y-83252676D01*
X106032856Y-83252676D02*
X106128094Y-83347914D01*
X106128094Y-83347914D02*
X106223332Y-83395533D01*
X111450357Y-93334819D02*
X111783690Y-92858628D01*
X112021785Y-93334819D02*
X112021785Y-92334819D01*
X112021785Y-92334819D02*
X111640833Y-92334819D01*
X111640833Y-92334819D02*
X111545595Y-92382438D01*
X111545595Y-92382438D02*
X111497976Y-92430057D01*
X111497976Y-92430057D02*
X111450357Y-92525295D01*
X111450357Y-92525295D02*
X111450357Y-92668152D01*
X111450357Y-92668152D02*
X111497976Y-92763390D01*
X111497976Y-92763390D02*
X111545595Y-92811009D01*
X111545595Y-92811009D02*
X111640833Y-92858628D01*
X111640833Y-92858628D02*
X112021785Y-92858628D01*
X110545595Y-92334819D02*
X111021785Y-92334819D01*
X111021785Y-92334819D02*
X111069404Y-92811009D01*
X111069404Y-92811009D02*
X111021785Y-92763390D01*
X111021785Y-92763390D02*
X110926547Y-92715771D01*
X110926547Y-92715771D02*
X110688452Y-92715771D01*
X110688452Y-92715771D02*
X110593214Y-92763390D01*
X110593214Y-92763390D02*
X110545595Y-92811009D01*
X110545595Y-92811009D02*
X110497976Y-92906247D01*
X110497976Y-92906247D02*
X110497976Y-93144342D01*
X110497976Y-93144342D02*
X110545595Y-93239580D01*
X110545595Y-93239580D02*
X110593214Y-93287200D01*
X110593214Y-93287200D02*
X110688452Y-93334819D01*
X110688452Y-93334819D02*
X110926547Y-93334819D01*
X110926547Y-93334819D02*
X111021785Y-93287200D01*
X111021785Y-93287200D02*
X111069404Y-93239580D01*
X109545595Y-93334819D02*
X110117023Y-93334819D01*
X109831309Y-93334819D02*
X109831309Y-92334819D01*
X109831309Y-92334819D02*
X109926547Y-92477676D01*
X109926547Y-92477676D02*
X110021785Y-92572914D01*
X110021785Y-92572914D02*
X110117023Y-92620533D01*
X119139285Y-89379819D02*
X119139285Y-88379819D01*
X119139285Y-88379819D02*
X118901190Y-88379819D01*
X118901190Y-88379819D02*
X118758333Y-88427438D01*
X118758333Y-88427438D02*
X118663095Y-88522676D01*
X118663095Y-88522676D02*
X118615476Y-88617914D01*
X118615476Y-88617914D02*
X118567857Y-88808390D01*
X118567857Y-88808390D02*
X118567857Y-88951247D01*
X118567857Y-88951247D02*
X118615476Y-89141723D01*
X118615476Y-89141723D02*
X118663095Y-89236961D01*
X118663095Y-89236961D02*
X118758333Y-89332200D01*
X118758333Y-89332200D02*
X118901190Y-89379819D01*
X118901190Y-89379819D02*
X119139285Y-89379819D01*
X117615476Y-89379819D02*
X118186904Y-89379819D01*
X117901190Y-89379819D02*
X117901190Y-88379819D01*
X117901190Y-88379819D02*
X117996428Y-88522676D01*
X117996428Y-88522676D02*
X118091666Y-88617914D01*
X118091666Y-88617914D02*
X118186904Y-88665533D01*
X116663095Y-89379819D02*
X117234523Y-89379819D01*
X116948809Y-89379819D02*
X116948809Y-88379819D01*
X116948809Y-88379819D02*
X117044047Y-88522676D01*
X117044047Y-88522676D02*
X117139285Y-88617914D01*
X117139285Y-88617914D02*
X117234523Y-88665533D01*
X105199580Y-82642142D02*
X105247200Y-82594523D01*
X105247200Y-82594523D02*
X105294819Y-82451666D01*
X105294819Y-82451666D02*
X105294819Y-82356428D01*
X105294819Y-82356428D02*
X105247200Y-82213571D01*
X105247200Y-82213571D02*
X105151961Y-82118333D01*
X105151961Y-82118333D02*
X105056723Y-82070714D01*
X105056723Y-82070714D02*
X104866247Y-82023095D01*
X104866247Y-82023095D02*
X104723390Y-82023095D01*
X104723390Y-82023095D02*
X104532914Y-82070714D01*
X104532914Y-82070714D02*
X104437676Y-82118333D01*
X104437676Y-82118333D02*
X104342438Y-82213571D01*
X104342438Y-82213571D02*
X104294819Y-82356428D01*
X104294819Y-82356428D02*
X104294819Y-82451666D01*
X104294819Y-82451666D02*
X104342438Y-82594523D01*
X104342438Y-82594523D02*
X104390057Y-82642142D01*
X104294819Y-83546904D02*
X104294819Y-83070714D01*
X104294819Y-83070714D02*
X104771009Y-83023095D01*
X104771009Y-83023095D02*
X104723390Y-83070714D01*
X104723390Y-83070714D02*
X104675771Y-83165952D01*
X104675771Y-83165952D02*
X104675771Y-83404047D01*
X104675771Y-83404047D02*
X104723390Y-83499285D01*
X104723390Y-83499285D02*
X104771009Y-83546904D01*
X104771009Y-83546904D02*
X104866247Y-83594523D01*
X104866247Y-83594523D02*
X105104342Y-83594523D01*
X105104342Y-83594523D02*
X105199580Y-83546904D01*
X105199580Y-83546904D02*
X105247200Y-83499285D01*
X105247200Y-83499285D02*
X105294819Y-83404047D01*
X105294819Y-83404047D02*
X105294819Y-83165952D01*
X105294819Y-83165952D02*
X105247200Y-83070714D01*
X105247200Y-83070714D02*
X105199580Y-83023095D01*
X105294819Y-84546904D02*
X105294819Y-83975476D01*
X105294819Y-84261190D02*
X104294819Y-84261190D01*
X104294819Y-84261190D02*
X104437676Y-84165952D01*
X104437676Y-84165952D02*
X104532914Y-84070714D01*
X104532914Y-84070714D02*
X104580533Y-83975476D01*
X125499580Y-86257142D02*
X125547200Y-86209523D01*
X125547200Y-86209523D02*
X125594819Y-86066666D01*
X125594819Y-86066666D02*
X125594819Y-85971428D01*
X125594819Y-85971428D02*
X125547200Y-85828571D01*
X125547200Y-85828571D02*
X125451961Y-85733333D01*
X125451961Y-85733333D02*
X125356723Y-85685714D01*
X125356723Y-85685714D02*
X125166247Y-85638095D01*
X125166247Y-85638095D02*
X125023390Y-85638095D01*
X125023390Y-85638095D02*
X124832914Y-85685714D01*
X124832914Y-85685714D02*
X124737676Y-85733333D01*
X124737676Y-85733333D02*
X124642438Y-85828571D01*
X124642438Y-85828571D02*
X124594819Y-85971428D01*
X124594819Y-85971428D02*
X124594819Y-86066666D01*
X124594819Y-86066666D02*
X124642438Y-86209523D01*
X124642438Y-86209523D02*
X124690057Y-86257142D01*
X124594819Y-87114285D02*
X124594819Y-86923809D01*
X124594819Y-86923809D02*
X124642438Y-86828571D01*
X124642438Y-86828571D02*
X124690057Y-86780952D01*
X124690057Y-86780952D02*
X124832914Y-86685714D01*
X124832914Y-86685714D02*
X125023390Y-86638095D01*
X125023390Y-86638095D02*
X125404342Y-86638095D01*
X125404342Y-86638095D02*
X125499580Y-86685714D01*
X125499580Y-86685714D02*
X125547200Y-86733333D01*
X125547200Y-86733333D02*
X125594819Y-86828571D01*
X125594819Y-86828571D02*
X125594819Y-87019047D01*
X125594819Y-87019047D02*
X125547200Y-87114285D01*
X125547200Y-87114285D02*
X125499580Y-87161904D01*
X125499580Y-87161904D02*
X125404342Y-87209523D01*
X125404342Y-87209523D02*
X125166247Y-87209523D01*
X125166247Y-87209523D02*
X125071009Y-87161904D01*
X125071009Y-87161904D02*
X125023390Y-87114285D01*
X125023390Y-87114285D02*
X124975771Y-87019047D01*
X124975771Y-87019047D02*
X124975771Y-86828571D01*
X124975771Y-86828571D02*
X125023390Y-86733333D01*
X125023390Y-86733333D02*
X125071009Y-86685714D01*
X125071009Y-86685714D02*
X125166247Y-86638095D01*
X125594819Y-88161904D02*
X125594819Y-87590476D01*
X125594819Y-87876190D02*
X124594819Y-87876190D01*
X124594819Y-87876190D02*
X124737676Y-87780952D01*
X124737676Y-87780952D02*
X124832914Y-87685714D01*
X124832914Y-87685714D02*
X124880533Y-87590476D01*
X128442857Y-85124819D02*
X128776190Y-84648628D01*
X129014285Y-85124819D02*
X129014285Y-84124819D01*
X129014285Y-84124819D02*
X128633333Y-84124819D01*
X128633333Y-84124819D02*
X128538095Y-84172438D01*
X128538095Y-84172438D02*
X128490476Y-84220057D01*
X128490476Y-84220057D02*
X128442857Y-84315295D01*
X128442857Y-84315295D02*
X128442857Y-84458152D01*
X128442857Y-84458152D02*
X128490476Y-84553390D01*
X128490476Y-84553390D02*
X128538095Y-84601009D01*
X128538095Y-84601009D02*
X128633333Y-84648628D01*
X128633333Y-84648628D02*
X129014285Y-84648628D01*
X127490476Y-85124819D02*
X128061904Y-85124819D01*
X127776190Y-85124819D02*
X127776190Y-84124819D01*
X127776190Y-84124819D02*
X127871428Y-84267676D01*
X127871428Y-84267676D02*
X127966666Y-84362914D01*
X127966666Y-84362914D02*
X128061904Y-84410533D01*
X126538095Y-85124819D02*
X127109523Y-85124819D01*
X126823809Y-85124819D02*
X126823809Y-84124819D01*
X126823809Y-84124819D02*
X126919047Y-84267676D01*
X126919047Y-84267676D02*
X127014285Y-84362914D01*
X127014285Y-84362914D02*
X127109523Y-84410533D01*
X118702857Y-91689580D02*
X118750476Y-91737200D01*
X118750476Y-91737200D02*
X118893333Y-91784819D01*
X118893333Y-91784819D02*
X118988571Y-91784819D01*
X118988571Y-91784819D02*
X119131428Y-91737200D01*
X119131428Y-91737200D02*
X119226666Y-91641961D01*
X119226666Y-91641961D02*
X119274285Y-91546723D01*
X119274285Y-91546723D02*
X119321904Y-91356247D01*
X119321904Y-91356247D02*
X119321904Y-91213390D01*
X119321904Y-91213390D02*
X119274285Y-91022914D01*
X119274285Y-91022914D02*
X119226666Y-90927676D01*
X119226666Y-90927676D02*
X119131428Y-90832438D01*
X119131428Y-90832438D02*
X118988571Y-90784819D01*
X118988571Y-90784819D02*
X118893333Y-90784819D01*
X118893333Y-90784819D02*
X118750476Y-90832438D01*
X118750476Y-90832438D02*
X118702857Y-90880057D01*
X117845714Y-91118152D02*
X117845714Y-91784819D01*
X118083809Y-90737200D02*
X118321904Y-91451485D01*
X118321904Y-91451485D02*
X117702857Y-91451485D01*
X116798095Y-91784819D02*
X117369523Y-91784819D01*
X117083809Y-91784819D02*
X117083809Y-90784819D01*
X117083809Y-90784819D02*
X117179047Y-90927676D01*
X117179047Y-90927676D02*
X117274285Y-91022914D01*
X117274285Y-91022914D02*
X117369523Y-91070533D01*
X93967000Y-49997000D02*
X118737000Y-49980400D01*
D12*
X104100000Y-69500000D02*
X104100000Y-79500000D01*
D10*
X108737000Y-63397000D02*
X108735000Y-50056600D01*
X118737000Y-63397000D02*
X108737000Y-63397000D01*
X118742600Y-44207000D02*
X118737000Y-63397000D01*
D12*
X144430000Y-112250000D02*
X144430000Y-63355000D01*
X153320000Y-63355000D02*
X153320000Y-112250000D01*
X153320000Y-112250000D02*
X144430000Y-112250000D01*
X104747500Y-89747258D02*
X104747500Y-89272742D01*
X105792500Y-89747258D02*
X105792500Y-89272742D01*
D13*
X135230000Y-122870000D02*
X151430000Y-122870000D01*
X135230000Y-124880000D02*
X135230000Y-122870000D01*
X137330000Y-127420000D02*
X135230000Y-127420000D01*
X138030000Y-128420000D02*
X138030000Y-128420000D01*
X138130000Y-128420000D02*
X138130000Y-128420000D01*
X149330000Y-127420000D02*
X151430000Y-127420000D01*
X151430000Y-122870000D02*
X151430000Y-124880000D01*
X138030000Y-128420000D02*
G75*
G02*
X138130000Y-128420000I50000J0D01*
G01*
X138130000Y-128420000D02*
G75*
G02*
X138030000Y-128420000I-50000J0D01*
G01*
D12*
X102287742Y-84842500D02*
X102762258Y-84842500D01*
X102287742Y-85887500D02*
X102762258Y-85887500D01*
X128815000Y-121727064D02*
X128815000Y-121272936D01*
X130285000Y-121727064D02*
X130285000Y-121272936D01*
D11*
X92435000Y-118200000D02*
X92435000Y-119800000D01*
X92435000Y-118200000D02*
X101635000Y-118200000D01*
X92435000Y-123500000D02*
X92435000Y-121800000D01*
X92435000Y-123500000D02*
X94935000Y-123500000D01*
X101635000Y-118200000D02*
X101635000Y-119800000D01*
X101635000Y-123500000D02*
X99135000Y-123500000D01*
X101635000Y-123500000D02*
X101635000Y-121800000D01*
D12*
X161272831Y-83140580D02*
X161272831Y-82859420D01*
X162292831Y-83140580D02*
X162292831Y-82859420D01*
X156840000Y-82685000D02*
X155540000Y-82685000D01*
X156840000Y-84485000D02*
X155740000Y-84485000D01*
X155490000Y-84765000D02*
X155210000Y-84485000D01*
X155490000Y-84485000D01*
X155490000Y-84765000D01*
G36*
X155490000Y-84765000D02*
G01*
X155210000Y-84485000D01*
X155490000Y-84485000D01*
X155490000Y-84765000D01*
G37*
X122305000Y-83851252D02*
X122305000Y-83328748D01*
X123775000Y-83851252D02*
X123775000Y-83328748D01*
X155077500Y-88237258D02*
X155077500Y-87762742D01*
X156122500Y-88237258D02*
X156122500Y-87762742D01*
D14*
X114850000Y-92595000D02*
X114210000Y-92595000D01*
X114850000Y-92980000D02*
X114850000Y-92595000D01*
X114850000Y-94645000D02*
X114210000Y-94645000D01*
X114850000Y-94645000D02*
X114850000Y-94260000D01*
D15*
X110600000Y-93620000D02*
G75*
G02*
X110400000Y-93620000I-100000J0D01*
G01*
X110400000Y-93620000D02*
G75*
G02*
X110600000Y-93620000I100000J0D01*
G01*
D14*
X115272500Y-81020000D02*
X121632500Y-81020000D01*
X115272500Y-87580000D02*
X115272500Y-81020000D01*
X121632500Y-81020000D02*
X121632500Y-87580000D01*
X121632500Y-87580000D02*
X115272500Y-87580000D01*
D15*
X122402500Y-84300000D02*
G75*
G02*
X122202500Y-84300000I-100000J0D01*
G01*
X122202500Y-84300000D02*
G75*
G02*
X122402500Y-84300000I100000J0D01*
G01*
D12*
X112084620Y-82950800D02*
X112365780Y-82950800D01*
X112084620Y-83970800D02*
X112365780Y-83970800D01*
X110712258Y-81277500D02*
X110237742Y-81277500D01*
X110712258Y-82322500D02*
X110237742Y-82322500D01*
D15*
X110888000Y-123250000D02*
X124622000Y-123250000D01*
X110888000Y-128910000D02*
X110888000Y-123250000D01*
X110888000Y-128910000D02*
X113508000Y-128910000D01*
X124622000Y-128910000D02*
X122002000Y-128910000D01*
X124622000Y-128910000D02*
X124622000Y-123250000D01*
X114105000Y-130040000D02*
G75*
G02*
X113905000Y-130040000I-100000J0D01*
G01*
X113905000Y-130040000D02*
G75*
G02*
X114105000Y-130040000I100000J0D01*
G01*
D12*
X129560000Y-78967500D02*
X128760000Y-78967500D01*
X129560000Y-78967500D02*
X130360000Y-78967500D01*
X129560000Y-82087500D02*
X128760000Y-82087500D01*
X129560000Y-82087500D02*
X130360000Y-82087500D01*
X130860000Y-79017500D02*
X130620000Y-78687500D01*
X131100000Y-78687500D01*
X130860000Y-79017500D01*
G36*
X130860000Y-79017500D02*
G01*
X130620000Y-78687500D01*
X131100000Y-78687500D01*
X130860000Y-79017500D01*
G37*
X157077500Y-88237258D02*
X157077500Y-87762742D01*
X158122500Y-88237258D02*
X158122500Y-87762742D01*
X103197500Y-89282742D02*
X103197500Y-89757258D01*
X104242500Y-89282742D02*
X104242500Y-89757258D01*
X106350000Y-89249420D02*
X106350000Y-89530580D01*
X107370000Y-89249420D02*
X107370000Y-89530580D01*
X102292742Y-86382500D02*
X102767258Y-86382500D01*
X102292742Y-87427500D02*
X102767258Y-87427500D01*
D13*
X140810000Y-108180000D02*
X157010000Y-108180000D01*
X140810000Y-110190000D02*
X140810000Y-108180000D01*
X142910000Y-112730000D02*
X140810000Y-112730000D01*
X143610000Y-113730000D02*
X143610000Y-113730000D01*
X143710000Y-113730000D02*
X143710000Y-113730000D01*
X154910000Y-112730000D02*
X157010000Y-112730000D01*
X157010000Y-108180000D02*
X157010000Y-110190000D01*
X143610000Y-113730000D02*
G75*
G02*
X143710000Y-113730000I50000J0D01*
G01*
X143710000Y-113730000D02*
G75*
G02*
X143610000Y-113730000I-50000J0D01*
G01*
D12*
X110218600Y-84467000D02*
X108018600Y-84467000D01*
X110218600Y-84467000D02*
X112418600Y-84467000D01*
X110218600Y-87687000D02*
X108018600Y-87687000D01*
X110218600Y-87687000D02*
X112418600Y-87687000D01*
X113118600Y-84642000D02*
X112878600Y-84312000D01*
X113358600Y-84312000D01*
X113118600Y-84642000D01*
G36*
X113118600Y-84642000D02*
G01*
X112878600Y-84312000D01*
X113358600Y-84312000D01*
X113118600Y-84642000D01*
G37*
X110580436Y-90495000D02*
X111034564Y-90495000D01*
X110580436Y-91965000D02*
X111034564Y-91965000D01*
X112390000Y-88050000D02*
X116250000Y-88050000D01*
X112390000Y-90050000D02*
X112390000Y-88050000D01*
X112390000Y-90050000D02*
X116250000Y-90050000D01*
X104300000Y-86295580D02*
X104300000Y-86014420D01*
X105320000Y-86295580D02*
X105320000Y-86014420D01*
X124375000Y-83841252D02*
X124375000Y-83318748D01*
X125845000Y-83841252D02*
X125845000Y-83318748D01*
X128027064Y-85585000D02*
X127572936Y-85585000D01*
X128027064Y-87055000D02*
X127572936Y-87055000D01*
X114648748Y-90545000D02*
X115171252Y-90545000D01*
X114648748Y-92015000D02*
X115171252Y-92015000D01*
%LPC*%
D16*
X148949200Y-100709800D03*
X124949200Y-100709800D03*
X98949200Y-100709800D03*
D17*
X120500000Y-71175000D03*
X120500000Y-69175000D03*
X120500000Y-67175000D03*
X120500000Y-65175000D03*
X120500000Y-63175000D03*
X120500000Y-61175000D03*
X120500000Y-59175000D03*
X120500000Y-57175000D03*
X120500000Y-55175000D03*
X120500000Y-53175000D03*
X120500000Y-51175000D03*
X120500000Y-49175000D03*
X138309600Y-71186600D03*
X138309600Y-69186600D03*
X138309600Y-67186600D03*
X138309600Y-65186600D03*
X138309600Y-63186600D03*
X138309600Y-61186600D03*
X138309600Y-59186600D03*
X138309600Y-57186600D03*
X138309600Y-55186600D03*
X138309600Y-53186600D03*
X138309600Y-51186600D03*
X138309600Y-49186600D03*
D18*
X105270000Y-90335000D03*
X105270000Y-88685000D03*
D19*
X138080000Y-127720000D03*
X138580000Y-127720000D03*
X139080000Y-127720000D03*
X139580000Y-127720000D03*
X140080000Y-127720000D03*
X140580000Y-127720000D03*
X141080000Y-127720000D03*
X141580000Y-127720000D03*
X142080000Y-127720000D03*
X142580000Y-127720000D03*
X143080000Y-127720000D03*
X143580000Y-127720000D03*
X144080000Y-127720000D03*
X144580000Y-127720000D03*
X145080000Y-127720000D03*
X145580000Y-127720000D03*
X146080000Y-127720000D03*
X146580000Y-127720000D03*
X147080000Y-127720000D03*
X147580000Y-127720000D03*
X148080000Y-127720000D03*
X148580000Y-127720000D03*
D20*
X135805000Y-125820000D03*
X150855000Y-125820000D03*
D21*
X101700000Y-85365000D03*
X103350000Y-85365000D03*
D22*
X129550000Y-122500000D03*
X129550000Y-120500000D03*
D23*
X95535000Y-123500000D03*
X96535000Y-123500000D03*
X97535000Y-123500000D03*
X98535000Y-123500000D03*
D24*
X92735000Y-120800000D03*
X101335000Y-120800000D03*
D25*
X161782831Y-83775000D03*
X161782831Y-82225000D03*
D26*
X155440000Y-84085000D03*
X155440000Y-83585000D03*
X155440000Y-83085000D03*
X156940000Y-83085000D03*
X156940000Y-83585000D03*
X156940000Y-84085000D03*
D27*
X123040000Y-84540000D03*
X123040000Y-82640000D03*
D18*
X155600000Y-88825000D03*
X155600000Y-87175000D03*
D28*
X111560000Y-93620000D03*
D29*
X112885000Y-93620000D03*
D30*
X114940000Y-93620000D03*
D31*
X120472500Y-84300000D03*
X116432500Y-84300000D03*
D32*
X111450200Y-83460800D03*
X113000200Y-83460800D03*
D33*
X111300000Y-81800000D03*
X109650000Y-81800000D03*
D34*
X114005000Y-128480000D03*
X114505000Y-128480000D03*
X115005000Y-128480000D03*
X115505000Y-128480000D03*
X116005000Y-128480000D03*
X116505000Y-128480000D03*
X117005000Y-128480000D03*
X117505000Y-128480000D03*
X118005000Y-128480000D03*
X118505000Y-128480000D03*
X119005000Y-128480000D03*
X119505000Y-128480000D03*
X120005000Y-128480000D03*
X120505000Y-128480000D03*
X121005000Y-128480000D03*
X121505000Y-128480000D03*
D35*
X112358000Y-126500000D03*
X123152000Y-126500000D03*
D36*
X130697500Y-79577500D03*
X130697500Y-80527500D03*
X130697500Y-81477500D03*
X128422500Y-81477500D03*
X128422500Y-79577500D03*
D18*
X157600000Y-88825000D03*
X157600000Y-87175000D03*
D37*
X103720000Y-88695000D03*
X103720000Y-90345000D03*
D38*
X106860000Y-88615000D03*
X106860000Y-90165000D03*
D21*
X101705000Y-86905000D03*
X103355000Y-86905000D03*
D19*
X143660000Y-113030000D03*
X144160000Y-113030000D03*
X144660000Y-113030000D03*
X145160000Y-113030000D03*
X145660000Y-113030000D03*
X146160000Y-113030000D03*
X146660000Y-113030000D03*
X147160000Y-113030000D03*
X147660000Y-113030000D03*
X148160000Y-113030000D03*
X148660000Y-113030000D03*
X149160000Y-113030000D03*
X149660000Y-113030000D03*
X150160000Y-113030000D03*
X150660000Y-113030000D03*
X151160000Y-113030000D03*
X151660000Y-113030000D03*
X152160000Y-113030000D03*
X152660000Y-113030000D03*
X153160000Y-113030000D03*
X153660000Y-113030000D03*
X154160000Y-113030000D03*
D20*
X141385000Y-111130000D03*
X156435000Y-111130000D03*
D39*
X113081100Y-85102000D03*
X113081100Y-85752000D03*
X113081100Y-86402000D03*
X113081100Y-87052000D03*
X107356100Y-87052000D03*
X107356100Y-86402000D03*
X107356100Y-85752000D03*
X107356100Y-85102000D03*
D40*
X109895000Y-91230000D03*
X111720000Y-91230000D03*
D41*
X113200000Y-89050000D03*
X116000000Y-89050000D03*
D25*
X104810000Y-86930000D03*
X104810000Y-85380000D03*
D27*
X125110000Y-84530000D03*
X125110000Y-82630000D03*
D42*
X128712500Y-86320000D03*
X126887500Y-86320000D03*
D43*
X113960000Y-91280000D03*
X115860000Y-91280000D03*
%LPD*%
M02*
