G04 #@! TF.GenerationSoftware,KiCad,Pcbnew,8.0.2*
G04 #@! TF.CreationDate,2024-08-20T08:20:47+02:00*
G04 #@! TF.ProjectId,STS1_SIDEPANEL,53545331-5f53-4494-9445-50414e454c2e,rev?*
G04 #@! TF.SameCoordinates,Original*
G04 #@! TF.FileFunction,Copper,L2,Inr*
G04 #@! TF.FilePolarity,Positive*
%FSLAX46Y46*%
G04 Gerber Fmt 4.6, Leading zero omitted, Abs format (unit mm)*
G04 Created by KiCad (PCBNEW 8.0.2) date 2024-08-20 08:20:47*
%MOMM*%
%LPD*%
G01*
G04 APERTURE LIST*
G04 #@! TA.AperFunction,FiducialPad,Local*
%ADD10C,6.000000*%
G04 #@! TD*
G04 #@! TA.AperFunction,FiducialPad,Global*
%ADD11C,6.000000*%
G04 #@! TD*
G04 #@! TA.AperFunction,ComponentPad*
%ADD12O,1.350000X1.350000*%
G04 #@! TD*
G04 #@! TA.AperFunction,ViaPad*
%ADD13C,0.800000*%
G04 #@! TD*
G04 #@! TA.AperFunction,ViaPad*
%ADD14C,0.600000*%
G04 #@! TD*
G04 APERTURE END LIST*
D10*
X148949200Y-100709800D03*
D11*
X124949200Y-100709800D03*
X98949200Y-100709800D03*
D12*
X120500000Y-71175000D03*
X120500000Y-69175000D03*
X120500000Y-67175000D03*
X120500000Y-65175000D03*
X120500000Y-63175000D03*
X120500000Y-61175000D03*
X120500000Y-59175000D03*
X120500000Y-57175000D03*
X120500000Y-55175000D03*
X120500000Y-53175000D03*
X120500000Y-51175000D03*
X120500000Y-49175000D03*
X138309600Y-71186600D03*
X138309600Y-69186600D03*
X138309600Y-67186600D03*
X138309600Y-65186600D03*
X138309600Y-63186600D03*
X138309600Y-61186600D03*
X138309600Y-59186600D03*
X138309600Y-57186600D03*
X138309600Y-55186600D03*
X138309600Y-53186600D03*
X138309600Y-51186600D03*
X138309600Y-49186600D03*
D13*
X163000000Y-61100000D03*
X124000000Y-46100000D03*
X148000000Y-67100000D03*
X165000000Y-67100000D03*
X128000000Y-129000000D03*
X104000000Y-132000000D03*
X100000000Y-40500000D03*
X158042600Y-126251000D03*
X92000000Y-138000000D03*
X94000000Y-43100000D03*
X157000000Y-67100000D03*
X103000000Y-40500000D03*
X103000000Y-49100000D03*
X145000000Y-64100000D03*
X128000000Y-132000000D03*
X152000000Y-135000000D03*
X98000000Y-132000000D03*
X145000000Y-67100000D03*
X127000000Y-52100000D03*
X142000000Y-49100000D03*
X118000000Y-46100000D03*
X136000000Y-46100000D03*
X116000000Y-132000000D03*
X94000000Y-58100000D03*
X94000000Y-61100000D03*
X151000000Y-40500000D03*
X165000000Y-61100000D03*
X136000000Y-70100000D03*
X94000000Y-55100000D03*
X88000000Y-67100000D03*
X125000000Y-135000000D03*
X88000000Y-64100000D03*
X163000000Y-70100000D03*
X128000000Y-135000000D03*
X97968800Y-129000000D03*
X133000000Y-40500000D03*
X113000000Y-138000000D03*
X100968800Y-126000000D03*
X113000000Y-135000000D03*
X161000000Y-132000000D03*
X157000000Y-70100000D03*
X130000000Y-46100000D03*
X107000000Y-132000000D03*
X154000000Y-73100000D03*
X131000000Y-135000000D03*
X165000000Y-49100000D03*
X125000000Y-132000000D03*
X154000000Y-67100000D03*
X124000000Y-40500000D03*
X122000000Y-132000000D03*
X149000000Y-135000000D03*
X119000000Y-132000000D03*
X97000000Y-43100000D03*
X131000000Y-129000000D03*
X85000000Y-70100000D03*
X157000000Y-64100000D03*
X85000000Y-79100000D03*
X152000000Y-138000000D03*
X130000000Y-40500000D03*
X119000000Y-135000000D03*
X165000000Y-64100000D03*
X163000000Y-73100000D03*
X151000000Y-64100000D03*
X85000000Y-67100000D03*
X145000000Y-49100000D03*
X148000000Y-46100000D03*
X140000000Y-138000000D03*
X97000000Y-64100000D03*
X136000000Y-52100000D03*
X136000000Y-61100000D03*
X142000000Y-46100000D03*
X130000000Y-67100000D03*
X148000000Y-49100000D03*
X113000000Y-132000000D03*
X116000000Y-138000000D03*
X98000000Y-138000000D03*
X142000000Y-73100000D03*
X148000000Y-73100000D03*
X94000000Y-64100000D03*
X165000000Y-52100000D03*
X131000000Y-126000000D03*
X133000000Y-46100000D03*
X158042600Y-129251000D03*
X109000000Y-46100000D03*
X154000000Y-40500000D03*
X165000000Y-73100000D03*
X95000000Y-135000000D03*
X163000000Y-64100000D03*
X97000000Y-46100000D03*
X100000000Y-58100000D03*
X110000000Y-132000000D03*
X136000000Y-67100000D03*
X142000000Y-67100000D03*
X161042600Y-129251000D03*
X118250000Y-77600000D03*
X127000000Y-49100000D03*
X88000000Y-52100000D03*
X161042600Y-123251000D03*
X165000000Y-76100000D03*
X91000000Y-73100000D03*
X95000000Y-138000000D03*
X136000000Y-55100000D03*
X160000000Y-49100000D03*
X136000000Y-58100000D03*
X151000000Y-52100000D03*
X154000000Y-64100000D03*
X94000000Y-49100000D03*
X140000000Y-135000000D03*
X145000000Y-40500000D03*
X131000000Y-138000000D03*
X109000000Y-58100000D03*
X165000000Y-70100000D03*
X157000000Y-73100000D03*
X85000000Y-76100000D03*
X137000000Y-135014000D03*
X160000000Y-46100000D03*
X127000000Y-67100000D03*
X163000000Y-58100000D03*
X155000000Y-135000000D03*
X101000000Y-138000000D03*
X163000000Y-40500000D03*
X112000000Y-46100000D03*
X139000000Y-46100000D03*
X104000000Y-138000000D03*
X134000000Y-135000000D03*
X161042600Y-126251000D03*
X148050000Y-76100000D03*
X128000000Y-138000000D03*
X112250000Y-77600000D03*
X157000000Y-49075000D03*
X109000000Y-52100000D03*
X97000000Y-40500000D03*
X163000000Y-49100000D03*
X134000000Y-132000000D03*
X158000000Y-135000000D03*
X92000000Y-135000000D03*
X158000000Y-138000000D03*
X131000000Y-132000000D03*
X157000000Y-46100000D03*
X106000000Y-40500000D03*
X142000000Y-70100000D03*
X91000000Y-70100000D03*
X133000000Y-52100000D03*
X143000000Y-138000000D03*
X163000000Y-46100000D03*
X104000000Y-135000000D03*
X157000000Y-40500000D03*
X151000000Y-67100000D03*
X158042600Y-123251000D03*
X94000000Y-52100000D03*
X92000000Y-132000000D03*
X101000000Y-135000000D03*
X163000000Y-52100000D03*
X148000000Y-64100000D03*
X161000000Y-138000000D03*
X121000000Y-46100000D03*
X85000000Y-58100000D03*
X134000000Y-129000000D03*
X85000000Y-55100000D03*
X127000000Y-40500000D03*
X107000000Y-138000000D03*
X137000000Y-138014000D03*
X88000000Y-76100000D03*
X109000000Y-55100000D03*
X91000000Y-76100000D03*
X127000000Y-46100000D03*
X98000000Y-135000000D03*
X134000000Y-138000000D03*
X88000000Y-79100000D03*
X139000000Y-40500000D03*
X119000000Y-138000000D03*
X118000000Y-40500000D03*
X145000000Y-46100000D03*
X85000000Y-52100000D03*
X142000000Y-52100000D03*
X91000000Y-64100000D03*
X129950000Y-70100000D03*
X158000000Y-132000000D03*
X107000000Y-135000000D03*
X103968800Y-129000000D03*
X88000000Y-61100000D03*
X128000000Y-126000000D03*
X91000000Y-58100000D03*
X136000000Y-64100000D03*
X151000000Y-73100000D03*
X136000000Y-40500000D03*
X143000000Y-135000000D03*
X106000000Y-46100000D03*
X88000000Y-70100000D03*
X97968800Y-126000000D03*
X161000000Y-135000000D03*
X100968800Y-129000000D03*
X165000000Y-55100000D03*
X110000000Y-138000000D03*
X91000000Y-67100000D03*
X163000000Y-55100000D03*
X85000000Y-64100000D03*
X145000000Y-52100000D03*
X91000000Y-49100000D03*
X94000000Y-40500000D03*
X132950000Y-70100000D03*
X100000000Y-43100000D03*
X148000000Y-70100000D03*
X85000000Y-61100000D03*
X88000000Y-73100000D03*
X145000000Y-70100000D03*
X91000000Y-61100000D03*
X100000000Y-61100000D03*
X130000000Y-49100000D03*
X97000000Y-61100000D03*
X163000000Y-67100000D03*
X151000000Y-70100000D03*
X125000000Y-126000000D03*
X149000000Y-138000000D03*
X150950000Y-49100000D03*
X148000000Y-40500000D03*
X133000000Y-49100000D03*
X85000000Y-73100000D03*
X160000000Y-40500000D03*
X154000000Y-70100000D03*
X112000000Y-40500000D03*
X91000000Y-55100000D03*
X88000000Y-55100000D03*
X122000000Y-135000000D03*
X122000000Y-138000000D03*
X109000000Y-40500000D03*
X97000000Y-67100000D03*
X115000000Y-40500000D03*
X95000000Y-132000000D03*
X148000000Y-52100000D03*
X97000000Y-58100000D03*
X103968800Y-126000000D03*
X91000000Y-52100000D03*
X134000000Y-126000000D03*
X142000000Y-40500000D03*
X121000000Y-40500000D03*
X146000000Y-135000000D03*
X116000000Y-135000000D03*
X136000000Y-49100000D03*
X121250000Y-77600000D03*
X115250000Y-77600000D03*
X165000000Y-46100000D03*
X155000000Y-138000000D03*
X97000000Y-70100000D03*
X130000000Y-52100000D03*
X110000000Y-135000000D03*
X88000000Y-58100000D03*
X145000000Y-73100000D03*
X133000000Y-67100000D03*
X115000000Y-46100000D03*
X165000000Y-58100000D03*
X125000000Y-138000000D03*
X146000000Y-138000000D03*
D14*
X103170000Y-78520000D03*
X100500000Y-90340000D03*
X118500000Y-92000000D03*
X102000000Y-90350000D03*
X120000000Y-95000000D03*
X121500000Y-93500000D03*
X103170000Y-81520000D03*
X104810000Y-81530000D03*
X110050000Y-88660000D03*
X110090000Y-87000000D03*
X117000000Y-92000000D03*
X100170000Y-80020000D03*
X117000000Y-93500000D03*
X121500000Y-95000000D03*
X120000000Y-93500000D03*
X101670000Y-81520000D03*
X108680000Y-88660000D03*
X104810000Y-78530000D03*
X107810000Y-81530000D03*
X101670000Y-78520000D03*
X121500000Y-92000000D03*
X100500000Y-88700000D03*
X102000000Y-88710000D03*
X110920000Y-85740000D03*
X106310000Y-81530000D03*
X104810000Y-80030000D03*
X110450000Y-83450000D03*
X108540000Y-90270000D03*
X118500000Y-93500000D03*
X106310000Y-80030000D03*
X117000000Y-95000000D03*
X107810000Y-78530000D03*
X100170000Y-81520000D03*
X118500000Y-95000000D03*
X120000000Y-92000000D03*
X103170000Y-80020000D03*
X109290000Y-85740000D03*
X107810000Y-80030000D03*
X106310000Y-78530000D03*
X101670000Y-80020000D03*
D13*
X163038890Y-80400000D03*
X157884379Y-77840000D03*
X157620000Y-75980000D03*
X161782831Y-77700000D03*
G04 #@! TA.AperFunction,Conductor*
G36*
X120750000Y-60859314D02*
G01*
X120745606Y-60854920D01*
X120654394Y-60802259D01*
X120552661Y-60775000D01*
X120447339Y-60775000D01*
X120345606Y-60802259D01*
X120254394Y-60854920D01*
X120250000Y-60859314D01*
X120250000Y-59490686D01*
X120254394Y-59495080D01*
X120345606Y-59547741D01*
X120447339Y-59575000D01*
X120552661Y-59575000D01*
X120654394Y-59547741D01*
X120745606Y-59495080D01*
X120750000Y-59490686D01*
X120750000Y-60859314D01*
G37*
G04 #@! TD.AperFunction*
G04 #@! TA.AperFunction,Conductor*
G36*
X164139503Y-39512188D02*
G01*
X164306127Y-39539977D01*
X164327349Y-39545482D01*
X164485946Y-39602019D01*
X164505870Y-39611182D01*
X164652006Y-39694780D01*
X164670011Y-39707316D01*
X164799122Y-39815362D01*
X164814637Y-39830877D01*
X164922683Y-39959988D01*
X164935221Y-39977996D01*
X165018814Y-40124123D01*
X165027982Y-40144058D01*
X165084514Y-40302642D01*
X165090023Y-40323880D01*
X165103057Y-40402032D01*
X165117811Y-40490496D01*
X165119500Y-40510894D01*
X165119500Y-42170954D01*
X165119274Y-42178436D01*
X165115982Y-42232883D01*
X165115982Y-42232884D01*
X165137121Y-42348217D01*
X165185247Y-42455144D01*
X165185249Y-42455147D01*
X165257556Y-42547439D01*
X165257560Y-42547443D01*
X165349852Y-42619750D01*
X165349855Y-42619752D01*
X165349858Y-42619753D01*
X165349859Y-42619754D01*
X165456781Y-42667878D01*
X165572114Y-42689017D01*
X165572115Y-42689016D01*
X165572116Y-42689017D01*
X165609936Y-42686730D01*
X165626563Y-42685725D01*
X165634044Y-42685500D01*
X165887539Y-42685500D01*
X165911009Y-42687741D01*
X166008122Y-42706470D01*
X166036147Y-42715432D01*
X166123521Y-42755342D01*
X166148648Y-42770659D01*
X166224149Y-42830037D01*
X166244962Y-42850850D01*
X166304337Y-42926347D01*
X166319660Y-42951483D01*
X166359566Y-43038850D01*
X166368531Y-43066887D01*
X166387256Y-43163979D01*
X166389500Y-43187461D01*
X166389500Y-135805707D01*
X166388697Y-135812001D01*
X166389069Y-135818170D01*
X166389066Y-135833109D01*
X166383701Y-135921736D01*
X166378313Y-135951135D01*
X166354145Y-136028688D01*
X166341876Y-136055947D01*
X166299855Y-136125456D01*
X166281420Y-136148986D01*
X166223986Y-136206420D01*
X166200456Y-136224855D01*
X166130947Y-136266876D01*
X166103688Y-136279145D01*
X166026135Y-136303313D01*
X165996736Y-136308701D01*
X165908110Y-136314066D01*
X165893171Y-136314069D01*
X165887001Y-136313697D01*
X165880707Y-136314500D01*
X165634044Y-136314500D01*
X165626563Y-136314274D01*
X165624097Y-136314124D01*
X165572116Y-136310982D01*
X165572115Y-136310982D01*
X165456782Y-136332121D01*
X165349855Y-136380247D01*
X165349852Y-136380249D01*
X165257560Y-136452556D01*
X165257556Y-136452560D01*
X165185249Y-136544852D01*
X165185247Y-136544855D01*
X165137121Y-136651782D01*
X165115982Y-136767115D01*
X165115982Y-136767116D01*
X165119274Y-136821562D01*
X165119500Y-136829044D01*
X165119500Y-138489104D01*
X165117811Y-138509502D01*
X165090024Y-138676118D01*
X165084514Y-138697357D01*
X165027982Y-138855941D01*
X165018814Y-138875876D01*
X164935221Y-139022003D01*
X164922683Y-139040011D01*
X164814637Y-139169122D01*
X164799122Y-139184637D01*
X164670011Y-139292683D01*
X164652003Y-139305221D01*
X164505876Y-139388814D01*
X164485941Y-139397982D01*
X164327357Y-139454514D01*
X164306118Y-139460024D01*
X164139504Y-139487811D01*
X164119106Y-139489500D01*
X90910894Y-139489500D01*
X90890496Y-139487811D01*
X90723881Y-139460024D01*
X90702642Y-139454514D01*
X90544058Y-139397982D01*
X90524123Y-139388814D01*
X90377996Y-139305221D01*
X90359988Y-139292683D01*
X90230877Y-139184637D01*
X90215362Y-139169122D01*
X90177265Y-139123598D01*
X90107315Y-139040009D01*
X90094778Y-139022003D01*
X90061405Y-138963664D01*
X90011182Y-138875870D01*
X90002019Y-138855946D01*
X89945482Y-138697349D01*
X89939976Y-138676124D01*
X89912189Y-138509501D01*
X89910500Y-138489104D01*
X89910500Y-133350000D01*
X100034611Y-133350000D01*
X100054121Y-133548095D01*
X100111903Y-133738574D01*
X100205731Y-133914114D01*
X100205735Y-133914121D01*
X100332011Y-134067988D01*
X100485878Y-134194264D01*
X100485885Y-134194268D01*
X100661425Y-134288096D01*
X100661427Y-134288097D01*
X100851907Y-134345879D01*
X101050000Y-134365389D01*
X101248093Y-134345879D01*
X101438573Y-134288097D01*
X101614120Y-134194265D01*
X101767988Y-134067988D01*
X101894265Y-133914120D01*
X101988097Y-133738573D01*
X102045879Y-133548093D01*
X102065389Y-133350000D01*
X162234611Y-133350000D01*
X162254121Y-133548095D01*
X162311903Y-133738574D01*
X162405731Y-133914114D01*
X162405735Y-133914121D01*
X162532011Y-134067988D01*
X162685878Y-134194264D01*
X162685885Y-134194268D01*
X162861425Y-134288096D01*
X162861427Y-134288097D01*
X163051907Y-134345879D01*
X163250000Y-134365389D01*
X163448093Y-134345879D01*
X163638573Y-134288097D01*
X163814120Y-134194265D01*
X163967988Y-134067988D01*
X164094265Y-133914120D01*
X164188097Y-133738573D01*
X164245879Y-133548093D01*
X164265389Y-133350000D01*
X164245879Y-133151907D01*
X164188097Y-132961427D01*
X164094265Y-132785880D01*
X164094264Y-132785878D01*
X163967988Y-132632011D01*
X163814121Y-132505735D01*
X163814114Y-132505731D01*
X163638574Y-132411903D01*
X163448095Y-132354121D01*
X163250000Y-132334611D01*
X163051904Y-132354121D01*
X162861425Y-132411903D01*
X162685885Y-132505731D01*
X162685878Y-132505735D01*
X162532011Y-132632011D01*
X162405735Y-132785878D01*
X162405731Y-132785885D01*
X162311903Y-132961425D01*
X162254121Y-133151904D01*
X162234611Y-133350000D01*
X102065389Y-133350000D01*
X102045879Y-133151907D01*
X101988097Y-132961427D01*
X101894265Y-132785880D01*
X101894264Y-132785878D01*
X101767988Y-132632011D01*
X101614121Y-132505735D01*
X101614114Y-132505731D01*
X101438574Y-132411903D01*
X101248095Y-132354121D01*
X101050000Y-132334611D01*
X100851904Y-132354121D01*
X100661425Y-132411903D01*
X100485885Y-132505731D01*
X100485878Y-132505735D01*
X100332011Y-132632011D01*
X100205735Y-132785878D01*
X100205731Y-132785885D01*
X100111903Y-132961425D01*
X100054121Y-133151904D01*
X100034611Y-133350000D01*
X89910500Y-133350000D01*
X89910500Y-131218370D01*
X89911377Y-131211033D01*
X89910863Y-131204330D01*
X89910500Y-131194846D01*
X89910500Y-131182797D01*
X89908638Y-131174988D01*
X89903121Y-131102034D01*
X89903119Y-131102026D01*
X89854182Y-130913398D01*
X89854178Y-130913387D01*
X89772757Y-130736335D01*
X89661401Y-130576401D01*
X89523598Y-130438598D01*
X89363664Y-130327242D01*
X89186612Y-130245821D01*
X89186601Y-130245817D01*
X88997974Y-130196880D01*
X88997964Y-130196878D01*
X88925005Y-130191360D01*
X88917204Y-130189500D01*
X88905145Y-130189500D01*
X88895656Y-130189136D01*
X88889001Y-130188625D01*
X88881667Y-130189500D01*
X84610894Y-130189500D01*
X84590496Y-130187811D01*
X84423881Y-130160024D01*
X84402642Y-130154514D01*
X84244058Y-130097982D01*
X84224123Y-130088814D01*
X84077996Y-130005221D01*
X84059988Y-129992683D01*
X83930877Y-129884637D01*
X83915362Y-129869122D01*
X83877265Y-129823598D01*
X83807315Y-129740009D01*
X83794778Y-129722003D01*
X83761405Y-129663664D01*
X83711182Y-129575870D01*
X83702019Y-129555946D01*
X83645482Y-129397349D01*
X83639976Y-129376124D01*
X83612189Y-129209501D01*
X83610500Y-129189104D01*
X83610500Y-100709800D01*
X95743657Y-100709800D01*
X95763812Y-101068702D01*
X95763813Y-101068707D01*
X95824027Y-101423100D01*
X95923541Y-101768524D01*
X96061106Y-102100633D01*
X96234989Y-102415252D01*
X96443006Y-102708423D01*
X96682539Y-102976461D01*
X96950577Y-103215994D01*
X97243748Y-103424011D01*
X97558367Y-103597894D01*
X97890476Y-103735459D01*
X98235900Y-103834973D01*
X98590293Y-103895187D01*
X98949200Y-103915343D01*
X99308107Y-103895187D01*
X99662500Y-103834973D01*
X100007924Y-103735459D01*
X100340033Y-103597894D01*
X100654652Y-103424011D01*
X100947823Y-103215994D01*
X101215861Y-102976461D01*
X101455394Y-102708423D01*
X101663411Y-102415252D01*
X101837294Y-102100633D01*
X101974859Y-101768524D01*
X102074373Y-101423100D01*
X102134587Y-101068707D01*
X102154743Y-100709800D01*
X121743657Y-100709800D01*
X121763812Y-101068702D01*
X121763813Y-101068707D01*
X121824027Y-101423100D01*
X121923541Y-101768524D01*
X122061106Y-102100633D01*
X122234989Y-102415252D01*
X122443006Y-102708423D01*
X122682539Y-102976461D01*
X122950577Y-103215994D01*
X123243748Y-103424011D01*
X123558367Y-103597894D01*
X123890476Y-103735459D01*
X124235900Y-103834973D01*
X124590293Y-103895187D01*
X124949200Y-103915343D01*
X125308107Y-103895187D01*
X125662500Y-103834973D01*
X126007924Y-103735459D01*
X126340033Y-103597894D01*
X126654652Y-103424011D01*
X126947823Y-103215994D01*
X127215861Y-102976461D01*
X127455394Y-102708423D01*
X127663411Y-102415252D01*
X127837294Y-102100633D01*
X127974859Y-101768524D01*
X128074373Y-101423100D01*
X128134587Y-101068707D01*
X128154743Y-100709800D01*
X145743657Y-100709800D01*
X145763812Y-101068702D01*
X145763813Y-101068707D01*
X145824027Y-101423100D01*
X145923541Y-101768524D01*
X146061106Y-102100633D01*
X146234989Y-102415252D01*
X146443006Y-102708423D01*
X146682539Y-102976461D01*
X146950577Y-103215994D01*
X147243748Y-103424011D01*
X147558367Y-103597894D01*
X147890476Y-103735459D01*
X148235900Y-103834973D01*
X148590293Y-103895187D01*
X148949200Y-103915343D01*
X149308107Y-103895187D01*
X149662500Y-103834973D01*
X150007924Y-103735459D01*
X150340033Y-103597894D01*
X150654652Y-103424011D01*
X150947823Y-103215994D01*
X151215861Y-102976461D01*
X151455394Y-102708423D01*
X151663411Y-102415252D01*
X151837294Y-102100633D01*
X151974859Y-101768524D01*
X152074373Y-101423100D01*
X152134587Y-101068707D01*
X152154743Y-100709800D01*
X152134587Y-100350893D01*
X152074373Y-99996500D01*
X151974859Y-99651076D01*
X151837294Y-99318967D01*
X151663411Y-99004348D01*
X151455394Y-98711177D01*
X151215861Y-98443139D01*
X150947823Y-98203606D01*
X150947822Y-98203605D01*
X150654654Y-97995590D01*
X150340031Y-97821705D01*
X150253286Y-97785774D01*
X150007924Y-97684141D01*
X150007920Y-97684139D01*
X150007918Y-97684139D01*
X149662505Y-97584628D01*
X149662496Y-97584626D01*
X149308114Y-97524414D01*
X149308102Y-97524412D01*
X148949200Y-97504257D01*
X148590297Y-97524412D01*
X148590285Y-97524414D01*
X148235903Y-97584626D01*
X148235894Y-97584628D01*
X147890481Y-97684139D01*
X147558368Y-97821705D01*
X147243745Y-97995590D01*
X146950577Y-98203605D01*
X146682539Y-98443139D01*
X146443005Y-98711177D01*
X146234990Y-99004345D01*
X146061105Y-99318968D01*
X145923539Y-99651081D01*
X145824028Y-99996494D01*
X145824026Y-99996503D01*
X145763814Y-100350885D01*
X145763812Y-100350897D01*
X145743657Y-100709800D01*
X128154743Y-100709800D01*
X128134587Y-100350893D01*
X128074373Y-99996500D01*
X127974859Y-99651076D01*
X127837294Y-99318967D01*
X127663411Y-99004348D01*
X127455394Y-98711177D01*
X127215861Y-98443139D01*
X126947823Y-98203606D01*
X126947822Y-98203605D01*
X126654654Y-97995590D01*
X126340031Y-97821705D01*
X126253286Y-97785774D01*
X126007924Y-97684141D01*
X126007920Y-97684139D01*
X126007918Y-97684139D01*
X125662505Y-97584628D01*
X125662496Y-97584626D01*
X125308114Y-97524414D01*
X125308102Y-97524412D01*
X124949200Y-97504257D01*
X124590297Y-97524412D01*
X124590285Y-97524414D01*
X124235903Y-97584626D01*
X124235894Y-97584628D01*
X123890481Y-97684139D01*
X123558368Y-97821705D01*
X123243745Y-97995590D01*
X122950577Y-98203605D01*
X122682539Y-98443139D01*
X122443005Y-98711177D01*
X122234990Y-99004345D01*
X122061105Y-99318968D01*
X121923539Y-99651081D01*
X121824028Y-99996494D01*
X121824026Y-99996503D01*
X121763814Y-100350885D01*
X121763812Y-100350897D01*
X121743657Y-100709800D01*
X102154743Y-100709800D01*
X102134587Y-100350893D01*
X102074373Y-99996500D01*
X101974859Y-99651076D01*
X101837294Y-99318967D01*
X101663411Y-99004348D01*
X101455394Y-98711177D01*
X101215861Y-98443139D01*
X100947823Y-98203606D01*
X100947822Y-98203605D01*
X100654654Y-97995590D01*
X100340031Y-97821705D01*
X100253286Y-97785774D01*
X100007924Y-97684141D01*
X100007920Y-97684139D01*
X100007918Y-97684139D01*
X99662505Y-97584628D01*
X99662496Y-97584626D01*
X99308114Y-97524414D01*
X99308102Y-97524412D01*
X98949200Y-97504257D01*
X98590297Y-97524412D01*
X98590285Y-97524414D01*
X98235903Y-97584626D01*
X98235894Y-97584628D01*
X97890481Y-97684139D01*
X97558368Y-97821705D01*
X97243745Y-97995590D01*
X96950577Y-98203605D01*
X96682539Y-98443139D01*
X96443005Y-98711177D01*
X96234990Y-99004345D01*
X96061105Y-99318968D01*
X95923539Y-99651081D01*
X95824028Y-99996494D01*
X95824026Y-99996503D01*
X95763814Y-100350885D01*
X95763812Y-100350897D01*
X95743657Y-100709800D01*
X83610500Y-100709800D01*
X83610500Y-80399998D01*
X162433208Y-80399998D01*
X162433208Y-80400001D01*
X162453845Y-80556760D01*
X162453846Y-80556762D01*
X162514354Y-80702841D01*
X162610608Y-80828282D01*
X162736049Y-80924536D01*
X162882128Y-80985044D01*
X162960509Y-80995363D01*
X163038889Y-81005682D01*
X163038890Y-81005682D01*
X163038891Y-81005682D01*
X163091144Y-80998802D01*
X163195652Y-80985044D01*
X163341731Y-80924536D01*
X163467172Y-80828282D01*
X163563426Y-80702841D01*
X163623934Y-80556762D01*
X163644572Y-80400000D01*
X163623934Y-80243238D01*
X163563426Y-80097159D01*
X163467172Y-79971718D01*
X163341731Y-79875464D01*
X163195652Y-79814956D01*
X163195650Y-79814955D01*
X163038891Y-79794318D01*
X163038889Y-79794318D01*
X162882129Y-79814955D01*
X162882127Y-79814956D01*
X162736050Y-79875463D01*
X162610608Y-79971718D01*
X162514353Y-80097160D01*
X162453846Y-80243237D01*
X162453845Y-80243239D01*
X162433208Y-80399998D01*
X83610500Y-80399998D01*
X83610500Y-77839998D01*
X157278697Y-77839998D01*
X157278697Y-77840001D01*
X157299334Y-77996760D01*
X157299335Y-77996762D01*
X157359843Y-78142841D01*
X157456097Y-78268282D01*
X157581538Y-78364536D01*
X157727617Y-78425044D01*
X157805998Y-78435363D01*
X157884378Y-78445682D01*
X157884379Y-78445682D01*
X157884380Y-78445682D01*
X157936633Y-78438802D01*
X158041141Y-78425044D01*
X158187220Y-78364536D01*
X158312661Y-78268282D01*
X158408915Y-78142841D01*
X158469423Y-77996762D01*
X158490061Y-77840000D01*
X158471629Y-77699998D01*
X161177149Y-77699998D01*
X161177149Y-77700001D01*
X161197786Y-77856760D01*
X161197787Y-77856762D01*
X161258295Y-78002841D01*
X161354549Y-78128282D01*
X161479990Y-78224536D01*
X161626069Y-78285044D01*
X161704450Y-78295363D01*
X161782830Y-78305682D01*
X161782831Y-78305682D01*
X161782832Y-78305682D01*
X161835085Y-78298802D01*
X161939593Y-78285044D01*
X162085672Y-78224536D01*
X162211113Y-78128282D01*
X162307367Y-78002841D01*
X162367875Y-77856762D01*
X162388513Y-77700000D01*
X162386306Y-77683239D01*
X162367875Y-77543239D01*
X162367875Y-77543238D01*
X162307367Y-77397159D01*
X162211113Y-77271718D01*
X162085672Y-77175464D01*
X161939593Y-77114956D01*
X161939591Y-77114955D01*
X161782832Y-77094318D01*
X161782830Y-77094318D01*
X161626070Y-77114955D01*
X161626068Y-77114956D01*
X161479991Y-77175463D01*
X161354549Y-77271718D01*
X161258294Y-77397160D01*
X161197787Y-77543237D01*
X161197786Y-77543239D01*
X161177149Y-77699998D01*
X158471629Y-77699998D01*
X158469423Y-77683238D01*
X158408915Y-77537159D01*
X158312661Y-77411718D01*
X158187220Y-77315464D01*
X158041141Y-77254956D01*
X158041139Y-77254955D01*
X157884380Y-77234318D01*
X157884378Y-77234318D01*
X157727618Y-77254955D01*
X157727616Y-77254956D01*
X157581539Y-77315463D01*
X157456097Y-77411718D01*
X157359842Y-77537160D01*
X157299335Y-77683237D01*
X157299334Y-77683239D01*
X157278697Y-77839998D01*
X83610500Y-77839998D01*
X83610500Y-75979998D01*
X157014318Y-75979998D01*
X157014318Y-75980001D01*
X157034955Y-76136760D01*
X157034956Y-76136762D01*
X157095464Y-76282841D01*
X157191718Y-76408282D01*
X157317159Y-76504536D01*
X157463238Y-76565044D01*
X157541619Y-76575363D01*
X157619999Y-76585682D01*
X157620000Y-76585682D01*
X157620001Y-76585682D01*
X157672254Y-76578802D01*
X157776762Y-76565044D01*
X157922841Y-76504536D01*
X158048282Y-76408282D01*
X158144536Y-76282841D01*
X158205044Y-76136762D01*
X158225682Y-75980000D01*
X158205044Y-75823238D01*
X158144536Y-75677159D01*
X158048282Y-75551718D01*
X157922841Y-75455464D01*
X157776762Y-75394956D01*
X157776760Y-75394955D01*
X157620001Y-75374318D01*
X157619999Y-75374318D01*
X157463239Y-75394955D01*
X157463237Y-75394956D01*
X157317160Y-75455463D01*
X157191718Y-75551718D01*
X157095463Y-75677160D01*
X157034956Y-75823237D01*
X157034955Y-75823239D01*
X157014318Y-75979998D01*
X83610500Y-75979998D01*
X83610500Y-71175000D01*
X119619678Y-71175000D01*
X119638915Y-71358029D01*
X119638916Y-71358032D01*
X119695783Y-71533053D01*
X119695786Y-71533059D01*
X119787805Y-71692440D01*
X119798250Y-71704040D01*
X119910949Y-71829206D01*
X119910951Y-71829208D01*
X120059834Y-71937378D01*
X120059835Y-71937378D01*
X120059839Y-71937381D01*
X120196953Y-71998428D01*
X120227961Y-72012234D01*
X120227966Y-72012236D01*
X120407981Y-72050500D01*
X120592019Y-72050500D01*
X120772034Y-72012236D01*
X120940161Y-71937381D01*
X121089050Y-71829207D01*
X121212195Y-71692440D01*
X121304214Y-71533059D01*
X121361085Y-71358029D01*
X121379103Y-71186600D01*
X137429278Y-71186600D01*
X137448515Y-71369629D01*
X137448516Y-71369632D01*
X137505383Y-71544653D01*
X137505386Y-71544659D01*
X137597405Y-71704040D01*
X137706927Y-71825677D01*
X137720549Y-71840806D01*
X137720551Y-71840808D01*
X137869434Y-71948978D01*
X137869435Y-71948978D01*
X137869439Y-71948981D01*
X138006553Y-72010028D01*
X138037561Y-72023834D01*
X138037566Y-72023836D01*
X138217581Y-72062100D01*
X138401619Y-72062100D01*
X138581634Y-72023836D01*
X138749761Y-71948981D01*
X138898650Y-71840807D01*
X139021795Y-71704040D01*
X139113814Y-71544659D01*
X139170685Y-71369629D01*
X139189922Y-71186600D01*
X139170685Y-71003571D01*
X139113814Y-70828541D01*
X139021795Y-70669160D01*
X138898650Y-70532393D01*
X138898648Y-70532391D01*
X138749765Y-70424221D01*
X138749762Y-70424219D01*
X138749761Y-70424219D01*
X138688712Y-70397038D01*
X138581638Y-70349365D01*
X138581633Y-70349363D01*
X138401619Y-70311100D01*
X138217581Y-70311100D01*
X138037566Y-70349363D01*
X138037561Y-70349365D01*
X137869439Y-70424219D01*
X137869434Y-70424221D01*
X137720551Y-70532391D01*
X137720549Y-70532393D01*
X137597404Y-70669161D01*
X137505386Y-70828540D01*
X137505383Y-70828546D01*
X137452285Y-70991967D01*
X137448515Y-71003571D01*
X137429278Y-71186600D01*
X121379103Y-71186600D01*
X121380322Y-71175000D01*
X121361085Y-70991971D01*
X121304214Y-70816941D01*
X121212195Y-70657560D01*
X121089050Y-70520793D01*
X121089048Y-70520791D01*
X120940165Y-70412621D01*
X120940162Y-70412619D01*
X120940161Y-70412619D01*
X120879112Y-70385438D01*
X120772038Y-70337765D01*
X120772033Y-70337763D01*
X120592019Y-70299500D01*
X120407981Y-70299500D01*
X120227966Y-70337763D01*
X120227961Y-70337765D01*
X120059839Y-70412619D01*
X120059834Y-70412621D01*
X119910951Y-70520791D01*
X119910949Y-70520793D01*
X119787804Y-70657561D01*
X119695786Y-70816940D01*
X119695783Y-70816946D01*
X119638916Y-70991967D01*
X119638915Y-70991971D01*
X119619678Y-71175000D01*
X83610500Y-71175000D01*
X83610500Y-69175000D01*
X119619678Y-69175000D01*
X119638915Y-69358029D01*
X119638916Y-69358032D01*
X119695783Y-69533053D01*
X119695786Y-69533059D01*
X119787805Y-69692440D01*
X119798250Y-69704040D01*
X119910949Y-69829206D01*
X119910951Y-69829208D01*
X120059834Y-69937378D01*
X120059835Y-69937378D01*
X120059839Y-69937381D01*
X120196953Y-69998428D01*
X120227961Y-70012234D01*
X120227966Y-70012236D01*
X120407981Y-70050500D01*
X120592019Y-70050500D01*
X120772034Y-70012236D01*
X120940161Y-69937381D01*
X121089050Y-69829207D01*
X121212195Y-69692440D01*
X121304214Y-69533059D01*
X121361085Y-69358029D01*
X121379103Y-69186600D01*
X137429278Y-69186600D01*
X137448515Y-69369629D01*
X137448516Y-69369632D01*
X137505383Y-69544653D01*
X137505386Y-69544659D01*
X137597405Y-69704040D01*
X137706927Y-69825677D01*
X137720549Y-69840806D01*
X137720551Y-69840808D01*
X137869434Y-69948978D01*
X137869435Y-69948978D01*
X137869439Y-69948981D01*
X138006553Y-70010028D01*
X138037561Y-70023834D01*
X138037566Y-70023836D01*
X138217581Y-70062100D01*
X138401619Y-70062100D01*
X138581634Y-70023836D01*
X138749761Y-69948981D01*
X138898650Y-69840807D01*
X139021795Y-69704040D01*
X139113814Y-69544659D01*
X139170685Y-69369629D01*
X139189922Y-69186600D01*
X139170685Y-69003571D01*
X139113814Y-68828541D01*
X139021795Y-68669160D01*
X138898650Y-68532393D01*
X138898648Y-68532391D01*
X138749765Y-68424221D01*
X138749762Y-68424219D01*
X138749761Y-68424219D01*
X138688712Y-68397038D01*
X138581638Y-68349365D01*
X138581633Y-68349363D01*
X138401619Y-68311100D01*
X138217581Y-68311100D01*
X138037566Y-68349363D01*
X138037561Y-68349365D01*
X137869439Y-68424219D01*
X137869434Y-68424221D01*
X137720551Y-68532391D01*
X137720549Y-68532393D01*
X137597404Y-68669161D01*
X137505386Y-68828540D01*
X137505383Y-68828546D01*
X137452285Y-68991967D01*
X137448515Y-69003571D01*
X137429278Y-69186600D01*
X121379103Y-69186600D01*
X121380322Y-69175000D01*
X121361085Y-68991971D01*
X121304214Y-68816941D01*
X121212195Y-68657560D01*
X121089050Y-68520793D01*
X121089048Y-68520791D01*
X120940165Y-68412621D01*
X120940162Y-68412619D01*
X120940161Y-68412619D01*
X120879112Y-68385438D01*
X120772038Y-68337765D01*
X120772033Y-68337763D01*
X120592019Y-68299500D01*
X120407981Y-68299500D01*
X120227966Y-68337763D01*
X120227961Y-68337765D01*
X120059839Y-68412619D01*
X120059834Y-68412621D01*
X119910951Y-68520791D01*
X119910949Y-68520793D01*
X119787804Y-68657561D01*
X119695786Y-68816940D01*
X119695783Y-68816946D01*
X119638916Y-68991967D01*
X119638915Y-68991971D01*
X119619678Y-69175000D01*
X83610500Y-69175000D01*
X83610500Y-67175000D01*
X119619678Y-67175000D01*
X119638915Y-67358029D01*
X119638916Y-67358032D01*
X119695783Y-67533053D01*
X119695786Y-67533059D01*
X119787805Y-67692440D01*
X119798250Y-67704040D01*
X119910949Y-67829206D01*
X119910951Y-67829208D01*
X120059834Y-67937378D01*
X120059835Y-67937378D01*
X120059839Y-67937381D01*
X120196953Y-67998428D01*
X120227961Y-68012234D01*
X120227966Y-68012236D01*
X120407981Y-68050500D01*
X120592019Y-68050500D01*
X120772034Y-68012236D01*
X120940161Y-67937381D01*
X121089050Y-67829207D01*
X121212195Y-67692440D01*
X121304214Y-67533059D01*
X121361085Y-67358029D01*
X121379103Y-67186600D01*
X137429278Y-67186600D01*
X137448515Y-67369629D01*
X137448516Y-67369632D01*
X137505383Y-67544653D01*
X137505386Y-67544659D01*
X137597405Y-67704040D01*
X137706927Y-67825677D01*
X137720549Y-67840806D01*
X137720551Y-67840808D01*
X137869434Y-67948978D01*
X137869435Y-67948978D01*
X137869439Y-67948981D01*
X138006553Y-68010028D01*
X138037561Y-68023834D01*
X138037566Y-68023836D01*
X138217581Y-68062100D01*
X138401619Y-68062100D01*
X138581634Y-68023836D01*
X138749761Y-67948981D01*
X138898650Y-67840807D01*
X139021795Y-67704040D01*
X139113814Y-67544659D01*
X139170685Y-67369629D01*
X139189922Y-67186600D01*
X139170685Y-67003571D01*
X139113814Y-66828541D01*
X139021795Y-66669160D01*
X138898650Y-66532393D01*
X138898648Y-66532391D01*
X138749765Y-66424221D01*
X138749762Y-66424219D01*
X138749761Y-66424219D01*
X138688712Y-66397038D01*
X138581638Y-66349365D01*
X138581633Y-66349363D01*
X138401619Y-66311100D01*
X138217581Y-66311100D01*
X138037566Y-66349363D01*
X138037561Y-66349365D01*
X137869439Y-66424219D01*
X137869434Y-66424221D01*
X137720551Y-66532391D01*
X137720549Y-66532393D01*
X137597404Y-66669161D01*
X137505386Y-66828540D01*
X137505383Y-66828546D01*
X137452285Y-66991967D01*
X137448515Y-67003571D01*
X137429278Y-67186600D01*
X121379103Y-67186600D01*
X121380322Y-67175000D01*
X121361085Y-66991971D01*
X121304214Y-66816941D01*
X121212195Y-66657560D01*
X121089050Y-66520793D01*
X121089048Y-66520791D01*
X120940165Y-66412621D01*
X120940162Y-66412619D01*
X120940161Y-66412619D01*
X120879112Y-66385438D01*
X120772038Y-66337765D01*
X120772033Y-66337763D01*
X120592019Y-66299500D01*
X120407981Y-66299500D01*
X120227966Y-66337763D01*
X120227961Y-66337765D01*
X120059839Y-66412619D01*
X120059834Y-66412621D01*
X119910951Y-66520791D01*
X119910949Y-66520793D01*
X119787804Y-66657561D01*
X119695786Y-66816940D01*
X119695783Y-66816946D01*
X119638916Y-66991967D01*
X119638915Y-66991971D01*
X119619678Y-67175000D01*
X83610500Y-67175000D01*
X83610500Y-65175000D01*
X119619678Y-65175000D01*
X119638915Y-65358029D01*
X119638916Y-65358032D01*
X119695783Y-65533053D01*
X119695786Y-65533059D01*
X119787805Y-65692440D01*
X119798250Y-65704040D01*
X119910949Y-65829206D01*
X119910951Y-65829208D01*
X120059834Y-65937378D01*
X120059835Y-65937378D01*
X120059839Y-65937381D01*
X120196953Y-65998428D01*
X120227961Y-66012234D01*
X120227966Y-66012236D01*
X120407981Y-66050500D01*
X120592019Y-66050500D01*
X120772034Y-66012236D01*
X120940161Y-65937381D01*
X121089050Y-65829207D01*
X121212195Y-65692440D01*
X121304214Y-65533059D01*
X121361085Y-65358029D01*
X121380322Y-65175000D01*
X121361085Y-64991971D01*
X121304214Y-64816941D01*
X121212195Y-64657560D01*
X121089050Y-64520793D01*
X121089048Y-64520791D01*
X120940165Y-64412621D01*
X120940162Y-64412619D01*
X120940161Y-64412619D01*
X120879112Y-64385438D01*
X120772038Y-64337765D01*
X120772033Y-64337763D01*
X120592019Y-64299500D01*
X120407981Y-64299500D01*
X120227966Y-64337763D01*
X120227961Y-64337765D01*
X120059839Y-64412619D01*
X120059834Y-64412621D01*
X119910951Y-64520791D01*
X119910949Y-64520793D01*
X119787804Y-64657561D01*
X119695786Y-64816940D01*
X119695783Y-64816946D01*
X119638916Y-64991967D01*
X119638915Y-64991971D01*
X119619678Y-65175000D01*
X83610500Y-65175000D01*
X83610500Y-51501600D01*
X110106779Y-51501600D01*
X110109332Y-51583107D01*
X110109393Y-51586915D01*
X110115341Y-61722952D01*
X110114441Y-61731445D01*
X110114720Y-61734182D01*
X110115356Y-61746623D01*
X110115362Y-61754209D01*
X110117706Y-61763484D01*
X110125072Y-61835450D01*
X110125073Y-61835457D01*
X110177035Y-62018288D01*
X110260088Y-62189261D01*
X110260089Y-62189263D01*
X110260090Y-62189264D01*
X110371690Y-62343133D01*
X110371692Y-62343136D01*
X110411945Y-62382011D01*
X110508414Y-62475180D01*
X110582852Y-62525313D01*
X110666064Y-62581355D01*
X110666066Y-62581356D01*
X110666072Y-62581360D01*
X110839832Y-62658416D01*
X111024367Y-62703987D01*
X111071527Y-62707161D01*
X111094451Y-62708704D01*
X111101667Y-62710393D01*
X111115410Y-62710393D01*
X111123660Y-62710668D01*
X111132103Y-62711230D01*
X111138835Y-62710393D01*
X116097547Y-62710393D01*
X116099257Y-62710654D01*
X116117897Y-62710418D01*
X116119155Y-62710402D01*
X116120717Y-62710393D01*
X116146572Y-62710393D01*
X116148442Y-62710003D01*
X116208095Y-62709188D01*
X116381262Y-62676883D01*
X116546362Y-62615466D01*
X116546364Y-62615464D01*
X116546366Y-62615464D01*
X116604861Y-62581360D01*
X116698541Y-62526743D01*
X116833322Y-62413322D01*
X116946743Y-62278541D01*
X117035466Y-62126362D01*
X117096883Y-61961262D01*
X117129188Y-61788095D01*
X117130003Y-61728442D01*
X117130393Y-61726571D01*
X117130393Y-61700717D01*
X117130403Y-61699152D01*
X117130650Y-61679509D01*
X117130393Y-61677796D01*
X117130393Y-58924999D01*
X119349494Y-58924999D01*
X119349495Y-58925000D01*
X120184314Y-58925000D01*
X120179920Y-58929394D01*
X120127259Y-59020606D01*
X120100000Y-59122339D01*
X120100000Y-59227661D01*
X120127259Y-59329394D01*
X120179920Y-59420606D01*
X120184314Y-59425000D01*
X119349495Y-59425000D01*
X119399651Y-59601280D01*
X119496715Y-59796208D01*
X119627945Y-59969986D01*
X119752315Y-60083363D01*
X119788597Y-60143074D01*
X119786836Y-60212921D01*
X119752315Y-60266637D01*
X119627945Y-60380013D01*
X119496715Y-60553791D01*
X119399651Y-60748719D01*
X119349494Y-60924999D01*
X119349495Y-60925000D01*
X120184314Y-60925000D01*
X120179920Y-60929394D01*
X120127259Y-61020606D01*
X120100000Y-61122339D01*
X120100000Y-61227661D01*
X120127259Y-61329394D01*
X120179920Y-61420606D01*
X120184314Y-61425000D01*
X119349495Y-61425000D01*
X119399651Y-61601280D01*
X119496715Y-61796208D01*
X119627945Y-61969985D01*
X119788868Y-62116685D01*
X119974012Y-62231322D01*
X119974020Y-62231326D01*
X119980559Y-62233859D01*
X120035963Y-62276429D01*
X120059555Y-62342195D01*
X120043847Y-62410276D01*
X120008656Y-62449805D01*
X119910948Y-62520794D01*
X119787804Y-62657561D01*
X119695786Y-62816940D01*
X119695783Y-62816946D01*
X119639812Y-62989209D01*
X119638915Y-62991971D01*
X119619678Y-63175000D01*
X119638915Y-63358029D01*
X119638916Y-63358032D01*
X119695783Y-63533053D01*
X119695786Y-63533059D01*
X119787805Y-63692440D01*
X119798250Y-63704040D01*
X119910949Y-63829206D01*
X119910951Y-63829208D01*
X120059834Y-63937378D01*
X120059835Y-63937378D01*
X120059839Y-63937381D01*
X120196953Y-63998428D01*
X120227961Y-64012234D01*
X120227966Y-64012236D01*
X120407981Y-64050500D01*
X120592019Y-64050500D01*
X120772034Y-64012236D01*
X120940161Y-63937381D01*
X121089050Y-63829207D01*
X121212195Y-63692440D01*
X121304214Y-63533059D01*
X121361085Y-63358029D01*
X121380322Y-63175000D01*
X121361085Y-62991971D01*
X121324061Y-62878023D01*
X121304216Y-62816946D01*
X121304213Y-62816940D01*
X121212195Y-62657560D01*
X121089050Y-62520793D01*
X120991342Y-62449804D01*
X120948678Y-62394475D01*
X120942699Y-62324862D01*
X120975305Y-62263067D01*
X121019443Y-62233857D01*
X121025987Y-62231322D01*
X121211130Y-62116685D01*
X121211131Y-62116685D01*
X121372054Y-61969985D01*
X121503284Y-61796208D01*
X121600348Y-61601280D01*
X121650505Y-61425000D01*
X120815686Y-61425000D01*
X120820080Y-61420606D01*
X120872741Y-61329394D01*
X120900000Y-61227661D01*
X120900000Y-61122339D01*
X120872741Y-61020606D01*
X120820080Y-60929394D01*
X120815686Y-60925000D01*
X121650505Y-60925000D01*
X121650505Y-60924999D01*
X121600348Y-60748719D01*
X121503284Y-60553791D01*
X121372056Y-60380017D01*
X121247684Y-60266638D01*
X121211403Y-60206927D01*
X121213163Y-60137079D01*
X121247684Y-60083362D01*
X121372056Y-59969982D01*
X121503284Y-59796208D01*
X121600348Y-59601280D01*
X121650505Y-59425000D01*
X120815686Y-59425000D01*
X120820080Y-59420606D01*
X120872741Y-59329394D01*
X120900000Y-59227661D01*
X120900000Y-59122339D01*
X120872741Y-59020606D01*
X120820080Y-58929394D01*
X120815686Y-58925000D01*
X121650505Y-58925000D01*
X121650505Y-58924999D01*
X121600348Y-58748719D01*
X121503284Y-58553791D01*
X121372054Y-58380014D01*
X121211131Y-58233314D01*
X121025987Y-58118677D01*
X121025979Y-58118673D01*
X121019434Y-58116138D01*
X120964033Y-58073565D01*
X120940443Y-58007798D01*
X120956155Y-57939718D01*
X120991342Y-57900195D01*
X121089050Y-57829207D01*
X121212195Y-57692440D01*
X121304214Y-57533059D01*
X121361085Y-57358029D01*
X121380322Y-57175000D01*
X121361085Y-56991971D01*
X121304214Y-56816941D01*
X121212195Y-56657560D01*
X121089050Y-56520793D01*
X121089048Y-56520791D01*
X120940165Y-56412621D01*
X120940162Y-56412619D01*
X120940161Y-56412619D01*
X120879112Y-56385438D01*
X120772038Y-56337765D01*
X120772033Y-56337763D01*
X120592019Y-56299500D01*
X120407981Y-56299500D01*
X120227966Y-56337763D01*
X120227961Y-56337765D01*
X120059839Y-56412619D01*
X120059834Y-56412621D01*
X119910951Y-56520791D01*
X119910949Y-56520793D01*
X119787804Y-56657561D01*
X119695786Y-56816940D01*
X119695783Y-56816946D01*
X119638916Y-56991967D01*
X119638915Y-56991971D01*
X119619678Y-57175000D01*
X119638915Y-57358029D01*
X119638916Y-57358032D01*
X119695783Y-57533053D01*
X119695786Y-57533059D01*
X119787805Y-57692440D01*
X119798250Y-57704040D01*
X119910949Y-57829206D01*
X119910951Y-57829208D01*
X120008655Y-57900194D01*
X120051321Y-57955524D01*
X120057300Y-58025137D01*
X120024694Y-58086932D01*
X119980568Y-58116137D01*
X119974020Y-58118673D01*
X119974012Y-58118677D01*
X119788869Y-58233314D01*
X119788868Y-58233314D01*
X119627945Y-58380014D01*
X119496715Y-58553791D01*
X119399651Y-58748719D01*
X119349494Y-58924999D01*
X117130393Y-58924999D01*
X117130393Y-57515993D01*
X117130410Y-57515903D01*
X117130393Y-57486485D01*
X117130393Y-57458110D01*
X117130374Y-57458022D01*
X117128964Y-55175000D01*
X119619678Y-55175000D01*
X119638915Y-55358029D01*
X119638916Y-55358032D01*
X119695783Y-55533053D01*
X119695786Y-55533059D01*
X119787805Y-55692440D01*
X119798250Y-55704040D01*
X119910949Y-55829206D01*
X119910951Y-55829208D01*
X120059834Y-55937378D01*
X120059835Y-55937378D01*
X120059839Y-55937381D01*
X120196953Y-55998428D01*
X120227961Y-56012234D01*
X120227966Y-56012236D01*
X120407981Y-56050500D01*
X120592019Y-56050500D01*
X120772034Y-56012236D01*
X120940161Y-55937381D01*
X121089050Y-55829207D01*
X121212195Y-55692440D01*
X121304214Y-55533059D01*
X121361085Y-55358029D01*
X121380322Y-55175000D01*
X121364648Y-55025874D01*
X125924912Y-55025874D01*
X125929337Y-55112076D01*
X125929500Y-55118433D01*
X125929500Y-65208641D01*
X125929042Y-65211801D01*
X125929462Y-65228620D01*
X125929500Y-65231708D01*
X125929500Y-65254412D01*
X125930217Y-65257801D01*
X125931810Y-65322890D01*
X125934456Y-65335727D01*
X125969214Y-65504381D01*
X126038174Y-65676385D01*
X126136501Y-65833451D01*
X126261089Y-65970618D01*
X126261095Y-65970624D01*
X126408007Y-66083559D01*
X126408009Y-66083560D01*
X126572604Y-66168692D01*
X126749675Y-66223328D01*
X126820128Y-66231858D01*
X126830279Y-66234528D01*
X126834828Y-66234533D01*
X126849675Y-66235442D01*
X126858817Y-66234561D01*
X131921339Y-66240477D01*
X131931564Y-66241737D01*
X131951204Y-66242625D01*
X131965346Y-66238752D01*
X132032159Y-66234005D01*
X132210345Y-66191028D01*
X132210348Y-66191027D01*
X132378963Y-66119186D01*
X132378964Y-66119185D01*
X132378972Y-66119182D01*
X132533400Y-66020446D01*
X132669379Y-65897536D01*
X132783165Y-65753836D01*
X132871627Y-65593301D01*
X132932329Y-65420349D01*
X132944776Y-65348622D01*
X132948513Y-65335727D01*
X132949127Y-65328569D01*
X132948147Y-65314868D01*
X132948109Y-65226854D01*
X132948091Y-65186600D01*
X137429278Y-65186600D01*
X137448515Y-65369629D01*
X137448516Y-65369632D01*
X137505383Y-65544653D01*
X137505386Y-65544659D01*
X137597405Y-65704040D01*
X137642244Y-65753839D01*
X137720549Y-65840806D01*
X137720551Y-65840808D01*
X137869434Y-65948978D01*
X137869435Y-65948978D01*
X137869439Y-65948981D01*
X138006553Y-66010028D01*
X138037561Y-66023834D01*
X138037566Y-66023836D01*
X138217581Y-66062100D01*
X138401619Y-66062100D01*
X138581634Y-66023836D01*
X138749761Y-65948981D01*
X138898650Y-65840807D01*
X139021795Y-65704040D01*
X139113814Y-65544659D01*
X139170685Y-65369629D01*
X139189922Y-65186600D01*
X139170685Y-65003571D01*
X139113814Y-64828541D01*
X139021795Y-64669160D01*
X138898650Y-64532393D01*
X138898648Y-64532391D01*
X138749765Y-64424221D01*
X138749762Y-64424219D01*
X138749761Y-64424219D01*
X138688712Y-64397038D01*
X138581638Y-64349365D01*
X138581633Y-64349363D01*
X138401619Y-64311100D01*
X138217581Y-64311100D01*
X138037566Y-64349363D01*
X138037561Y-64349365D01*
X137869439Y-64424219D01*
X137869434Y-64424221D01*
X137720551Y-64532391D01*
X137720549Y-64532393D01*
X137597404Y-64669161D01*
X137505386Y-64828540D01*
X137505383Y-64828546D01*
X137452285Y-64991967D01*
X137448515Y-65003571D01*
X137429278Y-65186600D01*
X132948091Y-65186600D01*
X132947217Y-63186600D01*
X137429278Y-63186600D01*
X137448515Y-63369629D01*
X137448516Y-63369632D01*
X137505383Y-63544653D01*
X137505386Y-63544659D01*
X137597405Y-63704040D01*
X137683521Y-63799682D01*
X137720549Y-63840806D01*
X137720551Y-63840808D01*
X137869434Y-63948978D01*
X137869435Y-63948978D01*
X137869439Y-63948981D01*
X138006553Y-64010028D01*
X138037561Y-64023834D01*
X138037566Y-64023836D01*
X138217581Y-64062100D01*
X138401619Y-64062100D01*
X138581634Y-64023836D01*
X138749761Y-63948981D01*
X138898650Y-63840807D01*
X139021795Y-63704040D01*
X139113814Y-63544659D01*
X139170685Y-63369629D01*
X139189922Y-63186600D01*
X139180820Y-63100000D01*
X141284611Y-63100000D01*
X141304121Y-63298095D01*
X141361903Y-63488574D01*
X141455731Y-63664114D01*
X141455735Y-63664121D01*
X141582011Y-63817988D01*
X141735878Y-63944264D01*
X141735885Y-63944268D01*
X141911425Y-64038096D01*
X141911427Y-64038097D01*
X142101907Y-64095879D01*
X142300000Y-64115389D01*
X142498093Y-64095879D01*
X142688573Y-64038097D01*
X142864120Y-63944265D01*
X143017988Y-63817988D01*
X143144265Y-63664120D01*
X143238097Y-63488573D01*
X143295879Y-63298093D01*
X143315389Y-63100000D01*
X143295879Y-62901907D01*
X143238097Y-62711427D01*
X143209305Y-62657561D01*
X143177521Y-62598097D01*
X144288533Y-62598097D01*
X144289419Y-62609466D01*
X144292686Y-62621071D01*
X144297444Y-62651311D01*
X144299628Y-62665190D01*
X144345645Y-62785366D01*
X144415688Y-62893319D01*
X144506681Y-62984312D01*
X144614634Y-63054355D01*
X144734810Y-63100372D01*
X144778933Y-63107313D01*
X144790535Y-63110579D01*
X144801906Y-63111466D01*
X144814094Y-63110500D01*
X152814722Y-63110500D01*
X152824839Y-63111425D01*
X152838871Y-63110500D01*
X152841566Y-63110500D01*
X152852298Y-63107616D01*
X152899016Y-63101430D01*
X152903220Y-63100000D01*
X154384611Y-63100000D01*
X154404121Y-63298095D01*
X154461903Y-63488574D01*
X154555731Y-63664114D01*
X154555735Y-63664121D01*
X154682011Y-63817988D01*
X154835878Y-63944264D01*
X154835885Y-63944268D01*
X155011425Y-64038096D01*
X155011427Y-64038097D01*
X155201907Y-64095879D01*
X155400000Y-64115389D01*
X155598093Y-64095879D01*
X155788573Y-64038097D01*
X155964120Y-63944265D01*
X156117988Y-63817988D01*
X156244265Y-63664120D01*
X156338097Y-63488573D01*
X156395879Y-63298093D01*
X156415389Y-63100000D01*
X156395879Y-62901907D01*
X156338097Y-62711427D01*
X156309305Y-62657561D01*
X156244268Y-62535885D01*
X156244264Y-62535878D01*
X156117988Y-62382011D01*
X155964121Y-62255735D01*
X155964114Y-62255731D01*
X155788574Y-62161903D01*
X155598095Y-62104121D01*
X155400000Y-62084611D01*
X155201904Y-62104121D01*
X155011425Y-62161903D01*
X154835885Y-62255731D01*
X154835878Y-62255735D01*
X154682011Y-62382011D01*
X154555735Y-62535878D01*
X154555731Y-62535885D01*
X154461903Y-62711425D01*
X154404121Y-62901904D01*
X154384611Y-63100000D01*
X152903220Y-63100000D01*
X153028206Y-63057483D01*
X153146357Y-62989209D01*
X153248944Y-62899225D01*
X153332034Y-62790979D01*
X153392443Y-62668619D01*
X153406135Y-62617633D01*
X153411195Y-62602748D01*
X153411024Y-62599432D01*
X153411025Y-62599430D01*
X153411023Y-62599427D01*
X153410664Y-62592438D01*
X153410500Y-62586054D01*
X153410500Y-54400391D01*
X153410504Y-54399444D01*
X153410951Y-54340897D01*
X153410951Y-54340895D01*
X153389052Y-54242316D01*
X153385274Y-54225308D01*
X153378140Y-54210414D01*
X153334127Y-54118519D01*
X153334126Y-54118518D01*
X153334126Y-54118517D01*
X153260157Y-54026056D01*
X153260155Y-54026055D01*
X153260155Y-54026054D01*
X153167198Y-53952713D01*
X153060067Y-53902289D01*
X153049518Y-53900000D01*
X154384611Y-53900000D01*
X154404121Y-54098095D01*
X154461903Y-54288574D01*
X154555731Y-54464114D01*
X154555735Y-54464121D01*
X154682011Y-54617988D01*
X154835878Y-54744264D01*
X154835885Y-54744268D01*
X154971845Y-54816940D01*
X155011427Y-54838097D01*
X155201907Y-54895879D01*
X155400000Y-54915389D01*
X155598093Y-54895879D01*
X155788573Y-54838097D01*
X155964120Y-54744265D01*
X156117988Y-54617988D01*
X156244265Y-54464120D01*
X156338097Y-54288573D01*
X156395879Y-54098093D01*
X156415389Y-53900000D01*
X156395879Y-53701907D01*
X156338097Y-53511427D01*
X156262306Y-53369632D01*
X156244268Y-53335885D01*
X156244264Y-53335878D01*
X156117988Y-53182011D01*
X155964121Y-53055735D01*
X155964114Y-53055731D01*
X155788574Y-52961903D01*
X155598095Y-52904121D01*
X155400000Y-52884611D01*
X155201904Y-52904121D01*
X155011425Y-52961903D01*
X154835885Y-53055731D01*
X154835878Y-53055735D01*
X154682011Y-53182011D01*
X154555735Y-53335878D01*
X154555731Y-53335885D01*
X154461903Y-53511425D01*
X154404121Y-53701904D01*
X154384611Y-53900000D01*
X153049518Y-53900000D01*
X153018768Y-53893328D01*
X153003478Y-53888544D01*
X153000495Y-53888851D01*
X152987826Y-53889500D01*
X144742478Y-53889500D01*
X144630321Y-53915100D01*
X144526683Y-53965009D01*
X144526678Y-53965012D01*
X144436738Y-54036738D01*
X144365012Y-54126678D01*
X144365009Y-54126683D01*
X144315100Y-54230321D01*
X144289500Y-54342478D01*
X144289500Y-62585906D01*
X144288533Y-62598097D01*
X143177521Y-62598097D01*
X143144268Y-62535885D01*
X143144264Y-62535878D01*
X143017988Y-62382011D01*
X142864121Y-62255735D01*
X142864114Y-62255731D01*
X142688574Y-62161903D01*
X142498095Y-62104121D01*
X142300000Y-62084611D01*
X142101904Y-62104121D01*
X141911425Y-62161903D01*
X141735885Y-62255731D01*
X141735878Y-62255735D01*
X141582011Y-62382011D01*
X141455735Y-62535878D01*
X141455731Y-62535885D01*
X141361903Y-62711425D01*
X141304121Y-62901904D01*
X141284611Y-63100000D01*
X139180820Y-63100000D01*
X139170685Y-63003571D01*
X139133661Y-62889623D01*
X139113816Y-62828546D01*
X139113813Y-62828540D01*
X139021795Y-62669160D01*
X138898650Y-62532393D01*
X138898648Y-62532391D01*
X138749765Y-62424221D01*
X138749762Y-62424219D01*
X138749761Y-62424219D01*
X138654963Y-62382012D01*
X138581638Y-62349365D01*
X138581633Y-62349363D01*
X138401619Y-62311100D01*
X138217581Y-62311100D01*
X138037566Y-62349363D01*
X138037561Y-62349365D01*
X137869439Y-62424219D01*
X137869434Y-62424221D01*
X137720551Y-62532391D01*
X137720549Y-62532393D01*
X137597404Y-62669161D01*
X137505386Y-62828540D01*
X137505383Y-62828546D01*
X137452285Y-62991967D01*
X137448515Y-63003571D01*
X137429278Y-63186600D01*
X132947217Y-63186600D01*
X132946342Y-61186600D01*
X137429278Y-61186600D01*
X137448515Y-61369629D01*
X137448516Y-61369632D01*
X137505383Y-61544653D01*
X137505386Y-61544659D01*
X137597405Y-61704040D01*
X137673079Y-61788085D01*
X137720549Y-61840806D01*
X137720551Y-61840808D01*
X137869434Y-61948978D01*
X137869435Y-61948978D01*
X137869439Y-61948981D01*
X138006553Y-62010028D01*
X138037561Y-62023834D01*
X138037566Y-62023836D01*
X138217581Y-62062100D01*
X138401619Y-62062100D01*
X138581634Y-62023836D01*
X138749761Y-61948981D01*
X138898650Y-61840807D01*
X139021795Y-61704040D01*
X139113814Y-61544659D01*
X139170685Y-61369629D01*
X139189922Y-61186600D01*
X139170685Y-61003571D01*
X139113814Y-60828541D01*
X139021795Y-60669160D01*
X138898650Y-60532393D01*
X138898648Y-60532391D01*
X138749765Y-60424221D01*
X138749762Y-60424219D01*
X138749761Y-60424219D01*
X138650473Y-60380013D01*
X138581638Y-60349365D01*
X138581633Y-60349363D01*
X138401619Y-60311100D01*
X138217581Y-60311100D01*
X138037566Y-60349363D01*
X138037561Y-60349365D01*
X137869439Y-60424219D01*
X137869434Y-60424221D01*
X137720551Y-60532391D01*
X137720549Y-60532393D01*
X137597404Y-60669161D01*
X137505386Y-60828540D01*
X137505383Y-60828546D01*
X137448516Y-61003567D01*
X137448515Y-61003571D01*
X137429278Y-61186600D01*
X132946342Y-61186600D01*
X132945467Y-59186600D01*
X137429278Y-59186600D01*
X137448515Y-59369629D01*
X137448516Y-59369632D01*
X137505383Y-59544653D01*
X137505386Y-59544659D01*
X137597405Y-59704040D01*
X137680393Y-59796208D01*
X137720549Y-59840806D01*
X137720551Y-59840808D01*
X137869434Y-59948978D01*
X137869435Y-59948978D01*
X137869439Y-59948981D01*
X138006553Y-60010028D01*
X138037561Y-60023834D01*
X138037566Y-60023836D01*
X138217581Y-60062100D01*
X138401619Y-60062100D01*
X138581634Y-60023836D01*
X138749761Y-59948981D01*
X138898650Y-59840807D01*
X139021795Y-59704040D01*
X139113814Y-59544659D01*
X139170685Y-59369629D01*
X139189922Y-59186600D01*
X139170685Y-59003571D01*
X139113814Y-58828541D01*
X139021795Y-58669160D01*
X138898650Y-58532393D01*
X138898648Y-58532391D01*
X138749765Y-58424221D01*
X138749762Y-58424219D01*
X138749761Y-58424219D01*
X138688712Y-58397038D01*
X138581638Y-58349365D01*
X138581633Y-58349363D01*
X138401619Y-58311100D01*
X138217581Y-58311100D01*
X138037566Y-58349363D01*
X138037561Y-58349365D01*
X137869439Y-58424219D01*
X137869434Y-58424221D01*
X137720551Y-58532391D01*
X137720549Y-58532393D01*
X137597404Y-58669161D01*
X137505386Y-58828540D01*
X137505383Y-58828546D01*
X137448516Y-59003567D01*
X137448515Y-59003571D01*
X137429278Y-59186600D01*
X132945467Y-59186600D01*
X132944592Y-57186600D01*
X137429278Y-57186600D01*
X137448515Y-57369629D01*
X137448516Y-57369632D01*
X137505383Y-57544653D01*
X137505386Y-57544659D01*
X137597405Y-57704040D01*
X137706927Y-57825677D01*
X137720549Y-57840806D01*
X137720551Y-57840808D01*
X137869434Y-57948978D01*
X137869435Y-57948978D01*
X137869439Y-57948981D01*
X138001544Y-58007798D01*
X138037561Y-58023834D01*
X138037566Y-58023836D01*
X138217581Y-58062100D01*
X138401619Y-58062100D01*
X138581634Y-58023836D01*
X138749761Y-57948981D01*
X138898650Y-57840807D01*
X139021795Y-57704040D01*
X139113814Y-57544659D01*
X139170685Y-57369629D01*
X139189922Y-57186600D01*
X139170685Y-57003571D01*
X139113814Y-56828541D01*
X139021795Y-56669160D01*
X138898650Y-56532393D01*
X138898648Y-56532391D01*
X138749765Y-56424221D01*
X138749762Y-56424219D01*
X138749761Y-56424219D01*
X138688712Y-56397038D01*
X138581638Y-56349365D01*
X138581633Y-56349363D01*
X138401619Y-56311100D01*
X138217581Y-56311100D01*
X138037566Y-56349363D01*
X138037561Y-56349365D01*
X137869439Y-56424219D01*
X137869434Y-56424221D01*
X137720551Y-56532391D01*
X137720549Y-56532393D01*
X137597404Y-56669161D01*
X137505386Y-56828540D01*
X137505383Y-56828546D01*
X137452285Y-56991967D01*
X137448515Y-57003571D01*
X137429278Y-57186600D01*
X132944592Y-57186600D01*
X132943717Y-55186600D01*
X137429278Y-55186600D01*
X137448515Y-55369629D01*
X137448516Y-55369632D01*
X137505383Y-55544653D01*
X137505386Y-55544659D01*
X137597405Y-55704040D01*
X137706927Y-55825677D01*
X137720549Y-55840806D01*
X137720551Y-55840808D01*
X137869434Y-55948978D01*
X137869435Y-55948978D01*
X137869439Y-55948981D01*
X138006553Y-56010028D01*
X138037561Y-56023834D01*
X138037566Y-56023836D01*
X138217581Y-56062100D01*
X138401619Y-56062100D01*
X138581634Y-56023836D01*
X138749761Y-55948981D01*
X138898650Y-55840807D01*
X139021795Y-55704040D01*
X139113814Y-55544659D01*
X139170685Y-55369629D01*
X139189922Y-55186600D01*
X139170685Y-55003571D01*
X139113814Y-54828541D01*
X139021795Y-54669160D01*
X138898650Y-54532393D01*
X138898648Y-54532391D01*
X138749765Y-54424221D01*
X138749762Y-54424219D01*
X138749761Y-54424219D01*
X138685596Y-54395651D01*
X138581638Y-54349365D01*
X138581633Y-54349363D01*
X138401619Y-54311100D01*
X138217581Y-54311100D01*
X138037566Y-54349363D01*
X138037561Y-54349365D01*
X137869439Y-54424219D01*
X137869434Y-54424221D01*
X137720551Y-54532391D01*
X137720549Y-54532393D01*
X137597404Y-54669161D01*
X137505386Y-54828540D01*
X137505383Y-54828546D01*
X137452285Y-54991967D01*
X137448515Y-55003571D01*
X137429278Y-55186600D01*
X132943717Y-55186600D01*
X132943656Y-55047162D01*
X132944610Y-55035676D01*
X132943646Y-55022706D01*
X132943645Y-55022247D01*
X132940620Y-55011327D01*
X132929968Y-54939683D01*
X132872311Y-54764014D01*
X132785886Y-54600568D01*
X132724526Y-54520791D01*
X132673167Y-54454016D01*
X132673166Y-54454015D01*
X132537367Y-54328541D01*
X132382377Y-54227736D01*
X132212620Y-54154479D01*
X132212615Y-54154478D01*
X132032954Y-54110864D01*
X132032944Y-54110863D01*
X131965363Y-54106218D01*
X131958048Y-54104500D01*
X131944640Y-54104500D01*
X131936104Y-54104206D01*
X131928063Y-54103651D01*
X131921184Y-54104500D01*
X126943435Y-54104500D01*
X126937078Y-54104337D01*
X126850874Y-54099912D01*
X126850873Y-54099912D01*
X126829711Y-54102767D01*
X126672908Y-54123929D01*
X126502458Y-54180456D01*
X126345417Y-54267535D01*
X126345406Y-54267542D01*
X126207177Y-54382177D01*
X126092542Y-54520406D01*
X126092535Y-54520417D01*
X126005456Y-54677458D01*
X125948929Y-54847908D01*
X125929488Y-54991967D01*
X125925340Y-55022706D01*
X125924912Y-55025874D01*
X121364648Y-55025874D01*
X121361085Y-54991971D01*
X121304214Y-54816941D01*
X121212195Y-54657560D01*
X121089050Y-54520793D01*
X121089048Y-54520791D01*
X120940165Y-54412621D01*
X120940162Y-54412619D01*
X120940161Y-54412619D01*
X120879112Y-54385438D01*
X120772038Y-54337765D01*
X120772033Y-54337763D01*
X120592019Y-54299500D01*
X120407981Y-54299500D01*
X120227966Y-54337763D01*
X120227961Y-54337765D01*
X120059839Y-54412619D01*
X120059834Y-54412621D01*
X119910951Y-54520791D01*
X119910949Y-54520793D01*
X119787804Y-54657561D01*
X119695786Y-54816940D01*
X119695783Y-54816946D01*
X119638916Y-54991967D01*
X119638915Y-54991971D01*
X119619678Y-55175000D01*
X117128964Y-55175000D01*
X117127728Y-53175000D01*
X119619678Y-53175000D01*
X119638915Y-53358029D01*
X119638916Y-53358032D01*
X119695783Y-53533053D01*
X119695786Y-53533059D01*
X119787805Y-53692440D01*
X119897327Y-53814077D01*
X119910949Y-53829206D01*
X119910951Y-53829208D01*
X120059834Y-53937378D01*
X120059835Y-53937378D01*
X120059839Y-53937381D01*
X120146761Y-53976081D01*
X120227961Y-54012234D01*
X120227966Y-54012236D01*
X120407981Y-54050500D01*
X120592019Y-54050500D01*
X120772034Y-54012236D01*
X120940161Y-53937381D01*
X121089050Y-53829207D01*
X121212195Y-53692440D01*
X121304214Y-53533059D01*
X121361085Y-53358029D01*
X121379103Y-53186600D01*
X137429278Y-53186600D01*
X137448515Y-53369629D01*
X137448516Y-53369632D01*
X137505383Y-53544653D01*
X137505386Y-53544659D01*
X137597405Y-53704040D01*
X137706927Y-53825677D01*
X137720549Y-53840806D01*
X137720551Y-53840808D01*
X137869434Y-53948978D01*
X137869435Y-53948978D01*
X137869439Y-53948981D01*
X137997027Y-54005787D01*
X138037561Y-54023834D01*
X138037566Y-54023836D01*
X138217581Y-54062100D01*
X138401619Y-54062100D01*
X138581634Y-54023836D01*
X138749761Y-53948981D01*
X138817178Y-53900000D01*
X141284611Y-53900000D01*
X141304121Y-54098095D01*
X141361903Y-54288574D01*
X141455731Y-54464114D01*
X141455735Y-54464121D01*
X141582011Y-54617988D01*
X141735878Y-54744264D01*
X141735885Y-54744268D01*
X141871845Y-54816940D01*
X141911427Y-54838097D01*
X142101907Y-54895879D01*
X142300000Y-54915389D01*
X142498093Y-54895879D01*
X142688573Y-54838097D01*
X142864120Y-54744265D01*
X143017988Y-54617988D01*
X143144265Y-54464120D01*
X143238097Y-54288573D01*
X143295879Y-54098093D01*
X143315389Y-53900000D01*
X143295879Y-53701907D01*
X143238097Y-53511427D01*
X143162306Y-53369632D01*
X143144268Y-53335885D01*
X143144264Y-53335878D01*
X143017988Y-53182011D01*
X142864121Y-53055735D01*
X142864114Y-53055731D01*
X142688574Y-52961903D01*
X142498095Y-52904121D01*
X142300000Y-52884611D01*
X142101904Y-52904121D01*
X141911425Y-52961903D01*
X141735885Y-53055731D01*
X141735878Y-53055735D01*
X141582011Y-53182011D01*
X141455735Y-53335878D01*
X141455731Y-53335885D01*
X141361903Y-53511425D01*
X141304121Y-53701904D01*
X141284611Y-53900000D01*
X138817178Y-53900000D01*
X138898650Y-53840807D01*
X139021795Y-53704040D01*
X139113814Y-53544659D01*
X139170685Y-53369629D01*
X139189922Y-53186600D01*
X139170685Y-53003571D01*
X139113814Y-52828541D01*
X139021795Y-52669160D01*
X138898650Y-52532393D01*
X138898648Y-52532391D01*
X138749765Y-52424221D01*
X138749762Y-52424219D01*
X138749761Y-52424219D01*
X138688712Y-52397038D01*
X138581638Y-52349365D01*
X138581633Y-52349363D01*
X138401619Y-52311100D01*
X138217581Y-52311100D01*
X138037566Y-52349363D01*
X138037561Y-52349365D01*
X137869439Y-52424219D01*
X137869434Y-52424221D01*
X137720551Y-52532391D01*
X137720549Y-52532393D01*
X137597404Y-52669161D01*
X137505386Y-52828540D01*
X137505383Y-52828546D01*
X137454282Y-52985821D01*
X137448515Y-53003571D01*
X137429278Y-53186600D01*
X121379103Y-53186600D01*
X121380322Y-53175000D01*
X121361085Y-52991971D01*
X121304214Y-52816941D01*
X121212195Y-52657560D01*
X121089050Y-52520793D01*
X121089048Y-52520791D01*
X120940165Y-52412621D01*
X120940162Y-52412619D01*
X120940161Y-52412619D01*
X120879112Y-52385438D01*
X120772038Y-52337765D01*
X120772033Y-52337763D01*
X120592019Y-52299500D01*
X120407981Y-52299500D01*
X120227966Y-52337763D01*
X120227961Y-52337765D01*
X120059839Y-52412619D01*
X120059834Y-52412621D01*
X119910951Y-52520791D01*
X119910949Y-52520793D01*
X119787804Y-52657561D01*
X119695786Y-52816940D01*
X119695783Y-52816946D01*
X119640913Y-52985821D01*
X119638915Y-52991971D01*
X119619678Y-53175000D01*
X117127728Y-53175000D01*
X117126725Y-51551903D01*
X117127644Y-51541840D01*
X117126711Y-51527743D01*
X117126709Y-51524891D01*
X117123887Y-51514385D01*
X117114303Y-51441852D01*
X117058489Y-51261976D01*
X117014306Y-51175000D01*
X119619678Y-51175000D01*
X119638915Y-51358029D01*
X119638916Y-51358032D01*
X119695783Y-51533053D01*
X119695786Y-51533059D01*
X119787805Y-51692440D01*
X119798250Y-51704040D01*
X119910949Y-51829206D01*
X119910951Y-51829208D01*
X120059834Y-51937378D01*
X120059835Y-51937378D01*
X120059839Y-51937381D01*
X120196953Y-51998428D01*
X120227961Y-52012234D01*
X120227966Y-52012236D01*
X120407981Y-52050500D01*
X120592019Y-52050500D01*
X120772034Y-52012236D01*
X120940161Y-51937381D01*
X121089050Y-51829207D01*
X121212195Y-51692440D01*
X121304214Y-51533059D01*
X121361085Y-51358029D01*
X121379103Y-51186600D01*
X137429278Y-51186600D01*
X137448515Y-51369629D01*
X137448516Y-51369632D01*
X137505383Y-51544653D01*
X137505386Y-51544659D01*
X137597405Y-51704040D01*
X137706927Y-51825677D01*
X137720549Y-51840806D01*
X137720551Y-51840808D01*
X137869434Y-51948978D01*
X137869435Y-51948978D01*
X137869439Y-51948981D01*
X138006553Y-52010028D01*
X138037561Y-52023834D01*
X138037566Y-52023836D01*
X138217581Y-52062100D01*
X138401619Y-52062100D01*
X138581634Y-52023836D01*
X138749761Y-51948981D01*
X138898650Y-51840807D01*
X139021795Y-51704040D01*
X139113814Y-51544659D01*
X139170685Y-51369629D01*
X139189922Y-51186600D01*
X139170685Y-51003571D01*
X139133661Y-50889623D01*
X139113816Y-50828546D01*
X139113813Y-50828540D01*
X139021795Y-50669160D01*
X138898650Y-50532393D01*
X138898648Y-50532391D01*
X138749765Y-50424221D01*
X138749762Y-50424219D01*
X138749761Y-50424219D01*
X138688712Y-50397038D01*
X138581638Y-50349365D01*
X138581633Y-50349363D01*
X138401619Y-50311100D01*
X138217581Y-50311100D01*
X138037566Y-50349363D01*
X138037561Y-50349365D01*
X137869439Y-50424219D01*
X137869434Y-50424221D01*
X137720551Y-50532391D01*
X137720549Y-50532393D01*
X137597404Y-50669161D01*
X137505386Y-50828540D01*
X137505383Y-50828546D01*
X137452285Y-50991967D01*
X137448515Y-51003571D01*
X137429278Y-51186600D01*
X121379103Y-51186600D01*
X121380322Y-51175000D01*
X121361085Y-50991971D01*
X121324061Y-50878023D01*
X121304216Y-50816946D01*
X121304213Y-50816940D01*
X121301832Y-50812816D01*
X121212195Y-50657560D01*
X121089050Y-50520793D01*
X121089048Y-50520791D01*
X120940165Y-50412621D01*
X120940162Y-50412619D01*
X120940161Y-50412619D01*
X120879112Y-50385438D01*
X120772038Y-50337765D01*
X120772033Y-50337763D01*
X120592019Y-50299500D01*
X120407981Y-50299500D01*
X120227966Y-50337763D01*
X120227961Y-50337765D01*
X120059839Y-50412619D01*
X120059834Y-50412621D01*
X119910951Y-50520791D01*
X119910949Y-50520793D01*
X119787804Y-50657561D01*
X119695786Y-50816940D01*
X119695783Y-50816946D01*
X119638916Y-50991967D01*
X119638915Y-50991971D01*
X119619678Y-51175000D01*
X117014306Y-51175000D01*
X116973191Y-51094062D01*
X116860844Y-50942904D01*
X116810490Y-50894806D01*
X116724659Y-50812821D01*
X116724655Y-50812818D01*
X116724653Y-50812816D01*
X116568507Y-50707511D01*
X116568505Y-50707510D01*
X116568497Y-50707505D01*
X116396871Y-50629998D01*
X116396865Y-50629996D01*
X116396863Y-50629995D01*
X116396862Y-50629995D01*
X116214618Y-50582480D01*
X116214615Y-50582479D01*
X116214611Y-50582479D01*
X116144331Y-50576450D01*
X116135858Y-50574387D01*
X116125670Y-50574390D01*
X116115022Y-50573934D01*
X116109980Y-50573500D01*
X116102133Y-50574400D01*
X111040379Y-50576569D01*
X111033518Y-50575728D01*
X111025488Y-50576284D01*
X111016987Y-50576580D01*
X111003669Y-50576586D01*
X110996419Y-50578291D01*
X110937429Y-50582415D01*
X110937428Y-50582415D01*
X110774897Y-50622165D01*
X110621458Y-50688887D01*
X110621453Y-50688890D01*
X110481544Y-50780651D01*
X110481538Y-50780657D01*
X110359212Y-50894797D01*
X110359203Y-50894806D01*
X110257993Y-51028029D01*
X110257992Y-51028030D01*
X110180815Y-51176496D01*
X110129920Y-51335892D01*
X110129919Y-51335900D01*
X110106779Y-51501600D01*
X83610500Y-51501600D01*
X83610500Y-49810894D01*
X83612189Y-49790497D01*
X83614794Y-49774875D01*
X83639977Y-49623872D01*
X83645482Y-49602653D01*
X83702021Y-49444048D01*
X83711180Y-49424133D01*
X83794783Y-49277987D01*
X83807311Y-49259995D01*
X83878438Y-49175000D01*
X119619678Y-49175000D01*
X119638915Y-49358029D01*
X119638916Y-49358032D01*
X119695783Y-49533053D01*
X119695786Y-49533059D01*
X119787805Y-49692440D01*
X119880736Y-49795651D01*
X119910949Y-49829206D01*
X119910951Y-49829208D01*
X120059834Y-49937378D01*
X120059835Y-49937378D01*
X120059839Y-49937381D01*
X120196953Y-49998428D01*
X120227961Y-50012234D01*
X120227966Y-50012236D01*
X120407981Y-50050500D01*
X120592019Y-50050500D01*
X120772034Y-50012236D01*
X120940161Y-49937381D01*
X121089050Y-49829207D01*
X121212195Y-49692440D01*
X121304214Y-49533059D01*
X121361085Y-49358029D01*
X121379103Y-49186600D01*
X137429278Y-49186600D01*
X137448515Y-49369629D01*
X137448516Y-49369632D01*
X137505383Y-49544653D01*
X137505386Y-49544659D01*
X137597405Y-49704040D01*
X137675251Y-49790497D01*
X137720549Y-49840806D01*
X137720551Y-49840808D01*
X137869434Y-49948978D01*
X137869435Y-49948978D01*
X137869439Y-49948981D01*
X138006553Y-50010028D01*
X138037561Y-50023834D01*
X138037566Y-50023836D01*
X138217581Y-50062100D01*
X138401619Y-50062100D01*
X138581634Y-50023836D01*
X138749761Y-49948981D01*
X138898650Y-49840807D01*
X139021795Y-49704040D01*
X139113814Y-49544659D01*
X139170685Y-49369629D01*
X139189922Y-49186600D01*
X139170685Y-49003571D01*
X139119428Y-48845819D01*
X139113816Y-48828546D01*
X139113813Y-48828540D01*
X139021795Y-48669160D01*
X138898650Y-48532393D01*
X138898648Y-48532391D01*
X138749765Y-48424221D01*
X138749762Y-48424219D01*
X138749761Y-48424219D01*
X138688712Y-48397038D01*
X138581638Y-48349365D01*
X138581633Y-48349363D01*
X138401619Y-48311100D01*
X138217581Y-48311100D01*
X138037566Y-48349363D01*
X138037561Y-48349365D01*
X137869439Y-48424219D01*
X137869434Y-48424221D01*
X137720551Y-48532391D01*
X137720549Y-48532393D01*
X137597404Y-48669161D01*
X137505386Y-48828540D01*
X137505383Y-48828546D01*
X137452285Y-48991967D01*
X137448515Y-49003571D01*
X137429278Y-49186600D01*
X121379103Y-49186600D01*
X121380322Y-49175000D01*
X121361085Y-48991971D01*
X121313489Y-48845485D01*
X121304216Y-48816946D01*
X121304213Y-48816940D01*
X121301470Y-48812189D01*
X121212195Y-48657560D01*
X121089050Y-48520793D01*
X121089048Y-48520791D01*
X120940165Y-48412621D01*
X120940162Y-48412619D01*
X120940161Y-48412619D01*
X120879112Y-48385438D01*
X120772038Y-48337765D01*
X120772033Y-48337763D01*
X120592019Y-48299500D01*
X120407981Y-48299500D01*
X120227966Y-48337763D01*
X120227961Y-48337765D01*
X120059839Y-48412619D01*
X120059834Y-48412621D01*
X119910951Y-48520791D01*
X119910949Y-48520793D01*
X119787804Y-48657561D01*
X119695786Y-48816940D01*
X119695783Y-48816946D01*
X119638916Y-48991967D01*
X119638915Y-48991971D01*
X119619678Y-49175000D01*
X83878438Y-49175000D01*
X83915368Y-49130870D01*
X83930870Y-49115368D01*
X84059995Y-49007311D01*
X84077987Y-48994783D01*
X84224133Y-48911180D01*
X84244048Y-48902021D01*
X84402653Y-48845482D01*
X84423872Y-48839977D01*
X84574875Y-48814794D01*
X84590497Y-48812189D01*
X84610894Y-48810500D01*
X88881667Y-48810500D01*
X88889001Y-48811374D01*
X88895656Y-48810864D01*
X88905145Y-48810500D01*
X88917248Y-48810500D01*
X88925056Y-48808634D01*
X88997968Y-48803121D01*
X89186606Y-48754181D01*
X89363664Y-48672757D01*
X89523598Y-48561401D01*
X89661401Y-48423598D01*
X89772757Y-48263664D01*
X89854181Y-48086606D01*
X89903121Y-47897968D01*
X89908634Y-47825056D01*
X89910500Y-47817248D01*
X89910500Y-47805145D01*
X89910864Y-47795656D01*
X89911374Y-47789002D01*
X89910500Y-47781666D01*
X89910500Y-45650000D01*
X92034611Y-45650000D01*
X92054121Y-45848095D01*
X92111903Y-46038574D01*
X92205731Y-46214114D01*
X92205735Y-46214121D01*
X92332011Y-46367988D01*
X92485878Y-46494264D01*
X92485885Y-46494268D01*
X92661425Y-46588096D01*
X92661427Y-46588097D01*
X92851907Y-46645879D01*
X93050000Y-46665389D01*
X93248093Y-46645879D01*
X93438573Y-46588097D01*
X93614120Y-46494265D01*
X93767988Y-46367988D01*
X93894265Y-46214120D01*
X93988097Y-46038573D01*
X94045879Y-45848093D01*
X94065389Y-45650000D01*
X150234611Y-45650000D01*
X150254121Y-45848095D01*
X150311903Y-46038574D01*
X150405731Y-46214114D01*
X150405735Y-46214121D01*
X150532011Y-46367988D01*
X150685878Y-46494264D01*
X150685885Y-46494268D01*
X150861425Y-46588096D01*
X150861427Y-46588097D01*
X151051907Y-46645879D01*
X151250000Y-46665389D01*
X151448093Y-46645879D01*
X151638573Y-46588097D01*
X151814120Y-46494265D01*
X151967988Y-46367988D01*
X152094265Y-46214120D01*
X152188097Y-46038573D01*
X152245879Y-45848093D01*
X152265389Y-45650000D01*
X152245879Y-45451907D01*
X152188097Y-45261427D01*
X152094265Y-45085880D01*
X152094264Y-45085878D01*
X151967988Y-44932011D01*
X151814121Y-44805735D01*
X151814114Y-44805731D01*
X151638574Y-44711903D01*
X151448095Y-44654121D01*
X151250000Y-44634611D01*
X151051904Y-44654121D01*
X150861425Y-44711903D01*
X150685885Y-44805731D01*
X150685878Y-44805735D01*
X150532011Y-44932011D01*
X150405735Y-45085878D01*
X150405731Y-45085885D01*
X150311903Y-45261425D01*
X150254121Y-45451904D01*
X150234611Y-45650000D01*
X94065389Y-45650000D01*
X94045879Y-45451907D01*
X93988097Y-45261427D01*
X93894265Y-45085880D01*
X93894264Y-45085878D01*
X93767988Y-44932011D01*
X93614121Y-44805735D01*
X93614114Y-44805731D01*
X93438574Y-44711903D01*
X93248095Y-44654121D01*
X93050000Y-44634611D01*
X92851904Y-44654121D01*
X92661425Y-44711903D01*
X92485885Y-44805731D01*
X92485878Y-44805735D01*
X92332011Y-44932011D01*
X92205735Y-45085878D01*
X92205731Y-45085885D01*
X92111903Y-45261425D01*
X92054121Y-45451904D01*
X92034611Y-45650000D01*
X89910500Y-45650000D01*
X89910500Y-40510894D01*
X89912189Y-40490497D01*
X89914794Y-40474875D01*
X89939977Y-40323872D01*
X89945482Y-40302653D01*
X90002021Y-40144048D01*
X90011180Y-40124133D01*
X90094783Y-39977987D01*
X90107311Y-39959995D01*
X90215368Y-39830870D01*
X90230870Y-39815368D01*
X90359995Y-39707311D01*
X90377987Y-39694783D01*
X90524133Y-39611180D01*
X90544048Y-39602021D01*
X90702653Y-39545482D01*
X90723872Y-39539977D01*
X90874875Y-39514794D01*
X90890497Y-39512189D01*
X90910894Y-39510500D01*
X164119106Y-39510500D01*
X164139503Y-39512188D01*
G37*
G04 #@! TD.AperFunction*
M02*
