G04 #@! TF.GenerationSoftware,KiCad,Pcbnew,8.0.2*
G04 #@! TF.CreationDate,2024-08-20T08:25:12+02:00*
G04 #@! TF.ProjectId,STS1_SIDEPANEL,53545331-5f53-4494-9445-50414e454c2e,rev?*
G04 #@! TF.SameCoordinates,Original*
G04 #@! TF.FileFunction,Soldermask,Bot*
G04 #@! TF.FilePolarity,Negative*
%FSLAX46Y46*%
G04 Gerber Fmt 4.6, Leading zero omitted, Abs format (unit mm)*
G04 Created by KiCad (PCBNEW 8.0.2) date 2024-08-20 08:25:12*
%MOMM*%
%LPD*%
G01*
G04 APERTURE LIST*
G04 Aperture macros list*
%AMRoundRect*
0 Rectangle with rounded corners*
0 $1 Rounding radius*
0 $2 $3 $4 $5 $6 $7 $8 $9 X,Y pos of 4 corners*
0 Add a 4 corners polygon primitive as box body*
4,1,4,$2,$3,$4,$5,$6,$7,$8,$9,$2,$3,0*
0 Add four circle primitives for the rounded corners*
1,1,$1+$1,$2,$3*
1,1,$1+$1,$4,$5*
1,1,$1+$1,$6,$7*
1,1,$1+$1,$8,$9*
0 Add four rect primitives between the rounded corners*
20,1,$1+$1,$2,$3,$4,$5,0*
20,1,$1+$1,$4,$5,$6,$7,0*
20,1,$1+$1,$6,$7,$8,$9,0*
20,1,$1+$1,$8,$9,$2,$3,0*%
G04 Aperture macros list end*
%ADD10C,6.000000*%
%ADD11C,5.700000*%
%ADD12RoundRect,0.225000X-0.250000X0.225000X-0.250000X-0.225000X0.250000X-0.225000X0.250000X0.225000X0*%
%ADD13RoundRect,0.085000X-0.085000X0.265000X-0.085000X-0.265000X0.085000X-0.265000X0.085000X0.265000X0*%
%ADD14RoundRect,0.225000X-0.225000X-0.250000X0.225000X-0.250000X0.225000X0.250000X-0.225000X0.250000X0*%
%ADD15RoundRect,0.100000X0.637500X0.100000X-0.637500X0.100000X-0.637500X-0.100000X0.637500X-0.100000X0*%
%ADD16RoundRect,0.200000X0.275000X-0.200000X0.275000X0.200000X-0.275000X0.200000X-0.275000X-0.200000X0*%
%ADD17RoundRect,0.102000X0.325000X-0.475000X0.325000X0.475000X-0.325000X0.475000X-0.325000X-0.475000X0*%
%ADD18RoundRect,0.102000X-1.000000X-0.975000X1.000000X-0.975000X1.000000X0.975000X-1.000000X0.975000X0*%
%ADD19RoundRect,0.102000X0.425000X0.325000X-0.425000X0.325000X-0.425000X-0.325000X0.425000X-0.325000X0*%
%ADD20RoundRect,0.225000X0.250000X-0.225000X0.250000X0.225000X-0.250000X0.225000X-0.250000X-0.225000X0*%
%ADD21RoundRect,0.250000X-0.262500X-0.450000X0.262500X-0.450000X0.262500X0.450000X-0.262500X0.450000X0*%
%ADD22RoundRect,0.200000X-0.275000X0.200000X-0.275000X-0.200000X0.275000X-0.200000X0.275000X0.200000X0*%
%ADD23RoundRect,0.200000X-0.200000X-0.275000X0.200000X-0.275000X0.200000X0.275000X-0.200000X0.275000X0*%
%ADD24RoundRect,0.102000X0.715000X2.750000X-0.715000X2.750000X-0.715000X-2.750000X0.715000X-2.750000X0*%
%ADD25RoundRect,0.250000X0.262500X0.450000X-0.262500X0.450000X-0.262500X-0.450000X0.262500X-0.450000X0*%
%ADD26RoundRect,0.102000X-0.150000X-0.800000X0.150000X-0.800000X0.150000X0.800000X-0.150000X0.800000X0*%
%ADD27RoundRect,0.102000X-1.120000X-1.560000X1.120000X-1.560000X1.120000X1.560000X-1.120000X1.560000X0*%
%ADD28R,0.300000X1.000000*%
%ADD29R,1.650000X1.300000*%
%ADD30R,0.400000X1.000000*%
%ADD31R,2.000000X1.300000*%
%ADD32RoundRect,0.250000X0.475000X-0.250000X0.475000X0.250000X-0.475000X0.250000X-0.475000X-0.250000X0*%
%ADD33RoundRect,0.250000X0.350000X0.450000X-0.350000X0.450000X-0.350000X-0.450000X0.350000X-0.450000X0*%
%ADD34RoundRect,0.150000X0.512500X0.150000X-0.512500X0.150000X-0.512500X-0.150000X0.512500X-0.150000X0*%
%ADD35RoundRect,0.250000X-0.250000X-0.475000X0.250000X-0.475000X0.250000X0.475000X-0.250000X0.475000X0*%
%ADD36RoundRect,0.250000X-0.300000X-0.300000X0.300000X-0.300000X0.300000X0.300000X-0.300000X0.300000X0*%
%ADD37RoundRect,0.200000X0.200000X0.275000X-0.200000X0.275000X-0.200000X-0.275000X0.200000X-0.275000X0*%
G04 APERTURE END LIST*
D10*
X101150000Y-110780200D03*
X125150000Y-110780200D03*
D11*
X152050000Y-110780200D03*
D12*
X105025000Y-69850000D03*
X105025000Y-71400000D03*
D13*
X99775000Y-68925000D03*
X100275000Y-68925000D03*
X100775000Y-68925000D03*
X100775000Y-70425000D03*
X100275000Y-70425000D03*
X99775000Y-70425000D03*
D14*
X117525200Y-93510800D03*
X119075200Y-93510800D03*
D15*
X119156100Y-95152000D03*
X119156100Y-95802000D03*
X119156100Y-96452000D03*
X119156100Y-97102000D03*
X113431100Y-97102000D03*
X113431100Y-96452000D03*
X113431100Y-95802000D03*
X113431100Y-95152000D03*
D16*
X111284000Y-100485000D03*
X111284000Y-98835000D03*
D17*
X117780000Y-103740000D03*
D18*
X119105000Y-103740000D03*
D19*
X121160000Y-103740000D03*
D20*
X110885000Y-96980000D03*
X110885000Y-95430000D03*
D21*
X115975000Y-101280000D03*
X117800000Y-101280000D03*
D22*
X109760000Y-98835000D03*
X109760000Y-100485000D03*
D23*
X107780000Y-96955000D03*
X109430000Y-96955000D03*
D24*
X126547500Y-94350000D03*
X122507500Y-94350000D03*
D16*
X103450000Y-69975000D03*
X103450000Y-68325000D03*
D25*
X133762500Y-97250000D03*
X131937500Y-97250000D03*
D26*
X108920000Y-130010000D03*
X109420000Y-130010000D03*
X109920000Y-130010000D03*
X110420000Y-130010000D03*
X110920000Y-130010000D03*
X111420000Y-130010000D03*
X111920000Y-130010000D03*
X112420000Y-130010000D03*
D27*
X107273000Y-128030000D03*
X114067000Y-128030000D03*
D12*
X112808000Y-98644000D03*
X112808000Y-100194000D03*
D23*
X98275000Y-66975000D03*
X99925000Y-66975000D03*
D28*
X138090000Y-127300000D03*
X138590000Y-127300000D03*
X139090000Y-127300000D03*
X139590000Y-127300000D03*
X140090000Y-127300000D03*
X140590000Y-127300000D03*
X141090000Y-127300000D03*
X141590000Y-127300000D03*
X142090000Y-127300000D03*
X142590000Y-127300000D03*
X143090000Y-127300000D03*
X143590000Y-127300000D03*
X144090000Y-127300000D03*
X144590000Y-127300000D03*
X145090000Y-127300000D03*
X145590000Y-127300000D03*
X146090000Y-127300000D03*
X146590000Y-127300000D03*
X147090000Y-127300000D03*
X147590000Y-127300000D03*
X148090000Y-127300000D03*
X148590000Y-127300000D03*
D29*
X135815000Y-125400000D03*
X150865000Y-125400000D03*
D30*
X95510000Y-126030000D03*
X96510000Y-126030000D03*
X97510000Y-126030000D03*
X98510000Y-126030000D03*
D31*
X92710000Y-123330000D03*
X101310000Y-123330000D03*
D32*
X128990000Y-94320000D03*
X128990000Y-92420000D03*
D33*
X107825000Y-122450000D03*
X105825000Y-122450000D03*
D34*
X133287500Y-87800000D03*
X133287500Y-88750000D03*
X133287500Y-89700000D03*
X131012500Y-89700000D03*
X131012500Y-87800000D03*
D28*
X134390000Y-114400000D03*
X134890000Y-114400000D03*
X135390000Y-114400000D03*
X135890000Y-114400000D03*
X136390000Y-114400000D03*
X136890000Y-114400000D03*
X137390000Y-114400000D03*
X137890000Y-114400000D03*
X138390000Y-114400000D03*
X138890000Y-114400000D03*
X139390000Y-114400000D03*
X139890000Y-114400000D03*
X140390000Y-114400000D03*
X140890000Y-114400000D03*
X141390000Y-114400000D03*
X141890000Y-114400000D03*
X142390000Y-114400000D03*
X142890000Y-114400000D03*
X143390000Y-114400000D03*
X143890000Y-114400000D03*
X144390000Y-114400000D03*
X144890000Y-114400000D03*
D29*
X132115000Y-112500000D03*
X147165000Y-112500000D03*
D35*
X120050000Y-101320000D03*
X121950000Y-101320000D03*
D32*
X131050000Y-94310000D03*
X131050000Y-92410000D03*
D23*
X107775000Y-95415000D03*
X109425000Y-95415000D03*
D36*
X119275000Y-99100000D03*
X122075000Y-99100000D03*
D37*
X118967000Y-92040000D03*
X117317000Y-92040000D03*
M02*
