G04 #@! TF.GenerationSoftware,KiCad,Pcbnew,8.0.2*
G04 #@! TF.CreationDate,2024-08-20T08:25:12+02:00*
G04 #@! TF.ProjectId,STS1_SIDEPANEL,53545331-5f53-4494-9445-50414e454c2e,rev?*
G04 #@! TF.SameCoordinates,Original*
G04 #@! TF.FileFunction,Copper,L4,Bot*
G04 #@! TF.FilePolarity,Positive*
%FSLAX46Y46*%
G04 Gerber Fmt 4.6, Leading zero omitted, Abs format (unit mm)*
G04 Created by KiCad (PCBNEW 8.0.2) date 2024-08-20 08:25:12*
%MOMM*%
%LPD*%
G01*
G04 APERTURE LIST*
G04 Aperture macros list*
%AMRoundRect*
0 Rectangle with rounded corners*
0 $1 Rounding radius*
0 $2 $3 $4 $5 $6 $7 $8 $9 X,Y pos of 4 corners*
0 Add a 4 corners polygon primitive as box body*
4,1,4,$2,$3,$4,$5,$6,$7,$8,$9,$2,$3,0*
0 Add four circle primitives for the rounded corners*
1,1,$1+$1,$2,$3*
1,1,$1+$1,$4,$5*
1,1,$1+$1,$6,$7*
1,1,$1+$1,$8,$9*
0 Add four rect primitives between the rounded corners*
20,1,$1+$1,$2,$3,$4,$5,0*
20,1,$1+$1,$4,$5,$6,$7,0*
20,1,$1+$1,$6,$7,$8,$9,0*
20,1,$1+$1,$8,$9,$2,$3,0*%
G04 Aperture macros list end*
G04 #@! TA.AperFunction,FiducialPad,Local*
%ADD10C,6.000000*%
G04 #@! TD*
G04 #@! TA.AperFunction,FiducialPad,Global*
%ADD11C,6.000000*%
G04 #@! TD*
G04 #@! TA.AperFunction,FiducialPad,Global*
%ADD12C,5.700000*%
G04 #@! TD*
G04 #@! TA.AperFunction,SMDPad,CuDef*
%ADD13RoundRect,0.225000X-0.250000X0.225000X-0.250000X-0.225000X0.250000X-0.225000X0.250000X0.225000X0*%
G04 #@! TD*
G04 #@! TA.AperFunction,SMDPad,CuDef*
%ADD14RoundRect,0.085000X-0.085000X0.265000X-0.085000X-0.265000X0.085000X-0.265000X0.085000X0.265000X0*%
G04 #@! TD*
G04 #@! TA.AperFunction,SMDPad,CuDef*
%ADD15RoundRect,0.225000X-0.225000X-0.250000X0.225000X-0.250000X0.225000X0.250000X-0.225000X0.250000X0*%
G04 #@! TD*
G04 #@! TA.AperFunction,SMDPad,CuDef*
%ADD16RoundRect,0.100000X0.637500X0.100000X-0.637500X0.100000X-0.637500X-0.100000X0.637500X-0.100000X0*%
G04 #@! TD*
G04 #@! TA.AperFunction,SMDPad,CuDef*
%ADD17RoundRect,0.200000X0.275000X-0.200000X0.275000X0.200000X-0.275000X0.200000X-0.275000X-0.200000X0*%
G04 #@! TD*
G04 #@! TA.AperFunction,SMDPad,CuDef*
%ADD18R,0.650000X0.950000*%
G04 #@! TD*
G04 #@! TA.AperFunction,SMDPad,CuDef*
%ADD19R,2.000000X1.950000*%
G04 #@! TD*
G04 #@! TA.AperFunction,SMDPad,CuDef*
%ADD20R,0.850000X0.650000*%
G04 #@! TD*
G04 #@! TA.AperFunction,SMDPad,CuDef*
%ADD21RoundRect,0.225000X0.250000X-0.225000X0.250000X0.225000X-0.250000X0.225000X-0.250000X-0.225000X0*%
G04 #@! TD*
G04 #@! TA.AperFunction,SMDPad,CuDef*
%ADD22RoundRect,0.250000X-0.262500X-0.450000X0.262500X-0.450000X0.262500X0.450000X-0.262500X0.450000X0*%
G04 #@! TD*
G04 #@! TA.AperFunction,SMDPad,CuDef*
%ADD23RoundRect,0.200000X-0.275000X0.200000X-0.275000X-0.200000X0.275000X-0.200000X0.275000X0.200000X0*%
G04 #@! TD*
G04 #@! TA.AperFunction,SMDPad,CuDef*
%ADD24RoundRect,0.200000X-0.200000X-0.275000X0.200000X-0.275000X0.200000X0.275000X-0.200000X0.275000X0*%
G04 #@! TD*
G04 #@! TA.AperFunction,SMDPad,CuDef*
%ADD25R,1.430000X5.500000*%
G04 #@! TD*
G04 #@! TA.AperFunction,SMDPad,CuDef*
%ADD26RoundRect,0.250000X0.262500X0.450000X-0.262500X0.450000X-0.262500X-0.450000X0.262500X-0.450000X0*%
G04 #@! TD*
G04 #@! TA.AperFunction,SMDPad,CuDef*
%ADD27R,0.300000X1.600000*%
G04 #@! TD*
G04 #@! TA.AperFunction,SMDPad,CuDef*
%ADD28R,2.240000X3.120000*%
G04 #@! TD*
G04 #@! TA.AperFunction,SMDPad,CuDef*
%ADD29R,0.300000X1.000000*%
G04 #@! TD*
G04 #@! TA.AperFunction,SMDPad,CuDef*
%ADD30R,1.650000X1.300000*%
G04 #@! TD*
G04 #@! TA.AperFunction,SMDPad,CuDef*
%ADD31R,0.400000X1.000000*%
G04 #@! TD*
G04 #@! TA.AperFunction,SMDPad,CuDef*
%ADD32R,2.000000X1.300000*%
G04 #@! TD*
G04 #@! TA.AperFunction,SMDPad,CuDef*
%ADD33RoundRect,0.250000X0.475000X-0.250000X0.475000X0.250000X-0.475000X0.250000X-0.475000X-0.250000X0*%
G04 #@! TD*
G04 #@! TA.AperFunction,SMDPad,CuDef*
%ADD34RoundRect,0.250000X0.350000X0.450000X-0.350000X0.450000X-0.350000X-0.450000X0.350000X-0.450000X0*%
G04 #@! TD*
G04 #@! TA.AperFunction,SMDPad,CuDef*
%ADD35RoundRect,0.150000X0.512500X0.150000X-0.512500X0.150000X-0.512500X-0.150000X0.512500X-0.150000X0*%
G04 #@! TD*
G04 #@! TA.AperFunction,SMDPad,CuDef*
%ADD36RoundRect,0.250000X-0.250000X-0.475000X0.250000X-0.475000X0.250000X0.475000X-0.250000X0.475000X0*%
G04 #@! TD*
G04 #@! TA.AperFunction,SMDPad,CuDef*
%ADD37RoundRect,0.250000X-0.300000X-0.300000X0.300000X-0.300000X0.300000X0.300000X-0.300000X0.300000X0*%
G04 #@! TD*
G04 #@! TA.AperFunction,SMDPad,CuDef*
%ADD38RoundRect,0.200000X0.200000X0.275000X-0.200000X0.275000X-0.200000X-0.275000X0.200000X-0.275000X0*%
G04 #@! TD*
G04 #@! TA.AperFunction,ViaPad*
%ADD39C,0.600000*%
G04 #@! TD*
G04 #@! TA.AperFunction,ViaPad*
%ADD40C,0.800000*%
G04 #@! TD*
G04 #@! TA.AperFunction,ViaPad*
%ADD41C,0.900000*%
G04 #@! TD*
G04 #@! TA.AperFunction,Conductor*
%ADD42C,0.500000*%
G04 #@! TD*
G04 #@! TA.AperFunction,Conductor*
%ADD43C,0.300000*%
G04 #@! TD*
G04 #@! TA.AperFunction,Conductor*
%ADD44C,0.750000*%
G04 #@! TD*
G04 #@! TA.AperFunction,Conductor*
%ADD45C,0.200000*%
G04 #@! TD*
G04 #@! TA.AperFunction,Conductor*
%ADD46C,0.450000*%
G04 #@! TD*
G04 #@! TA.AperFunction,Conductor*
%ADD47C,1.500000*%
G04 #@! TD*
G04 #@! TA.AperFunction,Conductor*
%ADD48C,1.000000*%
G04 #@! TD*
G04 APERTURE END LIST*
D10*
X101150000Y-110780200D03*
D11*
X125150000Y-110780200D03*
D12*
X152050000Y-110780200D03*
D13*
X105025000Y-69850000D03*
X105025000Y-71400000D03*
D14*
X99775000Y-68925000D03*
X100275000Y-68925000D03*
X100775000Y-68925000D03*
X100775000Y-70425000D03*
X100275000Y-70425000D03*
X99775000Y-70425000D03*
D15*
X117525200Y-93510800D03*
X119075200Y-93510800D03*
D16*
X119156100Y-95152000D03*
X119156100Y-95802000D03*
X119156100Y-96452000D03*
X119156100Y-97102000D03*
X113431100Y-97102000D03*
X113431100Y-96452000D03*
X113431100Y-95802000D03*
X113431100Y-95152000D03*
D17*
X111284000Y-100485000D03*
X111284000Y-98835000D03*
D18*
X117780000Y-103740000D03*
D19*
X119105000Y-103740000D03*
D20*
X121160000Y-103740000D03*
D21*
X110885000Y-96980000D03*
X110885000Y-95430000D03*
D22*
X115975000Y-101280000D03*
X117800000Y-101280000D03*
D23*
X109760000Y-98835000D03*
X109760000Y-100485000D03*
D24*
X107780000Y-96955000D03*
X109430000Y-96955000D03*
D25*
X126547500Y-94350000D03*
X122507500Y-94350000D03*
D17*
X103450000Y-69975000D03*
X103450000Y-68325000D03*
D26*
X133762500Y-97250000D03*
X131937500Y-97250000D03*
D27*
X108920000Y-130010000D03*
X109420000Y-130010000D03*
X109920000Y-130010000D03*
X110420000Y-130010000D03*
X110920000Y-130010000D03*
X111420000Y-130010000D03*
X111920000Y-130010000D03*
X112420000Y-130010000D03*
D28*
X107273000Y-128030000D03*
X114067000Y-128030000D03*
D13*
X112808000Y-98644000D03*
X112808000Y-100194000D03*
D24*
X98275000Y-66975000D03*
X99925000Y-66975000D03*
D29*
X138090000Y-127300000D03*
X138590000Y-127300000D03*
X139090000Y-127300000D03*
X139590000Y-127300000D03*
X140090000Y-127300000D03*
X140590000Y-127300000D03*
X141090000Y-127300000D03*
X141590000Y-127300000D03*
X142090000Y-127300000D03*
X142590000Y-127300000D03*
X143090000Y-127300000D03*
X143590000Y-127300000D03*
X144090000Y-127300000D03*
X144590000Y-127300000D03*
X145090000Y-127300000D03*
X145590000Y-127300000D03*
X146090000Y-127300000D03*
X146590000Y-127300000D03*
X147090000Y-127300000D03*
X147590000Y-127300000D03*
X148090000Y-127300000D03*
X148590000Y-127300000D03*
D30*
X135815000Y-125400000D03*
X150865000Y-125400000D03*
D31*
X95510000Y-126030000D03*
X96510000Y-126030000D03*
X97510000Y-126030000D03*
X98510000Y-126030000D03*
D32*
X92710000Y-123330000D03*
X101310000Y-123330000D03*
D33*
X128990000Y-94320000D03*
X128990000Y-92420000D03*
D34*
X107825000Y-122450000D03*
X105825000Y-122450000D03*
D35*
X133287500Y-87800000D03*
X133287500Y-88750000D03*
X133287500Y-89700000D03*
X131012500Y-89700000D03*
X131012500Y-87800000D03*
D29*
X134390000Y-114400000D03*
X134890000Y-114400000D03*
X135390000Y-114400000D03*
X135890000Y-114400000D03*
X136390000Y-114400000D03*
X136890000Y-114400000D03*
X137390000Y-114400000D03*
X137890000Y-114400000D03*
X138390000Y-114400000D03*
X138890000Y-114400000D03*
X139390000Y-114400000D03*
X139890000Y-114400000D03*
X140390000Y-114400000D03*
X140890000Y-114400000D03*
X141390000Y-114400000D03*
X141890000Y-114400000D03*
X142390000Y-114400000D03*
X142890000Y-114400000D03*
X143390000Y-114400000D03*
X143890000Y-114400000D03*
X144390000Y-114400000D03*
X144890000Y-114400000D03*
D30*
X132115000Y-112500000D03*
X147165000Y-112500000D03*
D36*
X120050000Y-101320000D03*
X121950000Y-101320000D03*
D33*
X131050000Y-94310000D03*
X131050000Y-92410000D03*
D24*
X107775000Y-95415000D03*
X109425000Y-95415000D03*
D37*
X119275000Y-99100000D03*
X122075000Y-99100000D03*
D38*
X118967000Y-92040000D03*
X117317000Y-92040000D03*
D39*
X115000000Y-134500000D03*
X165000000Y-59500000D03*
X105467400Y-58827400D03*
D40*
X152900000Y-87425000D03*
D39*
X95000000Y-79000000D03*
X129925000Y-65314300D03*
X125000000Y-53940000D03*
X100000000Y-44500000D03*
X150000000Y-49500000D03*
D40*
X122800000Y-84000000D03*
D39*
X100000000Y-134500000D03*
X160000000Y-59500000D03*
X130000000Y-130000000D03*
D40*
X102925000Y-87425000D03*
D39*
X105000000Y-79000000D03*
X85000000Y-130000000D03*
X140000000Y-134500000D03*
X90000000Y-64735000D03*
X119925000Y-65314300D03*
X105000000Y-44500000D03*
X155000000Y-49500000D03*
X160000000Y-74500000D03*
X160000000Y-44500000D03*
X155000000Y-66265400D03*
D40*
X99925000Y-87425000D03*
D39*
X125000000Y-59020000D03*
X145000000Y-49500000D03*
X150000000Y-44500000D03*
X100000000Y-49500000D03*
X95000000Y-49500000D03*
X135000000Y-44500000D03*
X135000000Y-74158400D03*
D40*
X99925000Y-81425000D03*
X122800000Y-87000000D03*
D39*
X155000000Y-44500000D03*
D40*
X146900000Y-87425000D03*
D39*
X95000000Y-58827400D03*
D40*
X96925000Y-84425000D03*
D39*
X117250000Y-132425000D03*
X160000000Y-66030400D03*
X120000000Y-70313400D03*
X165000000Y-89500000D03*
X125000000Y-49495000D03*
D40*
X146900000Y-84425000D03*
X146900000Y-81425000D03*
D39*
X90000000Y-84500000D03*
D40*
X149900000Y-84425000D03*
D39*
X120000000Y-44500000D03*
X120000000Y-49368000D03*
X95000000Y-84420000D03*
D40*
X122800000Y-81000000D03*
D39*
X125000000Y-130000000D03*
X155000000Y-54500000D03*
D40*
X149900000Y-87425000D03*
D39*
X115225000Y-58827400D03*
X150000000Y-70450000D03*
X95000000Y-134500000D03*
X114925000Y-65314300D03*
X125000000Y-74225000D03*
X130000000Y-44500000D03*
X95000000Y-44500000D03*
X150000000Y-59020000D03*
X155000000Y-62779200D03*
X120000000Y-130000000D03*
X125000000Y-70313400D03*
X120000000Y-74225000D03*
X115000000Y-49520400D03*
D40*
X116800000Y-87000000D03*
D39*
X85000000Y-79000000D03*
D40*
X152900000Y-84425000D03*
D39*
X95000000Y-53584400D03*
X90000000Y-74895000D03*
X165000000Y-70450000D03*
X90000000Y-130000000D03*
X110000000Y-134500000D03*
X110000000Y-44500000D03*
X145000000Y-44500000D03*
D40*
X119800000Y-81000000D03*
D39*
X145000000Y-74158400D03*
X85000000Y-74500000D03*
X130000000Y-74225000D03*
D40*
X119800000Y-84000000D03*
D39*
X90000000Y-69815000D03*
X90000000Y-54500000D03*
X85000000Y-84500000D03*
X85000000Y-99500000D03*
X90000000Y-94500000D03*
D40*
X102925000Y-84425000D03*
D39*
X155000000Y-59020000D03*
X160000000Y-70450000D03*
X155000000Y-79500000D03*
D40*
X96925000Y-87425000D03*
D39*
X124925000Y-65314300D03*
X160000000Y-54500000D03*
X115000000Y-53736800D03*
D40*
X99925000Y-84425000D03*
D39*
X135000000Y-130000000D03*
X165000000Y-94500000D03*
X130000000Y-49500000D03*
X130000000Y-53940000D03*
X150000000Y-54500000D03*
X140000000Y-74158400D03*
X140000000Y-79340000D03*
X165000000Y-79500000D03*
X150000000Y-74260000D03*
X85000000Y-64500000D03*
X100000000Y-79000000D03*
D40*
X149900000Y-81425000D03*
D39*
X140000000Y-49500000D03*
X125000000Y-44500000D03*
X135000000Y-134500000D03*
D40*
X152900000Y-81425000D03*
D39*
X95000000Y-130000000D03*
X160000000Y-79500000D03*
X145000000Y-79500000D03*
X110000000Y-53584400D03*
X135000000Y-49500000D03*
X130000000Y-134500000D03*
X105000000Y-134500000D03*
X85000000Y-89500000D03*
X160000000Y-62544200D03*
X120000000Y-58816800D03*
X165000000Y-54575000D03*
X145000000Y-70246800D03*
X100000000Y-130000000D03*
X164950000Y-130100000D03*
D40*
X116800000Y-84000000D03*
D39*
X115000000Y-74200000D03*
X105467400Y-53584400D03*
D40*
X116800000Y-81000000D03*
D39*
X165000000Y-74500000D03*
X100000000Y-53584400D03*
X105000000Y-49500000D03*
X165000000Y-134500000D03*
X165000000Y-49495000D03*
X165000000Y-66030400D03*
X85000000Y-54500000D03*
X110000000Y-70288400D03*
X100000000Y-58827400D03*
X85000000Y-94500000D03*
D40*
X102925000Y-81425000D03*
D39*
X160000000Y-49500000D03*
X120000000Y-134500000D03*
X155500000Y-134750000D03*
X130000000Y-59020000D03*
X165000000Y-99500000D03*
X120000000Y-53736800D03*
X115000000Y-70288400D03*
X110000000Y-74200000D03*
X85000000Y-59500000D03*
D40*
X96925000Y-81425000D03*
D39*
X115000000Y-44500000D03*
X160000000Y-134500000D03*
X165000000Y-62544200D03*
X125000000Y-134500000D03*
X90000000Y-59655000D03*
X130000000Y-70313400D03*
X140000000Y-70246800D03*
X135000000Y-70246800D03*
X155000000Y-74260000D03*
X90000000Y-89500000D03*
X140000000Y-44500000D03*
X160125000Y-130100000D03*
X85000000Y-69500000D03*
X90000000Y-79000000D03*
X110000000Y-58827400D03*
D40*
X119800000Y-87000000D03*
D39*
X150000000Y-66265400D03*
X110000000Y-49500000D03*
X155000000Y-70450000D03*
X150000000Y-62779200D03*
X116125000Y-98710000D03*
X114586000Y-98898000D03*
X124575000Y-102050000D03*
X127575000Y-103550000D03*
X114615000Y-100320000D03*
X108075000Y-100400000D03*
X116165000Y-97050000D03*
X123075000Y-102050000D03*
X123075000Y-103550000D03*
X127575000Y-102050000D03*
X116995000Y-95790000D03*
X106575000Y-98750000D03*
X124575000Y-103550000D03*
X126075000Y-102050000D03*
X106575000Y-100390000D03*
X115365000Y-95790000D03*
X108075000Y-98760000D03*
X119975000Y-92100000D03*
X116525000Y-93500000D03*
X126075000Y-103550000D03*
D40*
X106900000Y-67475000D03*
D39*
X105525000Y-64700000D03*
X97475609Y-124836890D03*
D40*
X108925000Y-63650000D03*
D39*
X96510000Y-124740000D03*
D40*
X133250000Y-86550000D03*
D39*
X112346998Y-128375000D03*
D41*
X111720000Y-132400000D03*
X110350000Y-105550000D03*
D39*
X111450000Y-127450000D03*
D40*
X128950000Y-87850000D03*
D41*
X111400000Y-104550000D03*
D39*
X109750000Y-101950000D03*
D41*
X113950000Y-104550000D03*
X115150000Y-104550000D03*
D40*
X128950000Y-89850000D03*
D41*
X112750000Y-104550000D03*
D39*
X112300000Y-127125000D03*
D40*
X128950000Y-88850000D03*
D39*
X106625000Y-96950000D03*
D41*
X111720000Y-133650000D03*
D40*
X101925000Y-68600000D03*
X107550000Y-68600000D03*
D39*
X117650000Y-95050000D03*
X114550000Y-95050000D03*
X106725000Y-95410000D03*
X117725000Y-100100000D03*
D42*
X112517000Y-100485000D02*
X112808000Y-100194000D01*
D43*
X120250000Y-92375000D02*
X119975000Y-92100000D01*
X119893599Y-95802000D02*
X120250000Y-95445599D01*
D44*
X117525200Y-93510800D02*
X116535800Y-93510800D01*
D43*
X120250000Y-95445599D02*
X120250000Y-92375000D01*
X110920000Y-131095000D02*
X110920000Y-130510000D01*
X119156100Y-95802000D02*
X119893599Y-95802000D01*
D42*
X111284000Y-100485000D02*
X112517000Y-100485000D01*
D43*
X107485000Y-132015000D02*
X105000000Y-134500000D01*
D44*
X116535800Y-93510800D02*
X116525000Y-93500000D01*
D43*
X110000000Y-134500000D02*
X110000000Y-132015000D01*
X110000000Y-132015000D02*
X110920000Y-131095000D01*
X110000000Y-132015000D02*
X107485000Y-132015000D01*
D42*
X100775000Y-70425000D02*
X103000000Y-70425000D01*
X98275000Y-71375000D02*
X98275000Y-66975000D01*
X105025000Y-69350000D02*
X106900000Y-67475000D01*
X99775000Y-71800000D02*
X98550000Y-71800000D01*
X103000000Y-70425000D02*
X103450000Y-69975000D01*
X98550000Y-71650000D02*
X98275000Y-71375000D01*
X103575000Y-69850000D02*
X103450000Y-69975000D01*
X103000000Y-71025000D02*
X103000000Y-70425000D01*
X88050000Y-115340570D02*
X95510000Y-122800570D01*
X95510000Y-122800570D02*
X95510000Y-126030000D01*
X102225000Y-71800000D02*
X103000000Y-71025000D01*
X100775000Y-70425000D02*
X100395000Y-70425000D01*
X98550000Y-71800000D02*
X98550000Y-71650000D01*
X99775000Y-71800000D02*
X102225000Y-71800000D01*
X95075000Y-71800000D02*
X88050000Y-78825000D01*
X98550000Y-71800000D02*
X95075000Y-71800000D01*
X105025000Y-69850000D02*
X105025000Y-69350000D01*
X105025000Y-69850000D02*
X103575000Y-69850000D01*
X88050000Y-78825000D02*
X88050000Y-115340570D01*
D43*
X102425000Y-64700000D02*
X105525000Y-64700000D01*
X99925000Y-66975000D02*
X100150000Y-66975000D01*
D42*
X97475609Y-125995609D02*
X97510000Y-126030000D01*
X97475609Y-124836890D02*
X97475609Y-125995609D01*
D43*
X100150000Y-66975000D02*
X102425000Y-64700000D01*
X99925000Y-68055000D02*
X99755000Y-68225000D01*
X99925000Y-66975000D02*
X99925000Y-68055000D01*
X99755000Y-68225000D02*
X99755000Y-68925000D01*
D45*
X138090000Y-123390000D02*
X134390000Y-119690000D01*
X138090000Y-127300000D02*
X138090000Y-123390000D01*
X134390000Y-119690000D02*
X134390000Y-114400000D01*
D43*
X103450000Y-68325000D02*
X104250000Y-68325000D01*
X99775000Y-70014030D02*
X99775000Y-70425000D01*
X96530000Y-124740000D02*
X96510000Y-124740000D01*
X100114030Y-69675000D02*
X99775000Y-70014030D01*
D42*
X96510000Y-124740000D02*
X96510000Y-126030000D01*
D43*
X102100000Y-69675000D02*
X100114030Y-69675000D01*
X104250000Y-68325000D02*
X108925000Y-63650000D01*
X103450000Y-68325000D02*
X102100000Y-69675000D01*
D42*
X112617000Y-98835000D02*
X112808000Y-98644000D01*
X112808000Y-98644000D02*
X112808000Y-97750100D01*
X111284000Y-98835000D02*
X112617000Y-98835000D01*
X112808000Y-97750100D02*
X113431100Y-97127000D01*
D46*
X113410000Y-97123100D02*
X113431100Y-97102000D01*
D42*
X109760000Y-98835000D02*
X111284000Y-98835000D01*
D46*
X110885000Y-96980000D02*
X109455000Y-96980000D01*
X109455000Y-96980000D02*
X109430000Y-96955000D01*
X111413000Y-96452000D02*
X110885000Y-96980000D01*
X113431100Y-96452000D02*
X111413000Y-96452000D01*
D42*
X115637000Y-130040000D02*
X112520000Y-130040000D01*
X125000000Y-110780200D02*
X118950000Y-116830200D01*
X118950000Y-116830200D02*
X118950000Y-126727000D01*
D46*
X133287500Y-89700000D02*
X133762500Y-90175000D01*
X133762500Y-90175000D02*
X133762500Y-97250000D01*
D42*
X118950000Y-126727000D02*
X115637000Y-130040000D01*
X133250000Y-87762500D02*
X133287500Y-87800000D01*
X133250000Y-86550000D02*
X133250000Y-87762500D01*
D43*
X111920000Y-128801998D02*
X111920000Y-130010000D01*
X112346998Y-128375000D02*
X111920000Y-128801998D01*
D47*
X111400000Y-104550000D02*
X112750000Y-104550000D01*
D43*
X112300000Y-127502759D02*
X111420000Y-128382759D01*
X111420000Y-128382759D02*
X111420000Y-130010000D01*
D47*
X111375000Y-104525000D02*
X110350000Y-105550000D01*
D43*
X111420000Y-127480000D02*
X111450000Y-127450000D01*
D42*
X111400000Y-103560000D02*
X111400000Y-104525000D01*
D48*
X130962500Y-87850000D02*
X131012500Y-87800000D01*
D47*
X115580000Y-101675000D02*
X115975000Y-101280000D01*
D43*
X112300000Y-127125000D02*
X112300000Y-127502759D01*
D47*
X112750000Y-104550000D02*
X113950000Y-104550000D01*
D43*
X111420000Y-128382759D02*
X111420000Y-127480000D01*
D48*
X128950000Y-88850000D02*
X128950000Y-89850000D01*
D47*
X114250000Y-101675000D02*
X115580000Y-101675000D01*
D42*
X109760000Y-101920000D02*
X111400000Y-103560000D01*
X109760000Y-100485000D02*
X109760000Y-101920000D01*
D48*
X128950000Y-87850000D02*
X130962500Y-87850000D01*
D42*
X116050000Y-101050000D02*
X116065000Y-101065000D01*
D47*
X111400000Y-104525000D02*
X111375000Y-104525000D01*
D42*
X106630000Y-96955000D02*
X106625000Y-96950000D01*
D47*
X111400000Y-104525000D02*
X114250000Y-101675000D01*
D48*
X128950000Y-87850000D02*
X128950000Y-88850000D01*
D43*
X111420000Y-130010000D02*
X111420000Y-131160000D01*
D47*
X113950000Y-104550000D02*
X115150000Y-104550000D01*
D42*
X107780000Y-96955000D02*
X106630000Y-96955000D01*
D46*
X110885000Y-95430000D02*
X109440000Y-95430000D01*
X111257000Y-95802000D02*
X110885000Y-95430000D01*
X109440000Y-95430000D02*
X109425000Y-95415000D01*
X113431100Y-95802000D02*
X111257000Y-95802000D01*
D43*
X107825000Y-122450000D02*
X110420000Y-125045000D01*
X110420000Y-125045000D02*
X110420000Y-130010000D01*
D42*
X98510000Y-124810620D02*
X88750000Y-115050620D01*
X88750000Y-87675000D02*
X105025000Y-71400000D01*
X101600000Y-68925000D02*
X101925000Y-68600000D01*
X105500000Y-71400000D02*
X105025000Y-71400000D01*
X107550000Y-69350000D02*
X105500000Y-71400000D01*
X98510000Y-126030000D02*
X98510000Y-124810620D01*
X88750000Y-115050620D02*
X88750000Y-87675000D01*
X100775000Y-68925000D02*
X101600000Y-68925000D01*
X107550000Y-68600000D02*
X107550000Y-69350000D01*
X100775000Y-68925000D02*
X100355000Y-68925000D01*
D43*
X117650000Y-95050000D02*
X119054100Y-95050000D01*
X114550000Y-95050000D02*
X113533100Y-95050000D01*
X119075200Y-93510800D02*
X119075200Y-95071100D01*
X119075200Y-95071100D02*
X119156100Y-95152000D01*
X119054100Y-95050000D02*
X119156100Y-95152000D01*
D42*
X118967000Y-93402600D02*
X119075200Y-93510800D01*
D43*
X113533100Y-95050000D02*
X113431100Y-95152000D01*
D42*
X118967000Y-92040000D02*
X118967000Y-93402600D01*
D46*
X119135000Y-93451000D02*
X119075200Y-93510800D01*
D42*
X106730000Y-95415000D02*
X106725000Y-95410000D01*
X107775000Y-95415000D02*
X106730000Y-95415000D01*
X117317000Y-90983000D02*
X117317000Y-92040000D01*
X126547500Y-94350000D02*
X126547500Y-90747500D01*
D46*
X132650000Y-93750000D02*
X131950000Y-94450000D01*
D42*
X126547500Y-90747500D02*
X125850000Y-90050000D01*
X125850000Y-90050000D02*
X118250000Y-90050000D01*
D46*
X131012500Y-89700000D02*
X132650000Y-91337500D01*
D42*
X118250000Y-90050000D02*
X117317000Y-90983000D01*
D46*
X132650000Y-91337500D02*
X132650000Y-93750000D01*
D45*
X134890000Y-119624314D02*
X138590000Y-123324314D01*
X138590000Y-123324314D02*
X138590000Y-127300000D01*
X134890000Y-114400000D02*
X134890000Y-119624314D01*
X135390000Y-119558628D02*
X139090000Y-123258628D01*
X139090000Y-123258628D02*
X139090000Y-127300000D01*
X135390000Y-114400000D02*
X135390000Y-119558628D01*
X135890000Y-114400000D02*
X135890000Y-119492942D01*
X135890000Y-119492942D02*
X139590000Y-123192942D01*
X139590000Y-123192942D02*
X139590000Y-127300000D01*
X140090000Y-123127256D02*
X140090000Y-127300000D01*
X136390000Y-114400000D02*
X136390000Y-119427256D01*
X136390000Y-119427256D02*
X140090000Y-123127256D01*
X140590000Y-123061570D02*
X140590000Y-127300000D01*
X136890000Y-119361570D02*
X140590000Y-123061570D01*
X136890000Y-114400000D02*
X136890000Y-119361570D01*
X137390000Y-119295884D02*
X141090000Y-122995884D01*
X137390000Y-114400000D02*
X137390000Y-119295884D01*
X141090000Y-122995884D02*
X141090000Y-127300000D01*
X137890000Y-114400000D02*
X137890000Y-119230198D01*
X141590000Y-122930198D02*
X141590000Y-127300000D01*
X137890000Y-119230198D02*
X141590000Y-122930198D01*
X142090000Y-122864512D02*
X142090000Y-127300000D01*
X138390000Y-114400000D02*
X138390000Y-119164512D01*
X138390000Y-119164512D02*
X142090000Y-122864512D01*
X142590000Y-122798826D02*
X142590000Y-127300000D01*
X138890000Y-119098826D02*
X142590000Y-122798826D01*
X138890000Y-114400000D02*
X138890000Y-119098826D01*
X143090000Y-122733140D02*
X143090000Y-127300000D01*
X139390000Y-114400000D02*
X139390000Y-119033140D01*
X139390000Y-119033140D02*
X143090000Y-122733140D01*
X139890000Y-118967454D02*
X143590000Y-122667454D01*
X143590000Y-122667454D02*
X143590000Y-127300000D01*
X139890000Y-114400000D02*
X139890000Y-118967454D01*
X144090000Y-122601768D02*
X144090000Y-127300000D01*
X140390000Y-114400000D02*
X140390000Y-118901768D01*
X140390000Y-118901768D02*
X144090000Y-122601768D01*
X140890000Y-114400000D02*
X140890000Y-118836082D01*
X144590000Y-122536082D02*
X144590000Y-127300000D01*
X140890000Y-118836082D02*
X144590000Y-122536082D01*
X141390000Y-114400000D02*
X141390000Y-118770396D01*
X145090000Y-122470396D02*
X145090000Y-127300000D01*
X141390000Y-118770396D02*
X145090000Y-122470396D01*
X145590000Y-122404710D02*
X145590000Y-127300000D01*
X141890000Y-118704710D02*
X145590000Y-122404710D01*
X141890000Y-114400000D02*
X141890000Y-118704710D01*
X146090000Y-122339024D02*
X146090000Y-127300000D01*
X142390000Y-114400000D02*
X142390000Y-118639024D01*
X142390000Y-118639024D02*
X146090000Y-122339024D01*
X142890000Y-118573338D02*
X146590000Y-122273338D01*
X142890000Y-114400000D02*
X142890000Y-118573338D01*
X146590000Y-122273338D02*
X146590000Y-127300000D01*
X143390000Y-118507652D02*
X147090000Y-122207652D01*
X147090000Y-122207652D02*
X147090000Y-127300000D01*
X143390000Y-114400000D02*
X143390000Y-118507652D01*
X147590000Y-122141966D02*
X147590000Y-127300000D01*
X143890000Y-118441966D02*
X147590000Y-122141966D01*
X143890000Y-114400000D02*
X143890000Y-118441966D01*
X144390000Y-118376280D02*
X148090000Y-122076280D01*
X144390000Y-114400000D02*
X144390000Y-118376280D01*
X148090000Y-122076280D02*
X148090000Y-127300000D01*
X148590000Y-127300000D02*
X148590000Y-122010594D01*
X144890000Y-118310594D02*
X144890000Y-114400000D01*
X148590000Y-122010594D02*
X144890000Y-118310594D01*
G04 #@! TA.AperFunction,Conductor*
G36*
X107047535Y-68080328D02*
G01*
X107089653Y-68124710D01*
X107097639Y-68185372D01*
X107078840Y-68227598D01*
X107025461Y-68297163D01*
X106964957Y-68443233D01*
X106964955Y-68443241D01*
X106944318Y-68599999D01*
X106944318Y-68600000D01*
X106964955Y-68756758D01*
X106964957Y-68756766D01*
X107025462Y-68902838D01*
X107025463Y-68902840D01*
X107025464Y-68902841D01*
X107079042Y-68972665D01*
X107099466Y-69030340D01*
X107099500Y-69032932D01*
X107099500Y-69122388D01*
X107080593Y-69180579D01*
X107070504Y-69192392D01*
X105518269Y-70744626D01*
X105463752Y-70772403D01*
X105416442Y-70764912D01*
X105415540Y-70767690D01*
X105408127Y-70765281D01*
X105408126Y-70765281D01*
X105374913Y-70760020D01*
X105308490Y-70749500D01*
X105308488Y-70749500D01*
X104741512Y-70749500D01*
X104741510Y-70749500D01*
X104641874Y-70765281D01*
X104641867Y-70765283D01*
X104521782Y-70826470D01*
X104426470Y-70921782D01*
X104365283Y-71041867D01*
X104365281Y-71041874D01*
X104349500Y-71141509D01*
X104349500Y-71397388D01*
X104330593Y-71455579D01*
X104320504Y-71467392D01*
X88669504Y-87118392D01*
X88614987Y-87146169D01*
X88554555Y-87136598D01*
X88511290Y-87093333D01*
X88500500Y-87048388D01*
X88500500Y-79052611D01*
X88519407Y-78994420D01*
X88529496Y-78982607D01*
X95232607Y-72279496D01*
X95287124Y-72251719D01*
X95302611Y-72250500D01*
X102284309Y-72250500D01*
X102374669Y-72226287D01*
X102374672Y-72226287D01*
X102387903Y-72222741D01*
X102398887Y-72219799D01*
X102501614Y-72160489D01*
X103360490Y-71301613D01*
X103419799Y-71198886D01*
X103435172Y-71141512D01*
X103450500Y-71084309D01*
X103450500Y-70674499D01*
X103469407Y-70616308D01*
X103518907Y-70580344D01*
X103549500Y-70575499D01*
X103756521Y-70575499D01*
X103756522Y-70575498D01*
X103803411Y-70568072D01*
X103850299Y-70560647D01*
X103850299Y-70560646D01*
X103850304Y-70560646D01*
X103963342Y-70503050D01*
X104053050Y-70413342D01*
X104083004Y-70354555D01*
X104126268Y-70311290D01*
X104171213Y-70300500D01*
X104357745Y-70300500D01*
X104415936Y-70319407D01*
X104427742Y-70329490D01*
X104521780Y-70423528D01*
X104521782Y-70423529D01*
X104641867Y-70484716D01*
X104641869Y-70484716D01*
X104641874Y-70484719D01*
X104717541Y-70496703D01*
X104741510Y-70500500D01*
X104741512Y-70500500D01*
X105308490Y-70500500D01*
X105329885Y-70497111D01*
X105408126Y-70484719D01*
X105528220Y-70423528D01*
X105623528Y-70328220D01*
X105684719Y-70208126D01*
X105700500Y-70108488D01*
X105700500Y-69591512D01*
X105684719Y-69491874D01*
X105661850Y-69446992D01*
X105652279Y-69386564D01*
X105680055Y-69332047D01*
X106912423Y-68099678D01*
X106966938Y-68071903D01*
X106969449Y-68071538D01*
X106987376Y-68069178D01*
X107047535Y-68080328D01*
G37*
G04 #@! TD.AperFunction*
G04 #@! TA.AperFunction,Conductor*
G36*
X164604540Y-40040933D02*
G01*
X164718978Y-40051689D01*
X164762784Y-40055806D01*
X164779604Y-40058870D01*
X164854365Y-40079289D01*
X164929132Y-40099711D01*
X164945163Y-40105619D01*
X165085429Y-40171577D01*
X165100213Y-40180160D01*
X165227039Y-40269269D01*
X165240129Y-40280270D01*
X165349729Y-40389870D01*
X165360730Y-40402960D01*
X165449839Y-40529786D01*
X165458423Y-40544572D01*
X165524377Y-40684828D01*
X165530290Y-40700872D01*
X165571129Y-40850395D01*
X165574193Y-40867215D01*
X165589066Y-41025457D01*
X165589500Y-41034721D01*
X165589500Y-42696710D01*
X165589303Y-42702945D01*
X165585303Y-42766314D01*
X165585304Y-42766318D01*
X165609029Y-42898401D01*
X165609030Y-42898404D01*
X165663452Y-43021074D01*
X165663453Y-43021076D01*
X165745454Y-43127307D01*
X165745458Y-43127311D01*
X165850348Y-43211026D01*
X165869975Y-43220117D01*
X165972116Y-43267429D01*
X165972117Y-43267429D01*
X165972121Y-43267431D01*
X166026241Y-43278009D01*
X166036480Y-43280845D01*
X166046642Y-43282005D01*
X166049546Y-43282575D01*
X166054983Y-43282620D01*
X166152080Y-43296087D01*
X166172110Y-43301038D01*
X166269092Y-43336095D01*
X166287678Y-43345106D01*
X166375259Y-43399519D01*
X166391572Y-43412191D01*
X166465953Y-43483596D01*
X166479282Y-43499380D01*
X166537223Y-43584665D01*
X166546986Y-43602871D01*
X166582152Y-43688984D01*
X166589500Y-43726412D01*
X166589500Y-136508236D01*
X166581878Y-136546329D01*
X166546431Y-136631359D01*
X166536610Y-136649386D01*
X166478360Y-136734039D01*
X166465032Y-136749653D01*
X166390576Y-136820471D01*
X166374314Y-136833001D01*
X166286854Y-136886939D01*
X166268357Y-136895846D01*
X166171644Y-136930588D01*
X166151709Y-136935487D01*
X166079099Y-136945508D01*
X166068795Y-136943664D01*
X166056646Y-136946039D01*
X166056604Y-136946041D01*
X166048074Y-136947714D01*
X166048013Y-136947726D01*
X165972123Y-136962559D01*
X165972111Y-136962563D01*
X165850345Y-137018964D01*
X165745454Y-137102679D01*
X165745448Y-137102685D01*
X165663446Y-137208918D01*
X165663445Y-137208920D01*
X165609022Y-137331592D01*
X165609021Y-137331595D01*
X165585296Y-137463678D01*
X165589304Y-137527210D01*
X165589500Y-137533443D01*
X165589500Y-139025278D01*
X165589066Y-139034542D01*
X165574193Y-139192784D01*
X165571129Y-139209604D01*
X165530290Y-139359127D01*
X165524377Y-139375171D01*
X165458423Y-139515427D01*
X165449839Y-139530213D01*
X165360730Y-139657039D01*
X165349729Y-139670129D01*
X165240129Y-139779729D01*
X165227039Y-139790730D01*
X165100213Y-139879839D01*
X165085427Y-139888423D01*
X164945171Y-139954377D01*
X164929127Y-139960290D01*
X164779604Y-140001129D01*
X164762784Y-140004193D01*
X164619854Y-140017626D01*
X164604540Y-140019066D01*
X164595279Y-140019500D01*
X91154721Y-140019500D01*
X91145459Y-140019066D01*
X91128705Y-140017491D01*
X90987215Y-140004193D01*
X90970395Y-140001129D01*
X90820872Y-139960290D01*
X90804830Y-139954377D01*
X90734700Y-139921400D01*
X90664572Y-139888423D01*
X90649786Y-139879839D01*
X90522960Y-139790730D01*
X90509870Y-139779729D01*
X90400270Y-139670129D01*
X90389269Y-139657039D01*
X90300160Y-139530213D01*
X90291576Y-139515427D01*
X90264325Y-139457475D01*
X90225619Y-139375163D01*
X90219711Y-139359132D01*
X90199289Y-139284365D01*
X90178870Y-139209604D01*
X90175806Y-139192783D01*
X90160934Y-139034541D01*
X90160500Y-139025278D01*
X90160500Y-133879996D01*
X92234611Y-133879996D01*
X92234611Y-133880003D01*
X92254119Y-134078087D01*
X92254120Y-134078093D01*
X92297828Y-134222176D01*
X92311903Y-134268573D01*
X92311906Y-134268578D01*
X92311907Y-134268581D01*
X92313900Y-134272309D01*
X92405735Y-134444120D01*
X92405737Y-134444122D01*
X92405738Y-134444124D01*
X92532007Y-134597983D01*
X92532016Y-134597992D01*
X92685875Y-134724261D01*
X92685880Y-134724265D01*
X92861427Y-134818097D01*
X92968202Y-134850487D01*
X93051906Y-134875879D01*
X93051912Y-134875880D01*
X93249997Y-134895389D01*
X93250000Y-134895389D01*
X93250003Y-134895389D01*
X93448087Y-134875880D01*
X93448093Y-134875879D01*
X93638573Y-134818097D01*
X93814120Y-134724265D01*
X93967988Y-134597988D01*
X94094265Y-134444120D01*
X94188097Y-134268573D01*
X94245879Y-134078093D01*
X94246377Y-134073042D01*
X94265389Y-133880003D01*
X94265389Y-133879996D01*
X94245880Y-133681912D01*
X94245879Y-133681906D01*
X94230277Y-133630475D01*
X94188097Y-133491427D01*
X94094265Y-133315880D01*
X94094261Y-133315875D01*
X93967992Y-133162016D01*
X93967983Y-133162007D01*
X93814124Y-133035738D01*
X93814122Y-133035737D01*
X93814120Y-133035735D01*
X93738885Y-132995521D01*
X93638581Y-132941907D01*
X93638578Y-132941906D01*
X93638573Y-132941903D01*
X93617636Y-132935551D01*
X93448093Y-132884120D01*
X93448087Y-132884119D01*
X93250003Y-132864611D01*
X93249997Y-132864611D01*
X93051912Y-132884119D01*
X93051906Y-132884120D01*
X92861433Y-132941901D01*
X92861431Y-132941901D01*
X92861427Y-132941903D01*
X92861424Y-132941904D01*
X92861418Y-132941907D01*
X92685885Y-133035732D01*
X92685875Y-133035738D01*
X92532016Y-133162007D01*
X92532007Y-133162016D01*
X92405738Y-133315875D01*
X92405732Y-133315885D01*
X92311907Y-133491418D01*
X92311901Y-133491433D01*
X92254120Y-133681906D01*
X92254119Y-133681912D01*
X92234611Y-133879996D01*
X90160500Y-133879996D01*
X90160500Y-131748922D01*
X90160627Y-131748111D01*
X90160502Y-131730205D01*
X90160500Y-131729512D01*
X90160500Y-131706981D01*
X90160346Y-131706219D01*
X90159931Y-131641697D01*
X90128311Y-131468096D01*
X90067292Y-131302525D01*
X90067291Y-131302524D01*
X90067290Y-131302520D01*
X89978694Y-131149922D01*
X89978691Y-131149918D01*
X89865166Y-131014845D01*
X89865161Y-131014839D01*
X89865154Y-131014833D01*
X89730081Y-130901308D01*
X89730077Y-130901305D01*
X89577479Y-130812709D01*
X89425254Y-130756609D01*
X89411904Y-130751689D01*
X89411902Y-130751688D01*
X89411898Y-130751687D01*
X89238309Y-130720069D01*
X89173776Y-130719653D01*
X89173020Y-130719500D01*
X89154349Y-130719500D01*
X89150488Y-130719500D01*
X89149792Y-130719498D01*
X89132250Y-130719374D01*
X89131432Y-130719500D01*
X84804721Y-130719500D01*
X84795459Y-130719066D01*
X84778705Y-130717491D01*
X84637215Y-130704193D01*
X84620395Y-130701129D01*
X84470872Y-130660290D01*
X84454830Y-130654377D01*
X84316862Y-130589500D01*
X84314572Y-130588423D01*
X84299786Y-130579839D01*
X84172960Y-130490730D01*
X84159870Y-130479729D01*
X84050270Y-130370129D01*
X84039269Y-130357039D01*
X83950160Y-130230213D01*
X83941576Y-130215427D01*
X83914325Y-130157475D01*
X83875619Y-130075163D01*
X83869711Y-130059132D01*
X83849289Y-129984365D01*
X83828870Y-129909604D01*
X83825806Y-129892783D01*
X83810934Y-129734541D01*
X83810500Y-129725278D01*
X83810500Y-122660253D01*
X91509500Y-122660253D01*
X91509500Y-123999746D01*
X91509501Y-123999758D01*
X91521132Y-124058227D01*
X91521133Y-124058231D01*
X91565448Y-124124552D01*
X91631769Y-124168867D01*
X91676231Y-124177711D01*
X91690241Y-124180498D01*
X91690246Y-124180498D01*
X91690252Y-124180500D01*
X91690253Y-124180500D01*
X93729747Y-124180500D01*
X93729748Y-124180500D01*
X93788231Y-124168867D01*
X93854552Y-124124552D01*
X93898867Y-124058231D01*
X93910500Y-123999748D01*
X93910500Y-122660252D01*
X93898867Y-122601769D01*
X93854552Y-122535448D01*
X93854548Y-122535445D01*
X93788233Y-122491134D01*
X93788231Y-122491133D01*
X93788228Y-122491132D01*
X93788227Y-122491132D01*
X93729758Y-122479501D01*
X93729748Y-122479500D01*
X91690252Y-122479500D01*
X91690251Y-122479500D01*
X91690241Y-122479501D01*
X91631772Y-122491132D01*
X91631766Y-122491134D01*
X91565451Y-122535445D01*
X91565445Y-122535451D01*
X91521134Y-122601766D01*
X91521132Y-122601772D01*
X91509501Y-122660241D01*
X91509500Y-122660253D01*
X83810500Y-122660253D01*
X83810500Y-78765692D01*
X87599500Y-78765692D01*
X87599500Y-115399878D01*
X87618400Y-115470418D01*
X87630200Y-115514456D01*
X87630202Y-115514460D01*
X87689507Y-115617179D01*
X87689509Y-115617181D01*
X87689511Y-115617184D01*
X95030505Y-122958178D01*
X95058281Y-123012693D01*
X95059500Y-123028180D01*
X95059500Y-126089309D01*
X95069928Y-126128227D01*
X95090201Y-126203887D01*
X95093328Y-126209303D01*
X95096235Y-126214337D01*
X95109500Y-126263839D01*
X95109500Y-126549746D01*
X95109501Y-126549758D01*
X95121132Y-126608227D01*
X95121134Y-126608233D01*
X95138563Y-126634317D01*
X95165448Y-126674552D01*
X95231769Y-126718867D01*
X95276231Y-126727711D01*
X95290241Y-126730498D01*
X95290246Y-126730498D01*
X95290252Y-126730500D01*
X95290253Y-126730500D01*
X95729747Y-126730500D01*
X95729748Y-126730500D01*
X95788231Y-126718867D01*
X95854552Y-126674552D01*
X95898867Y-126608231D01*
X95910500Y-126549748D01*
X95910500Y-126263839D01*
X95923764Y-126214338D01*
X95923766Y-126214336D01*
X95924264Y-126213471D01*
X95969734Y-126172531D01*
X96030584Y-126166137D01*
X96083572Y-126196730D01*
X96095734Y-126213469D01*
X96096234Y-126214336D01*
X96096236Y-126214338D01*
X96109500Y-126263839D01*
X96109500Y-126549746D01*
X96109501Y-126549758D01*
X96121132Y-126608227D01*
X96121134Y-126608233D01*
X96138563Y-126634317D01*
X96165448Y-126674552D01*
X96231769Y-126718867D01*
X96276231Y-126727711D01*
X96290241Y-126730498D01*
X96290246Y-126730498D01*
X96290252Y-126730500D01*
X96290253Y-126730500D01*
X96729747Y-126730500D01*
X96729748Y-126730500D01*
X96788231Y-126718867D01*
X96854552Y-126674552D01*
X96898867Y-126608231D01*
X96910500Y-126549748D01*
X96910500Y-126287283D01*
X96929407Y-126229092D01*
X96978907Y-126193128D01*
X97040093Y-126193128D01*
X97089593Y-126229092D01*
X97095236Y-126237782D01*
X97096236Y-126239514D01*
X97109500Y-126289015D01*
X97109500Y-126549746D01*
X97109501Y-126549758D01*
X97121132Y-126608227D01*
X97121134Y-126608233D01*
X97138563Y-126634317D01*
X97165448Y-126674552D01*
X97231769Y-126718867D01*
X97276231Y-126727711D01*
X97290241Y-126730498D01*
X97290246Y-126730498D01*
X97290252Y-126730500D01*
X97290253Y-126730500D01*
X97729747Y-126730500D01*
X97729748Y-126730500D01*
X97788231Y-126718867D01*
X97854552Y-126674552D01*
X97898867Y-126608231D01*
X97910500Y-126549748D01*
X97910500Y-126263839D01*
X97923764Y-126214339D01*
X97923790Y-126214295D01*
X97924264Y-126213472D01*
X97969734Y-126172532D01*
X98030584Y-126166138D01*
X98083572Y-126196731D01*
X98095711Y-126213430D01*
X98096211Y-126214295D01*
X98109500Y-126263839D01*
X98109500Y-126549746D01*
X98109501Y-126549758D01*
X98121132Y-126608227D01*
X98121134Y-126608233D01*
X98138563Y-126634317D01*
X98165448Y-126674552D01*
X98231769Y-126718867D01*
X98276231Y-126727711D01*
X98290241Y-126730498D01*
X98290246Y-126730498D01*
X98290252Y-126730500D01*
X98290253Y-126730500D01*
X98729747Y-126730500D01*
X98729748Y-126730500D01*
X98788231Y-126718867D01*
X98854552Y-126674552D01*
X98898867Y-126608231D01*
X98910500Y-126549748D01*
X98910500Y-126263839D01*
X98923764Y-126214337D01*
X98929799Y-126203886D01*
X98960500Y-126089309D01*
X98960500Y-124751311D01*
X98929799Y-124636734D01*
X98887527Y-124563517D01*
X98870489Y-124534006D01*
X96996736Y-122660253D01*
X100109500Y-122660253D01*
X100109500Y-123999746D01*
X100109501Y-123999758D01*
X100121132Y-124058227D01*
X100121133Y-124058231D01*
X100165448Y-124124552D01*
X100231769Y-124168867D01*
X100276231Y-124177711D01*
X100290241Y-124180498D01*
X100290246Y-124180498D01*
X100290252Y-124180500D01*
X100290253Y-124180500D01*
X102329747Y-124180500D01*
X102329748Y-124180500D01*
X102388231Y-124168867D01*
X102454552Y-124124552D01*
X102498867Y-124058231D01*
X102510500Y-123999748D01*
X102510500Y-122947824D01*
X104974999Y-122947824D01*
X104981401Y-123007370D01*
X104981403Y-123007381D01*
X105031646Y-123142088D01*
X105031647Y-123142090D01*
X105117807Y-123257184D01*
X105117815Y-123257192D01*
X105232909Y-123343352D01*
X105232911Y-123343353D01*
X105367618Y-123393596D01*
X105367629Y-123393598D01*
X105427176Y-123400000D01*
X105649999Y-123400000D01*
X105650000Y-123399999D01*
X105650000Y-122625001D01*
X106000000Y-122625001D01*
X106000000Y-123399999D01*
X106000001Y-123400000D01*
X106222824Y-123400000D01*
X106282370Y-123393598D01*
X106282381Y-123393596D01*
X106417088Y-123343353D01*
X106417090Y-123343352D01*
X106532184Y-123257192D01*
X106532192Y-123257184D01*
X106618352Y-123142090D01*
X106618353Y-123142088D01*
X106668596Y-123007381D01*
X106668598Y-123007370D01*
X106675000Y-122947824D01*
X106675000Y-122625001D01*
X106674999Y-122625000D01*
X106000001Y-122625000D01*
X106000000Y-122625001D01*
X105650000Y-122625001D01*
X105649999Y-122625000D01*
X104975001Y-122625000D01*
X104975000Y-122625001D01*
X104975000Y-122947824D01*
X104974999Y-122947824D01*
X102510500Y-122947824D01*
X102510500Y-122660252D01*
X102498867Y-122601769D01*
X102454552Y-122535448D01*
X102454548Y-122535445D01*
X102388233Y-122491134D01*
X102388231Y-122491133D01*
X102388228Y-122491132D01*
X102388227Y-122491132D01*
X102329758Y-122479501D01*
X102329748Y-122479500D01*
X100290252Y-122479500D01*
X100290251Y-122479500D01*
X100290241Y-122479501D01*
X100231772Y-122491132D01*
X100231766Y-122491134D01*
X100165451Y-122535445D01*
X100165445Y-122535451D01*
X100121134Y-122601766D01*
X100121132Y-122601772D01*
X100109501Y-122660241D01*
X100109500Y-122660253D01*
X96996736Y-122660253D01*
X96288658Y-121952175D01*
X104975000Y-121952175D01*
X104975000Y-122274999D01*
X104975001Y-122275000D01*
X105649999Y-122275000D01*
X105650000Y-122274999D01*
X105650000Y-121500001D01*
X106000000Y-121500001D01*
X106000000Y-122274999D01*
X106000001Y-122275000D01*
X106674999Y-122275000D01*
X106675000Y-122274999D01*
X106675000Y-121952175D01*
X106668598Y-121892629D01*
X106668596Y-121892618D01*
X106618353Y-121757911D01*
X106618352Y-121757909D01*
X106532192Y-121642815D01*
X106532184Y-121642807D01*
X106417090Y-121556647D01*
X106417088Y-121556646D01*
X106282381Y-121506403D01*
X106282370Y-121506401D01*
X106222824Y-121500000D01*
X106000001Y-121500000D01*
X106000000Y-121500001D01*
X105650000Y-121500001D01*
X105649999Y-121500000D01*
X105427176Y-121500000D01*
X105367629Y-121506401D01*
X105367618Y-121506403D01*
X105232911Y-121556646D01*
X105232909Y-121556647D01*
X105117815Y-121642807D01*
X105117807Y-121642815D01*
X105031647Y-121757909D01*
X105031646Y-121757911D01*
X104981403Y-121892618D01*
X104981401Y-121892629D01*
X104975000Y-121952175D01*
X96288658Y-121952175D01*
X89229496Y-114893013D01*
X89201719Y-114838496D01*
X89200500Y-114823009D01*
X89200500Y-109676362D01*
X90894500Y-109676362D01*
X90894500Y-115123656D01*
X90895677Y-115145594D01*
X90895678Y-115145603D01*
X90898511Y-115171961D01*
X90898512Y-115171966D01*
X90922469Y-115248479D01*
X90955957Y-115309806D01*
X90991010Y-115356630D01*
X94818376Y-119183996D01*
X94834722Y-119198679D01*
X94834738Y-119198693D01*
X94855380Y-119215327D01*
X94926425Y-119252490D01*
X94926426Y-119252490D01*
X94926428Y-119252491D01*
X94926561Y-119252530D01*
X94993464Y-119272175D01*
X95051362Y-119280500D01*
X118400500Y-119280500D01*
X118458691Y-119299407D01*
X118494655Y-119348907D01*
X118499500Y-119379500D01*
X118499500Y-126499389D01*
X118480593Y-126557580D01*
X118470504Y-126569393D01*
X115556504Y-129483393D01*
X115501987Y-129511170D01*
X115441555Y-129501599D01*
X115398290Y-129458334D01*
X115387500Y-129413389D01*
X115387500Y-126450253D01*
X115387498Y-126450241D01*
X115384711Y-126436231D01*
X115375867Y-126391769D01*
X115331552Y-126325448D01*
X115331548Y-126325445D01*
X115265233Y-126281134D01*
X115265231Y-126281133D01*
X115265228Y-126281132D01*
X115265227Y-126281132D01*
X115206758Y-126269501D01*
X115206748Y-126269500D01*
X112927252Y-126269500D01*
X112927251Y-126269500D01*
X112927241Y-126269501D01*
X112868772Y-126281132D01*
X112868766Y-126281134D01*
X112802451Y-126325445D01*
X112802445Y-126325451D01*
X112758134Y-126391766D01*
X112758132Y-126391772D01*
X112746501Y-126450241D01*
X112746500Y-126450253D01*
X112746500Y-126635697D01*
X112727593Y-126693888D01*
X112678093Y-126729852D01*
X112616907Y-126729852D01*
X112593977Y-126718981D01*
X112510057Y-126665049D01*
X112510054Y-126665047D01*
X112510053Y-126665047D01*
X112507676Y-126664349D01*
X112371964Y-126624500D01*
X112371961Y-126624500D01*
X112228039Y-126624500D01*
X112228035Y-126624500D01*
X112089949Y-126665046D01*
X112089942Y-126665049D01*
X111968873Y-126742855D01*
X111874622Y-126851627D01*
X111824526Y-126961320D01*
X111783153Y-127006397D01*
X111723186Y-127018547D01*
X111680951Y-127003477D01*
X111660053Y-126990047D01*
X111660050Y-126990046D01*
X111521964Y-126949500D01*
X111521961Y-126949500D01*
X111378039Y-126949500D01*
X111378035Y-126949500D01*
X111239949Y-126990046D01*
X111239942Y-126990049D01*
X111118873Y-127067855D01*
X111024622Y-127176628D01*
X110964835Y-127307540D01*
X110964489Y-127308721D01*
X110963909Y-127309568D01*
X110961893Y-127313984D01*
X110961128Y-127313634D01*
X110929951Y-127359226D01*
X110872323Y-127379785D01*
X110813616Y-127362544D01*
X110776256Y-127314090D01*
X110770500Y-127280825D01*
X110770500Y-124998857D01*
X110770062Y-124997223D01*
X110746614Y-124909712D01*
X110720975Y-124865304D01*
X110700470Y-124829788D01*
X108654496Y-122783814D01*
X108626719Y-122729297D01*
X108625500Y-122713810D01*
X108625500Y-121945727D01*
X108625499Y-121945725D01*
X108622646Y-121915305D01*
X108622646Y-121915301D01*
X108577793Y-121787118D01*
X108565258Y-121770134D01*
X108497154Y-121677855D01*
X108497152Y-121677853D01*
X108497150Y-121677850D01*
X108497146Y-121677847D01*
X108497144Y-121677845D01*
X108387883Y-121597207D01*
X108259703Y-121552355D01*
X108259694Y-121552353D01*
X108229274Y-121549500D01*
X108229266Y-121549500D01*
X107420734Y-121549500D01*
X107420725Y-121549500D01*
X107390305Y-121552353D01*
X107390296Y-121552355D01*
X107262116Y-121597207D01*
X107152855Y-121677845D01*
X107152845Y-121677855D01*
X107072207Y-121787116D01*
X107027355Y-121915296D01*
X107027353Y-121915305D01*
X107024500Y-121945725D01*
X107024500Y-122954274D01*
X107027353Y-122984694D01*
X107027355Y-122984703D01*
X107072207Y-123112883D01*
X107152845Y-123222144D01*
X107152847Y-123222146D01*
X107152850Y-123222150D01*
X107152853Y-123222152D01*
X107152855Y-123222154D01*
X107262116Y-123302792D01*
X107262117Y-123302792D01*
X107262118Y-123302793D01*
X107390301Y-123347646D01*
X107420725Y-123350499D01*
X107420727Y-123350500D01*
X108188810Y-123350500D01*
X108247001Y-123369407D01*
X108258814Y-123379496D01*
X110040504Y-125161186D01*
X110068281Y-125215703D01*
X110069500Y-125231190D01*
X110069500Y-128910500D01*
X110050593Y-128968691D01*
X110001093Y-129004655D01*
X109970500Y-129009500D01*
X109750248Y-129009500D01*
X109689314Y-129021621D01*
X109650686Y-129021621D01*
X109589751Y-129009500D01*
X109589748Y-129009500D01*
X109250252Y-129009500D01*
X109250248Y-129009500D01*
X109189314Y-129021621D01*
X109150686Y-129021621D01*
X109089751Y-129009500D01*
X109089748Y-129009500D01*
X108750252Y-129009500D01*
X108750251Y-129009500D01*
X108737486Y-129012039D01*
X108711813Y-129017145D01*
X108651053Y-129009955D01*
X108606123Y-128968422D01*
X108593500Y-128920048D01*
X108593500Y-126450253D01*
X108593498Y-126450241D01*
X108590711Y-126436231D01*
X108581867Y-126391769D01*
X108537552Y-126325448D01*
X108537548Y-126325445D01*
X108471233Y-126281134D01*
X108471231Y-126281133D01*
X108471228Y-126281132D01*
X108471227Y-126281132D01*
X108412758Y-126269501D01*
X108412748Y-126269500D01*
X106133252Y-126269500D01*
X106133251Y-126269500D01*
X106133241Y-126269501D01*
X106074772Y-126281132D01*
X106074766Y-126281134D01*
X106008451Y-126325445D01*
X106008445Y-126325451D01*
X105964134Y-126391766D01*
X105964132Y-126391772D01*
X105952501Y-126450241D01*
X105952500Y-126450253D01*
X105952500Y-129609746D01*
X105952501Y-129609758D01*
X105964132Y-129668227D01*
X105964134Y-129668233D01*
X106008445Y-129734548D01*
X106008448Y-129734552D01*
X106074769Y-129778867D01*
X106119231Y-129787711D01*
X106133241Y-129790498D01*
X106133246Y-129790498D01*
X106133252Y-129790500D01*
X106133253Y-129790500D01*
X108412747Y-129790500D01*
X108412748Y-129790500D01*
X108451185Y-129782854D01*
X108511945Y-129790044D01*
X108556876Y-129831575D01*
X108569500Y-129879951D01*
X108569500Y-130829746D01*
X108569501Y-130829758D01*
X108581132Y-130888227D01*
X108581134Y-130888233D01*
X108589871Y-130901308D01*
X108625448Y-130954552D01*
X108691769Y-130998867D01*
X108736231Y-131007711D01*
X108750241Y-131010498D01*
X108750246Y-131010498D01*
X108750252Y-131010500D01*
X108750253Y-131010500D01*
X109089747Y-131010500D01*
X109089748Y-131010500D01*
X109139182Y-131000667D01*
X109150685Y-130998379D01*
X109189315Y-130998379D01*
X109250241Y-131010498D01*
X109250246Y-131010498D01*
X109250252Y-131010500D01*
X109250253Y-131010500D01*
X109589747Y-131010500D01*
X109589748Y-131010500D01*
X109639182Y-131000667D01*
X109650685Y-130998379D01*
X109689315Y-130998379D01*
X109750241Y-131010498D01*
X109750246Y-131010498D01*
X109750252Y-131010500D01*
X109750253Y-131010500D01*
X110089747Y-131010500D01*
X110089748Y-131010500D01*
X110139182Y-131000667D01*
X110150685Y-130998379D01*
X110189315Y-130998379D01*
X110250241Y-131010498D01*
X110250246Y-131010498D01*
X110250252Y-131010500D01*
X110250253Y-131010500D01*
X110590050Y-131010500D01*
X110645052Y-131027185D01*
X110672452Y-131045493D01*
X110745375Y-131059999D01*
X110745377Y-131060000D01*
X110769999Y-131060000D01*
X110770000Y-131059999D01*
X110770000Y-130839687D01*
X110770477Y-130829978D01*
X110770500Y-130829744D01*
X110770500Y-127619174D01*
X110789407Y-127560983D01*
X110838907Y-127525019D01*
X110900093Y-127525019D01*
X110949593Y-127560983D01*
X110964490Y-127591281D01*
X110964836Y-127592461D01*
X111024623Y-127723373D01*
X111045318Y-127747256D01*
X111069137Y-127803615D01*
X111069500Y-127812088D01*
X111069500Y-130925346D01*
X111068714Y-130937798D01*
X111068559Y-130939015D01*
X111066045Y-130963859D01*
X111066044Y-130963872D01*
X111065000Y-130984531D01*
X111065000Y-131101053D01*
X111061626Y-131126680D01*
X111058491Y-131138378D01*
X111048603Y-131162249D01*
X111033882Y-131187747D01*
X111019722Y-131217583D01*
X111019721Y-131217584D01*
X111005621Y-131254742D01*
X110996421Y-131286471D01*
X110851325Y-131995828D01*
X110851325Y-131995830D01*
X110848087Y-132017454D01*
X110845578Y-132043710D01*
X110844659Y-132065523D01*
X110844659Y-132065534D01*
X110868151Y-134179659D01*
X110868152Y-134179677D01*
X110873079Y-134222173D01*
X110884276Y-134272303D01*
X110886519Y-134281370D01*
X110886520Y-134281373D01*
X110929530Y-134362085D01*
X110975285Y-134414889D01*
X110975297Y-134414901D01*
X110992877Y-134432844D01*
X110992879Y-134432846D01*
X111072688Y-134477488D01*
X111072692Y-134477490D01*
X111113924Y-134489597D01*
X111139732Y-134497175D01*
X111197630Y-134505500D01*
X111197631Y-134505500D01*
X112225995Y-134505500D01*
X112226000Y-134505500D01*
X112269684Y-134500803D01*
X112321195Y-134489597D01*
X112331373Y-134487110D01*
X112412085Y-134444100D01*
X112464889Y-134398345D01*
X112482843Y-134380754D01*
X112482844Y-134380751D01*
X112482846Y-134380750D01*
X112527488Y-134300941D01*
X112527490Y-134300937D01*
X112533235Y-134281373D01*
X112547175Y-134233898D01*
X112555500Y-134176000D01*
X112555500Y-133879996D01*
X162434611Y-133879996D01*
X162434611Y-133880003D01*
X162454119Y-134078087D01*
X162454120Y-134078093D01*
X162497828Y-134222176D01*
X162511903Y-134268573D01*
X162511906Y-134268578D01*
X162511907Y-134268581D01*
X162513900Y-134272309D01*
X162605735Y-134444120D01*
X162605737Y-134444122D01*
X162605738Y-134444124D01*
X162732007Y-134597983D01*
X162732016Y-134597992D01*
X162885875Y-134724261D01*
X162885880Y-134724265D01*
X163061427Y-134818097D01*
X163168202Y-134850487D01*
X163251906Y-134875879D01*
X163251912Y-134875880D01*
X163449997Y-134895389D01*
X163450000Y-134895389D01*
X163450003Y-134895389D01*
X163648087Y-134875880D01*
X163648093Y-134875879D01*
X163838573Y-134818097D01*
X164014120Y-134724265D01*
X164167988Y-134597988D01*
X164294265Y-134444120D01*
X164388097Y-134268573D01*
X164445879Y-134078093D01*
X164446377Y-134073042D01*
X164465389Y-133880003D01*
X164465389Y-133879996D01*
X164445880Y-133681912D01*
X164445879Y-133681906D01*
X164430277Y-133630475D01*
X164388097Y-133491427D01*
X164294265Y-133315880D01*
X164294261Y-133315875D01*
X164167992Y-133162016D01*
X164167983Y-133162007D01*
X164014124Y-133035738D01*
X164014122Y-133035737D01*
X164014120Y-133035735D01*
X163938885Y-132995521D01*
X163838581Y-132941907D01*
X163838578Y-132941906D01*
X163838573Y-132941903D01*
X163817636Y-132935551D01*
X163648093Y-132884120D01*
X163648087Y-132884119D01*
X163450003Y-132864611D01*
X163449997Y-132864611D01*
X163251912Y-132884119D01*
X163251906Y-132884120D01*
X163061433Y-132941901D01*
X163061431Y-132941901D01*
X163061427Y-132941903D01*
X163061424Y-132941904D01*
X163061418Y-132941907D01*
X162885885Y-133035732D01*
X162885875Y-133035738D01*
X162732016Y-133162007D01*
X162732007Y-133162016D01*
X162605738Y-133315875D01*
X162605732Y-133315885D01*
X162511907Y-133491418D01*
X162511901Y-133491433D01*
X162454120Y-133681906D01*
X162454119Y-133681912D01*
X162434611Y-133879996D01*
X112555500Y-133879996D01*
X112555500Y-132082767D01*
X112548680Y-132030265D01*
X112548679Y-132030263D01*
X112548679Y-132030259D01*
X112539580Y-131995828D01*
X112532493Y-131969009D01*
X112512486Y-131919992D01*
X112404652Y-131730205D01*
X112161652Y-131302525D01*
X112073029Y-131146549D01*
X112060722Y-131086615D01*
X112085994Y-131030893D01*
X112139192Y-131000667D01*
X112139651Y-131000573D01*
X112148231Y-130998867D01*
X112148232Y-130998866D01*
X112150686Y-130998378D01*
X112189315Y-130998379D01*
X112250241Y-131010498D01*
X112250246Y-131010498D01*
X112250252Y-131010500D01*
X112250253Y-131010500D01*
X112589747Y-131010500D01*
X112589748Y-131010500D01*
X112648231Y-130998867D01*
X112714552Y-130954552D01*
X112758867Y-130888231D01*
X112770500Y-130829748D01*
X112770500Y-130589500D01*
X112789407Y-130531309D01*
X112838907Y-130495345D01*
X112869500Y-130490500D01*
X115696309Y-130490500D01*
X115786669Y-130466287D01*
X115786672Y-130466287D01*
X115799903Y-130462741D01*
X115810887Y-130459799D01*
X115913614Y-130400489D01*
X119310490Y-127003613D01*
X119369799Y-126900886D01*
X119384899Y-126844531D01*
X119400500Y-126786309D01*
X119400500Y-124730253D01*
X134789500Y-124730253D01*
X134789500Y-126069746D01*
X134789501Y-126069758D01*
X134801132Y-126128227D01*
X134801134Y-126128233D01*
X134830734Y-126172532D01*
X134845448Y-126194552D01*
X134911769Y-126238867D01*
X134956231Y-126247711D01*
X134970241Y-126250498D01*
X134970246Y-126250498D01*
X134970252Y-126250500D01*
X134970253Y-126250500D01*
X136659747Y-126250500D01*
X136659748Y-126250500D01*
X136718231Y-126238867D01*
X136784552Y-126194552D01*
X136828867Y-126128231D01*
X136840500Y-126069748D01*
X136840500Y-124730252D01*
X136828867Y-124671769D01*
X136784552Y-124605448D01*
X136772722Y-124597543D01*
X136718233Y-124561134D01*
X136718231Y-124561133D01*
X136718228Y-124561132D01*
X136718227Y-124561132D01*
X136659758Y-124549501D01*
X136659748Y-124549500D01*
X134970252Y-124549500D01*
X134970251Y-124549500D01*
X134970241Y-124549501D01*
X134911772Y-124561132D01*
X134911766Y-124561134D01*
X134845451Y-124605445D01*
X134845445Y-124605451D01*
X134801134Y-124671766D01*
X134801132Y-124671772D01*
X134789501Y-124730241D01*
X134789500Y-124730253D01*
X119400500Y-124730253D01*
X119400500Y-119379500D01*
X119419407Y-119321309D01*
X119468907Y-119285345D01*
X119499500Y-119280500D01*
X124398620Y-119280500D01*
X124398638Y-119280500D01*
X124420607Y-119279322D01*
X124446965Y-119276488D01*
X124523482Y-119252529D01*
X124584805Y-119219044D01*
X124631629Y-119183991D01*
X129935367Y-113880253D01*
X134039500Y-113880253D01*
X134039500Y-114919746D01*
X134039501Y-114919758D01*
X134051132Y-114978227D01*
X134051133Y-114978231D01*
X134072815Y-115010681D01*
X134089500Y-115065681D01*
X134089500Y-119729564D01*
X134109977Y-119805985D01*
X134109981Y-119805993D01*
X134128833Y-119838648D01*
X134128834Y-119838648D01*
X134128835Y-119838649D01*
X134149540Y-119874511D01*
X137760505Y-123485476D01*
X137788281Y-123539991D01*
X137789500Y-123555478D01*
X137789500Y-126634317D01*
X137772815Y-126689318D01*
X137751136Y-126721762D01*
X137751132Y-126721772D01*
X137739501Y-126780241D01*
X137739500Y-126780253D01*
X137739500Y-127819746D01*
X137739501Y-127819758D01*
X137751132Y-127878227D01*
X137751133Y-127878231D01*
X137795448Y-127944552D01*
X137861769Y-127988867D01*
X137906231Y-127997711D01*
X137920241Y-128000498D01*
X137920246Y-128000498D01*
X137920252Y-128000500D01*
X137920253Y-128000500D01*
X138259747Y-128000500D01*
X138259748Y-128000500D01*
X138298172Y-127992857D01*
X138320685Y-127988379D01*
X138359315Y-127988379D01*
X138420241Y-128000498D01*
X138420246Y-128000498D01*
X138420252Y-128000500D01*
X138420253Y-128000500D01*
X138759747Y-128000500D01*
X138759748Y-128000500D01*
X138798172Y-127992857D01*
X138820685Y-127988379D01*
X138859315Y-127988379D01*
X138920241Y-128000498D01*
X138920246Y-128000498D01*
X138920252Y-128000500D01*
X138920253Y-128000500D01*
X139259747Y-128000500D01*
X139259748Y-128000500D01*
X139298172Y-127992857D01*
X139320685Y-127988379D01*
X139359315Y-127988379D01*
X139420241Y-128000498D01*
X139420246Y-128000498D01*
X139420252Y-128000500D01*
X139420253Y-128000500D01*
X139759747Y-128000500D01*
X139759748Y-128000500D01*
X139798172Y-127992857D01*
X139820685Y-127988379D01*
X139859315Y-127988379D01*
X139920241Y-128000498D01*
X139920246Y-128000498D01*
X139920252Y-128000500D01*
X139920253Y-128000500D01*
X140259747Y-128000500D01*
X140259748Y-128000500D01*
X140298172Y-127992857D01*
X140320685Y-127988379D01*
X140359315Y-127988379D01*
X140420241Y-128000498D01*
X140420246Y-128000498D01*
X140420252Y-128000500D01*
X140420253Y-128000500D01*
X140759747Y-128000500D01*
X140759748Y-128000500D01*
X140798172Y-127992857D01*
X140820685Y-127988379D01*
X140859315Y-127988379D01*
X140920241Y-128000498D01*
X140920246Y-128000498D01*
X140920252Y-128000500D01*
X140920253Y-128000500D01*
X141259747Y-128000500D01*
X141259748Y-128000500D01*
X141298172Y-127992857D01*
X141320685Y-127988379D01*
X141359315Y-127988379D01*
X141420241Y-128000498D01*
X141420246Y-128000498D01*
X141420252Y-128000500D01*
X141420253Y-128000500D01*
X141759747Y-128000500D01*
X141759748Y-128000500D01*
X141798172Y-127992857D01*
X141820685Y-127988379D01*
X141859315Y-127988379D01*
X141920241Y-128000498D01*
X141920246Y-128000498D01*
X141920252Y-128000500D01*
X141920253Y-128000500D01*
X142259747Y-128000500D01*
X142259748Y-128000500D01*
X142298172Y-127992857D01*
X142320685Y-127988379D01*
X142359315Y-127988379D01*
X142420241Y-128000498D01*
X142420246Y-128000498D01*
X142420252Y-128000500D01*
X142420253Y-128000500D01*
X142759747Y-128000500D01*
X142759748Y-128000500D01*
X142798172Y-127992857D01*
X142820685Y-127988379D01*
X142859315Y-127988379D01*
X142920241Y-128000498D01*
X142920246Y-128000498D01*
X142920252Y-128000500D01*
X142920253Y-128000500D01*
X143259747Y-128000500D01*
X143259748Y-128000500D01*
X143298172Y-127992857D01*
X143320685Y-127988379D01*
X143359315Y-127988379D01*
X143420241Y-128000498D01*
X143420246Y-128000498D01*
X143420252Y-128000500D01*
X143420253Y-128000500D01*
X143759747Y-128000500D01*
X143759748Y-128000500D01*
X143798172Y-127992857D01*
X143820685Y-127988379D01*
X143859315Y-127988379D01*
X143920241Y-128000498D01*
X143920246Y-128000498D01*
X143920252Y-128000500D01*
X143920253Y-128000500D01*
X144259747Y-128000500D01*
X144259748Y-128000500D01*
X144298172Y-127992857D01*
X144320685Y-127988379D01*
X144359315Y-127988379D01*
X144420241Y-128000498D01*
X144420246Y-128000498D01*
X144420252Y-128000500D01*
X144420253Y-128000500D01*
X144759747Y-128000500D01*
X144759748Y-128000500D01*
X144798172Y-127992857D01*
X144820685Y-127988379D01*
X144859315Y-127988379D01*
X144920241Y-128000498D01*
X144920246Y-128000498D01*
X144920252Y-128000500D01*
X144920253Y-128000500D01*
X145259747Y-128000500D01*
X145259748Y-128000500D01*
X145298172Y-127992857D01*
X145320685Y-127988379D01*
X145359315Y-127988379D01*
X145420241Y-128000498D01*
X145420246Y-128000498D01*
X145420252Y-128000500D01*
X145420253Y-128000500D01*
X145759747Y-128000500D01*
X145759748Y-128000500D01*
X145798172Y-127992857D01*
X145820685Y-127988379D01*
X145859315Y-127988379D01*
X145920241Y-128000498D01*
X145920246Y-128000498D01*
X145920252Y-128000500D01*
X145920253Y-128000500D01*
X146259747Y-128000500D01*
X146259748Y-128000500D01*
X146298172Y-127992857D01*
X146320685Y-127988379D01*
X146359315Y-127988379D01*
X146420241Y-128000498D01*
X146420246Y-128000498D01*
X146420252Y-128000500D01*
X146420253Y-128000500D01*
X146759747Y-128000500D01*
X146759748Y-128000500D01*
X146798172Y-127992857D01*
X146820685Y-127988379D01*
X146859315Y-127988379D01*
X146920241Y-128000498D01*
X146920246Y-128000498D01*
X146920252Y-128000500D01*
X146920253Y-128000500D01*
X147259747Y-128000500D01*
X147259748Y-128000500D01*
X147298172Y-127992857D01*
X147320685Y-127988379D01*
X147359315Y-127988379D01*
X147420241Y-128000498D01*
X147420246Y-128000498D01*
X147420252Y-128000500D01*
X147420253Y-128000500D01*
X147759747Y-128000500D01*
X147759748Y-128000500D01*
X147798172Y-127992857D01*
X147820685Y-127988379D01*
X147859315Y-127988379D01*
X147920241Y-128000498D01*
X147920246Y-128000498D01*
X147920252Y-128000500D01*
X147920253Y-128000500D01*
X148259747Y-128000500D01*
X148259748Y-128000500D01*
X148298172Y-127992857D01*
X148320685Y-127988379D01*
X148359315Y-127988379D01*
X148420241Y-128000498D01*
X148420246Y-128000498D01*
X148420252Y-128000500D01*
X148420253Y-128000500D01*
X148759747Y-128000500D01*
X148759748Y-128000500D01*
X148818231Y-127988867D01*
X148884552Y-127944552D01*
X148928867Y-127878231D01*
X148940500Y-127819748D01*
X148940500Y-126780252D01*
X148928867Y-126721769D01*
X148928864Y-126721764D01*
X148928863Y-126721762D01*
X148907185Y-126689318D01*
X148890500Y-126634317D01*
X148890500Y-124730253D01*
X149839500Y-124730253D01*
X149839500Y-126069746D01*
X149839501Y-126069758D01*
X149851132Y-126128227D01*
X149851134Y-126128233D01*
X149880734Y-126172532D01*
X149895448Y-126194552D01*
X149961769Y-126238867D01*
X150006231Y-126247711D01*
X150020241Y-126250498D01*
X150020246Y-126250498D01*
X150020252Y-126250500D01*
X150020253Y-126250500D01*
X151709747Y-126250500D01*
X151709748Y-126250500D01*
X151768231Y-126238867D01*
X151834552Y-126194552D01*
X151878867Y-126128231D01*
X151890500Y-126069748D01*
X151890500Y-124730252D01*
X151878867Y-124671769D01*
X151834552Y-124605448D01*
X151822722Y-124597543D01*
X151768233Y-124561134D01*
X151768231Y-124561133D01*
X151768228Y-124561132D01*
X151768227Y-124561132D01*
X151709758Y-124549501D01*
X151709748Y-124549500D01*
X150020252Y-124549500D01*
X150020251Y-124549500D01*
X150020241Y-124549501D01*
X149961772Y-124561132D01*
X149961766Y-124561134D01*
X149895451Y-124605445D01*
X149895445Y-124605451D01*
X149851134Y-124671766D01*
X149851132Y-124671772D01*
X149839501Y-124730241D01*
X149839500Y-124730253D01*
X148890500Y-124730253D01*
X148890500Y-121971031D01*
X148890499Y-121971029D01*
X148870021Y-121894605D01*
X148870019Y-121894601D01*
X148830460Y-121826083D01*
X148774511Y-121770133D01*
X148774511Y-121770134D01*
X145219496Y-118215119D01*
X145191719Y-118160602D01*
X145190500Y-118145115D01*
X145190500Y-115065681D01*
X145207184Y-115010681D01*
X145228867Y-114978231D01*
X145240500Y-114919748D01*
X145240500Y-113880252D01*
X145228867Y-113821769D01*
X145184552Y-113755448D01*
X145139999Y-113725678D01*
X145118233Y-113711134D01*
X145118231Y-113711133D01*
X145118228Y-113711132D01*
X145118227Y-113711132D01*
X145059758Y-113699501D01*
X145059748Y-113699500D01*
X144720252Y-113699500D01*
X144720248Y-113699500D01*
X144659314Y-113711621D01*
X144620686Y-113711621D01*
X144559751Y-113699500D01*
X144559748Y-113699500D01*
X144220252Y-113699500D01*
X144220248Y-113699500D01*
X144159314Y-113711621D01*
X144120686Y-113711621D01*
X144059751Y-113699500D01*
X144059748Y-113699500D01*
X143720252Y-113699500D01*
X143720248Y-113699500D01*
X143659314Y-113711621D01*
X143620686Y-113711621D01*
X143559751Y-113699500D01*
X143559748Y-113699500D01*
X143220252Y-113699500D01*
X143220248Y-113699500D01*
X143159314Y-113711621D01*
X143120686Y-113711621D01*
X143059751Y-113699500D01*
X143059748Y-113699500D01*
X142720252Y-113699500D01*
X142720248Y-113699500D01*
X142659314Y-113711621D01*
X142620686Y-113711621D01*
X142559751Y-113699500D01*
X142559748Y-113699500D01*
X142220252Y-113699500D01*
X142220248Y-113699500D01*
X142159314Y-113711621D01*
X142120686Y-113711621D01*
X142059751Y-113699500D01*
X142059748Y-113699500D01*
X141720252Y-113699500D01*
X141720248Y-113699500D01*
X141659314Y-113711621D01*
X141620686Y-113711621D01*
X141559751Y-113699500D01*
X141559748Y-113699500D01*
X141220252Y-113699500D01*
X141220248Y-113699500D01*
X141159314Y-113711621D01*
X141120686Y-113711621D01*
X141059751Y-113699500D01*
X141059748Y-113699500D01*
X140720252Y-113699500D01*
X140720248Y-113699500D01*
X140659314Y-113711621D01*
X140620686Y-113711621D01*
X140559751Y-113699500D01*
X140559748Y-113699500D01*
X140220252Y-113699500D01*
X140220248Y-113699500D01*
X140159314Y-113711621D01*
X140120686Y-113711621D01*
X140059751Y-113699500D01*
X140059748Y-113699500D01*
X139720252Y-113699500D01*
X139720248Y-113699500D01*
X139659314Y-113711621D01*
X139620686Y-113711621D01*
X139559751Y-113699500D01*
X139559748Y-113699500D01*
X139220252Y-113699500D01*
X139220248Y-113699500D01*
X139159314Y-113711621D01*
X139120686Y-113711621D01*
X139059751Y-113699500D01*
X139059748Y-113699500D01*
X138720252Y-113699500D01*
X138720248Y-113699500D01*
X138659314Y-113711621D01*
X138620686Y-113711621D01*
X138559751Y-113699500D01*
X138559748Y-113699500D01*
X138220252Y-113699500D01*
X138220248Y-113699500D01*
X138159314Y-113711621D01*
X138120686Y-113711621D01*
X138059751Y-113699500D01*
X138059748Y-113699500D01*
X137720252Y-113699500D01*
X137720248Y-113699500D01*
X137659314Y-113711621D01*
X137620686Y-113711621D01*
X137559751Y-113699500D01*
X137559748Y-113699500D01*
X137220252Y-113699500D01*
X137220248Y-113699500D01*
X137159314Y-113711621D01*
X137120686Y-113711621D01*
X137059751Y-113699500D01*
X137059748Y-113699500D01*
X136720252Y-113699500D01*
X136720248Y-113699500D01*
X136659314Y-113711621D01*
X136620686Y-113711621D01*
X136559751Y-113699500D01*
X136559748Y-113699500D01*
X136220252Y-113699500D01*
X136220248Y-113699500D01*
X136159314Y-113711621D01*
X136120686Y-113711621D01*
X136059751Y-113699500D01*
X136059748Y-113699500D01*
X135720252Y-113699500D01*
X135720248Y-113699500D01*
X135659314Y-113711621D01*
X135620686Y-113711621D01*
X135559751Y-113699500D01*
X135559748Y-113699500D01*
X135220252Y-113699500D01*
X135220248Y-113699500D01*
X135159314Y-113711621D01*
X135120686Y-113711621D01*
X135059751Y-113699500D01*
X135059748Y-113699500D01*
X134720252Y-113699500D01*
X134720248Y-113699500D01*
X134659314Y-113711621D01*
X134620686Y-113711621D01*
X134559751Y-113699500D01*
X134559748Y-113699500D01*
X134220252Y-113699500D01*
X134220251Y-113699500D01*
X134220241Y-113699501D01*
X134161772Y-113711132D01*
X134161766Y-113711134D01*
X134095451Y-113755445D01*
X134095445Y-113755451D01*
X134051134Y-113821766D01*
X134051132Y-113821772D01*
X134039501Y-113880241D01*
X134039500Y-113880253D01*
X129935367Y-113880253D01*
X130920496Y-112895124D01*
X130975013Y-112867347D01*
X131035445Y-112876918D01*
X131078710Y-112920183D01*
X131089500Y-112965128D01*
X131089500Y-113169746D01*
X131089501Y-113169758D01*
X131101132Y-113228227D01*
X131101133Y-113228231D01*
X131145448Y-113294552D01*
X131211769Y-113338867D01*
X131256231Y-113347711D01*
X131270241Y-113350498D01*
X131270246Y-113350498D01*
X131270252Y-113350500D01*
X131270253Y-113350500D01*
X132959747Y-113350500D01*
X132959748Y-113350500D01*
X133018231Y-113338867D01*
X133084552Y-113294552D01*
X133128867Y-113228231D01*
X133140500Y-113169748D01*
X133140500Y-111830252D01*
X133128867Y-111771769D01*
X133084552Y-111705448D01*
X133019252Y-111661815D01*
X132981373Y-111613765D01*
X132978971Y-111552626D01*
X133012964Y-111501753D01*
X133070368Y-111480576D01*
X133074254Y-111480500D01*
X146205746Y-111480500D01*
X146263937Y-111499407D01*
X146299901Y-111548907D01*
X146299901Y-111610093D01*
X146263937Y-111659593D01*
X146260748Y-111661815D01*
X146195451Y-111705445D01*
X146195445Y-111705451D01*
X146151134Y-111771766D01*
X146151132Y-111771772D01*
X146139501Y-111830241D01*
X146139500Y-111830253D01*
X146139500Y-113169746D01*
X146139501Y-113169758D01*
X146151132Y-113228227D01*
X146151133Y-113228231D01*
X146195448Y-113294552D01*
X146261769Y-113338867D01*
X146306231Y-113347711D01*
X146320241Y-113350498D01*
X146320246Y-113350498D01*
X146320252Y-113350500D01*
X146320253Y-113350500D01*
X148009747Y-113350500D01*
X148009748Y-113350500D01*
X148068231Y-113338867D01*
X148068237Y-113338862D01*
X148077242Y-113335134D01*
X148078344Y-113337794D01*
X148122489Y-113325332D01*
X148179898Y-113346494D01*
X148188633Y-113354253D01*
X149543376Y-114708996D01*
X149559722Y-114723679D01*
X149559738Y-114723693D01*
X149580380Y-114740327D01*
X149651425Y-114777490D01*
X149651426Y-114777490D01*
X149651428Y-114777491D01*
X149651561Y-114777530D01*
X149718464Y-114797175D01*
X149776362Y-114805500D01*
X149776363Y-114805500D01*
X157898620Y-114805500D01*
X157898638Y-114805500D01*
X157920607Y-114804322D01*
X157946965Y-114801488D01*
X158023482Y-114777529D01*
X158084805Y-114744044D01*
X158131629Y-114708991D01*
X159858991Y-112981629D01*
X159873693Y-112965262D01*
X159890327Y-112944620D01*
X159927490Y-112873575D01*
X159947175Y-112806536D01*
X159955500Y-112748638D01*
X159955500Y-109076362D01*
X159954322Y-109054393D01*
X159951488Y-109028035D01*
X159927529Y-108951518D01*
X159894044Y-108890195D01*
X159858991Y-108843371D01*
X154521102Y-103505483D01*
X154520606Y-103504983D01*
X149332146Y-98242047D01*
X149332143Y-98242044D01*
X149316287Y-98227558D01*
X149316281Y-98227553D01*
X149296297Y-98211127D01*
X149296284Y-98211118D01*
X149226103Y-98173424D01*
X149159307Y-98152923D01*
X149159302Y-98152922D01*
X149101517Y-98143893D01*
X149101511Y-98143892D01*
X141100128Y-98046314D01*
X141042172Y-98026698D01*
X141022865Y-98007682D01*
X140759114Y-97664806D01*
X139150112Y-95573101D01*
X139126270Y-95547077D01*
X139095024Y-95518366D01*
X139093697Y-95517157D01*
X139093696Y-95517156D01*
X139093690Y-95517152D01*
X139013883Y-95472511D01*
X139013880Y-95472509D01*
X138946847Y-95452826D01*
X138946838Y-95452824D01*
X138900627Y-95446180D01*
X138888943Y-95444500D01*
X138888942Y-95444500D01*
X134287000Y-95444500D01*
X134228809Y-95425593D01*
X134192845Y-95376093D01*
X134188000Y-95345500D01*
X134188000Y-90118983D01*
X134188000Y-90118982D01*
X134159003Y-90010763D01*
X134154563Y-90003073D01*
X134141842Y-89943228D01*
X134142329Y-89939340D01*
X134150500Y-89883260D01*
X134150500Y-89516740D01*
X134140573Y-89448607D01*
X134089198Y-89343517D01*
X134075684Y-89330003D01*
X134047909Y-89275489D01*
X134057480Y-89215057D01*
X134075687Y-89189998D01*
X134127639Y-89138046D01*
X134127640Y-89138044D01*
X134185163Y-89025151D01*
X134185164Y-89025147D01*
X134200000Y-88931484D01*
X134200000Y-88925001D01*
X134199999Y-88925000D01*
X132375002Y-88925000D01*
X132375001Y-88925001D01*
X132375001Y-88931485D01*
X132389833Y-89025141D01*
X132389836Y-89025151D01*
X132447358Y-89138043D01*
X132499313Y-89189998D01*
X132527090Y-89244515D01*
X132517519Y-89304947D01*
X132499314Y-89330004D01*
X132485803Y-89343514D01*
X132485801Y-89343518D01*
X132434427Y-89448604D01*
X132434427Y-89448607D01*
X132424500Y-89516740D01*
X132424500Y-89883260D01*
X132427256Y-89902174D01*
X132434427Y-89951395D01*
X132484748Y-90054327D01*
X132485802Y-90056483D01*
X132568517Y-90139198D01*
X132622285Y-90165483D01*
X132673604Y-90190572D01*
X132673605Y-90190572D01*
X132673607Y-90190573D01*
X132741740Y-90200500D01*
X133145244Y-90200500D01*
X133203435Y-90219407D01*
X133215248Y-90229496D01*
X133308004Y-90322252D01*
X133335781Y-90376769D01*
X133337000Y-90392256D01*
X133337000Y-95631372D01*
X133318093Y-95689563D01*
X133308004Y-95701376D01*
X133024504Y-95984876D01*
X132969987Y-96012653D01*
X132909555Y-96003082D01*
X132866290Y-95959817D01*
X132855500Y-95914872D01*
X132855500Y-94187255D01*
X132874407Y-94129064D01*
X132884490Y-94117257D01*
X132990484Y-94011264D01*
X132995670Y-94002283D01*
X133046503Y-93914237D01*
X133051944Y-93893932D01*
X133063372Y-93851284D01*
X133067810Y-93834715D01*
X133075500Y-93806019D01*
X133075500Y-93693982D01*
X133075500Y-91281482D01*
X133046503Y-91173263D01*
X133046501Y-91173260D01*
X133046501Y-91173258D01*
X132990485Y-91076237D01*
X132911263Y-90997014D01*
X132911263Y-90997015D01*
X131900704Y-89986456D01*
X131872927Y-89931939D01*
X131872743Y-89902180D01*
X131875500Y-89883260D01*
X131875500Y-89516740D01*
X131865573Y-89448607D01*
X131814198Y-89343517D01*
X131731483Y-89260802D01*
X131731481Y-89260801D01*
X131626395Y-89209427D01*
X131599139Y-89205456D01*
X131558260Y-89199500D01*
X130466740Y-89199500D01*
X130432673Y-89204463D01*
X130398604Y-89209427D01*
X130293518Y-89260801D01*
X130210801Y-89343518D01*
X130159427Y-89448604D01*
X130159427Y-89448607D01*
X130149500Y-89516740D01*
X130149500Y-89883260D01*
X130152256Y-89902174D01*
X130159427Y-89951395D01*
X130209748Y-90054327D01*
X130210802Y-90056483D01*
X130293517Y-90139198D01*
X130347285Y-90165483D01*
X130398604Y-90190572D01*
X130398605Y-90190572D01*
X130398607Y-90190573D01*
X130466740Y-90200500D01*
X130870244Y-90200500D01*
X130928435Y-90219407D01*
X130940248Y-90229496D01*
X132195504Y-91484752D01*
X132223281Y-91539269D01*
X132224500Y-91554756D01*
X132224500Y-93255500D01*
X132205593Y-93313691D01*
X132156093Y-93349655D01*
X132125500Y-93354500D01*
X128516128Y-93354500D01*
X128457937Y-93335593D01*
X128446124Y-93325504D01*
X128279500Y-93158880D01*
X128251723Y-93104363D01*
X128261294Y-93043931D01*
X128304559Y-93000666D01*
X128364991Y-92991095D01*
X128392984Y-92999935D01*
X128413751Y-93010087D01*
X128481778Y-93019999D01*
X128490000Y-93019998D01*
X128490000Y-92920001D01*
X129490000Y-92920001D01*
X129490000Y-93019998D01*
X129490001Y-93019999D01*
X129498213Y-93019999D01*
X129498216Y-93019998D01*
X129566250Y-93010087D01*
X129671188Y-92958785D01*
X129709974Y-92920000D01*
X129490001Y-92920000D01*
X129490000Y-92920001D01*
X128490000Y-92920001D01*
X128490000Y-92910000D01*
X130330026Y-92910000D01*
X130368812Y-92948786D01*
X130473751Y-93000087D01*
X130541778Y-93009999D01*
X130550000Y-93009998D01*
X130550000Y-92910001D01*
X131550000Y-92910001D01*
X131550000Y-93009998D01*
X131550001Y-93009999D01*
X131558213Y-93009999D01*
X131558216Y-93009998D01*
X131626250Y-93000087D01*
X131731188Y-92948785D01*
X131769974Y-92910000D01*
X131550001Y-92910000D01*
X131550000Y-92910001D01*
X130550000Y-92910001D01*
X130549999Y-92910000D01*
X130330026Y-92910000D01*
X128490000Y-92910000D01*
X128490000Y-91820001D01*
X129490000Y-91820001D01*
X129490000Y-91919999D01*
X129490001Y-91920000D01*
X129709974Y-91920000D01*
X129699974Y-91910000D01*
X130330026Y-91910000D01*
X130549999Y-91910000D01*
X130550000Y-91909999D01*
X130550000Y-91810001D01*
X131550000Y-91810001D01*
X131550000Y-91909999D01*
X131550001Y-91910000D01*
X131769974Y-91910000D01*
X131731187Y-91871213D01*
X131626248Y-91819912D01*
X131558216Y-91810000D01*
X131550001Y-91810000D01*
X131550000Y-91810001D01*
X130550000Y-91810001D01*
X130550000Y-91809999D01*
X130541786Y-91810000D01*
X130473749Y-91819912D01*
X130368811Y-91871214D01*
X130330026Y-91910000D01*
X129699974Y-91910000D01*
X129671187Y-91881213D01*
X129566248Y-91829912D01*
X129498216Y-91820000D01*
X129490001Y-91820000D01*
X129490000Y-91820001D01*
X128490000Y-91820001D01*
X128490000Y-91819999D01*
X128481786Y-91820000D01*
X128413749Y-91829912D01*
X128308811Y-91881214D01*
X128264504Y-91925522D01*
X128209987Y-91953299D01*
X128149555Y-91943728D01*
X128106290Y-91900463D01*
X128095500Y-91855518D01*
X128095500Y-91681380D01*
X128095499Y-91681343D01*
X128095465Y-91680720D01*
X128094322Y-91659393D01*
X128091488Y-91633035D01*
X128067529Y-91556518D01*
X128034044Y-91495195D01*
X127998991Y-91448371D01*
X127541629Y-90991009D01*
X127541623Y-90991003D01*
X127525277Y-90976320D01*
X127525270Y-90976314D01*
X127525262Y-90976307D01*
X127504620Y-90959673D01*
X127504619Y-90959672D01*
X127433576Y-90922510D01*
X127433571Y-90922508D01*
X127366542Y-90902826D01*
X127366533Y-90902824D01*
X127320322Y-90896180D01*
X127308638Y-90894500D01*
X127308637Y-90894500D01*
X127097000Y-90894500D01*
X127038809Y-90875593D01*
X127002845Y-90826093D01*
X126998000Y-90795500D01*
X126998000Y-90688192D01*
X126967299Y-90573614D01*
X126967299Y-90573612D01*
X126907992Y-90470890D01*
X126907990Y-90470888D01*
X126907989Y-90470886D01*
X126126614Y-89689511D01*
X126126611Y-89689509D01*
X126126609Y-89689507D01*
X126023890Y-89630202D01*
X126023886Y-89630200D01*
X125999673Y-89623712D01*
X125999673Y-89623713D01*
X125909309Y-89599500D01*
X118190691Y-89599500D01*
X118145508Y-89611606D01*
X118100325Y-89623713D01*
X118100324Y-89623712D01*
X118076112Y-89630201D01*
X118076109Y-89630202D01*
X117973390Y-89689507D01*
X116956507Y-90706390D01*
X116897200Y-90809112D01*
X116897200Y-90809113D01*
X116897201Y-90809114D01*
X116866817Y-90922510D01*
X116866500Y-90923692D01*
X116866500Y-91408100D01*
X116847593Y-91466291D01*
X116837504Y-91478103D01*
X116788951Y-91526656D01*
X116788950Y-91526658D01*
X116731354Y-91639695D01*
X116716500Y-91733477D01*
X116716500Y-92346520D01*
X116716501Y-92346523D01*
X116731352Y-92440299D01*
X116731354Y-92440304D01*
X116788950Y-92553342D01*
X116878658Y-92643050D01*
X116991696Y-92700646D01*
X116991702Y-92700646D01*
X116994324Y-92701499D01*
X116996566Y-92703127D01*
X116998639Y-92704184D01*
X116998471Y-92704512D01*
X117043826Y-92737459D01*
X117062738Y-92795649D01*
X117043835Y-92853841D01*
X117023067Y-92874909D01*
X116960874Y-92921466D01*
X116960868Y-92921472D01*
X116879014Y-93030816D01*
X116831283Y-93158790D01*
X116831281Y-93158798D01*
X116825200Y-93215365D01*
X116825200Y-93335799D01*
X116825201Y-93335800D01*
X118225198Y-93335800D01*
X118225199Y-93335799D01*
X118225199Y-93215369D01*
X118225198Y-93215363D01*
X118219118Y-93158795D01*
X118219117Y-93158793D01*
X118171385Y-93030816D01*
X118089531Y-92921472D01*
X118089527Y-92921468D01*
X117980183Y-92839614D01*
X117852209Y-92791883D01*
X117852201Y-92791881D01*
X117836098Y-92790150D01*
X117780262Y-92765130D01*
X117749796Y-92712069D01*
X117756336Y-92651234D01*
X117776675Y-92621716D01*
X117845050Y-92553342D01*
X117902646Y-92440304D01*
X117917500Y-92346519D01*
X117917499Y-91733482D01*
X117909242Y-91681343D01*
X117902647Y-91639700D01*
X117902646Y-91639698D01*
X117902646Y-91639696D01*
X117845050Y-91526658D01*
X117832140Y-91513748D01*
X117796496Y-91478103D01*
X117768719Y-91423586D01*
X117767500Y-91408100D01*
X117767500Y-91210611D01*
X117786407Y-91152420D01*
X117796496Y-91140607D01*
X118407607Y-90529496D01*
X118462124Y-90501719D01*
X118477611Y-90500500D01*
X125622389Y-90500500D01*
X125680580Y-90519407D01*
X125692393Y-90529496D01*
X125888393Y-90725496D01*
X125916170Y-90780013D01*
X125906599Y-90840445D01*
X125863334Y-90883710D01*
X125818389Y-90894500D01*
X125701343Y-90894500D01*
X125679405Y-90895677D01*
X125679398Y-90895677D01*
X125679393Y-90895678D01*
X125670894Y-90896591D01*
X125653038Y-90898511D01*
X125653033Y-90898512D01*
X125576520Y-90922469D01*
X125515193Y-90955957D01*
X125468369Y-90991010D01*
X125441003Y-91018376D01*
X125426320Y-91034722D01*
X125426301Y-91034745D01*
X125409672Y-91055380D01*
X125372510Y-91126423D01*
X125372508Y-91126428D01*
X125352826Y-91193457D01*
X125352824Y-91193466D01*
X125350359Y-91210611D01*
X125344500Y-91251362D01*
X125344500Y-97478638D01*
X125345678Y-97500607D01*
X125346896Y-97511939D01*
X125348511Y-97526961D01*
X125348512Y-97526966D01*
X125372469Y-97603479D01*
X125387223Y-97630498D01*
X125405956Y-97664805D01*
X125425410Y-97690791D01*
X125441010Y-97711630D01*
X125578376Y-97848996D01*
X125594722Y-97863679D01*
X125594738Y-97863693D01*
X125615380Y-97880327D01*
X125686425Y-97917490D01*
X125686426Y-97917490D01*
X125686428Y-97917491D01*
X125753457Y-97937173D01*
X125753464Y-97937175D01*
X125811362Y-97945500D01*
X127496042Y-97945500D01*
X127554233Y-97964407D01*
X127565186Y-97973647D01*
X127739634Y-98143892D01*
X128000809Y-98398774D01*
X128000810Y-98398776D01*
X128270338Y-98661810D01*
X128270345Y-98661816D01*
X128285912Y-98675543D01*
X128305479Y-98691114D01*
X128305482Y-98691115D01*
X128305484Y-98691117D01*
X128311122Y-98694044D01*
X128375542Y-98727490D01*
X128442581Y-98747175D01*
X128500479Y-98755500D01*
X128500480Y-98755500D01*
X132298620Y-98755500D01*
X132298638Y-98755500D01*
X132320607Y-98754322D01*
X132346965Y-98751488D01*
X132423482Y-98727529D01*
X132484805Y-98694044D01*
X132531629Y-98658991D01*
X132675496Y-98515124D01*
X132730013Y-98487347D01*
X132790445Y-98496918D01*
X132833710Y-98540183D01*
X132844500Y-98585128D01*
X132844500Y-99723872D01*
X132825593Y-99782063D01*
X132815504Y-99793876D01*
X126193876Y-106415504D01*
X126139359Y-106443281D01*
X126123872Y-106444500D01*
X111038718Y-106444500D01*
X110980527Y-106425593D01*
X110944563Y-106376093D01*
X110944563Y-106314907D01*
X110968714Y-106275496D01*
X111714714Y-105529496D01*
X111769231Y-105501719D01*
X111784718Y-105500500D01*
X115243615Y-105500500D01*
X115243616Y-105500500D01*
X115427251Y-105463973D01*
X115600231Y-105392322D01*
X115600234Y-105392319D01*
X115600238Y-105392318D01*
X115645187Y-105362282D01*
X115755908Y-105288302D01*
X115888302Y-105155908D01*
X115962282Y-105045187D01*
X115992318Y-105000238D01*
X115992319Y-105000234D01*
X115992322Y-105000231D01*
X116063973Y-104827251D01*
X116100500Y-104643616D01*
X116100500Y-104456384D01*
X116063973Y-104272749D01*
X115992322Y-104099769D01*
X115992320Y-104099767D01*
X115992318Y-104099761D01*
X115932649Y-104010463D01*
X115888302Y-103944092D01*
X115755908Y-103811698D01*
X115686608Y-103765393D01*
X115600238Y-103707681D01*
X115600229Y-103707677D01*
X115427249Y-103636026D01*
X115243618Y-103599500D01*
X115243616Y-103599500D01*
X114043616Y-103599500D01*
X113908718Y-103599500D01*
X113850527Y-103580593D01*
X113814563Y-103531093D01*
X113814563Y-103469907D01*
X113838714Y-103430496D01*
X114614714Y-102654496D01*
X114669231Y-102626719D01*
X114684718Y-102625500D01*
X115673616Y-102625500D01*
X115673617Y-102625500D01*
X115791855Y-102601981D01*
X115857251Y-102588973D01*
X115930628Y-102558579D01*
X116030230Y-102517323D01*
X116030234Y-102517320D01*
X116030237Y-102517319D01*
X116075187Y-102487283D01*
X116185908Y-102413302D01*
X116506350Y-102092858D01*
X116517552Y-102083218D01*
X116559650Y-102052150D01*
X116590718Y-102010052D01*
X116600358Y-101998850D01*
X116650497Y-101948711D01*
X116705014Y-101920935D01*
X116765446Y-101930507D01*
X116808710Y-101973772D01*
X116819500Y-102018716D01*
X116819500Y-104498656D01*
X116820677Y-104520594D01*
X116820678Y-104520603D01*
X116823511Y-104546961D01*
X116823512Y-104546966D01*
X116847469Y-104623479D01*
X116880957Y-104684806D01*
X116916010Y-104731630D01*
X117173376Y-104988996D01*
X117189722Y-105003679D01*
X117189738Y-105003693D01*
X117210380Y-105020327D01*
X117281425Y-105057490D01*
X117281426Y-105057490D01*
X117281428Y-105057491D01*
X117322656Y-105069597D01*
X117348464Y-105077175D01*
X117406362Y-105085500D01*
X117406363Y-105085500D01*
X120000995Y-105085500D01*
X120001000Y-105085500D01*
X120044684Y-105080803D01*
X120096195Y-105069597D01*
X120106373Y-105067110D01*
X120187085Y-105024100D01*
X120239889Y-104978345D01*
X120257843Y-104960754D01*
X120257844Y-104960751D01*
X120257846Y-104960750D01*
X120302488Y-104880941D01*
X120302490Y-104880937D01*
X120318254Y-104827251D01*
X120322175Y-104813898D01*
X120330500Y-104756000D01*
X120330500Y-104065001D01*
X120585001Y-104065001D01*
X120585001Y-104079780D01*
X120593702Y-104123525D01*
X120593703Y-104123528D01*
X120626854Y-104173141D01*
X120626858Y-104173145D01*
X120676470Y-104206295D01*
X120676474Y-104206297D01*
X120720221Y-104214999D01*
X120835000Y-104214999D01*
X120835000Y-104065001D01*
X121485000Y-104065001D01*
X121485000Y-104214998D01*
X121485001Y-104214999D01*
X121599770Y-104214999D01*
X121599780Y-104214998D01*
X121643525Y-104206297D01*
X121643528Y-104206296D01*
X121693141Y-104173145D01*
X121693145Y-104173141D01*
X121726295Y-104123529D01*
X121726297Y-104123525D01*
X121734999Y-104079783D01*
X121735000Y-104079773D01*
X121735000Y-104065001D01*
X121734999Y-104065000D01*
X121485001Y-104065000D01*
X121485000Y-104065001D01*
X120835000Y-104065001D01*
X120834999Y-104065000D01*
X120585002Y-104065000D01*
X120585001Y-104065001D01*
X120330500Y-104065001D01*
X120330500Y-103400216D01*
X120585000Y-103400216D01*
X120585000Y-103414999D01*
X120585001Y-103415000D01*
X120834999Y-103415000D01*
X120835000Y-103414999D01*
X120835000Y-103265001D01*
X121485000Y-103265001D01*
X121485000Y-103414999D01*
X121485001Y-103415000D01*
X121734998Y-103415000D01*
X121734999Y-103414999D01*
X121734999Y-103400229D01*
X121734998Y-103400219D01*
X121726297Y-103356474D01*
X121726296Y-103356471D01*
X121693145Y-103306858D01*
X121693141Y-103306854D01*
X121643529Y-103273704D01*
X121643525Y-103273702D01*
X121599783Y-103265000D01*
X121485001Y-103265000D01*
X121485000Y-103265001D01*
X120835000Y-103265001D01*
X120834999Y-103265000D01*
X120720224Y-103265000D01*
X120676474Y-103273702D01*
X120676471Y-103273703D01*
X120626858Y-103306854D01*
X120626854Y-103306858D01*
X120593704Y-103356470D01*
X120593702Y-103356474D01*
X120585000Y-103400216D01*
X120330500Y-103400216D01*
X120330500Y-102753152D01*
X120349407Y-102694961D01*
X120398907Y-102658997D01*
X120419987Y-102654610D01*
X120450052Y-102651710D01*
X120496583Y-102642648D01*
X120502439Y-102641419D01*
X120584954Y-102601981D01*
X120639708Y-102558579D01*
X120679909Y-102516089D01*
X121020032Y-102034520D01*
X121022745Y-102030583D01*
X121025957Y-102025803D01*
X121052721Y-101968549D01*
X121072224Y-101901456D01*
X121072959Y-101896248D01*
X121080390Y-101843544D01*
X121080390Y-101843539D01*
X121080391Y-101843535D01*
X121080327Y-101820001D01*
X121350001Y-101820001D01*
X121350001Y-101828216D01*
X121359912Y-101896250D01*
X121411214Y-102001188D01*
X121450000Y-102039974D01*
X121450000Y-101820001D01*
X122450000Y-101820001D01*
X122450000Y-102039974D01*
X122488786Y-102001187D01*
X122540087Y-101896248D01*
X122550000Y-101828215D01*
X122550000Y-101820001D01*
X122549999Y-101820000D01*
X122450001Y-101820000D01*
X122450000Y-101820001D01*
X121450000Y-101820001D01*
X121449999Y-101820000D01*
X121350002Y-101820000D01*
X121350001Y-101820001D01*
X121080327Y-101820001D01*
X121076007Y-100230903D01*
X121094756Y-100172662D01*
X121144159Y-100136564D01*
X121205344Y-100136398D01*
X121245011Y-100160631D01*
X121293376Y-100208996D01*
X121309722Y-100223679D01*
X121309738Y-100223693D01*
X121330380Y-100240327D01*
X121401425Y-100277490D01*
X121401426Y-100277490D01*
X121401428Y-100277491D01*
X121401561Y-100277530D01*
X121468464Y-100297175D01*
X121526362Y-100305500D01*
X121526363Y-100305500D01*
X121601272Y-100305500D01*
X121659463Y-100324407D01*
X121695427Y-100373907D01*
X121695427Y-100435093D01*
X121659463Y-100484593D01*
X121615544Y-100502466D01*
X121598749Y-100504912D01*
X121493811Y-100556214D01*
X121411213Y-100638812D01*
X121359912Y-100743751D01*
X121350000Y-100811784D01*
X121350000Y-100819999D01*
X121350001Y-100820000D01*
X122549998Y-100820000D01*
X122549999Y-100819999D01*
X122549999Y-100811786D01*
X122549998Y-100811783D01*
X122540087Y-100743749D01*
X122488785Y-100638811D01*
X122406187Y-100556213D01*
X122301248Y-100504912D01*
X122284458Y-100502466D01*
X122229601Y-100475366D01*
X122201150Y-100421198D01*
X122209972Y-100360652D01*
X122252697Y-100316854D01*
X122298732Y-100305500D01*
X123123620Y-100305500D01*
X123123638Y-100305500D01*
X123145607Y-100304322D01*
X123171965Y-100301488D01*
X123248482Y-100277529D01*
X123309805Y-100244044D01*
X123356629Y-100208991D01*
X124183991Y-99381629D01*
X124198693Y-99365262D01*
X124215327Y-99344620D01*
X124252490Y-99273575D01*
X124272175Y-99206536D01*
X124280500Y-99148638D01*
X124280500Y-91351362D01*
X124279322Y-91329393D01*
X124276488Y-91303035D01*
X124252529Y-91226518D01*
X124219044Y-91165195D01*
X124183991Y-91118371D01*
X124056629Y-90991009D01*
X124056623Y-90991003D01*
X124040277Y-90976320D01*
X124040270Y-90976314D01*
X124040262Y-90976307D01*
X124019620Y-90959673D01*
X124019619Y-90959672D01*
X123948576Y-90922510D01*
X123948571Y-90922508D01*
X123881542Y-90902826D01*
X123881533Y-90902824D01*
X123835322Y-90896180D01*
X123823638Y-90894500D01*
X121426362Y-90894500D01*
X121426343Y-90894500D01*
X121404405Y-90895677D01*
X121404398Y-90895677D01*
X121404393Y-90895678D01*
X121395894Y-90896591D01*
X121378038Y-90898511D01*
X121378033Y-90898512D01*
X121301520Y-90922469D01*
X121240193Y-90955957D01*
X121193369Y-90991010D01*
X120416003Y-91768376D01*
X120401320Y-91784722D01*
X120401301Y-91784745D01*
X120384672Y-91805380D01*
X120347510Y-91876423D01*
X120347508Y-91876428D01*
X120327826Y-91943457D01*
X120327824Y-91943466D01*
X120319500Y-92001362D01*
X120319500Y-92117090D01*
X120326500Y-92170267D01*
X120326502Y-92170277D01*
X120343114Y-92232273D01*
X120363641Y-92281831D01*
X120363644Y-92281837D01*
X120363645Y-92281838D01*
X120378603Y-92307748D01*
X120388490Y-92331617D01*
X120391626Y-92343320D01*
X120395000Y-92368945D01*
X120395000Y-95451651D01*
X120391627Y-95477273D01*
X120388491Y-95488977D01*
X120378603Y-95512851D01*
X120369132Y-95529257D01*
X120369129Y-95529262D01*
X120363645Y-95538759D01*
X120363644Y-95538761D01*
X120343115Y-95588322D01*
X120343112Y-95588328D01*
X120330612Y-95634981D01*
X120297288Y-95686295D01*
X120240167Y-95708221D01*
X120181066Y-95692385D01*
X120142561Y-95644835D01*
X120137020Y-95623628D01*
X120133687Y-95600750D01*
X120082385Y-95495810D01*
X120077619Y-95489135D01*
X120078913Y-95488211D01*
X120055424Y-95442110D01*
X120062640Y-95386638D01*
X120091185Y-95321991D01*
X120094100Y-95296865D01*
X120094099Y-95007136D01*
X120091185Y-94982009D01*
X120045806Y-94879235D01*
X119966365Y-94799794D01*
X119863591Y-94754415D01*
X119863590Y-94754414D01*
X119863588Y-94754414D01*
X119838469Y-94751500D01*
X119838465Y-94751500D01*
X119524700Y-94751500D01*
X119466509Y-94732593D01*
X119430545Y-94683093D01*
X119425700Y-94652500D01*
X119425700Y-94235071D01*
X119444607Y-94176880D01*
X119479751Y-94146864D01*
X119553420Y-94109328D01*
X119648728Y-94014020D01*
X119709919Y-93893926D01*
X119725700Y-93794288D01*
X119725700Y-93227312D01*
X119723808Y-93215369D01*
X119721903Y-93203341D01*
X119709919Y-93127674D01*
X119709916Y-93127669D01*
X119709916Y-93127667D01*
X119648729Y-93007582D01*
X119648728Y-93007580D01*
X119553420Y-92912272D01*
X119471554Y-92870559D01*
X119428290Y-92827295D01*
X119417500Y-92782350D01*
X119417500Y-92671899D01*
X119436407Y-92613708D01*
X119446490Y-92601901D01*
X119495050Y-92553342D01*
X119552646Y-92440304D01*
X119567500Y-92346519D01*
X119567499Y-91733482D01*
X119559242Y-91681343D01*
X119552647Y-91639700D01*
X119552646Y-91639698D01*
X119552646Y-91639696D01*
X119495050Y-91526658D01*
X119405342Y-91436950D01*
X119292304Y-91379354D01*
X119292305Y-91379354D01*
X119198522Y-91364500D01*
X118735479Y-91364500D01*
X118735476Y-91364501D01*
X118641700Y-91379352D01*
X118641695Y-91379354D01*
X118528659Y-91436949D01*
X118438949Y-91526659D01*
X118381354Y-91639695D01*
X118366500Y-91733477D01*
X118366500Y-92346520D01*
X118366501Y-92346523D01*
X118381352Y-92440299D01*
X118381354Y-92440304D01*
X118438950Y-92553342D01*
X118487505Y-92601897D01*
X118515281Y-92656412D01*
X118516500Y-92671899D01*
X118516500Y-92955004D01*
X118502186Y-92999097D01*
X118505209Y-93000638D01*
X118440483Y-93127667D01*
X118440481Y-93127674D01*
X118424700Y-93227310D01*
X118424700Y-93794289D01*
X118440481Y-93893925D01*
X118440483Y-93893932D01*
X118501670Y-94014017D01*
X118501672Y-94014020D01*
X118596980Y-94109328D01*
X118670647Y-94146863D01*
X118713910Y-94190126D01*
X118724700Y-94235071D01*
X118724700Y-94600500D01*
X118705793Y-94658691D01*
X118656293Y-94694655D01*
X118625700Y-94699500D01*
X118053759Y-94699500D01*
X117995568Y-94680593D01*
X117986596Y-94672359D01*
X117986480Y-94672494D01*
X117981128Y-94667856D01*
X117860057Y-94590049D01*
X117860054Y-94590047D01*
X117860053Y-94590047D01*
X117860050Y-94590046D01*
X117721964Y-94549500D01*
X117721961Y-94549500D01*
X117578039Y-94549500D01*
X117578035Y-94549500D01*
X117439949Y-94590046D01*
X117439942Y-94590049D01*
X117318873Y-94667855D01*
X117224622Y-94776628D01*
X117164834Y-94907543D01*
X117144353Y-95049997D01*
X117144353Y-95050002D01*
X117164834Y-95192456D01*
X117212517Y-95296865D01*
X117224623Y-95323373D01*
X117314854Y-95427506D01*
X117318873Y-95432144D01*
X117407553Y-95489135D01*
X117439947Y-95509953D01*
X117538059Y-95538761D01*
X117578035Y-95550499D01*
X117578036Y-95550499D01*
X117578039Y-95550500D01*
X117578041Y-95550500D01*
X117721959Y-95550500D01*
X117721961Y-95550500D01*
X117860053Y-95509953D01*
X117981128Y-95432143D01*
X117986480Y-95427506D01*
X117987968Y-95429223D01*
X118031341Y-95403072D01*
X118053759Y-95400500D01*
X118117813Y-95400500D01*
X118176004Y-95419407D01*
X118211968Y-95468907D01*
X118211968Y-95530093D01*
X118206754Y-95542980D01*
X118178513Y-95600747D01*
X118174688Y-95627000D01*
X119232100Y-95627000D01*
X119290291Y-95645907D01*
X119326255Y-95695407D01*
X119331100Y-95726000D01*
X119331100Y-95878000D01*
X119312193Y-95936191D01*
X119262693Y-95972155D01*
X119232100Y-95977000D01*
X118174688Y-95977000D01*
X118178513Y-96003251D01*
X118192489Y-96031839D01*
X118201061Y-96092421D01*
X118189951Y-96123651D01*
X118147509Y-96199526D01*
X118127826Y-96266557D01*
X118127824Y-96266566D01*
X118119500Y-96324462D01*
X118119500Y-96445500D01*
X118100593Y-96503691D01*
X118051093Y-96539655D01*
X118020500Y-96544500D01*
X117926343Y-96544500D01*
X117904405Y-96545677D01*
X117904398Y-96545677D01*
X117904393Y-96545678D01*
X117895894Y-96546591D01*
X117878038Y-96548511D01*
X117878033Y-96548512D01*
X117801520Y-96572469D01*
X117740193Y-96605957D01*
X117693369Y-96641010D01*
X116916003Y-97418376D01*
X116901320Y-97434722D01*
X116901301Y-97434745D01*
X116884672Y-97455380D01*
X116847510Y-97526423D01*
X116847508Y-97526428D01*
X116827826Y-97593457D01*
X116827824Y-97593466D01*
X116819500Y-97651362D01*
X116819500Y-100541283D01*
X116800593Y-100599474D01*
X116751093Y-100635438D01*
X116689907Y-100635438D01*
X116650496Y-100611287D01*
X116600363Y-100561154D01*
X116590711Y-100549937D01*
X116569361Y-100521009D01*
X116559650Y-100507850D01*
X116559646Y-100507847D01*
X116559644Y-100507845D01*
X116450383Y-100427207D01*
X116322203Y-100382355D01*
X116322195Y-100382353D01*
X116297581Y-100380044D01*
X116268947Y-100372943D01*
X116259430Y-100369001D01*
X116252250Y-100366027D01*
X116252248Y-100366026D01*
X116252247Y-100366026D01*
X116068618Y-100329500D01*
X116068616Y-100329500D01*
X115881383Y-100329500D01*
X115881380Y-100329500D01*
X115697750Y-100366027D01*
X115697749Y-100366027D01*
X115681051Y-100372943D01*
X115652418Y-100380044D01*
X115627804Y-100382353D01*
X115627796Y-100382355D01*
X115499616Y-100427207D01*
X115390355Y-100507845D01*
X115390347Y-100507853D01*
X115359283Y-100549942D01*
X115349633Y-100561155D01*
X115215287Y-100695503D01*
X115160771Y-100723281D01*
X115145283Y-100724500D01*
X114156381Y-100724500D01*
X113972749Y-100761027D01*
X113972747Y-100761027D01*
X113906698Y-100788386D01*
X113799774Y-100832674D01*
X113799762Y-100832680D01*
X113644092Y-100936698D01*
X113644088Y-100936701D01*
X111598950Y-102981839D01*
X111544433Y-103009616D01*
X111484001Y-103000045D01*
X111458942Y-102981839D01*
X110239496Y-101762393D01*
X110211719Y-101707876D01*
X110210500Y-101692389D01*
X110210500Y-101105737D01*
X110229407Y-101047546D01*
X110264556Y-101017527D01*
X110273338Y-101013052D01*
X110273337Y-101013052D01*
X110273342Y-101013050D01*
X110363050Y-100923342D01*
X110407651Y-100835807D01*
X110450913Y-100792547D01*
X110511345Y-100782975D01*
X110565861Y-100810752D01*
X110589302Y-100848058D01*
X110606653Y-100897645D01*
X110687207Y-101006790D01*
X110687209Y-101006792D01*
X110796352Y-101087345D01*
X110924398Y-101132149D01*
X110954789Y-101134999D01*
X111109000Y-101134999D01*
X111109000Y-99835001D01*
X111459000Y-99835001D01*
X111459000Y-101134998D01*
X111459001Y-101134999D01*
X111613203Y-101134999D01*
X111643600Y-101132149D01*
X111643602Y-101132149D01*
X111771647Y-101087345D01*
X111880790Y-101006792D01*
X111880792Y-101006790D01*
X111961345Y-100897647D01*
X112006148Y-100769604D01*
X112006777Y-100762902D01*
X112031035Y-100706730D01*
X112083676Y-100675545D01*
X112144594Y-100681257D01*
X112184599Y-100712816D01*
X112218668Y-100758327D01*
X112218672Y-100758331D01*
X112328016Y-100840185D01*
X112455990Y-100887916D01*
X112455998Y-100887918D01*
X112512566Y-100893999D01*
X112633000Y-100893999D01*
X112633000Y-100369001D01*
X112983000Y-100369001D01*
X112983000Y-100893998D01*
X112983001Y-100893999D01*
X113103431Y-100893999D01*
X113103436Y-100893998D01*
X113160004Y-100887918D01*
X113160006Y-100887917D01*
X113287983Y-100840185D01*
X113397327Y-100758331D01*
X113397331Y-100758327D01*
X113479185Y-100648983D01*
X113526916Y-100521009D01*
X113526918Y-100521001D01*
X113533000Y-100464434D01*
X113533000Y-100369001D01*
X113532999Y-100369000D01*
X112983001Y-100369000D01*
X112983000Y-100369001D01*
X112633000Y-100369001D01*
X112633000Y-99494001D01*
X112983000Y-99494001D01*
X112983000Y-100018999D01*
X112983001Y-100019000D01*
X113532998Y-100019000D01*
X113532999Y-100018999D01*
X113532999Y-99923569D01*
X113532998Y-99923563D01*
X113526918Y-99866995D01*
X113526917Y-99866993D01*
X113479185Y-99739016D01*
X113397331Y-99629672D01*
X113397327Y-99629668D01*
X113287983Y-99547814D01*
X113160009Y-99500083D01*
X113160001Y-99500081D01*
X113103434Y-99494000D01*
X112983001Y-99494000D01*
X112983000Y-99494001D01*
X112633000Y-99494001D01*
X112632999Y-99494000D01*
X112512569Y-99494000D01*
X112512562Y-99494001D01*
X112455995Y-99500081D01*
X112455993Y-99500082D01*
X112328016Y-99547814D01*
X112218672Y-99629668D01*
X112218668Y-99629672D01*
X112136814Y-99739016D01*
X112089083Y-99866990D01*
X112089081Y-99866998D01*
X112083000Y-99923565D01*
X112083000Y-99936332D01*
X112064093Y-99994523D01*
X112014593Y-100030487D01*
X111953407Y-100030487D01*
X111904346Y-99995121D01*
X111880796Y-99963213D01*
X111880790Y-99963207D01*
X111771647Y-99882654D01*
X111643601Y-99837850D01*
X111613211Y-99835000D01*
X111459001Y-99835000D01*
X111459000Y-99835001D01*
X111109000Y-99835001D01*
X111108999Y-99835000D01*
X110954796Y-99835000D01*
X110924399Y-99837850D01*
X110924397Y-99837850D01*
X110796352Y-99882654D01*
X110687209Y-99963207D01*
X110687207Y-99963209D01*
X110606654Y-100072353D01*
X110589302Y-100121942D01*
X110552236Y-100170622D01*
X110493636Y-100188218D01*
X110435884Y-100168009D01*
X110407650Y-100134190D01*
X110363050Y-100046658D01*
X110273342Y-99956950D01*
X110160304Y-99899354D01*
X110160305Y-99899354D01*
X110066522Y-99884500D01*
X109453479Y-99884500D01*
X109453476Y-99884501D01*
X109359700Y-99899352D01*
X109359695Y-99899354D01*
X109246659Y-99956949D01*
X109156949Y-100046659D01*
X109099354Y-100159695D01*
X109084500Y-100253477D01*
X109084500Y-100716520D01*
X109084501Y-100716523D01*
X109099352Y-100810299D01*
X109099354Y-100810304D01*
X109156950Y-100923342D01*
X109246658Y-101013050D01*
X109246660Y-101013051D01*
X109246661Y-101013052D01*
X109255444Y-101017527D01*
X109298709Y-101060790D01*
X109309500Y-101105737D01*
X109309500Y-101688205D01*
X109300553Y-101729331D01*
X109264835Y-101807539D01*
X109264833Y-101807547D01*
X109244353Y-101949997D01*
X109244353Y-101950002D01*
X109264834Y-102092456D01*
X109265021Y-102092865D01*
X109324623Y-102223373D01*
X109418872Y-102332143D01*
X109418873Y-102332144D01*
X109539942Y-102409950D01*
X109539947Y-102409953D01*
X109539949Y-102409953D01*
X109539950Y-102409954D01*
X109551353Y-102413302D01*
X109618906Y-102433136D01*
X109661019Y-102458122D01*
X110815973Y-103613076D01*
X110843750Y-103667593D01*
X110834179Y-103728025D01*
X110800974Y-103765393D01*
X110769096Y-103786694D01*
X109611701Y-104944088D01*
X109611698Y-104944092D01*
X109507680Y-105099762D01*
X109507674Y-105099774D01*
X109436027Y-105272748D01*
X109436027Y-105272750D01*
X109399500Y-105456380D01*
X109399500Y-105643619D01*
X109436027Y-105827249D01*
X109436027Y-105827251D01*
X109507674Y-106000225D01*
X109507680Y-106000237D01*
X109582064Y-106111559D01*
X109611698Y-106155908D01*
X109611701Y-106155911D01*
X109731286Y-106275496D01*
X109759063Y-106330013D01*
X109749492Y-106390445D01*
X109706227Y-106433710D01*
X109661282Y-106444500D01*
X94126343Y-106444500D01*
X94104405Y-106445677D01*
X94104398Y-106445677D01*
X94104393Y-106445678D01*
X94095894Y-106446591D01*
X94078038Y-106448511D01*
X94078033Y-106448512D01*
X94001520Y-106472469D01*
X93940193Y-106505957D01*
X93893369Y-106541010D01*
X90991003Y-109443376D01*
X90976320Y-109459722D01*
X90976301Y-109459745D01*
X90959672Y-109480380D01*
X90922510Y-109551423D01*
X90922508Y-109551428D01*
X90902826Y-109618457D01*
X90902824Y-109618466D01*
X90894500Y-109676362D01*
X89200500Y-109676362D01*
X89200500Y-96949997D01*
X106119353Y-96949997D01*
X106119353Y-96950002D01*
X106139834Y-97092456D01*
X106199622Y-97223371D01*
X106199623Y-97223373D01*
X106279955Y-97316082D01*
X106293873Y-97332144D01*
X106414942Y-97409950D01*
X106414947Y-97409953D01*
X106499358Y-97434738D01*
X106553035Y-97450499D01*
X106553036Y-97450499D01*
X106553039Y-97450500D01*
X106553041Y-97450500D01*
X106696959Y-97450500D01*
X106696961Y-97450500D01*
X106835053Y-97409953D01*
X106835053Y-97409952D01*
X106836561Y-97409510D01*
X106864452Y-97405500D01*
X107159263Y-97405500D01*
X107217454Y-97424407D01*
X107247472Y-97459554D01*
X107251950Y-97468342D01*
X107341658Y-97558050D01*
X107454696Y-97615646D01*
X107548481Y-97630500D01*
X108011518Y-97630499D01*
X108011520Y-97630499D01*
X108011521Y-97630498D01*
X108058411Y-97623072D01*
X108105299Y-97615647D01*
X108105299Y-97615646D01*
X108105304Y-97615646D01*
X108218342Y-97558050D01*
X108308050Y-97468342D01*
X108365646Y-97355304D01*
X108380500Y-97261519D01*
X108380499Y-96648482D01*
X108372325Y-96596869D01*
X108365647Y-96554700D01*
X108365646Y-96554698D01*
X108365646Y-96554696D01*
X108308050Y-96441658D01*
X108218342Y-96351950D01*
X108105304Y-96294354D01*
X108105305Y-96294354D01*
X108029733Y-96282384D01*
X107975217Y-96254606D01*
X107947440Y-96200089D01*
X107957012Y-96139657D01*
X108000277Y-96096393D01*
X108029730Y-96086822D01*
X108100304Y-96075646D01*
X108213342Y-96018050D01*
X108303050Y-95928342D01*
X108360646Y-95815304D01*
X108375500Y-95721519D01*
X108375499Y-95108482D01*
X108375498Y-95108477D01*
X108824500Y-95108477D01*
X108824500Y-95721520D01*
X108824501Y-95721523D01*
X108839352Y-95815299D01*
X108839354Y-95815304D01*
X108896950Y-95928342D01*
X108986658Y-96018050D01*
X109099696Y-96075646D01*
X109157101Y-96084738D01*
X109175265Y-96087615D01*
X109229782Y-96115393D01*
X109257559Y-96169909D01*
X109247988Y-96230341D01*
X109204723Y-96273606D01*
X109175264Y-96283177D01*
X109104699Y-96294352D01*
X109104695Y-96294354D01*
X108991659Y-96351949D01*
X108901949Y-96441659D01*
X108844354Y-96554695D01*
X108829500Y-96648477D01*
X108829500Y-97261520D01*
X108829501Y-97261523D01*
X108844352Y-97355299D01*
X108844354Y-97355304D01*
X108901950Y-97468342D01*
X108991658Y-97558050D01*
X109104696Y-97615646D01*
X109198481Y-97630500D01*
X109661518Y-97630499D01*
X109661520Y-97630499D01*
X109661521Y-97630498D01*
X109708411Y-97623072D01*
X109755299Y-97615647D01*
X109755299Y-97615646D01*
X109755304Y-97615646D01*
X109868342Y-97558050D01*
X109958050Y-97468342D01*
X109962528Y-97459554D01*
X110005793Y-97416290D01*
X110050737Y-97405500D01*
X110198942Y-97405500D01*
X110257133Y-97424407D01*
X110281109Y-97452480D01*
X110281890Y-97451914D01*
X110286468Y-97458215D01*
X110286470Y-97458217D01*
X110286472Y-97458220D01*
X110381780Y-97553528D01*
X110381782Y-97553529D01*
X110501867Y-97614716D01*
X110501869Y-97614716D01*
X110501874Y-97614719D01*
X110577541Y-97626703D01*
X110601510Y-97630500D01*
X110601512Y-97630500D01*
X111168490Y-97630500D01*
X111189885Y-97627111D01*
X111268126Y-97614719D01*
X111388220Y-97553528D01*
X111483528Y-97458220D01*
X111544719Y-97338126D01*
X111560500Y-97238488D01*
X111560500Y-96976500D01*
X111579407Y-96918309D01*
X111628907Y-96882345D01*
X111659500Y-96877500D01*
X112394100Y-96877500D01*
X112452291Y-96896407D01*
X112488255Y-96945907D01*
X112493100Y-96976500D01*
X112493100Y-97246859D01*
X112493101Y-97246864D01*
X112496014Y-97271990D01*
X112515483Y-97316082D01*
X112521691Y-97376952D01*
X112494923Y-97426072D01*
X112447512Y-97473484D01*
X112447507Y-97473490D01*
X112388200Y-97576212D01*
X112388200Y-97576213D01*
X112388201Y-97576214D01*
X112377636Y-97615645D01*
X112357500Y-97690792D01*
X112357500Y-97982942D01*
X112338593Y-98041133D01*
X112310517Y-98065112D01*
X112311084Y-98065892D01*
X112304782Y-98070470D01*
X112209470Y-98165782D01*
X112148282Y-98285870D01*
X112148281Y-98285871D01*
X112145887Y-98300989D01*
X112118108Y-98355505D01*
X112063591Y-98383281D01*
X112048106Y-98384500D01*
X111915900Y-98384500D01*
X111857709Y-98365593D01*
X111845897Y-98355504D01*
X111797343Y-98306951D01*
X111797342Y-98306950D01*
X111684304Y-98249354D01*
X111684305Y-98249354D01*
X111590522Y-98234500D01*
X110977479Y-98234500D01*
X110977476Y-98234501D01*
X110883700Y-98249352D01*
X110883695Y-98249354D01*
X110770658Y-98306950D01*
X110770656Y-98306951D01*
X110722103Y-98355504D01*
X110667586Y-98383281D01*
X110652100Y-98384500D01*
X110391900Y-98384500D01*
X110333709Y-98365593D01*
X110321897Y-98355504D01*
X110273343Y-98306951D01*
X110273342Y-98306950D01*
X110160304Y-98249354D01*
X110160305Y-98249354D01*
X110066522Y-98234500D01*
X109453479Y-98234500D01*
X109453476Y-98234501D01*
X109359700Y-98249352D01*
X109359695Y-98249354D01*
X109246659Y-98306949D01*
X109156949Y-98396659D01*
X109099354Y-98509695D01*
X109084500Y-98603477D01*
X109084500Y-99066520D01*
X109084501Y-99066523D01*
X109099352Y-99160299D01*
X109099354Y-99160304D01*
X109156950Y-99273342D01*
X109246658Y-99363050D01*
X109359696Y-99420646D01*
X109453481Y-99435500D01*
X110066518Y-99435499D01*
X110066520Y-99435499D01*
X110066521Y-99435498D01*
X110113411Y-99428072D01*
X110160299Y-99420647D01*
X110160299Y-99420646D01*
X110160304Y-99420646D01*
X110273342Y-99363050D01*
X110297620Y-99338772D01*
X110321897Y-99314496D01*
X110376414Y-99286719D01*
X110391900Y-99285500D01*
X110652100Y-99285500D01*
X110710291Y-99304407D01*
X110722103Y-99314496D01*
X110752227Y-99344619D01*
X110770658Y-99363050D01*
X110883696Y-99420646D01*
X110977481Y-99435500D01*
X111590518Y-99435499D01*
X111590520Y-99435499D01*
X111590521Y-99435498D01*
X111637411Y-99428072D01*
X111684299Y-99420647D01*
X111684299Y-99420646D01*
X111684304Y-99420646D01*
X111797342Y-99363050D01*
X111821620Y-99338772D01*
X111845897Y-99314496D01*
X111900414Y-99286719D01*
X111915900Y-99285500D01*
X112459897Y-99285500D01*
X112475383Y-99286718D01*
X112485286Y-99288287D01*
X112524510Y-99294500D01*
X112524512Y-99294500D01*
X113091490Y-99294500D01*
X113112885Y-99291111D01*
X113191126Y-99278719D01*
X113311220Y-99217528D01*
X113406528Y-99122220D01*
X113467719Y-99002126D01*
X113483500Y-98902488D01*
X113483500Y-98385512D01*
X113467719Y-98285874D01*
X113467716Y-98285869D01*
X113467716Y-98285867D01*
X113406529Y-98165782D01*
X113406528Y-98165780D01*
X113311220Y-98070472D01*
X113311217Y-98070470D01*
X113304916Y-98065892D01*
X113305916Y-98064515D01*
X113269287Y-98027880D01*
X113258500Y-97982942D01*
X113258500Y-97977709D01*
X113277407Y-97919518D01*
X113287484Y-97907718D01*
X113663708Y-97531493D01*
X113718223Y-97503718D01*
X113733710Y-97502499D01*
X114113461Y-97502499D01*
X114113464Y-97502499D01*
X114138591Y-97499585D01*
X114241365Y-97454206D01*
X114320806Y-97374765D01*
X114366185Y-97271991D01*
X114369100Y-97246865D01*
X114369099Y-96957136D01*
X114366185Y-96932009D01*
X114320806Y-96829235D01*
X114320805Y-96829234D01*
X114317100Y-96820843D01*
X114319475Y-96819794D01*
X114306062Y-96774261D01*
X114319126Y-96734051D01*
X114317100Y-96733157D01*
X114320804Y-96724766D01*
X114320806Y-96724765D01*
X114366185Y-96621991D01*
X114369100Y-96596865D01*
X114369099Y-96307136D01*
X114366185Y-96282009D01*
X114320806Y-96179235D01*
X114320805Y-96179234D01*
X114317100Y-96170843D01*
X114319475Y-96169794D01*
X114306062Y-96124261D01*
X114319126Y-96084051D01*
X114317100Y-96083157D01*
X114320804Y-96074766D01*
X114320806Y-96074765D01*
X114366185Y-95971991D01*
X114369100Y-95946865D01*
X114369099Y-95657136D01*
X114369099Y-95657134D01*
X114368962Y-95654769D01*
X114384473Y-95595582D01*
X114431811Y-95556817D01*
X114470958Y-95552312D01*
X114470958Y-95550500D01*
X114621959Y-95550500D01*
X114621961Y-95550500D01*
X114760053Y-95509953D01*
X114881128Y-95432143D01*
X114975377Y-95323373D01*
X115035165Y-95192457D01*
X115055647Y-95050000D01*
X115052463Y-95027857D01*
X115035165Y-94907543D01*
X115011840Y-94856470D01*
X114975377Y-94776627D01*
X114881128Y-94667857D01*
X114881127Y-94667856D01*
X114881126Y-94667855D01*
X114760057Y-94590049D01*
X114760054Y-94590047D01*
X114760053Y-94590047D01*
X114760050Y-94590046D01*
X114621964Y-94549500D01*
X114621961Y-94549500D01*
X114478039Y-94549500D01*
X114478035Y-94549500D01*
X114339949Y-94590046D01*
X114339942Y-94590049D01*
X114218871Y-94667856D01*
X114213520Y-94672494D01*
X114212031Y-94670776D01*
X114168659Y-94696928D01*
X114146241Y-94699500D01*
X113579244Y-94699500D01*
X113486956Y-94699500D01*
X113427526Y-94715424D01*
X113397811Y-94723386D01*
X113372087Y-94738238D01*
X113322589Y-94751500D01*
X112748739Y-94751500D01*
X112748736Y-94751501D01*
X112723609Y-94754414D01*
X112620835Y-94799794D01*
X112541394Y-94879235D01*
X112496014Y-94982011D01*
X112493100Y-95007130D01*
X112493100Y-95007132D01*
X112493101Y-95277500D01*
X112474194Y-95335690D01*
X112424694Y-95371654D01*
X112394101Y-95376500D01*
X111659500Y-95376500D01*
X111601309Y-95357593D01*
X111565345Y-95308093D01*
X111560500Y-95277500D01*
X111560500Y-95171510D01*
X111550517Y-95108482D01*
X111544719Y-95071874D01*
X111544716Y-95071869D01*
X111544716Y-95071867D01*
X111483529Y-94951782D01*
X111483528Y-94951780D01*
X111388220Y-94856472D01*
X111388217Y-94856470D01*
X111268132Y-94795283D01*
X111268127Y-94795281D01*
X111268126Y-94795281D01*
X111234913Y-94790020D01*
X111168490Y-94779500D01*
X111168488Y-94779500D01*
X110601512Y-94779500D01*
X110601510Y-94779500D01*
X110501874Y-94795281D01*
X110501867Y-94795283D01*
X110381782Y-94856470D01*
X110286468Y-94951784D01*
X110281890Y-94958086D01*
X110280512Y-94957084D01*
X110243886Y-94993710D01*
X110198942Y-95004500D01*
X110066118Y-95004500D01*
X110007927Y-94985593D01*
X109977909Y-94950446D01*
X109974165Y-94943099D01*
X109953050Y-94901658D01*
X109863342Y-94811950D01*
X109750304Y-94754354D01*
X109750305Y-94754354D01*
X109656522Y-94739500D01*
X109193479Y-94739500D01*
X109193476Y-94739501D01*
X109099700Y-94754352D01*
X109099695Y-94754354D01*
X108986659Y-94811949D01*
X108896949Y-94901659D01*
X108839354Y-95014695D01*
X108824500Y-95108477D01*
X108375498Y-95108477D01*
X108369700Y-95071867D01*
X108360647Y-95014700D01*
X108360646Y-95014698D01*
X108360646Y-95014696D01*
X108303050Y-94901658D01*
X108213342Y-94811950D01*
X108100304Y-94754354D01*
X108100305Y-94754354D01*
X108006522Y-94739500D01*
X107543479Y-94739500D01*
X107543476Y-94739501D01*
X107449700Y-94754352D01*
X107449695Y-94754354D01*
X107336659Y-94811949D01*
X107246948Y-94901660D01*
X107242472Y-94910446D01*
X107199207Y-94953710D01*
X107154263Y-94964500D01*
X106986611Y-94964500D01*
X106942193Y-94951457D01*
X106941494Y-94952989D01*
X106935054Y-94950048D01*
X106935053Y-94950047D01*
X106935050Y-94950046D01*
X106796964Y-94909500D01*
X106796961Y-94909500D01*
X106653039Y-94909500D01*
X106653035Y-94909500D01*
X106514949Y-94950046D01*
X106514942Y-94950049D01*
X106393873Y-95027855D01*
X106299622Y-95136628D01*
X106239834Y-95267543D01*
X106219353Y-95409997D01*
X106219353Y-95410002D01*
X106239834Y-95552456D01*
X106299622Y-95683371D01*
X106299623Y-95683373D01*
X106356066Y-95748512D01*
X106393873Y-95792144D01*
X106514942Y-95869950D01*
X106514947Y-95869953D01*
X106621403Y-95901211D01*
X106653035Y-95910499D01*
X106653036Y-95910499D01*
X106653039Y-95910500D01*
X106653041Y-95910500D01*
X106796959Y-95910500D01*
X106796961Y-95910500D01*
X106935053Y-95869953D01*
X106935053Y-95869952D01*
X106936561Y-95869510D01*
X106964452Y-95865500D01*
X107154263Y-95865500D01*
X107212454Y-95884407D01*
X107242472Y-95919554D01*
X107246950Y-95928342D01*
X107336658Y-96018050D01*
X107449696Y-96075646D01*
X107507101Y-96084738D01*
X107525265Y-96087615D01*
X107579782Y-96115393D01*
X107607559Y-96169909D01*
X107597988Y-96230341D01*
X107554723Y-96273606D01*
X107525264Y-96283177D01*
X107454699Y-96294352D01*
X107454695Y-96294354D01*
X107341659Y-96351949D01*
X107251948Y-96441660D01*
X107247472Y-96450446D01*
X107204207Y-96493710D01*
X107159263Y-96504500D01*
X106886611Y-96504500D01*
X106842193Y-96491457D01*
X106841494Y-96492989D01*
X106835054Y-96490048D01*
X106835053Y-96490047D01*
X106835050Y-96490046D01*
X106696964Y-96449500D01*
X106696961Y-96449500D01*
X106553039Y-96449500D01*
X106553035Y-96449500D01*
X106414949Y-96490046D01*
X106414942Y-96490049D01*
X106293873Y-96567855D01*
X106199622Y-96676628D01*
X106139834Y-96807543D01*
X106119353Y-96949997D01*
X89200500Y-96949997D01*
X89200500Y-93685801D01*
X116825201Y-93685801D01*
X116825201Y-93806236D01*
X116831281Y-93862804D01*
X116831282Y-93862806D01*
X116879014Y-93990783D01*
X116960868Y-94100127D01*
X116960872Y-94100131D01*
X117070216Y-94181985D01*
X117198190Y-94229716D01*
X117198198Y-94229718D01*
X117254766Y-94235799D01*
X117350200Y-94235799D01*
X117350200Y-93685801D01*
X117700200Y-93685801D01*
X117700200Y-94235798D01*
X117700201Y-94235799D01*
X117795631Y-94235799D01*
X117795636Y-94235798D01*
X117852204Y-94229718D01*
X117852206Y-94229717D01*
X117980183Y-94181985D01*
X118089527Y-94100131D01*
X118089531Y-94100127D01*
X118171385Y-93990783D01*
X118219116Y-93862809D01*
X118219118Y-93862801D01*
X118225200Y-93806234D01*
X118225200Y-93685801D01*
X118225199Y-93685800D01*
X117700201Y-93685800D01*
X117700200Y-93685801D01*
X117350200Y-93685801D01*
X117350199Y-93685800D01*
X116825202Y-93685800D01*
X116825201Y-93685801D01*
X89200500Y-93685801D01*
X89200500Y-87902611D01*
X89219407Y-87844420D01*
X89229496Y-87832607D01*
X89281099Y-87781004D01*
X128249500Y-87781004D01*
X128249500Y-89918995D01*
X128276420Y-90054327D01*
X128276420Y-90054329D01*
X128329222Y-90181806D01*
X128329228Y-90181817D01*
X128405885Y-90296541D01*
X128503458Y-90394114D01*
X128618182Y-90470771D01*
X128618193Y-90470777D01*
X128665283Y-90490282D01*
X128745672Y-90523580D01*
X128881007Y-90550500D01*
X128881008Y-90550500D01*
X129018992Y-90550500D01*
X129018993Y-90550500D01*
X129154328Y-90523580D01*
X129281811Y-90470775D01*
X129396542Y-90394114D01*
X129494114Y-90296542D01*
X129570775Y-90181811D01*
X129623580Y-90054328D01*
X129650500Y-89918993D01*
X129650500Y-88781007D01*
X129650500Y-88649500D01*
X129669407Y-88591309D01*
X129700780Y-88568515D01*
X132375000Y-88568515D01*
X132375000Y-88574999D01*
X132375001Y-88575000D01*
X134199998Y-88575000D01*
X134199999Y-88574999D01*
X134199999Y-88568516D01*
X134199998Y-88568514D01*
X134185166Y-88474858D01*
X134185163Y-88474848D01*
X134127641Y-88361956D01*
X134075686Y-88310001D01*
X134047909Y-88255484D01*
X134057480Y-88195052D01*
X134075685Y-88169995D01*
X134089198Y-88156483D01*
X134140573Y-88051393D01*
X134150500Y-87983260D01*
X134150500Y-87616740D01*
X134140573Y-87548607D01*
X134089198Y-87443517D01*
X134006483Y-87360802D01*
X134006481Y-87360801D01*
X133901395Y-87309427D01*
X133874139Y-87305456D01*
X133833260Y-87299500D01*
X133833257Y-87299500D01*
X133799500Y-87299500D01*
X133741309Y-87280593D01*
X133705345Y-87231093D01*
X133700500Y-87200500D01*
X133700500Y-86982932D01*
X133719407Y-86924741D01*
X133720936Y-86922693D01*
X133774536Y-86852841D01*
X133835044Y-86706762D01*
X133855682Y-86550000D01*
X133835044Y-86393238D01*
X133774537Y-86247161D01*
X133774537Y-86247160D01*
X133678286Y-86121723D01*
X133678285Y-86121722D01*
X133678282Y-86121718D01*
X133678277Y-86121714D01*
X133678276Y-86121713D01*
X133552838Y-86025462D01*
X133406766Y-85964957D01*
X133406758Y-85964955D01*
X133250001Y-85944318D01*
X133249999Y-85944318D01*
X133093241Y-85964955D01*
X133093233Y-85964957D01*
X132947161Y-86025462D01*
X132947160Y-86025462D01*
X132821723Y-86121713D01*
X132821713Y-86121723D01*
X132725462Y-86247160D01*
X132725462Y-86247161D01*
X132664957Y-86393233D01*
X132664955Y-86393241D01*
X132644318Y-86549999D01*
X132644318Y-86550000D01*
X132664955Y-86706758D01*
X132664957Y-86706766D01*
X132725462Y-86852838D01*
X132725463Y-86852840D01*
X132725464Y-86852841D01*
X132779042Y-86922665D01*
X132799466Y-86980340D01*
X132799500Y-86982932D01*
X132799500Y-87205463D01*
X132780593Y-87263654D01*
X132731093Y-87299618D01*
X132714775Y-87303428D01*
X132673607Y-87309426D01*
X132568518Y-87360801D01*
X132485801Y-87443518D01*
X132434427Y-87548604D01*
X132434427Y-87548607D01*
X132424500Y-87616740D01*
X132424500Y-87983260D01*
X132431118Y-88028682D01*
X132434427Y-88051395D01*
X132485801Y-88156481D01*
X132485802Y-88156483D01*
X132499314Y-88169995D01*
X132527090Y-88224510D01*
X132517519Y-88284942D01*
X132499313Y-88310000D01*
X132447360Y-88361953D01*
X132447359Y-88361955D01*
X132389836Y-88474848D01*
X132389835Y-88474852D01*
X132375000Y-88568515D01*
X129700780Y-88568515D01*
X129718907Y-88555345D01*
X129749500Y-88550500D01*
X131031493Y-88550500D01*
X131031494Y-88550500D01*
X131166828Y-88523580D01*
X131294311Y-88470775D01*
X131409043Y-88394114D01*
X131441352Y-88361805D01*
X131473662Y-88329496D01*
X131528179Y-88301719D01*
X131543665Y-88300500D01*
X131558257Y-88300500D01*
X131558260Y-88300500D01*
X131626393Y-88290573D01*
X131731483Y-88239198D01*
X131814198Y-88156483D01*
X131865573Y-88051393D01*
X131875500Y-87983260D01*
X131875500Y-87616740D01*
X131865573Y-87548607D01*
X131814198Y-87443517D01*
X131731483Y-87360802D01*
X131731481Y-87360801D01*
X131626395Y-87309427D01*
X131599139Y-87305456D01*
X131558260Y-87299500D01*
X131558257Y-87299500D01*
X131543664Y-87299500D01*
X131485473Y-87280593D01*
X131473666Y-87270509D01*
X131459043Y-87255886D01*
X131421937Y-87231093D01*
X131344308Y-87179223D01*
X131216829Y-87126420D01*
X131081496Y-87099500D01*
X131081494Y-87099500D01*
X130943506Y-87099500D01*
X130943503Y-87099500D01*
X130808172Y-87126420D01*
X130808170Y-87126420D01*
X130770645Y-87141964D01*
X130732760Y-87149500D01*
X128881004Y-87149500D01*
X128745672Y-87176420D01*
X128745670Y-87176420D01*
X128618193Y-87229222D01*
X128618182Y-87229228D01*
X128503458Y-87305885D01*
X128405885Y-87403458D01*
X128329228Y-87518182D01*
X128329222Y-87518193D01*
X128276420Y-87645670D01*
X128276420Y-87645672D01*
X128249500Y-87781004D01*
X89281099Y-87781004D01*
X104982608Y-72079496D01*
X105037125Y-72051719D01*
X105052612Y-72050500D01*
X105308490Y-72050500D01*
X105329885Y-72047111D01*
X105408126Y-72034719D01*
X105528220Y-71973528D01*
X105623528Y-71878220D01*
X105631397Y-71862773D01*
X105670108Y-71821980D01*
X105673884Y-71819799D01*
X105673887Y-71819799D01*
X105776614Y-71760489D01*
X107910490Y-69626614D01*
X107969799Y-69523887D01*
X107986974Y-69459788D01*
X108000500Y-69409309D01*
X108000500Y-69032932D01*
X108019407Y-68974741D01*
X108020936Y-68972693D01*
X108074536Y-68902841D01*
X108135044Y-68756762D01*
X108155682Y-68600000D01*
X108135044Y-68443238D01*
X108074537Y-68297161D01*
X108074537Y-68297160D01*
X107978286Y-68171723D01*
X107978285Y-68171722D01*
X107978282Y-68171718D01*
X107978277Y-68171714D01*
X107978276Y-68171713D01*
X107859180Y-68080328D01*
X107852841Y-68075464D01*
X107852840Y-68075463D01*
X107852838Y-68075462D01*
X107706766Y-68014957D01*
X107706758Y-68014955D01*
X107550001Y-67994318D01*
X107549999Y-67994318D01*
X107462624Y-68005821D01*
X107402463Y-67994671D01*
X107360346Y-67950288D01*
X107352360Y-67889626D01*
X107371157Y-67847405D01*
X107424536Y-67777841D01*
X107485044Y-67631762D01*
X107505682Y-67475000D01*
X107504046Y-67462577D01*
X107485044Y-67318241D01*
X107485044Y-67318238D01*
X107469835Y-67281520D01*
X107424537Y-67172161D01*
X107424537Y-67172160D01*
X107328286Y-67046723D01*
X107328285Y-67046722D01*
X107328282Y-67046718D01*
X107328277Y-67046714D01*
X107328276Y-67046713D01*
X107202838Y-66950462D01*
X107056766Y-66889957D01*
X107056758Y-66889955D01*
X106900001Y-66869318D01*
X106899999Y-66869318D01*
X106743241Y-66889955D01*
X106743233Y-66889957D01*
X106597161Y-66950462D01*
X106597160Y-66950462D01*
X106471723Y-67046713D01*
X106471713Y-67046723D01*
X106375462Y-67172160D01*
X106375462Y-67172161D01*
X106314956Y-67318237D01*
X106303467Y-67405496D01*
X106277125Y-67460721D01*
X106275318Y-67462577D01*
X104664508Y-69073389D01*
X104664507Y-69073390D01*
X104605201Y-69176111D01*
X104605200Y-69176117D01*
X104598654Y-69200543D01*
X104565328Y-69251856D01*
X104547974Y-69263125D01*
X104521782Y-69276470D01*
X104521780Y-69276471D01*
X104521780Y-69276472D01*
X104427746Y-69370505D01*
X104373232Y-69398281D01*
X104357745Y-69399500D01*
X103893984Y-69399500D01*
X103858007Y-69390862D01*
X103857715Y-69391762D01*
X103850305Y-69389354D01*
X103756520Y-69374500D01*
X103143475Y-69374500D01*
X103142573Y-69374572D01*
X103142277Y-69374500D01*
X103139592Y-69374501D01*
X103139592Y-69373856D01*
X103083079Y-69360285D01*
X103043345Y-69313757D01*
X103038548Y-69252760D01*
X103064806Y-69205874D01*
X103316185Y-68954494D01*
X103370702Y-68926718D01*
X103386189Y-68925499D01*
X103756521Y-68925499D01*
X103756522Y-68925498D01*
X103803411Y-68918072D01*
X103850299Y-68910647D01*
X103850299Y-68910646D01*
X103850304Y-68910646D01*
X103963342Y-68853050D01*
X104053050Y-68763342D01*
X104070266Y-68729554D01*
X104113531Y-68686290D01*
X104158475Y-68675500D01*
X104296142Y-68675500D01*
X104296144Y-68675500D01*
X104385288Y-68651614D01*
X104412644Y-68635820D01*
X104465212Y-68605470D01*
X108793275Y-64277404D01*
X108847790Y-64249629D01*
X108876200Y-64249257D01*
X108879026Y-64249629D01*
X108925000Y-64255682D01*
X109081762Y-64235044D01*
X109214659Y-64179996D01*
X132084611Y-64179996D01*
X132084611Y-64180003D01*
X132104119Y-64378087D01*
X132104120Y-64378093D01*
X132155551Y-64547636D01*
X132161903Y-64568573D01*
X132255735Y-64744120D01*
X132255737Y-64744122D01*
X132255738Y-64744124D01*
X132382007Y-64897983D01*
X132382016Y-64897992D01*
X132535875Y-65024261D01*
X132535880Y-65024265D01*
X132711427Y-65118097D01*
X132850475Y-65160277D01*
X132901906Y-65175879D01*
X132901912Y-65175880D01*
X133099997Y-65195389D01*
X133100000Y-65195389D01*
X133100003Y-65195389D01*
X133298087Y-65175880D01*
X133298093Y-65175879D01*
X133488573Y-65118097D01*
X133664120Y-65024265D01*
X133817988Y-64897988D01*
X133944265Y-64744120D01*
X134038097Y-64568573D01*
X134095879Y-64378093D01*
X134096343Y-64373387D01*
X134115389Y-64180003D01*
X134115389Y-64179996D01*
X134095880Y-63981912D01*
X134095879Y-63981906D01*
X134071072Y-63900129D01*
X134038097Y-63791427D01*
X133944265Y-63615880D01*
X133865436Y-63519827D01*
X133817992Y-63462016D01*
X133817983Y-63462007D01*
X133664124Y-63335738D01*
X133664122Y-63335737D01*
X133664120Y-63335735D01*
X133538441Y-63268558D01*
X133488581Y-63241907D01*
X133488578Y-63241906D01*
X133488573Y-63241903D01*
X133467636Y-63235551D01*
X133298093Y-63184120D01*
X133298087Y-63184119D01*
X133100003Y-63164611D01*
X133099997Y-63164611D01*
X132901912Y-63184119D01*
X132901906Y-63184120D01*
X132711433Y-63241901D01*
X132711431Y-63241901D01*
X132711427Y-63241903D01*
X132711424Y-63241904D01*
X132711418Y-63241907D01*
X132535885Y-63335732D01*
X132535875Y-63335738D01*
X132382016Y-63462007D01*
X132382007Y-63462016D01*
X132255738Y-63615875D01*
X132255732Y-63615885D01*
X132161907Y-63791418D01*
X132161901Y-63791433D01*
X132104120Y-63981906D01*
X132104119Y-63981912D01*
X132084611Y-64179996D01*
X109214659Y-64179996D01*
X109227841Y-64174536D01*
X109353282Y-64078282D01*
X109449536Y-63952841D01*
X109510044Y-63806762D01*
X109530682Y-63650000D01*
X109510044Y-63493238D01*
X109489398Y-63443394D01*
X109449537Y-63347161D01*
X109449537Y-63347160D01*
X109353286Y-63221723D01*
X109353285Y-63221722D01*
X109353282Y-63221718D01*
X109353277Y-63221714D01*
X109353276Y-63221713D01*
X109282104Y-63167101D01*
X109227841Y-63125464D01*
X109227840Y-63125463D01*
X109227838Y-63125462D01*
X109081766Y-63064957D01*
X109081758Y-63064955D01*
X108925001Y-63044318D01*
X108924999Y-63044318D01*
X108768241Y-63064955D01*
X108768233Y-63064957D01*
X108622161Y-63125462D01*
X108622160Y-63125462D01*
X108496723Y-63221713D01*
X108496713Y-63221723D01*
X108400462Y-63347160D01*
X108400462Y-63347161D01*
X108339957Y-63493233D01*
X108339955Y-63493241D01*
X108319318Y-63649999D01*
X108319318Y-63650000D01*
X108325742Y-63698798D01*
X108314592Y-63758959D01*
X108297593Y-63781724D01*
X104192858Y-67886459D01*
X104138341Y-67914236D01*
X104077909Y-67904665D01*
X104052853Y-67886461D01*
X103963342Y-67796950D01*
X103850304Y-67739354D01*
X103850305Y-67739354D01*
X103756522Y-67724500D01*
X103143479Y-67724500D01*
X103143476Y-67724501D01*
X103049700Y-67739352D01*
X103049695Y-67739354D01*
X102936659Y-67796949D01*
X102846949Y-67886659D01*
X102789354Y-67999695D01*
X102774500Y-68093478D01*
X102774500Y-68463810D01*
X102755593Y-68522001D01*
X102745503Y-68533814D01*
X102689926Y-68589390D01*
X102635409Y-68617167D01*
X102574977Y-68607595D01*
X102531713Y-68564330D01*
X102521770Y-68532308D01*
X102518151Y-68504817D01*
X102510044Y-68443238D01*
X102449537Y-68297161D01*
X102449537Y-68297160D01*
X102353286Y-68171723D01*
X102353285Y-68171722D01*
X102353282Y-68171718D01*
X102353277Y-68171714D01*
X102353276Y-68171713D01*
X102234180Y-68080328D01*
X102227841Y-68075464D01*
X102227840Y-68075463D01*
X102227838Y-68075462D01*
X102081766Y-68014957D01*
X102081758Y-68014955D01*
X101925001Y-67994318D01*
X101924999Y-67994318D01*
X101768241Y-68014955D01*
X101768233Y-68014957D01*
X101622161Y-68075462D01*
X101622160Y-68075462D01*
X101496723Y-68171713D01*
X101496713Y-68171723D01*
X101400463Y-68297160D01*
X101352321Y-68413386D01*
X101312584Y-68459911D01*
X101260857Y-68474500D01*
X101054300Y-68474500D01*
X100999299Y-68457816D01*
X100955791Y-68428745D01*
X100955789Y-68428744D01*
X100955786Y-68428743D01*
X100955785Y-68428743D01*
X100884190Y-68414501D01*
X100884182Y-68414500D01*
X100884181Y-68414500D01*
X100884180Y-68414500D01*
X100665822Y-68414500D01*
X100665815Y-68414501D01*
X100594212Y-68428743D01*
X100594210Y-68428744D01*
X100579998Y-68438240D01*
X100521109Y-68454846D01*
X100470000Y-68438239D01*
X100455791Y-68428745D01*
X100455789Y-68428744D01*
X100455786Y-68428743D01*
X100455785Y-68428743D01*
X100384190Y-68414501D01*
X100384182Y-68414500D01*
X100384181Y-68414500D01*
X100384180Y-68414500D01*
X100293637Y-68414500D01*
X100235446Y-68395593D01*
X100199482Y-68346093D01*
X100199482Y-68284907D01*
X100207901Y-68265999D01*
X100251614Y-68190288D01*
X100252764Y-68185996D01*
X100252932Y-68185372D01*
X100262374Y-68150128D01*
X100275500Y-68101144D01*
X100275500Y-67683474D01*
X100294407Y-67625283D01*
X100329553Y-67595265D01*
X100363342Y-67578050D01*
X100453050Y-67488342D01*
X100510646Y-67375304D01*
X100525500Y-67281519D01*
X100525499Y-67136189D01*
X100544406Y-67077999D01*
X100554489Y-67066191D01*
X102541186Y-65079496D01*
X102595703Y-65051719D01*
X102611190Y-65050500D01*
X105121241Y-65050500D01*
X105179432Y-65069407D01*
X105188403Y-65077640D01*
X105188520Y-65077506D01*
X105193871Y-65082143D01*
X105314942Y-65159950D01*
X105314947Y-65159953D01*
X105421403Y-65191211D01*
X105453035Y-65200499D01*
X105453036Y-65200499D01*
X105453039Y-65200500D01*
X105453041Y-65200500D01*
X105596959Y-65200500D01*
X105596961Y-65200500D01*
X105735053Y-65159953D01*
X105856128Y-65082143D01*
X105950377Y-64973373D01*
X106010165Y-64842457D01*
X106024304Y-64744120D01*
X106030647Y-64700002D01*
X106030647Y-64699997D01*
X106010165Y-64557543D01*
X105950377Y-64426628D01*
X105950377Y-64426627D01*
X105856128Y-64317857D01*
X105856127Y-64317856D01*
X105856126Y-64317855D01*
X105735057Y-64240049D01*
X105735054Y-64240047D01*
X105735053Y-64240047D01*
X105735050Y-64240046D01*
X105596964Y-64199500D01*
X105596961Y-64199500D01*
X105453039Y-64199500D01*
X105453035Y-64199500D01*
X105314949Y-64240046D01*
X105314942Y-64240049D01*
X105193871Y-64317856D01*
X105188520Y-64322494D01*
X105187031Y-64320776D01*
X105143659Y-64346928D01*
X105121241Y-64349500D01*
X102378856Y-64349500D01*
X102350927Y-64356983D01*
X102295069Y-64371950D01*
X102289712Y-64373385D01*
X102289708Y-64373387D01*
X102209790Y-64419528D01*
X100341790Y-66287526D01*
X100287273Y-66315303D01*
X100256299Y-66315303D01*
X100156522Y-66299500D01*
X99693479Y-66299500D01*
X99693476Y-66299501D01*
X99599700Y-66314352D01*
X99599695Y-66314354D01*
X99486659Y-66371949D01*
X99396949Y-66461659D01*
X99339354Y-66574695D01*
X99324500Y-66668477D01*
X99324500Y-67281520D01*
X99324501Y-67281523D01*
X99339352Y-67375299D01*
X99339354Y-67375304D01*
X99396950Y-67488342D01*
X99486658Y-67578050D01*
X99520445Y-67595265D01*
X99563708Y-67638526D01*
X99574500Y-67683474D01*
X99574500Y-67868810D01*
X99555593Y-67927001D01*
X99545504Y-67938813D01*
X99474532Y-68009785D01*
X99474530Y-68009787D01*
X99474530Y-68009788D01*
X99428386Y-68089712D01*
X99404500Y-68178856D01*
X99404500Y-68971144D01*
X99421056Y-69032932D01*
X99428387Y-69060290D01*
X99431237Y-69065226D01*
X99444500Y-69114724D01*
X99444500Y-69214176D01*
X99444501Y-69214184D01*
X99458743Y-69285787D01*
X99458744Y-69285790D01*
X99513000Y-69366992D01*
X99513005Y-69366997D01*
X99550069Y-69391762D01*
X99594211Y-69421256D01*
X99644332Y-69431226D01*
X99697714Y-69461122D01*
X99723330Y-69516688D01*
X99711393Y-69576697D01*
X99695020Y-69598326D01*
X99494532Y-69798815D01*
X99494530Y-69798817D01*
X99494530Y-69798818D01*
X99448386Y-69878742D01*
X99424500Y-69967886D01*
X99424500Y-70471144D01*
X99432366Y-70500500D01*
X99441127Y-70533198D01*
X99444500Y-70558819D01*
X99444500Y-70714177D01*
X99444501Y-70714184D01*
X99458743Y-70785787D01*
X99458744Y-70785790D01*
X99513000Y-70866992D01*
X99513005Y-70866997D01*
X99580002Y-70911762D01*
X99594211Y-70921256D01*
X99665819Y-70935500D01*
X99884180Y-70935499D01*
X99955789Y-70921256D01*
X99969998Y-70911762D01*
X100028886Y-70895153D01*
X100080002Y-70911762D01*
X100094207Y-70921254D01*
X100094208Y-70921254D01*
X100094211Y-70921256D01*
X100165819Y-70935500D01*
X100384180Y-70935499D01*
X100455789Y-70921256D01*
X100469998Y-70911761D01*
X100528885Y-70895153D01*
X100579999Y-70911761D01*
X100594205Y-70921253D01*
X100594208Y-70921254D01*
X100594211Y-70921256D01*
X100665819Y-70935500D01*
X100884180Y-70935499D01*
X100955789Y-70921256D01*
X100994856Y-70895153D01*
X100999300Y-70892184D01*
X101054300Y-70875500D01*
X102273389Y-70875500D01*
X102331580Y-70894407D01*
X102367544Y-70943907D01*
X102367544Y-71005093D01*
X102343393Y-71044504D01*
X102067393Y-71320504D01*
X102012876Y-71348281D01*
X101997389Y-71349500D01*
X98927612Y-71349500D01*
X98869421Y-71330593D01*
X98857608Y-71320504D01*
X98754496Y-71217392D01*
X98726719Y-71162875D01*
X98725500Y-71147388D01*
X98725500Y-67606899D01*
X98744407Y-67548708D01*
X98754490Y-67536901D01*
X98803050Y-67488342D01*
X98860646Y-67375304D01*
X98875500Y-67281519D01*
X98875499Y-66668482D01*
X98860646Y-66574696D01*
X98803050Y-66461658D01*
X98713342Y-66371950D01*
X98600304Y-66314354D01*
X98600305Y-66314354D01*
X98506522Y-66299500D01*
X98043479Y-66299500D01*
X98043476Y-66299501D01*
X97949700Y-66314352D01*
X97949695Y-66314354D01*
X97836659Y-66371949D01*
X97746949Y-66461659D01*
X97689354Y-66574695D01*
X97674500Y-66668477D01*
X97674500Y-67281520D01*
X97674501Y-67281523D01*
X97689352Y-67375299D01*
X97689354Y-67375304D01*
X97746950Y-67488342D01*
X97795505Y-67536897D01*
X97823281Y-67591412D01*
X97824500Y-67606899D01*
X97824500Y-71250500D01*
X97805593Y-71308691D01*
X97756093Y-71344655D01*
X97725500Y-71349500D01*
X95015691Y-71349500D01*
X94958402Y-71364850D01*
X94901112Y-71380201D01*
X94857696Y-71405266D01*
X94857697Y-71405267D01*
X94798388Y-71439509D01*
X87689507Y-78548390D01*
X87630200Y-78651112D01*
X87630200Y-78651113D01*
X87630201Y-78651114D01*
X87599500Y-78765692D01*
X83810500Y-78765692D01*
X83810500Y-55079996D01*
X132084611Y-55079996D01*
X132084611Y-55080003D01*
X132104119Y-55278087D01*
X132104120Y-55278093D01*
X132153616Y-55441256D01*
X132161903Y-55468573D01*
X132255735Y-55644120D01*
X132255737Y-55644122D01*
X132255738Y-55644124D01*
X132382007Y-55797983D01*
X132382016Y-55797992D01*
X132515452Y-55907500D01*
X132535880Y-55924265D01*
X132711427Y-56018097D01*
X132818202Y-56050487D01*
X132901906Y-56075879D01*
X132901912Y-56075880D01*
X133099997Y-56095389D01*
X133100000Y-56095389D01*
X133100003Y-56095389D01*
X133298087Y-56075880D01*
X133298093Y-56075879D01*
X133488573Y-56018097D01*
X133538420Y-55991453D01*
X135088720Y-55991453D01*
X135089496Y-56079535D01*
X135089500Y-56080407D01*
X135089500Y-63179591D01*
X135089496Y-63180463D01*
X135088720Y-63268546D01*
X135088721Y-63268558D01*
X135118163Y-63443388D01*
X135118165Y-63443396D01*
X135145509Y-63519827D01*
X135177891Y-63610341D01*
X135200613Y-63649999D01*
X135266041Y-63764192D01*
X135379851Y-63900129D01*
X135379870Y-63900148D01*
X135515807Y-64013958D01*
X135515810Y-64013960D01*
X135515813Y-64013962D01*
X135669659Y-64102109D01*
X135836606Y-64161835D01*
X135836609Y-64161835D01*
X135836611Y-64161836D01*
X135944471Y-64180000D01*
X136011453Y-64191280D01*
X136099536Y-64190504D01*
X136100408Y-64190500D01*
X143199592Y-64190500D01*
X143200464Y-64190504D01*
X143288547Y-64191280D01*
X143355552Y-64179996D01*
X145184611Y-64179996D01*
X145184611Y-64180003D01*
X145204119Y-64378087D01*
X145204120Y-64378093D01*
X145255551Y-64547636D01*
X145261903Y-64568573D01*
X145355735Y-64744120D01*
X145355737Y-64744122D01*
X145355738Y-64744124D01*
X145482007Y-64897983D01*
X145482016Y-64897992D01*
X145635875Y-65024261D01*
X145635880Y-65024265D01*
X145811427Y-65118097D01*
X145950475Y-65160277D01*
X146001906Y-65175879D01*
X146001912Y-65175880D01*
X146199997Y-65195389D01*
X146200000Y-65195389D01*
X146200003Y-65195389D01*
X146398087Y-65175880D01*
X146398093Y-65175879D01*
X146588573Y-65118097D01*
X146764120Y-65024265D01*
X146917988Y-64897988D01*
X147044265Y-64744120D01*
X147138097Y-64568573D01*
X147195879Y-64378093D01*
X147196343Y-64373387D01*
X147215389Y-64180003D01*
X147215389Y-64179996D01*
X147195880Y-63981912D01*
X147195879Y-63981906D01*
X147171072Y-63900129D01*
X147138097Y-63791427D01*
X147044265Y-63615880D01*
X146965436Y-63519827D01*
X146917992Y-63462016D01*
X146917983Y-63462007D01*
X146764124Y-63335738D01*
X146764122Y-63335737D01*
X146764120Y-63335735D01*
X146638441Y-63268558D01*
X146588581Y-63241907D01*
X146588578Y-63241906D01*
X146588573Y-63241903D01*
X146567636Y-63235551D01*
X146398093Y-63184120D01*
X146398087Y-63184119D01*
X146200003Y-63164611D01*
X146199997Y-63164611D01*
X146001912Y-63184119D01*
X146001906Y-63184120D01*
X145811433Y-63241901D01*
X145811431Y-63241901D01*
X145811427Y-63241903D01*
X145811424Y-63241904D01*
X145811418Y-63241907D01*
X145635885Y-63335732D01*
X145635875Y-63335738D01*
X145482016Y-63462007D01*
X145482007Y-63462016D01*
X145355738Y-63615875D01*
X145355732Y-63615885D01*
X145261907Y-63791418D01*
X145261901Y-63791433D01*
X145204120Y-63981906D01*
X145204119Y-63981912D01*
X145184611Y-64179996D01*
X143355552Y-64179996D01*
X143463394Y-64161835D01*
X143630341Y-64102109D01*
X143784187Y-64013962D01*
X143822474Y-63981907D01*
X143920129Y-63900148D01*
X143920132Y-63900144D01*
X143920139Y-63900139D01*
X143920144Y-63900132D01*
X143920148Y-63900129D01*
X144033958Y-63764192D01*
X144033958Y-63764191D01*
X144033962Y-63764187D01*
X144122109Y-63610341D01*
X144181835Y-63443394D01*
X144211280Y-63268547D01*
X144210504Y-63180463D01*
X144210500Y-63179591D01*
X144210500Y-56080407D01*
X144210504Y-56079535D01*
X144211045Y-56018092D01*
X144211280Y-55991453D01*
X144181835Y-55816606D01*
X144122109Y-55649659D01*
X144033962Y-55495813D01*
X144033960Y-55495810D01*
X144033958Y-55495807D01*
X143920148Y-55359870D01*
X143920129Y-55359851D01*
X143784192Y-55246041D01*
X143630339Y-55157890D01*
X143463396Y-55098165D01*
X143463388Y-55098163D01*
X143355510Y-55079996D01*
X145184611Y-55079996D01*
X145184611Y-55080003D01*
X145204119Y-55278087D01*
X145204120Y-55278093D01*
X145253616Y-55441256D01*
X145261903Y-55468573D01*
X145355735Y-55644120D01*
X145355737Y-55644122D01*
X145355738Y-55644124D01*
X145482007Y-55797983D01*
X145482016Y-55797992D01*
X145615452Y-55907500D01*
X145635880Y-55924265D01*
X145811427Y-56018097D01*
X145918202Y-56050487D01*
X146001906Y-56075879D01*
X146001912Y-56075880D01*
X146199997Y-56095389D01*
X146200000Y-56095389D01*
X146200003Y-56095389D01*
X146398087Y-56075880D01*
X146398093Y-56075879D01*
X146588573Y-56018097D01*
X146764120Y-55924265D01*
X146917988Y-55797988D01*
X147044265Y-55644120D01*
X147138097Y-55468573D01*
X147195879Y-55278093D01*
X147196377Y-55273042D01*
X147215389Y-55080003D01*
X147215389Y-55079996D01*
X147195880Y-54881912D01*
X147195879Y-54881906D01*
X147180277Y-54830475D01*
X147138097Y-54691427D01*
X147044265Y-54515880D01*
X147044261Y-54515875D01*
X146917992Y-54362016D01*
X146917983Y-54362007D01*
X146764124Y-54235738D01*
X146764122Y-54235737D01*
X146764120Y-54235735D01*
X146688885Y-54195521D01*
X146588581Y-54141907D01*
X146588578Y-54141906D01*
X146588573Y-54141903D01*
X146567636Y-54135551D01*
X146398093Y-54084120D01*
X146398087Y-54084119D01*
X146200003Y-54064611D01*
X146199997Y-54064611D01*
X146001912Y-54084119D01*
X146001906Y-54084120D01*
X145811433Y-54141901D01*
X145811431Y-54141901D01*
X145811427Y-54141903D01*
X145811424Y-54141904D01*
X145811418Y-54141907D01*
X145635885Y-54235732D01*
X145635875Y-54235738D01*
X145482016Y-54362007D01*
X145482007Y-54362016D01*
X145355738Y-54515875D01*
X145355732Y-54515885D01*
X145261907Y-54691418D01*
X145261901Y-54691433D01*
X145204120Y-54881906D01*
X145204119Y-54881912D01*
X145184611Y-55079996D01*
X143355510Y-55079996D01*
X143288558Y-55068721D01*
X143288547Y-55068720D01*
X143288546Y-55068720D01*
X143200464Y-55069496D01*
X143199592Y-55069500D01*
X136100408Y-55069500D01*
X136099536Y-55069496D01*
X136011453Y-55068720D01*
X136011441Y-55068721D01*
X135836611Y-55098163D01*
X135836603Y-55098165D01*
X135669660Y-55157890D01*
X135515807Y-55246041D01*
X135379870Y-55359851D01*
X135379851Y-55359870D01*
X135266041Y-55495807D01*
X135177890Y-55649660D01*
X135118165Y-55816603D01*
X135118163Y-55816611D01*
X135088721Y-55991441D01*
X135088720Y-55991453D01*
X133538420Y-55991453D01*
X133664120Y-55924265D01*
X133817988Y-55797988D01*
X133944265Y-55644120D01*
X134038097Y-55468573D01*
X134095879Y-55278093D01*
X134096377Y-55273042D01*
X134115389Y-55080003D01*
X134115389Y-55079996D01*
X134095880Y-54881912D01*
X134095879Y-54881906D01*
X134080277Y-54830475D01*
X134038097Y-54691427D01*
X133944265Y-54515880D01*
X133944261Y-54515875D01*
X133817992Y-54362016D01*
X133817983Y-54362007D01*
X133664124Y-54235738D01*
X133664122Y-54235737D01*
X133664120Y-54235735D01*
X133588885Y-54195521D01*
X133488581Y-54141907D01*
X133488578Y-54141906D01*
X133488573Y-54141903D01*
X133467636Y-54135551D01*
X133298093Y-54084120D01*
X133298087Y-54084119D01*
X133100003Y-54064611D01*
X133099997Y-54064611D01*
X132901912Y-54084119D01*
X132901906Y-54084120D01*
X132711433Y-54141901D01*
X132711431Y-54141901D01*
X132711427Y-54141903D01*
X132711424Y-54141904D01*
X132711418Y-54141907D01*
X132535885Y-54235732D01*
X132535875Y-54235738D01*
X132382016Y-54362007D01*
X132382007Y-54362016D01*
X132255738Y-54515875D01*
X132255732Y-54515885D01*
X132161907Y-54691418D01*
X132161901Y-54691433D01*
X132104120Y-54881906D01*
X132104119Y-54881912D01*
X132084611Y-55079996D01*
X83810500Y-55079996D01*
X83810500Y-50334721D01*
X83810934Y-50325458D01*
X83825806Y-50167216D01*
X83828870Y-50150395D01*
X83838756Y-50114197D01*
X83869712Y-50000863D01*
X83875617Y-49984840D01*
X83941579Y-49844565D01*
X83950160Y-49829786D01*
X84039269Y-49702960D01*
X84050264Y-49689876D01*
X84159876Y-49580264D01*
X84172960Y-49569269D01*
X84299786Y-49480160D01*
X84314565Y-49471579D01*
X84454840Y-49405617D01*
X84470863Y-49399712D01*
X84584197Y-49368756D01*
X84620395Y-49358870D01*
X84637216Y-49355806D01*
X84795458Y-49340934D01*
X84804721Y-49340500D01*
X89131432Y-49340500D01*
X89132250Y-49340625D01*
X89146664Y-49340523D01*
X89146665Y-49340524D01*
X89149792Y-49340502D01*
X89150488Y-49340500D01*
X89173472Y-49340500D01*
X89174228Y-49340343D01*
X89238303Y-49339931D01*
X89411904Y-49308311D01*
X89577475Y-49247292D01*
X89577477Y-49247290D01*
X89577479Y-49247290D01*
X89685164Y-49184770D01*
X89730078Y-49158694D01*
X89865161Y-49045161D01*
X89978694Y-48910078D01*
X90067292Y-48757475D01*
X90128311Y-48591904D01*
X90159931Y-48418303D01*
X90160343Y-48354228D01*
X90160500Y-48353471D01*
X90160500Y-48330488D01*
X90160502Y-48329792D01*
X90160625Y-48312250D01*
X90160500Y-48311432D01*
X90160500Y-46179996D01*
X92234611Y-46179996D01*
X92234611Y-46180003D01*
X92254119Y-46378087D01*
X92254120Y-46378093D01*
X92305551Y-46547636D01*
X92311903Y-46568573D01*
X92405735Y-46744120D01*
X92405737Y-46744122D01*
X92405738Y-46744124D01*
X92532007Y-46897983D01*
X92532016Y-46897992D01*
X92685875Y-47024261D01*
X92685880Y-47024265D01*
X92861427Y-47118097D01*
X92968202Y-47150487D01*
X93051906Y-47175879D01*
X93051912Y-47175880D01*
X93249997Y-47195389D01*
X93250000Y-47195389D01*
X93250003Y-47195389D01*
X93448087Y-47175880D01*
X93448093Y-47175879D01*
X93638573Y-47118097D01*
X93814120Y-47024265D01*
X93967988Y-46897988D01*
X94094265Y-46744120D01*
X94188097Y-46568573D01*
X94245879Y-46378093D01*
X94246377Y-46373042D01*
X94265389Y-46180003D01*
X94265389Y-46179996D01*
X162434611Y-46179996D01*
X162434611Y-46180003D01*
X162454119Y-46378087D01*
X162454120Y-46378093D01*
X162505551Y-46547636D01*
X162511903Y-46568573D01*
X162605735Y-46744120D01*
X162605737Y-46744122D01*
X162605738Y-46744124D01*
X162732007Y-46897983D01*
X162732016Y-46897992D01*
X162885875Y-47024261D01*
X162885880Y-47024265D01*
X163061427Y-47118097D01*
X163168202Y-47150487D01*
X163251906Y-47175879D01*
X163251912Y-47175880D01*
X163449997Y-47195389D01*
X163450000Y-47195389D01*
X163450003Y-47195389D01*
X163648087Y-47175880D01*
X163648093Y-47175879D01*
X163838573Y-47118097D01*
X164014120Y-47024265D01*
X164167988Y-46897988D01*
X164294265Y-46744120D01*
X164388097Y-46568573D01*
X164445879Y-46378093D01*
X164446377Y-46373042D01*
X164465389Y-46180003D01*
X164465389Y-46179996D01*
X164445880Y-45981912D01*
X164445879Y-45981906D01*
X164430277Y-45930475D01*
X164388097Y-45791427D01*
X164294265Y-45615880D01*
X164294261Y-45615875D01*
X164167992Y-45462016D01*
X164167983Y-45462007D01*
X164014124Y-45335738D01*
X164014122Y-45335737D01*
X164014120Y-45335735D01*
X163938885Y-45295521D01*
X163838581Y-45241907D01*
X163838578Y-45241906D01*
X163838573Y-45241903D01*
X163817636Y-45235551D01*
X163648093Y-45184120D01*
X163648087Y-45184119D01*
X163450003Y-45164611D01*
X163449997Y-45164611D01*
X163251912Y-45184119D01*
X163251906Y-45184120D01*
X163061433Y-45241901D01*
X163061431Y-45241901D01*
X163061427Y-45241903D01*
X163061424Y-45241904D01*
X163061418Y-45241907D01*
X162885885Y-45335732D01*
X162885875Y-45335738D01*
X162732016Y-45462007D01*
X162732007Y-45462016D01*
X162605738Y-45615875D01*
X162605732Y-45615885D01*
X162511907Y-45791418D01*
X162511901Y-45791433D01*
X162454120Y-45981906D01*
X162454119Y-45981912D01*
X162434611Y-46179996D01*
X94265389Y-46179996D01*
X94245880Y-45981912D01*
X94245879Y-45981906D01*
X94230277Y-45930475D01*
X94188097Y-45791427D01*
X94094265Y-45615880D01*
X94094261Y-45615875D01*
X93967992Y-45462016D01*
X93967983Y-45462007D01*
X93814124Y-45335738D01*
X93814122Y-45335737D01*
X93814120Y-45335735D01*
X93738885Y-45295521D01*
X93638581Y-45241907D01*
X93638578Y-45241906D01*
X93638573Y-45241903D01*
X93617636Y-45235551D01*
X93448093Y-45184120D01*
X93448087Y-45184119D01*
X93250003Y-45164611D01*
X93249997Y-45164611D01*
X93051912Y-45184119D01*
X93051906Y-45184120D01*
X92861433Y-45241901D01*
X92861431Y-45241901D01*
X92861427Y-45241903D01*
X92861424Y-45241904D01*
X92861418Y-45241907D01*
X92685885Y-45335732D01*
X92685875Y-45335738D01*
X92532016Y-45462007D01*
X92532007Y-45462016D01*
X92405738Y-45615875D01*
X92405732Y-45615885D01*
X92311907Y-45791418D01*
X92311901Y-45791433D01*
X92254120Y-45981906D01*
X92254119Y-45981912D01*
X92234611Y-46179996D01*
X90160500Y-46179996D01*
X90160500Y-41034721D01*
X90160934Y-41025458D01*
X90175806Y-40867216D01*
X90178870Y-40850395D01*
X90188756Y-40814197D01*
X90219712Y-40700863D01*
X90225617Y-40684840D01*
X90291579Y-40544565D01*
X90300160Y-40529786D01*
X90389269Y-40402960D01*
X90400264Y-40389876D01*
X90509876Y-40280264D01*
X90522960Y-40269269D01*
X90649786Y-40180160D01*
X90664565Y-40171579D01*
X90804840Y-40105617D01*
X90820863Y-40099712D01*
X90934197Y-40068756D01*
X90970395Y-40058870D01*
X90987216Y-40055806D01*
X91145458Y-40040934D01*
X91154721Y-40040500D01*
X164595279Y-40040500D01*
X164604540Y-40040933D01*
G37*
G04 #@! TD.AperFunction*
G04 #@! TA.AperFunction,Conductor*
G36*
X123890677Y-91119685D02*
G01*
X123911319Y-91136319D01*
X124038681Y-91263681D01*
X124072166Y-91325004D01*
X124075000Y-91351362D01*
X124075000Y-99148638D01*
X124055315Y-99215677D01*
X124038681Y-99236319D01*
X123211319Y-100063681D01*
X123149996Y-100097166D01*
X123123638Y-100100000D01*
X121526362Y-100100000D01*
X121459323Y-100080315D01*
X121438681Y-100063681D01*
X121111319Y-99736319D01*
X121077834Y-99674996D01*
X121075000Y-99648638D01*
X121075000Y-98040000D01*
X120884527Y-97849527D01*
X120873654Y-97837100D01*
X120553918Y-97418371D01*
X120063817Y-96776529D01*
X120039797Y-96750172D01*
X120039787Y-96750162D01*
X120008334Y-96721158D01*
X120006689Y-96719656D01*
X120006685Y-96719654D01*
X119966779Y-96697332D01*
X119926871Y-96675009D01*
X119926870Y-96675008D01*
X119926869Y-96675008D01*
X119859837Y-96655325D01*
X119859833Y-96655324D01*
X119859832Y-96655324D01*
X119801934Y-96646999D01*
X119801930Y-96646999D01*
X118526313Y-96646999D01*
X118459274Y-96627314D01*
X118448507Y-96619551D01*
X118436252Y-96609675D01*
X118436250Y-96609674D01*
X118436249Y-96609673D01*
X118391523Y-96586277D01*
X118341245Y-96537760D01*
X118325000Y-96476402D01*
X118325000Y-96324462D01*
X118344685Y-96257423D01*
X118397489Y-96211668D01*
X118463294Y-96201289D01*
X118468609Y-96201905D01*
X118473735Y-96202500D01*
X119838464Y-96202499D01*
X119838479Y-96202497D01*
X119838482Y-96202497D01*
X119863586Y-96199586D01*
X119863587Y-96199585D01*
X119863591Y-96199585D01*
X119966365Y-96154206D01*
X119966367Y-96154203D01*
X119970053Y-96151679D01*
X120008044Y-96134198D01*
X120028887Y-96128614D01*
X120108811Y-96082470D01*
X120204962Y-95986319D01*
X120266285Y-95952834D01*
X120292643Y-95950000D01*
X120375000Y-95950000D01*
X120525000Y-95800000D01*
X120525000Y-95703511D01*
X120541613Y-95641511D01*
X120547099Y-95632009D01*
X120576614Y-95580887D01*
X120584220Y-95552500D01*
X120600500Y-95491743D01*
X120600500Y-92328856D01*
X120576614Y-92239712D01*
X120574060Y-92235288D01*
X120541613Y-92179088D01*
X120525000Y-92117088D01*
X120525000Y-92001362D01*
X120544685Y-91934323D01*
X120561319Y-91913681D01*
X121338681Y-91136319D01*
X121400004Y-91102834D01*
X121426362Y-91100000D01*
X123823638Y-91100000D01*
X123890677Y-91119685D01*
G37*
G04 #@! TD.AperFunction*
G04 #@! TA.AperFunction,Conductor*
G36*
X118307306Y-96769685D02*
G01*
X118327948Y-96786319D01*
X118345835Y-96804206D01*
X118448609Y-96849585D01*
X118473735Y-96852500D01*
X119801934Y-96852499D01*
X119868973Y-96872184D01*
X119900488Y-96901245D01*
X120839557Y-98131059D01*
X120864597Y-98196287D01*
X120865003Y-98205976D01*
X120874892Y-101844094D01*
X120855389Y-101911187D01*
X120852177Y-101915967D01*
X120512054Y-102397536D01*
X120457300Y-102440938D01*
X120410769Y-102450000D01*
X120274999Y-102450000D01*
X120125000Y-102599999D01*
X120125000Y-104756000D01*
X120105315Y-104823039D01*
X120052511Y-104868794D01*
X120001000Y-104880000D01*
X117406362Y-104880000D01*
X117339323Y-104860315D01*
X117318681Y-104843681D01*
X117061319Y-104586319D01*
X117027834Y-104524996D01*
X117025000Y-104498638D01*
X117025000Y-97651362D01*
X117044685Y-97584323D01*
X117061319Y-97563681D01*
X117838681Y-96786319D01*
X117900004Y-96752834D01*
X117926362Y-96750000D01*
X118240267Y-96750000D01*
X118307306Y-96769685D01*
G37*
G04 #@! TD.AperFunction*
G04 #@! TA.AperFunction,Conductor*
G36*
X111512539Y-129219685D02*
G01*
X111558294Y-129272489D01*
X111569500Y-129324000D01*
X111569500Y-130829752D01*
X111581131Y-130888229D01*
X111581132Y-130888230D01*
X111625447Y-130954552D01*
X111691768Y-130998867D01*
X111697052Y-130999918D01*
X111704922Y-131001483D01*
X111766834Y-131033866D01*
X111788546Y-131061842D01*
X112333813Y-132021511D01*
X112350000Y-132082767D01*
X112350000Y-134176000D01*
X112330315Y-134243039D01*
X112277511Y-134288794D01*
X112226000Y-134300000D01*
X111197630Y-134300000D01*
X111130591Y-134280315D01*
X111084836Y-134227511D01*
X111073638Y-134177378D01*
X111050147Y-132063250D01*
X111052654Y-132037023D01*
X111197754Y-131327645D01*
X111211850Y-131290499D01*
X111246614Y-131230288D01*
X111270500Y-131141144D01*
X111270500Y-130984552D01*
X111273015Y-130959704D01*
X111275000Y-130949999D01*
X111275000Y-129324000D01*
X111294685Y-129256961D01*
X111347489Y-129211206D01*
X111399000Y-129200000D01*
X111445500Y-129200000D01*
X111512539Y-129219685D01*
G37*
G04 #@! TD.AperFunction*
G04 #@! TA.AperFunction,Conductor*
G36*
X138955982Y-95669685D02*
G01*
X138987228Y-95698396D01*
X140949998Y-98249999D01*
X140950000Y-98250000D01*
X149099009Y-98349378D01*
X149165804Y-98369879D01*
X149185801Y-98386315D01*
X154375031Y-103650032D01*
X159713681Y-108988681D01*
X159747166Y-109050004D01*
X159750000Y-109076362D01*
X159750000Y-112748638D01*
X159730315Y-112815677D01*
X159713681Y-112836319D01*
X157986319Y-114563681D01*
X157924996Y-114597166D01*
X157898638Y-114600000D01*
X149776362Y-114600000D01*
X149709323Y-114580315D01*
X149688681Y-114563681D01*
X148226819Y-113101819D01*
X148193334Y-113040496D01*
X148190500Y-113014138D01*
X148190500Y-111830249D01*
X148190499Y-111830247D01*
X148178868Y-111771770D01*
X148178867Y-111771769D01*
X148134552Y-111705447D01*
X148068230Y-111661132D01*
X148068229Y-111661131D01*
X148009752Y-111649500D01*
X148009748Y-111649500D01*
X146825862Y-111649500D01*
X146758823Y-111629815D01*
X146738181Y-111613181D01*
X146400000Y-111275000D01*
X131200000Y-111275000D01*
X131200000Y-111602717D01*
X131180315Y-111669756D01*
X131153911Y-111696637D01*
X131154085Y-111696811D01*
X131145446Y-111705450D01*
X131101132Y-111771768D01*
X131101131Y-111771770D01*
X131089500Y-111830247D01*
X131089500Y-112384138D01*
X131069815Y-112451177D01*
X131053181Y-112471819D01*
X124486319Y-119038681D01*
X124424996Y-119072166D01*
X124398638Y-119075000D01*
X95051362Y-119075000D01*
X94984323Y-119055315D01*
X94963681Y-119038681D01*
X91136319Y-115211319D01*
X91102834Y-115149996D01*
X91100000Y-115123638D01*
X91100000Y-109676362D01*
X91119685Y-109609323D01*
X91136319Y-109588681D01*
X94038681Y-106686319D01*
X94100004Y-106652834D01*
X94126362Y-106650000D01*
X126250000Y-106650000D01*
X133050000Y-99850000D01*
X133050000Y-96301362D01*
X133069685Y-96234323D01*
X133086319Y-96213681D01*
X133613681Y-95686319D01*
X133675004Y-95652834D01*
X133701362Y-95650000D01*
X138888943Y-95650000D01*
X138955982Y-95669685D01*
G37*
G04 #@! TD.AperFunction*
G04 #@! TA.AperFunction,Conductor*
G36*
X127375677Y-91119685D02*
G01*
X127396319Y-91136319D01*
X127853681Y-91593681D01*
X127887166Y-91655004D01*
X127890000Y-91681362D01*
X127890000Y-93060000D01*
X128390000Y-93560000D01*
X132199555Y-93560000D01*
X132266594Y-93579685D01*
X132286118Y-93595215D01*
X132612565Y-93913500D01*
X132646823Y-93974393D01*
X132650000Y-94002283D01*
X132650000Y-98198638D01*
X132630315Y-98265677D01*
X132613681Y-98286319D01*
X132386319Y-98513681D01*
X132324996Y-98547166D01*
X132298638Y-98550000D01*
X130050000Y-98550000D01*
X128850000Y-98550000D01*
X128500479Y-98550000D01*
X128433440Y-98530315D01*
X128413873Y-98514744D01*
X128158656Y-98265677D01*
X127620000Y-97740000D01*
X125811362Y-97740000D01*
X125744323Y-97720315D01*
X125723681Y-97703681D01*
X125586319Y-97566319D01*
X125552834Y-97504996D01*
X125550000Y-97478638D01*
X125550000Y-91251362D01*
X125569685Y-91184323D01*
X125586319Y-91163681D01*
X125613681Y-91136319D01*
X125675004Y-91102834D01*
X125701362Y-91100000D01*
X127308638Y-91100000D01*
X127375677Y-91119685D01*
G37*
G04 #@! TD.AperFunction*
M02*
