M48
; DRILL file {KiCad 8.0.2} date 2024-08-20T08:25:19+0200
; FORMAT={-:-/ absolute / metric / decimal}
; #@! TF.CreationDate,2024-08-20T08:25:19+02:00
; #@! TF.GenerationSoftware,Kicad,Pcbnew,8.0.2
; #@! TF.FileFunction,Plated,1,4,PTH
FMAT,2
METRIC
; #@! TA.AperFunction,Plated,PTH,ViaDrill
T1C0.300
; #@! TA.AperFunction,Plated,PTH,ViaDrill
T2C0.400
; #@! TA.AperFunction,Plated,PTH,ComponentDrill
T3C5.000
%
G90
G05
T1
X85.0Y-54.5
X85.0Y-59.5
X85.0Y-64.5
X85.0Y-69.5
X85.0Y-74.5
X85.0Y-79.0
X85.0Y-84.5
X85.0Y-89.5
X85.0Y-94.5
X85.0Y-99.5
X85.0Y-130.0
X90.0Y-54.5
X90.0Y-59.655
X90.0Y-64.735
X90.0Y-69.815
X90.0Y-74.895
X90.0Y-79.0
X90.0Y-84.5
X90.0Y-89.5
X90.0Y-94.5
X90.0Y-130.0
X95.0Y-44.5
X95.0Y-49.5
X95.0Y-53.584
X95.0Y-58.827
X95.0Y-79.0
X95.0Y-84.42
X95.0Y-130.0
X95.0Y-134.5
X100.0Y-44.5
X100.0Y-49.5
X100.0Y-53.584
X100.0Y-58.827
X100.0Y-79.0
X100.0Y-130.0
X100.0Y-134.5
X105.0Y-44.5
X105.0Y-49.5
X105.0Y-79.0
X105.0Y-134.5
X105.467Y-53.584
X105.467Y-58.827
X105.525Y-64.7
X110.0Y-44.5
X110.0Y-49.5
X110.0Y-53.584
X110.0Y-58.827
X110.0Y-70.288
X110.0Y-74.2
X110.0Y-134.5
X114.925Y-65.314
X115.0Y-44.5
X115.0Y-49.52
X115.0Y-53.737
X115.0Y-70.288
X115.0Y-74.2
X115.0Y-134.5
X115.225Y-58.827
X117.25Y-132.425
X119.925Y-65.314
X120.0Y-44.5
X120.0Y-49.368
X120.0Y-53.737
X120.0Y-58.817
X120.0Y-70.313
X120.0Y-74.225
X120.0Y-130.0
X120.0Y-134.5
X124.925Y-65.314
X125.0Y-44.5
X125.0Y-49.495
X125.0Y-53.94
X125.0Y-59.02
X125.0Y-70.313
X125.0Y-74.225
X125.0Y-130.0
X125.0Y-134.5
X129.925Y-65.314
X130.0Y-44.5
X130.0Y-49.5
X130.0Y-53.94
X130.0Y-59.02
X130.0Y-70.313
X130.0Y-74.225
X130.0Y-130.0
X130.0Y-134.5
X135.0Y-44.5
X135.0Y-49.5
X135.0Y-70.247
X135.0Y-74.158
X135.0Y-130.0
X135.0Y-134.5
X140.0Y-44.5
X140.0Y-49.5
X140.0Y-70.247
X140.0Y-74.158
X140.0Y-79.34
X140.0Y-134.5
X145.0Y-44.5
X145.0Y-49.5
X145.0Y-70.247
X145.0Y-74.158
X145.0Y-79.5
X150.0Y-44.5
X150.0Y-49.5
X150.0Y-54.5
X150.0Y-59.02
X150.0Y-62.779
X150.0Y-66.265
X150.0Y-70.45
X150.0Y-74.26
X155.0Y-44.5
X155.0Y-49.5
X155.0Y-54.5
X155.0Y-59.02
X155.0Y-62.779
X155.0Y-66.265
X155.0Y-70.45
X155.0Y-74.26
X155.0Y-79.5
X155.5Y-134.75
X160.0Y-44.5
X160.0Y-49.5
X160.0Y-54.5
X160.0Y-59.5
X160.0Y-62.544
X160.0Y-66.03
X160.0Y-70.45
X160.0Y-74.5
X160.0Y-79.5
X160.0Y-134.5
X160.125Y-130.1
X164.95Y-130.1
X165.0Y-49.495
X165.0Y-54.575
X165.0Y-59.5
X165.0Y-62.544
X165.0Y-66.03
X165.0Y-70.45
X165.0Y-74.5
X165.0Y-79.5
X165.0Y-89.5
X165.0Y-94.5
X165.0Y-99.5
X165.0Y-134.5
T2
X96.925Y-81.425
X96.925Y-84.425
X96.925Y-87.425
X99.925Y-81.425
X99.925Y-84.425
X99.925Y-87.425
X101.925Y-68.6
X102.925Y-81.425
X102.925Y-84.425
X102.925Y-87.425
X106.9Y-67.475
X107.55Y-68.6
X108.925Y-63.65
X116.8Y-81.0
X116.8Y-84.0
X116.8Y-87.0
X119.8Y-81.0
X119.8Y-84.0
X119.8Y-87.0
X122.8Y-81.0
X122.8Y-84.0
X122.8Y-87.0
X146.9Y-81.425
X146.9Y-84.425
X146.9Y-87.425
X149.9Y-81.425
X149.9Y-84.425
X149.9Y-87.425
X152.9Y-81.425
X152.9Y-84.425
X152.9Y-87.425
T3
X101.15Y-110.78
X125.15Y-110.78
X152.05Y-110.78
M30
