M48
; DRILL file {KiCad 8.0.2} date 2024-08-20T08:25:19+0200
; FORMAT={-:-/ absolute / metric / decimal}
; #@! TF.CreationDate,2024-08-20T08:25:19+02:00
; #@! TF.GenerationSoftware,Kicad,Pcbnew,8.0.2
; #@! TF.FileFunction,Plated,3,4,Blind
FMAT,2
METRIC
; #@! TA.AperFunction,Plated,Buried,ViaDrill
T1C0.300
; #@! TA.AperFunction,Plated,Buried,ViaDrill
T2C0.400
; #@! TA.AperFunction,Plated,Buried,ViaDrill
T3C0.500
%
G90
G05
T1
X96.51Y-124.74
X97.476Y-124.837
X106.625Y-96.95
X106.725Y-95.41
X109.75Y-101.95
X111.45Y-127.45
X112.3Y-127.125
X112.347Y-128.375
X114.55Y-95.05
X117.65Y-95.05
X117.725Y-100.1
T2
X128.95Y-87.85
X128.95Y-88.85
X128.95Y-89.85
X133.25Y-86.55
T3
X110.35Y-105.55
X111.4Y-104.55
X111.72Y-132.4
X111.72Y-133.65
X112.75Y-104.55
X113.95Y-104.55
X115.15Y-104.55
M30
