M48
; DRILL file {KiCad 8.0.2} date 2024-08-20T08:25:19+0200
; FORMAT={-:-/ absolute / metric / decimal}
; #@! TF.CreationDate,2024-08-20T08:25:19+02:00
; #@! TF.GenerationSoftware,Kicad,Pcbnew,8.0.2
; #@! TF.FileFunction,Plated,2,4,Blind
FMAT,2
METRIC
; #@! TA.AperFunction,Plated,Buried,ViaDrill
T1C0.300
%
G90
G05
T1
X106.575Y-98.75
X106.575Y-100.39
X108.075Y-98.76
X108.075Y-100.4
X114.586Y-98.898
X114.615Y-100.32
X115.365Y-95.79
X116.125Y-98.71
X116.165Y-97.05
X116.525Y-93.5
X116.995Y-95.79
X119.975Y-92.1
X123.075Y-102.05
X123.075Y-103.55
X124.575Y-102.05
X124.575Y-103.55
X126.075Y-102.05
X126.075Y-103.55
X127.575Y-102.05
X127.575Y-103.55
M30
