G04 #@! TF.GenerationSoftware,KiCad,Pcbnew,8.0.2*
G04 #@! TF.CreationDate,2024-08-20T08:20:47+02:00*
G04 #@! TF.ProjectId,STS1_SIDEPANEL,53545331-5f53-4494-9445-50414e454c2e,rev?*
G04 #@! TF.SameCoordinates,Original*
G04 #@! TF.FileFunction,Profile,NP*
%FSLAX46Y46*%
G04 Gerber Fmt 4.6, Leading zero omitted, Abs format (unit mm)*
G04 Created by KiCad (PCBNEW 8.0.2) date 2024-08-20 08:20:47*
%MOMM*%
%LPD*%
G01*
G04 APERTURE LIST*
G04 #@! TA.AperFunction,Profile*
%ADD10C,0.050000*%
G04 #@! TD*
G04 #@! TA.AperFunction,Profile*
%ADD11C,0.120000*%
G04 #@! TD*
G04 APERTURE END LIST*
D10*
X83600000Y-129200000D02*
X83600000Y-49800000D01*
X84600000Y-48800000D02*
X88900000Y-48800000D01*
X88900000Y-130200000D02*
X84600000Y-130200000D01*
X89900000Y-47800000D02*
X89900000Y-40500000D01*
X89900000Y-138500000D02*
X89900000Y-131200000D01*
X90900000Y-39500000D02*
X164130000Y-39500000D01*
X110125852Y-61739840D02*
X110119893Y-51584893D01*
X111021617Y-50587078D02*
X116119893Y-50584893D01*
X116119893Y-62699893D02*
X111119893Y-62699893D01*
X117116217Y-51536590D02*
X117119893Y-57487000D01*
X117119893Y-57487000D02*
X117119893Y-61699893D01*
X125940000Y-65230000D02*
X125940000Y-55115000D01*
X126940000Y-54115000D02*
X131940000Y-54115000D01*
X131940000Y-66230000D02*
X126842927Y-66224043D01*
X132933150Y-55032674D02*
X132937653Y-65328260D01*
X144300000Y-54400000D02*
X144300000Y-62600000D01*
X144800000Y-63100000D02*
X152830000Y-63100000D01*
X153000000Y-53900000D02*
X144800000Y-53900000D01*
X153400000Y-62600000D02*
X153400000Y-54400000D01*
X164130000Y-139500000D02*
X90900000Y-139500000D01*
X165130000Y-40500000D02*
X165130000Y-42175000D01*
X165130000Y-136825000D02*
X165130000Y-138500000D01*
X165630000Y-42675000D02*
X165900000Y-42675000D01*
X165900000Y-136325000D02*
X165630000Y-136325000D01*
X166400000Y-43175000D02*
X166400000Y-135825000D01*
X83600000Y-49800000D02*
G75*
G02*
X84600000Y-48800000I1083176J-83176D01*
G01*
X84600000Y-130200000D02*
G75*
G02*
X83600000Y-129200000I83180J1083180D01*
G01*
X88900000Y-130200000D02*
G75*
G02*
X89900000Y-131200000I-83176J-1083176D01*
G01*
X89900000Y-40500000D02*
G75*
G02*
X90900000Y-39500000I1083176J-83176D01*
G01*
X89900000Y-47800000D02*
G75*
G02*
X88900000Y-48800000I-1083176J83176D01*
G01*
X90900000Y-139500000D02*
G75*
G02*
X89900000Y-138500000I83176J1083176D01*
G01*
X110119893Y-51584893D02*
G75*
G02*
X111021617Y-50587078I969134J30546D01*
G01*
X111119893Y-62699893D02*
G75*
G02*
X110125852Y-61739840I71477J1068650D01*
G01*
X116119893Y-50584893D02*
G75*
G02*
X117116217Y-51536590I-94436J-1096235D01*
G01*
X117119893Y-61699893D02*
G75*
G02*
X116119893Y-62699893I-1012881J12881D01*
G01*
X125940000Y-55115000D02*
G75*
G02*
X126940000Y-54115000I950554J49446D01*
G01*
X126842927Y-66224043D02*
G75*
G02*
X125940005Y-65230000I124233J1019943D01*
G01*
X131940000Y-54115000D02*
G75*
G02*
X132933152Y-55032674I-74340J-1076710D01*
G01*
X132937653Y-65328260D02*
G75*
G02*
X131940000Y-66229994I-1074553J186100D01*
G01*
X144300000Y-54400000D02*
G75*
G02*
X144800000Y-53900000I500000J0D01*
G01*
X144800000Y-63100000D02*
G75*
G02*
X144300000Y-62600000I93200J593200D01*
G01*
X153000000Y-53900000D02*
G75*
G02*
X153400000Y-54400000I-106500J-495200D01*
G01*
X153400000Y-62600000D02*
G75*
G02*
X152829996Y-63099970I-659700J177200D01*
G01*
X164130000Y-39500000D02*
G75*
G02*
X165130000Y-40500000I-83200J-1083200D01*
G01*
X165130000Y-136825000D02*
G75*
G02*
X165630000Y-136325000I471500J28500D01*
G01*
X165130000Y-138500000D02*
G75*
G02*
X164130000Y-139500000I-1083200J83200D01*
G01*
X165630000Y-42675000D02*
G75*
G02*
X165130000Y-42175000I-28500J471500D01*
G01*
X165900000Y-42675000D02*
G75*
G02*
X166400000Y-43175000I-38600J-538600D01*
G01*
X166400000Y-135825000D02*
G75*
G02*
X165900000Y-136325000I-471500J-28500D01*
G01*
D11*
X94050000Y-45650000D02*
G75*
G02*
X92050000Y-45650000I-1000000J0D01*
G01*
X92050000Y-45650000D02*
G75*
G02*
X94050000Y-45650000I1000000J0D01*
G01*
X102050000Y-133350000D02*
G75*
G02*
X100050000Y-133350000I-1000000J0D01*
G01*
X100050000Y-133350000D02*
G75*
G02*
X102050000Y-133350000I1000000J0D01*
G01*
X143300000Y-53900000D02*
G75*
G02*
X141300000Y-53900000I-1000000J0D01*
G01*
X141300000Y-53900000D02*
G75*
G02*
X143300000Y-53900000I1000000J0D01*
G01*
X143300000Y-63100000D02*
G75*
G02*
X141300000Y-63100000I-1000000J0D01*
G01*
X141300000Y-63100000D02*
G75*
G02*
X143300000Y-63100000I1000000J0D01*
G01*
X152250000Y-45650000D02*
G75*
G02*
X150250000Y-45650000I-1000000J0D01*
G01*
X150250000Y-45650000D02*
G75*
G02*
X152250000Y-45650000I1000000J0D01*
G01*
X156400000Y-53900000D02*
G75*
G02*
X154400000Y-53900000I-1000000J0D01*
G01*
X154400000Y-53900000D02*
G75*
G02*
X156400000Y-53900000I1000000J0D01*
G01*
X156400000Y-63100000D02*
G75*
G02*
X154400000Y-63100000I-1000000J0D01*
G01*
X154400000Y-63100000D02*
G75*
G02*
X156400000Y-63100000I1000000J0D01*
G01*
X164250000Y-133350000D02*
G75*
G02*
X162250000Y-133350000I-1000000J0D01*
G01*
X162250000Y-133350000D02*
G75*
G02*
X164250000Y-133350000I1000000J0D01*
G01*
M02*
