G04 #@! TF.GenerationSoftware,KiCad,Pcbnew,8.0.2*
G04 #@! TF.CreationDate,2024-08-20T08:20:47+02:00*
G04 #@! TF.ProjectId,STS1_SIDEPANEL,53545331-5f53-4494-9445-50414e454c2e,rev?*
G04 #@! TF.SameCoordinates,Original*
G04 #@! TF.FileFunction,Copper,L3,Inr*
G04 #@! TF.FilePolarity,Positive*
%FSLAX46Y46*%
G04 Gerber Fmt 4.6, Leading zero omitted, Abs format (unit mm)*
G04 Created by KiCad (PCBNEW 8.0.2) date 2024-08-20 08:20:47*
%MOMM*%
%LPD*%
G01*
G04 APERTURE LIST*
G04 #@! TA.AperFunction,FiducialPad,Local*
%ADD10C,6.000000*%
G04 #@! TD*
G04 #@! TA.AperFunction,FiducialPad,Global*
%ADD11C,6.000000*%
G04 #@! TD*
G04 #@! TA.AperFunction,ComponentPad*
%ADD12O,1.350000X1.350000*%
G04 #@! TD*
G04 #@! TA.AperFunction,ViaPad*
%ADD13C,0.800000*%
G04 #@! TD*
G04 #@! TA.AperFunction,ViaPad*
%ADD14C,0.600000*%
G04 #@! TD*
G04 #@! TA.AperFunction,ViaPad*
%ADD15C,0.900000*%
G04 #@! TD*
G04 #@! TA.AperFunction,Conductor*
%ADD16C,1.000000*%
G04 #@! TD*
G04 #@! TA.AperFunction,Conductor*
%ADD17C,0.400000*%
G04 #@! TD*
G04 #@! TA.AperFunction,Conductor*
%ADD18C,0.500000*%
G04 #@! TD*
G04 #@! TA.AperFunction,Conductor*
%ADD19C,1.500000*%
G04 #@! TD*
G04 #@! TA.AperFunction,Conductor*
%ADD20C,0.300000*%
G04 #@! TD*
G04 APERTURE END LIST*
D10*
X148949200Y-100709800D03*
D11*
X124949200Y-100709800D03*
X98949200Y-100709800D03*
D12*
X120500000Y-71175000D03*
X120500000Y-69175000D03*
X120500000Y-67175000D03*
X120500000Y-65175000D03*
X120500000Y-63175000D03*
X120500000Y-61175000D03*
X120500000Y-59175000D03*
X120500000Y-57175000D03*
X120500000Y-55175000D03*
X120500000Y-53175000D03*
X120500000Y-51175000D03*
X120500000Y-49175000D03*
X138309600Y-71186600D03*
X138309600Y-69186600D03*
X138309600Y-67186600D03*
X138309600Y-65186600D03*
X138309600Y-63186600D03*
X138309600Y-61186600D03*
X138309600Y-59186600D03*
X138309600Y-57186600D03*
X138309600Y-55186600D03*
X138309600Y-53186600D03*
X138309600Y-51186600D03*
X138309600Y-49186600D03*
D13*
X163000000Y-61100000D03*
X124000000Y-46100000D03*
X148000000Y-67100000D03*
X165000000Y-67100000D03*
X128000000Y-129000000D03*
X104000000Y-132000000D03*
X100000000Y-40500000D03*
X158042600Y-126251000D03*
X92000000Y-138000000D03*
X94000000Y-43100000D03*
X157000000Y-67100000D03*
X103000000Y-40500000D03*
X103000000Y-49100000D03*
X145000000Y-64100000D03*
X128000000Y-132000000D03*
X152000000Y-135000000D03*
X98000000Y-132000000D03*
X145000000Y-67100000D03*
X127000000Y-52100000D03*
X142000000Y-49100000D03*
X118000000Y-46100000D03*
X136000000Y-46100000D03*
X116000000Y-132000000D03*
X94000000Y-58100000D03*
X94000000Y-61100000D03*
X151000000Y-40500000D03*
X165000000Y-61100000D03*
X136000000Y-70100000D03*
X94000000Y-55100000D03*
X88000000Y-67100000D03*
X125000000Y-135000000D03*
X88000000Y-64100000D03*
X163000000Y-70100000D03*
X128000000Y-135000000D03*
X97968800Y-129000000D03*
X133000000Y-40500000D03*
X113000000Y-138000000D03*
X100968800Y-126000000D03*
X113000000Y-135000000D03*
X161000000Y-132000000D03*
X157000000Y-70100000D03*
X130000000Y-46100000D03*
X107000000Y-132000000D03*
X154000000Y-73100000D03*
X131000000Y-135000000D03*
X165000000Y-49100000D03*
X125000000Y-132000000D03*
X154000000Y-67100000D03*
X124000000Y-40500000D03*
X122000000Y-132000000D03*
X149000000Y-135000000D03*
X119000000Y-132000000D03*
X97000000Y-43100000D03*
X131000000Y-129000000D03*
X85000000Y-70100000D03*
X157000000Y-64100000D03*
X85000000Y-79100000D03*
X152000000Y-138000000D03*
X130000000Y-40500000D03*
X119000000Y-135000000D03*
X165000000Y-64100000D03*
X163000000Y-73100000D03*
X151000000Y-64100000D03*
X85000000Y-67100000D03*
X145000000Y-49100000D03*
X148000000Y-46100000D03*
X140000000Y-138000000D03*
X97000000Y-64100000D03*
X136000000Y-52100000D03*
X136000000Y-61100000D03*
X142000000Y-46100000D03*
X130000000Y-67100000D03*
X148000000Y-49100000D03*
X113000000Y-132000000D03*
X116000000Y-138000000D03*
X98000000Y-138000000D03*
X142000000Y-73100000D03*
X148000000Y-73100000D03*
X94000000Y-64100000D03*
X165000000Y-52100000D03*
X131000000Y-126000000D03*
X133000000Y-46100000D03*
X158042600Y-129251000D03*
X109000000Y-46100000D03*
X154000000Y-40500000D03*
X165000000Y-73100000D03*
X95000000Y-135000000D03*
X163000000Y-64100000D03*
X97000000Y-46100000D03*
X100000000Y-58100000D03*
X110000000Y-132000000D03*
X136000000Y-67100000D03*
X142000000Y-67100000D03*
X161042600Y-129251000D03*
X118250000Y-77600000D03*
X127000000Y-49100000D03*
X88000000Y-52100000D03*
X161042600Y-123251000D03*
X165000000Y-76100000D03*
X91000000Y-73100000D03*
X95000000Y-138000000D03*
X136000000Y-55100000D03*
X160000000Y-49100000D03*
X136000000Y-58100000D03*
X151000000Y-52100000D03*
X154000000Y-64100000D03*
X94000000Y-49100000D03*
X140000000Y-135000000D03*
X145000000Y-40500000D03*
X131000000Y-138000000D03*
X109000000Y-58100000D03*
X165000000Y-70100000D03*
X157000000Y-73100000D03*
X85000000Y-76100000D03*
X137000000Y-135014000D03*
X160000000Y-46100000D03*
X127000000Y-67100000D03*
X163000000Y-58100000D03*
X155000000Y-135000000D03*
X101000000Y-138000000D03*
X163000000Y-40500000D03*
X112000000Y-46100000D03*
X139000000Y-46100000D03*
X104000000Y-138000000D03*
X134000000Y-135000000D03*
X161042600Y-126251000D03*
X148050000Y-76100000D03*
X128000000Y-138000000D03*
X112250000Y-77600000D03*
X157000000Y-49075000D03*
X109000000Y-52100000D03*
X97000000Y-40500000D03*
X163000000Y-49100000D03*
X134000000Y-132000000D03*
X158000000Y-135000000D03*
X92000000Y-135000000D03*
X158000000Y-138000000D03*
X131000000Y-132000000D03*
X157000000Y-46100000D03*
X106000000Y-40500000D03*
X142000000Y-70100000D03*
X91000000Y-70100000D03*
X133000000Y-52100000D03*
X143000000Y-138000000D03*
X163000000Y-46100000D03*
X104000000Y-135000000D03*
X157000000Y-40500000D03*
X151000000Y-67100000D03*
X158042600Y-123251000D03*
X94000000Y-52100000D03*
X92000000Y-132000000D03*
X101000000Y-135000000D03*
X163000000Y-52100000D03*
X148000000Y-64100000D03*
X161000000Y-138000000D03*
X121000000Y-46100000D03*
X85000000Y-58100000D03*
X134000000Y-129000000D03*
X85000000Y-55100000D03*
X127000000Y-40500000D03*
X107000000Y-138000000D03*
X137000000Y-138014000D03*
X88000000Y-76100000D03*
X109000000Y-55100000D03*
X91000000Y-76100000D03*
X127000000Y-46100000D03*
X98000000Y-135000000D03*
X134000000Y-138000000D03*
X88000000Y-79100000D03*
X139000000Y-40500000D03*
X119000000Y-138000000D03*
X118000000Y-40500000D03*
X145000000Y-46100000D03*
X85000000Y-52100000D03*
X142000000Y-52100000D03*
X91000000Y-64100000D03*
X129950000Y-70100000D03*
X158000000Y-132000000D03*
X107000000Y-135000000D03*
X103968800Y-129000000D03*
X88000000Y-61100000D03*
X128000000Y-126000000D03*
X91000000Y-58100000D03*
X136000000Y-64100000D03*
X151000000Y-73100000D03*
X136000000Y-40500000D03*
X143000000Y-135000000D03*
X106000000Y-46100000D03*
X88000000Y-70100000D03*
X97968800Y-126000000D03*
X161000000Y-135000000D03*
X100968800Y-129000000D03*
X165000000Y-55100000D03*
X110000000Y-138000000D03*
X91000000Y-67100000D03*
X163000000Y-55100000D03*
X85000000Y-64100000D03*
X145000000Y-52100000D03*
X91000000Y-49100000D03*
X94000000Y-40500000D03*
X132950000Y-70100000D03*
X100000000Y-43100000D03*
X148000000Y-70100000D03*
X85000000Y-61100000D03*
X88000000Y-73100000D03*
X145000000Y-70100000D03*
X91000000Y-61100000D03*
X100000000Y-61100000D03*
X130000000Y-49100000D03*
X97000000Y-61100000D03*
X163000000Y-67100000D03*
X151000000Y-70100000D03*
X125000000Y-126000000D03*
X149000000Y-138000000D03*
X150950000Y-49100000D03*
X148000000Y-40500000D03*
X133000000Y-49100000D03*
X85000000Y-73100000D03*
X160000000Y-40500000D03*
X154000000Y-70100000D03*
X112000000Y-40500000D03*
X91000000Y-55100000D03*
X88000000Y-55100000D03*
X122000000Y-135000000D03*
X122000000Y-138000000D03*
X109000000Y-40500000D03*
X97000000Y-67100000D03*
X115000000Y-40500000D03*
X95000000Y-132000000D03*
X148000000Y-52100000D03*
X97000000Y-58100000D03*
X103968800Y-126000000D03*
X91000000Y-52100000D03*
X134000000Y-126000000D03*
X142000000Y-40500000D03*
X121000000Y-40500000D03*
X146000000Y-135000000D03*
X116000000Y-135000000D03*
X136000000Y-49100000D03*
X121250000Y-77600000D03*
X115250000Y-77600000D03*
X165000000Y-46100000D03*
X155000000Y-138000000D03*
X97000000Y-70100000D03*
X130000000Y-52100000D03*
X110000000Y-135000000D03*
X88000000Y-58100000D03*
X145000000Y-73100000D03*
X133000000Y-67100000D03*
X115000000Y-46100000D03*
X165000000Y-58100000D03*
X125000000Y-138000000D03*
X146000000Y-138000000D03*
D14*
X103170000Y-78520000D03*
X100500000Y-90340000D03*
X118500000Y-92000000D03*
X102000000Y-90350000D03*
X120000000Y-95000000D03*
X121500000Y-93500000D03*
X103170000Y-81520000D03*
X104810000Y-81530000D03*
X110050000Y-88660000D03*
X110090000Y-87000000D03*
X117000000Y-92000000D03*
X100170000Y-80020000D03*
X117000000Y-93500000D03*
X121500000Y-95000000D03*
X120000000Y-93500000D03*
X101670000Y-81520000D03*
X108680000Y-88660000D03*
X104810000Y-78530000D03*
X107810000Y-81530000D03*
X101670000Y-78520000D03*
X121500000Y-92000000D03*
X100500000Y-88700000D03*
X102000000Y-88710000D03*
X110920000Y-85740000D03*
X106310000Y-81530000D03*
X104810000Y-80030000D03*
X110450000Y-83450000D03*
X108540000Y-90270000D03*
X118500000Y-93500000D03*
X106310000Y-80030000D03*
X117000000Y-95000000D03*
X107810000Y-78530000D03*
X100170000Y-81520000D03*
X118500000Y-95000000D03*
X120000000Y-92000000D03*
X103170000Y-80020000D03*
X109290000Y-85740000D03*
X107810000Y-80030000D03*
X106310000Y-78530000D03*
X101670000Y-80020000D03*
D13*
X163038890Y-80400000D03*
X96400000Y-124750000D03*
X95400000Y-124750000D03*
X154022831Y-88825000D03*
X97400000Y-124750000D03*
X153050000Y-88800000D03*
X157884379Y-77840000D03*
X97500000Y-122375000D03*
D14*
X153306147Y-82798316D03*
D13*
X157620000Y-75980000D03*
D14*
X153065461Y-81907630D03*
D13*
X96475000Y-121900000D03*
X104000000Y-116400000D03*
X95350000Y-116700000D03*
X130720000Y-78220000D03*
D15*
X110100000Y-120200000D03*
X109050000Y-116750000D03*
X126710000Y-79480000D03*
X109050000Y-117900000D03*
D14*
X109975000Y-89825000D03*
D15*
X108900000Y-95300000D03*
X110250000Y-95300000D03*
X109200000Y-119300000D03*
D14*
X100550000Y-86900000D03*
D15*
X107175000Y-93660000D03*
X108100000Y-94500000D03*
D14*
X111460000Y-84625000D03*
X107725000Y-84350000D03*
X100650000Y-85360000D03*
X111650000Y-90050000D03*
D15*
X140100000Y-94050000D03*
X133900000Y-117000000D03*
X132900000Y-117000000D03*
X135900000Y-117000000D03*
X140100000Y-93100000D03*
X134900000Y-117000000D03*
X140100000Y-95000000D03*
X140100000Y-96250000D03*
D14*
X87250000Y-107175000D03*
X88000000Y-106375000D03*
D13*
X161782831Y-77700000D03*
X100650000Y-123550000D03*
D14*
X155800000Y-82000000D03*
D13*
X101600000Y-123550000D03*
D14*
X156700000Y-82000000D03*
D13*
X99725000Y-123550000D03*
D15*
X138750000Y-93100000D03*
X134900000Y-115700000D03*
X132900000Y-115700000D03*
X138750000Y-96250000D03*
X133900000Y-115700000D03*
X138750000Y-94050000D03*
X138750000Y-95000000D03*
X135900000Y-115700000D03*
D14*
X89400000Y-105450000D03*
X90100000Y-104900000D03*
X88700000Y-105942392D03*
X90800000Y-104389908D03*
D16*
X119768376Y-124750000D02*
X95400000Y-124750000D01*
X153997831Y-88800000D02*
X141078376Y-88800000D01*
X137200000Y-92678376D02*
X137200000Y-107318376D01*
X154022831Y-88825000D02*
X153997831Y-88800000D01*
X141078376Y-88800000D02*
X137200000Y-92678376D01*
X137200000Y-107318376D02*
X119768376Y-124750000D01*
D17*
X135100000Y-91808528D02*
X144110212Y-82798316D01*
X97500000Y-122375000D02*
X97775000Y-122650000D01*
X97775000Y-122650000D02*
X118898528Y-122650000D01*
X135100000Y-106448528D02*
X135100000Y-91808528D01*
X118898528Y-122650000D02*
X135100000Y-106448528D01*
X144110212Y-82798316D02*
X153306147Y-82798316D01*
X144152370Y-81907630D02*
X153065461Y-81907630D01*
X96800000Y-121575000D02*
X119125000Y-121575000D01*
X119125000Y-121575000D02*
X134500000Y-106200000D01*
X96475000Y-121900000D02*
X96800000Y-121575000D01*
X134500000Y-91560000D02*
X144152370Y-81907630D01*
X134500000Y-106200000D02*
X134500000Y-91560000D01*
D18*
X104000000Y-116400000D02*
X104000000Y-105760600D01*
X104000000Y-105760600D02*
X98949200Y-100709800D01*
X101080000Y-76730000D02*
X129230000Y-76730000D01*
X94150000Y-83660000D02*
X101080000Y-76730000D01*
X129230000Y-76730000D02*
X130720000Y-78220000D01*
X95350000Y-116700000D02*
X94150000Y-115500000D01*
X94150000Y-115500000D02*
X94150000Y-83660000D01*
D19*
X109100000Y-119200000D02*
X110100000Y-120200000D01*
X109100000Y-95585000D02*
X109100000Y-119200000D01*
D18*
X110000000Y-89850000D02*
X109975000Y-89825000D01*
X100550000Y-86900000D02*
X100000000Y-86900000D01*
D16*
X112530000Y-93660000D02*
X107175000Y-93660000D01*
D18*
X99350000Y-90450000D02*
X100370000Y-91470000D01*
X100000000Y-86900000D02*
X99350000Y-87550000D01*
D19*
X107175000Y-93660000D02*
X109100000Y-95585000D01*
D18*
X110000000Y-90900000D02*
X110000000Y-89850000D01*
D16*
X126710000Y-79480000D02*
X112530000Y-93660000D01*
D18*
X99350000Y-87550000D02*
X99350000Y-90450000D01*
X109430000Y-91470000D02*
X110000000Y-90900000D01*
D19*
X110250000Y-95300000D02*
X109385000Y-95300000D01*
D18*
X100370000Y-91470000D02*
X109430000Y-91470000D01*
D19*
X109385000Y-95300000D02*
X109100000Y-95585000D01*
D20*
X111150000Y-84350000D02*
X107725000Y-84350000D01*
X111460000Y-84625000D02*
X111425000Y-84625000D01*
X111425000Y-84625000D02*
X111150000Y-84350000D01*
D18*
X100080050Y-92170000D02*
X110485000Y-92170000D01*
X100040000Y-85360000D02*
X98650000Y-86750000D01*
X98650000Y-90739950D02*
X100080050Y-92170000D01*
X98650000Y-86750000D02*
X98650000Y-90739950D01*
X110485000Y-92170000D02*
X111650000Y-91005000D01*
X100650000Y-85360000D02*
X100040000Y-85360000D01*
X111650000Y-91005000D02*
X111650000Y-90050000D01*
D16*
X140075000Y-113325000D02*
X140075000Y-93125000D01*
X140075000Y-113325000D02*
X136400000Y-117000000D01*
X140075000Y-93125000D02*
X140100000Y-93100000D01*
X136400000Y-117000000D02*
X132900000Y-117000000D01*
D18*
X101725000Y-53685050D02*
X107235050Y-48175000D01*
X107235050Y-48175000D02*
X119500000Y-48175000D01*
X101725000Y-67660050D02*
X101725000Y-53685050D01*
X87250000Y-82135050D02*
X101725000Y-67660050D01*
X119500000Y-48175000D02*
X120500000Y-49175000D01*
X87250000Y-107175000D02*
X87250000Y-82135050D01*
X87950000Y-106325000D02*
X87950000Y-82425000D01*
X87950000Y-82425000D02*
X102425000Y-67950000D01*
X107525000Y-48875000D02*
X118200000Y-48875000D01*
X88000000Y-106375000D02*
X87950000Y-106325000D01*
X102425000Y-53975000D02*
X107525000Y-48875000D01*
X118200000Y-48875000D02*
X120500000Y-51175000D01*
X102425000Y-67950000D02*
X102425000Y-53975000D01*
D16*
X155632831Y-82000000D02*
X151632831Y-86000000D01*
X151632831Y-86000000D02*
X142181320Y-86000000D01*
X136000000Y-92181320D02*
X136000000Y-106821320D01*
X156700000Y-82000000D02*
X155632831Y-82000000D01*
X142181320Y-86000000D02*
X136000000Y-92181320D01*
X136000000Y-106821320D02*
X119271320Y-123550000D01*
X119271320Y-123550000D02*
X99725000Y-123550000D01*
X138750000Y-112850000D02*
X135900000Y-115700000D01*
X138750000Y-93100000D02*
X138750000Y-112850000D01*
X135900000Y-115700000D02*
X132900000Y-115700000D01*
D18*
X89350000Y-105400000D02*
X89350000Y-83004900D01*
X118400000Y-57275000D02*
X120500000Y-55175000D01*
X118400000Y-63075000D02*
X118400000Y-57275000D01*
X106654900Y-65700000D02*
X115775000Y-65700000D01*
X115775000Y-65700000D02*
X118400000Y-63075000D01*
X89400000Y-105450000D02*
X89350000Y-105400000D01*
X89350000Y-83004900D02*
X106654900Y-65700000D01*
X116064950Y-66400000D02*
X119100000Y-63364950D01*
X90050000Y-104850000D02*
X90050000Y-83294850D01*
X120425000Y-57175000D02*
X120500000Y-57175000D01*
X90100000Y-104900000D02*
X90050000Y-104850000D01*
X106944850Y-66400000D02*
X116064950Y-66400000D01*
X119100000Y-63364950D02*
X119100000Y-58500000D01*
X90050000Y-83294850D02*
X106944850Y-66400000D01*
X119100000Y-58500000D02*
X120425000Y-57175000D01*
X107814950Y-49575000D02*
X116900000Y-49575000D01*
X88700000Y-105942392D02*
X88650000Y-105892392D01*
X103125000Y-54264950D02*
X107814950Y-49575000D01*
X103125000Y-68239950D02*
X103125000Y-54264950D01*
X116900000Y-49575000D02*
X120500000Y-53175000D01*
X88650000Y-105892392D02*
X88650000Y-82714950D01*
X88650000Y-82714950D02*
X103125000Y-68239950D01*
X107250000Y-67100000D02*
X116575000Y-67100000D01*
X99650000Y-74700000D02*
X107250000Y-67100000D01*
X90800000Y-104389908D02*
X90750000Y-104339908D01*
X99634800Y-74700000D02*
X99650000Y-74700000D01*
X116575000Y-67100000D02*
X120500000Y-63175000D01*
X90750000Y-83584800D02*
X99634800Y-74700000D01*
X90750000Y-104339908D02*
X90750000Y-83584800D01*
G04 #@! TA.AperFunction,Conductor*
G36*
X164139503Y-39512188D02*
G01*
X164306127Y-39539977D01*
X164327349Y-39545482D01*
X164485946Y-39602019D01*
X164505870Y-39611182D01*
X164652006Y-39694780D01*
X164670011Y-39707316D01*
X164799122Y-39815362D01*
X164814637Y-39830877D01*
X164922683Y-39959988D01*
X164935221Y-39977996D01*
X165018814Y-40124123D01*
X165027982Y-40144058D01*
X165084514Y-40302642D01*
X165090023Y-40323880D01*
X165103057Y-40402032D01*
X165117811Y-40490496D01*
X165119500Y-40510894D01*
X165119500Y-42170954D01*
X165119274Y-42178436D01*
X165115982Y-42232883D01*
X165115982Y-42232884D01*
X165137121Y-42348217D01*
X165185247Y-42455144D01*
X165185249Y-42455147D01*
X165257556Y-42547439D01*
X165257560Y-42547443D01*
X165349852Y-42619750D01*
X165349855Y-42619752D01*
X165349858Y-42619753D01*
X165349859Y-42619754D01*
X165456781Y-42667878D01*
X165572114Y-42689017D01*
X165572115Y-42689016D01*
X165572116Y-42689017D01*
X165609936Y-42686730D01*
X165626563Y-42685725D01*
X165634044Y-42685500D01*
X165887539Y-42685500D01*
X165911009Y-42687741D01*
X166008122Y-42706470D01*
X166036147Y-42715432D01*
X166123521Y-42755342D01*
X166148648Y-42770659D01*
X166224149Y-42830037D01*
X166244962Y-42850850D01*
X166304337Y-42926347D01*
X166319660Y-42951483D01*
X166359566Y-43038850D01*
X166368531Y-43066887D01*
X166387256Y-43163979D01*
X166389500Y-43187461D01*
X166389500Y-135805707D01*
X166388697Y-135812001D01*
X166389069Y-135818170D01*
X166389066Y-135833109D01*
X166383701Y-135921736D01*
X166378313Y-135951135D01*
X166354145Y-136028688D01*
X166341876Y-136055947D01*
X166299855Y-136125456D01*
X166281420Y-136148986D01*
X166223986Y-136206420D01*
X166200456Y-136224855D01*
X166130947Y-136266876D01*
X166103688Y-136279145D01*
X166026135Y-136303313D01*
X165996736Y-136308701D01*
X165908110Y-136314066D01*
X165893171Y-136314069D01*
X165887001Y-136313697D01*
X165880707Y-136314500D01*
X165634044Y-136314500D01*
X165626563Y-136314274D01*
X165624097Y-136314124D01*
X165572116Y-136310982D01*
X165572115Y-136310982D01*
X165456782Y-136332121D01*
X165349855Y-136380247D01*
X165349852Y-136380249D01*
X165257560Y-136452556D01*
X165257556Y-136452560D01*
X165185249Y-136544852D01*
X165185247Y-136544855D01*
X165137121Y-136651782D01*
X165115982Y-136767115D01*
X165115982Y-136767116D01*
X165119274Y-136821562D01*
X165119500Y-136829044D01*
X165119500Y-138489104D01*
X165117811Y-138509502D01*
X165090024Y-138676118D01*
X165084514Y-138697357D01*
X165027982Y-138855941D01*
X165018814Y-138875876D01*
X164935221Y-139022003D01*
X164922683Y-139040011D01*
X164814637Y-139169122D01*
X164799122Y-139184637D01*
X164670011Y-139292683D01*
X164652003Y-139305221D01*
X164505876Y-139388814D01*
X164485941Y-139397982D01*
X164327357Y-139454514D01*
X164306118Y-139460024D01*
X164139504Y-139487811D01*
X164119106Y-139489500D01*
X90910894Y-139489500D01*
X90890496Y-139487811D01*
X90723881Y-139460024D01*
X90702642Y-139454514D01*
X90544058Y-139397982D01*
X90524123Y-139388814D01*
X90377996Y-139305221D01*
X90359988Y-139292683D01*
X90230877Y-139184637D01*
X90215362Y-139169122D01*
X90177265Y-139123598D01*
X90107315Y-139040009D01*
X90094778Y-139022003D01*
X90061405Y-138963664D01*
X90011182Y-138875870D01*
X90002019Y-138855946D01*
X89945482Y-138697349D01*
X89939976Y-138676124D01*
X89912189Y-138509501D01*
X89910500Y-138489104D01*
X89910500Y-133350000D01*
X100034611Y-133350000D01*
X100054121Y-133548095D01*
X100111903Y-133738574D01*
X100205731Y-133914114D01*
X100205735Y-133914121D01*
X100332011Y-134067988D01*
X100485878Y-134194264D01*
X100485885Y-134194268D01*
X100661425Y-134288096D01*
X100661427Y-134288097D01*
X100851907Y-134345879D01*
X101050000Y-134365389D01*
X101248093Y-134345879D01*
X101438573Y-134288097D01*
X101614120Y-134194265D01*
X101767988Y-134067988D01*
X101894265Y-133914120D01*
X101988097Y-133738573D01*
X102045879Y-133548093D01*
X102065389Y-133350000D01*
X162234611Y-133350000D01*
X162254121Y-133548095D01*
X162311903Y-133738574D01*
X162405731Y-133914114D01*
X162405735Y-133914121D01*
X162532011Y-134067988D01*
X162685878Y-134194264D01*
X162685885Y-134194268D01*
X162861425Y-134288096D01*
X162861427Y-134288097D01*
X163051907Y-134345879D01*
X163250000Y-134365389D01*
X163448093Y-134345879D01*
X163638573Y-134288097D01*
X163814120Y-134194265D01*
X163967988Y-134067988D01*
X164094265Y-133914120D01*
X164188097Y-133738573D01*
X164245879Y-133548093D01*
X164265389Y-133350000D01*
X164245879Y-133151907D01*
X164188097Y-132961427D01*
X164094265Y-132785880D01*
X164094264Y-132785878D01*
X163967988Y-132632011D01*
X163814121Y-132505735D01*
X163814114Y-132505731D01*
X163638574Y-132411903D01*
X163448095Y-132354121D01*
X163250000Y-132334611D01*
X163051904Y-132354121D01*
X162861425Y-132411903D01*
X162685885Y-132505731D01*
X162685878Y-132505735D01*
X162532011Y-132632011D01*
X162405735Y-132785878D01*
X162405731Y-132785885D01*
X162311903Y-132961425D01*
X162254121Y-133151904D01*
X162234611Y-133350000D01*
X102065389Y-133350000D01*
X102045879Y-133151907D01*
X101988097Y-132961427D01*
X101894265Y-132785880D01*
X101894264Y-132785878D01*
X101767988Y-132632011D01*
X101614121Y-132505735D01*
X101614114Y-132505731D01*
X101438574Y-132411903D01*
X101248095Y-132354121D01*
X101050000Y-132334611D01*
X100851904Y-132354121D01*
X100661425Y-132411903D01*
X100485885Y-132505731D01*
X100485878Y-132505735D01*
X100332011Y-132632011D01*
X100205735Y-132785878D01*
X100205731Y-132785885D01*
X100111903Y-132961425D01*
X100054121Y-133151904D01*
X100034611Y-133350000D01*
X89910500Y-133350000D01*
X89910500Y-131218370D01*
X89911377Y-131211033D01*
X89910863Y-131204330D01*
X89910500Y-131194846D01*
X89910500Y-131182797D01*
X89908638Y-131174988D01*
X89903121Y-131102034D01*
X89903119Y-131102026D01*
X89854182Y-130913398D01*
X89854178Y-130913387D01*
X89772757Y-130736335D01*
X89661401Y-130576401D01*
X89523598Y-130438598D01*
X89363664Y-130327242D01*
X89186612Y-130245821D01*
X89186601Y-130245817D01*
X88997974Y-130196880D01*
X88997964Y-130196878D01*
X88925005Y-130191360D01*
X88917204Y-130189500D01*
X88905145Y-130189500D01*
X88895656Y-130189136D01*
X88889001Y-130188625D01*
X88881667Y-130189500D01*
X84610894Y-130189500D01*
X84590496Y-130187811D01*
X84423881Y-130160024D01*
X84402642Y-130154514D01*
X84244058Y-130097982D01*
X84224123Y-130088814D01*
X84077996Y-130005221D01*
X84059988Y-129992683D01*
X83930877Y-129884637D01*
X83915362Y-129869122D01*
X83877265Y-129823598D01*
X83807315Y-129740009D01*
X83794778Y-129722003D01*
X83761405Y-129663664D01*
X83711182Y-129575870D01*
X83702019Y-129555946D01*
X83645482Y-129397349D01*
X83639976Y-129376124D01*
X83612189Y-129209501D01*
X83610500Y-129189104D01*
X83610500Y-124818995D01*
X94699499Y-124818995D01*
X94726418Y-124954322D01*
X94726421Y-124954332D01*
X94779221Y-125081804D01*
X94779228Y-125081817D01*
X94855885Y-125196541D01*
X94855888Y-125196545D01*
X94953454Y-125294111D01*
X94953458Y-125294114D01*
X95068182Y-125370771D01*
X95068195Y-125370778D01*
X95195667Y-125423578D01*
X95195672Y-125423580D01*
X95195676Y-125423580D01*
X95195677Y-125423581D01*
X95331004Y-125450500D01*
X95331007Y-125450500D01*
X119837372Y-125450500D01*
X119928416Y-125432389D01*
X119972704Y-125423580D01*
X120036445Y-125397177D01*
X120100183Y-125370777D01*
X120100184Y-125370776D01*
X120100187Y-125370775D01*
X120214919Y-125294114D01*
X137744114Y-107764919D01*
X137820775Y-107650187D01*
X137820775Y-107650185D01*
X137822397Y-107647759D01*
X137876009Y-107602953D01*
X137945334Y-107594246D01*
X138008362Y-107624400D01*
X138045082Y-107683843D01*
X138049500Y-107716649D01*
X138049500Y-112508481D01*
X138029815Y-112575520D01*
X138013181Y-112596162D01*
X135646162Y-114963181D01*
X135584839Y-114996666D01*
X135558481Y-114999500D01*
X132831005Y-114999500D01*
X132695677Y-115026418D01*
X132695667Y-115026421D01*
X132568195Y-115079221D01*
X132568182Y-115079228D01*
X132453458Y-115155885D01*
X132453454Y-115155888D01*
X132355888Y-115253454D01*
X132355885Y-115253458D01*
X132279228Y-115368182D01*
X132279221Y-115368195D01*
X132226421Y-115495667D01*
X132226418Y-115495677D01*
X132199500Y-115631004D01*
X132199500Y-115631005D01*
X132199500Y-115631007D01*
X132199500Y-115768993D01*
X132199500Y-115768995D01*
X132199499Y-115768995D01*
X132226418Y-115904322D01*
X132226421Y-115904332D01*
X132279221Y-116031804D01*
X132279228Y-116031817D01*
X132355885Y-116146541D01*
X132355888Y-116146545D01*
X132453454Y-116244111D01*
X132453458Y-116244114D01*
X132457624Y-116246898D01*
X132502429Y-116300510D01*
X132511136Y-116369835D01*
X132480981Y-116432863D01*
X132457624Y-116453102D01*
X132453458Y-116455885D01*
X132453454Y-116455888D01*
X132355888Y-116553454D01*
X132355885Y-116553458D01*
X132279228Y-116668182D01*
X132279221Y-116668195D01*
X132226421Y-116795667D01*
X132226418Y-116795677D01*
X132199500Y-116931004D01*
X132199500Y-116931007D01*
X132199500Y-117068993D01*
X132199500Y-117068995D01*
X132199499Y-117068995D01*
X132226418Y-117204322D01*
X132226421Y-117204332D01*
X132279221Y-117331804D01*
X132279228Y-117331817D01*
X132355885Y-117446541D01*
X132355888Y-117446545D01*
X132453454Y-117544111D01*
X132453458Y-117544114D01*
X132568182Y-117620771D01*
X132568195Y-117620778D01*
X132695667Y-117673578D01*
X132695672Y-117673580D01*
X132695676Y-117673580D01*
X132695677Y-117673581D01*
X132831004Y-117700500D01*
X132831007Y-117700500D01*
X136468996Y-117700500D01*
X136560040Y-117682389D01*
X136604328Y-117673580D01*
X136668069Y-117647177D01*
X136731807Y-117620777D01*
X136731808Y-117620776D01*
X136731811Y-117620775D01*
X136846543Y-117544114D01*
X140619114Y-113771543D01*
X140695775Y-113656811D01*
X140748580Y-113529328D01*
X140775500Y-113393994D01*
X140775500Y-113256006D01*
X140775500Y-100709800D01*
X145743657Y-100709800D01*
X145763812Y-101068702D01*
X145763814Y-101068714D01*
X145824026Y-101423096D01*
X145824028Y-101423105D01*
X145923539Y-101768518D01*
X146061105Y-102100631D01*
X146234990Y-102415254D01*
X146443005Y-102708422D01*
X146443006Y-102708423D01*
X146682539Y-102976461D01*
X146950577Y-103215994D01*
X147243748Y-103424011D01*
X147558367Y-103597894D01*
X147890476Y-103735459D01*
X148235900Y-103834973D01*
X148590293Y-103895187D01*
X148949200Y-103915343D01*
X149308107Y-103895187D01*
X149662500Y-103834973D01*
X150007924Y-103735459D01*
X150340033Y-103597894D01*
X150654652Y-103424011D01*
X150947823Y-103215994D01*
X151215861Y-102976461D01*
X151455394Y-102708423D01*
X151663411Y-102415252D01*
X151837294Y-102100633D01*
X151974859Y-101768524D01*
X152074373Y-101423100D01*
X152134587Y-101068707D01*
X152154743Y-100709800D01*
X152134587Y-100350893D01*
X152074373Y-99996500D01*
X151974859Y-99651076D01*
X151837294Y-99318967D01*
X151663411Y-99004348D01*
X151455394Y-98711177D01*
X151215861Y-98443139D01*
X150947823Y-98203606D01*
X150947822Y-98203605D01*
X150654654Y-97995590D01*
X150340031Y-97821705D01*
X150253286Y-97785774D01*
X150007924Y-97684141D01*
X150007920Y-97684139D01*
X150007918Y-97684139D01*
X149662505Y-97584628D01*
X149662496Y-97584626D01*
X149308114Y-97524414D01*
X149308102Y-97524412D01*
X148949200Y-97504257D01*
X148590297Y-97524412D01*
X148590285Y-97524414D01*
X148235903Y-97584626D01*
X148235894Y-97584628D01*
X147890481Y-97684139D01*
X147558368Y-97821705D01*
X147243745Y-97995590D01*
X146950577Y-98203605D01*
X146682539Y-98443139D01*
X146443005Y-98711177D01*
X146234990Y-99004345D01*
X146061105Y-99318968D01*
X145923539Y-99651081D01*
X145824028Y-99996494D01*
X145824026Y-99996503D01*
X145763814Y-100350885D01*
X145763812Y-100350897D01*
X145743657Y-100709800D01*
X140775500Y-100709800D01*
X140775500Y-93306891D01*
X140777882Y-93282701D01*
X140800499Y-93168992D01*
X140800499Y-93031005D01*
X140800498Y-93031001D01*
X140773580Y-92895672D01*
X140720774Y-92768189D01*
X140720772Y-92768186D01*
X140720770Y-92768182D01*
X140644113Y-92653456D01*
X140546543Y-92555886D01*
X140431817Y-92479229D01*
X140431807Y-92479224D01*
X140304328Y-92426420D01*
X140304320Y-92426418D01*
X140168998Y-92399501D01*
X140168994Y-92399501D01*
X140031006Y-92399501D01*
X139963338Y-92412960D01*
X139895669Y-92426420D01*
X139768189Y-92479225D01*
X139768185Y-92479227D01*
X139653464Y-92555880D01*
X139653461Y-92555883D01*
X139530883Y-92678459D01*
X139530882Y-92678461D01*
X139523950Y-92688835D01*
X139470336Y-92733638D01*
X139401011Y-92742342D01*
X139337984Y-92712185D01*
X139317748Y-92688829D01*
X139310820Y-92678461D01*
X139294114Y-92653458D01*
X139294113Y-92653457D01*
X139294111Y-92653454D01*
X139196545Y-92555888D01*
X139196541Y-92555885D01*
X139081817Y-92479228D01*
X139081804Y-92479221D01*
X138954332Y-92426421D01*
X138954322Y-92426418D01*
X138818995Y-92399500D01*
X138818993Y-92399500D01*
X138768894Y-92399500D01*
X138701855Y-92379815D01*
X138656100Y-92327011D01*
X138646156Y-92257853D01*
X138675181Y-92194297D01*
X138681213Y-92187819D01*
X139852367Y-91016666D01*
X141332214Y-89536819D01*
X141393537Y-89503334D01*
X141419895Y-89500500D01*
X153815940Y-89500500D01*
X153840130Y-89502882D01*
X153875954Y-89510007D01*
X153953837Y-89525499D01*
X153953838Y-89525499D01*
X154091826Y-89525499D01*
X154091827Y-89525498D01*
X154227159Y-89498580D01*
X154354642Y-89445774D01*
X154469374Y-89369113D01*
X154566944Y-89271543D01*
X154643605Y-89156811D01*
X154696411Y-89029328D01*
X154723330Y-88893994D01*
X154723330Y-88756006D01*
X154696411Y-88620671D01*
X154643605Y-88493188D01*
X154643603Y-88493185D01*
X154566950Y-88378464D01*
X154566947Y-88378461D01*
X154566946Y-88378460D01*
X154566944Y-88378457D01*
X154444374Y-88255886D01*
X154329642Y-88179225D01*
X154329643Y-88179225D01*
X154329638Y-88179222D01*
X154202163Y-88126421D01*
X154202153Y-88126418D01*
X154066827Y-88099500D01*
X154066825Y-88099500D01*
X154066824Y-88099500D01*
X141371839Y-88099500D01*
X141304800Y-88079815D01*
X141259045Y-88027011D01*
X141249101Y-87957853D01*
X141278126Y-87894297D01*
X141284158Y-87887819D01*
X142435158Y-86736819D01*
X142496481Y-86703334D01*
X142522839Y-86700500D01*
X151701827Y-86700500D01*
X151792871Y-86682389D01*
X151837159Y-86673580D01*
X151950512Y-86626628D01*
X151964638Y-86620777D01*
X151964639Y-86620776D01*
X151964642Y-86620775D01*
X152079374Y-86544114D01*
X155886669Y-82736819D01*
X155947992Y-82703334D01*
X155974350Y-82700500D01*
X156768995Y-82700500D01*
X156860041Y-82682389D01*
X156904328Y-82673580D01*
X157031811Y-82620775D01*
X157146542Y-82544114D01*
X157244114Y-82446542D01*
X157320775Y-82331811D01*
X157373580Y-82204328D01*
X157400500Y-82068993D01*
X157400500Y-81931007D01*
X157400500Y-81931004D01*
X157373581Y-81795677D01*
X157373580Y-81795676D01*
X157373580Y-81795672D01*
X157360947Y-81765173D01*
X157320778Y-81668195D01*
X157320771Y-81668182D01*
X157244114Y-81553458D01*
X157244111Y-81553454D01*
X157146545Y-81455888D01*
X157146541Y-81455885D01*
X157031817Y-81379228D01*
X157031804Y-81379221D01*
X156904332Y-81326421D01*
X156904322Y-81326418D01*
X156768995Y-81299500D01*
X156768993Y-81299500D01*
X155563838Y-81299500D01*
X155563834Y-81299500D01*
X155455421Y-81321065D01*
X155455420Y-81321065D01*
X155428512Y-81326418D01*
X155428502Y-81326420D01*
X155301021Y-81379224D01*
X155186285Y-81455887D01*
X153978731Y-82663441D01*
X153917408Y-82696926D01*
X153847716Y-82691942D01*
X153791783Y-82650070D01*
X153778256Y-82627271D01*
X153731526Y-82524946D01*
X153731523Y-82524942D01*
X153637275Y-82416173D01*
X153637272Y-82416171D01*
X153637273Y-82416171D01*
X153530996Y-82347871D01*
X153485242Y-82295067D01*
X153475298Y-82225909D01*
X153488767Y-82189806D01*
X153487154Y-82189070D01*
X153541991Y-82068995D01*
X153550626Y-82050087D01*
X153571108Y-81907630D01*
X153550626Y-81765173D01*
X153490838Y-81634257D01*
X153396589Y-81525487D01*
X153275514Y-81447677D01*
X153275512Y-81447676D01*
X153275510Y-81447675D01*
X153275511Y-81447675D01*
X153137424Y-81407130D01*
X153137422Y-81407130D01*
X152993500Y-81407130D01*
X152993497Y-81407130D01*
X152855411Y-81447675D01*
X152855409Y-81447675D01*
X152793525Y-81487446D01*
X152726487Y-81507130D01*
X144212709Y-81507130D01*
X144212693Y-81507129D01*
X144205097Y-81507129D01*
X144099643Y-81507129D01*
X144031736Y-81525325D01*
X143997782Y-81534423D01*
X143906454Y-81587152D01*
X134179522Y-91314084D01*
X134179520Y-91314087D01*
X134126793Y-91405410D01*
X134121450Y-91425351D01*
X134118779Y-91435321D01*
X134118779Y-91435322D01*
X134118778Y-91435321D01*
X134099500Y-91507271D01*
X134099500Y-105982745D01*
X134079815Y-106049784D01*
X134063181Y-106070426D01*
X118995426Y-121138181D01*
X118934103Y-121171666D01*
X118907745Y-121174500D01*
X110761187Y-121174500D01*
X110694148Y-121154815D01*
X110648393Y-121102011D01*
X110638449Y-121032853D01*
X110667474Y-120969297D01*
X110692297Y-120947397D01*
X110705909Y-120938302D01*
X110838302Y-120805909D01*
X110942323Y-120650231D01*
X111013973Y-120477251D01*
X111050500Y-120293617D01*
X111050500Y-120106384D01*
X111050174Y-120104749D01*
X111013975Y-119922757D01*
X111013972Y-119922748D01*
X110942326Y-119749776D01*
X110942319Y-119749763D01*
X110838302Y-119594092D01*
X110838299Y-119594088D01*
X110086819Y-118842608D01*
X110053334Y-118781285D01*
X110050500Y-118754927D01*
X110050500Y-100709800D01*
X121743657Y-100709800D01*
X121763812Y-101068702D01*
X121763814Y-101068714D01*
X121824026Y-101423096D01*
X121824028Y-101423105D01*
X121923539Y-101768518D01*
X122061105Y-102100631D01*
X122234990Y-102415254D01*
X122443005Y-102708422D01*
X122443006Y-102708423D01*
X122682539Y-102976461D01*
X122950577Y-103215994D01*
X123243748Y-103424011D01*
X123558367Y-103597894D01*
X123890476Y-103735459D01*
X124235900Y-103834973D01*
X124590293Y-103895187D01*
X124949200Y-103915343D01*
X125308107Y-103895187D01*
X125662500Y-103834973D01*
X126007924Y-103735459D01*
X126340033Y-103597894D01*
X126654652Y-103424011D01*
X126947823Y-103215994D01*
X127215861Y-102976461D01*
X127455394Y-102708423D01*
X127663411Y-102415252D01*
X127837294Y-102100633D01*
X127974859Y-101768524D01*
X128074373Y-101423100D01*
X128134587Y-101068707D01*
X128154743Y-100709800D01*
X128134587Y-100350893D01*
X128074373Y-99996500D01*
X127974859Y-99651076D01*
X127837294Y-99318967D01*
X127663411Y-99004348D01*
X127455394Y-98711177D01*
X127215861Y-98443139D01*
X126947823Y-98203606D01*
X126947822Y-98203605D01*
X126654654Y-97995590D01*
X126340031Y-97821705D01*
X126253286Y-97785774D01*
X126007924Y-97684141D01*
X126007920Y-97684139D01*
X126007918Y-97684139D01*
X125662505Y-97584628D01*
X125662496Y-97584626D01*
X125308114Y-97524414D01*
X125308102Y-97524412D01*
X124949200Y-97504257D01*
X124590297Y-97524412D01*
X124590285Y-97524414D01*
X124235903Y-97584626D01*
X124235894Y-97584628D01*
X123890481Y-97684139D01*
X123558368Y-97821705D01*
X123243745Y-97995590D01*
X122950577Y-98203605D01*
X122682539Y-98443139D01*
X122443005Y-98711177D01*
X122234990Y-99004345D01*
X122061105Y-99318968D01*
X121923539Y-99651081D01*
X121824028Y-99996494D01*
X121824026Y-99996503D01*
X121763814Y-100350885D01*
X121763812Y-100350897D01*
X121743657Y-100709800D01*
X110050500Y-100709800D01*
X110050500Y-96374500D01*
X110070185Y-96307461D01*
X110122989Y-96261706D01*
X110174500Y-96250500D01*
X110343617Y-96250500D01*
X110343618Y-96250499D01*
X110527251Y-96213973D01*
X110700231Y-96142322D01*
X110855908Y-96038302D01*
X110988302Y-95905908D01*
X111092322Y-95750231D01*
X111163973Y-95577251D01*
X111200500Y-95393616D01*
X111200500Y-95206384D01*
X111163973Y-95022749D01*
X111092322Y-94849769D01*
X111092321Y-94849768D01*
X111092318Y-94849762D01*
X110988302Y-94694092D01*
X110988299Y-94694088D01*
X110866392Y-94572181D01*
X110832907Y-94510858D01*
X110837891Y-94441166D01*
X110879763Y-94385233D01*
X110945227Y-94360816D01*
X110954073Y-94360500D01*
X112598996Y-94360500D01*
X112690040Y-94342389D01*
X112734328Y-94333580D01*
X112798069Y-94307177D01*
X112861807Y-94280777D01*
X112861808Y-94280776D01*
X112861811Y-94280775D01*
X112976543Y-94204114D01*
X126780658Y-80399998D01*
X162433208Y-80399998D01*
X162433208Y-80400001D01*
X162453845Y-80556760D01*
X162453846Y-80556762D01*
X162514354Y-80702841D01*
X162610608Y-80828282D01*
X162736049Y-80924536D01*
X162882128Y-80985044D01*
X162960509Y-80995363D01*
X163038889Y-81005682D01*
X163038890Y-81005682D01*
X163038891Y-81005682D01*
X163091144Y-80998802D01*
X163195652Y-80985044D01*
X163341731Y-80924536D01*
X163467172Y-80828282D01*
X163563426Y-80702841D01*
X163623934Y-80556762D01*
X163644572Y-80400000D01*
X163623934Y-80243238D01*
X163563426Y-80097159D01*
X163467172Y-79971718D01*
X163341731Y-79875464D01*
X163195652Y-79814956D01*
X163195650Y-79814955D01*
X163038891Y-79794318D01*
X163038889Y-79794318D01*
X162882129Y-79814955D01*
X162882127Y-79814956D01*
X162736050Y-79875463D01*
X162610608Y-79971718D01*
X162514353Y-80097160D01*
X162453846Y-80243237D01*
X162453845Y-80243239D01*
X162433208Y-80399998D01*
X126780658Y-80399998D01*
X127254113Y-79926543D01*
X127330774Y-79811811D01*
X127383580Y-79684329D01*
X127410499Y-79548994D01*
X127410499Y-79411006D01*
X127383580Y-79275672D01*
X127330774Y-79148189D01*
X127330772Y-79148186D01*
X127330770Y-79148182D01*
X127254113Y-79033456D01*
X127156543Y-78935886D01*
X127041817Y-78859229D01*
X127041807Y-78859224D01*
X126914328Y-78806420D01*
X126914320Y-78806418D01*
X126778998Y-78779501D01*
X126778994Y-78779501D01*
X126641006Y-78779501D01*
X126573338Y-78792960D01*
X126505669Y-78806420D01*
X126378192Y-78859224D01*
X126378182Y-78859229D01*
X126263456Y-78935886D01*
X126263453Y-78935889D01*
X112276162Y-92923181D01*
X112214839Y-92956666D01*
X112188481Y-92959500D01*
X107870073Y-92959500D01*
X107803034Y-92939815D01*
X107782392Y-92923181D01*
X107780911Y-92921700D01*
X107780907Y-92921697D01*
X107670017Y-92847602D01*
X107625212Y-92793990D01*
X107616505Y-92724665D01*
X107646660Y-92661637D01*
X107706103Y-92624918D01*
X107738908Y-92620500D01*
X110544308Y-92620500D01*
X110544309Y-92620500D01*
X110634673Y-92596286D01*
X110658887Y-92589799D01*
X110761614Y-92530489D01*
X112010490Y-91281614D01*
X112069799Y-91178887D01*
X112088388Y-91109511D01*
X112100500Y-91064309D01*
X112100500Y-90295335D01*
X112111705Y-90243825D01*
X112135165Y-90192457D01*
X112155647Y-90050000D01*
X112135165Y-89907543D01*
X112075377Y-89776627D01*
X111981128Y-89667857D01*
X111860053Y-89590047D01*
X111860051Y-89590046D01*
X111860049Y-89590045D01*
X111860050Y-89590045D01*
X111721963Y-89549500D01*
X111721961Y-89549500D01*
X111578039Y-89549500D01*
X111578036Y-89549500D01*
X111439949Y-89590045D01*
X111318873Y-89667856D01*
X111224623Y-89776626D01*
X111224622Y-89776628D01*
X111164834Y-89907543D01*
X111144353Y-90050000D01*
X111164834Y-90192453D01*
X111164834Y-90192454D01*
X111164834Y-90192455D01*
X111164835Y-90192457D01*
X111188294Y-90243825D01*
X111199500Y-90295335D01*
X111199500Y-90767034D01*
X111179815Y-90834073D01*
X111163181Y-90854715D01*
X110334716Y-91683181D01*
X110273393Y-91716666D01*
X110247035Y-91719500D01*
X110116965Y-91719500D01*
X110049926Y-91699815D01*
X110004171Y-91647011D01*
X109994227Y-91577853D01*
X110023252Y-91514297D01*
X110029284Y-91507819D01*
X110029832Y-91507271D01*
X110360490Y-91176614D01*
X110419799Y-91073887D01*
X110426285Y-91049675D01*
X110426286Y-91049675D01*
X110426286Y-91049671D01*
X110450500Y-90959309D01*
X110450500Y-90015594D01*
X110459035Y-89976363D01*
X110457667Y-89975962D01*
X110460161Y-89967464D01*
X110460165Y-89967457D01*
X110480647Y-89825000D01*
X110460165Y-89682543D01*
X110400377Y-89551627D01*
X110306128Y-89442857D01*
X110185053Y-89365047D01*
X110185051Y-89365046D01*
X110185049Y-89365045D01*
X110185050Y-89365045D01*
X110046963Y-89324500D01*
X110046961Y-89324500D01*
X109903039Y-89324500D01*
X109903036Y-89324500D01*
X109764949Y-89365045D01*
X109643873Y-89442856D01*
X109643872Y-89442856D01*
X109643872Y-89442857D01*
X109641344Y-89445775D01*
X109549623Y-89551626D01*
X109549622Y-89551628D01*
X109489834Y-89682543D01*
X109469353Y-89825000D01*
X109489834Y-89967456D01*
X109538294Y-90073565D01*
X109549500Y-90125077D01*
X109549500Y-90662034D01*
X109529815Y-90729073D01*
X109513181Y-90749715D01*
X109279716Y-90983181D01*
X109218393Y-91016666D01*
X109192035Y-91019500D01*
X100607966Y-91019500D01*
X100540927Y-90999815D01*
X100520285Y-90983181D01*
X99836819Y-90299715D01*
X99803334Y-90238392D01*
X99800500Y-90212034D01*
X99800500Y-87787965D01*
X99820185Y-87720926D01*
X99836819Y-87700284D01*
X100150285Y-87386819D01*
X100211608Y-87353334D01*
X100237966Y-87350500D01*
X100292273Y-87350500D01*
X100331004Y-87358926D01*
X100331437Y-87357455D01*
X100478036Y-87400499D01*
X100478038Y-87400500D01*
X100478039Y-87400500D01*
X100621962Y-87400500D01*
X100621962Y-87400499D01*
X100760053Y-87359953D01*
X100881128Y-87282143D01*
X100975377Y-87173373D01*
X101035165Y-87042457D01*
X101055647Y-86900000D01*
X101035165Y-86757543D01*
X100975377Y-86626627D01*
X100881128Y-86517857D01*
X100760053Y-86440047D01*
X100760051Y-86440046D01*
X100760049Y-86440045D01*
X100760050Y-86440045D01*
X100621963Y-86399500D01*
X100621961Y-86399500D01*
X100478039Y-86399500D01*
X100478036Y-86399500D01*
X100331437Y-86442545D01*
X100331004Y-86441073D01*
X100292273Y-86449500D01*
X99940691Y-86449500D01*
X99920168Y-86454998D01*
X99905366Y-86458965D01*
X99835516Y-86457300D01*
X99777654Y-86418136D01*
X99750152Y-86353907D01*
X99761740Y-86285005D01*
X99785590Y-86251513D01*
X100190285Y-85846819D01*
X100251608Y-85813334D01*
X100277966Y-85810500D01*
X100392273Y-85810500D01*
X100431004Y-85818926D01*
X100431437Y-85817455D01*
X100578036Y-85860499D01*
X100578038Y-85860500D01*
X100578039Y-85860500D01*
X100721962Y-85860500D01*
X100721962Y-85860499D01*
X100860053Y-85819953D01*
X100981128Y-85742143D01*
X101075377Y-85633373D01*
X101135165Y-85502457D01*
X101155647Y-85360000D01*
X101135165Y-85217543D01*
X101075377Y-85086627D01*
X100981128Y-84977857D01*
X100860053Y-84900047D01*
X100860051Y-84900046D01*
X100860049Y-84900045D01*
X100860050Y-84900045D01*
X100721963Y-84859500D01*
X100721961Y-84859500D01*
X100578039Y-84859500D01*
X100578036Y-84859500D01*
X100431437Y-84902545D01*
X100431004Y-84901073D01*
X100392273Y-84909500D01*
X99980691Y-84909500D01*
X99890325Y-84933713D01*
X99890324Y-84933712D01*
X99866115Y-84940200D01*
X99866106Y-84940204D01*
X99763392Y-84999505D01*
X99763384Y-84999511D01*
X98289513Y-86473383D01*
X98289509Y-86473389D01*
X98230201Y-86576112D01*
X98230200Y-86576117D01*
X98216666Y-86626626D01*
X98199500Y-86690691D01*
X98199500Y-90799259D01*
X98210602Y-90840691D01*
X98230201Y-90913837D01*
X98289511Y-91016564D01*
X99803436Y-92530489D01*
X99906163Y-92589799D01*
X99930371Y-92596284D01*
X99930374Y-92596286D01*
X99930375Y-92596286D01*
X99960497Y-92604357D01*
X100020741Y-92620500D01*
X100020743Y-92620500D01*
X106611092Y-92620500D01*
X106678131Y-92640185D01*
X106723886Y-92692989D01*
X106733830Y-92762147D01*
X106704805Y-92825703D01*
X106679983Y-92847602D01*
X106569092Y-92921697D01*
X106569088Y-92921700D01*
X106436700Y-93054088D01*
X106436697Y-93054092D01*
X106332680Y-93209763D01*
X106332673Y-93209776D01*
X106261027Y-93382748D01*
X106261024Y-93382757D01*
X106224500Y-93566378D01*
X106224500Y-93753621D01*
X106261024Y-93937242D01*
X106261027Y-93937251D01*
X106332673Y-94110223D01*
X106332680Y-94110236D01*
X106436697Y-94265907D01*
X106436700Y-94265911D01*
X108113181Y-95942391D01*
X108146666Y-96003714D01*
X108149500Y-96030072D01*
X108149500Y-119293621D01*
X108186024Y-119477242D01*
X108186027Y-119477251D01*
X108257673Y-119650223D01*
X108257680Y-119650236D01*
X108361697Y-119805907D01*
X108361700Y-119805911D01*
X109494089Y-120938300D01*
X109507704Y-120947397D01*
X109552509Y-121001009D01*
X109561218Y-121070334D01*
X109531063Y-121133362D01*
X109471621Y-121170081D01*
X109438814Y-121174500D01*
X96747273Y-121174500D01*
X96645413Y-121201793D01*
X96645410Y-121201794D01*
X96554091Y-121254517D01*
X96554086Y-121254520D01*
X96550005Y-121258602D01*
X96488680Y-121292084D01*
X96478514Y-121293855D01*
X96318238Y-121314956D01*
X96318237Y-121314956D01*
X96172160Y-121375463D01*
X96046718Y-121471718D01*
X95950463Y-121597160D01*
X95889956Y-121743237D01*
X95889955Y-121743239D01*
X95869318Y-121899998D01*
X95869318Y-121900001D01*
X95889955Y-122056760D01*
X95889956Y-122056762D01*
X95927313Y-122146951D01*
X95950464Y-122202841D01*
X96046718Y-122328282D01*
X96172159Y-122424536D01*
X96318238Y-122485044D01*
X96396619Y-122495363D01*
X96474999Y-122505682D01*
X96475000Y-122505682D01*
X96475001Y-122505682D01*
X96527254Y-122498802D01*
X96631762Y-122485044D01*
X96745182Y-122438063D01*
X96814649Y-122430595D01*
X96877129Y-122461870D01*
X96912781Y-122521959D01*
X96913937Y-122527960D01*
X96914956Y-122531762D01*
X96975464Y-122677841D01*
X97071718Y-122803282D01*
X97197159Y-122899536D01*
X97343238Y-122960044D01*
X97421619Y-122970363D01*
X97499999Y-122980682D01*
X97508128Y-122980682D01*
X97508128Y-122983004D01*
X97565360Y-122991920D01*
X97574521Y-122996711D01*
X97590412Y-123005886D01*
X97620413Y-123023207D01*
X97722273Y-123050501D01*
X97722275Y-123050501D01*
X97835323Y-123050501D01*
X97835339Y-123050500D01*
X98988105Y-123050500D01*
X99055144Y-123070185D01*
X99100899Y-123122989D01*
X99110843Y-123192147D01*
X99102666Y-123221953D01*
X99051420Y-123345671D01*
X99051418Y-123345677D01*
X99024500Y-123481004D01*
X99024500Y-123481007D01*
X99024500Y-123618993D01*
X99024500Y-123618995D01*
X99024499Y-123618995D01*
X99051418Y-123754322D01*
X99051420Y-123754328D01*
X99102666Y-123878047D01*
X99110135Y-123947517D01*
X99078860Y-124009996D01*
X99018771Y-124045648D01*
X98988105Y-124049500D01*
X95331005Y-124049500D01*
X95195677Y-124076418D01*
X95195667Y-124076421D01*
X95068195Y-124129221D01*
X95068182Y-124129228D01*
X94953458Y-124205885D01*
X94953454Y-124205888D01*
X94855888Y-124303454D01*
X94855885Y-124303458D01*
X94779228Y-124418182D01*
X94779221Y-124418195D01*
X94726421Y-124545667D01*
X94726418Y-124545677D01*
X94699500Y-124681004D01*
X94699500Y-124681007D01*
X94699500Y-124818993D01*
X94699500Y-124818995D01*
X94699499Y-124818995D01*
X83610500Y-124818995D01*
X83610500Y-107175000D01*
X86744353Y-107175000D01*
X86764834Y-107317456D01*
X86824622Y-107448371D01*
X86824623Y-107448373D01*
X86918872Y-107557143D01*
X87039947Y-107634953D01*
X87039950Y-107634954D01*
X87039949Y-107634954D01*
X87178036Y-107675499D01*
X87178038Y-107675500D01*
X87178039Y-107675500D01*
X87321962Y-107675500D01*
X87321962Y-107675499D01*
X87460053Y-107634953D01*
X87581128Y-107557143D01*
X87675377Y-107448373D01*
X87735165Y-107317457D01*
X87755647Y-107175000D01*
X87735165Y-107032543D01*
X87735165Y-107032542D01*
X87732667Y-107024036D01*
X87733956Y-107023657D01*
X87725320Y-106963609D01*
X87754343Y-106900052D01*
X87813119Y-106862275D01*
X87882988Y-106862272D01*
X87882990Y-106862272D01*
X87882993Y-106862274D01*
X87928036Y-106875499D01*
X87928038Y-106875500D01*
X87928039Y-106875500D01*
X88071962Y-106875500D01*
X88071962Y-106875499D01*
X88210053Y-106834953D01*
X88331128Y-106757143D01*
X88425377Y-106648373D01*
X88485165Y-106517457D01*
X88485165Y-106517456D01*
X88487450Y-106512453D01*
X88533205Y-106459649D01*
X88600244Y-106439965D01*
X88619108Y-106442682D01*
X88619260Y-106441630D01*
X88628038Y-106442892D01*
X88628039Y-106442892D01*
X88771962Y-106442892D01*
X88771962Y-106442891D01*
X88910053Y-106402345D01*
X89031128Y-106324535D01*
X89125377Y-106215765D01*
X89185165Y-106084849D01*
X89189336Y-106055833D01*
X89218359Y-105992279D01*
X89277136Y-105954503D01*
X89319170Y-105951498D01*
X89319170Y-105950500D01*
X89471962Y-105950500D01*
X89471962Y-105950499D01*
X89579121Y-105919035D01*
X89610050Y-105909954D01*
X89610050Y-105909953D01*
X89610053Y-105909953D01*
X89731128Y-105832143D01*
X89825377Y-105723373D01*
X89885165Y-105592457D01*
X89897473Y-105506853D01*
X89926498Y-105443297D01*
X89985276Y-105405523D01*
X90020211Y-105400500D01*
X90171962Y-105400500D01*
X90171962Y-105400499D01*
X90310053Y-105359953D01*
X90431128Y-105282143D01*
X90525377Y-105173373D01*
X90585165Y-105042457D01*
X90591830Y-104996099D01*
X90620855Y-104932544D01*
X90679632Y-104894769D01*
X90719170Y-104891942D01*
X90719170Y-104890408D01*
X90871962Y-104890408D01*
X90871962Y-104890407D01*
X91010053Y-104849861D01*
X91131128Y-104772051D01*
X91225377Y-104663281D01*
X91285165Y-104532365D01*
X91305647Y-104389908D01*
X91285165Y-104247451D01*
X91225377Y-104116535D01*
X91225374Y-104116532D01*
X91220582Y-104109074D01*
X91223621Y-104107120D01*
X91201749Y-104059132D01*
X91200500Y-104041575D01*
X91200500Y-83822765D01*
X91220185Y-83755726D01*
X91236819Y-83735084D01*
X91371212Y-83600691D01*
X93699500Y-83600691D01*
X93699500Y-115559310D01*
X93718710Y-115631005D01*
X93730200Y-115673885D01*
X93730200Y-115673886D01*
X93730201Y-115673887D01*
X93789511Y-115776614D01*
X93789513Y-115776616D01*
X94719317Y-116706420D01*
X94752802Y-116767743D01*
X94754575Y-116777915D01*
X94764955Y-116856761D01*
X94793029Y-116924536D01*
X94825464Y-117002841D01*
X94921718Y-117128282D01*
X95047159Y-117224536D01*
X95193238Y-117285044D01*
X95271619Y-117295363D01*
X95349999Y-117305682D01*
X95350000Y-117305682D01*
X95350001Y-117305682D01*
X95402254Y-117298802D01*
X95506762Y-117285044D01*
X95652841Y-117224536D01*
X95778282Y-117128282D01*
X95874536Y-117002841D01*
X95935044Y-116856762D01*
X95955682Y-116700000D01*
X95935044Y-116543238D01*
X95874536Y-116397159D01*
X95778282Y-116271718D01*
X95652841Y-116175464D01*
X95652839Y-116175463D01*
X95506761Y-116114955D01*
X95427915Y-116104575D01*
X95364018Y-116076308D01*
X95356420Y-116069317D01*
X94636819Y-115349716D01*
X94603334Y-115288393D01*
X94600500Y-115262035D01*
X94600500Y-100709800D01*
X95743657Y-100709800D01*
X95763812Y-101068702D01*
X95763814Y-101068714D01*
X95824026Y-101423096D01*
X95824028Y-101423105D01*
X95923539Y-101768518D01*
X96061105Y-102100631D01*
X96234990Y-102415254D01*
X96443005Y-102708422D01*
X96443006Y-102708423D01*
X96682539Y-102976461D01*
X96950577Y-103215994D01*
X97243748Y-103424011D01*
X97558367Y-103597894D01*
X97890476Y-103735459D01*
X98235900Y-103834973D01*
X98590293Y-103895187D01*
X98949200Y-103915343D01*
X99308107Y-103895187D01*
X99662500Y-103834973D01*
X100007924Y-103735459D01*
X100340033Y-103597894D01*
X100654652Y-103424011D01*
X100786658Y-103330345D01*
X100852720Y-103307607D01*
X100920592Y-103324194D01*
X100946092Y-103343795D01*
X103513181Y-105910884D01*
X103546666Y-105972207D01*
X103549500Y-105998565D01*
X103549500Y-115958580D01*
X103529815Y-116025619D01*
X103523876Y-116034066D01*
X103475464Y-116097157D01*
X103414956Y-116243237D01*
X103414955Y-116243239D01*
X103394318Y-116399998D01*
X103394318Y-116400001D01*
X103414955Y-116556760D01*
X103414956Y-116556762D01*
X103474287Y-116700001D01*
X103475464Y-116702841D01*
X103571718Y-116828282D01*
X103697159Y-116924536D01*
X103843238Y-116985044D01*
X103921619Y-116995363D01*
X103999999Y-117005682D01*
X104000000Y-117005682D01*
X104000001Y-117005682D01*
X104052254Y-116998802D01*
X104156762Y-116985044D01*
X104302841Y-116924536D01*
X104428282Y-116828282D01*
X104524536Y-116702841D01*
X104585044Y-116556762D01*
X104605682Y-116400000D01*
X104599099Y-116350000D01*
X104585044Y-116243239D01*
X104585044Y-116243238D01*
X104524536Y-116097159D01*
X104524535Y-116097158D01*
X104524535Y-116097157D01*
X104476124Y-116034066D01*
X104450930Y-115968896D01*
X104450500Y-115958580D01*
X104450500Y-105701293D01*
X104450500Y-105701291D01*
X104419799Y-105586714D01*
X104419799Y-105586713D01*
X104360489Y-105483986D01*
X101583195Y-102706692D01*
X101549710Y-102645369D01*
X101554694Y-102575677D01*
X101569742Y-102547262D01*
X101663411Y-102415252D01*
X101837294Y-102100633D01*
X101974859Y-101768524D01*
X102074373Y-101423100D01*
X102134587Y-101068707D01*
X102154743Y-100709800D01*
X102134587Y-100350893D01*
X102074373Y-99996500D01*
X101974859Y-99651076D01*
X101837294Y-99318967D01*
X101663411Y-99004348D01*
X101455394Y-98711177D01*
X101215861Y-98443139D01*
X100947823Y-98203606D01*
X100947822Y-98203605D01*
X100654654Y-97995590D01*
X100340031Y-97821705D01*
X100253286Y-97785774D01*
X100007924Y-97684141D01*
X100007920Y-97684139D01*
X100007918Y-97684139D01*
X99662505Y-97584628D01*
X99662496Y-97584626D01*
X99308114Y-97524414D01*
X99308102Y-97524412D01*
X98949200Y-97504257D01*
X98590297Y-97524412D01*
X98590285Y-97524414D01*
X98235903Y-97584626D01*
X98235894Y-97584628D01*
X97890481Y-97684139D01*
X97558368Y-97821705D01*
X97243745Y-97995590D01*
X96950577Y-98203605D01*
X96682539Y-98443139D01*
X96443005Y-98711177D01*
X96234990Y-99004345D01*
X96061105Y-99318968D01*
X95923539Y-99651081D01*
X95824028Y-99996494D01*
X95824026Y-99996503D01*
X95763814Y-100350885D01*
X95763812Y-100350897D01*
X95743657Y-100709800D01*
X94600500Y-100709800D01*
X94600500Y-84350000D01*
X107219353Y-84350000D01*
X107239834Y-84492456D01*
X107299622Y-84623371D01*
X107299623Y-84623373D01*
X107393872Y-84732143D01*
X107514947Y-84809953D01*
X107514950Y-84809954D01*
X107514949Y-84809954D01*
X107653036Y-84850499D01*
X107653038Y-84850500D01*
X107653039Y-84850500D01*
X107796962Y-84850500D01*
X107796962Y-84850499D01*
X107935053Y-84809953D01*
X108056128Y-84732143D01*
X108056136Y-84732133D01*
X108057688Y-84730790D01*
X108059572Y-84729929D01*
X108063589Y-84727348D01*
X108063960Y-84727925D01*
X108121243Y-84701763D01*
X108138895Y-84700500D01*
X110864567Y-84700500D01*
X110931606Y-84720185D01*
X110977360Y-84772987D01*
X111034623Y-84898373D01*
X111128872Y-85007143D01*
X111249947Y-85084953D01*
X111249950Y-85084954D01*
X111249949Y-85084954D01*
X111388036Y-85125499D01*
X111388038Y-85125500D01*
X111388039Y-85125500D01*
X111531962Y-85125500D01*
X111531962Y-85125499D01*
X111660292Y-85087819D01*
X111670050Y-85084954D01*
X111670050Y-85084953D01*
X111670053Y-85084953D01*
X111791128Y-85007143D01*
X111885377Y-84898373D01*
X111945165Y-84767457D01*
X111965647Y-84625000D01*
X111945165Y-84482543D01*
X111885377Y-84351627D01*
X111791128Y-84242857D01*
X111670053Y-84165047D01*
X111670051Y-84165046D01*
X111670049Y-84165045D01*
X111670050Y-84165045D01*
X111531963Y-84124500D01*
X111531961Y-84124500D01*
X111471544Y-84124500D01*
X111404505Y-84104815D01*
X111383863Y-84088181D01*
X111365213Y-84069531D01*
X111365208Y-84069527D01*
X111285290Y-84023387D01*
X111285288Y-84023386D01*
X111274472Y-84020488D01*
X111274471Y-84020487D01*
X111218754Y-84005558D01*
X111196144Y-83999500D01*
X111196143Y-83999500D01*
X108138895Y-83999500D01*
X108071856Y-83979815D01*
X108057688Y-83969210D01*
X108056132Y-83967862D01*
X108056128Y-83967857D01*
X107935053Y-83890047D01*
X107935051Y-83890046D01*
X107935049Y-83890045D01*
X107935050Y-83890045D01*
X107796963Y-83849500D01*
X107796961Y-83849500D01*
X107653039Y-83849500D01*
X107653036Y-83849500D01*
X107514949Y-83890045D01*
X107393873Y-83967856D01*
X107299623Y-84076626D01*
X107299622Y-84076628D01*
X107239834Y-84207543D01*
X107219353Y-84350000D01*
X94600500Y-84350000D01*
X94600500Y-83897965D01*
X94620185Y-83830926D01*
X94636819Y-83810284D01*
X101230284Y-77216819D01*
X101291607Y-77183334D01*
X101317965Y-77180500D01*
X128992035Y-77180500D01*
X129059074Y-77200185D01*
X129079716Y-77216819D01*
X130089317Y-78226420D01*
X130122802Y-78287743D01*
X130124575Y-78297915D01*
X130134955Y-78376761D01*
X130195463Y-78522839D01*
X130195464Y-78522841D01*
X130291718Y-78648282D01*
X130417159Y-78744536D01*
X130563238Y-78805044D01*
X130641619Y-78815363D01*
X130719999Y-78825682D01*
X130720000Y-78825682D01*
X130720001Y-78825682D01*
X130772254Y-78818802D01*
X130876762Y-78805044D01*
X131022841Y-78744536D01*
X131148282Y-78648282D01*
X131244536Y-78522841D01*
X131305044Y-78376762D01*
X131325682Y-78220000D01*
X131305044Y-78063238D01*
X131244536Y-77917159D01*
X131185328Y-77839998D01*
X157278697Y-77839998D01*
X157278697Y-77840001D01*
X157299334Y-77996760D01*
X157299335Y-77996762D01*
X157359843Y-78142841D01*
X157456097Y-78268282D01*
X157581538Y-78364536D01*
X157727617Y-78425044D01*
X157805998Y-78435363D01*
X157884378Y-78445682D01*
X157884379Y-78445682D01*
X157884380Y-78445682D01*
X157936633Y-78438802D01*
X158041141Y-78425044D01*
X158187220Y-78364536D01*
X158312661Y-78268282D01*
X158408915Y-78142841D01*
X158469423Y-77996762D01*
X158490061Y-77840000D01*
X158471629Y-77699998D01*
X161177149Y-77699998D01*
X161177149Y-77700001D01*
X161197786Y-77856760D01*
X161197787Y-77856762D01*
X161258295Y-78002841D01*
X161354549Y-78128282D01*
X161479990Y-78224536D01*
X161626069Y-78285044D01*
X161704450Y-78295363D01*
X161782830Y-78305682D01*
X161782831Y-78305682D01*
X161782832Y-78305682D01*
X161835085Y-78298802D01*
X161939593Y-78285044D01*
X162085672Y-78224536D01*
X162211113Y-78128282D01*
X162307367Y-78002841D01*
X162367875Y-77856762D01*
X162388513Y-77700000D01*
X162386306Y-77683239D01*
X162367875Y-77543239D01*
X162367875Y-77543238D01*
X162307367Y-77397159D01*
X162211113Y-77271718D01*
X162085672Y-77175464D01*
X161939593Y-77114956D01*
X161939591Y-77114955D01*
X161782832Y-77094318D01*
X161782830Y-77094318D01*
X161626070Y-77114955D01*
X161626068Y-77114956D01*
X161479991Y-77175463D01*
X161354549Y-77271718D01*
X161258294Y-77397160D01*
X161197787Y-77543237D01*
X161197786Y-77543239D01*
X161177149Y-77699998D01*
X158471629Y-77699998D01*
X158469423Y-77683238D01*
X158408915Y-77537159D01*
X158312661Y-77411718D01*
X158187220Y-77315464D01*
X158041141Y-77254956D01*
X158041139Y-77254955D01*
X157884380Y-77234318D01*
X157884378Y-77234318D01*
X157727618Y-77254955D01*
X157727616Y-77254956D01*
X157581539Y-77315463D01*
X157456097Y-77411718D01*
X157359842Y-77537160D01*
X157299335Y-77683237D01*
X157299334Y-77683239D01*
X157278697Y-77839998D01*
X131185328Y-77839998D01*
X131148282Y-77791718D01*
X131022841Y-77695464D01*
X131022839Y-77695463D01*
X130876761Y-77634955D01*
X130797915Y-77624575D01*
X130734018Y-77596308D01*
X130726420Y-77589317D01*
X129506616Y-76369513D01*
X129506614Y-76369511D01*
X129455250Y-76339856D01*
X129403888Y-76310201D01*
X129391780Y-76306957D01*
X129379673Y-76303713D01*
X129379670Y-76303712D01*
X129341478Y-76293478D01*
X129289309Y-76279500D01*
X101020691Y-76279500D01*
X100930325Y-76303713D01*
X100930324Y-76303712D01*
X100906116Y-76310199D01*
X100906113Y-76310200D01*
X100803386Y-76369511D01*
X100803383Y-76369513D01*
X93789513Y-83383383D01*
X93789509Y-83383389D01*
X93730201Y-83486112D01*
X93730200Y-83486117D01*
X93699500Y-83600691D01*
X91371212Y-83600691D01*
X95422912Y-79548991D01*
X98991904Y-75979998D01*
X157014318Y-75979998D01*
X157014318Y-75980001D01*
X157034955Y-76136760D01*
X157034956Y-76136762D01*
X157095464Y-76282841D01*
X157191718Y-76408282D01*
X157317159Y-76504536D01*
X157463238Y-76565044D01*
X157541619Y-76575363D01*
X157619999Y-76585682D01*
X157620000Y-76585682D01*
X157620001Y-76585682D01*
X157672254Y-76578802D01*
X157776762Y-76565044D01*
X157922841Y-76504536D01*
X158048282Y-76408282D01*
X158144536Y-76282841D01*
X158205044Y-76136762D01*
X158225682Y-75980000D01*
X158205044Y-75823238D01*
X158144536Y-75677159D01*
X158048282Y-75551718D01*
X157922841Y-75455464D01*
X157776762Y-75394956D01*
X157776760Y-75394955D01*
X157620001Y-75374318D01*
X157619999Y-75374318D01*
X157463239Y-75394955D01*
X157463237Y-75394956D01*
X157317160Y-75455463D01*
X157191718Y-75551718D01*
X157095463Y-75677160D01*
X157034956Y-75823237D01*
X157034955Y-75823239D01*
X157014318Y-75979998D01*
X98991904Y-75979998D01*
X99879111Y-75092791D01*
X99904785Y-75073091D01*
X99926614Y-75060489D01*
X103812103Y-71175000D01*
X119619678Y-71175000D01*
X119638915Y-71358029D01*
X119638916Y-71358032D01*
X119695783Y-71533053D01*
X119695786Y-71533059D01*
X119787805Y-71692440D01*
X119798250Y-71704040D01*
X119910949Y-71829206D01*
X119910951Y-71829208D01*
X120059834Y-71937378D01*
X120059835Y-71937378D01*
X120059839Y-71937381D01*
X120196953Y-71998428D01*
X120227961Y-72012234D01*
X120227966Y-72012236D01*
X120407981Y-72050500D01*
X120592019Y-72050500D01*
X120772034Y-72012236D01*
X120940161Y-71937381D01*
X121089050Y-71829207D01*
X121212195Y-71692440D01*
X121304214Y-71533059D01*
X121361085Y-71358029D01*
X121379103Y-71186600D01*
X137429278Y-71186600D01*
X137448515Y-71369629D01*
X137448516Y-71369632D01*
X137505383Y-71544653D01*
X137505386Y-71544659D01*
X137597405Y-71704040D01*
X137706927Y-71825677D01*
X137720549Y-71840806D01*
X137720551Y-71840808D01*
X137869434Y-71948978D01*
X137869435Y-71948978D01*
X137869439Y-71948981D01*
X138006553Y-72010028D01*
X138037561Y-72023834D01*
X138037566Y-72023836D01*
X138217581Y-72062100D01*
X138401619Y-72062100D01*
X138581634Y-72023836D01*
X138749761Y-71948981D01*
X138898650Y-71840807D01*
X139021795Y-71704040D01*
X139113814Y-71544659D01*
X139170685Y-71369629D01*
X139189922Y-71186600D01*
X139170685Y-71003571D01*
X139113814Y-70828541D01*
X139021795Y-70669160D01*
X138898650Y-70532393D01*
X138898648Y-70532391D01*
X138749765Y-70424221D01*
X138749762Y-70424219D01*
X138749761Y-70424219D01*
X138688712Y-70397038D01*
X138581638Y-70349365D01*
X138581633Y-70349363D01*
X138401619Y-70311100D01*
X138217581Y-70311100D01*
X138037566Y-70349363D01*
X138037561Y-70349365D01*
X137869439Y-70424219D01*
X137869434Y-70424221D01*
X137720551Y-70532391D01*
X137720549Y-70532393D01*
X137597404Y-70669161D01*
X137505386Y-70828540D01*
X137505383Y-70828546D01*
X137452285Y-70991967D01*
X137448515Y-71003571D01*
X137429278Y-71186600D01*
X121379103Y-71186600D01*
X121380322Y-71175000D01*
X121361085Y-70991971D01*
X121304214Y-70816941D01*
X121212195Y-70657560D01*
X121089050Y-70520793D01*
X121089048Y-70520791D01*
X120940165Y-70412621D01*
X120940162Y-70412619D01*
X120940161Y-70412619D01*
X120879112Y-70385438D01*
X120772038Y-70337765D01*
X120772033Y-70337763D01*
X120592019Y-70299500D01*
X120407981Y-70299500D01*
X120227966Y-70337763D01*
X120227961Y-70337765D01*
X120059839Y-70412619D01*
X120059834Y-70412621D01*
X119910951Y-70520791D01*
X119910949Y-70520793D01*
X119787804Y-70657561D01*
X119695786Y-70816940D01*
X119695783Y-70816946D01*
X119638916Y-70991967D01*
X119638915Y-70991971D01*
X119619678Y-71175000D01*
X103812103Y-71175000D01*
X105812103Y-69175000D01*
X119619678Y-69175000D01*
X119638915Y-69358029D01*
X119638916Y-69358032D01*
X119695783Y-69533053D01*
X119695786Y-69533059D01*
X119787805Y-69692440D01*
X119798250Y-69704040D01*
X119910949Y-69829206D01*
X119910951Y-69829208D01*
X120059834Y-69937378D01*
X120059835Y-69937378D01*
X120059839Y-69937381D01*
X120196953Y-69998428D01*
X120227961Y-70012234D01*
X120227966Y-70012236D01*
X120407981Y-70050500D01*
X120592019Y-70050500D01*
X120772034Y-70012236D01*
X120940161Y-69937381D01*
X121089050Y-69829207D01*
X121212195Y-69692440D01*
X121304214Y-69533059D01*
X121361085Y-69358029D01*
X121379103Y-69186600D01*
X137429278Y-69186600D01*
X137448515Y-69369629D01*
X137448516Y-69369632D01*
X137505383Y-69544653D01*
X137505386Y-69544659D01*
X137597405Y-69704040D01*
X137706927Y-69825677D01*
X137720549Y-69840806D01*
X137720551Y-69840808D01*
X137869434Y-69948978D01*
X137869435Y-69948978D01*
X137869439Y-69948981D01*
X138006553Y-70010028D01*
X138037561Y-70023834D01*
X138037566Y-70023836D01*
X138217581Y-70062100D01*
X138401619Y-70062100D01*
X138581634Y-70023836D01*
X138749761Y-69948981D01*
X138898650Y-69840807D01*
X139021795Y-69704040D01*
X139113814Y-69544659D01*
X139170685Y-69369629D01*
X139189922Y-69186600D01*
X139170685Y-69003571D01*
X139113814Y-68828541D01*
X139021795Y-68669160D01*
X138898650Y-68532393D01*
X138898648Y-68532391D01*
X138749765Y-68424221D01*
X138749762Y-68424219D01*
X138749761Y-68424219D01*
X138688712Y-68397038D01*
X138581638Y-68349365D01*
X138581633Y-68349363D01*
X138401619Y-68311100D01*
X138217581Y-68311100D01*
X138037566Y-68349363D01*
X138037561Y-68349365D01*
X137869439Y-68424219D01*
X137869434Y-68424221D01*
X137720551Y-68532391D01*
X137720549Y-68532393D01*
X137597404Y-68669161D01*
X137505386Y-68828540D01*
X137505383Y-68828546D01*
X137452285Y-68991967D01*
X137448515Y-69003571D01*
X137429278Y-69186600D01*
X121379103Y-69186600D01*
X121380322Y-69175000D01*
X121361085Y-68991971D01*
X121304214Y-68816941D01*
X121212195Y-68657560D01*
X121089050Y-68520793D01*
X121089048Y-68520791D01*
X120940165Y-68412621D01*
X120940162Y-68412619D01*
X120940161Y-68412619D01*
X120879112Y-68385438D01*
X120772038Y-68337765D01*
X120772033Y-68337763D01*
X120592019Y-68299500D01*
X120407981Y-68299500D01*
X120227966Y-68337763D01*
X120227961Y-68337765D01*
X120059839Y-68412619D01*
X120059834Y-68412621D01*
X119910951Y-68520791D01*
X119910949Y-68520793D01*
X119787804Y-68657561D01*
X119695786Y-68816940D01*
X119695783Y-68816946D01*
X119638916Y-68991967D01*
X119638915Y-68991971D01*
X119619678Y-69175000D01*
X105812103Y-69175000D01*
X107400284Y-67586819D01*
X107461607Y-67553334D01*
X107487965Y-67550500D01*
X116634308Y-67550500D01*
X116634309Y-67550500D01*
X116724673Y-67526286D01*
X116748887Y-67519799D01*
X116851614Y-67460489D01*
X117137103Y-67175000D01*
X119619678Y-67175000D01*
X119638915Y-67358029D01*
X119638916Y-67358032D01*
X119695783Y-67533053D01*
X119695786Y-67533059D01*
X119787805Y-67692440D01*
X119798250Y-67704040D01*
X119910949Y-67829206D01*
X119910951Y-67829208D01*
X120059834Y-67937378D01*
X120059835Y-67937378D01*
X120059839Y-67937381D01*
X120196953Y-67998428D01*
X120227961Y-68012234D01*
X120227966Y-68012236D01*
X120407981Y-68050500D01*
X120592019Y-68050500D01*
X120772034Y-68012236D01*
X120940161Y-67937381D01*
X121089050Y-67829207D01*
X121212195Y-67692440D01*
X121304214Y-67533059D01*
X121361085Y-67358029D01*
X121379103Y-67186600D01*
X137429278Y-67186600D01*
X137448515Y-67369629D01*
X137448516Y-67369632D01*
X137505383Y-67544653D01*
X137505386Y-67544659D01*
X137597405Y-67704040D01*
X137706927Y-67825677D01*
X137720549Y-67840806D01*
X137720551Y-67840808D01*
X137869434Y-67948978D01*
X137869435Y-67948978D01*
X137869439Y-67948981D01*
X138006553Y-68010028D01*
X138037561Y-68023834D01*
X138037566Y-68023836D01*
X138217581Y-68062100D01*
X138401619Y-68062100D01*
X138581634Y-68023836D01*
X138749761Y-67948981D01*
X138898650Y-67840807D01*
X139021795Y-67704040D01*
X139113814Y-67544659D01*
X139170685Y-67369629D01*
X139189922Y-67186600D01*
X139170685Y-67003571D01*
X139113814Y-66828541D01*
X139021795Y-66669160D01*
X138898650Y-66532393D01*
X138898648Y-66532391D01*
X138749765Y-66424221D01*
X138749762Y-66424219D01*
X138749761Y-66424219D01*
X138688712Y-66397038D01*
X138581638Y-66349365D01*
X138581633Y-66349363D01*
X138401619Y-66311100D01*
X138217581Y-66311100D01*
X138037566Y-66349363D01*
X138037561Y-66349365D01*
X137869439Y-66424219D01*
X137869434Y-66424221D01*
X137720551Y-66532391D01*
X137720549Y-66532393D01*
X137597404Y-66669161D01*
X137505386Y-66828540D01*
X137505383Y-66828546D01*
X137452285Y-66991967D01*
X137448515Y-67003571D01*
X137429278Y-67186600D01*
X121379103Y-67186600D01*
X121380322Y-67175000D01*
X121361085Y-66991971D01*
X121304214Y-66816941D01*
X121212195Y-66657560D01*
X121089050Y-66520793D01*
X121089048Y-66520791D01*
X120940165Y-66412621D01*
X120940162Y-66412619D01*
X120940161Y-66412619D01*
X120879112Y-66385438D01*
X120772038Y-66337765D01*
X120772033Y-66337763D01*
X120592019Y-66299500D01*
X120407981Y-66299500D01*
X120227966Y-66337763D01*
X120227961Y-66337765D01*
X120059839Y-66412619D01*
X120059834Y-66412621D01*
X119910951Y-66520791D01*
X119910949Y-66520793D01*
X119787804Y-66657561D01*
X119695786Y-66816940D01*
X119695783Y-66816946D01*
X119638916Y-66991967D01*
X119638915Y-66991971D01*
X119619678Y-67175000D01*
X117137103Y-67175000D01*
X119428959Y-64883142D01*
X119490282Y-64849658D01*
X119559974Y-64854642D01*
X119615907Y-64896514D01*
X119640324Y-64961978D01*
X119638705Y-64985415D01*
X119639595Y-64985509D01*
X119638916Y-64991967D01*
X119638915Y-64991971D01*
X119619678Y-65175000D01*
X119638915Y-65358029D01*
X119638916Y-65358032D01*
X119695783Y-65533053D01*
X119695786Y-65533059D01*
X119787805Y-65692440D01*
X119798250Y-65704040D01*
X119910949Y-65829206D01*
X119910951Y-65829208D01*
X120059834Y-65937378D01*
X120059835Y-65937378D01*
X120059839Y-65937381D01*
X120196953Y-65998428D01*
X120227961Y-66012234D01*
X120227966Y-66012236D01*
X120407981Y-66050500D01*
X120592019Y-66050500D01*
X120772034Y-66012236D01*
X120940161Y-65937381D01*
X121089050Y-65829207D01*
X121212195Y-65692440D01*
X121304214Y-65533059D01*
X121361085Y-65358029D01*
X121380322Y-65175000D01*
X121361085Y-64991971D01*
X121316464Y-64854642D01*
X121304216Y-64816946D01*
X121304213Y-64816940D01*
X121212195Y-64657560D01*
X121089050Y-64520793D01*
X121089048Y-64520791D01*
X120940165Y-64412621D01*
X120940162Y-64412619D01*
X120940161Y-64412619D01*
X120879112Y-64385438D01*
X120772038Y-64337765D01*
X120772033Y-64337763D01*
X120592019Y-64299500D01*
X120407981Y-64299500D01*
X120407980Y-64299500D01*
X120315343Y-64319190D01*
X120245676Y-64313874D01*
X120189943Y-64271736D01*
X120165838Y-64206156D01*
X120181015Y-64137955D01*
X120201878Y-64110223D01*
X120239656Y-64072445D01*
X120300977Y-64038962D01*
X120353116Y-64038838D01*
X120407981Y-64050500D01*
X120592019Y-64050500D01*
X120772034Y-64012236D01*
X120940161Y-63937381D01*
X121089050Y-63829207D01*
X121212195Y-63692440D01*
X121304214Y-63533059D01*
X121361085Y-63358029D01*
X121380322Y-63175000D01*
X121361085Y-62991971D01*
X121310743Y-62837034D01*
X121304216Y-62816946D01*
X121304213Y-62816940D01*
X121212195Y-62657560D01*
X121089050Y-62520793D01*
X121089048Y-62520791D01*
X120940165Y-62412621D01*
X120940162Y-62412619D01*
X120940161Y-62412619D01*
X120871414Y-62382011D01*
X120772038Y-62337765D01*
X120772033Y-62337763D01*
X120592019Y-62299500D01*
X120407981Y-62299500D01*
X120227966Y-62337763D01*
X120227961Y-62337765D01*
X120059839Y-62412619D01*
X120059834Y-62412621D01*
X119910951Y-62520791D01*
X119910949Y-62520793D01*
X119787804Y-62657561D01*
X119781886Y-62667811D01*
X119731318Y-62716026D01*
X119662711Y-62729247D01*
X119597846Y-62703278D01*
X119557319Y-62646363D01*
X119550500Y-62605809D01*
X119550500Y-58737964D01*
X119570185Y-58670925D01*
X119586815Y-58650287D01*
X120177804Y-58059297D01*
X120239125Y-58025814D01*
X120291261Y-58025690D01*
X120407981Y-58050500D01*
X120407982Y-58050500D01*
X120592019Y-58050500D01*
X120772034Y-58012236D01*
X120940161Y-57937381D01*
X121089050Y-57829207D01*
X121212195Y-57692440D01*
X121304214Y-57533059D01*
X121361085Y-57358029D01*
X121380322Y-57175000D01*
X121361085Y-56991971D01*
X121316464Y-56854642D01*
X121304216Y-56816946D01*
X121304213Y-56816940D01*
X121212195Y-56657560D01*
X121089050Y-56520793D01*
X121089048Y-56520791D01*
X120940165Y-56412621D01*
X120940162Y-56412619D01*
X120940161Y-56412619D01*
X120879112Y-56385438D01*
X120772038Y-56337765D01*
X120772033Y-56337763D01*
X120592019Y-56299500D01*
X120407981Y-56299500D01*
X120407980Y-56299500D01*
X120315343Y-56319190D01*
X120245676Y-56313874D01*
X120189943Y-56271736D01*
X120165838Y-56206156D01*
X120181015Y-56137955D01*
X120201878Y-56110223D01*
X120239656Y-56072445D01*
X120300977Y-56038962D01*
X120353116Y-56038838D01*
X120407981Y-56050500D01*
X120592019Y-56050500D01*
X120772034Y-56012236D01*
X120940161Y-55937381D01*
X121089050Y-55829207D01*
X121212195Y-55692440D01*
X121304214Y-55533059D01*
X121361085Y-55358029D01*
X121380322Y-55175000D01*
X121364648Y-55025874D01*
X125924912Y-55025874D01*
X125929337Y-55112076D01*
X125929500Y-55118433D01*
X125929500Y-65208641D01*
X125929042Y-65211801D01*
X125929462Y-65228620D01*
X125929500Y-65231708D01*
X125929500Y-65254412D01*
X125930217Y-65257801D01*
X125931810Y-65322890D01*
X125934456Y-65335727D01*
X125969214Y-65504381D01*
X126038174Y-65676385D01*
X126136501Y-65833451D01*
X126261089Y-65970618D01*
X126261095Y-65970624D01*
X126408007Y-66083559D01*
X126408009Y-66083560D01*
X126572604Y-66168692D01*
X126749675Y-66223328D01*
X126820128Y-66231858D01*
X126830279Y-66234528D01*
X126834828Y-66234533D01*
X126849675Y-66235442D01*
X126858817Y-66234561D01*
X131921339Y-66240477D01*
X131931564Y-66241737D01*
X131951204Y-66242625D01*
X131965346Y-66238752D01*
X132032159Y-66234005D01*
X132210345Y-66191028D01*
X132210348Y-66191027D01*
X132378963Y-66119186D01*
X132378964Y-66119185D01*
X132378972Y-66119182D01*
X132533400Y-66020446D01*
X132669379Y-65897536D01*
X132783165Y-65753836D01*
X132871627Y-65593301D01*
X132932329Y-65420349D01*
X132944776Y-65348622D01*
X132948513Y-65335727D01*
X132949127Y-65328569D01*
X132948147Y-65314868D01*
X132948121Y-65254412D01*
X132948091Y-65186600D01*
X137429278Y-65186600D01*
X137448515Y-65369629D01*
X137448516Y-65369632D01*
X137505383Y-65544653D01*
X137505386Y-65544659D01*
X137597405Y-65704040D01*
X137642244Y-65753839D01*
X137720549Y-65840806D01*
X137720551Y-65840808D01*
X137869434Y-65948978D01*
X137869435Y-65948978D01*
X137869439Y-65948981D01*
X138006553Y-66010028D01*
X138037561Y-66023834D01*
X138037566Y-66023836D01*
X138217581Y-66062100D01*
X138401619Y-66062100D01*
X138581634Y-66023836D01*
X138749761Y-65948981D01*
X138898650Y-65840807D01*
X139021795Y-65704040D01*
X139113814Y-65544659D01*
X139170685Y-65369629D01*
X139189922Y-65186600D01*
X139170685Y-65003571D01*
X139122295Y-64854642D01*
X139113816Y-64828546D01*
X139113813Y-64828540D01*
X139021795Y-64669160D01*
X138898650Y-64532393D01*
X138898648Y-64532391D01*
X138749765Y-64424221D01*
X138749762Y-64424219D01*
X138749761Y-64424219D01*
X138688712Y-64397038D01*
X138581638Y-64349365D01*
X138581633Y-64349363D01*
X138401619Y-64311100D01*
X138217581Y-64311100D01*
X138037566Y-64349363D01*
X138037561Y-64349365D01*
X137869439Y-64424219D01*
X137869434Y-64424221D01*
X137720551Y-64532391D01*
X137720549Y-64532393D01*
X137597404Y-64669161D01*
X137505386Y-64828540D01*
X137505383Y-64828546D01*
X137452285Y-64991967D01*
X137448515Y-65003571D01*
X137429278Y-65186600D01*
X132948091Y-65186600D01*
X132947217Y-63186600D01*
X137429278Y-63186600D01*
X137448515Y-63369629D01*
X137448516Y-63369632D01*
X137505383Y-63544653D01*
X137505386Y-63544659D01*
X137597405Y-63704040D01*
X137683521Y-63799682D01*
X137720549Y-63840806D01*
X137720551Y-63840808D01*
X137869434Y-63948978D01*
X137869435Y-63948978D01*
X137869439Y-63948981D01*
X138006553Y-64010028D01*
X138037561Y-64023834D01*
X138037566Y-64023836D01*
X138217581Y-64062100D01*
X138401619Y-64062100D01*
X138581634Y-64023836D01*
X138749761Y-63948981D01*
X138898650Y-63840807D01*
X139021795Y-63704040D01*
X139113814Y-63544659D01*
X139170685Y-63369629D01*
X139189922Y-63186600D01*
X139180820Y-63100000D01*
X141284611Y-63100000D01*
X141304121Y-63298095D01*
X141361903Y-63488574D01*
X141455731Y-63664114D01*
X141455735Y-63664121D01*
X141582011Y-63817988D01*
X141735878Y-63944264D01*
X141735885Y-63944268D01*
X141886625Y-64024840D01*
X141911427Y-64038097D01*
X142101907Y-64095879D01*
X142300000Y-64115389D01*
X142498093Y-64095879D01*
X142688573Y-64038097D01*
X142864120Y-63944265D01*
X143017988Y-63817988D01*
X143144265Y-63664120D01*
X143238097Y-63488573D01*
X143295879Y-63298093D01*
X143315389Y-63100000D01*
X143295879Y-62901907D01*
X143238097Y-62711427D01*
X143209305Y-62657561D01*
X143177521Y-62598097D01*
X144288533Y-62598097D01*
X144289419Y-62609466D01*
X144292686Y-62621071D01*
X144296666Y-62646363D01*
X144299628Y-62665190D01*
X144345645Y-62785366D01*
X144415688Y-62893319D01*
X144506681Y-62984312D01*
X144614634Y-63054355D01*
X144734810Y-63100372D01*
X144778933Y-63107313D01*
X144790535Y-63110579D01*
X144801906Y-63111466D01*
X144814094Y-63110500D01*
X152814722Y-63110500D01*
X152824839Y-63111425D01*
X152838871Y-63110500D01*
X152841566Y-63110500D01*
X152852298Y-63107616D01*
X152899016Y-63101430D01*
X152903220Y-63100000D01*
X154384611Y-63100000D01*
X154404121Y-63298095D01*
X154461903Y-63488574D01*
X154555731Y-63664114D01*
X154555735Y-63664121D01*
X154682011Y-63817988D01*
X154835878Y-63944264D01*
X154835885Y-63944268D01*
X154986625Y-64024840D01*
X155011427Y-64038097D01*
X155201907Y-64095879D01*
X155400000Y-64115389D01*
X155598093Y-64095879D01*
X155788573Y-64038097D01*
X155964120Y-63944265D01*
X156117988Y-63817988D01*
X156244265Y-63664120D01*
X156338097Y-63488573D01*
X156395879Y-63298093D01*
X156415389Y-63100000D01*
X156395879Y-62901907D01*
X156338097Y-62711427D01*
X156309305Y-62657561D01*
X156244268Y-62535885D01*
X156244264Y-62535878D01*
X156117988Y-62382011D01*
X155964121Y-62255735D01*
X155964114Y-62255731D01*
X155788574Y-62161903D01*
X155598095Y-62104121D01*
X155400000Y-62084611D01*
X155201904Y-62104121D01*
X155011425Y-62161903D01*
X154835885Y-62255731D01*
X154835878Y-62255735D01*
X154682011Y-62382011D01*
X154555735Y-62535878D01*
X154555731Y-62535885D01*
X154461903Y-62711425D01*
X154404121Y-62901904D01*
X154384611Y-63100000D01*
X152903220Y-63100000D01*
X153028206Y-63057483D01*
X153146357Y-62989209D01*
X153248944Y-62899225D01*
X153332034Y-62790979D01*
X153392443Y-62668619D01*
X153406135Y-62617633D01*
X153411195Y-62602748D01*
X153411024Y-62599432D01*
X153411025Y-62599430D01*
X153411023Y-62599427D01*
X153410664Y-62592438D01*
X153410500Y-62586054D01*
X153410500Y-54400391D01*
X153410504Y-54399444D01*
X153410951Y-54340897D01*
X153410951Y-54340895D01*
X153389052Y-54242316D01*
X153385274Y-54225308D01*
X153378140Y-54210414D01*
X153334127Y-54118519D01*
X153334126Y-54118518D01*
X153334126Y-54118517D01*
X153260157Y-54026056D01*
X153260155Y-54026055D01*
X153260155Y-54026054D01*
X153167198Y-53952713D01*
X153060067Y-53902289D01*
X153049518Y-53900000D01*
X154384611Y-53900000D01*
X154404121Y-54098095D01*
X154461903Y-54288574D01*
X154555731Y-54464114D01*
X154555735Y-54464121D01*
X154682011Y-54617988D01*
X154835878Y-54744264D01*
X154835885Y-54744268D01*
X154971845Y-54816940D01*
X155011427Y-54838097D01*
X155201907Y-54895879D01*
X155400000Y-54915389D01*
X155598093Y-54895879D01*
X155788573Y-54838097D01*
X155964120Y-54744265D01*
X156117988Y-54617988D01*
X156244265Y-54464120D01*
X156338097Y-54288573D01*
X156395879Y-54098093D01*
X156415389Y-53900000D01*
X156395879Y-53701907D01*
X156338097Y-53511427D01*
X156283047Y-53408436D01*
X156244268Y-53335885D01*
X156244264Y-53335878D01*
X156117988Y-53182011D01*
X155964121Y-53055735D01*
X155964114Y-53055731D01*
X155788574Y-52961903D01*
X155598095Y-52904121D01*
X155400000Y-52884611D01*
X155201904Y-52904121D01*
X155011425Y-52961903D01*
X154835885Y-53055731D01*
X154835878Y-53055735D01*
X154682011Y-53182011D01*
X154555735Y-53335878D01*
X154555731Y-53335885D01*
X154461903Y-53511425D01*
X154404121Y-53701904D01*
X154384611Y-53900000D01*
X153049518Y-53900000D01*
X153018768Y-53893328D01*
X153003478Y-53888544D01*
X153000495Y-53888851D01*
X152987826Y-53889500D01*
X144742478Y-53889500D01*
X144630321Y-53915100D01*
X144526683Y-53965009D01*
X144526678Y-53965012D01*
X144436738Y-54036738D01*
X144365012Y-54126678D01*
X144365009Y-54126683D01*
X144315100Y-54230321D01*
X144289500Y-54342478D01*
X144289500Y-62585906D01*
X144288533Y-62598097D01*
X143177521Y-62598097D01*
X143144268Y-62535885D01*
X143144264Y-62535878D01*
X143017988Y-62382011D01*
X142864121Y-62255735D01*
X142864114Y-62255731D01*
X142688574Y-62161903D01*
X142498095Y-62104121D01*
X142300000Y-62084611D01*
X142101904Y-62104121D01*
X141911425Y-62161903D01*
X141735885Y-62255731D01*
X141735878Y-62255735D01*
X141582011Y-62382011D01*
X141455735Y-62535878D01*
X141455731Y-62535885D01*
X141361903Y-62711425D01*
X141304121Y-62901904D01*
X141284611Y-63100000D01*
X139180820Y-63100000D01*
X139170685Y-63003571D01*
X139116574Y-62837034D01*
X139113816Y-62828546D01*
X139113813Y-62828540D01*
X139021795Y-62669160D01*
X138898650Y-62532393D01*
X138898648Y-62532391D01*
X138749765Y-62424221D01*
X138749762Y-62424219D01*
X138749761Y-62424219D01*
X138654963Y-62382012D01*
X138581638Y-62349365D01*
X138581633Y-62349363D01*
X138401619Y-62311100D01*
X138217581Y-62311100D01*
X138037566Y-62349363D01*
X138037561Y-62349365D01*
X137869439Y-62424219D01*
X137869434Y-62424221D01*
X137720551Y-62532391D01*
X137720549Y-62532393D01*
X137597404Y-62669161D01*
X137505386Y-62828540D01*
X137505383Y-62828546D01*
X137452285Y-62991967D01*
X137448515Y-63003571D01*
X137429278Y-63186600D01*
X132947217Y-63186600D01*
X132946342Y-61186600D01*
X137429278Y-61186600D01*
X137448515Y-61369629D01*
X137448516Y-61369632D01*
X137505383Y-61544653D01*
X137505386Y-61544659D01*
X137597405Y-61704040D01*
X137673079Y-61788085D01*
X137720549Y-61840806D01*
X137720551Y-61840808D01*
X137869434Y-61948978D01*
X137869435Y-61948978D01*
X137869439Y-61948981D01*
X138006553Y-62010028D01*
X138037561Y-62023834D01*
X138037566Y-62023836D01*
X138217581Y-62062100D01*
X138401619Y-62062100D01*
X138581634Y-62023836D01*
X138749761Y-61948981D01*
X138898650Y-61840807D01*
X139021795Y-61704040D01*
X139113814Y-61544659D01*
X139170685Y-61369629D01*
X139189922Y-61186600D01*
X139170685Y-61003571D01*
X139113814Y-60828541D01*
X139021795Y-60669160D01*
X138898650Y-60532393D01*
X138898648Y-60532391D01*
X138749765Y-60424221D01*
X138749762Y-60424219D01*
X138749761Y-60424219D01*
X138688712Y-60397038D01*
X138581638Y-60349365D01*
X138581633Y-60349363D01*
X138401619Y-60311100D01*
X138217581Y-60311100D01*
X138037566Y-60349363D01*
X138037561Y-60349365D01*
X137869439Y-60424219D01*
X137869434Y-60424221D01*
X137720551Y-60532391D01*
X137720549Y-60532393D01*
X137597404Y-60669161D01*
X137505386Y-60828540D01*
X137505383Y-60828546D01*
X137448516Y-61003567D01*
X137448515Y-61003571D01*
X137429278Y-61186600D01*
X132946342Y-61186600D01*
X132945467Y-59186600D01*
X137429278Y-59186600D01*
X137448515Y-59369629D01*
X137448516Y-59369632D01*
X137505383Y-59544653D01*
X137505386Y-59544659D01*
X137597405Y-59704040D01*
X137706927Y-59825677D01*
X137720549Y-59840806D01*
X137720551Y-59840808D01*
X137869434Y-59948978D01*
X137869435Y-59948978D01*
X137869439Y-59948981D01*
X138006553Y-60010028D01*
X138037561Y-60023834D01*
X138037566Y-60023836D01*
X138217581Y-60062100D01*
X138401619Y-60062100D01*
X138581634Y-60023836D01*
X138749761Y-59948981D01*
X138898650Y-59840807D01*
X139021795Y-59704040D01*
X139113814Y-59544659D01*
X139170685Y-59369629D01*
X139189922Y-59186600D01*
X139170685Y-59003571D01*
X139113814Y-58828541D01*
X139021795Y-58669160D01*
X138898650Y-58532393D01*
X138898648Y-58532391D01*
X138749765Y-58424221D01*
X138749762Y-58424219D01*
X138749761Y-58424219D01*
X138688712Y-58397038D01*
X138581638Y-58349365D01*
X138581633Y-58349363D01*
X138401619Y-58311100D01*
X138217581Y-58311100D01*
X138037566Y-58349363D01*
X138037561Y-58349365D01*
X137869439Y-58424219D01*
X137869434Y-58424221D01*
X137720551Y-58532391D01*
X137720549Y-58532393D01*
X137597404Y-58669161D01*
X137505386Y-58828540D01*
X137505383Y-58828546D01*
X137448516Y-59003567D01*
X137448515Y-59003571D01*
X137429278Y-59186600D01*
X132945467Y-59186600D01*
X132944592Y-57186600D01*
X137429278Y-57186600D01*
X137448515Y-57369629D01*
X137448516Y-57369632D01*
X137505383Y-57544653D01*
X137505386Y-57544659D01*
X137597405Y-57704040D01*
X137695543Y-57813034D01*
X137720549Y-57840806D01*
X137720551Y-57840808D01*
X137869434Y-57948978D01*
X137869435Y-57948978D01*
X137869439Y-57948981D01*
X138006553Y-58010028D01*
X138037561Y-58023834D01*
X138037566Y-58023836D01*
X138217581Y-58062100D01*
X138401619Y-58062100D01*
X138581634Y-58023836D01*
X138749761Y-57948981D01*
X138898650Y-57840807D01*
X139021795Y-57704040D01*
X139113814Y-57544659D01*
X139170685Y-57369629D01*
X139189922Y-57186600D01*
X139170685Y-57003571D01*
X139122295Y-56854642D01*
X139113816Y-56828546D01*
X139113813Y-56828540D01*
X139021795Y-56669160D01*
X138898650Y-56532393D01*
X138898648Y-56532391D01*
X138749765Y-56424221D01*
X138749762Y-56424219D01*
X138749761Y-56424219D01*
X138688712Y-56397038D01*
X138581638Y-56349365D01*
X138581633Y-56349363D01*
X138401619Y-56311100D01*
X138217581Y-56311100D01*
X138037566Y-56349363D01*
X138037561Y-56349365D01*
X137869439Y-56424219D01*
X137869434Y-56424221D01*
X137720551Y-56532391D01*
X137720549Y-56532393D01*
X137597404Y-56669161D01*
X137505386Y-56828540D01*
X137505383Y-56828546D01*
X137448516Y-57003567D01*
X137448515Y-57003571D01*
X137429278Y-57186600D01*
X132944592Y-57186600D01*
X132943717Y-55186600D01*
X137429278Y-55186600D01*
X137448515Y-55369629D01*
X137448516Y-55369632D01*
X137505383Y-55544653D01*
X137505386Y-55544659D01*
X137597405Y-55704040D01*
X137706927Y-55825677D01*
X137720549Y-55840806D01*
X137720551Y-55840808D01*
X137869434Y-55948978D01*
X137869435Y-55948978D01*
X137869439Y-55948981D01*
X138006553Y-56010028D01*
X138037561Y-56023834D01*
X138037566Y-56023836D01*
X138217581Y-56062100D01*
X138401619Y-56062100D01*
X138581634Y-56023836D01*
X138749761Y-55948981D01*
X138898650Y-55840807D01*
X139021795Y-55704040D01*
X139113814Y-55544659D01*
X139170685Y-55369629D01*
X139189922Y-55186600D01*
X139170685Y-55003571D01*
X139113814Y-54828541D01*
X139021795Y-54669160D01*
X138898650Y-54532393D01*
X138898648Y-54532391D01*
X138749765Y-54424221D01*
X138749762Y-54424219D01*
X138749761Y-54424219D01*
X138685596Y-54395651D01*
X138581638Y-54349365D01*
X138581633Y-54349363D01*
X138401619Y-54311100D01*
X138217581Y-54311100D01*
X138037566Y-54349363D01*
X138037561Y-54349365D01*
X137869439Y-54424219D01*
X137869434Y-54424221D01*
X137720551Y-54532391D01*
X137720549Y-54532393D01*
X137597404Y-54669161D01*
X137505386Y-54828540D01*
X137505383Y-54828546D01*
X137452285Y-54991967D01*
X137448515Y-55003571D01*
X137429278Y-55186600D01*
X132943717Y-55186600D01*
X132943656Y-55047162D01*
X132944610Y-55035676D01*
X132943646Y-55022706D01*
X132943645Y-55022247D01*
X132940620Y-55011327D01*
X132929968Y-54939683D01*
X132872311Y-54764014D01*
X132785886Y-54600568D01*
X132724526Y-54520791D01*
X132673167Y-54454016D01*
X132673166Y-54454015D01*
X132537367Y-54328541D01*
X132382377Y-54227736D01*
X132212620Y-54154479D01*
X132212615Y-54154478D01*
X132032954Y-54110864D01*
X132032944Y-54110863D01*
X131965363Y-54106218D01*
X131958048Y-54104500D01*
X131944640Y-54104500D01*
X131936104Y-54104206D01*
X131928063Y-54103651D01*
X131921184Y-54104500D01*
X126943435Y-54104500D01*
X126937078Y-54104337D01*
X126850874Y-54099912D01*
X126850873Y-54099912D01*
X126829711Y-54102767D01*
X126672908Y-54123929D01*
X126502458Y-54180456D01*
X126345417Y-54267535D01*
X126345406Y-54267542D01*
X126207177Y-54382177D01*
X126092542Y-54520406D01*
X126092535Y-54520417D01*
X126005456Y-54677458D01*
X125948929Y-54847908D01*
X125929488Y-54991967D01*
X125925340Y-55022706D01*
X125924912Y-55025874D01*
X121364648Y-55025874D01*
X121361085Y-54991971D01*
X121304214Y-54816941D01*
X121212195Y-54657560D01*
X121089050Y-54520793D01*
X121089048Y-54520791D01*
X120940165Y-54412621D01*
X120940162Y-54412619D01*
X120940161Y-54412619D01*
X120879112Y-54385438D01*
X120772038Y-54337765D01*
X120772033Y-54337763D01*
X120592019Y-54299500D01*
X120407981Y-54299500D01*
X120227966Y-54337763D01*
X120227961Y-54337765D01*
X120059839Y-54412619D01*
X120059834Y-54412621D01*
X119910951Y-54520791D01*
X119910949Y-54520793D01*
X119787804Y-54657561D01*
X119695786Y-54816940D01*
X119695783Y-54816946D01*
X119638916Y-54991967D01*
X119638915Y-54991971D01*
X119619678Y-55175000D01*
X119636627Y-55336266D01*
X119624059Y-55404994D01*
X119600988Y-55436907D01*
X118039513Y-56998383D01*
X118039511Y-56998386D01*
X117980199Y-57101114D01*
X117976295Y-57115689D01*
X117976295Y-57115690D01*
X117949500Y-57215691D01*
X117949500Y-62837034D01*
X117929815Y-62904073D01*
X117913181Y-62924715D01*
X115624716Y-65213181D01*
X115563393Y-65246666D01*
X115537035Y-65249500D01*
X106595591Y-65249500D01*
X106526844Y-65267920D01*
X106481012Y-65280201D01*
X106481007Y-65280204D01*
X106437595Y-65305267D01*
X106437596Y-65305268D01*
X106378289Y-65339508D01*
X106378283Y-65339513D01*
X103787181Y-67930616D01*
X103725858Y-67964101D01*
X103656166Y-67959117D01*
X103600233Y-67917245D01*
X103575816Y-67851781D01*
X103575500Y-67842935D01*
X103575500Y-54502915D01*
X103595185Y-54435876D01*
X103611819Y-54415234D01*
X106525453Y-51501600D01*
X110106779Y-51501600D01*
X110109332Y-51583107D01*
X110109393Y-51586915D01*
X110115341Y-61722952D01*
X110114441Y-61731445D01*
X110114720Y-61734182D01*
X110115356Y-61746623D01*
X110115362Y-61754209D01*
X110117706Y-61763484D01*
X110125072Y-61835450D01*
X110125073Y-61835457D01*
X110177035Y-62018288D01*
X110260088Y-62189261D01*
X110260089Y-62189263D01*
X110260090Y-62189264D01*
X110371690Y-62343133D01*
X110371692Y-62343136D01*
X110411945Y-62382011D01*
X110508414Y-62475180D01*
X110561425Y-62510882D01*
X110666064Y-62581355D01*
X110666066Y-62581356D01*
X110666072Y-62581360D01*
X110839832Y-62658416D01*
X111024367Y-62703987D01*
X111071527Y-62707161D01*
X111094451Y-62708704D01*
X111101667Y-62710393D01*
X111115410Y-62710393D01*
X111123660Y-62710668D01*
X111132103Y-62711230D01*
X111138835Y-62710393D01*
X116097547Y-62710393D01*
X116099257Y-62710654D01*
X116117897Y-62710418D01*
X116119155Y-62710402D01*
X116120717Y-62710393D01*
X116146572Y-62710393D01*
X116148442Y-62710003D01*
X116208095Y-62709188D01*
X116381262Y-62676883D01*
X116546362Y-62615466D01*
X116546364Y-62615464D01*
X116546366Y-62615464D01*
X116604861Y-62581360D01*
X116698541Y-62526743D01*
X116833322Y-62413322D01*
X116946743Y-62278541D01*
X117035466Y-62126362D01*
X117096883Y-61961262D01*
X117129188Y-61788095D01*
X117130003Y-61728442D01*
X117130393Y-61726571D01*
X117130393Y-61700717D01*
X117130403Y-61699152D01*
X117130650Y-61679509D01*
X117130393Y-61677796D01*
X117130393Y-57515993D01*
X117130410Y-57515903D01*
X117130393Y-57486485D01*
X117130393Y-57458110D01*
X117130374Y-57458022D01*
X117126725Y-51551903D01*
X117127644Y-51541840D01*
X117126711Y-51527743D01*
X117126709Y-51524891D01*
X117123887Y-51514385D01*
X117114303Y-51441852D01*
X117058489Y-51261976D01*
X116973191Y-51094062D01*
X116860844Y-50942904D01*
X116860840Y-50942900D01*
X116724659Y-50812821D01*
X116724655Y-50812818D01*
X116724653Y-50812816D01*
X116568507Y-50707511D01*
X116568505Y-50707510D01*
X116568497Y-50707505D01*
X116396871Y-50629998D01*
X116396865Y-50629996D01*
X116396863Y-50629995D01*
X116396862Y-50629995D01*
X116214618Y-50582480D01*
X116214615Y-50582479D01*
X116214611Y-50582479D01*
X116144331Y-50576450D01*
X116135858Y-50574387D01*
X116125670Y-50574390D01*
X116115022Y-50573934D01*
X116109980Y-50573500D01*
X116102133Y-50574400D01*
X111040379Y-50576569D01*
X111033518Y-50575728D01*
X111025488Y-50576284D01*
X111016987Y-50576580D01*
X111003669Y-50576586D01*
X110996419Y-50578291D01*
X110937429Y-50582415D01*
X110937428Y-50582415D01*
X110774897Y-50622165D01*
X110621458Y-50688887D01*
X110621453Y-50688890D01*
X110481544Y-50780651D01*
X110481538Y-50780657D01*
X110359212Y-50894797D01*
X110359203Y-50894806D01*
X110257993Y-51028029D01*
X110257992Y-51028030D01*
X110180815Y-51176496D01*
X110129920Y-51335892D01*
X110129919Y-51335900D01*
X110106779Y-51501600D01*
X106525453Y-51501600D01*
X107965234Y-50061819D01*
X108026557Y-50028334D01*
X108052915Y-50025500D01*
X116662035Y-50025500D01*
X116729074Y-50045185D01*
X116749716Y-50061819D01*
X119600988Y-52913091D01*
X119634473Y-52974414D01*
X119636627Y-53013731D01*
X119619678Y-53175000D01*
X119638915Y-53358029D01*
X119638916Y-53358032D01*
X119695783Y-53533053D01*
X119695786Y-53533058D01*
X119695786Y-53533059D01*
X119787805Y-53692440D01*
X119897327Y-53814077D01*
X119910949Y-53829206D01*
X119910951Y-53829208D01*
X120059834Y-53937378D01*
X120059835Y-53937378D01*
X120059839Y-53937381D01*
X120146761Y-53976081D01*
X120227961Y-54012234D01*
X120227966Y-54012236D01*
X120407981Y-54050500D01*
X120592019Y-54050500D01*
X120772034Y-54012236D01*
X120940161Y-53937381D01*
X121089050Y-53829207D01*
X121212195Y-53692440D01*
X121304214Y-53533059D01*
X121361085Y-53358029D01*
X121379103Y-53186600D01*
X137429278Y-53186600D01*
X137448515Y-53369629D01*
X137448516Y-53369632D01*
X137505383Y-53544653D01*
X137505386Y-53544659D01*
X137597405Y-53704040D01*
X137706927Y-53825677D01*
X137720549Y-53840806D01*
X137720551Y-53840808D01*
X137869434Y-53948978D01*
X137869435Y-53948978D01*
X137869439Y-53948981D01*
X137997027Y-54005787D01*
X138037561Y-54023834D01*
X138037566Y-54023836D01*
X138217581Y-54062100D01*
X138401619Y-54062100D01*
X138581634Y-54023836D01*
X138749761Y-53948981D01*
X138817178Y-53900000D01*
X141284611Y-53900000D01*
X141304121Y-54098095D01*
X141361903Y-54288574D01*
X141455731Y-54464114D01*
X141455735Y-54464121D01*
X141582011Y-54617988D01*
X141735878Y-54744264D01*
X141735885Y-54744268D01*
X141871845Y-54816940D01*
X141911427Y-54838097D01*
X142101907Y-54895879D01*
X142300000Y-54915389D01*
X142498093Y-54895879D01*
X142688573Y-54838097D01*
X142864120Y-54744265D01*
X143017988Y-54617988D01*
X143144265Y-54464120D01*
X143238097Y-54288573D01*
X143295879Y-54098093D01*
X143315389Y-53900000D01*
X143295879Y-53701907D01*
X143238097Y-53511427D01*
X143183047Y-53408436D01*
X143144268Y-53335885D01*
X143144264Y-53335878D01*
X143017988Y-53182011D01*
X142864121Y-53055735D01*
X142864114Y-53055731D01*
X142688574Y-52961903D01*
X142498095Y-52904121D01*
X142300000Y-52884611D01*
X142101904Y-52904121D01*
X141911425Y-52961903D01*
X141735885Y-53055731D01*
X141735878Y-53055735D01*
X141582011Y-53182011D01*
X141455735Y-53335878D01*
X141455731Y-53335885D01*
X141361903Y-53511425D01*
X141304121Y-53701904D01*
X141284611Y-53900000D01*
X138817178Y-53900000D01*
X138898650Y-53840807D01*
X139021795Y-53704040D01*
X139113814Y-53544659D01*
X139170685Y-53369629D01*
X139189922Y-53186600D01*
X139170685Y-53003571D01*
X139113814Y-52828541D01*
X139021795Y-52669160D01*
X138898650Y-52532393D01*
X138898648Y-52532391D01*
X138749765Y-52424221D01*
X138749762Y-52424219D01*
X138749761Y-52424219D01*
X138688712Y-52397038D01*
X138581638Y-52349365D01*
X138581633Y-52349363D01*
X138401619Y-52311100D01*
X138217581Y-52311100D01*
X138037566Y-52349363D01*
X138037561Y-52349365D01*
X137869439Y-52424219D01*
X137869434Y-52424221D01*
X137720551Y-52532391D01*
X137720549Y-52532393D01*
X137597404Y-52669161D01*
X137505386Y-52828540D01*
X137505383Y-52828546D01*
X137454282Y-52985821D01*
X137448515Y-53003571D01*
X137429278Y-53186600D01*
X121379103Y-53186600D01*
X121380322Y-53175000D01*
X121361085Y-52991971D01*
X121304214Y-52816941D01*
X121212195Y-52657560D01*
X121089050Y-52520793D01*
X121089048Y-52520791D01*
X120940165Y-52412621D01*
X120940162Y-52412619D01*
X120940161Y-52412619D01*
X120879112Y-52385438D01*
X120772038Y-52337765D01*
X120772033Y-52337763D01*
X120592019Y-52299500D01*
X120407981Y-52299500D01*
X120353115Y-52311161D01*
X120283450Y-52305845D01*
X120239656Y-52277552D01*
X120201884Y-52239780D01*
X120168399Y-52178457D01*
X120173383Y-52108765D01*
X120215255Y-52052832D01*
X120280719Y-52028415D01*
X120315342Y-52030808D01*
X120407981Y-52050500D01*
X120407982Y-52050500D01*
X120592019Y-52050500D01*
X120772034Y-52012236D01*
X120940161Y-51937381D01*
X121089050Y-51829207D01*
X121212195Y-51692440D01*
X121304214Y-51533059D01*
X121361085Y-51358029D01*
X121379103Y-51186600D01*
X137429278Y-51186600D01*
X137448515Y-51369629D01*
X137448516Y-51369632D01*
X137505383Y-51544653D01*
X137505386Y-51544659D01*
X137597405Y-51704040D01*
X137706927Y-51825677D01*
X137720549Y-51840806D01*
X137720551Y-51840808D01*
X137869434Y-51948978D01*
X137869435Y-51948978D01*
X137869439Y-51948981D01*
X138006553Y-52010028D01*
X138037561Y-52023834D01*
X138037566Y-52023836D01*
X138217581Y-52062100D01*
X138401619Y-52062100D01*
X138581634Y-52023836D01*
X138749761Y-51948981D01*
X138898650Y-51840807D01*
X139021795Y-51704040D01*
X139113814Y-51544659D01*
X139170685Y-51369629D01*
X139189922Y-51186600D01*
X139170685Y-51003571D01*
X139133661Y-50889623D01*
X139113816Y-50828546D01*
X139113813Y-50828540D01*
X139021795Y-50669160D01*
X138898650Y-50532393D01*
X138898648Y-50532391D01*
X138749765Y-50424221D01*
X138749762Y-50424219D01*
X138749761Y-50424219D01*
X138688712Y-50397038D01*
X138581638Y-50349365D01*
X138581633Y-50349363D01*
X138401619Y-50311100D01*
X138217581Y-50311100D01*
X138037566Y-50349363D01*
X138037561Y-50349365D01*
X137869439Y-50424219D01*
X137869434Y-50424221D01*
X137720551Y-50532391D01*
X137720549Y-50532393D01*
X137597404Y-50669161D01*
X137505386Y-50828540D01*
X137505383Y-50828546D01*
X137452285Y-50991967D01*
X137448515Y-51003571D01*
X137429278Y-51186600D01*
X121379103Y-51186600D01*
X121380322Y-51175000D01*
X121361085Y-50991971D01*
X121324061Y-50878023D01*
X121304216Y-50816946D01*
X121304213Y-50816940D01*
X121301832Y-50812816D01*
X121212195Y-50657560D01*
X121089050Y-50520793D01*
X121089048Y-50520791D01*
X120940165Y-50412621D01*
X120940162Y-50412619D01*
X120940161Y-50412619D01*
X120879112Y-50385438D01*
X120772038Y-50337765D01*
X120772033Y-50337763D01*
X120592019Y-50299500D01*
X120407981Y-50299500D01*
X120353114Y-50311161D01*
X120283448Y-50305845D01*
X120239655Y-50277552D01*
X120201883Y-50239780D01*
X120168398Y-50178457D01*
X120173382Y-50108765D01*
X120215254Y-50052832D01*
X120280718Y-50028415D01*
X120315342Y-50030808D01*
X120407981Y-50050500D01*
X120407982Y-50050500D01*
X120592019Y-50050500D01*
X120772034Y-50012236D01*
X120940161Y-49937381D01*
X121089050Y-49829207D01*
X121212195Y-49692440D01*
X121304214Y-49533059D01*
X121361085Y-49358029D01*
X121379103Y-49186600D01*
X137429278Y-49186600D01*
X137448515Y-49369629D01*
X137448516Y-49369632D01*
X137505383Y-49544653D01*
X137505386Y-49544659D01*
X137597405Y-49704040D01*
X137675251Y-49790497D01*
X137720549Y-49840806D01*
X137720551Y-49840808D01*
X137869434Y-49948978D01*
X137869435Y-49948978D01*
X137869439Y-49948981D01*
X138006553Y-50010028D01*
X138037561Y-50023834D01*
X138037566Y-50023836D01*
X138217581Y-50062100D01*
X138401619Y-50062100D01*
X138581634Y-50023836D01*
X138749761Y-49948981D01*
X138898650Y-49840807D01*
X139021795Y-49704040D01*
X139113814Y-49544659D01*
X139170685Y-49369629D01*
X139189922Y-49186600D01*
X139170685Y-49003571D01*
X139119428Y-48845819D01*
X139113816Y-48828546D01*
X139113813Y-48828540D01*
X139021795Y-48669160D01*
X138898650Y-48532393D01*
X138898648Y-48532391D01*
X138749765Y-48424221D01*
X138749762Y-48424219D01*
X138749761Y-48424219D01*
X138688712Y-48397038D01*
X138581638Y-48349365D01*
X138581633Y-48349363D01*
X138401619Y-48311100D01*
X138217581Y-48311100D01*
X138037566Y-48349363D01*
X138037561Y-48349365D01*
X137869439Y-48424219D01*
X137869434Y-48424221D01*
X137720551Y-48532391D01*
X137720549Y-48532393D01*
X137597404Y-48669161D01*
X137505386Y-48828540D01*
X137505383Y-48828546D01*
X137452285Y-48991967D01*
X137448515Y-49003571D01*
X137429278Y-49186600D01*
X121379103Y-49186600D01*
X121380322Y-49175000D01*
X121361085Y-48991971D01*
X121313489Y-48845485D01*
X121304216Y-48816946D01*
X121304213Y-48816940D01*
X121301470Y-48812189D01*
X121212195Y-48657560D01*
X121089050Y-48520793D01*
X121089048Y-48520791D01*
X120940165Y-48412621D01*
X120940162Y-48412619D01*
X120940161Y-48412619D01*
X120879112Y-48385438D01*
X120772038Y-48337765D01*
X120772033Y-48337763D01*
X120592019Y-48299500D01*
X120407981Y-48299500D01*
X120353114Y-48311161D01*
X120283448Y-48305845D01*
X120239655Y-48277552D01*
X119776616Y-47814513D01*
X119776614Y-47814511D01*
X119717302Y-47780267D01*
X119673888Y-47755201D01*
X119661780Y-47751957D01*
X119649673Y-47748713D01*
X119649670Y-47748712D01*
X119611478Y-47738478D01*
X119559309Y-47724500D01*
X107175741Y-47724500D01*
X107106994Y-47742920D01*
X107061162Y-47755201D01*
X107061157Y-47755204D01*
X107017745Y-47780267D01*
X107017746Y-47780268D01*
X106958439Y-47814508D01*
X106958433Y-47814513D01*
X101364513Y-53408433D01*
X101364511Y-53408436D01*
X101305200Y-53511163D01*
X101299333Y-53533058D01*
X101299334Y-53533059D01*
X101274500Y-53625741D01*
X101274500Y-67422085D01*
X101254815Y-67489124D01*
X101238181Y-67509766D01*
X86889513Y-81858433D01*
X86889511Y-81858436D01*
X86830200Y-81961163D01*
X86830199Y-81961166D01*
X86823712Y-81985374D01*
X86823713Y-81985375D01*
X86799500Y-82075741D01*
X86799500Y-106929663D01*
X86788294Y-106981174D01*
X86764835Y-107032541D01*
X86764834Y-107032542D01*
X86744353Y-107175000D01*
X83610500Y-107175000D01*
X83610500Y-49810894D01*
X83612189Y-49790497D01*
X83614794Y-49774875D01*
X83639977Y-49623872D01*
X83645482Y-49602653D01*
X83702021Y-49444048D01*
X83711180Y-49424133D01*
X83794783Y-49277987D01*
X83807311Y-49259995D01*
X83915368Y-49130870D01*
X83930870Y-49115368D01*
X84059995Y-49007311D01*
X84077987Y-48994783D01*
X84224133Y-48911180D01*
X84244048Y-48902021D01*
X84402653Y-48845482D01*
X84423872Y-48839977D01*
X84574875Y-48814794D01*
X84590497Y-48812189D01*
X84610894Y-48810500D01*
X88881667Y-48810500D01*
X88889001Y-48811374D01*
X88895656Y-48810864D01*
X88905145Y-48810500D01*
X88917248Y-48810500D01*
X88925056Y-48808634D01*
X88997968Y-48803121D01*
X89186606Y-48754181D01*
X89363664Y-48672757D01*
X89523598Y-48561401D01*
X89661401Y-48423598D01*
X89772757Y-48263664D01*
X89854181Y-48086606D01*
X89903121Y-47897968D01*
X89908634Y-47825056D01*
X89910500Y-47817248D01*
X89910500Y-47805145D01*
X89910864Y-47795656D01*
X89911374Y-47789002D01*
X89910500Y-47781666D01*
X89910500Y-45650000D01*
X92034611Y-45650000D01*
X92054121Y-45848095D01*
X92111903Y-46038574D01*
X92205731Y-46214114D01*
X92205735Y-46214121D01*
X92332011Y-46367988D01*
X92485878Y-46494264D01*
X92485885Y-46494268D01*
X92661425Y-46588096D01*
X92661427Y-46588097D01*
X92851907Y-46645879D01*
X93050000Y-46665389D01*
X93248093Y-46645879D01*
X93438573Y-46588097D01*
X93614120Y-46494265D01*
X93767988Y-46367988D01*
X93894265Y-46214120D01*
X93988097Y-46038573D01*
X94045879Y-45848093D01*
X94065389Y-45650000D01*
X150234611Y-45650000D01*
X150254121Y-45848095D01*
X150311903Y-46038574D01*
X150405731Y-46214114D01*
X150405735Y-46214121D01*
X150532011Y-46367988D01*
X150685878Y-46494264D01*
X150685885Y-46494268D01*
X150861425Y-46588096D01*
X150861427Y-46588097D01*
X151051907Y-46645879D01*
X151250000Y-46665389D01*
X151448093Y-46645879D01*
X151638573Y-46588097D01*
X151814120Y-46494265D01*
X151967988Y-46367988D01*
X152094265Y-46214120D01*
X152188097Y-46038573D01*
X152245879Y-45848093D01*
X152265389Y-45650000D01*
X152245879Y-45451907D01*
X152188097Y-45261427D01*
X152094265Y-45085880D01*
X152094264Y-45085878D01*
X151967988Y-44932011D01*
X151814121Y-44805735D01*
X151814114Y-44805731D01*
X151638574Y-44711903D01*
X151448095Y-44654121D01*
X151250000Y-44634611D01*
X151051904Y-44654121D01*
X150861425Y-44711903D01*
X150685885Y-44805731D01*
X150685878Y-44805735D01*
X150532011Y-44932011D01*
X150405735Y-45085878D01*
X150405731Y-45085885D01*
X150311903Y-45261425D01*
X150254121Y-45451904D01*
X150234611Y-45650000D01*
X94065389Y-45650000D01*
X94045879Y-45451907D01*
X93988097Y-45261427D01*
X93894265Y-45085880D01*
X93894264Y-45085878D01*
X93767988Y-44932011D01*
X93614121Y-44805735D01*
X93614114Y-44805731D01*
X93438574Y-44711903D01*
X93248095Y-44654121D01*
X93050000Y-44634611D01*
X92851904Y-44654121D01*
X92661425Y-44711903D01*
X92485885Y-44805731D01*
X92485878Y-44805735D01*
X92332011Y-44932011D01*
X92205735Y-45085878D01*
X92205731Y-45085885D01*
X92111903Y-45261425D01*
X92054121Y-45451904D01*
X92034611Y-45650000D01*
X89910500Y-45650000D01*
X89910500Y-40510894D01*
X89912189Y-40490497D01*
X89914794Y-40474875D01*
X89939977Y-40323872D01*
X89945482Y-40302653D01*
X90002021Y-40144048D01*
X90011180Y-40124133D01*
X90094783Y-39977987D01*
X90107311Y-39959995D01*
X90215368Y-39830870D01*
X90230870Y-39815368D01*
X90359995Y-39707311D01*
X90377987Y-39694783D01*
X90524133Y-39611180D01*
X90544048Y-39602021D01*
X90702653Y-39545482D01*
X90723872Y-39539977D01*
X90874875Y-39514794D01*
X90890497Y-39512189D01*
X90910894Y-39510500D01*
X164119106Y-39510500D01*
X164139503Y-39512188D01*
G37*
G04 #@! TD.AperFunction*
M02*
