M48
; DRILL file {KiCad 8.0.2} date 2024-08-20T08:21:01+0200
; FORMAT={-:-/ absolute / metric / decimal}
; #@! TF.CreationDate,2024-08-20T08:21:01+02:00
; #@! TF.GenerationSoftware,Kicad,Pcbnew,8.0.2
; #@! TF.FileFunction,Plated,2,4,Blind
FMAT,2
METRIC
; #@! TA.AperFunction,Plated,Buried,ViaDrill
T1C0.300
%
G90
G05
T1
X100.17Y-80.02
X100.17Y-81.52
X100.5Y-88.7
X100.5Y-90.34
X101.67Y-78.52
X101.67Y-80.02
X101.67Y-81.52
X102.0Y-88.71
X102.0Y-90.35
X103.17Y-78.52
X103.17Y-80.02
X103.17Y-81.52
X104.81Y-78.53
X104.81Y-80.03
X104.81Y-81.53
X106.31Y-78.53
X106.31Y-80.03
X106.31Y-81.53
X107.81Y-78.53
X107.81Y-80.03
X107.81Y-81.53
X108.54Y-90.27
X108.68Y-88.66
X109.29Y-85.74
X110.05Y-88.66
X110.09Y-87.0
X110.45Y-83.45
X110.92Y-85.74
X117.0Y-92.0
X117.0Y-93.5
X117.0Y-95.0
X118.5Y-92.0
X118.5Y-93.5
X118.5Y-95.0
X120.0Y-92.0
X120.0Y-93.5
X120.0Y-95.0
X121.5Y-92.0
X121.5Y-93.5
X121.5Y-95.0
M30
